<svg xmlns="http://www.w3.org/2000/svg" viewBox="0 0 24 24" aria-label="LeetCode Logo"  role="img"><path fill="#B3B1B0" d="M22 14.4c0-.8-.6-1.4-1.3-1.4h-10c-.7 0-1.3.6-1.3 1.4s.6 1.3 1.3 1.3h10c.7 0 1.3-.6 1.3-1.3z"/><path fill="#E7A41F" d="m3.5 18.2 4.3 4.3c1 1 2.3 1.5 3.8 1.5s2.8-.5 3.8-1.5L18 20c.5-.5.5-1.4 0-2-.6-.5-1.4-.5-2 0l-2.6 2.6c-.5.5-1.1.7-1.8.7s-1.4-.2-1.8-.7l-4.3-4.3c-.5-.5-.7-1.2-.7-1.9s.2-1.3.7-1.8L9.8 8c.4-.5 1-.6 1.8-.6s1.3.2 1.8.6l2.7 2.6c.5.5 1.3.5 1.9 0 .5-.5.5-1.4 0-2l-2.6-2.5A5 5 0 0 0 13 4.8l2.4-2.5c.5-.5.5-1.4 0-1.9S14 0 13.5.4l-10 10c-1 1-1.5 2.4-1.5 4 0 1.4.5 2.8 1.5 3.8z"/><path fill="#070706" d="M8.1 22.8a2.1 2.1 0 0 1-.5-.3l-4-4c-2-2-2.2-5-.7-7.4a6 6 0 0 1 .8-1L13.3.5c.7-.6 1.5-.7 2.1 0 .6.5.5 1.4 0 2L13 4.8l-.2.3-2.6 2.6-.4.3-4.2 4.3a2.9 2.9 0 0 0 0 4.1l4 4 .2.2c.5.3.5 1.2.2 1.7-.3.4-.8.7-1.4.7-.2 0-.3 0-.5-.2z"/></svg>
