<svg xmlns="http://www.w3.org/2000/svg" fill="#fff" aria-label="Blogger" role="img" viewBox="0 0 512 512"><rect width="512" height="512" fill="#f57d00" rx="15%"/><path d="M268 97l-74 1h-1c-32 0-60 13-75 34a91 91 0 0 0-16 51l-2 126h-1v2c-1 30 5 58 24 78 20 20 48 26 76 26h115c27 0 53-9 72-28 18-19 26-46 27-74v-1l-1-37c-1-12-3-27-16-40a59 59 0 0 0-40-15h-5c3-13 3-26 2-37v-4c-2-41-36-81-84-82h-1zm-68 65l63 1a27 27 0 0 1 0 55l-64-1a27 27 0 0 1 1-55zm-8 125h128a27 27 0 1 1 0 55H192a27 27 0 1 1 0-55z"/></svg>