<svg xmlns="http://www.w3.org/2000/svg" aria-label="IBM" role="img" viewBox="0 0 512 512"><rect width="512" height="512" fill="#fff" rx="15%"/><path fill="#1f70c1" d="M26 164v13h90v-13zm102 0v13h128s-13-13-30-13zm153 0v13h77l-5-13zm132 0l-4 13h76v-13zM26 188v13h90v-13zm102 1v12h143s-2-10-5-12zm153 0v12h86l-5-12zm123 0l-4 12h85v-12zM52 213v13h39v-13zm102 0v13h39v-13zm76 0v13h39s3-7 3-13zm77 0v13h68l-4-13zm89 0l-5 13h69v-13zM52 237v13h39v-13zm102 0v13h99s8-6 11-13zm153 0v13h38v-7l3 7h71l2-7v7h39v-13h-73l-3 11-4-11zM52 262v13h39v-13zm102 0v13h110c-3-7-11-13-11-13zm153 0v13h38v-13zm45 0l5 13h53l5-13zm69 0v13h39v-13zM52 286v13h39v-13zm102 0v13h39v-13zm76 0v13h42c0-6-3-13-3-13zm77 0v13h38v-13zm54 0l5 13h35l5-13zm60 0v13h39v-13zM27 311v13h89v-13zm101 0v13h138c3-3 5-13 5-13zm154 0v13h63v-13zm88 0l5 13h18l4-13zm51 0v13h65v-13zM27 335v13h89v-13zm101 0v13h98c17 0 30-13 30-13zm154 0v13h63v-13zm97 0l4 13h1l5-13zm42 0v13h65v-13z"/></svg>