<svg xmlns="http://www.w3.org/2000/svg" fill="#fff" aria-label="Ubuntu" role="img" viewBox="0 0 512 512"><rect width="512" height="512" fill="#E95420" rx="15%"/><circle cx="256" cy="256" r="170"/><circle cx="256" cy="256" r="100" fill="#E95420"/><circle cx="60" cy="256" r="60" fill="#E95420"/><circle cx="60" cy="256" r="45"/><circle cx="60" cy="256" r="60" fill="#E95420" transform="rotate(120 256 256)"/><circle cx="60" cy="256" r="45" transform="rotate(120 256 256)"/><circle cx="60" cy="256" r="60" fill="#E95420" transform="rotate(240 256 256)"/><circle cx="60" cy="256" r="45" transform="rotate(240 256 256)"/><path fill="#E95420" d="M432 245v22h-80v-22zM177.53 413.92l-19.06-11 40-69.28 19.06 11zm-19.06-304.84l19.06-11 40 69.28-19.06 11z"/></svg>