<svg xmlns="http://www.w3.org/2000/svg" aria-label="WeChat" role="img" viewBox="0 0 512 512"><rect width="512" height="512" fill="#00b80c" rx="15%"/><path fill="#fff" d="M448 268c-10-23-29-41-51-52-39-20-88-20-127 0-28 14-50 39-57 70-5 22 0 46 12 66 17 29 49 48 83 54 24 5 48 2 72-5 14 6 26 14 40 21l-11-35c15-11 29-24 37-41 13-24 13-53 2-78zm-136 9c-4 11-19 14-27 6-9-8-5-24 6-27 12-5 26 9 21 21zm80 2c-4 10-19 12-26 4-4-3-5-8-6-12 2-8 7-15 15-16 12-1 23 13 17 24zM283 111c-42-24-93-27-138-11-30 11-56 30-73 57-14 24-20 54-13 82 7 31 29 56 54 73l-14 43 49-26c20 6 40 9 61 9-5-16-7-33-4-50 4-22 16-43 33-59 29-27 70-38 109-35-8-36-33-66-64-83zm-111 64c-3 14-22 21-33 12-13-9-9-31 6-36 14-6 31 9 27 24zm100-4c1 16-21 26-33 15-12-9-9-30 6-35 13-5 29 6 27 20z"/></svg>