<svg width="116" height="116" xmlns="http://www.w3.org/2000/svg"><g fill="none" fill-rule="evenodd"><path d="M2 58c0 30.929 25.072 56 56 56s56-25.071 56-56c0-30.928-25.072-56-56-56S2 27.072 2 58z" fill="#FFF"/><path d="M58 14c24.3 0 44 19.7 44 44 0 24.301-19.7 44-44 44S14 82.301 14 58c0-24.3 19.7-44 44-44" fill="#1A8CFF"/><path d="M0 58c0 32.034 25.967 58 58 58s58-25.966 58-58c0-32.033-25.967-58-58-58S0 25.967 0 58zm2 0C2 27.075 27.069 2 58 2s56 25.075 56 56-25.068 56-56 56S2 88.925 2 58z" fill="#000" fill-rule="nonzero" opacity=".5"/><path d="M113.921 55c.052.993.079 1.994.079 3 0 30.928-25.072 56-56 56S2 88.928 2 58c0-1.006.027-2.007.079-3 1.559 29.533 26 53 55.921 53 29.69 0 53.985-23.106 55.88-52.318l.041-.682zM58 8c27.062 0 49 21.938 49 49 0 15.13-6.857 28.657-17.632 37.646C98.37 86.249 104 74.282 104 61c0-25.405-20.595-46-46-46S12 35.595 12 61c0 13.282 5.629 25.249 14.631 33.646C15.857 85.657 9 72.129 9 57 9 29.938 30.938 8 58 8z" fill-opacity=".052" fill="#000"/><path d="M58 14c24.304 0 44 19.703 44 44 0 24.298-19.696 44-44 44-24.06 0-43.606-19.31-43.994-43.272L14 58c0-24.297 19.696-44 44-44zm0 2c-23.196 0-42 18.804-42 42 0 23.197 18.804 42 42 42s42-18.803 42-42c0-23.196-18.804-42-42-42z" fill="#000" fill-rule="nonzero" opacity=".256"/><path d="M58.223 23A35.096 35.096 0 0023 58.223C23 77.403 38.743 93 58.223 93 77.33 93 93 77.33 93 58.223 93 38.743 77.402 23 58.223 23zm-.002 2C76.225 25 91 39.775 91 58.221 91 76.226 76.225 91 58.221 91 39.775 91 25 76.226 25 58.221A33.096 33.096 0 0158.221 25z" fill-opacity=".25" fill="#000" fill-rule="nonzero"/><path d="M58.221 25C76.225 25 91 39.775 91 58.221 91 76.226 76.225 91 58.221 91 39.775 91 25 76.226 25 58.221A33.096 33.096 0 0158.221 25z" fill="#F7F7F7"/><g><path d="M73 58c0 8.284-6.716 15-15 15-8.284 0-15-6.716-15-15 0-8.284 6.716-15 15-15 8.284 0 15 6.716 15 15z" fill-opacity=".05" fill="#000"/><path d="M58 41c-9.389 0-17 7.611-17 17s7.611 17 17 17 17-7.611 17-17-7.611-17-17-17zm0 2c8.284 0 15 6.716 15 15 0 8.284-6.716 15-15 15-8.284 0-15-6.716-15-15 0-8.284 6.716-15 15-15z" fill="#FFF" fill-rule="nonzero"/><path d="M58 43c8.284 0 15 6.716 15 15 0 8.284-6.716 15-15 15-8.284 0-15-6.716-15-15 0-8.284 6.716-15 15-15zm0 2c-7.18 0-13 5.82-13 13s5.82 13 13 13 13-5.82 13-13-5.82-13-13-13z" fill-opacity=".15" fill="#000" fill-rule="nonzero"/></g><g><path d="M63.577 32H52.423C49.951 32 48 34.165 48 36.772v10.792c0 .982.354 1.93.996 2.642l1.64 1.819c.037.042.037.161 0 .204l-1.64 1.818A3.95 3.95 0 0048 56.69v22.539C48 81.835 49.951 84 52.423 84h11.154C66.049 84 68 81.835 68 79.228V68.436a3.95 3.95 0 00-.996-2.642l-1.64-1.819c-.037-.042-.037-.161 0-.204l1.64-1.818A3.95 3.95 0 0068 59.31V36.772C68 34.165 66.049 32 63.577 32zm-.127 2.038c1.408 0 2.55 1.294 2.55 2.89v22.374c0 .51-.18 1-.498 1.362l-1.594 1.806c-.664.752-.664 1.972 0 2.725L65.502 67c.319.361.498.851.498 1.362v10.71c0 1.595-1.142 2.89-2.55 2.89h-10.9c-1.408 0-2.55-1.295-2.55-2.89V56.697c0-.51.18-1 .498-1.362l1.594-1.806c.664-.752.664-1.972 0-2.725L50.498 49A2.064 2.064 0 0150 47.637v-10.71c0-1.595 1.142-2.89 2.55-2.89h10.9z" fill="#FFF" fill-rule="nonzero"/><path d="M50 47.62V36.895C50 35.296 51.142 34 52.55 34h10.9c1.408 0 2.55 1.296 2.55 2.894v22.41a2.07 2.07 0 01-.498 1.364l-1.594 1.81c-.664.753-.664 1.974 0 2.728l1.594 1.809c.319.362.498.853.498 1.364v10.727C66 80.704 64.858 82 63.45 82h-10.9C51.142 82 50 80.704 50 79.106v-22.41c0-.511.18-1.002.498-1.364l1.594-1.81c.664-.753.664-1.974 0-2.728l-1.594-1.809A2.07 2.07 0 0150 47.621z" fill="#0A2D4D"/><path d="M63.45 34c1.408 0 2.55 1.296 2.55 2.894v22.41a2.07 2.07 0 01-.498 1.364l-1.594 1.81c-.664.753-.664 1.974 0 2.728l1.594 1.809c.319.362.498.853.498 1.364v10.727C66 80.704 64.858 82 63.45 82h-10.9C51.142 82 50 80.704 50 79.106v-22.41c0-.511.18-1.002.498-1.364l1.594-1.81c.664-.753.664-1.974 0-2.728l-1.594-1.809A2.07 2.07 0 0150 47.621V36.894C50 35.296 51.142 34 52.55 34h10.9zm-.288 2.054l-10.324-.013c-.404 0-.784.38-.833.916l-.005.118v10.63c0 .032.007.059.015.078l.014.023L53.7 49.6c1.306 1.403 1.35 3.601.135 5.059l-.135.153-1.67 1.794c-.01.01-.02.031-.025.058l-.004.043v22.218c0 .559.353.975.752 1.028l.086.006 10.324.013c.404 0 .784-.379.833-.916l.005-.117V68.308a.196.196 0 00-.015-.078l-.014-.023-1.67-1.794c-1.306-1.403-1.35-3.6-.135-5.058l.135-.154 1.67-1.794c.01-.01.02-.03.025-.057l.004-.044V37.088c0-.558-.353-.975-.752-1.028l-.086-.006z" fill-opacity=".4" fill="#000" fill-rule="nonzero"/></g></g></svg>