<?xml version="1.0" encoding="utf-8"?>
<!-- Generator: Adobe Illustrator 19.2.1, SVG Export Plug-In . SVG Version: 6.00 Build 0)  -->
<svg version="1.1" id="Layer_1" xmlns="http://www.w3.org/2000/svg" xmlns:xlink="http://www.w3.org/1999/xlink" x="0px" y="0px"
	 viewBox="0 0 35 35" style="enable-background:new 0 0 35 35;" xml:space="preserve">
<style type="text/css">
	.st0{fill-rule:evenodd;clip-rule:evenodd;}
	.st1{fill-rule:evenodd;clip-rule:evenodd;fill:#FFFFFF;}
</style>
<path class="st0" d="M21,34.7l13.9-19.5C33.7,6.6,26.4,0,17.5,0C7.8,0,0,7.8,0,17.5S7.8,35,17.5,35C18.7,35,19.8,34.9,21,34.7z"/>
<title>Y2eLm6gL_400x400</title>
<desc>Created with Sketch.</desc>
<path class="st1" d="M18.5,6c-6.5,0-10,2.7-10,5.4c0,2.3,1.6,3.6,4.3,3.6c2.5,0,4.1-0.9,4.1-2.2c0-0.2,0-0.4-0.1-0.6
	c-0.1-0.2-0.1-0.4-0.1-0.7c0-0.3,0.1-1.3,1.6-1.3c1.7,0,1.7,1.4,1.7,2.2v3.8l-0.4,0c-8.6,0.2-13,2.3-13,6.3c0,3.2,2.9,5.3,7.3,5.3
	c2.5,0,5.2-1.3,6.3-3l0,0L29,12.6C29,9.4,25.6,6,18.5,6z M20,21.4c0,1.1-0.9,2-2.1,2c-1.2,0-2-0.7-2-1.9c0-1.3,1-2.8,3.7-3l0.4,0
	V21.4z"/>
</svg>
