<svg height="81.595718" viewBox="0 0 230.28125 230.28124" width="81.595718" xmlns="http://www.w3.org/2000/svg"><path d="m315 205 80 170-80 170-80-170z" fill="none" stroke="#fff" stroke-width="40" transform="translate(-3032.9376 16738.813)"/><path d="m21.17474.84536805h187.92119c11.18659 0 20.34117 9.15450005 20.34117 20.33759995v187.924702c0 11.1866-9.15458 20.33771-20.34117 20.33771h-187.92119c-11.18658 0-20.33764-9.15111-20.33764-20.33772v-187.924692c0-11.1830999 9.15106-20.33759995 20.33764-20.33759995" fill="#fff" stroke="#000" stroke-width="1.693333"/><g fill-rule="evenodd"><path d="m21.17474 5.9249681h187.9212c8.39611 0 15.26469 6.8685999 15.26469 15.2575999v187.924802c0 8.39608-6.86858 15.2611-15.26469 15.2611h-187.9212c-8.38905 0-15.25411-6.86502-15.25411-15.2611v-187.924802c0-8.389 6.86506-15.2575999 15.25411-15.2575999" fill="#155196"/><path d="m91.541431 56.829053c8.202083-.758473 14.573249-7.824612 14.573249-16.086667 0-8.893527-7.25311-16.146639-16.14311-16.146639-8.893528 0-16.150167 7.253112-16.150167 16.146639 0 2.712861.758472 5.489222 2.017889 7.824611l5.753806 80.958973 59.263142.0212 24.30286 56.94892 31.90522-12.51655-4.93889-11.76514-17.85761 6.44172-23.51617-54.28897-55.103886.36689-.747888-10.25172 39.885054.0141v-15.169449l-41.409054-.01768-1.834445-32.48025z" fill="#fff"/><path d="m151.14324 172.94268c-9.99773 19.76967-30.93861 32.79775-53.262392 32.79775-32.79775 0-59.552417-26.75114-59.552417-59.54889 0-23.0258 13.959417-44.4253 34.783889-53.915023l1.351139 17.589503c-12.322528 7.76111-19.914306 21.76638-19.914306 36.44899 0 23.78781 19.409834 43.19412 43.201167 43.19412 21.76639 0 40.3225-16.70403 42.85897-38.13528z" fill="#fff"/></g></svg>