<?xml version="1.0" encoding="utf-8"?>
<!-- Generator: Adobe Illustrator 28.2.0, SVG Export Plug-In . SVG Version: 6.00 Build 0)  -->
<svg version="1.1" id="Layer_1" xmlns="http://www.w3.org/2000/svg" xmlns:xlink="http://www.w3.org/1999/xlink" x="0px" y="0px"
	 viewBox="0 0 136 44" style="enable-background:new 0 0 136 44;" xml:space="preserve">
<style type="text/css">
	.st0{fill:#00D16A;}
</style>
<path class="st0" d="M0,10h20c2.21,0,4,1.79,4,4v20H4c-2.21,0-4-1.79-4-4V20h10v8h4V16H0V10z"/>
<path class="st0" d="M112,10v24h10V16h4v18h10V14c0-2.21-1.79-4-4-4H112z"/>
<path class="st0" d="M56,44h20c2.21,0,4-1.79,4-4V10H70v18h-4V10H56v20c0,2.21,1.79,4,4,4h10v4H56V44z"/>
<path class="st0" d="M108,34H88c-2.21,0-4-1.79-4-4V10h20c2.21,0,4,1.79,4,4v10H98v-8h-4v12h14V34z"/>
<path class="st0" d="M52,0v34H32c-2.21,0-4-1.79-4-4V14c0-2.21,1.79-4,4-4h6v18h4V0H52z"/>
</svg>
