<svg height="513.45758" viewBox="0 0 438.03826 513.45758" width="438.03827" xmlns="http://www.w3.org/2000/svg" xmlns:xlink="http://www.w3.org/1999/xlink"><clipPath id="a"><path d="m0 595.28h841.89v-595.28h-841.89z"/></clipPath><g clip-path="url(#a)" transform="matrix(1.3333333 0 0 -1.3333333 -341.97718845057 653.16466317399)"><g fill="#fff"><path d="m0 0c-17.157-.01-31.095 13.946-31.097 31.101l-.008 95.217c-.006 17.137 13.929 31.09 31.063 31.093 8.332.007 16.13-3.225 22.011-9.096 5.881-5.874 9.114-13.686 9.12-21.988l-.008-95.225c.021-8.291-3.203-16.104-9.079-21.969-5.864-5.891-13.685-9.13-22.002-9.133" transform="translate(287.5879 213.3047)"/><path d="m0 0c-12.556.006-22.732-10.19-22.735-22.735l.017-95.214c.003-12.588 10.197-22.747 22.738-22.759 12.566.015 22.744 10.178 22.731 22.758l.002 95.227c-.005 12.542-10.195 22.732-22.753 22.723" transform="translate(287.5635 362.3589)"/><path d="m0 0-8.359.003-204.813-.027-8.362-.003-.003 8.361c-.019 34.321 18.68 66.242 49.304 85.102l-11.906 21.733c-1.458 2.548-1.822 5.772-.975 8.723.861 2.949 2.894 5.482 5.621 6.933 1.576.894 3.501 1.391 5.449 1.388 4.216-.001 8.083-2.289 10.117-5.989l12.462-22.701c12.897 4.732 26.511 7.144 40.576 7.139 14.268.006 27.951-2.409 40.902-7.159l12.442 22.74c2.003 3.691 5.895 5.99 10.106 5.986 1.896.002 3.786-.461 5.455-1.359 2.799-1.536 4.751-3.984 5.61-6.954.855-2.952.512-6.07-.988-8.774l-11.9-21.723c30.578-18.898 49.254-50.796 49.251-85.057z" transform="translate(531.4648 357.6445)"/><path d="m0 0c-4.734-.005-8.597 3.828-8.588 8.585 0 4.707 3.848 8.588 8.592 8.604 4.709-.013 8.572-3.895 8.568-8.609.003-4.74-3.839-8.581-8.572-8.58m-93.257-.017c-4.717.011-8.559 3.845-8.56 8.581.002 4.718 3.842 8.596 8.567 8.596 4.749.004 8.59-3.878 8.596-8.594.002-4.733-3.847-8.58-8.603-8.583m96.818 44.782 15.869 28.981c.846 1.514.293 3.454-1.238 4.293-1.552.836-3.467.265-4.285-1.257l-16.035-29.271c-13.486 5.985-28.585 9.356-44.547 9.34-15.929.013-31.001-3.34-44.448-9.309l-16.046 29.207c-.828 1.54-2.762 2.103-4.271 1.255-1.543-.823-2.107-2.759-1.252-4.27l15.878-28.956c-31.196-16.092-52.271-46.727-52.255-81.899l204.81.021c.006 35.167-21.032 65.738-52.18 81.865" transform="translate(467.3574 403.0952)"/><path d="m0 0c-17.14.002-31.089 13.944-31.093 31.095l-.008 42.023-8.167-.007c-8.728-.002-16.918 3.389-23.074 9.549-6.164 6.154-9.56 14.35-9.548 23.084l-.03 147.53-.002 8.367 8.361-.002 203.275.032 8.364.006.001-8.361.021-147.549c.003-17.993-14.635-32.635-32.625-32.631l-8.223-.01.012-42.008c-.002-17.14-13.946-31.097-31.079-31.096-8.305-.019-16.102 3.21-21.987 9.097-5.891 5.871-9.133 13.678-9.129 21.979l-.001 42.029-13.973.001v-42.022c-.003-17.146-13.948-31.109-31.095-31.106" transform="translate(382.6821 104.7803)"/><path d="m0 0c-.012-13.436 10.833-24.282 24.257-24.277l16.52-.001.019-50.379c-.003-12.541 10.187-22.738 22.72-22.739 12.564 0 22.742 10.206 22.731 22.756l.002 50.368 30.696.005-.002-50.377c.011-12.543 10.214-22.749 22.744-22.728 12.562-.008 22.747 10.198 22.745 22.749l-.014 50.363 16.58.005c13.378-.005 24.261 10.867 24.26 24.274l-.026 147.559-203.269-.036z" transform="translate(319.1611 210.5244)"/><path d="m0 0c-17.148-.002-31.098 13.933-31.093 31.087l-.023 95.217c.004 17.152 13.931 31.102 31.072 31.103 17.162.002 31.118-13.945 31.115-31.093l.009-95.211c.004-17.141-13.933-31.106-31.08-31.103" transform="translate(553.9316 213.3428)"/><path d="m0 0c-12.555.01-22.731-10.186-22.729-22.743l.009-95.213c.006-12.572 10.177-22.743 22.743-22.735 12.555.002 22.719 10.165 22.73 22.743l-.025 95.211c-.002 12.56-10.171 22.74-22.728 22.737" transform="translate(553.9053 362.3896)"/></g><path d="m0 0c-.002 12.557-10.18 22.734-22.736 22.731-12.555.01-22.732-10.185-22.729-22.743l.016-95.215c-.001-12.57 10.172-22.729 22.736-22.733 12.555.002 22.727 10.163 22.73 22.743zm-257.517 18.408.035-147.555c-.011-13.422 10.845-24.255 24.26-24.258l16.519-.007.019-50.379c-.003-12.541 10.193-22.739 22.72-22.739 12.564 0 22.742 10.206 22.745 22.755l-.012 50.369 30.696.006.013-50.377c-.003-12.536 10.199-22.749 22.728-22.729 12.563-.008 22.747 10.198 22.745 22.749l-.014 50.363 16.577.013c13.382-.005 24.268 10.844 24.271 24.266l-.025 147.557zm148.233 45.029c-4.735-.005-8.589 3.834-8.588 8.585.016 4.705 3.848 8.588 8.592 8.604 4.709-.013 8.572-3.895 8.568-8.609.011-4.741-3.839-8.581-8.572-8.58m-93.258-.017c-4.716.011-8.558 3.845-8.559 8.581.002 4.718 3.835 8.597 8.567 8.596 4.749.004 8.59-3.878 8.596-8.594.002-4.732-3.848-8.58-8.604-8.583m96.818 44.782 15.87 28.981c.846 1.514.291 3.443-1.245 4.298-1.547.82-3.46.263-4.278-1.262l-16.029-29.283c-13.491 6.001-28.582 9.37-44.553 9.352-15.929.013-31.016-3.341-44.448-9.309l-16.046 29.207c-.836 1.541-2.755 2.098-4.27 1.259-1.545-.831-2.109-2.763-1.253-4.274l15.877-28.959c-31.195-16.089-52.271-46.724-52.255-81.896l204.811.021c.006 35.167-21.032 65.738-52.181 81.865m-183.354-85.501c-12.556.006-22.732-10.191-22.735-22.736l.017-95.213c.003-12.588 10.183-22.745 22.74-22.743 12.564-.001 22.742 10.162 22.729 22.742l.002 95.227c-.005 12.542-10.196 22.731-22.753 22.723" fill="#a4c439" transform="translate(576.6416 339.6582)"/></g></svg>