<?xml version="1.0" encoding="UTF-8" standalone="no"?>
<!-- Created with Inkscape (http://www.inkscape.org/) -->

<svg
   xmlns:dc="http://purl.org/dc/elements/1.1/"
   xmlns:cc="http://creativecommons.org/ns#"
   xmlns:rdf="http://www.w3.org/1999/02/22-rdf-syntax-ns#"
   xmlns:svg="http://www.w3.org/2000/svg"
   xmlns="http://www.w3.org/2000/svg"
   xmlns:sodipodi="http://sodipodi.sourceforge.net/DTD/sodipodi-0.dtd"
   xmlns:inkscape="http://www.inkscape.org/namespaces/inkscape"
   version="1.1"
   id="svg2"
   xml:space="preserve"
   width="438.03827"
   height="513.45758"
   viewBox="0 0 438.03826 513.45758"
   sodipodi:docname="android.svg"
   inkscape:version="0.92.1 r15371"><metadata
     id="metadata8"><rdf:RDF><cc:Work
         rdf:about=""><dc:format>image/svg+xml</dc:format><dc:type
           rdf:resource="http://purl.org/dc/dcmitype/StillImage" /><dc:title></dc:title></cc:Work></rdf:RDF></metadata><defs
     id="defs6"><clipPath
       clipPathUnits="userSpaceOnUse"
       id="clipPath18"><path
         d="M 0,595.28 H 841.89 V 0 H 0 Z"
         id="path16"
         inkscape:connector-curvature="0" /></clipPath></defs><sodipodi:namedview
     pagecolor="#ffffff"
     bordercolor="#666666"
     borderopacity="1"
     objecttolerance="10"
     gridtolerance="10"
     guidetolerance="10"
     inkscape:pageopacity="0"
     inkscape:pageshadow="2"
     inkscape:window-width="640"
     inkscape:window-height="480"
     id="namedview4"
     showgrid="false"
     fit-margin-top="0"
     fit-margin-left="0"
     fit-margin-right="0"
     fit-margin-bottom="0"
     inkscape:zoom="0.29733907"
     inkscape:cx="561.26001"
     inkscape:cy="396.85334"
     inkscape:window-x="0"
     inkscape:window-y="0"
     inkscape:window-maximized="0"
     inkscape:current-layer="g10" /><g
     id="g10"
     inkscape:groupmode="layer"
     inkscape:label="Android_Robot_outlined"
     transform="matrix(1.3333333,0,0,-1.3333333,2.5824538e-6,513.4576)"><g
       id="g12"
       transform="translate(-256.4829,-104.7803)"><g
         id="g14"
         clip-path="url(#clipPath18)"><g
           id="g20"
           transform="translate(287.5879,213.3047)"><path
             d="m 0,0 c -17.157,-0.01 -31.095,13.946 -31.097,31.101 l -0.008,95.217 c -0.006,17.137 13.929,31.09 31.063,31.093 8.332,0.007 16.13,-3.225 22.011,-9.096 5.881,-5.874 9.114,-13.686 9.12,-21.988 L 31.081,31.102 C 31.102,22.811 27.878,14.998 22.002,9.133 16.138,3.242 8.317,0.003 0,0"
             style="fill:#ffffff;fill-opacity:1;fill-rule:nonzero;stroke:none"
             id="path22"
             inkscape:connector-curvature="0" /></g><g
           id="g24"
           transform="translate(287.5635,362.3589)"><path
             d="m 0,0 c -12.556,0.006 -22.732,-10.19 -22.735,-22.735 l 0.017,-95.214 c 0.003,-12.588 10.197,-22.747 22.738,-22.759 12.566,0.015 22.744,10.178 22.731,22.758 l 0.002,95.227 C 22.748,-10.181 12.558,0.009 0,0"
             style="fill:#ffffff;fill-opacity:1;fill-rule:nonzero;stroke:none"
             id="path26"
             inkscape:connector-curvature="0" /></g><g
           id="g28"
           transform="translate(531.4648,357.6445)"><path
             d="m 0,0 -8.359,0.003 -204.813,-0.027 -8.362,-0.003 -0.003,8.361 c -0.019,34.321 18.68,66.242 49.304,85.102 l -11.906,21.733 c -1.458,2.548 -1.822,5.772 -0.975,8.723 0.861,2.949 2.894,5.482 5.621,6.933 1.576,0.894 3.501,1.391 5.449,1.388 4.216,-0.001 8.083,-2.289 10.117,-5.989 l 12.462,-22.701 c 12.897,4.732 26.511,7.144 40.576,7.139 14.268,0.006 27.951,-2.409 40.902,-7.159 l 12.442,22.74 c 2.003,3.691 5.895,5.99 10.106,5.986 1.896,0.002 3.786,-0.461 5.455,-1.359 2.799,-1.536 4.751,-3.984 5.61,-6.954 0.855,-2.952 0.512,-6.07 -0.988,-8.774 l -11.9,-21.723 C -18.684,74.521 -0.008,42.623 -0.011,8.362 Z"
             style="fill:#ffffff;fill-opacity:1;fill-rule:nonzero;stroke:none"
             id="path30"
             inkscape:connector-curvature="0" /></g><g
           id="g32"
           transform="translate(467.3574,403.0952)"><path
             d="m 0,0 c -4.734,-0.005 -8.597,3.828 -8.588,8.585 0,4.707 3.848,8.588 8.592,8.604 C 4.713,17.176 8.576,13.294 8.572,8.58 8.575,3.84 4.733,-0.001 0,0 m -93.257,-0.017 c -4.717,0.011 -8.559,3.845 -8.56,8.581 0.002,4.718 3.842,8.596 8.567,8.596 4.749,0.004 8.59,-3.878 8.596,-8.594 0.002,-4.733 -3.847,-8.58 -8.603,-8.583 M 3.561,44.765 19.43,73.746 c 0.846,1.514 0.293,3.454 -1.238,4.293 -1.552,0.836 -3.467,0.265 -4.285,-1.257 L -2.128,47.511 c -13.486,5.985 -28.585,9.356 -44.547,9.34 -15.929,0.013 -31.001,-3.34 -44.448,-9.309 l -16.046,29.207 c -0.828,1.54 -2.762,2.103 -4.271,1.255 -1.543,-0.823 -2.107,-2.759 -1.252,-4.27 L -96.814,44.778 C -128.01,28.686 -149.085,-1.949 -149.069,-37.121 L 55.741,-37.1 C 55.747,-1.933 34.709,28.638 3.561,44.765"
             style="fill:#ffffff;fill-opacity:1;fill-rule:nonzero;stroke:none"
             id="path34"
             inkscape:connector-curvature="0" /></g><g
           id="g36"
           transform="translate(382.6821,104.7803)"><path
             d="m 0,0 c -17.14,0.002 -31.089,13.944 -31.093,31.095 l -0.008,42.023 -8.167,-0.007 c -8.728,-0.002 -16.918,3.389 -23.074,9.549 -6.164,6.154 -9.56,14.35 -9.548,23.084 l -0.03,147.53 -0.002,8.367 8.361,-0.002 203.275,0.032 8.364,0.006 0.001,-8.361 0.021,-147.549 C 148.103,87.774 133.465,73.132 115.475,73.136 l -8.223,-0.01 0.012,-42.008 C 107.262,13.978 93.318,0.021 76.185,0.022 67.88,0.003 60.083,3.232 54.198,9.119 48.307,14.99 45.065,22.797 45.069,31.098 L 45.068,73.127 31.095,73.128 V 31.106 C 31.092,13.96 17.147,-0.003 0,0"
             style="fill:#ffffff;fill-opacity:1;fill-rule:nonzero;stroke:none"
             id="path38"
             inkscape:connector-curvature="0" /></g><g
           id="g40"
           transform="translate(319.1611,210.5244)"><path
             d="m 0,0 c -0.012,-13.436 10.833,-24.282 24.257,-24.277 l 16.52,-10e-4 0.019,-50.379 c -0.003,-12.541 10.187,-22.738 22.72,-22.739 12.564,0 22.742,10.206 22.731,22.756 l 0.002,50.368 30.696,0.005 -0.002,-50.377 c 0.011,-12.543 10.214,-22.749 22.744,-22.728 12.562,-0.008 22.747,10.198 22.745,22.749 l -0.014,50.363 16.58,0.005 c 13.378,-0.005 24.261,10.867 24.26,24.274 l -0.026,147.559 -203.269,-0.036 z"
             style="fill:#ffffff;fill-opacity:1;fill-rule:nonzero;stroke:none"
             id="path42"
             inkscape:connector-curvature="0" /></g><g
           id="g44"
           transform="translate(553.9316,213.3428)"><path
             d="m 0,0 c -17.148,-0.002 -31.098,13.933 -31.093,31.087 l -0.023,95.217 c 0.004,17.152 13.931,31.102 31.072,31.103 17.162,0.002 31.118,-13.945 31.115,-31.093 L 31.08,31.103 C 31.084,13.962 17.147,-0.003 0,0"
             style="fill:#ffffff;fill-opacity:1;fill-rule:nonzero;stroke:none"
             id="path46"
             inkscape:connector-curvature="0" /></g><g
           id="g48"
           transform="translate(553.9053,362.3896)"><path
             d="m 0,0 c -12.555,0.01 -22.731,-10.186 -22.729,-22.743 l 0.009,-95.213 c 0.006,-12.572 10.177,-22.743 22.743,-22.735 12.555,0.002 22.719,10.165 22.73,22.743 l -0.025,95.211 C 22.726,-10.177 12.557,0.003 0,0"
             style="fill:#ffffff;fill-opacity:1;fill-rule:nonzero;stroke:none"
             id="path50"
             inkscape:connector-curvature="0" /></g><g
           id="g52"
           transform="translate(576.6416,339.6582)"><path
             d="m 0,0 c -0.002,12.557 -10.18,22.734 -22.736,22.731 -12.555,0.01 -22.732,-10.185 -22.729,-22.743 l 0.016,-95.215 c -0.001,-12.57 10.172,-22.729 22.736,-22.733 12.555,0.002 22.727,10.163 22.73,22.743 z m -257.517,18.408 0.035,-147.555 c -0.011,-13.422 10.845,-24.255 24.26,-24.258 l 16.519,-0.007 0.019,-50.379 c -0.003,-12.541 10.193,-22.739 22.72,-22.739 12.564,0 22.742,10.206 22.745,22.755 l -0.012,50.369 30.696,0.006 0.013,-50.377 c -0.003,-12.536 10.199,-22.749 22.728,-22.729 12.563,-0.008 22.747,10.198 22.745,22.749 l -0.014,50.363 16.577,0.013 c 13.382,-0.005 24.268,10.844 24.271,24.266 L -54.24,18.442 Z m 148.233,45.029 c -4.735,-0.005 -8.589,3.834 -8.588,8.585 0.016,4.705 3.848,8.588 8.592,8.604 4.709,-0.013 8.572,-3.895 8.568,-8.609 0.011,-4.741 -3.839,-8.581 -8.572,-8.58 m -93.258,-0.017 c -4.716,0.011 -8.558,3.845 -8.559,8.581 0.002,4.718 3.835,8.597 8.567,8.596 4.749,0.004 8.59,-3.878 8.596,-8.594 0.002,-4.732 -3.848,-8.58 -8.604,-8.583 m 96.818,44.782 15.87,28.981 c 0.846,1.514 0.291,3.443 -1.245,4.298 -1.547,0.82 -3.46,0.263 -4.278,-1.262 l -16.029,-29.283 c -13.491,6.001 -28.582,9.37 -44.553,9.352 -15.929,0.013 -31.016,-3.341 -44.448,-9.309 l -16.046,29.207 c -0.836,1.541 -2.755,2.098 -4.27,1.259 -1.545,-0.831 -2.109,-2.763 -1.253,-4.274 l 15.877,-28.959 C -237.294,92.123 -258.37,61.488 -258.354,26.316 l 204.811,0.021 c 0.006,35.167 -21.032,65.738 -52.181,81.865 M -289.078,22.701 c -12.556,0.006 -22.732,-10.191 -22.735,-22.736 l 0.017,-95.213 c 0.003,-12.588 10.183,-22.745 22.74,-22.743 12.564,-0.001 22.742,10.162 22.729,22.742 l 0.002,95.227 c -0.005,12.542 -10.196,22.731 -22.753,22.723"
             style="fill:#a4c439;fill-opacity:1;fill-rule:nonzero;stroke:none"
             id="path54"
             inkscape:connector-curvature="0" /></g></g></g></g></svg>