<?xml version="1.0" encoding="UTF-8" standalone="no"?>
<!-- Created with Inkscape (http://www.inkscape.org/) -->

<svg
   width="174.48994mm"
   height="116.11514mm"
   viewBox="0 0 174.48994 116.11514"
   version="1.1"
   id="svg934"
   inkscape:version="1.1.2 (0a00cf5339, 2022-02-04)"
   sodipodi:docname="age.svg"
   xmlns:inkscape="http://www.inkscape.org/namespaces/inkscape"
   xmlns:sodipodi="http://sodipodi.sourceforge.net/DTD/sodipodi-0.dtd"
   xmlns:xlink="http://www.w3.org/1999/xlink"
   xmlns="http://www.w3.org/2000/svg"
   xmlns:svg="http://www.w3.org/2000/svg">
  <sodipodi:namedview
     id="namedview936"
     pagecolor="#ffffff"
     bordercolor="#666666"
     borderopacity="1.0"
     inkscape:pageshadow="2"
     inkscape:pageopacity="0.0"
     inkscape:pagecheckerboard="0"
     inkscape:document-units="mm"
     showgrid="false"
     fit-margin-top="0"
     fit-margin-left="0"
     fit-margin-right="0"
     fit-margin-bottom="0"
     inkscape:zoom="1.5554293"
     inkscape:cx="344.27794"
     inkscape:cy="186.76516"
     inkscape:window-width="2486"
     inkscape:window-height="1376"
     inkscape:window-x="74"
     inkscape:window-y="27"
     inkscape:window-maximized="1"
     inkscape:current-layer="layer1">
    <inkscape:grid
       type="xygrid"
       id="grid2782"
       originx="-3.9801911"
       originy="-33.706733" />
  </sodipodi:namedview>
  <defs
     id="defs931">
    <linearGradient
       inkscape:collect="always"
       id="linearGradient19936">
      <stop
         style="stop-color:#1a367f;stop-opacity:1"
         offset="0"
         id="stop19932" />
      <stop
         style="stop-color:#b9125a;stop-opacity:1"
         offset="1"
         id="stop19934" />
    </linearGradient>
    <linearGradient
       inkscape:collect="always"
       xlink:href="#linearGradient19936"
       id="linearGradient19938"
       x1="5.2916665"
       y1="18.917709"
       x2="78.052078"
       y2="18.917709"
       gradientUnits="userSpaceOnUse"
       gradientTransform="matrix(2.398144,0,0,2.398144,-8.7099863,46.396926)" />
  </defs>
  <g
     inkscape:label="Layer 1"
     inkscape:groupmode="layer"
     id="layer1"
     transform="translate(-3.9801912,-33.706734)">
    <rect
       style="fill:url(#linearGradient19938);fill-opacity:1;stroke-width:3.59722"
       id="rect19850"
       width="174.48994"
       height="116.11514"
       x="3.9801912"
       y="33.706734" />
    <g
       aria-label="APACHE"
       id="text5673"
       style="font-size:14.5605px;line-height:1.25;font-family:Montserrat;-inkscape-font-specification:Montserrat;letter-spacing:10.2257px;fill:#ffffff;fill-opacity:1;stroke-width:0.364011">
      <path
         d="m 36.370948,66.16893 4.65936,-10.19235 h 1.062917 l 4.65936,10.19235 h -1.135719 l -4.280787,-9.566249 h 0.436815 l -4.280787,9.566249 z m 1.834623,-2.722813 0.320331,-0.87363 h 5.926124 l 0.320331,0.87363 z"
         id="path32612"
         style="fill:#ffffff;fill-opacity:1" />
      <path
         d="M 58.66729,66.16893 V 55.97658 h 3.814851 q 1.295884,0 2.227756,0.422254 0.931872,0.407694 1.426929,1.193961 0.509618,0.771707 0.509618,1.878305 0,1.077477 -0.509618,1.863744 -0.495057,0.771707 -1.426929,1.193961 -0.931872,0.422255 -2.227756,0.422255 H 59.26427 l 0.480497,-0.509618 v 3.727488 z m 1.077477,-3.640125 -0.480497,-0.524178 h 3.18875 q 1.528852,0 2.315119,-0.655222 0.800828,-0.669784 0.800828,-1.878305 0,-1.223082 -0.800828,-1.892865 -0.786267,-0.669783 -2.315119,-0.669783 h -3.18875 l 0.480497,-0.509618 z"
         id="path32614"
         style="fill:#ffffff;fill-opacity:1" />
      <path
         d="m 77.061409,66.16893 4.65936,-10.19235 h 1.062916 l 4.65936,10.19235 h -1.135719 l -4.280787,-9.566249 h 0.436815 l -4.280787,9.566249 z m 1.834623,-2.722813 0.320331,-0.87363 h 5.926123 l 0.320331,0.87363 z"
         id="path32616"
         style="fill:#ffffff;fill-opacity:1" />
      <path
         d="m 103.63853,66.256293 q -1.15028,0 -2.12583,-0.378573 -0.97556,-0.393133 -1.68902,-1.092037 -0.713464,-0.698904 -1.121158,-1.645337 -0.393134,-0.946432 -0.393134,-2.067591 0,-1.121159 0.393134,-2.067591 0.407694,-0.946433 1.121158,-1.645337 0.72803,-0.698904 1.70358,-1.077477 0.97555,-0.393133 2.12583,-0.393133 1.1066,0 2.08215,0.378573 0.97556,0.364012 1.64534,1.106598 l -0.68434,0.684343 q -0.62611,-0.640662 -1.38325,-0.917311 -0.75715,-0.29121 -1.63078,-0.29121 -0.91731,0 -1.70358,0.320331 -0.78626,0.30577 -1.36868,0.88819 -0.58242,0.56786 -0.917314,1.339566 -0.320331,0.757146 -0.320331,1.674458 0,0.917312 0.320331,1.689018 0.334894,0.757146 0.917314,1.339566 0.58242,0.56786 1.36868,0.888191 0.78627,0.30577 1.70358,0.30577 0.87363,0 1.63078,-0.29121 0.75714,-0.29121 1.38325,-0.931872 l 0.68434,0.684344 q -0.66978,0.742585 -1.64534,1.121158 -0.97555,0.378573 -2.09671,0.378573 z"
         id="path32618"
         style="fill:#ffffff;fill-opacity:1" />
      <path
         d="m 127.36181,55.97658 h 1.06292 v 10.19235 h -1.06292 z m -6.3775,10.19235 h -1.07747 V 55.97658 h 1.07747 z m 6.47943,-4.703041 h -6.59591 v -0.946433 h 6.59591 z"
         id="path32620"
         style="fill:#ffffff;fill-opacity:1" />
      <path
         d="m 142.93122,60.534016 h 5.38738 v 0.917312 h -5.38738 z m 0.11648,4.703042 h 6.12997 v 0.931872 h -7.20745 V 55.97658 h 6.98904 v 0.931872 h -5.91156 z"
         id="path32622"
         style="fill:#ffffff;fill-opacity:1" />
    </g>
    <path
       style="fill:#ffffff;fill-opacity:1;stroke-width:0.264583"
       d="m 52.916667,74.083334 c 0,0 11.735867,26.819596 12.585537,28.824246 6.72109,15.85917 12.291554,29.22376 12.291554,29.22376 l -3.255714,0.008 h -3.42394 l -1.5334,-3.63802 c -0.84336,-2.00092 -1.84091,-4.36683 -2.21676,-5.25759 l -0.68337,-1.61956 -14.4171,5.25456 -14.417101,5.25455 -4.856954,0.003 c -4.078764,0.003 -4.800344,0.003 -4.800344,0.003 8.340937,-20.05786 17.468448,-40.936826 24.727592,-58.055946 z m -1.708833,47.094046 c 7.05776,-2.57376 12.912,-4.76186 13.00943,-4.86246 0.13434,-0.1387 -8.97862,-22.245883 -10.96824,-26.607893 -0.33411,-0.7325 -0.62524,-0.0961 -7.928154,17.330213 l -7.876637,19.11474 c 0,0 6.705838,-2.40085 13.763601,-4.9746 z m 34.86818,8.67899 c -0.560746,-1.28236 -1.104246,-2.87151 -1.189476,-3.10474 0,0 0.309295,-0.0162 2.295616,-0.27172 7.342398,-0.94448 14.090416,-4.75938 17.849176,-11.18048 1.8363,-3.13694 3.56649,-8.81354 2.56779,-8.42469 -1.37189,0.53417 -26.607073,9.73572 -26.901203,9.80651 l -2.233443,-5.02769 c -0.06343,-0.14278 6.65606,-2.69505 14.78567,-5.64185 l 14.964436,-5.47004 5.57614,0.004 -0.0303,3.92818 c -0.11242,14.57975 -11.21538,26.60584 -24.717176,27.58573 l -1.975062,0.0658 z m 27.201256,0.98605 c 1.00509,-0.7133 2.5979,-2.08252 3.53958,-3.04271 l 1.71215,-1.74581 h 15.41962 15.41962 v 3.04271 3.04271 h -18.9592 -18.9592 z m 7.10815,-30.30075 h 29.10416 v 6.08541 H 120.38542 Z M 104.85311,91.2298 C 93.592353,78.772575 80.211175,79.460053 68.791667,88.635418 l -2.645834,-5.55625 c 11.90625,-8.995834 26.155734,-11.500603 42.068747,2.910416 z m 6.80106,-16.088132 c 13.35122,-0.05867 23.43966,0 37.83541,0 v 2.910416 2.910417 c -10.40318,0.105989 -20.81736,0.01332 -31.22083,0 0,0 -2.02857,-3.76239 -6.61458,-5.820833 z"
       id="path2173"
       sodipodi:nodetypes="cccccssccccccsssccsssssccscccscssccccccccsccccccccccccccccc" />
  </g>
</svg>
