<svg height="14.511213mm" viewBox="0 0 11.815833 14.511213" width="11.815833mm" xmlns="http://www.w3.org/2000/svg" xmlns:xlink="http://www.w3.org/1999/xlink"><clipPath id="a"><path d="m687.96 500.244h63v65.604h-63z"/></clipPath><clipPath id="b"><path d="m704.506 516.89h33.494v41.135h-33.494z"/></clipPath><g clip-path="url(#b)" transform="matrix(.35277777 0 0 -.35277777 -248.534056 196.85867)"><path d="m0 0c-3.386.251-6.26-1.892-7.862-1.892-1.627 0-4.134 1.838-6.793 1.788-3.491-.051-6.708-2.032-8.508-5.157-3.626-6.294-.926-15.62 2.606-20.727 1.727-2.496 3.788-5.308 6.494-5.205 2.605.102 3.591 1.684 6.74 1.684 3.147 0 4.035-1.684 6.79-1.634 2.803.052 4.58 2.547 6.295 5.057 1.984 2.896 2.8 5.701 2.848 5.849-.062.023-5.465 2.097-5.519 8.322-.049 5.205 4.248 7.707 4.444 7.828-2.44 3.592-6.208 3.989-7.535 4.087" fill="#b0b6bb" transform="translate(729.3897 548.0862)"/></g><g clip-path="url(#a)" transform="matrix(.35277777 0 0 -.35277777 -248.534056 196.85867)"><path d="m0 0c1.438 1.738 2.406 4.159 2.14 6.567-2.071-.082-4.574-1.379-6.059-3.116-1.329-1.539-2.497-4.004-2.18-6.362 2.307-.179 4.662 1.172 6.099 2.911" fill="#b0b6bb" transform="translate(727.3 551.4576)"/></g></svg>