<?xml version="1.0" encoding="UTF-8" standalone="no"?>
<!-- Generator: Adobe Illustrator 28.2.0, SVG Export Plug-In . SVG Version: 6.00 Build 0)  -->

<svg
   version="1.1"
   id="Artwork"
   x="0px"
   y="0px"
   width="64.46682"
   height="79.174225"
   viewBox="0 0 64.466818 79.174222"
   xml:space="preserve"
   xmlns="http://www.w3.org/2000/svg"
   xmlns:svg="http://www.w3.org/2000/svg"><defs
   id="defs15">
	

		
	
			
		
				
				
			</defs>
<g
   id="g11"
   transform="translate(-1.7680135e-4)">
					<path
   d="M 47.896,19.129 C 41.378,18.647 35.848,22.77 32.763,22.77 29.633,22.77 24.807,19.233 19.69,19.33 12.971,19.428 6.778,23.24 3.313,29.256 -3.667,41.37 1.53,59.32 8.328,69.15 c 3.325,4.803 7.291,10.216 12.5,10.019 5.014,-0.197 6.911,-3.243 12.972,-3.243 6.057,0 7.766,3.243 13.068,3.146 5.397,-0.1 8.816,-4.903 12.117,-9.733 3.82,-5.575 5.389,-10.973 5.482,-11.259 C 64.348,58.035 53.947,54.044 53.843,42.061 53.749,32.043 62.02,27.227 62.396,26.995 57.703,20.081 50.45,19.318 47.896,19.129 Z"
   id="path10" />
					<path
   d="M 43.874,12.64 C 46.642,9.294 48.505,4.635 47.992,0 44.008,0.158 39.189,2.654 36.331,5.998 c -2.559,2.962 -4.807,7.706 -4.196,12.246 4.44,0.342 8.973,-2.256 11.739,-5.604 z"
   id="path11" />
				</g>
</svg>
