<?xml version="1.0"?>
<svg width="512" height="512" xmlns="http://www.w3.org/2000/svg" xmlns:svg="http://www.w3.org/2000/svg" class="max-w-full">
 <g class="layer">
  <title>Layer 1</title>
  <g id="svg_3" transform="translate(3 2) translate(86 106) matrix(3.0252 0 0 2.99061 0 0)">
   <path d="m111.1,73.47l0,24.49l-62.23,0c-18.13,0 -33.96,-9.85 -42.43,-24.49c-1.23,-2.13 -2.31,-4.36 -3.21,-6.68c-1.78,-4.54 -2.89,-9.41 -3.23,-14.5l0,-6.62c0.07,-1.13 0.19,-2.26 0.34,-3.37c0.31,-2.28 0.78,-4.51 1.39,-6.68c5.82,-20.56 24.72,-35.62 47.14,-35.62c22.42,0 41.32,15.06 47.14,35.62l-26.61,0c-4.37,-6.7 -11.93,-11.13 -20.53,-11.13c-8.6,0 -16.16,4.43 -20.53,11.13c-1.33,2.04 -2.36,4.29 -3.04,6.68c-0.6,2.13 -0.92,4.37 -0.92,6.68c0,7.02 2.95,13.35 7.69,17.81c4.38,4.15 10.29,6.68 16.8,6.68l62.23,0z" fill="#FD366E" id="svg_1"/>
   <path d="m111.1,42.3l0,24.49l-45.42,0c4.73,-4.46 7.68,-10.79 7.68,-17.81c0,-2.31 -0.32,-4.55 -0.92,-6.68l38.66,0z" fill="#FD366E" id="svg_2"/>
  </g>
 </g>
</svg>