<svg height="48.5" viewBox="219.2 382.9 62.8 48.5" width="62.8" xmlns="http://www.w3.org/2000/svg"><g fill="#ec1c24"><path d="m246.8 397.9 10.4 10.4c1.5 1.5 3.9 1.5 5.5 0s1.5-3.9 0-5.5l-10.4-10.4c-7.5-7.5-19.5-7.6-27.2-.4-.1.1-.2.1-.2.2l-.1.1-.1.1-.2.2c-7.2 7.6-7.1 19.7.4 27.2l10.4 10.4c1.5 1.5 3.9 1.5 5.5 0 1.5-1.5 1.5-3.9 0-5.5l-10.4-10.4c-4.5-4.5-4.6-12-.1-16.5 4.6-4.5 12-4.5 16.5.1z"/><path d="m260.3 384c-1.5 1.5-1.5 3.9 0 5.5l10.4 10.4c4.5 4.5 4.6 12 .1 16.5-4.6 4.5-12 4.5-16.5-.1l-10.4-10.4c-1.5-1.5-3.9-1.5-5.5 0-1.5 1.5-1.5 3.9 0 5.5l10.4 10.4c7.5 7.5 19.5 7.6 27.2.4.1-.1.2-.1.2-.2s.1-.1.1-.1l.1-.1.2-.2c7.2-7.6 7.1-19.7-.4-27.1l-10.4-10.5c-1.6-1.5-4-1.5-5.5 0z"/><path d="m246.8 397.9 10.4 10.4c1.5 1.5 3.9 1.5 5.5 0s1.5-3.9 0-5.5l-10.4-10.4c-7.5-7.5-19.5-7.6-27.2-.4-.1.1-.2.1-.2.2l-.1.1-.1.1-.2.2c-7.2 7.6-7.1 19.7.4 27.2l10.4 10.4c1.5 1.5 3.9 1.5 5.5 0 1.5-1.5 1.5-3.9 0-5.5l-10.4-10.4c-4.5-4.5-4.6-12-.1-16.5 4.6-4.5 12-4.5 16.5.1z"/><path d="m260.3 384c-1.5 1.5-1.5 3.9 0 5.5l10.4 10.4c4.5 4.5 4.6 12 .1 16.5-4.6 4.5-12 4.5-16.5-.1l-10.4-10.4c-1.5-1.5-3.9-1.5-5.5 0-1.5 1.5-1.5 3.9 0 5.5l10.4 10.4c7.5 7.5 19.5 7.6 27.2.4.1-.1.2-.1.2-.2s.1-.1.1-.1l.1-.1.2-.2c7.2-7.6 7.1-19.7-.4-27.1l-10.4-10.5c-1.6-1.5-4-1.5-5.5 0z"/></g></svg>