<svg xmlns="http://www.w3.org/2000/svg" fill="none" viewBox="0 0 25 20"><path fill="#FFBBD0" d="M18.412.006c-4.287 0-5.808 3.454-5.912 3.707a6.332 6.332 0 00-5.91-3.707 6.627 6.627 0 00-4.653 2.01A6.856 6.856 0 000 6.765c0 7.282 6.87 13.184 12.5 13.184 5.628 0 12.5-5.902 12.5-13.184a6.856 6.856 0 00-1.937-4.748 6.627 6.627 0 00-4.65-2.01zm1.13 7.037c0 1.9-.742 3.722-2.063 5.065a6.983 6.983 0 01-4.98 2.099 6.983 6.983 0 01-4.98-2.099 7.226 7.226 0 01-2.062-5.065v-.205h2.49v.205A4.674 4.674 0 009.28 10.32a4.517 4.517 0 003.221 1.357 4.517 4.517 0 003.221-1.357 4.675 4.675 0 001.335-3.277v-.205h2.49l-.006.205"/></svg>