<svg xmlns="http://www.w3.org/2000/svg" viewBox="0 0 150 150" fill="#fff">
	<path d="M119.4 40.1 82.2 18c-4.4-2.6-9.9-2.6-14.4 0L30.6 40.1c-4.4 2.6-7.2 7.5-7.2 12.8v44.2c0 5.3 2.7 10.1 7.2 12.8L67.8 132c2.2 1.3 4.7 2 7.2 2 2.5 0 5-.7 7.2-2l37.2-22.1c4.4-2.6 7.2-7.5 7.2-12.8V52.8c0-5.2-2.7-10.1-7.2-12.7z"/>
	<path fill="#2A3238" d="M119.4 40.1 82.2 18c-2.2-1.3-4.7-2-7.2-2-2.5 0-5 .7-7.2 2L30.6 40.1c-4.4 2.6-7.2 7.5-7.2 12.8v44.2c0 5.3 2.7 10.1 7.2 12.8L67.8 132c2.2 1.3 4.7 2 7.2 2 2.5 0 5-.7 7.2-2l37.2-22.1c4.4-2.6 7.2-7.5 7.2-12.8V52.8c0-5.2-2.7-10.1-7.2-12.7zm-50.3 89.5-37.2-22.1c-3.6-2.2-5.9-6.2-5.9-10.5V52.8c0-4.3 2.3-8.4 5.9-10.5l37.2-22.1c1.8-1.1 3.8-1.6 5.9-1.6 2.1 0 4.1.6 5.9 1.6l37.2 22.1c3.1 1.8 5.1 5 5.7 8.5-1.2-2.6-4-3.4-7.3-1.5L81.4 71.1c-4.4 2.6-7.6 5.4-7.6 10.7v43.4c0 3.2 1.3 5.2 3.2 5.8-.6.1-1.3.2-2 .2-2 .1-4.1-.5-5.9-1.6z"/>
	<path fill="#4DA925" d="m109.7 101.3-9.3 5.5c-.2.1-.4.3-.4.6v2.4c0 .3.2.4.4.3l9.4-5.7c.2-.1.3-.4.3-.7v-2.1c0-.3-.2-.4-.4-.3z"/>
	<path d="m89.9 80.9c.3-.2.5 0 .6.4v3.2c1.3-.5 2.5-.7 3.6-.4.2.1.3.4.2.7l-.7 2.8c-.1.2-.2.4-.3.6-.1.1-.1.1-.2.1-.1 0-.2.1-.3 0-.5-.1-1.6-.4-3.4.6-1.9 1-2.6 2.6-2.5 3.8 0 1.5.8 1.9 3.3 1.9 3.4.1 4.9 1.6 5 5 0 3.4-1.8 7.1-4.6 9.3l.1 3.2c0 .4-.2.8-.5 1l-1.9 1.1c-.3.2-.5 0-.6-.4v-3.1c-1.6.7-3.2.8-4.3.4-.2-.1-.3-.4-.2-.7l.7-2.9c.1-.2.2-.5.3-.6.1-.1.1-.1.2-.1.1-.1.2-.1.3 0 1.1.4 2.6.2 3.9-.5 1.8-.9 2.9-2.7 2.9-4.5 0-1.6-.9-2.3-3-2.3-2.7 0-5.2-.5-5.3-4.5 0-3.3 1.7-6.7 4.4-8.8V83c0-.4.2-.8.5-1z"/>
</svg>