<svg aria-label="Bing" role="img" viewBox="0 0 512 512" xmlns="http://www.w3.org/2000/svg">
  <defs>
    <linearGradient id="e" x1="24.061" x2="48.0304" y1="24.49" y2="38.1597"
      gradientTransform="matrix(6.77263 0 0 6.77263 75.4545 63.0411)" gradientUnits="userSpaceOnUse">
      <stop stop-color="#37BDFF" offset="0" />
      <stop stop-color="#33BFFD" offset=".1832" />
      <stop stop-color="#28C5F5" offset=".3576" />
      <stop stop-color="#15D0E9" offset=".528" />
      <stop stop-color="#12D1E7" offset=".5468" />
      <stop stop-color="#1CD2E5" offset=".5903" />
      <stop stop-color="#42D8DC" offset=".7679" />
      <stop stop-color="#59DBD6" offset=".9107" />
      <stop stop-color="#62DCD4" offset="1" />
    </linearGradient>
    <linearGradient id="d" x1="10.099" x2="44.7715" y1="45.3798" y2="45.3798"
      gradientTransform="matrix(6.77263 0 0 6.77263 75.4545 63.0411)" gradientUnits="userSpaceOnUse">
      <stop stop-color="#39D2FF" offset="0" />
      <stop stop-color="#38CEFE" offset=".1501" />
      <stop stop-color="#35C3FA" offset=".2931" />
      <stop stop-color="#2FB0F3" offset=".4327" />
      <stop stop-color="#299AEB" offset=".5468" />
      <stop stop-color="#2692EC" offset=".5827" />
      <stop stop-color="#1A6CF1" offset=".7635" />
      <stop stop-color="#1355F4" offset=".909" />
      <stop stop-color="#104CF5" offset="1" />
    </linearGradient>
    <linearGradient id="z" x1="16.4996" x2="16.4996" y1="48.4653" y2="1.52914"
      gradientTransform="matrix(6.77263 0 0 6.77263 75.4545 63.0411)" gradientUnits="userSpaceOnUse">
      <stop stop-color="#1B48EF" offset="0" />
      <stop stop-color="#1C51F0" offset=".1221" />
      <stop stop-color="#1E69F5" offset=".3212" />
      <stop stop-color="#2190FB" offset=".5676" />
      <stop stop-color="#26B8F4" offset="1" />
    </linearGradient>
    <linearGradient id="y" x1="16.9908" x2="38.6508" y1="54.0427" y2="32.6475"
      gradientTransform="matrix(6.77263 0 0 6.77263 75.4545 63.0411)" gradientUnits="userSpaceOnUse">
      <stop stop-color="#fff" offset="0" />
      <stop stop-color="#FDFDFD" offset=".3726" />
      <stop stop-color="#F6F6F6" offset=".5069" />
      <stop stop-color="#EBEBEB" offset=".6026" />
      <stop stop-color="#DADADA" offset=".68" />
      <stop stop-color="#C4C4C4" offset=".7463" />
      <stop stop-color="#A8A8A8" offset=".805" />
      <stop stop-color="#888" offset=".8581" />
      <stop stop-color="#626262" offset=".9069" />
      <stop stop-color="#373737" offset=".9523" />
      <stop stop-color="#090909" offset=".9926" />
      <stop offset="1" />
    </linearGradient>
    <linearGradient id="x" x1="16.4996" x2="16.4996" y1=".696411" y2="47.9822"
      gradientTransform="matrix(6.77263 0 0 6.77263 75.4545 63.0411)" gradientUnits="userSpaceOnUse">
      <stop stop-color="#fff" offset="0" />
      <stop stop-color="#FDFDFD" offset=".3726" />
      <stop stop-color="#F6F6F6" offset=".5069" />
      <stop stop-color="#EBEBEB" offset=".6026" />
      <stop stop-color="#DADADA" offset=".68" />
      <stop stop-color="#C4C4C4" offset=".7463" />
      <stop stop-color="#A8A8A8" offset=".805" />
      <stop stop-color="#888" offset=".8581" />
      <stop stop-color="#626262" offset=".9069" />
      <stop stop-color="#373737" offset=".9523" />
      <stop stop-color="#090909" offset=".9926" />
      <stop offset="1" />
    </linearGradient>
    <clipPath id="j">
      <rect x="143.181" y="63.0411" width="250.587" height="379.267" fill="#fff" stroke-width=".999999" />
    </clipPath>
    <clipPath id="i">
      <rect x="143.181" y="63.0411" width="250.587" height="379.267" fill="#fff" stroke-width=".999999" />
    </clipPath>
    <clipPath id="h">
      <rect x="143.181" y="63.0411" width="250.587" height="379.267" fill="#fff" stroke-width=".999999" />
    </clipPath>
    <clipPath id="g">
      <rect x="143.181" y="63.0411" width="250.587" height="379.267" fill="#fff" stroke-width=".999999" />
    </clipPath>
    <clipPath id="f">
      <rect x="143.181" y="63.0411" width="250.587" height="379.267" fill="#fff" stroke-width=".999999" />
    </clipPath>
  </defs>
  <rect width="512" height="512" fill="#fff" />
  <g stroke-width="1.00001">
    <path
      d="m393.756 306.766c0 3.69447-0.19843 7.36794-0.59531 10.9879-2.35958 22.0815-11.7979 42.0485-26.0082 57.4915 1.79001-2.0135 3.40324-4.17533 4.81805-6.49021 1.09107-1.75953 2.06226-3.59356 2.88175-5.50682 0.29799-0.62918 0.5689-1.28409 0.79375-1.93426 0.27158-0.62918 0.49576-1.28409 0.69419-1.93427 0.22486-0.60276 0.42329-1.23126 0.59532-1.86044 0.17202-0.65559 0.34947-1.30576 0.49575-1.96067 0.0264-0.0738 0.0522-0.15374 0.0731-0.22756 0.15171-0.65492 0.27158-1.30509 0.39688-1.96068 0.12529-0.67658 0.25058-1.35859 0.34946-2.03449v-0.0481c0.0996-0.6285 0.1727-1.25768 0.22485-1.91327 0.15103-1.48456 0.22418-2.96438 0.22418-4.47603 0-8.49829-2.31285-16.4737-6.35814-23.2599-0.91905-1.58548-1.93697-3.09171-3.05446-4.52412-1.31524-1.71212-2.73004-3.31926-4.27014-4.8045-3.82653-3.74662-8.29579-6.81732-13.2391-8.97915-2.13541-0.95629-4.3697-1.73379-6.65614-2.31488-0.0264 0-0.0731-0.0264-0.0996-0.0264l-0.79376-0.27497-11.5737-4.02159v-0.0264l-30.279-10.5389c-0.0989-0.0264-0.22418-0.0264-0.29732-0.0474l-1.89024-0.703c-6.08724-2.41512-11.1301-6.93923-14.2835-12.7l-11.0516-28.5453-12.6702-32.6935-2.43273-6.31073-0.62105-1.28409c-0.69487-1.71212-1.07075-3.57256-1.07075-5.50682 0-0.50253 0-1.00438 0.0522-1.45882 0.7206-7.19321 6.75569-12.8267 14.0593-12.8267 1.93697 0 3.8008 0.40162 5.49193 1.13103l56.4234 29.2896 11.1301 5.7608c5.88879 3.54682 11.376 7.72147 16.3925 12.4257 18.1832 16.9018 30.107 40.5897 31.8977 67.0734 0.1517 2.33588 0.25058 4.67176 0.25058 7.03405z"
      clip-path="url(#f)" fill="url(#e)" />
    <path
      d="m378.676 344.894c0 2.91697-0.27158 5.73371-0.77276 8.4773-0.15103 0.72873-0.29731 1.45815-0.46934 2.18756-0.32373 1.30576-0.66846 2.56344-1.09107 3.82111-0.22485 0.65559-0.44902 1.30577-0.69487 1.93427-0.25059 0.65559-0.52217 1.28476-0.79307 1.93494-0.82017 1.91326-1.79069 3.74661-2.88176 5.50682-1.4148 2.31488-3.03346 4.4767-4.81872 6.49021-8.22265 9.2067-36.1469 25.6222-46.4365 32.2919l-22.8454 14.1324c-16.7372 10.4434-32.5655 17.8323-52.5136 18.3342-0.94478 0.0264-1.86315 0.0528-2.78219 0.0528-1.28951 0-2.55802-0.0264-3.82653-0.0738-33.7825-1.30576-63.2468-19.6664-80.2346-46.8002-7.77362-12.3986-12.9154-26.6313-14.6539-41.9212 3.64909 20.8976 21.6392 36.7422 43.3252 36.7422 7.60092 0 14.7325-1.93426 20.9654-5.35918 0.0474-0.0264 0.0995-0.0528 0.1517-0.0738l2.23429-1.35859 9.09429-5.433 11.5737-6.93923v-0.3278l1.49336-0.90347 103.565-62.1165 7.97206-4.77742 0.79307 0.27497c0.0264 0 0.0731 0.0264 0.0996 0.0264 2.28644 0.57567 4.52073 1.35791 6.65614 2.31488 4.94334 2.16115 9.41259 5.23185 13.2391 8.97915 1.54009 1.48524 2.95489 3.0917 4.27014 4.8045 1.11748 1.43173 2.13541 2.94338 3.05445 4.52344 4.01414 6.78143 6.32699 14.7562 6.32699 23.2552z"
      clip-path="url(#g)" fill="url(#d)" />
    <path
      d="m231.234 137.595-0.0366 231.234-11.5738 6.94465-9.0997 5.42758-2.2397 1.37417c-0.0366 0-0.1043 0.0373-0.13546 0.0691-6.24368 3.40324-13.3753 5.36392-20.9816 5.36392-21.6914 0-39.6497-15.8446-43.3198-36.7422-0.1727-0.96171-0.30274-1.96067-0.40704-2.92238-0.13613-1.82319-0.23501-3.60981-0.27178-5.433v-260.24c0-8.2131 6.58861-14.9146 14.732-14.9146 3.05445 0 5.90505 0.961896 8.24906 2.54217l45.0474 29.7975c0.24043 0.20616 0.50659 0.38056 0.7836 0.54967 11.6469 8.04398 19.2532 21.5844 19.2532 36.9486z"
      clip-path="url(#h)" fill="url(#z)" />
  </g>
  <path
    d="m378.676 344.894c0 2.91697-0.27158 5.73371-0.77276 8.4773-0.15103 0.72873-0.29731 1.45815-0.46934 2.18756-0.32373 1.30576-0.66846 2.56344-1.09107 3.82111-0.22485 0.65559-0.44902 1.30577-0.69487 1.93427-0.25059 0.65559-0.52217 1.28476-0.79307 1.93494-0.82017 1.91326-1.79069 3.74661-2.88176 5.50682-1.4148 2.31488-3.02804 4.4767-4.81872 6.49021-8.22265 9.2067-36.1469 25.6222-46.4365 32.2919l-22.8454 14.1324c-16.7372 10.4434-32.5655 17.8323-52.5136 18.3342-0.94478 0.0264-1.86315 0.0528-2.78219 0.0528-1.28951 0-2.55802-0.0264-3.82653-0.0738-33.7825-1.30576-63.2468-19.6664-80.2346-46.8002-7.77362-12.3986-12.9154-26.6313-14.6539-41.9212 3.64909 20.8976 21.6392 36.7422 43.3252 36.7422 7.60092 0 14.7325-1.93426 20.9654-5.35918 0.0474-0.0264 0.0995-0.0528 0.1517-0.0738l2.23429-1.35859 9.09429-5.433 11.5737-6.93923v-0.3278l1.49336-0.90347 103.565-62.1165 7.97206-4.77742 0.79307 0.27497c0.0264 0 0.0731 0.0264 0.0996 0.0264 2.28644 0.57567 4.52073 1.35791 6.65614 2.31488 4.94334 2.16115 9.41259 5.23185 13.2391 8.97915 1.54009 1.48524 2.95489 3.0917 4.27014 4.8045 1.11748 1.43173 2.13541 2.94338 3.05445 4.52344 4.01414 6.78143 6.32699 14.7562 6.32699 23.2552z"
    clip-path="url(#i)" fill="url(#y)" opacity=".15" stroke-width=".149887" />
  <path
    d="m231.234 137.595-0.0366 231.234-11.5738 6.94465-9.0997 5.42758-2.2397 1.37417c-0.0366 0-0.1043 0.0373-0.13546 0.0691-6.24368 3.40324-13.3753 5.36392-20.9816 5.36392-21.6914 0-39.6497-15.8446-43.3198-36.7422-0.1727-0.96171-0.30274-1.96067-0.40704-2.92238-0.13613-1.82319-0.23501-3.60981-0.27178-5.433v-260.24c0-8.2131 6.58861-14.9146 14.732-14.9146 3.05445 0 5.90505 0.961896 8.24906 2.54217l45.0474 29.7975c0.24043 0.20616 0.50659 0.38056 0.7836 0.54967 11.6469 8.04398 19.2532 21.5844 19.2532 36.9486z"
    clip-path="url(#j)" fill="url(#x)" opacity=".1" stroke-width=".149887" />
</svg>