<?xml version="1.0" encoding="UTF-8" standalone="no"?>
<svg
   xmlns:dc="http://purl.org/dc/elements/1.1/"
   xmlns:cc="http://creativecommons.org/ns#"
   xmlns:rdf="http://www.w3.org/1999/02/22-rdf-syntax-ns#"
   xmlns:svg="http://www.w3.org/2000/svg"
   xmlns="http://www.w3.org/2000/svg"
   xmlns:sodipodi="http://sodipodi.sourceforge.net/DTD/sodipodi-0.dtd"
   xmlns:inkscape="http://www.inkscape.org/namespaces/inkscape"
   viewBox="0 0 62.421586 56.130333"
   version="1.1"
   id="svg39"
   sodipodi:docname="bitbucket.svg"
   width="62.421585"
   height="56.130333"
   inkscape:version="0.92.1 r15371">
  <metadata
     id="metadata43">
    <rdf:RDF>
      <cc:Work
         rdf:about="">
        <dc:format>image/svg+xml</dc:format>
        <dc:type
           rdf:resource="http://purl.org/dc/dcmitype/StillImage" />
        <dc:title>Bitbucket-blue</dc:title>
      </cc:Work>
    </rdf:RDF>
  </metadata>
  <sodipodi:namedview
     pagecolor="#ffffff"
     bordercolor="#666666"
     borderopacity="1"
     objecttolerance="10"
     gridtolerance="10"
     guidetolerance="10"
     inkscape:pageopacity="0"
     inkscape:pageshadow="2"
     inkscape:window-width="1366"
     inkscape:window-height="739"
     id="namedview41"
     showgrid="false"
     fit-margin-top="0"
     fit-margin-left="0"
     fit-margin-right="0"
     fit-margin-bottom="0"
     inkscape:zoom="1.116241"
     inkscape:cx="88.358293"
     inkscape:cy="-1.357562"
     inkscape:window-x="0"
     inkscape:window-y="0"
     inkscape:window-maximized="1"
     inkscape:current-layer="svg39" />
  <defs
     id="defs9">
    <style
       id="style2">.cls-1{fill:#253858;}.cls-2{fill:none;}.cls-3{fill:#2684ff;}.cls-4{fill:url(#New_Gradient_Swatch_1);}</style>
    <linearGradient
       id="New_Gradient_Swatch_1"
       x1="64.010002"
       y1="30.27"
       x2="32.990002"
       y2="54.48"
       gradientUnits="userSpaceOnUse"
       gradientTransform="translate(0.02579294,-6.2598336)">
      <stop
         offset="0.18"
         stop-color="#0052cc"
         id="stop4" />
      <stop
         offset="1"
         stop-color="#2684ff"
         id="stop6" />
    </linearGradient>
  </defs>
  <title
     id="title11">Bitbucket-blue</title>
  <polygon
     class="cls-2"
     points="24.7,43.51 37.75,43.51 40.9,25.12 21.23,25.12 "
     id="polygon31"
     style="fill:none"
     transform="translate(0.02579294,-6.2598336)" />
  <path
     class="cls-3"
     d="M 2.0257929,1.6632531e-4 A 2,2 0 0 0 0.02579294,2.3201663 L 8.5157929,53.860167 a 2.72,2.72 0 0 0 2.6600001,2.27 h 40.73 a 2,2 0 0 0 2,-1.68 l 8.49,-52.1200007 a 2,2 0 0 0 -2,-2.31999997 z M 37.775793,37.250167 h -13 l -3.52,-18.39 h 19.67 z"
     id="path33"
     inkscape:connector-curvature="0"
     style="fill:#2684ff" />
  <path
     class="cls-4"
     d="m 59.695793,18.860167 h -18.77 l -3.15,18.39 h -13 l -15.3500001,18.22 a 2.71,2.71 0 0 0 1.7500001,0.66 h 40.74 a 2,2 0 0 0 2,-1.68 z"
     id="path35"
     style="fill:url(#New_Gradient_Swatch_1)"
     inkscape:connector-curvature="0" />
</svg>
