<svg height="56.130333" viewBox="0 0 62.421586 56.130333" width="62.421585" xmlns="http://www.w3.org/2000/svg" xmlns:xlink="http://www.w3.org/1999/xlink"><linearGradient id="a" gradientUnits="userSpaceOnUse" x1="64.035795" x2="33.015795" y1="24.010166" y2="48.220166"><stop offset=".18" stop-color="#0052cc"/><stop offset="1" stop-color="#2684ff"/></linearGradient><path d="m24.7 43.51h13.05l3.15-18.39h-19.67z" fill="none" transform="translate(.025793 -6.259834)"/><path d="m2.0257929.00016633a2 2 0 0 0 -1.99999996 2.31999997l8.48999996 51.5400007a2.72 2.72 0 0 0 2.6600001 2.27h40.73a2 2 0 0 0 2-1.68l8.49-52.1200007a2 2 0 0 0 -2-2.31999997zm35.7500001 37.25000067h-13l-3.52-18.39h19.67z" fill="#2684ff"/><path d="m59.695793 18.860167h-18.77l-3.15 18.39h-13l-15.3500001 18.22a2.71 2.71 0 0 0 1.7500001.66h40.74a2 2 0 0 0 2-1.68z" fill="url(#a)"/></svg>