<svg xmlns="http://www.w3.org/2000/svg" xml:space="preserve" viewBox="0 0 512 512">
  <path fill="#fff" d="M207.60364 258.18301c1.40624-25.2041 13.7595-47.42265 32.38675-63.1725 18.25946-15.46862 42.85781-24.92286 69.6845-24.92286 26.80507 0 51.38179 9.45424 69.66289 24.92286 18.6056 15.74985 30.95887 37.9684 32.38674 63.15087 1.40624 25.8964-8.99992 49.97551-27.25938 67.80227-18.62725 18.15128-45.1078 29.53099-74.79024 29.53099s-56.20626-11.3797-74.81187-29.53099c-18.30274-17.82676-28.68726-41.90587-27.2594-67.78064z"/>
  <path fill="#265787" d="M257.29467 260.45611c.72155-12.93238 7.06009-24.33285 16.61784-32.4142 9.36904-7.93703 21.9906-12.78806 35.75554-12.78806 13.75384 0 26.3643 4.85103 35.74445 12.78806 9.54665 8.08135 15.88518 19.48182 16.61783 32.4031.72155 13.2876-4.61791 25.64274-13.98695 34.78976-9.55776 9.31353-23.14509 15.15252-38.37533 15.15252s-28.83977-5.839-38.38642-15.15252c-9.39124-9.15812-14.7196-21.50216-13.98696-34.77866z"/>
  <path fill="#ea7600" d="M173.90577 286.58728c.0888 5.06194 1.69842 14.89721 4.12948 22.57893 5.08415 16.2626 13.72054 31.30412 25.73156 44.55842 12.33295 13.63172 27.50768 24.57706 45.03578 32.3476 18.42726 8.15904 38.39753 12.32183 59.14485 12.28852 20.70291-.0222 40.67318-4.27379 59.11154-12.48834 17.5281-7.84823 32.70283-18.83798 45.00247-32.4697 12.01102-13.3098 20.62521-28.38463 25.73156-44.64723 2.56428-8.21455 4.18499-16.55122 4.83993-24.92119.63275-8.24785.36633-16.49571-.79925-24.75467-2.28676-16.0739-7.84824-31.15981-16.40692-44.91365-7.83714-12.63265-17.92773-23.7001-29.93875-33.00253l.0222-.0222-121.16478-93.0354c-.111-.07771-.19982-.16652-.31082-.24422-7.94815-6.10542-21.31346-6.08322-30.06086.0333-8.8362 6.18312-9.84637 16.40691-1.98703 22.86755l-.0333.0333 50.53065 41.09499-154.02303.1665h-.19981c-12.73258.0111-24.96561 8.36997-27.39668 18.92679-2.48657 10.75663 6.16092 19.67053 19.39303 19.72604l-.0222.0444 78.07163-.15541L68.9925 297.53262c-.17761.13321-.36633.26642-.53284.39963-13.1433 10.06838-17.39489 26.79722-9.11372 37.38733 8.40327 10.76773 26.2644 10.78993 39.5409.0666l76.0291-62.2308c.0111-.01111-1.09897 8.39216-1.01017 13.4319zm195.37336 28.1293c-15.66317 15.96289-37.59827 25.01-61.3317 25.0544-23.76672.0444-45.70182-8.925-61.36499-24.86568-7.65952-7.75943-13.2765-16.69553-16.75104-26.21998-3.39684-9.34683-4.71783-19.282-3.84087-29.29488.83256-9.79086 3.74096-19.1266 8.39218-27.57427 4.5735-8.30336 10.86764-15.80747 18.63817-22.1571 15.23024-12.41064 34.61217-19.1266 54.89325-19.1599 20.2922-.0222 39.67412 6.62715 54.91546 18.99339 7.75943 6.31633 14.04246 13.79823 18.61597 22.0905 4.67342 8.43657 7.57072 17.7501 8.42548 27.56316.86586 10.00178-.45513 19.91475-3.86307 29.27269-3.47454 9.56884-9.06932 18.50495-16.72884 26.29768z"/>
</svg>
