<?xml version="1.0" encoding="UTF-8" standalone="no"?>
<!DOCTYPE svg PUBLIC "-//W3C//DTD SVG 1.1//EN" "http://www.w3.org/Graphics/SVG/1.1/DTD/svg11.dtd">
<svg width="100%" height="100%" viewBox="0 0 198 58" version="1.1" xmlns="http://www.w3.org/2000/svg" xmlns:xlink="http://www.w3.org/1999/xlink" xml:space="preserve" style="fill-rule:evenodd;clip-rule:evenodd;stroke-linejoin:round;stroke-miterlimit:1.41421;">
    <g>
        <path d="M180.513,16.271C180.513,16.271 63.177,16.271 59.868,16.271C59.794,16.214 59.727,16.145 59.656,16.09C59.638,16.073 41.907,2.452 41.374,2.04C41.343,2.017 41.313,1.994 41.313,1.994C38.472,-0.181 34.252,-0.227 31.261,1.869C29.39,3.178 28.266,5.158 28.182,7.3C28.18,7.385 28.175,7.471 28.175,7.558C28.175,8.669 28.47,9.742 29.003,10.706C23.513,10.711 17.991,10.717 17.991,10.717C13.873,10.72 10.149,13.498 9.299,17.179C9.178,17.707 9.117,18.239 9.117,18.767C9.117,20.307 9.629,21.8 10.598,23.026C11.689,24.397 13.263,25.32 15.059,25.68C9.872,29.663 4.689,33.64 4.684,33.645C4.647,33.672 4.617,33.697 4.591,33.714C2.511,35.312 1.141,37.626 0.831,40.062C0.785,40.419 0.763,40.773 0.763,41.124C0.763,42.878 1.323,44.546 2.385,45.909C3.678,47.563 5.586,48.613 7.759,48.86C10.249,49.148 12.869,48.35 14.942,46.674C14.955,46.664 17.522,44.559 20.229,42.345C21.222,44.742 22.615,46.964 24.415,48.951C26.731,51.51 29.546,53.532 32.777,54.962C36.173,56.467 39.812,57.227 43.594,57.218C47.379,57.211 51.016,56.442 54.407,54.928C57.645,53.479 60.454,51.45 62.761,48.895C63.1,48.517 63.412,48.119 63.724,47.719C68.304,47.719 180.513,47.719 180.513,47.719C189.739,47.719 197.236,40.666 197.236,31.997C197.236,23.326 189.739,16.271 180.513,16.271Z" style="fill:rgb(254,254,254);fill-rule:nonzero;"/>
        <path d="M36.13,31.285C36.236,29.394 37.162,27.728 38.559,26.547C39.929,25.387 41.773,24.678 43.785,24.678C45.795,24.678 47.639,25.387 49.01,26.547C50.406,27.728 51.332,29.394 51.439,31.283C51.545,33.226 50.764,35.031 49.394,36.369C47.997,37.73 46.01,38.584 43.785,38.584C41.56,38.584 39.569,37.73 38.173,36.369C36.802,35.031 36.023,33.226 36.13,31.285Z" style="fill:rgb(14,84,139);fill-rule:nonzero;"/>
        <path d="M23.94,35.106C23.953,35.846 24.189,37.284 24.543,38.407C25.287,40.784 26.549,42.983 28.305,44.921C30.107,46.913 32.326,48.513 34.889,49.649C37.583,50.842 40.502,51.45 43.534,51.445C46.561,51.441 49.48,50.821 52.174,49.619C54.737,48.472 56.954,46.865 58.753,44.872C60.508,42.926 61.768,40.723 62.514,38.346C62.889,37.145 63.126,35.926 63.221,34.703C63.314,33.498 63.275,32.291 63.104,31.085C62.77,28.735 61.957,26.53 60.705,24.52C59.56,22.673 58.084,21.056 56.329,19.695L56.333,19.692L38.622,6.093C38.606,6.081 38.593,6.068 38.576,6.057C37.414,5.165 35.46,5.168 34.182,6.062C32.89,6.966 32.742,8.461 33.892,9.404L33.887,9.409L41.274,15.416L18.759,15.44C18.748,15.44 18.737,15.44 18.729,15.44C16.868,15.442 15.079,16.663 14.725,18.206C14.361,19.778 15.625,21.082 17.56,21.089L17.557,21.096L28.969,21.074L8.605,36.705C8.579,36.724 8.551,36.744 8.527,36.763C6.606,38.234 5.985,40.68 7.195,42.228C8.423,43.802 11.034,43.805 12.975,42.237L24.089,33.141C24.089,33.141 23.927,34.369 23.94,35.106ZM52.499,39.218C50.209,41.551 47.003,42.874 43.534,42.881C40.06,42.887 36.854,41.576 34.564,39.247C33.445,38.112 32.623,36.806 32.116,35.415C31.619,34.048 31.426,32.597 31.554,31.133C31.675,29.702 32.101,28.337 32.781,27.102C33.449,25.888 34.369,24.791 35.505,23.863C37.731,22.049 40.565,21.067 43.529,21.063C46.496,21.059 49.328,22.032 51.556,23.84C52.69,24.764 53.609,25.857 54.277,27.069C54.96,28.303 55.383,29.663 55.509,31.098C55.635,32.56 55.442,34.009 54.945,35.377C54.437,36.772 53.618,38.078 52.499,39.218Z" style="fill:rgb(244,121,43);fill-rule:nonzero;"/>
        <path d="M157.467,31.254C157.638,29.346 159.113,28.136 161.366,28.136C163.622,28.136 165.096,29.346 165.267,31.254L157.467,31.254ZM165.036,35.965C164.459,37.379 163.099,38.216 161.252,38.216C158.939,38.216 157.382,36.772 157.319,34.491L170.616,34.491C170.616,34.254 170.616,34.056 170.616,33.82C170.616,28.106 167.262,24.895 161.252,24.895C155.416,24.895 151.887,28.136 151.887,33.219C151.887,38.333 155.471,41.569 161.252,41.569C164.721,41.569 167.411,40.38 169.069,38.29L165.036,35.965Z" style="fill:rgb(14,84,139);fill-rule:nonzero;"/>
        <path d="M98.468,31.263C98.644,29.355 100.119,28.145 102.374,28.145C104.626,28.145 106.1,29.355 106.273,31.263L98.468,31.263ZM106.042,35.974C105.464,37.392 104.105,38.229 102.254,38.229C99.945,38.229 98.384,36.781 98.323,34.499L111.617,34.499C111.617,34.265 111.617,34.068 111.617,33.832C111.617,28.115 108.264,24.903 102.254,24.903C96.415,24.903 92.893,28.145 92.893,33.228C92.893,38.342 96.475,41.578 102.254,41.578C105.722,41.578 108.414,40.393 110.075,38.3L106.042,35.974Z" style="fill:rgb(14,84,139);fill-rule:nonzero;"/>
        <rect x="86.907" y="21.44" width="4.795" height="19.617" style="fill:rgb(14,84,139);fill-rule:nonzero;"/>
        <path d="M112.81,26.652L117.632,26.652L117.632,27.82C119.339,25.998 121.389,25.077 123.701,25.077C126.364,25.077 128.38,25.998 129.421,27.566C130.29,28.861 130.347,30.424 130.347,32.478L130.347,41.057L125.518,41.057L125.518,33.519C125.518,30.391 124.889,28.947 122.143,28.947C119.368,28.947 117.632,30.6 117.632,33.375L117.632,41.057L112.81,41.057L112.81,26.652Z" style="fill:rgb(14,84,139);fill-rule:nonzero;"/>
        <path d="M145.876,33.462C145.876,36.147 144.082,37.908 141.306,37.908C138.528,37.908 136.734,36.207 136.734,33.493C136.734,30.739 138.504,29.039 141.306,29.039C144.082,29.039 145.876,30.769 145.876,33.462ZM145.876,27.305C144.657,25.998 142.893,25.281 140.441,25.281C135.151,25.281 131.539,28.543 131.539,33.432C131.539,38.225 135.126,41.578 140.354,41.578C142.751,41.578 144.511,40.972 145.876,39.613L145.876,41.057L150.701,41.057L150.701,20.196L145.876,21.44L145.876,27.305Z" style="fill:rgb(14,84,139);fill-rule:nonzero;"/>
        <path d="M75.947,29.039C78.751,29.039 80.514,30.739 80.514,33.493C80.514,36.207 78.723,37.908 75.947,37.908C73.173,37.908 71.381,36.147 71.381,33.462C71.381,30.769 73.173,29.039 75.947,29.039ZM71.381,21.44L66.554,20.196L66.554,41.057L71.381,41.057L71.381,39.613C72.739,40.972 74.502,41.578 76.901,41.578C82.132,41.578 85.714,38.225 85.714,33.432C85.714,28.543 82.101,25.281 76.814,25.281C74.357,25.281 72.594,25.998 71.381,27.305L71.381,21.44Z" style="fill:rgb(14,84,139);fill-rule:nonzero;"/>
        <path d="M171.806,41.057L171.806,26.652L176.631,26.652L176.631,27.542C178.076,25.802 179.605,24.936 181.344,24.936C181.689,24.936 182.123,24.992 182.7,25.049L182.7,29.156C182.235,29.095 181.717,29.095 181.167,29.095C178.362,29.095 176.631,30.945 176.631,34.091L176.631,41.057L171.806,41.057Z" style="fill:rgb(14,84,139);fill-rule:nonzero;"/>
        <path d="M188.956,24.952L188.585,24.952L188.598,23.631L188.618,23.194L188.518,23.554L188.08,24.952L187.742,24.952L187.312,23.554L187.204,23.2L187.23,23.631L187.243,24.952L186.88,24.952L186.88,22.812L187.388,22.812L187.923,24.5L188.446,22.812L188.956,22.812L188.956,24.952ZM186.024,24.952L185.651,24.952L185.651,23.129L184.963,23.129L184.963,22.812L186.699,22.812L186.699,23.129L186.024,23.129L186.024,24.952Z" style="fill:rgb(14,84,139);fill-rule:nonzero;"/>
    </g>
</svg>
