<svg height="113.5208" viewBox="0 0 83.74373 113.5208" width="83.743729" xmlns="http://www.w3.org/2000/svg"><g fill-rule="evenodd" transform="matrix(1.3333333 0 0 -1.3333333 0 113.5208)"><path d="m55.741 42.9523c0-22.2144-10.8859-40.223-24.3144-40.223-13.4286 0-24.3141 18.0086-24.3141 40.223 0 22.2149 10.8855 40.2231 24.3141 40.2231 13.4285 0 24.3144-18.0082 24.3144-40.2231" fill="#fff"/><path d="m31.4074 0c18.5887 0 31.4004 8.83086 31.4004 42.5703 0 33.7391-12.8117 42.5703-31.4004 42.5703-18.5894 0-31.4074-8.8312-31.4074-42.5703 0-33.73944 12.818-42.5703 31.4074-42.5703zm-4.0769 42.5699-15.2184 15.2578 4.4102 4.4102 12.1265-12.1266v29.0641l22.0465-22.0465-14.559-14.559 14.559-14.5586-22.0465-22.04646v29.06406l-12.1265-12.1269-4.4102 4.4097zm7.5148-21.5469 7.0395 7.0395-7.034 7.034zm0 43.0938 7.0395-7.0395-7.034-7.0343z" fill="#176fc1"/></g></svg>