<svg xmlns="http://www.w3.org/2000/svg" viewBox="0 0 144 144"><rect width="144" height="144" fill="#fff"/><path d="M108.82 124.59h.83a1.13 1.13 0 00.77-.24.83.83 0 00.29-.67c0-.6-.38-.93-1.06-.93h-.83Zm1.72 2.36-1.06-1.88h-.66V127h-.61v-4.68h1.58a1.79 1.79 0 01.62.1 1.61 1.61 0 01.49.3 1.47 1.47 0 01.32.45 1.23 1.23 0 01.12.55 1.27 1.27 0 01-.28.82 1.37 1.37 0 01-.72.5l-.2.07 1.1 1.89Zm-1-6.17a3.88 3.88 0 00-1.49.29 3.82 3.82 0 00-1.2.82 4 4 0 00-.81 1.23 4.15 4.15 0 000 3 3.76 3.76 0 00.81 1.23 3.82 3.82 0 001.2.82 3.77 3.77 0 004.17-.82 3.47 3.47 0 00.81-1.23 4.15 4.15 0 000-3 3.66 3.66 0 00-.81-1.23 3.71 3.71 0 00-1.2-.82 3.87 3.87 0 00-1.48-.29m0 8.31a4.31 4.31 0 01-1.73-.35 4.53 4.53 0 01-1.4-1 4.44 4.44 0 01-1-1.41 4.43 4.43 0 010-3.45 4.54 4.54 0 012.35-2.37 4.31 4.31 0 011.73-.34 4.46 4.46 0 011.74.34 4.63 4.63 0 011.41 1 4.76 4.76 0 011 1.41 4.43 4.43 0 010 3.45 4.63 4.63 0 01-1 1.41 4.43 4.43 0 01-3.15 1.31" fill="#0082fc"/><path d="M72,129.35c25,0,42.3-11.9,42.3-57.35S97.05,14.65,72,14.65,29.7,26.55,29.7,72,47,129.35,72,129.35M66.51,72,46,51.45l5.94-6L68.29,61.84V22.69L98,52.39,78.38,72,98,91.61l-29.7,29.7V82.16L52,98.5l-5.94-6Zm10.13,29,9.48-9.49-9.48-9.47Zm0-58.06,9.48,9.49-9.48,9.47Z" fill="#0082fc"/></svg>