<svg xmlns="http://www.w3.org/2000/svg" width="160" height="160" viewBox="0 0 42.333 42.333"><g transform="matrix(1.0529 0 0 1.05289 -387.492 265.985)"><circle cx="435.079" cy="-124.144" r="20.103" style="fill:#a14f8c;fill-opacity:1;stroke:none;stroke-width:1.32292;stroke-linecap:round;stroke-miterlimit:4;stroke-dasharray:none;stroke-opacity:1;paint-order:fill markers stroke;stop-color:#000" transform="rotate(-15)"/><path d="m384.257-249.617-3.875 3.875h-5.479v5.48l-3.875 3.875 3.875 3.874v5.48h5.48l3.874 3.875 3.875-3.875h5.48v-5.48l3.874-3.874-3.875-3.875-5.48-5.48zm1.176 3.875v4.18l-1.176 1.176-1.176-1.176v-4.18zm-6.959 1.908 2.956 2.957v1.662h-1.663l-2.956-2.956zm-3.571 6.27h4.18l1.176 1.177-1.176 1.176h-4.18zm14.434 0h4.18v2.353h-4.18l-1.176-1.176zm-9.503 3.937h1.663v1.663l-2.956 2.956-1.663-1.663zm7.184 0h1.663l2.956 2.956-1.663 1.663-2.956-2.956zm-2.76 1.143 1.175 1.176v4.18h-2.352v-4.18z" style="fill:#fff;fill-opacity:1;stroke-width:7.93746;stroke-linecap:round;paint-order:fill markers stroke;stop-color:#000" transform="translate(-53.772 39.325)scale(1.15)"/><path d="m385.433-239.09-1.176 1.04-1.176-1.04v1.526h-1.526l1.039 1.177-1.04 1.176h1.527v1.526l1.176-1.04 1.176 1.04v-1.526h1.527l-1.04-1.176 1.04-1.177h-1.527z" style="fill:#efa724;fill-opacity:1;stroke-width:8.59212;stroke-linecap:round;paint-order:fill markers stroke;stop-color:#000" transform="translate(-53.772 39.325)scale(1.15)"/><path d="m388.135-245.738 1.905 1.905-2.956 2.956v1.663h1.663l2.956-2.956 1.911 1.911-.003-5.483z" style="fill:#efa724;fill-opacity:1;stroke-width:6.14231;stroke-linecap:round;paint-order:fill markers stroke;stop-color:#000" transform="translate(-53.772 39.325)scale(1.15)"/></g></svg>