<?xml version="1.0" encoding="UTF-8"?> <svg xmlns="http://www.w3.org/2000/svg" width="1400" height="787.5" viewBox="0 0 1400 787.5"><g id="logo-hero" transform="translate(-14252 743)"><rect id="Rectangle_304" data-name="Rectangle 304" width="1400" height="787.5" transform="translate(14252 -743)" fill="#003792"></rect><g id="citrix-logo" transform="translate(14667.31 -471.921)"><g id="Group_292" data-name="Group 292" transform="translate(0)"><path id="Path_124" data-name="Path 124" d="M0,89.818c0-43.14,28.945-73.177,70.178-73.177,27.848,0,50.51,13.928,59.516,35.494a12.975,12.975,0,0,1,1.368,6.282,8.188,8.188,0,0,1-8.739,8.18,9.162,9.162,0,0,1-8.739-6.574c-7.091-17.449-23.2-27.552-43.407-27.552-30.859,0-52.425,23.488-52.425,57.347,0,33.583,21.3,57.059,52.425,57.059,20.21,0,35.494-9.828,43.686-30.3A8.924,8.924,0,0,1,122.323,110a8.628,8.628,0,0,1,8.739,8.751,16.093,16.093,0,0,1-1.089,5.752C121.234,147.982,98.847,163,70.182,163,28.669,162.983,0,132.949,0,89.818Z" transform="translate(0 28.223)" fill="#b5e2ff"></path><path id="Path_125" data-name="Path 125" d="M98.129,179.2a8.7,8.7,0,0,1-9.006,9.828c-5.752,0-8.739-3.825-8.739-9.828V9.848A8.587,8.587,0,0,1,89.394.012c5.752,0,8.739,3.558,8.739,9.836V48.406h30.551a7.7,7.7,0,0,1,8.755,7.917,7.7,7.7,0,0,1-8.739,7.925H98.133Z" transform="translate(136.07 0.004)" fill="#b5e2ff"></path><path id="Path_126" data-name="Path 126" d="M187.016,29.779a8.246,8.246,0,0,1-8.739,8.459,14.343,14.343,0,0,1-6.574-1.91,32.046,32.046,0,0,0-14.2-3c-18.842,0-31.126,16.385-31.126,37.137v80.527c0,6.27-3,9.828-8.739,9.828a8.583,8.583,0,0,1-9.014-9.828V28.69a8.587,8.587,0,0,1,9.014-9.836c5.752,0,8.739,3.558,8.739,9.836v3.546A40.531,40.531,0,0,1,159.42,16.672a42.268,42.268,0,0,1,22.934,5.456,8.755,8.755,0,0,1,4.663,7.65Z" transform="translate(183.939 28.192)" fill="#b5e2ff"></path><path id="Path_127" data-name="Path 127" d="M144.323,27.286c0-6.282,3.287-9.836,9.006-9.836s8.739,3.558,8.739,9.836V149.6a8.7,8.7,0,0,1-9,9.828c-5.752,0-8.739-3.825-8.739-9.828Z" transform="translate(244.64 29.596)" fill="#b5e2ff"></path><g id="Group_291" data-name="Group 291" transform="translate(157.159 0.016)"><path id="Path_128" data-name="Path 128" d="M60.2,27.286c0-6.282,3.287-9.836,9.006-9.836s8.739,3.558,8.739,9.836V149.6a8.7,8.7,0,0,1-9.006,9.828c-5.752,0-8.739-3.825-8.739-9.828Z" transform="translate(-55.11 29.58)" fill="#b5e2ff"></path><circle id="Ellipse_20" data-name="Ellipse 20" cx="13.944" cy="13.944" r="13.944" transform="translate(0 0)" fill="#b5e2ff"></circle></g><path id="Path_129" data-name="Path 129" d="M225.329,99.383,177,155.9a8.628,8.628,0,0,1-7.1,3.558,8.274,8.274,0,0,1-8.46-8.192,9.234,9.234,0,0,1,2.466-6.283l50.5-57.062-48.6-55.7a9.7,9.7,0,0,1-3-6.574,8.349,8.349,0,0,1,8.739-8.192,8.566,8.566,0,0,1,6.824,3.558l46.961,55.149,46.96-55.149a8.566,8.566,0,0,1,6.824-3.558,8.349,8.349,0,0,1,8.739,8.192,9.692,9.692,0,0,1-3,6.574l-48.6,55.7,50.51,57.063a9.224,9.224,0,0,1,2.465,6.282,8.275,8.275,0,0,1-8.46,8.192,8.628,8.628,0,0,1-7.1-3.558Z" transform="translate(273.652 29.574)" fill="#b5e2ff"></path><circle id="Ellipse_21" data-name="Ellipse 21" cx="13.944" cy="13.944" r="13.944" transform="translate(485.032 0.016)" fill="#b5e2ff"></circle></g></g></g></svg> 