<svg height="154.3" viewBox="0 0 341.20002 154.3" width="341.20001" xmlns="http://www.w3.org/2000/svg"><g transform="translate(-440.1 -77.9)"><path d="m752.9 169.6-42.9-24.6-7.4-3.2-175.5 1.2v89.1h225.8z" fill="#fff"/><path d="m674.8 223.9c2.1-7.2 1.3-13.8-2.2-18.7-3.2-4.5-8.6-7.1-15.1-7.4l-123.1-1.6c-.8 0-1.5-.4-1.9-1s-.5-1.4-.3-2.2c.4-1.2 1.6-2.1 2.9-2.2l124.2-1.6c14.7-.7 30.7-12.6 36.3-27.2l7.1-18.5c.3-.8.4-1.6.2-2.4-8-36.2-40.3-63.2-78.9-63.2-35.6 0-65.8 23-76.6 54.9-7-5.2-15.9-8-25.5-7.1-17.1 1.7-30.8 15.4-32.5 32.5-.4 4.4-.1 8.7.9 12.7-27.9.8-50.2 23.6-50.2 51.7 0 2.5.2 5 .5 7.5.2 1.2 1.2 2.1 2.4 2.1h227.2c1.3 0 2.5-.9 2.9-2.2z" fill="#f38020"/><path d="m714 144.8c-1.1 0-2.3 0-3.4.1-.8 0-1.5.6-1.8 1.4l-4.8 16.7c-2.1 7.2-1.3 13.8 2.2 18.7 3.2 4.5 8.6 7.1 15.1 7.4l26.2 1.6c.8 0 1.5.4 1.9 1s.5 1.5.3 2.2c-.4 1.2-1.6 2.1-2.9 2.2l-27.3 1.6c-14.8.7-30.7 12.6-36.3 27.2l-2 5.1c-.4 1 .3 2 1.4 2h93.8c1.1 0 2.1-.7 2.4-1.8 1.6-5.8 2.5-11.9 2.5-18.2 0-37-30.2-67.2-67.3-67.2" fill="#faae40"/></g></svg>