<?xml version="1.0" encoding="UTF-8" standalone="no"?>
<!-- Generator: Adobe Illustrator 21.0.0, SVG Export Plug-In . SVG Version: 6.00 Build 0)  -->

<svg
   xmlns:dc="http://purl.org/dc/elements/1.1/"
   xmlns:cc="http://creativecommons.org/ns#"
   xmlns:rdf="http://www.w3.org/1999/02/22-rdf-syntax-ns#"
   xmlns:svg="http://www.w3.org/2000/svg"
   xmlns="http://www.w3.org/2000/svg"
   xmlns:sodipodi="http://sodipodi.sourceforge.net/DTD/sodipodi-0.dtd"
   xmlns:inkscape="http://www.inkscape.org/namespaces/inkscape"
   version="1.1"
   id="Layer_1"
   x="0px"
   y="0px"
   viewBox="0 0 341.20002 154.3"
   xml:space="preserve"
   sodipodi:docname="cloudflare.svg"
   width="341.20001"
   height="154.3"
   inkscape:version="0.92.1 r15371"><metadata
     id="metadata41"><rdf:RDF><cc:Work
         rdf:about=""><dc:format>image/svg+xml</dc:format><dc:type
           rdf:resource="http://purl.org/dc/dcmitype/StillImage" /><dc:title></dc:title></cc:Work></rdf:RDF></metadata><defs
     id="defs39" /><sodipodi:namedview
     pagecolor="#ffffff"
     bordercolor="#666666"
     borderopacity="1"
     objecttolerance="10"
     gridtolerance="10"
     guidetolerance="10"
     inkscape:pageopacity="0"
     inkscape:pageshadow="2"
     inkscape:window-width="1366"
     inkscape:window-height="739"
     id="namedview37"
     showgrid="false"
     fit-margin-top="0"
     fit-margin-left="0"
     fit-margin-right="0"
     fit-margin-bottom="0"
     inkscape:zoom="0.40032026"
     inkscape:cx="437.14999"
     inkscape:cy="196.85"
     inkscape:window-x="0"
     inkscape:window-y="0"
     inkscape:window-maximized="1"
     inkscape:current-layer="Layer_1" /><style
     type="text/css"
     id="style2">
	.st0{fill:#404041;}
	.st1{fill:#FFFFFF;}
	.st2{fill:#F38020;}
	.st3{fill:#FAAE40;}
</style><g
     id="g32"
     transform="translate(-440.1,-77.9)"><polygon
       style="fill:#ffffff"
       id="polygon26"
       points="752.9,169.6 710,145 702.6,141.8 527.1,143 527.1,232.1 752.9,232.1 "
       class="st1" /><path
       style="fill:#f38020"
       inkscape:connector-curvature="0"
       id="path28"
       d="m 674.8,223.9 c 2.1,-7.2 1.3,-13.8 -2.2,-18.7 -3.2,-4.5 -8.6,-7.1 -15.1,-7.4 l -123.1,-1.6 c -0.8,0 -1.5,-0.4 -1.9,-1 -0.4,-0.6 -0.5,-1.4 -0.3,-2.2 0.4,-1.2 1.6,-2.1 2.9,-2.2 l 124.2,-1.6 C 674,188.5 690,176.6 695.6,162 l 7.1,-18.5 c 0.3,-0.8 0.4,-1.6 0.2,-2.4 -8,-36.2 -40.3,-63.2 -78.9,-63.2 -35.6,0 -65.8,23 -76.6,54.9 -7,-5.2 -15.9,-8 -25.5,-7.1 -17.1,1.7 -30.8,15.4 -32.5,32.5 -0.4,4.4 -0.1,8.7 0.9,12.7 -27.9,0.8 -50.2,23.6 -50.2,51.7 0,2.5 0.2,5 0.5,7.5 0.2,1.2 1.2,2.1 2.4,2.1 h 227.2 c 1.3,0 2.5,-0.9 2.9,-2.2 z"
       class="st2" /><path
       style="fill:#faae40"
       inkscape:connector-curvature="0"
       id="path30"
       d="m 714,144.8 c -1.1,0 -2.3,0 -3.4,0.1 -0.8,0 -1.5,0.6 -1.8,1.4 L 704,163 c -2.1,7.2 -1.3,13.8 2.2,18.7 3.2,4.5 8.6,7.1 15.1,7.4 l 26.2,1.6 c 0.8,0 1.5,0.4 1.9,1 0.4,0.6 0.5,1.5 0.3,2.2 -0.4,1.2 -1.6,2.1 -2.9,2.2 l -27.3,1.6 c -14.8,0.7 -30.7,12.6 -36.3,27.2 l -2,5.1 c -0.4,1 0.3,2 1.4,2 h 93.8 c 1.1,0 2.1,-0.7 2.4,-1.8 1.6,-5.8 2.5,-11.9 2.5,-18.2 0,-37 -30.2,-67.2 -67.3,-67.2"
       class="st3" /></g></svg>