<?xml version="1.0" encoding="UTF-8" standalone="no"?>
<svg
   viewBox="-22 347 109.93744 88.456924"
   version="1.1"
   id="svg1"
   sodipodi:docname="coffeescript.svg"
   width="109.93744"
   height="88.456924"
   inkscape:version="1.4.2 (ebf0e940d0, 2025-05-08)"
   xmlns:inkscape="http://www.inkscape.org/namespaces/inkscape"
   xmlns:sodipodi="http://sodipodi.sourceforge.net/DTD/sodipodi-0.dtd"
   xmlns="http://www.w3.org/2000/svg"
   xmlns:svg="http://www.w3.org/2000/svg"
   xmlns:rdf="http://www.w3.org/1999/02/22-rdf-syntax-ns#"
   xmlns:cc="http://creativecommons.org/ns#"
   xmlns:dc="http://purl.org/dc/elements/1.1/">
  <defs
     id="defs1" />
  <sodipodi:namedview
     id="namedview1"
     pagecolor="#ffffff"
     bordercolor="#000000"
     borderopacity="0.25"
     inkscape:showpageshadow="2"
     inkscape:pageopacity="0.0"
     inkscape:pagecheckerboard="0"
     inkscape:deskcolor="#d1d1d1"
     inkscape:zoom="2.8056537"
     inkscape:cx="73.244962"
     inkscape:cy="49.721033"
     inkscape:window-width="1704"
     inkscape:window-height="996"
     inkscape:window-x="0"
     inkscape:window-y="0"
     inkscape:window-maximized="1"
     inkscape:current-layer="svg1" />
  <title
     id="title1">
    CoffeeScript Logo
  </title>
  <path
     d="m 21.637442,350.89556 c 0.1,0.6 -0.2,1.1 -1.2,1.6 -1.3,-0.7 -4.1,-1.1 -6.4,-0.9 -2.5,0.2 -4.5999997,1 -4.2999997,2.7 0.3999997,1.7 2.7999997,2.7 7.0999997,2.3 10.5,-0.9 10.4,-8 25.8,-9.4 12,-1.1 18.7,2.6 19.6,7.1 0.7,3.5 -2.2,6.9 -10.9,7.6 -7.7,0.7 -12.2,-1.4 -12.6,-3.5 -0.2,-1.1 0.4,-2.7 4.1,-3.1 0.4,1.7 2.5,3.5 7.5,3 3.6,-0.3 6.6,-1.6 6.2,-3.6 -0.4,-2.1 -4.2,-3.3 -10.2,-2.8 -12.2,1.1 -15.2,7.8 -25.6,8.7 -7.4,0.7 -13.3999997,-2 -14.1999997,-6 -0.3,-1.5 -0.3,-5 7.4999997,-5.7 4,-0.3 7.2,0.4 7.6,2 z m -39,41.8 c -3.4,4.3 -4.9,9.3 -4.6,14.2 0.3,4.9 2.7,8.9 6.5,12 4,3.1 8.3000003,4 13.2000003,3.1 1.90000003,-0.3 4,-1.3 5.9,-1.9 -3.99999997,0 -7.4,-1.3 -10.8,-4 -3.7000003,-2.7 -6.2000003,-6.5 -6.8000003,-11.1 -0.9,-4.3 0,-8.3 2.4,-11.8 2.7000003,-3.4 6.2000003,-5.3 10.80000033,-5.9 4.59999997,-0.3 8.59999997,0.9 12.59999967,3.7 -0.9,-1.3 -2.1999997,-2.2 -3.3999997,-3.4 -4,-2.7 -8.29999997,-4 -13.6,-2.7 -4.8,1 -8.8000003,3.5 -12.2000003,7.8 z m 53.6,-23.1 c -12.9,0 -24.4,-1.3 -32.6999997,-3.1 -8.9,-2.2 -13.6000003,-4.6 -13.6000003,-7.7 0,-1.3 0.6000003,-2.4 2.4000003,-3.7 -5.6000003,2.2 -8.6000003,4 -8.6000003,6.8 0.3,3.1 5.3,6.2 15.50000033,8.6 9.59999997,2.4 21.89999967,3.7 36.69999967,3.7 15.1,0 27.1,-1.3 36.7,-3.7 10.2,-2.4 15.1,-5.6 15.1,-8.6 0,-2.2 -2.2,-4.3 -6.2,-5.9 0.9,0.6 1.6,1.6 1.6,2.7 0,3.1 -4.6,5.6 -13.9,7.7 -8.6,1.9 -19.6,3.2 -33,3.2 z m 36.8,8.6 c -9.6,2.2 -21.9,3.7 -36.7,3.7 -15.1,0 -27.3999997,-1.6 -36.99999967,-3.7 -8.60000003,-2.2 -13.20000033,-4.6 -14.80000033,-7.1 1.6,10.8 5.3,21 10.2000003,30 3.7,5.6 7.4,10.5 11.1,15.8 1.6,3.1 2.7,6.2 3.4,9.3 2.3999997,3.4 5.8999997,5.6 10.1999997,6.8 5.3,1.9 10.8,2.7 16.4,2.4 h 0.6 c 5.6,0.3 11.5,-0.6 16.9,-2.4 4,-1.3 7.4,-3.4 9.9,-6.8 h 0.3 c 0.6,-3.1 1.6,-6.2 3.1,-9.3 3.7,-5.3 7.4,-10.2 11.1,-15.8 4.9,-8.9 8.3,-19.1 10.2,-30 -2,2.8 -6.6,5.2 -14.9,7.1 z"
     id="path1"
     sodipodi:nodetypes="ccccccscccccccsccssccccccccccsscscccscscscscsccccccccccccccc" />
  <metadata
     id="metadata1">
    <rdf:RDF>
      <cc:Work
         rdf:about="">
        <dc:title>
    CoffeeScript Logo
  </dc:title>
      </cc:Work>
    </rdf:RDF>
  </metadata>
</svg>
