<?xml version="1.0" encoding="UTF-8" standalone="no"?>
<svg
   width="20.821301"
   height="23.963947"
   viewBox="0 0 20.821301 23.963947"
   fill="none"
   version="1.1"
   id="svg6"
   xmlns="http://www.w3.org/2000/svg"
   xmlns:svg="http://www.w3.org/2000/svg">
  <defs
     id="defs6" />
  <path
     d="m 20.8213,19.550148 c 0,2.1949 -5.154,4.4138 -8.7389,4.4138 -4.39362,0 -8.50959,-2.3389 -10.60982,-6.105 C 0.482812,16.107848 0,14.116848 0,12.125848 0,9.811048 0.663867,7.496218 1.96746,5.517218 3.00551,3.934018 4.97297,1.823078 8.43714,0.695649 9.3062,0.407794 10.8753,0 12.6376,0 c 4.9488,0 8.063,3.442268 8.063,6.452748 0,2.06296 -1.6899,5.0015 -5.83,5.0015 -1.895,0 -2.5348,-0.7916 -2.5348,-1.70317 0,-1.22338 1.1467,-2.65066 1.9796,-2.65066 0.35,0 0.5673,0.34783 1.2432,0.25187 0.6639,-0.09595 1.0139,-0.53972 1.0139,-1.09145 0,-1.04347 -1.2432,-2.43477 -3.8866,-2.43477 -0.8449,0 -1.8347,0.14393 -2.98138,0.49175 -2.35371,0.70765 -3.64523,2.3868 -4.33324,3.43027 -0.86906,1.31934 -1.30359,2.86656 -1.30359,4.38976 0,1.3074 0.3259,2.6147 0.96563,3.7661 1.38808,2.4708 4.11597,4.018 7.04908,4.018 4.0435,0 5.1781,-2.1589 5.9989,-2.5067 1.4485,-0.6357 2.74,1.1034 2.74,2.1349 z"
     fill="#000000"
     id="path5" />
</svg>
