<svg xmlns="http://www.w3.org/2000/svg" viewBox="0 0 24 24">
  <path d="M4.54 9.46 2.19 7.1a6.93 6.93 0 000 9.79l2.36-2.36A3.59 3.59 0 014.54 9.46ZM21.81 7.1 19.46 9.46a3.59 3.59 0 01-5.08 5.08L12 16.9A6.93 6.93 0 0021.81 7.1Z" fill="#e8710a"/>
  <path d="M2.19 7.1 4.54 9.46a3.59 3.59 0 015.08 0l1.71-2.93h0l-.1-.08h0A6.93 6.93 0 002.19 7.1ZM11.34 17.46h0L9.62 14.54a3.59 3.59 0 01-5.08 0L2.19 16.9a6.93 6.93 0 009 .65l.11-.09M12 7.1a6.93 6.93 0 000 9.79l2.36-2.36a3.59 3.59 0 115.08-5.08L21.81 7.1A6.93 6.93 0 0012 7.1Z" fill="#f9ab00"/>
</svg>