<?xml version="1.0" encoding="utf-8"?>
<!-- Generator: Adobe Illustrator 27.6.0, SVG Export Plug-In . SVG Version: 6.00 Build 0)  -->
<svg version="1.1" id="Layer_1" xmlns="http://www.w3.org/2000/svg" xmlns:xlink="http://www.w3.org/1999/xlink" x="0px" y="0px"
	 viewBox="0 0 305 358" style="enable-background:new 0 0 305 358;" xml:space="preserve">
<style type="text/css">
	.st0{fill:#A238FF;}
	.st1{fill:none;}
</style>
<g>
	<path class="st0" d="M21.9,115.7c4.4,0,8-14.5,8-32.4c0-17.9-3.6-32.4-8-32.4c-4.4,0-8,14.5-8,32.4
		C13.9,101.2,17.5,115.7,21.9,115.7z"/>
	<path class="st0" d="M256.8,18c-4.2,0-7.9,9.3-10.5,24.2C242.1,16.7,235.4,0,227.8,0c-9,0-16.9,23.5-20.6,57.7
		C203.5,32.9,198,17,191.9,17c-8.6,0-16,31.2-18.7,74.7c-5.1-22.3-12.5-36.3-20.7-36.3c-8.2,0-15.6,14-20.7,36.3
		C129,48.2,121.7,17,113,17c-6.2,0-11.7,15.9-15.3,40.8C94,23.5,86.2,0,77.1,0c-7.6,0-14.4,16.7-18.5,42.3C56,27.4,52.3,18,48.1,18
		C40.3,18,34,50.5,34,90.5c0,40,6.3,72.4,14.1,72.4c3.2,0,6.2-5.5,8.5-14.7c3.7,33.8,11.5,57,20.5,57c7,0,13.2-13.9,17.4-35.9
		c2.9,41.8,10.1,71.5,18.5,71.5c5.3,0,10.1-11.8,13.7-30.9c4.3,39.5,14.2,67.2,25.8,67.2s21.5-27.7,25.8-67.2
		c3.6,19.1,8.4,30.9,13.7,30.9c8.4,0,15.6-29.7,18.5-71.5c4.2,22,10.4,35.9,17.4,35.9c9,0,16.8-23.2,20.5-57
		c2.4,9.2,5.3,14.7,8.5,14.7c7.8,0,14.1-32.4,14.1-72.4C270.8,50.5,264.5,18,256.8,18L256.8,18z"/>
	<path class="st0" d="M283,115.7c4.4,0,8-14.5,8-32.4c0-17.9-3.6-32.4-8-32.4s-8,14.5-8,32.4C275,101.2,278.6,115.7,283,115.7z"/>
</g>
<rect y="305.1" class="st1" width="304.8" height="52.4"/>
<g>
	<path d="M57.1,357.5h43.1v-14.1H77.5v-6.5h21.4v-11.6H77.5v-6.1h22.8v-14.1H57.1V357.5z"/>
	<path d="M105.2,357.5h43.1v-14.1h-22.8v-6.5h21.4v-11.6h-21.4v-6.1h22.8v-14.1h-43.1V357.5z"/>
	<path d="M304.8,357.5c-2.9-8-7-16.6-12.6-26.1c6.5-1.9,10.3-6,10.3-12.2c0-9.5-8.8-14-22.7-14h-28.6v52.4h20.4v-21.7
		c4.5,7.6,7.9,14.8,10.1,21.7H304.8z M271.8,328.5v-9.3h7.1c3,0,4.7,1.6,4.7,4.6c0,3-1.7,4.6-4.7,4.6H271.8z"/>
	<path d="M203.3,357.5h43.1v-14.1h-22.8v-6.5h21.4v-11.6h-21.4v-6.1h22.8v-14.1h-43.1V357.5z"/>
	<path d="M153.2,319.3h21.1c-8.7,7.1-15.9,15.2-21.5,24.1v14.1h46.3v-14.1H176c5.3-7.7,12.7-15.4,23.2-24.1v-14.1h-45.9V319.3z"/>
	<path d="M26.3,305.1H0v52.4h26.3c16.3,0,27.8-10.8,27.8-26.2C54,315.9,42.5,305.1,26.3,305.1z M25.2,343.3h-4.8v-24.1h4.8
		c5.1,0,7.8,3.4,7.8,12C33,339.9,30.3,343.3,25.2,343.3z"/>
</g>
</svg>
