<svg xmlns="http://www.w3.org/2000/svg" width="200" height="200" viewBox="0 0 200 200"><path fill="#2E9FFF" d="M0 0h200v200H0z"/><path fill="#FFF" d="M102.535 167.5c-16.518 0-31.621-6.036-43.298-16.021L30.5 155.405l11.102-27.401A67.658 67.658 0 0 1 35.564 100c0-37.277 29.984-67.5 66.971-67.5 36.984 0 66.965 30.223 66.965 67.5 0 37.284-29.98 67.5-66.965 67.5zm36.567-67.693v-.188c0-19.479-13.736-33.367-37.42-33.367h-25.58v67.5h25.201c23.868.001 37.799-14.468 37.799-33.945zm-37.138 17.361h-7.482V82.841h7.482c10.989 0 18.283 6.265 18.283 17.07v.188c0 10.896-7.294 17.069-18.283 17.069z"/></svg>