<svg height="141.21333" viewBox="0 0 203.29333 141.21333" width="203.29333" xmlns="http://www.w3.org/2000/svg"><path d="m862.336 572.461h157.434v143.113h-157.434zm-186.047 0h157.426v143.113h-157.426zm-186.047 0h157.426v143.113h-157.426zm-186.051 0h157.426v143.113h-157.426zm-186.05 0h157.425v143.113h-157.425zm186.05 171.738h157.426v143.11h-157.426zm186.051 0h157.426v143.11h-157.426zm186.047 0h157.426v143.11h-157.426zm0 171.735h157.426v143.116h-157.426zm816.581-260.028c-34.38 23-113.38 31.434-174.17 19.969-7.83 57.262-39.74 106.906-97.79 151.785l-33.37 22.258-22.27-33.402c-28.51-42.996-42.75-102.559-38.08-159.676 2.1-20.09 8.7-56.027 29.37-87.629-20.66-11.106-61.5-26.402-115.33-25.371h-1035.35109l-2.03125-11.926c-9.73047-57.402-9.51563-236.527 106.78134-374.203 88.402-104.6407 220.941-157.711 393.926-157.711 375 0 652.435 172.621 782.365 486.406 51.09-1.019 161.09-.301 217.6 107.66 1.47 2.481 4.86 8.961 14.73 29.414l5.41 11.223z" fill="#066da5" fill-rule="evenodd" transform="matrix(.13333333 0 0 -.13333333 0 141.21333)"/></svg>