<svg width="48" height="48" viewBox="0 0 48 48" id="svg-1428570407_1593" xmlns="http://www.w3.org/2000/svg"
>
<path
d="m0 0H48V48H0"
fill="#f9ccdd"/>
<path fill-rule="evenodd" clip-rule="evenodd" d="M24 0C10.7506 0 0 10.7506 0 24C0 37.2494 10.7506 48 24 48C37.2234 48 48 37.2494 48 24C48 10.7506 37.2234 0 24 0ZM39.8525 11.0629C42.7158 14.551 44.4338 19.0022 44.4859 23.8178C43.8091 23.6876 37.0412 22.308 30.2213 23.167C30.0651 22.8287 29.9349 22.4642 29.7788 22.0998C29.3623 21.1106 28.8937 20.0954 28.4252 19.1323C35.974 16.0608 39.41 11.6356 39.8525 11.0629ZM24 3.54013C29.2061 3.54013 33.9696 5.4924 37.5878 8.69414C37.2234 9.21475 34.1258 13.3536 26.8373 16.0868C23.4794 9.91757 19.757 4.86768 19.1844 4.08677C20.7202 3.72234 22.3341 3.54013 24 3.54013ZM15.2798 5.46638C15.8265 6.19522 19.4707 11.2712 22.8807 17.3102C13.3015 19.8612 4.84166 19.8091 3.93059 19.8091C5.25811 13.4577 9.55315 8.17354 15.2798 5.46638ZM3.48807 24.026C3.48807 23.8178 3.48807 23.6096 3.48807 23.4013C4.3731 23.4273 14.3167 23.5575 24.5466 20.4859C25.1453 21.6312 25.692 22.8026 26.2126 23.974C25.9523 24.0521 25.6659 24.1302 25.4056 24.2082C14.8373 27.6182 9.21475 36.9371 8.74622 37.718C5.4924 34.0998 3.48807 29.2842 3.48807 24.026ZM24 44.5119C19.2625 44.5119 14.8894 42.898 11.4273 40.1909C11.7918 39.436 15.9566 31.4186 27.5141 27.384C27.5662 27.3579 27.5922 27.3579 27.6443 27.3319C30.5336 34.8026 31.705 41.0759 32.0173 42.872C29.5445 43.9392 26.8373 44.5119 24 44.5119ZM35.4274 40.9979C35.2191 39.7484 34.1258 33.7614 31.4447 26.3948C37.8742 25.3796 43.4967 27.0456 44.1996 27.2798C43.3145 32.9805 40.0347 37.9002 35.4274 40.9979Z" fill="#EA4C89"/>
</svg>