<?xml version="1.0" encoding="utf-8"?>
<!-- Generator: Adobe Illustrator 25.2.3, SVG Export Plug-In . SVG Version: 6.00 Build 0)  -->
<svg version="1.1" id="Layer_1" xmlns="http://www.w3.org/2000/svg" xmlns:xlink="http://www.w3.org/1999/xlink" x="0px" y="0px"
	 viewBox="0 0 339.9 308.1" style="enable-background:new 0 0 339.9 308.1;" xml:space="preserve">
<style type="text/css">
	.st0{fill:#009CDE;}
	.st1{font-family:'Ubuntu-Bold';}
	.st2{font-size:65px;}
</style>
<g id="Livello_2">
	<g id="Livello_1-2">
		<g>
			<path class="st0" d="M158.5,69.5c-19.8-19.8-38.8-38.7-44.4-60.1c-5.6,21.3-24.6,40.2-44.4,60.1c-29.8,29.7-63.5,63.4-63.5,114
				c0,59.6,48.3,107.9,107.9,107.9S222,243.1,222,183.5C222,132.9,188.2,99.2,158.5,69.5 M52,208.6c-6.6-0.2-31-42.3,14.3-87.1
				l30,32.7c1,1,1,2.6,0,3.6c-0.1,0.1-0.1,0.1-0.2,0.2c-7.2,7.3-37.6,37.9-41.4,48.5C53.9,208.7,52.7,208.6,52,208.6 M114.1,264.1
				C93.6,264.1,77,247.5,77,227c0,0,0,0,0,0c0-9.4,3.7-17.8,9.2-24.5c6.7-8.2,27.9-31.2,27.9-31.2s20.8,23.4,27.8,31.1
				c6.1,6.7,9.4,15.5,9.3,24.6C151.2,247.5,134.6,264.1,114.1,264.1 M185.1,203.9c-0.8,1.7-2.6,4.7-5.1,4.8
				c-4.4,0.2-4.8-2.1-8.1-6.9c-7.1-10.5-68.9-75.1-80.5-87.6c-10.2-11-1.4-18.7,2.6-22.8c5.1-5.1,19.9-19.9,19.9-19.9
				s44.3,42,62.7,70.7S188.8,195.7,185.1,203.9"/>
			<text transform="matrix(1 0 0 1 210.9844 290.7845)" class="st0 st1 st2">10.0</text>
		</g>
	</g>
</g>
</svg>
