<?xml version="1.0" encoding="utf-8"?>
<!-- Generator: Adobe Illustrator 23.0.0, SVG Export Plug-In . SVG Version: 6.00 Build 0)  -->
<svg version="1.1" id="Layer_1" xmlns="http://www.w3.org/2000/svg" xmlns:xlink="http://www.w3.org/1999/xlink" x="0px" y="0px"
	 viewBox="0 0 127 127" style="enable-background:new 0 0 127 127;" xml:space="preserve">
<style type="text/css">
	.st0{fill:#DE5833;}
	.st1{fill:#FFFFFF;}
	.st2{fill-rule:evenodd;clip-rule:evenodd;fill:#FED30A;}
	.st3{fill:#2D4F8D;}
	.st4{fill:#D5D7D8;}
	.st5{fill:#67BD47;}
	.st6{fill:#43A347;}
	.st7{fill:#4C4C4C;}
</style>
<g>
	<g>
		<circle class="st0" cx="63.3" cy="63.3" r="60"/>
		<path class="st1" d="M114.1,41.8c-2.8-6.6-6.8-12.5-11.8-17.5c-5.1-5.1-11-9-17.5-11.8c-6.8-2.9-14-4.3-21.5-4.3
			s-14.7,1.5-21.5,4.3c-6.6,2.8-12.5,6.8-17.5,11.8c-5.1,5.1-9,11-11.8,17.5c-2.9,6.8-4.3,14-4.3,21.5c0,7.4,1.5,14.7,4.3,21.5
			c2.8,6.6,6.8,12.5,11.8,17.5c5.1,5.1,11,9,17.5,11.8c6.8,2.9,14,4.3,21.5,4.3s14.7-1.5,21.5-4.3c6.6-2.8,12.5-6.8,17.5-11.8
			c5.1-5.1,9-11,11.8-17.5c2.9-6.8,4.3-14,4.3-21.5C118.4,55.8,117,48.6,114.1,41.8z M75.3,112.8c-3.2-5.4-11.6-20.5-11.6-31.7
			c0-25.8,17.3-3.7,17.3-24.3c0-4.9-2.4-22.1-17.4-25.7c-3.7-4.9-12.4-9.6-26.2-7.7c0,0,2.3,0.7,4.9,2c0,0-5,0.7-5.2,4.1
			c0,0,9.9-0.5,15.5,1.3c-12.9,1.7-19.6,8.4-18.4,20.8c1.7,17.5,9.1,48.7,11.7,59.6c-19.6-7.1-33.7-25.9-33.7-48
			c0-28.1,22.8-51,51-51s51,22.8,51,51C114.2,87.3,97.6,107.4,75.3,112.8z"/>
		<path id="Beak_2_" class="st2" d="M60.5,71.6c0-6.6,9-8.7,12.4-8.7c9.2,0,22.2-5.9,25.4-5.8c3.3,0.1,5.4,1.4,5.4,2.9
			c0,2.2-18.4,10.5-25.5,9.8c-6.8-0.6-8.4,0.1-8.4,2.9c0,2.4,4.9,4.6,10.3,4.6c8.1,0,16-3.6,18.4-1.9c2.1,1.5-5.5,6.9-14.2,6.9
			S60.5,78.2,60.5,71.6z"/>
		<g>
			<path class="st3" d="M76.5,43.6c-2.4-3.1-6.7-3.2-8.2,0.4C70.6,42.2,73.4,41.8,76.5,43.6z"/>
			<path class="st3" d="M49.7,43.7c-3.3-2-8.8-2.2-8.5,4.1C42.9,43.9,45.1,43.2,49.7,43.7z"/>
			<path class="st3" d="M74.5,49.5c-1.8,0-3.3,1.5-3.3,3.3c0,1.8,1.5,3.3,3.3,3.3s3.3-1.5,3.3-3.3C77.8,51,76.3,49.5,74.5,49.5z
				 M75.7,52.5c-0.5,0-1-0.4-1-1c0-0.5,0.4-1,1-1s1,0.4,1,1C76.6,52.1,76.2,52.5,75.7,52.5z"/>
			<path class="st3" d="M48.9,51.3c-2.1,0-3.8,1.7-3.8,3.8c0,2.1,1.7,3.8,3.8,3.8c2.1,0,3.8-1.7,3.8-3.8C52.7,53,51,51.3,48.9,51.3z
				 M50.3,54.8c-0.6,0-1.1-0.5-1.1-1.1c0-0.6,0.5-1.1,1.1-1.1c0.6,0,1.1,0.5,1.1,1.1C51.4,54.3,50.9,54.8,50.3,54.8z"/>
		</g>
		<g>
			<path class="st4" d="M40.6,35.1c-4.8,3.5-7,8.9-6.3,16.5c1.7,17.5,9.1,48.8,11.7,59.7c0.9,0.3,1.8,0.6,2.7,0.9
				c-1.6-6.6-9.3-38.8-12.7-63.5C35.1,42.1,37.6,38.2,40.6,35.1z"/>
			<path class="st4" d="M52.5,30.8c0.4,0,0.7-0.1,0.7-0.1c-5.2-2.5-13.4-2.6-15.6-2.6c-0.2,0.4-0.4,0.9-0.4,1.4
				C37.1,29.6,46.8,29,52.5,30.8z"/>
			<path class="st4" d="M43.1,25.4c-1.6-1.1-2.9-1.8-3.7-2.2c-0.7,0.1-1.3,0.1-2,0.2c0,0,2.3,0.7,4.9,2c0,0-0.1,0-0.2,0
				C42.7,25.4,43.1,25.4,43.1,25.4z"/>
		</g>
		<g>
			<path class="st5" d="M83.4,91.9c-1.7-0.4-8.3,4.3-10.8,6.1c-0.1-0.5-0.2-0.9-0.3-1.1c-0.3-1-6.7-0.4-8.2,1.2
				c-4-1.9-12-5.6-12.1-3.3c-0.3,3,0,15.5,1.6,16.4c1.2,0.7,8-3,11.4-4.9c0,0,0,0,0.1,0c2.1,0.5,6,0,7.4-0.9
				c0.2-0.1,0.3-0.3,0.4-0.5c3.1,1.2,9.8,3.6,11.2,3.1C85.9,107.5,85.5,92.4,83.4,91.9z"/>
			<path class="st6" d="M65.1,106.3c-2.1-0.4-1.4-2.5-1.4-7.4c0,0,0,0,0,0c-0.5,0.3-0.9,0.7-0.9,1.1c0,4.9-0.8,7.1,1.4,7.4
				c2.1,0.5,6,0,7.6-0.9c0.3-0.2,0.4-0.5,0.5-1C70.8,106.4,67.1,106.8,65.1,106.3z"/>
		</g>
	</g>
	<g>
		<path class="st7" d="M110.5,106.4c-0.9,0-1.7,0.7-1.7,1.6c0,0.9,0.7,1.7,1.7,1.7c0.9,0,1.7-0.7,1.7-1.7
			C112.2,107.2,111.5,106.4,110.5,106.4z M110.6,109.4c-0.7,0-1.3-0.6-1.3-1.3c0-0.7,0.5-1.3,1.3-1.3c0.7,0,1.3,0.6,1.3,1.3
			C111.8,108.8,111.3,109.4,110.6,109.4z"/>
		<path class="st7" d="M110.6,107.4c0.2,0,0.3,0.1,0.4,0.3l0.3-0.2c-0.1-0.2-0.4-0.5-0.7-0.5c-0.5,0-1,0.4-1,1c0,0.6,0.4,1,1,1
			c0.4,0,0.6-0.2,0.7-0.5l-0.3-0.2c-0.1,0.2-0.2,0.3-0.4,0.3c-0.3,0-0.6-0.3-0.6-0.6C110.1,107.7,110.3,107.4,110.6,107.4z"/>
	</g>
</g>
</svg>
