<?xml version="1.0" encoding="UTF-8" standalone="no"?>
<!-- Created with Inkscape (http://www.inkscape.org/) -->

<svg
   xmlns:dc="http://purl.org/dc/elements/1.1/"
   xmlns:cc="http://creativecommons.org/ns#"
   xmlns:rdf="http://www.w3.org/1999/02/22-rdf-syntax-ns#"
   xmlns:svg="http://www.w3.org/2000/svg"
   xmlns="http://www.w3.org/2000/svg"
   xmlns:sodipodi="http://sodipodi.sourceforge.net/DTD/sodipodi-0.dtd"
   xmlns:inkscape="http://www.inkscape.org/namespaces/inkscape"
   version="1.1"
   id="svg2"
   xml:space="preserve"
   width="896.79529"
   height="333.27347"
   viewBox="0 0 896.79529 333.27347"
   sodipodi:docname="ebay.svg"
   inkscape:version="0.92.1 r15371"><metadata
     id="metadata8"><rdf:RDF><cc:Work
         rdf:about=""><dc:format>image/svg+xml</dc:format><dc:type
           rdf:resource="http://purl.org/dc/dcmitype/StillImage" /><dc:title></dc:title></cc:Work></rdf:RDF></metadata><defs
     id="defs6"><clipPath
       clipPathUnits="userSpaceOnUse"
       id="clipPath18"><path
         d="M 0,612 H 792 V 0 H 0 Z"
         id="path16"
         inkscape:connector-curvature="0" /></clipPath></defs><sodipodi:namedview
     pagecolor="#ffffff"
     bordercolor="#666666"
     borderopacity="1"
     objecttolerance="10"
     gridtolerance="10"
     guidetolerance="10"
     inkscape:pageopacity="0"
     inkscape:pageshadow="2"
     inkscape:window-width="1366"
     inkscape:window-height="739"
     id="namedview4"
     showgrid="false"
     fit-margin-top="0"
     fit-margin-left="0"
     fit-margin-right="0"
     fit-margin-bottom="0"
     inkscape:zoom="0.28921569"
     inkscape:cx="528"
     inkscape:cy="408"
     inkscape:window-x="0"
     inkscape:window-y="0"
     inkscape:window-maximized="1"
     inkscape:current-layer="g10" /><g
     id="g10"
     inkscape:groupmode="layer"
     inkscape:label="ebay_tm_cmyk_rev"
     transform="matrix(1.3333333,0,0,-1.3333333,0,333.27346)"><g
       id="g12"
       transform="translate(-84.5098,-180.8105)"><g
         id="g14"
         clip-path="url(#clipPath18)"><g
           id="g20"
           transform="translate(549.0723,259.4707)"><path
             d="m 0,0 c 0,-9.096 0.263,-18.074 1.057,-26.159 h -29.075 c -0.775,6.657 -1.058,13.272 -1.058,19.688 -15.719,-19.322 -34.415,-24.877 -60.352,-24.877 -38.468,0 -59.066,20.333 -59.066,43.852 0,34.062 28.015,46.072 76.648,47.186 13.3,0.304 28.239,0.349 40.589,0.349 l -0.002,3.328 c 0,22.804 -14.622,32.18 -39.96,32.18 -18.81,0 -32.674,-7.784 -34.102,-21.235 h -32.84 c 3.475,33.538 38.712,42.02 69.694,42.02 C -31.351,116.332 0,103.126 0,63.868 Z m -69.701,38.734 c -28.341,-0.928 -45.95,-6.043 -45.95,-24.711 0,-12.085 9.634,-25.186 34.094,-25.186 32.793,0 50.298,17.875 50.298,47.192 l 0.002,3.225 c -11.497,0 -25.675,-0.101 -38.444,-0.52"
             style="fill:#fbac18;fill-opacity:1;fill-rule:nonzero;stroke:none"
             id="path22"
             inkscape:connector-curvature="0" /></g><g
           id="g24"
           transform="translate(116.3408,294.0527)"><path
             d="m 0,0 c 1.687,-28.369 21.25,-45.147 48.149,-45.147 18.637,0 35.215,7.593 40.766,24.113 h 32.236 c -6.269,-33.519 -41.884,-44.896 -72.54,-44.896 -55.739,0 -80.442,30.698 -80.442,72.095 0,45.571 25.551,75.585 80.951,75.585 44.096,0 76.405,-23.077 76.405,-73.446 V 0 Z m 92.686,20.785 c -1.213,29.238 -22.317,40.18 -44.872,40.18 -24.321,0 -43.739,-12.308 -47.14,-40.18 z"
             style="fill:#ef3d42;fill-opacity:1;fill-rule:nonzero;stroke:none"
             id="path26"
             inkscape:connector-curvature="0" /></g><g
           id="g28"
           transform="translate(241.8643,430.7656)"><path
             d="m 0,0 h 31.25 l -0.003,-78.512 c 15.316,18.25 36.418,23.549 57.189,23.549 34.825,0 73.505,-23.5 73.505,-74.24 0,-42.489 -30.762,-73.44 -74.086,-73.44 -22.676,0 -44.022,8.135 -57.186,24.252 0,-6.437 -0.359,-12.925 -1.064,-19.063 H -1.063 C -0.53,-187.531 0,-175.176 0,-165.179 Z m 80.177,-181.267 c 29.048,0 48.925,20.909 48.925,52.46 0,31.549 -19.877,52.46 -48.925,52.46 -28.885,0 -48.927,-20.911 -48.927,-52.46 0,-31.551 20.042,-52.46 48.927,-52.46"
             style="fill:#0074bc;fill-opacity:1;fill-rule:nonzero;stroke:none"
             id="path30"
             inkscape:connector-curvature="0" /></g><g
           id="g32"
           transform="translate(708.2266,370.6035)"><path
             d="m 0,0 -96.642,-189.793 h -34.994 l 27.784,52.701 L -176.58,0 h 36.566 L -86.496,-107.111 -33.129,0 Z"
             style="fill:#7dc242;fill-opacity:1;fill-rule:nonzero;stroke:none"
             id="path34"
             inkscape:connector-curvature="0" /></g><g
           id="g36"
           transform="translate(722.3193,370.6069)"><path
             d="m 0,0 h 2.603 v -3.565 h 3.962 v -1.81 H 2.603 v -7.732 c 0,-1.435 0.4,-2.213 2.038,-2.213 0.482,0 1.256,0.054 2.011,0.162 V -16.98 C 5.79,-17.085 4.933,-17.139 4.132,-17.139 1.499,-17.139 0,-16.282 0,-13.294 v 7.919 h -3.517 v 1.81 H 0 Z"
             style="fill:#ffffff;fill-opacity:1;fill-rule:nonzero;stroke:none"
             id="path38"
             inkscape:connector-curvature="0" /></g><g
           id="g40"
           transform="translate(732.3643,364.0005)"><path
             d="M 0,0 C 0,1.017 -0.056,1.984 -0.107,3.042 H 2.331 C 2.382,2.375 2.438,1.607 2.438,0.67 h 0.057 c 1.529,2.048 3.455,2.882 5.651,2.882 2.254,0 4.107,-1.101 4.882,-3.364 0.965,1.837 3.054,3.364 5.544,3.364 3.809,0 6.17,-1.863 6.17,-6.231 v -7.695 h -2.628 v 6.714 c 0,3.257 -0.939,5.403 -3.778,5.403 -2.305,0 -4.661,-1.584 -4.661,-5.991 v -6.126 h -2.608 v 6.876 c 0,3.606 -1.232,5.241 -3.644,5.241 -2.3,0 -4.82,-1.663 -4.82,-5.616 v -6.501 H 0 Z"
             style="fill:#ffffff;fill-opacity:1;fill-rule:nonzero;stroke:none"
             id="path42"
             inkscape:connector-curvature="0" /></g></g></g></g></svg>