<svg height="333.27347" viewBox="0 0 896.79529 333.27347" width="896.79529" xmlns="http://www.w3.org/2000/svg" xmlns:xlink="http://www.w3.org/1999/xlink"><clipPath id="a"><path d="m0 612h792v-612h-792z"/></clipPath><g clip-path="url(#a)" transform="matrix(1.3333333 0 0 -1.3333333 -112.67973051634 574.35412063965)"><path d="m0 0c0-9.096.263-18.074 1.057-26.159h-29.075c-.775 6.657-1.058 13.272-1.058 19.688-15.719-19.322-34.415-24.877-60.352-24.877-38.468 0-59.066 20.333-59.066 43.852 0 34.062 28.015 46.072 76.648 47.186 13.3.304 28.239.349 40.589.349l-.002 3.328c0 22.804-14.622 32.18-39.96 32.18-18.81 0-32.674-7.784-34.102-21.235h-32.84c3.475 33.538 38.712 42.02 69.694 42.02 37.116 0 68.467-13.206 68.467-52.464zm-69.701 38.734c-28.341-.928-45.95-6.043-45.95-24.711 0-12.085 9.634-25.186 34.094-25.186 32.793 0 50.298 17.875 50.298 47.192l.002 3.225c-11.497 0-25.675-.101-38.444-.52" fill="#fbac18" transform="translate(549.0723 259.4707)"/><path d="m0 0c1.687-28.369 21.25-45.147 48.149-45.147 18.637 0 35.215 7.593 40.766 24.113h32.236c-6.269-33.519-41.884-44.896-72.54-44.896-55.739 0-80.442 30.698-80.442 72.095 0 45.571 25.551 75.585 80.951 75.585 44.096 0 76.405-23.077 76.405-73.446v-8.304zm92.686 20.785c-1.213 29.238-22.317 40.18-44.872 40.18-24.321 0-43.739-12.308-47.14-40.18z" fill="#ef3d42" transform="translate(116.3408 294.0527)"/><path d="m0 0h31.25l-.003-78.512c15.316 18.25 36.418 23.549 57.189 23.549 34.825 0 73.505-23.5 73.505-74.24 0-42.489-30.762-73.44-74.086-73.44-22.676 0-44.022 8.135-57.186 24.252 0-6.437-.359-12.925-1.064-19.063h-30.668c.533 9.923 1.063 22.278 1.063 32.275zm80.177-181.267c29.048 0 48.925 20.909 48.925 52.46 0 31.549-19.877 52.46-48.925 52.46-28.885 0-48.927-20.911-48.927-52.46 0-31.551 20.042-52.46 48.927-52.46" fill="#0074bc" transform="translate(241.8643 430.7656)"/><path d="m0 0-96.642-189.793h-34.994l27.784 52.701-72.728 137.092h36.566l53.518-107.111 53.367 107.111z" fill="#7dc242" transform="translate(708.2266 370.6035)"/><g fill="#fff"><path d="m0 0h2.603v-3.565h3.962v-1.81h-3.962v-7.732c0-1.435.4-2.213 2.038-2.213.482 0 1.256.054 2.011.162v-1.822c-.862-.105-1.719-.159-2.52-.159-2.633 0-4.132.857-4.132 3.845v7.919h-3.517v1.81h3.517z" transform="translate(722.3193 370.6069)"/><path d="m0 0c0 1.017-.056 1.984-.107 3.042h2.438c.051-.667.107-1.435.107-2.372h.057c1.529 2.048 3.455 2.882 5.651 2.882 2.254 0 4.107-1.101 4.882-3.364.965 1.837 3.054 3.364 5.544 3.364 3.809 0 6.17-1.863 6.17-6.231v-7.695h-2.628v6.714c0 3.257-.939 5.403-3.778 5.403-2.305 0-4.661-1.584-4.661-5.991v-6.126h-2.608v6.876c0 3.606-1.232 5.241-3.644 5.241-2.3 0-4.82-1.663-4.82-5.616v-6.501h-2.603z" transform="translate(732.3643 364.0005)"/></g></g></svg>