<?xml version="1.0" encoding="utf-8"?>
<!-- Generator: Adobe Illustrator 26.0.3, SVG Export Plug-In . SVG Version: 6.00 Build 0)  -->
<svg version="1.1" id="Layer_1" xmlns="http://www.w3.org/2000/svg" xmlns:xlink="http://www.w3.org/1999/xlink" x="0px" y="0px"
	 viewBox="0 0 1024 1024" style="enable-background:new 0 0 1024 1024;" xml:space="preserve">
<style type="text/css">
	.st0{fill:#008009;}
	.st1{clip-path:url(#SVGID_00000083785204581903008680000014848734889370030765_);fill:#F0F0EB;}
</style>
<circle class="st0" cx="512" cy="512" r="512"/>
<g>
	<defs>
		<circle id="SVGID_1_" cx="512" cy="512" r="512"/>
	</defs>
	<clipPath id="SVGID_00000068639753814534716850000006826139092654002845_">
		<use xlink:href="#SVGID_1_"  style="overflow:visible;"/>
	</clipPath>
	<path style="clip-path:url(#SVGID_00000068639753814534716850000006826139092654002845_);fill:#F0F0EB;" d="M776.6,572.5
		c-0.3,0.1-0.7,0.1-1-0.1c-0.3-0.2-0.5-0.4-0.6-0.8c-0.1-0.3-0.1-0.7,0.1-1c0.2-0.3,0.4-0.5,0.8-0.6
		c105.4-54.3,122.6-171.5,69.4-213.4c-56.1-44.3-111.8-4.2-124.5,6.3c-0.2,0.1-0.5,0.2-0.7,0.2s-0.5-0.1-0.7-0.2s-0.4-0.3-0.5-0.6
		c-0.1-0.2-0.1-0.5-0.1-0.7c26-161-144.2-283-318.3-224.6c-204.2,69.5-126.3,322.1-112.6,362.4c0.1,0.3,0.1,0.6,0,0.9
		c-0.1,0.3-0.3,0.5-0.6,0.7c-0.3,0.2-0.6,0.2-0.9,0.2c-0.3,0-0.6-0.2-0.8-0.4C223.4,443.5,74.8,514.8,137,712.8
		C178.5,845.8,333.6,860,432,860h15.2c0.2,0,0.4,0,0.6,0.1c0.2,0.1,0.3,0.2,0.5,0.4c0.1,0.2,0.2,0.3,0.3,0.5s0,0.4,0,0.6
		c-20.7,80.7-21.8,252.8-21.8,269.6c0,0.3,0.1,0.7,0.4,0.9c0.2,0.2,0.6,0.4,0.9,0.4h188.3c0.2,0,0.4,0,0.6-0.1
		c0.2-0.1,0.4-0.2,0.5-0.4c0.1-0.2,0.2-0.4,0.2-0.6c0-0.2,0-0.4,0-0.6c-6-19.9-63-207.9-61.3-269.5c0-0.2,0-0.4,0.1-0.5
		c0.1-0.2,0.2-0.3,0.3-0.4c0.1-0.1,0.3-0.2,0.5-0.3c0.2-0.1,0.3-0.1,0.5-0.1h45.7c62.2,0,201.4-11.3,263.1-100.9
		C960.7,623.4,844.7,562.3,776.6,572.5z"/>
</g>
<path class="st0" d="M648.3,288.2H374.8v447.1h273.5V592.7H478.5v-53.8h110.2v-54.4H478.5v-53.8h169.8L648.3,288.2L648.3,288.2z"/>
</svg>
