<svg id="Layer_1" data-name="Layer 1" xmlns="http://www.w3.org/2000/svg" viewBox="0 0 340 403.16"><defs><style>.cls-1{fill:#fff;}.cls-2{fill:#ffd00a;}.cls-3{fill:#20b9af;}.cls-4{fill:#ee5096;}.cls-5{fill:#12a5df;}.cls-6{fill:#90c640;}.cls-7{fill:#05799f;}</style></defs><title>logo-elastic-vertical-reverse</title><path class="cls-1" d="M307.46,143.47a54.11,54.11,0,0,0-35.79-51,76.26,76.26,0,0,0,1.44-14.77A77.64,77.64,0,0,0,132.5,32.22a41.24,41.24,0,0,0-63.89,47,54.81,54.81,0,0,0-36.07,51.22,54.17,54.17,0,0,0,35.95,51.18,79.33,79.33,0,0,0-1.42,14.76A77.43,77.43,0,0,0,207.46,241.5a41.17,41.17,0,0,0,63.93-46.8,54.82,54.82,0,0,0,36.07-51.23"/><path class="cls-2" d="M140.63,117.94l60.15,27.43,60.7-53.19A67.85,67.85,0,0,0,139,40.49l-10.1,52.38Z"/><path class="cls-3" d="M78.36,181.64A69,69,0,0,0,77,195.19a68,68,0,0,0,124.26,38.24l10-52.2-13.37-25.55-60.39-27.53Z"/><path class="cls-4" d="M78,77.54l41.22,9.73,9-46.87A32.57,32.57,0,0,0,78,77.54"/><path class="cls-5" d="M74.4,87.36a45.47,45.47,0,0,0-2,85.66l57.84-52.28L119.64,98.05Z"/><path class="cls-6" d="M211.87,233.43A32.51,32.51,0,0,0,262,196.36l-41.19-9.64Z"/><path class="cls-7" d="M220.25,175.92l45.34,10.61a45.89,45.89,0,0,0,31.24-43.19,45.38,45.38,0,0,0-29.32-42.4l-59.31,52Z"/><path class="cls-1" d="M48.26,393.43l3.86-.4.27,7.86a191.64,191.64,0,0,1-26,2.13Q12,403,6,394.69T0,368.76q0-35.06,27.86-35.06,13.47,0,20.13,7.54t6.67,23.66l-.54,7.6h-44q0,11.06,4,16.39t13.93,5.34Q38,394.23,48.26,393.43Zm-3.6-28.93q0-12.27-3.93-17.33t-12.8-5.07q-8.87,0-13.33,5.33T10,364.5Z"/><path class="cls-1" d="M68.6,402.51V314.77h10v87.74Z"/><path class="cls-1" d="M141.56,355.17v33.62c0,3.33,8.3,3.2,8.3,3.2l-.51,8.83c-7,0-12.84.58-16.33-2.79a58.21,58.21,0,0,1-24,5q-9.19,0-14-5.19t-4.8-14.94q0-9.72,4.93-14.33t15.46-5.66l20.93-2v-5.73q0-6.81-2.93-9.73a10.8,10.8,0,0,0-8-2.94l-26.27,0V333.7H120q11.34,0,16.47,5.2T141.56,355.17ZM100.5,382.36q0,12.27,10.13,12.27a53.82,53.82,0,0,0,17.87-3.07l3.06-1.07v-22l-19.73,1.86q-6,.54-8.66,3.47T100.5,382.36Z"/><path class="cls-1" d="M180.58,342.64q-14.54,0-14.53,10.13,0,4.67,3.33,6.6t15.2,4q11.86,2.06,16.8,5.79t4.93,14q0,10.27-6.6,15.07T180.45,403c-5.51,0-23.9-2-23.9-2l.53-8.66c10.57,1,18.21,1.77,23.37,1.77s9.09-.82,11.8-2.46,4.06-4.4,4.06-8.27-1.15-6.49-3.46-7.86-7.38-2.69-15.2-3.94S164.27,368.5,161,366.1s-4.94-6.84-4.94-13.33,2.29-11.29,6.87-14.4,10.28-4.67,17.13-4.67c5.42,0,24.23,1.38,24.23,1.38v8.72C194.38,343.35,186.27,342.64,180.58,342.64Z"/><path class="cls-1" d="M254.53,343.7H233.34v31.86q0,11.47,1.66,15.07c1.11,2.4,3.76,3.6,7.93,3.6l11.87-.8.67,8.26a91.07,91.07,0,0,1-13.6,1.47q-10.4,0-14.4-5.07t-4-19.33V343.7H214V335h9.46v-20.4h9.87V335h21.19Z"/><path class="cls-1" d="M268.43,326.52v-11.6h10v11.6Zm0,76V335h10v67.47Z"/><path class="cls-1" d="M321.74,333.7a116.41,116.41,0,0,1,14.93,1.6l3.2.4-.4,8.14a156.5,156.5,0,0,0-15.73-1.2q-11.34,0-15.4,5.39t-4.07,20q0,14.6,3.8,20.33t15.8,5.73l15.73-1.2.4,8.27A137.57,137.57,0,0,1,321.47,403q-15.6,0-21.53-8T294,368q0-19,6.4-26.66T321.74,333.7Z"/></svg>