<?xml version="1.0" encoding="utf-8"?>
<!-- Generator: Adobe Illustrator 22.1.0, SVG Export Plug-In . SVG Version: 6.00 Build 0)  -->
<svg version="1.1" id="图层_1" xmlns="http://www.w3.org/2000/svg" xmlns:xlink="http://www.w3.org/1999/xlink" x="0px" y="0px"
	 viewBox="0 0 593.3 134.2" style="enable-background:new 0 0 593.3 134.2;" xml:space="preserve">
<style type="text/css">
	.st0{fill:#FF3034;}
	.st1{fill:#666565;}
	.st2{enable-background:new    ;}
	.st3{fill:#FFFEFE;}
	.st4{fill:none;stroke:#E71D16;stroke-width:3;stroke-miterlimit:10;}
</style>
<g id="XMLID_230_">
	<path id="XMLID_28_" class="st0" d="M61.7,90.5c0,3.6-2.9,6.5-6.5,6.5s-6.5-2.9-6.5-6.5s2.9-6.5,6.5-6.5S61.7,86.9,61.7,90.5"/>
	<path id="XMLID_27_" class="st0" d="M118.9,83.7C114.7,54,91.1,30.4,61.4,26.2c-3.5,1.8-6.7,4.2-9.5,6.9v6.3
		c29.7,0,53.8,24.1,53.8,53.8h6.3C114.7,90.4,117,87.2,118.9,83.7"/>
	<path id="XMLID_26_" class="st0" d="M123.8,63.8c0-23.5-19.1-42.6-42.6-42.6c-1.5,0-2.9,0.1-4.4,0.2l-1,2.8
		c20.9,7.3,37.5,23.9,44.9,44.8l2.8-1C123.7,66.7,123.8,65.3,123.8,63.8"/>
	<path id="XMLID_25_" class="st0" d="M81.1,96.1c1-10.6-3.7-20.4-11.6-26.4c-4.2-3.2-9.2-5.2-14.8-5.8c-1.5-0.2-2.5-1.4-2.4-2.9
		c0.1-1.3,1.2-2.3,2.6-2.4c0.1,0,0.2,0,0.3,0c6,0.6,11.6,2.7,16.2,6c10,6.9,16.1,19,14.8,32c-0.2,2.1-0.6,4-1.2,6l7.7,2.2
		c2.3-0.7,4.5-1.5,6.7-2.5c0.5-2.9,0.9-6,0.9-9.1c0-24.4-18-44.6-41.4-48c-2.8-0.4-5.7-0.4-7.7,0.1c-7.2,1.8-12.5,8.3-12.5,16.1
		c0,7.4,4.8,13.7,11.5,15.8c1.3,0.4,3.2,0.6,4.2,0.7l0,0c7.3,1.3,12.9,7.7,12.9,15.3c0,3.1-0.9,6-2.5,8.4l5.3,3.4
		c2.6,0.7,5.2,1.1,7.9,1.3C79.7,103.2,80.8,99.8,81.1,96.1"/>
	<path id="XMLID_24_" class="st0" d="M81.7,114.4c-13.5,0-26.2-5.3-35.8-14.8C36.3,90,31.1,77.3,31.1,63.8S36.4,37.6,45.9,28
		c0.7-0.7,2-0.7,2.7,0s0.7,2,0,2.7c-8.8,8.8-13.7,20.6-13.7,33.1S39.8,88,48.6,96.9c8.8,8.8,20.6,13.7,33.1,13.7s24.2-4.9,33.1-13.7
		c0.7-0.7,2-0.7,2.7,0s0.7,2,0,2.7C107.9,109.1,95.2,114.4,81.7,114.4"/>
</g>
<g>
	<path id="XMLID_226_" class="st1" d="M250.7,102.8V32.1c5.2,0,12.6,0,22.1,0c3,0,6-0.1,8.3,0c3.9,0.1,6.7,0.8,9.8,3.8
		c2.6,2.5,3.3,5.1,3.5,8.5c0,2.7,0,5.9,0,9.8c0,1.9,0,3.7,0,5.5c0,1.9,0.1,2.1-0.1,3.6c-0.4,3.9-2,6.1-3.7,8
		c-1.5,1.7-3.3,2.8-6.1,3.3c-2.5,0.4-6,0.3-9.5,0.3c-3.7,0-11,0-14.6,0l-0.1,27.9C260.3,102.8,250.7,102.8,250.7,102.8z M260.2,66.5
		h12.4c1.9,0,4.1,0.1,6.3-0.1c1.7-0.2,3.3-0.4,4.3-1.3c2.3-2.2,1.9-5.3,1.9-10c0-2,0-3.7-0.1-5.5c-0.1-1.5,0.3-5.4-1.5-7.3
		c-1.9-2-4.2-1.7-5.8-1.7c-1.7,0-3.3,0-5,0h-12.4L260.2,66.5z M272.8,32.1c3,0,5.8-0.1,8.3,0c3.9,0.1,6.7,0.8,9.8,3.8"/>
	<path id="XMLID_223_" class="st1" d="M349.7,102.9h-10.3c0,0-3-15.5-4.4-20.8c-1.3-4.8-3.2-6.8-4.5-7.5c-1.7-0.9-3.4-1.1-5.1-1.1
		l-12.6-0.1l0.1,29.4h-9.1V32.4c5.3,0,12.5,0,22,0c2.1,0,4.2,0,6.2,0c1.8,0,3.8,0,5.2,0.3c2.9,0.7,4.1,1.6,5.6,3.1
		c3.1,3.2,3.2,8.9,3.2,16.7c0,5.2,0.2,11.4-1.5,14.3c-1.4,2.5-3.4,3.4-7.1,4.2H337c4.4,1.2,6.7,4.1,7.8,10L349.7,102.9z M312.9,65.2
		h12.5c2.4,0,6.3,0.2,8.5-0.3c0.9-0.2,1.4-0.6,1.8-1.1c0.4-0.5,0.5-1.1,0.7-1.8c0.3-2.1,0.2-5.5,0.2-8.5c0-2.2,0-4.7-0.1-7.1
		c0-1.9-0.4-3.5-1.3-4.4c-1.2-1.2-2.6-1.2-4.8-1.3c-1.7-0.1-3.8,0-5.4,0l-12.3,0.1L312.9,65.2z"/>
	<g>
		<path class="st1" d="M188.6,94.2l-0.1,8.7c-5.7,0-14.6,0-27.3,0c-3.9,0-7.1-1.1-9.3-3.4c-2.3-2.3-3.5-5.4-3.5-9.2V44.8
			c0.1-3.9,1.2-7,3.5-9.2c2.3-2.3,5.4-3.4,9.3-3.4c12.6,0,21.7,0.1,27.3,0.1V41h-25.7c-1.9,0-3.2,0.5-3.9,1.5c-0.8,1-1.2,2.7-1.2,5
			v14.1h26.9v8.3h-26.9v17.9c0,2.4,0.4,4.1,1.2,5c0.8,1,2.1,1.5,3.9,1.5L188.6,94.2z"/>
		<path class="st1" d="M396.5,94.1l-0.1,8.7c-5.7,0-14.6,0-27.3,0c-3.9,0-7.1-1.1-9.3-3.4c-2.3-2.3-3.5-5.4-3.5-9.2V44.6
			c0.1-3.9,1.2-7,3.5-9.2c2.3-2.3,5.4-3.4,9.3-3.4c12.6,0,21.7,0.1,27.3,0.1v8.7h-25.7c-1.9,0-3.2,0.5-3.9,1.5c-0.8,1-1.2,2.7-1.2,5
			v14.1h26.9v8.3h-26.9v17.9c0,2.4,0.4,4.1,1.2,5c0.8,1,2.1,1.5,3.9,1.5L396.5,94.1z"/>
		
			<image style="display:none;overflow:visible;enable-background:new    ;" width="183" height="304" xlink:href="F2A76EEE96E44F61.png"  transform="matrix(0.2353 0 0 0.2353 253.0778 31.2379)">
		</image>
		
			<image style="display:none;overflow:visible;enable-background:new    ;" width="196" height="304" xlink:href="F2A76EEE96E44F63.png"  transform="matrix(0.2339 0 0 0.2339 307.7243 31.4485)">
		</image>
		<path class="st1" d="M519.1,102.7h-9.3V32.3h9.3V102.7z"/>
		<path class="st1" d="M568,40.8h-24.1c-2.2,0-3.7,0.5-4.6,1.5s-1.3,2.7-1.3,5v15.2h26.1v8.3H538v31.8h-9.3V45.3
			c0-4.1,1.2-7.4,3.5-9.7s5.5-3.4,9.4-3.4c12.3,0,20.8,0,26.4,0.1V40.8z"/>
	</g>
	<path id="XMLID_221_" class="st1" d="M225.4,71.5c-3.7-0.1-13.6,0.3-16.6-0.3c-4.6-0.8-7.3-2.8-9.2-6.1c-1.9-3.3-1.4-9.1-1.4-14.4
		c0-5.7-0.1-9.7,1.5-12.8c0.6-1.2,1.2-2.1,2.3-3c3.5-3.1,9.5-2.6,17.4-2.6c7.5,0,12.9-0.1,18.5,0v8.5c-4.9,0-13.2-0.1-20.4-0.1
		c-2.8,0-5.5-0.1-7.4,0.3c-0.4,0.1-0.6,0.2-0.9,0.4c-0.4,0.2-0.7,0.6-1,1c-0.7,1.3-0.7,3.2-0.7,5.3c0,2.3-0.2,10.5,0.5,11.6
		c1.2,2,2.7,2,4.8,2c1.3,0,5.2,0,7.8,0c3.1,0,6.7,0,8.2,0.2c2.6,0.3,4.7,1,6.2,1.8c2.1,1.1,3.2,2.4,4.3,4.2c1.2,2.1,1.4,4.2,1.4,6.9
		c0,2,0,4.7,0,6.9c0,2.5,0.1,7.1-0.3,9.6c-0.6,4.4-2.1,7.2-4.4,9.1c-1.7,1.4-3.8,2.3-6.7,2.6c-1.5,0.2-3.3,0.2-5.3,0.2
		c-1.5,0-3.2,0-5,0c-6.6,0-14.2,0-20.9,0V94c12.2,0,20,0,20.8,0c1.6,0,6.1,0,7.1,0c2.1,0,3.1-0.1,4-1c0.9-0.8,1-2.2,1-4.2
		c0-0.4,0-2.7,0-4.9c0-1.9,0-3.7,0-4.1c0-2.6,0.2-5.3-1.1-6.7C228.8,71.7,227.9,71.5,225.4,71.5z"/>
	<path id="XMLID_214_" class="st1" d="M433.3,71.5c-3.7-0.1-13.6,0.3-16.6-0.3c-4.6-0.8-7.3-2.8-9.2-6.1c-1.9-3.3-1.4-9.1-1.4-14.4
		c0-5.7-0.1-9.7,1.5-12.8c0.6-1.2,1.2-2.1,2.3-3c3.5-3.1,9.5-2.6,17.4-2.6c7.5,0,12.9-0.1,18.5,0v8.5c-4.9,0-13.2-0.1-20.4-0.1
		c-2.8,0-5.5-0.1-7.4,0.3c-0.4,0.1-0.6,0.2-0.9,0.4c-0.4,0.2-0.7,0.6-1,1c-0.7,1.3-0.7,3.2-0.7,5.3c0,2.3-0.2,10.5,0.5,11.6
		c1.2,2,2.7,2,4.8,2c1.3,0,5.2,0,7.8,0c3.1,0,6.7,0,8.2,0.2c2.6,0.3,4.7,1,6.2,1.8c2.1,1.1,3.1,2.2,4.2,4.2c1.2,2.1,1.5,4.2,1.5,6.9
		c0,2,0,4.7,0,6.9c0,2.5,0.1,7.1-0.3,9.6c-0.6,4.4-2.1,7.2-4.4,9.1c-1.7,1.4-3.8,2.3-6.7,2.6c-1.5,0.2-3.3,0.2-5.3,0.2
		c-1.5,0-3.2,0-5,0c-6.6,0-14.2,0-20.9,0V94c12.2,0,20,0,20.8,0c1.6,0,6.1,0,7.1,0c2.1,0,3.1-0.1,4-1c0.9-0.8,1-2.2,1-4.2
		c0-0.4,0-2.7,0-4.9c0-1.9,0-3.7,0-4.1c0-2.6,0.2-5.3-1.1-6.7C436.7,71.7,435.8,71.5,433.3,71.5z"/>
	<path id="XMLID_212_" class="st1" d="M484.6,71.5c-3.7-0.1-13.6,0.3-16.6-0.3c-4.6-0.8-7.3-2.8-9.2-6.1c-1.9-3.3-1.4-9.1-1.4-14.4
		c0-5.7-0.1-9.7,1.5-12.8c0.6-1.2,1.2-2.1,2.3-3c3.5-3.1,9.5-2.6,17.4-2.6c7.5,0,12.9-0.1,18.5,0v8.5c-4.9,0-13.2-0.1-20.4-0.1
		c-2.8,0-5.5-0.1-7.4,0.3c-0.4,0.1-0.6,0.2-0.9,0.4c-0.4,0.2-0.7,0.6-1,1c-0.7,1.3-0.7,3.2-0.7,5.3c0,2.3-0.2,10.5,0.5,11.6
		c1.2,2,2.7,2,4.8,2c1.3,0,5.2,0,7.8,0c3.1,0,6.7,0,8.2,0.2c2.6,0.3,4.7,1,6.2,1.8c2.1,1.1,3.1,2.2,4.2,4.2c1.2,2.1,1.5,4.2,1.5,6.9
		c0,2,0,4.7,0,6.9c0,2.5,0.1,7.1-0.3,9.6c-0.6,4.4-2.1,7.2-4.4,9.1c-1.7,1.4-3.8,2.3-6.7,2.6c-1.5,0.2-3.3,0.2-5.3,0.2
		c-1.5,0-3.2,0-5,0c-6.6,0-14.2,0-20.9,0V94c12.2,0,20,0,20.8,0c1.6,0,6.1,0,7.1,0c2.1,0,3.1-0.1,4-1c0.9-0.8,1-2.2,1-4.2
		c0-0.4,0-2.7,0-4.9c0-1.9,0-3.7,0-4.1c0-2.6,0.2-5.3-1.1-6.7C488,71.7,487.1,71.5,484.6,71.5z"/>
</g>
</svg>
