<?xml version="1.0" encoding="UTF-8" standalone="no"?>
<!-- Generator: Adobe Illustrator 22.1.0, SVG Export Plug-In . SVG Version: 6.00 Build 0)  -->

<svg
   version="1.1"
   id="图层_1"
   x="0px"
   y="0px"
   viewBox="0 0 92.699999 93.199999"
   xml:space="preserve"
   width="92.699997"
   height="93.199997"
   xmlns="http://www.w3.org/2000/svg"
   xmlns:svg="http://www.w3.org/2000/svg"><defs
   id="defs5" />
<style
   type="text/css"
   id="style1">
	.st0{fill:#FF3034;}
	.st1{fill:#666565;}
	.st2{enable-background:new    ;}
	.st3{fill:#FFFEFE;}
	.st4{fill:none;stroke:#E71D16;stroke-width:3;stroke-miterlimit:10;}
</style>
<g
   id="XMLID_230_"
   transform="translate(-31.1,-21.2)">
	<path
   id="XMLID_28_"
   class="st0"
   d="m 61.7,90.5 c 0,3.6 -2.9,6.5 -6.5,6.5 -3.6,0 -6.5,-2.9 -6.5,-6.5 0,-3.6 2.9,-6.5 6.5,-6.5 3.6,0 6.5,2.9 6.5,6.5" />
	<path
   id="XMLID_27_"
   class="st0"
   d="M 118.9,83.7 C 114.7,54 91.1,30.4 61.4,26.2 57.9,28 54.7,30.4 51.9,33.1 v 6.3 c 29.7,0 53.8,24.1 53.8,53.8 h 6.3 c 2.7,-2.8 5,-6 6.9,-9.5" />
	<path
   id="XMLID_26_"
   class="st0"
   d="m 123.8,63.8 c 0,-23.5 -19.1,-42.6 -42.6,-42.6 -1.5,0 -2.9,0.1 -4.4,0.2 l -1,2.8 c 20.9,7.3 37.5,23.9 44.9,44.8 l 2.8,-1 c 0.2,-1.3 0.3,-2.7 0.3,-4.2" />
	<path
   id="XMLID_25_"
   class="st0"
   d="M 81.1,96.1 C 82.1,85.5 77.4,75.7 69.5,69.7 65.3,66.5 60.3,64.5 54.7,63.9 53.2,63.7 52.2,62.5 52.3,61 c 0.1,-1.3 1.2,-2.3 2.6,-2.4 0.1,0 0.2,0 0.3,0 6,0.6 11.6,2.7 16.2,6 10,6.9 16.1,19 14.8,32 -0.2,2.1 -0.6,4 -1.2,6 l 7.7,2.2 c 2.3,-0.7 4.5,-1.5 6.7,-2.5 0.5,-2.9 0.9,-6 0.9,-9.1 0,-24.4 -18,-44.6 -41.4,-48 -2.8,-0.4 -5.7,-0.4 -7.7,0.1 -7.2,1.8 -12.5,8.3 -12.5,16.1 0,7.4 4.8,13.7 11.5,15.8 1.3,0.4 3.2,0.6 4.2,0.7 v 0 c 7.3,1.3 12.9,7.7 12.9,15.3 0,3.1 -0.9,6 -2.5,8.4 l 5.3,3.4 c 2.6,0.7 5.2,1.1 7.9,1.3 1.7,-3.1 2.8,-6.5 3.1,-10.2" />
	<path
   id="XMLID_24_"
   class="st0"
   d="M 81.7,114.4 C 68.2,114.4 55.5,109.1 45.9,99.6 36.3,90 31.1,77.3 31.1,63.8 31.1,50.3 36.4,37.6 45.9,28 c 0.7,-0.7 2,-0.7 2.7,0 0.7,0.7 0.7,2 0,2.7 -8.8,8.8 -13.7,20.6 -13.7,33.1 0,12.5 4.9,24.2 13.7,33.1 8.8,8.8 20.6,13.7 33.1,13.7 12.5,0 24.2,-4.9 33.1,-13.7 0.7,-0.7 2,-0.7 2.7,0 0.7,0.7 0.7,2 0,2.7 -9.6,9.5 -22.3,14.8 -35.8,14.8" />
</g>

</svg>
