<?xml version="1.0" encoding="UTF-8"?>
<svg width="35.301" height="42.548" fill="none" version="1.1" viewBox="0 0 35.301 42.548" xmlns="http://www.w3.org/2000/svg">
 <path d="m11.988 1.8368c1.3186-1.3769 3.2168-2.0395 5.1058-1.7823 1.2752 0.17362 2.4599 0.75578 3.3767 1.6589l0.9408 0.92656h1.2536c6.9784 2e-5 12.636 5.6573 12.636 12.636v13.606h-0.0069c-0.0014 5.2948-1.2937 8.7628-4.0327 11.012-3.5204 3.3004-10.342 3.6082-14.302 0.4399-1.5578-1.2462-2.5902-2.6403-3.6903-5.0605l6.2372-2.3794c0.2138 0.4669 0.617 1.241 1.2653 1.9392 1.3278 1.4299 4.1151 1.4371 5.2091 0.4402 2.6402-2.406 0.3819-6.3904-4.2654-6.3904l-9.4252-0.0011c-6.1227 0-11.202-4.4659-12.159-10.318 8.2e-4 0.0012 0.00169 0.0025 0.00251 0.0037-0.52804-3.5203 0.55018-4.6335 2.6599-4.6336h5.7142c4.6792 0 5.9497-1.9609 5.9497-5.4856v-1.8074h-0.847s-0.1127 0.92948-0.4554 1.8074c-0.7262 1.8603-1.4259 3.2062-4.1581 3.2062-1.2258 0-2.4517-0.0029-3.6775-0.0036-0.91115-6e-4 -1.8223 0-2.7334 0.0038l1.7899-1.869zm14.108 16.276c-1.6636 1e-4 -3.0122 1.099-3.0122 2.4546h6.0246c0-1.3556-1.3487-2.4546-3.0124-2.4546z" clip-rule="evenodd" fill="#00a82d" fill-rule="evenodd"/>
</svg>
