<svg height="40.089443" viewBox="0 0 33.318527 40.089443" width="33.318527" xmlns="http://www.w3.org/2000/svg"><path d="m3.2 7.7894427h3.8c.2 0 .4-.2.4-.4 0 0 0-3.2 0-4.1 0-.7.2-1.4.4-1.9l.1-.3-7.4 7.3c.2-.1.4-.2.4-.2.6-.3 1.4-.4 2.3-.4zm29.2-.7c-.3-1.6-1.2-2.3-2.1-2.6s-1.8-.7-4.2-1c-1.9-.2-3.9-.3-5.3-.3-.4-1.1-1-2.29999998-3.3-2.89999998-1.6-.4-4.5-.3-5.4-.2-1.4.2-1.9.8-2.3 1.19999998-.4.4-.7 1.5-.7 2.2v2.2 1.7c0 1.2-.8 2.1-2.2 2.1h-3.4c-.8 0-1.4.1-1.9.3-.4.3000003-.8.7000003-1 1.0000003-.5.7-.6 1.5-.6 2.4 0 0 0 .7.2 2 .1 1 1.2 7.6 2.2 9.8.4.9.7 1.2 1.5 1.6 1.8.8 5.9 1.6 7.9 1.9 1.9.2 3.2.8 3.9-.7 0 0 .1-.4.3-.9.6-1.9.7-3.6.7-4.8 0-.1.2-.1.2 0 0 .9-.2 3.9 2.1 4.7.9.3 2.8.6 4.7.8 1.7.2 3 .9 3 5.3 0 2.7-.6 3.1-3.5 3.1-2.4 0-3.3.1-3.3-1.9 0-1.5 1.5-1.4 2.7-1.4.5 0 .1-.4.1-1.3 0-1 .6-1.5 0-1.5-3.9-.1-6.2 0-6.2 4.9 0 4.5 1.7 5.3 7.3 5.3 4.4 0 5.9-.1 7.7-5.7.4-1.1 1.2-4.5 1.7-10.1.4-3.7-.3-14.5000003-.8-17.2000003zm-7.6 11.9000003c-.5 0-.8 0-1.3.1-.1 0-.1 0-.2 0 0 0-.1 0-.1-.1s0-.1 0-.1c.2-1 .7-2.2 2.2-2.2 1.6.1 2 1.5 2 2.6v.1c0 .1-.1.1-.1.1-.1 0-.1 0-.1-.1-.7-.2-1.5-.3-2.4-.4z" fill="#848484"/></svg>