<svg xmlns="http://www.w3.org/2000/svg" xmlns:xlink="http://www.w3.org/1999/xlink" viewBox="0 0 48 48">
  <defs>
    <radialGradient xlink:href="#a" id="c" cx="-98.2338" cy="3.4696" r="22.6712" fx="-98.2338" fy="3.4696" gradientTransform="matrix(0 1.9748 -2.1172 0 8.6772 1199.588)" gradientUnits="userSpaceOnUse"/>
    <linearGradient id="a">
      <stop offset="0" stop-color="#fff" stop-opacity=".098"/>
      <stop offset="1" stop-color="#fff" stop-opacity="0"/>
    </linearGradient>
    <filter id="b" width="1.0477" height="1.0483" x="-.0238" y="-.0242" color-interpolation-filters="sRGB">
      <feGaussianBlur stdDeviation=".45"/>
    </filter>
  </defs>
  <path fill="#263238" fill-opacity=".4" d="M2.6135 1006.3488a1.2501 1.2501 0 0 0-1.0118 2.0293l3.6036 4.6641c-.127.3331-.2032.6915-.2032 1.0703v7c0 1.662 1.338 3 3 3h32c1.662 0 3-1.338 3-3v-7c0-.3803-.077-.74-.205-1.0742l3.6015-4.6602a1.2501 1.2501 0 0 0-1.0488-2.0273 1.2501 1.2501 0 0 0-.9297.498l-3.4316 4.4414c-.3103-.1079-.6384-.1777-.9864-.1777h-32c-.3485 0-.6775.069-.9882.1777l-3.4336-4.4414a1.2501 1.2501 0 0 0-.9668-.5zm5.3886 18.7637c-.2077 0-.4098.021-.6054.061-1.3695.2761-2.3946 1.4698-2.3946 2.9101v20.0287c0 1.662 1.338 3 3 3h32c1.662 0 3-1.338 3-3v-20.029c0-1.4403-1.025-2.634-2.3945-2.9101a3.0919 3.0919 0 0 0-.6055-.061h-32z" filter="url(#b)" transform="translate(0 -1004.3622)"/>
  <path fill="#8ab000" stroke="#769616" stroke-linecap="round" stroke-width="2.5" d="M45.411 2.5 41.161 8"/>
  <path fill="#fff" fill-opacity=".298" d="M45.3887 1.2472c.4534.012.7617.189.9807.4486-2.027 2.4089-2.3684 2.7916-5.1355 6.2214-1.0195 1.319-2.0816.6373-1.062-.6817l4.25-5.5c.229-.3056.585-.478.9668-.4883z"/>
  <path fill="#263238" fill-opacity=".2" d="M46.3779 1.7083c.1239.1479.5612.8046.0225 1.5562l-4.25 5.5c-1.0195 1.319-1.1499-.6123-1.1499-.6123s3.7345-4.51 5.3774-6.4439z"/>
  <path fill="#8ab000" d="M45.6621 1.4821c.4382 0 .9599.1416.8242.7986-.1035.5016-4.6608 6.0744-4.6608 6.0744-1.0195 1.319-2.4935.6763-1.474-.6425l4.2344-5.4727c.2603-.29.6086-.7436 1.0762-.7578z"/>
  <path fill="#8ab000" stroke="#769616" stroke-linecap="round" stroke-width="2.5" d="M2.589 2.5 6.839 8"/>
  <path fill="#fff" fill-opacity=".298" d="M2.6113 1.2472c-.4534.012-.7617.189-.9807.4486C3.6576 4.1047 3.999 4.4874 6.766 7.9172c1.0195 1.319 2.0816.6373 1.062-.6817l-4.25-5.5c-.229-.3056-.585-.478-.9668-.4883z"/>
  <path fill="#263238" fill-opacity=".2" d="M1.6221 1.7083c-.1239.1479-.5612.8046-.0225 1.5562l4.25 5.5c1.0195 1.319 1.1499-.6123 1.1499-.6123S3.265 3.6422 1.622 1.7083z"/>
  <path fill="#8ab000" d="M2.3379 1.4821c-.4382 0-.9599.1416-.8242.7986.1035.5016 4.6608 6.0744 4.6608 6.0744 1.0195 1.319 2.4935.6763 1.474-.6425L3.414 2.2399c-.2603-.29-.6086-.7436-1.0762-.7578z"/>
  <g transform="translate(42 -1004.3622)">
    <rect width="38" height="13" x="-37" y="1010.3622" fill="#aeea00" rx="3" ry="3"/>
    <rect width="38" height="10" x="-37" y="1013.3622" fill="#263238" fill-opacity=".2" rx="3" ry="3"/>
    <rect width="38" height="10" x="-37" y="1010.3622" fill="#fff" fill-opacity=".298" rx="3" ry="3"/>
    <rect width="38" height="11" x="-37" y="1011.3622" fill="#aeea00" rx="3" ry="2.5385"/>
  </g>
  <g transform="translate(0 -1004.3622)">
    <rect width="38" height="26" x="5" y="1024.3622" fill="#1976d2" rx="3" ry="3"/>
    <rect width="38" height="13" x="5" y="1037.3622" fill="#263238" fill-opacity=".2" rx="3" ry="3"/>
    <rect width="38" height="13" x="5" y="1024.3622" fill="#fff" fill-opacity=".2" rx="3" ry="3"/>
    <rect width="38" height="24" x="5" y="1025.3622" fill="#1976d2" rx="3" ry="2.7692"/>
  </g>
  <g transform="translate(0 9)">
    <path fill="#0d47a1" d="M24 17.75c-2.8807 0-5.3198 1.9847-6.0332 4.6504h3.2129C21.734 21.415 22.7748 20.75 24 20.75c1.8127 0 3.25 1.4373 3.25 3.25s-1.4373 3.25-3.25 3.25c-1.3074 0-2.4113-.7527-2.9297-1.8496H17.916C18.5583 28.166 21.048 30.25 24 30.25c3.434 0 6.25-2.816 6.25-6.25s-2.816-6.25-6.25-6.25z"/>
    <circle cx="24" cy="24" r="9.55" fill="none" stroke="#0d47a1" stroke-linecap="round" stroke-width="1.9"/>
  </g>
  <g transform="translate(0 -1003.8622)">
    <ellipse cx="14.375" cy="1016.4872" fill="#263238" fill-opacity=".2" rx="3.375" ry="3.875"/>
    <circle cx="14.375" cy="1016.9872" r="3.375" fill="#fff"/>
  </g>
  <g transform="translate(19.5 -1003.8622)">
    <ellipse cx="14.375" cy="1016.4872" fill="#263238" fill-opacity=".2" rx="3.375" ry="3.875"/>
    <circle cx="14.375" cy="1016.9872" r="3.375" fill="#fff"/>
  </g>
  <path fill="url(#c)" d="M2.6135 1005.5987a1.2501 1.2501 0 0 0-1.0118 2.0293l3.6036 4.6641c-.127.3331-.2032.6915-.2032 1.0703v7c0 1.662 1.338 3 3 3h32c1.662 0 3-1.338 3-3v-7c0-.3803-.077-.74-.205-1.0742l3.6015-4.6602a1.2501 1.2501 0 0 0-1.0488-2.0273 1.2501 1.2501 0 0 0-.9297.498l-3.4316 4.4414c-.3103-.1079-.6384-.1777-.9864-.1777h-32c-.3485 0-.6775.069-.9882.1777l-3.4336-4.4414a1.2501 1.2501 0 0 0-.9668-.5zm5.3886 18.7637c-.2077 0-.4098.021-.6054.061-1.3695.2761-2.3946 1.4698-2.3946 2.9101v20.0287c0 1.662 1.338 3 3 3h32c1.662 0 3-1.338 3-3v-20.029c0-1.4403-1.025-2.634-2.3945-2.9101a3.0919 3.0919 0 0 0-.6055-.061h-32z" transform="translate(0 -1004.3622)"/>
</svg>