<svg height="94.153999mm" viewBox="0 0 94.153999 94.153999" width="94.153999mm" xmlns="http://www.w3.org/2000/svg" xmlns:xlink="http://www.w3.org/1999/xlink"><clipPath id="a"><path d="m0 500h1024v-500h-1024z"/></clipPath><g clip-path="url(#a)" transform="matrix(.35277777 0 0 -.35277777 -43.586858 136.68231)"><path d="m0 0c8.134 0 14.73 6.596 14.73 14.73v237.434c0 8.137-6.596 14.731-14.73 14.731h-237.433c-8.137 0-14.73-6.594-14.73-14.731v-237.434c0-8.134 6.593-14.73 14.73-14.73z" fill="#3c5a99" transform="translate(375.7163 120.5527)"/><path d="m0 0v103.355h34.693l5.194 40.28h-39.887v25.717c0 11.662 3.238 19.609 19.962 19.609l21.33.01v36.026c-3.69.49-16.351 1.587-31.081 1.587-30.753 0-51.806-18.771-51.806-53.244v-29.705h-34.781v-40.28h34.781v-103.355z" fill="#fff" transform="translate(307.7046 120.5527)"/></g></svg>