<svg
viewBox="0 0 512 512"
xml:space="preserve"
xmlns="http://www.w3.org/2000/svg"><g
style="display:inline"
transform="translate(6.6789703,-32.495842)" /><g
style="display:inline;opacity:1"
transform="translate(6.6789703,-32.495842)"><rect
style="fill:#000000;stroke:none;stroke-width:0.264583;stroke-linecap:round;paint-order:fill markers stroke"
width="512"
height="512"
x="-6.6789694"
y="32.495831" /><g
transform="matrix(2.263867,0,0,2.263867,42.413025,-8.163078)"
style="stroke-width:0.441729"><path
style="fill:#a730b8"
d="m 181.13086,275.13672 a 68.892408,68.892408 0 0 1 -29.46484,29.32812 l 161.75781,162.38868 38.99805,-19.76368 z m 213.36328,214.1875 -38.99805,19.76367 81.96289,82.2832 a 68.892409,68.892409 0 0 1 29.47071,-29.33203 z"
transform="matrix(0.26458333,0,0,0.26458333,-6.6789703,32.495842)" /><path
style="fill:#5496be"
d="m 581.64648,339.39062 -91.57617,46.41016 6.75196,43.18945 103.61523,-52.51367 A 68.892409,68.892409 0 0 1 581.64648,339.39062 Z M 436.9082,412.74219 220.38281,522.47656 a 68.892408,68.892408 0 0 1 18.79492,37.08985 L 443.66016,455.93359 Z"
transform="matrix(0.26458333,0,0,0.26458333,-6.6789703,32.495842)" /><path
style="fill:#ce3d1a"
d="M 367.27539,142.4375 262.79492,346.4082 293.64258,377.375 404.26562,161.41797 A 68.892408,68.892408 0 0 1 367.27539,142.4375 Z m -131.6543,257.02148 -52.92187,103.31446 a 68.892409,68.892409 0 0 1 36.98633,18.97851 l 46.78125,-91.32812 z"
transform="matrix(0.26458333,0,0,0.26458333,-6.6789703,32.495842)" /><path
style="fill:#d0188f"
d="m 150.76758,304.91797 a 68.892408,68.892408 0 0 1 -34.41602,7.19531 68.892408,68.892408 0 0 1 -6.65039,-0.69531 l 30.90235,197.66211 a 68.892409,68.892409 0 0 1 34.41601,-7.19531 68.892409,68.892409 0 0 1 6.64649,0.69531 z"
transform="matrix(0.26458333,0,0,0.26458333,-6.6789703,32.495842)" /><path
style="fill:#5b36e9"
d="m 239.3418,560.54492 a 68.892408,68.892408 0 0 1 0.7207,13.87696 68.892408,68.892408 0 0 1 -7.26758,27.17968 l 197.62891,31.71289 a 68.892409,68.892409 0 0 1 -0.72266,-13.8789 68.892409,68.892409 0 0 1 7.26953,-27.17774 z"
transform="matrix(0.26458333,0,0,0.26458333,-6.6789703,32.495842)" /><path
style="fill:#30b873"
d="m 601.13281,377.19922 -91.21875,178.08203 a 68.892408,68.892408 0 0 1 36.99414,18.98242 L 638.125,396.18359 a 68.892409,68.892409 0 0 1 -36.99219,-18.98437 z"
transform="matrix(0.26458333,0,0,0.26458333,-6.6789703,32.495842)" /><path
style="fill:#ebe305"
d="m 476.72266,125.33008 a 68.892408,68.892408 0 0 1 -29.47071,29.33203 l 141.26563,141.81055 a 68.892409,68.892409 0 0 1 29.46875,-29.33204 z"
transform="matrix(0.26458333,0,0,0.26458333,-6.6789703,32.495842)" /><path
style="fill:#f47601"
d="m 347.78711,104.63086 -178.57617,90.49805 a 68.892409,68.892409 0 0 1 18.79297,37.08593 l 178.57421,-90.50195 a 68.892408,68.892408 0 0 1 -18.79101,-37.08203 z"
transform="matrix(0.26458333,0,0,0.26458333,-6.6789703,32.495842)" /><path
style="fill:#57c115"
d="m 446.92578,154.82617 a 68.892408,68.892408 0 0 1 -34.98242,7.48242 68.892408,68.892408 0 0 1 -6.0293,-0.63281 l 15.81836,101.29102 43.16211,6.92578 z m -16,167.02735 37.40039,239.48242 a 68.892409,68.892409 0 0 1 33.91406,-6.94336 68.892409,68.892409 0 0 1 7.20704,0.79101 L 474.08984,328.77734 Z"
transform="matrix(0.26458333,0,0,0.26458333,-6.6789703,32.495842)" /><path
style="fill:#dbb210"
d="m 188.13086,232.97461 a 68.892408,68.892408 0 0 1 0.75781,14.0957 68.892408,68.892408 0 0 1 -7.16015,26.98242 l 101.36914,16.28125 19.92382,-38.9082 z m 173.73633,27.90039 -19.92578,38.91211 239.51367,38.4668 a 68.892409,68.892409 0 0 1 -0.69531,-13.71875 68.892409,68.892409 0 0 1 7.34961,-27.32422 z"
transform="matrix(0.26458333,0,0,0.26458333,-6.6789703,32.495842)" /><circle
style="fill:#ffca00"
cx="106.26596"
cy="51.535553"
r="16.570711"
transform="rotate(3.1178174)" /><circle
style="fill:#64ff00"
cx="171.42836"
cy="110.19328"
r="16.570711"
transform="rotate(3.1178174)" /><circle
style="fill:#00a3ff"
cx="135.76379"
cy="190.27704"
r="16.570711"
transform="rotate(3.1178174)" /><circle
style="fill:#9500ff"
cx="48.559471"
cy="181.1138"
r="16.570711"
transform="rotate(3.1178174)" /><circle
style="fill:#ff0000"
cx="30.328812"
cy="95.366837"
r="16.570711"
transform="rotate(3.1178174)" /></g></g></svg>