<svg xmlns="http://www.w3.org/2000/svg"
aria-label="Firebase" role="img"
viewBox="0 0 512 512">
<path
d="m0 0H512V512H0"
fill="#fff"/>
  <g id="firebase" fill-rule="evenodd"
     transform="translate(64,64) scale(0.75)">
    <path d="M182.5 478.3C202.2 486.9 223.8 491.5 246.4 492.3C277.0 493.4 306.2 486.8 332.2 474.6C301.0 462.1 272.7 444.6 248.5 422.0C232.9 447.4 210.0 466.9 182.5 478.3Z" fill="#FF9100"/>
    <path d="M248.5 422.0C193.5 371.2 160.1 297.5 162.9 216.8C163.0 214.2 163.1 211.5 163.3 208.9C153.4 206.3 143.1 204.7 132.5 204.3C117.5 203.8 102.9 205.7 88.9 209.7C74.3 235.5 65.4 264.8 64.3 296.5C61.5 378.7 110.9 449.6 182.5 478.3C210.0 466.9 232.9 447.4 248.5 422.0Z" fill="#FFC400"/>
    <path d="M248.5 422.0C261.5 401.6 269.2 377.5 270.1 351.9C272.5 283.8 226.8 225.3 163.3 208.9C163.1 211.5 163.0 214.2 162.9 216.8C160.1 297.5 193.5 371.2 248.5 422.0Z" fill="#FF9100"/>
    <path d="M262.8 17.8C226.9 46.7 198.5 84.8 181.2 128.6C171.3 153.7 165.2 180.6 163.3 208.9C226.8 225.3 272.5 283.8 270.1 351.9C269.2 377.5 261.4 401.6 248.5 422.0C272.7 444.6 301.0 462.1 332.2 474.6C394.5 445.9 438.8 383.4 441.5 309.8C443.2 261.9 424.6 219.5 398.6 183.5C371.2 145.6 262.8 17.8 262.8 17.8Z" fill="#DD2C00"/>
  </g>

</svg>
