<?xml version="1.0" encoding="UTF-8" standalone="no"?>
<svg
   width="300"
   height="300"
   viewBox="0 0 300 300"
   version="1.1"
   xml:space="preserve"
   style="clip-rule:evenodd;fill-rule:evenodd;stroke-linejoin:round;stroke-miterlimit:2"
   id="svg8"
   xmlns="http://www.w3.org/2000/svg"
   xmlns:svg="http://www.w3.org/2000/svg">
    <g
   id="Logo">
            <path
   id="Box"
   d="m 300,30 v 240 c 0,16.557 -13.443,30 -30,30 H 30 C 13.443,300 0,286.557 0,270 V 30 C 0,13.443 13.443,0 30,0 h 240 c 16.557,0 30,13.443 30,30 z"
   style="fill:url(#_Linear1)" />
            <path
   id="Shadow"
   d="M 300,239.188 V 270 c 0,16.557 -13.443,30 -30,30 H 213.533 L 111.262,197.729 c 8.125,7.368 17.707,13.707 28.945,17.933 20.672,7.788 47.014,8.525 80.222,-4.85 l 0.184,0.941 c 0.164,1.054 1.433,2.17 3.152,1.494 l 5.516,-2.149 c 1.893,-0.716 1.904,-2.169 1.627,-3.111 l 7.103,-2.773 c 0.798,-0.307 3.274,-2.221 1.146,-5.23 h -0.021 l -4.37,-6.672 c -0.655,-0.727 -1.668,-1.003 -2.558,-0.645 l -5.608,2.16 c -0.665,-0.737 -1.627,-1.013 -2.569,-0.645 -1.832,0.716 -3.674,1.443 -5.505,2.159 -0.594,0.225 -0.758,0.665 -0.645,1.239 l 0.358,1.749 c -10.336,1.116 -27.805,0.563 -43.452,-11.727 -6.918,-5.424 -13.406,-13.099 -18.82,-23.835 l -50.354,25.662 -7.947,-6.453 c 18.154,-9.251 36.319,-18.502 54.474,-27.754 -1.177,-3.049 -2.323,-6.355 -6.243,-21.143 l -58.849,26.336 -7.097,-7.096 64.186,-28.726 c -0.921,-8.328 -3.437,-32.242 -3.336,-43.002 v -0.01 c -0.016,-1.137 -0.111,-1.697 -0.51,-2.103 z M 66.863,127.926 c 0.763,0.699 2.048,0.814 3.356,0.238 l 0.45,-0.194 c 0.387,1.622 0.824,3.325 1.309,5.071 z"
   style="fill:#3b808b" />
            <g
   id="Icon">
                <path
   d="m 140.801,81.591 c -0.021,-1.494 -0.174,-1.996 -0.972,-2.456 -0.758,-0.502 -1.904,-0.512 -2.999,-0.031 l -73.683,31.551 c -1.095,0.481 -2.128,1.443 -2.681,2.486 -0.552,1.044 -0.614,2.149 -0.184,2.937 l 6.151,11.298 0.081,0.133 c 0.666,1.055 2.17,1.331 3.705,0.655 l 0.45,-0.194 c 1.924,8.064 5.076,18.155 9.282,25.349 l 64.186,-28.726 c -0.921,-8.33 -3.439,-32.257 -3.336,-43.012 z"
   style="fill:#ffffff;fill-rule:nonzero"
   id="path5" />
                <path
   d="m 145.897,134.079 -61.811,27.662 c 3.633,6.887 8.115,14.194 13.58,21.235 18.154,-9.251 36.319,-18.502 54.474,-27.754 -1.177,-3.049 -2.323,-6.355 -6.243,-21.143 z"
   style="fill:#ffffff;fill-rule:nonzero"
   id="path6" />
                <path
   d="m 239.136,199.984 -4.37,-6.672 c -0.655,-0.727 -1.668,-1.003 -2.558,-0.645 l -5.608,2.16 c -0.665,-0.737 -1.627,-1.013 -2.569,-0.645 -1.832,0.716 -3.674,1.443 -5.505,2.159 -0.594,0.225 -0.758,0.665 -0.645,1.239 l 0.358,1.749 c -10.336,1.116 -27.805,0.563 -43.452,-11.727 -6.918,-5.424 -13.406,-13.099 -18.82,-23.835 l -52.11,26.557 c 9.528,10.469 21.491,19.751 36.35,25.338 20.672,7.788 47.014,8.525 80.222,-4.85 l 0.184,0.941 c 0.164,1.054 1.433,2.17 3.152,1.494 l 5.516,-2.149 c 1.893,-0.716 1.904,-2.169 1.627,-3.111 l 7.103,-2.773 c 0.798,-0.307 3.274,-2.221 1.146,-5.23 z"
   style="fill:#ffffff;fill-rule:nonzero"
   id="path7" />
            </g>
        </g>
    <defs
   id="defs8">
        <linearGradient
   id="_Linear1"
   x1="0"
   y1="0"
   x2="1"
   y2="0"
   gradientUnits="userSpaceOnUse"
   gradientTransform="matrix(0,300,-300,0,160.554,0)"><stop
     offset="0"
     style="stop-color:#bdddeb;stop-opacity:1"
     id="stop7" /><stop
     offset="1"
     style="stop-color:#53a9d1;stop-opacity:1"
     id="stop8" /></linearGradient>
    
        
        
        
        
        
        
    </defs>
</svg>
