<?xml version="1.0" encoding="UTF-8" standalone="no"?>
<!-- Generator: Adobe Illustrator 22.0.1, SVG Export Plug-In . SVG Version: 6.00 Build 0)  -->

<svg
   version="1.1"
   id="acee6827-fb4f-403b-b377-5b47bf217d61"
   x="0px"
   y="0px"
   viewBox="0 0 244.7 244.8"
   xml:space="preserve"
   width="244.7"
   height="244.8"
   xmlns="http://www.w3.org/2000/svg"
   xmlns:svg="http://www.w3.org/2000/svg"
   xmlns:rdf="http://www.w3.org/1999/02/22-rdf-syntax-ns#"
   xmlns:cc="http://creativecommons.org/ns#"
   xmlns:dc="http://purl.org/dc/elements/1.1/"><defs
   id="defs8" />
<title
   id="title1">flattr-black-full-web</title>
<path
   d="m 19.5,122.4 c 0,-56.8 46.1,-102.9 102.9,-102.9 0.5,0 40.8,0 55.6,0 L 148.2,49.3 161.9,63 223.4,0 H 183 122.3 C 54.8,0.1 0,54.8 0,122.4 v 95.1 l 19.5,-17.9 v -1 c 0,-2.5 0,-75.5 0,-76.2 z"
   id="path1" />
<path
   d="m 244.7,27.3 -19.5,17.9 v 1 c 0,2.5 0,75.5 0,76.2 0,56.8 -46.2,102.9 -102.9,102.9 -0.5,0 -40.8,0 -55.6,0 l 29.8,-29.8 -13.7,-13.7 -61.5,63 h 40.3 60.7 c 67.6,0 122.3,-54.8 122.3,-122.3 V 27.3 Z"
   id="path2" />






<metadata
   id="metadata8"><rdf:RDF><cc:Work
       rdf:about=""><dc:title>flattr-black-full-web</dc:title></cc:Work></rdf:RDF></metadata></svg>
