<svg xmlns="http://www.w3.org/2000/svg" viewBox="120 120 240 240" class="Logo icon" height="50"><path d="M295.3,314.9A91.89,91.89,0,0,1,165.8,185.4l-8.4-10.7A105.32,105.32,0,0,0,306.1,323.4Z"></path><path d="M207.1,157.4a93,93,0,0,1,28.9-4.6,91.84,91.84,0,0,1,91.9,91.9,93,93,0,0,1-4.6,28.9L333.7,284a105.32,105.32,0,0,0-137-137Z"></path><path d="M219.5,189.1,162.3,130l-8.9,13.9a3.62,3.62,0,0,0,.3,4.2l49.6,63.7Z"></path><path d="M200.9,267.2l-23-17.3-4.2,7.1a2,2,0,0,0,.3,2.5l19.4,21Z"></path><path d="M242.2,212.6l-5.3-5.5,1.4-5.6a16.2,16.2,0,0,0,.6-5.7,22.11,22.11,0,0,0-2.5-6.3l-50.2,53.8s3.4,3.3,8.3-.5c2.2-1.7,10.9-8.8,20.2-16.5l8.5,10.9Z"></path><path d="M291.2,260.8l1.4-5.6a12,12,0,0,0,.6-4.6,23.55,23.55,0,0,0-2-6.3l-53.8,50.2s3.3,3.4,8.4,0c2.5-1.7,13.1-9.1,23.7-16.7L332.7,327a3.62,3.62,0,0,0,4.2.3l13.9-8.9Z"></path><path d="M213.8,280.3c8.1-6.2,19.4-14.9,29.5-22.7l11.4,8.9,18.7-22.7-6.2-6,2-7.1c1-3.6,1.4-6.4,1.1-8.1a30.19,30.19,0,0,0-3.3-9l-74,74s2.3,1.9,7.1,0L221,306.9a2.29,2.29,0,0,0,2.5.3l7.1-4.2Z"></path></svg>