<?xml version="1.0" encoding="UTF-8"?>
<!-- Generator: Adobe Illustrator 16.0.0, SVG Export Plug-In . SVG Version: 6.00 Build 0)  -->
<svg width="250" height="194.91" enable-background="new 0 0 100 80" version="1.1" viewBox="0 0 250 194.91" xml:space="preserve" xmlns="http://www.w3.org/2000/svg" xmlns:cc="http://creativecommons.org/ns#" xmlns:dc="http://purl.org/dc/elements/1.1/" xmlns:rdf="http://www.w3.org/1999/02/22-rdf-syntax-ns#" xmlns:xlink="http://www.w3.org/1999/xlink"><metadata><rdf:RDF><cc:Work rdf:about=""><dc:format>image/svg+xml</dc:format><dc:type rdf:resource="http://purl.org/dc/dcmitype/StillImage"/><dc:title/></cc:Work></rdf:RDF></metadata><g transform="matrix(2.5,0,0,2.5,0,-1.5625)"><path d="m79.023 41.96 3.853-7.019c-2.92-3.031-7.79-7.82-15.938-15.367-19.021-17.6-20.126-17.522-20.595-17.522-0.466 0-1.384-0.337-20.327 17.491-21.236 20.016-20.527 20.691-20.527 20.691s-0.653 1.081 20.746 20.866c19.21 17.774 19.58 17.277 20.107 17.277 0.54 0 1.678 0.312 20.622-17.529 10.258-9.621 15.326-14.764 17.826-17.501l-5.767-1.387"/><path d="m79.023 41.96 0.181 0.102 3.937-7.158-0.111-0.105c-2.92-3.042-7.795-7.833-15.945-15.366-9.419-8.734-14.449-13.119-17.186-15.325-1.363-1.1-2.16-1.653-2.672-1.955-0.241-0.146-0.416-0.217-0.553-0.258-0.137-0.047-0.247-0.056-0.312-0.056h-0.068c-0.08 0-0.202 0.017-0.343 0.065-0.507 0.174-1.507 0.787-4.415 3.239-2.896 2.445-7.678 6.744-15.66 14.261-9.956 9.369-15.094 14.502-17.742 17.315-1.324 1.393-2.029 2.217-2.407 2.712-0.188 0.247-0.292 0.402-0.362 0.518-0.057 0.119-0.087 0.183-0.089 0.262 0 0.048 0.02 0.129 0.069 0.171l0.142-0.147-0.179-0.12c-0.025 0.043-0.032 0.097-0.032 0.128 2e-3 0.073 0.021 0.146 0.087 0.281 0.222 0.406 0.98 1.511 3.903 4.542 2.917 3.034 7.997 8.028 16.819 16.188 9.104 8.411 13.979 12.75 16.651 14.96 1.328 1.105 2.116 1.694 2.613 2.017 0.25 0.146 0.424 0.25 0.567 0.293 0.137 0.062 0.256 0.065 0.345 0.065h0.137c0.074 0 0.205-4e-3 0.352-0.059 0.541-0.16 1.61-0.776 4.557-3.223 2.94-2.449 7.771-6.745 15.802-14.29 10.26-9.645 15.321-14.78 17.833-17.539l0.246-0.264-6.114-1.454-0.051 0.2 0.181 0.102-0.181-0.102-0.04 0.205 5.753 1.39 0.055-0.208-0.157-0.142c-2.49 2.72-7.557 7.859-17.805 17.501-9.163 8.615-14.156 12.993-16.945 15.221-1.381 1.109-2.208 1.668-2.716 1.965-0.251 0.144-0.421 0.212-0.525 0.241-0.129 0.037-0.176 0.037-0.241 0.037h-0.137c-0.062 0-0.101 0-0.204-0.037-0.179-0.067-0.518-0.25-1.15-0.719-1.928-1.43-6.599-5.426-18.532-16.469-10.087-9.333-15.271-14.501-17.929-17.362-1.329-1.406-2.029-2.268-2.39-2.755-0.176-0.244-0.274-0.41-0.323-0.5-0.026-0.052-0.039-0.086-0.041-0.086l-3e-3 -0.016-0.084 0.016h0.084v-0.016l-0.084 0.016h0.084-0.185l0.159 0.098c0.024-0.046 0.029-0.09 0.025-0.098h-0.184l0.159 0.098 0.091-0.148-0.127-0.123-0.131 0.142h0.192c3e-3 -0.029-0.011-0.088-0.062-0.143l-0.13 0.143h0.192-0.115l0.116 0.031v-0.031h-0.116l0.116 0.031h-0.018 0.018-0.018 0.018c0-0.016 0.103-0.239 0.534-0.764 1.326-1.647 5.702-6.365 19.938-19.769 9.117-8.594 14.06-12.969 16.78-15.186 1.346-1.111 2.151-1.69 2.636-1.972 0.24-0.139 0.404-0.217 0.509-0.248 0.104-0.038 0.142-0.038 0.206-0.038h0.068c0.048 0 0.082 0 0.177 0.021 0.168 0.058 0.513 0.214 1.162 0.675 1.939 1.355 6.742 5.325 19.094 16.779 8.146 7.517 13.021 12.306 15.936 15.347l0.145-0.146-0.179-0.104-3.984 7.261 0.271 0.067 0.037-0.205" fill="#231f20"/><path d="m79.023 41.96 3.324-6.056c-2.498-2.758-7.564-7.89-17.895-17.435-18.871-17.468-19.894-17.53-20.592-17.53-0.69 0-1.345-0.378-20.324 17.5-21.238 20.011-20.531 20.667-20.531 20.667s-0.652 1.104 20.743 20.872c19.079 17.646 19.542 17.29 20.113 17.29 0.576 0 1.676 0.278 20.628-17.526 9.747-9.161 14.81-14.261 17.426-17.084l-2.892-0.698" fill="#f8ec17"/><path d="m79.023 41.96 0.274 0.141 3.331-6.026-0.057-0.378c-2.488-2.769-7.581-7.923-17.896-17.463-9.45-8.734-14.42-13.124-17.14-15.33-1.345-1.104-2.141-1.655-2.657-1.964-0.264-0.138-0.453-0.218-0.621-0.274-0.174-0.037-0.307-0.041-0.397-0.041h-0.086c-0.104 0-0.244 4e-3 -0.415 0.064-0.296 0.091-0.689 0.304-1.373 0.791-2.033 1.455-6.708 5.475-18.665 16.719-9.957 9.386-15.093 14.515-17.748 17.327-1.326 1.412-2.033 2.239-2.412 2.72-0.189 0.249-0.302 0.411-0.363 0.54-0.067 0.112-0.103 0.183-0.11 0.32-4e-3 0.065 0.025 0.175 0.103 0.241l0.215-0.241-0.271-0.158c-0.035 0.054-0.047 0.125-0.047 0.184 7e-3 0.108 0.03 0.181 0.099 0.318 0.119 0.229 0.363 0.604 0.949 1.308 1.758 2.135 6.562 7.205 19.801 19.463 9.171 8.476 14.037 12.789 16.691 14.991 1.341 1.106 2.105 1.686 2.605 2.002 0.254 0.156 0.428 0.238 0.581 0.304 0.155 0.049 0.291 0.066 0.376 0.065h0.131c0.091 1e-3 0.232-0.017 0.389-0.065 0.297-0.088 0.705-0.283 1.402-0.764 2.101-1.446 6.947-5.458 18.985-16.785 9.75-9.161 14.814-14.258 17.462-17.103l-0.173-0.521-2.891-0.69-0.072 0.305 0.274 0.141-0.274-0.141-0.068 0.308 2.893 0.7 0.066-0.31-0.231-0.212c-2.624 2.818-7.662 7.908-17.402 17.056-9.18 8.636-14.158 13.017-16.925 15.22-1.383 1.109-2.203 1.675-2.703 1.956-0.246 0.146-0.415 0.214-0.519 0.24-0.106 0.031-0.155 0.031-0.212 0.031h-0.132c-0.052 0-0.073 0-0.17-0.022-0.155-0.063-0.48-0.234-1.105-0.685-1.894-1.409-6.526-5.372-18.549-16.493-10.084-9.31-15.265-14.476-17.924-17.338-1.33-1.416-2.018-2.267-2.381-2.755-0.171-0.242-0.271-0.414-0.312-0.485-0.022-0.056-0.032-0.065-0.034-0.077v-8e-3l-0.068 0.021 0.07-8e-3 -1e-3 -0.013-0.068 0.021 0.07-8e-3 -0.194 0.034h0.194v-0.034l-0.194 0.034h0.194-0.29l0.25 0.149c0.031-0.071 0.041-0.127 0.041-0.149h-0.29l0.25 0.149-0.059-0.4-0.197 0.226h0.296c1e-3 -0.056-0.019-0.158-0.099-0.226l-0.197 0.226h0.296-0.225l0.222 0.037 1e-3 -0.037h-0.223l0.222 0.037-0.083-2e-3 0.075 0.013 8e-3 -0.011-0.083-2e-3 0.075 0.013c8e-3 -0.011 0.13-0.255 0.589-0.803 1.386-1.708 5.845-6.491 19.858-19.687 9.098-8.569 13.987-12.941 16.674-15.173 1.337-1.105 2.134-1.674 2.614-1.965 0.239-0.137 0.402-0.207 0.506-0.241 0.104-0.033 0.155-0.033 0.226-0.033h0.086c0.084 0 0.136 0 0.231 0.025 0.166 0.042 0.492 0.194 1.137 0.652 1.928 1.345 6.635 5.311 19.013 16.766 10.318 9.544 15.396 14.681 17.88 17.426l0.226-0.216-0.274-0.137-3.325 6.031 0.207 0.47 0.067-0.311"/><defs><path id="SVGID_1_" d="m43.841 1.525-0.033-9e-3 0.062 9e-3 0.042-4e-3 -0.02 4e-3h-0.051m38.267 35.239c-2.263-2.513-7.064-7.663-18.047-17.874-16.689-15.48-19.746-17.167-20.2-17.363-0.439 0.18-3.471 1.825-19.911 17.342-8.354 7.872-14.311 13.691-17.713 17.296-1.484 1.562-2.505 2.772-2.623 2.909 0.311 0.571 2.668 3.919 20.537 20.472 7.66 7.091 13.309 12.129 16.795 14.972 0.5 0.393 2.799 2.17 2.799 2.17l0.089-1e-3c0.247-0.065 2.892-1.028 20.242-17.389 10.706-10.065 15.52-15.194 17.843-17.756l0.189-4.778m-78.587 2.654c0.06-0.105 0.074-0.208 0.074-0.294l-3e-3 -0.017-0.071 0.311"/></defs><clipPath id="SVGID_2_"><use width="100%" height="100%" overflow="visible" xlink:href="#SVGID_1_"/></clipPath><g clip-path="url(#SVGID_2_)"><path d="m36.981 69.551-2.045-2.465-2.117-2.382-1.416-1.469c-7.528-7.526-22.896-22.959-23.046-23.09-0.045-0.046-0.067-0.098-0.067-0.141v-1e-3c4e-3 -0.04 0.035-0.08 0.058-0.104 0.657-0.63 15.652-15.077 23.834-22.011l12.574-10.169-0.348-7.763-19.168 17.075c-7.02 6.179-20.396 20.838-20.527 20.968-0.328 0.29-0.52 0.729-0.52 1.206 0 0.452 0.191 0.903 0.551 1.229l0.069 0.072c2.31 2.18 14.122 13.443 20.094 19.199 2.036 1.968 2.772 2.565 3.514 3.174l3.279 2.671 5.281 4.001" fill="#ffe600"/><path d="m34.888 67.122 0.031 0.026c-0.053-0.04-0.309-0.33-2.15-2.405l-1.413-1.457-19.824-19.873-3.22-3.239-0.085-0.17 0.084-0.152c1.604-1.541 15.9-15.28 23.833-22.004 0 0 12.325-9.96 12.559-10.156 0-0.061-0.361-7.347-0.361-7.609-0.195 0.182-19.059 17.004-19.059 17.004-7.03 6.177-20.397 20.816-20.521 20.953-0.325 0.286-0.511 0.723-0.511 1.166 0 0.452 0.19 0.864 0.532 1.177l0.077 0.065c2.306 2.211 14.122 13.456 20.09 19.228 1.997 1.929 2.744 2.531 3.467 3.125l3.319 2.7c2e-3 0 3.622 2.753 4.863 3.679-0.474-0.55-1.711-2.058-1.711-2.058" fill="#ffe700"/><path d="m34.838 67.171 0.047 0.018c-0.065-0.04-0.242-0.244-2.154-2.408l-1.413-1.458-23.044-23.107-0.098-0.174c0-0.039 0.082-0.208 0.082-0.208 1.605-1.559 15.857-15.263 23.844-22.045 0 0 12.308-9.932 12.54-10.134 0-0.045-0.354-7.178-0.354-7.438-0.205 0.173-18.965 16.911-18.965 16.911-7.02 6.167-20.39 20.815-20.521 20.944-0.314 0.285-0.486 0.69-0.486 1.133 0 0.423 0.175 0.837 0.507 1.138l0.08 0.075c4.204 3.996 14.58 13.883 20.091 19.214 1.989 1.917 2.74 2.522 3.462 3.109l3.32 2.716c7e-3 1e-3 3.847 2.91 4.436 3.366-0.431-0.529-1.374-1.652-1.374-1.652" fill="#ffe703"/><path d="m34.795 67.204 0.05 0.036c-0.062-0.052-0.22-0.234-2.162-2.409l-1.412-1.471-23.043-23.1-0.105-0.192c0-0.049 0.076-0.273 0.076-0.273 0.166-0.167 15.408-14.871 23.861-22.043 0 0 12.291-9.922 12.521-10.126 0-0.043-0.361-7.019-0.361-7.271-0.196 0.171-18.856 16.812-18.856 16.812-6.866 6.03-19.976 20.414-20.512 20.943-0.31 0.274-0.482 0.685-0.482 1.095 0 0.421 0.176 0.798 0.495 1.106l0.075 0.069c4.205 3.996 14.575 13.874 20.094 19.198 1.993 1.925 2.737 2.539 3.458 3.125l3.324 2.713s3.37 2.559 4.018 3.043c-0.38-0.462-1.039-1.255-1.039-1.255" fill="#ffe716"/><path d="m34.747 67.25 0.061 0.038c-0.066-0.055-0.18-0.179-2.056-2.279l-0.118-0.138-1.406-1.479-23.042-23.077-0.115-0.214v-0.014c0-0.046 0.072-0.312 0.072-0.312 0.134-0.138 15.476-14.935 23.88-22.067 0 0 12.268-9.914 12.493-10.105 0-0.052-0.35-6.871-0.35-7.113-0.202 0.175-18.76 16.725-18.76 16.725-6.917 6.079-19.977 20.413-20.506 20.928-0.3 0.273-0.466 0.656-0.466 1.062 0 0.387 0.166 0.761 0.473 1.044l0.078 0.082c4.193 3.991 14.557 13.867 20.094 19.207 1.99 1.924 2.729 2.531 3.453 3.12l3.324 2.7s2.575 1.959 3.599 2.729c-0.312-0.358-0.708-0.837-0.708-0.837" fill="#ffe722"/><path d="m34.695 67.288-3e-3 -0.031c-0.136-0.143-0.531-0.582-1.98-2.21l-0.12-0.138-1.411-1.471-23.042-23.095-0.122-0.217-2e-3 -0.018c0-0.049 0.071-0.351 0.071-0.351 0.102-0.102 15.402-14.886 23.897-22.099 0 0 12.246-9.893 12.478-10.077 0-0.064-0.36-6.712-0.36-6.961-0.196 0.181-18.657 16.646-18.657 16.646-6.918 6.063-19.974 20.395-20.507 20.928-0.278 0.26-0.447 0.632-0.447 1.01 0 0.382 0.167 0.734 0.461 1.006l0.07 0.065c4.183 3.995 14.512 13.821 20.1 19.221 1.979 1.926 2.728 2.522 3.443 3.108l3.324 2.72c0.013 0 2.668 2.014 3.188 2.407-0.188-0.236-0.381-0.443-0.381-0.443" fill="#ffe82b"/><path d="m34.652 67.317-8e-3 -0.023-2.1-2.349-1.406-1.461-23.037-23.102-0.137-0.237h-2e-3c0-0.076 0.063-0.391 0.063-0.391 0.076-0.098 15.252-14.784 23.916-22.144 0 0 12.225-9.864 12.458-10.059 0-0.059-0.355-6.543-0.355-6.792-0.203 0.171-18.562 16.543-18.562 16.543-6.715 5.902-19.155 19.598-20.496 20.941-0.274 0.245-0.429 0.59-0.429 0.962 0 0.354 0.155 0.702 0.431 0.969l0.076 0.068c4.166 3.964 14.459 13.77 20.103 19.223 1.98 1.898 2.722 2.517 3.435 3.103l3.322 2.703s2.205 1.67 2.769 2.091l-0.041-0.045" fill="#ffe835"/><path d="m32.499 64.979-1.403-1.448-19.823-19.873-3.217-3.228-0.146-0.256h-2e-3c0-0.069 0.06-0.443 0.06-0.443 0.053-0.074 15.303-14.843 23.938-22.158 0 0 12.203-9.853 12.435-10.055 0-0.045-0.362-6.379-0.362-6.626-0.196 0.176-18.453 16.45-18.453 16.45-6.716 5.916-19.156 19.596-20.501 20.938-0.263 0.241-0.411 0.576-0.411 0.925 0 0.354 0.147 0.668 0.415 0.93l0.078 0.076c4.157 3.938 14.436 13.734 20.102 19.195 1.979 1.922 2.72 2.523 3.437 3.103-6e-3 -1e-3 -6e-3 -1e-3 3.322 2.716 2e-3 0 1.529 1.168 2.314 1.753-0.465-0.519-1.783-1.999-1.783-1.999" fill="#ffe93c"/><path d="m32.456 65.02-1.408-1.451-23.033-23.094-0.159-0.264v-4e-3c0-0.1 0.051-0.479 0.051-0.479 0.04-0.072 15.113-14.7 23.959-22.207 0 0 12.183-9.83 12.406-10.036 0-0.042-0.351-6.212-0.351-6.471-0.197 0.183-18.356 16.384-18.356 16.384-6.681 5.865-19.147 19.574-20.494 20.915-0.256 0.244-0.395 0.552-0.395 0.892 0 0.324 0.138 0.645 0.397 0.87l0.075 0.077c4.14 3.951 14.379 13.697 20.101 19.216 1.974 1.925 2.712 2.514 3.434 3.099l-0.066-2e-3c0.069 3e-3 0.399 0.276 3.06 2.445l0.33 0.274c2e-3 0 1.49 1.133 1.813 1.378-0.486-0.549-1.364-1.541-1.364-1.542" fill="#ffe943"/><path d="m32.404 65.047 2e-3 0.013-1.396-1.46-23.038-23.077-0.167-0.281-4e-3 -0.018c0-0.098 0.044-0.496 0.044-0.496 0.033-0.072 15.117-14.731 23.974-22.256 0 0 12.167-9.817 12.399-10.004 0-0.054-0.358-6.065-0.358-6.32-0.198 0.176-18.256 16.291-18.256 16.291-6.683 5.865-19.147 19.576-20.494 20.915-0.241 0.237-0.377 0.538-0.377 0.85 0 0.316 0.133 0.614 0.378 0.837l0.083 0.065c4.142 3.957 14.399 13.709 20.098 19.22 1.977 1.911 2.71 2.513 3.428 3.098l2e-3 3e-3 -2e-3 0.033c0.186 0.109 0.754 0.587 2.979 2.391l0.342 0.281s0.803 0.601 1.33 1.008c-0.161-0.19-0.967-1.093-0.967-1.093" fill="#ffea49"/><path d="m32.356 65.091 0.011 0.023-1.406-1.47l-23.03-23.093-0.178-0.274-0.011-0.043 0.046-0.516c0.023-0.062 14.922-14.588 23.997-22.281 0 0 12.141-9.806 12.37-9.992 0-0.064-0.353-5.912-0.353-6.161-0.202 0.171-18.153 16.188-18.153 16.188-6.681 5.884-19.147 19.592-20.493 20.933-0.233 0.214-0.358 0.494-0.358 0.799 0 0.29 0.123 0.581 0.358 0.798l0.077 0.065c4.146 3.942 14.398 13.714 20.098 19.219 1.979 1.903 2.715 2.513 3.424 3.087 0.188 0.155 3.324 2.707 3.324 2.707s0.462 0.349 0.839 0.639c-0.274-0.296-0.562-0.628-0.562-0.628" fill="#ffea50"/><path d="m32.315 65.141 6e-3 5e-3 -1.399-1.459-23.036-23.098-0.184-0.273-0.022-0.079 0.046-0.531c0.076-0.185 15.394-14.998 24.023-22.316 0 0 12.118-9.78 12.352-9.976 0-0.059-0.363-5.752-0.363-5.993-0.196 0.173-18.049 16.104-18.049 16.104-6.68 5.873-19.146 19.583-20.49 20.93-0.218 0.196-0.343 0.467-0.343 0.75 0 0.28 0.119 0.549 0.34 0.747l0.08 0.089c4.139 3.92 14.388 13.681 20.099 19.2 1.968 1.909 2.707 2.498 3.414 3.081l3.324 2.726c9e-3 0 0.081 0.044 0.345 0.246-0.055-0.058-0.143-0.153-0.143-0.153" fill="#ffea56"/><path d="m30.875 63.738-19.817-19.882-3.215-3.221-0.193-0.295-0.028-0.103 0.043-0.543c0.076-0.174 15.389-15.017 24.039-22.359 0 0 12.104-9.753 12.326-9.955 0-0.043-0.353-5.581-0.353-5.827-0.196 0.179-17.955 16.019-17.955 16.019-6.672 5.86-19.134 19.57-20.478 20.916-0.209 0.19-0.327 0.449-0.327 0.717 0 0.258 0.11 0.524 0.318 0.695l0.079 0.079c4.137 3.954 14.382 13.701 20.101 19.211 1.963 1.91 2.702 2.518 3.41 3.096 8e-3 6e-3 2.583 2.104 3.042 2.469-0.411-0.428-0.992-1.017-0.992-1.017" fill="#ffea5b"/><path d="m30.835 63.774-23.037-23.083-0.2-0.322-0.034-0.127c0-0.031 0.042-0.55 0.042-0.55 0.071-0.181 15.381-15.024 24.06-22.391 0 0 12.079-9.75 12.313-9.951 0-0.043-0.358-5.415-0.358-5.659-0.2 0.171-17.853 15.919-17.853 15.919-6.642 5.839-19.136 19.569-20.485 20.91-0.192 0.183-0.309 0.431-0.309 0.684 0 0.246 0.111 0.488 0.306 0.657l0.075 0.075c4.128 3.92 14.342 13.65 20.106 19.221 1.961 1.89 2.689 2.493 3.4 3.063 0 0 2.12 1.742 2.269 1.857-0.124-0.128-0.295-0.303-0.295-0.303" fill="#ffeb61"/><path d="m10.972 43.953-3.214-3.223-0.211-0.329-0.028-0.086-0.018-0.073 0.045-0.55c0.067-0.188 15.379-15.051 24.081-22.434 0 0 12.059-9.741 12.287-9.929 0-0.053-0.351-5.261-0.351-5.507-0.203 0.177-17.755 15.832-17.755 15.832-6.639 5.846-19.134 19.569-20.479 20.91-0.186 0.171-0.291 0.405-0.291 0.64 0 0.227 0.101 0.452 0.279 0.629l0.082 0.065c4.117 3.925 14.32 13.632 20.102 19.22 1.964 1.898 2.698 2.487 3.404 3.07 0 0 0.768 0.616 1.414 1.148-1.702-1.704-8.176-8.191-19.347-19.383" fill="#ffec66"/><path d="m7.712 40.758-0.215-0.326-0.036-0.116-0.015-0.071 0.04-0.552c0.066-0.198 15.38-15.089 24.1-22.492 0 0 12.039-9.709 12.273-9.894 0-0.062-0.363-5.104-0.363-5.356-0.196 0.18-17.65 15.757-17.65 15.757-6.632 5.829-19.132 19.565-20.478 20.909-0.173 0.146-0.271 0.37-0.271 0.588 0 0.213 0.096 0.421 0.265 0.57l0.08 0.085c4.127 3.93 14.358 13.663 20.104 19.211 1.968 1.908 2.693 2.494 3.395 3.069 0 0 0.231 0.182 0.503 0.417-1.459-1.473-21.732-21.799-21.732-21.799" fill="#ffec6b"/><path d="m7.672 40.803-8e-3 -6e-3 -0.218-0.343-0.046-0.111c-6e-3 -0.048-0.018-0.098-0.018-0.098l0.042-0.553c0.067-0.208 15.386-15.121 24.121-22.527 0 0 12.023-9.694 12.245-9.889 0-0.059-0.352-4.95-0.352-5.196-0.2 0.176-17.547 15.671-17.547 15.671-6.609 5.795-19.128 19.565-20.478 20.907-0.164 0.142-0.255 0.345-0.255 0.547 0 0.191 0.089 0.382 0.242 0.524l0.086 0.08c4.133 3.942 14.363 13.678 20.1 19.211 1.592 1.545 2.369 2.229 2.98 2.723-1.555-1.555-20.894-20.94-20.894-20.94" fill="#ffec6b"/><path d="m7.628 40.849-0.013-0.021-0.217-0.342-0.049-0.139-0.022-0.077 0.037-0.584c0.064-0.201 15.381-15.14 24.147-22.562 0 0 11.992-9.678 12.226-9.879 0-0.042-0.358-4.787-0.358-5.029-0.198 0.171-17.449 15.568-17.449 15.568-6.605 5.817-19.122 19.565-20.478 20.911-0.152 0.137-0.237 0.321-0.237 0.509 0 0.18 0.083 0.354 0.227 0.488l0.081 0.065c3.202 3.062 14.122 13.441 20.108 19.228 0.663 0.653 1.185 1.135 1.607 1.517-2.257-2.253-19.61-19.653-19.61-19.653" fill="#ffec71"/><path d="m7.589 40.9-0.024-0.037-0.217-0.34-0.06-0.142-0.026-0.111 0.042-0.596c0.061-0.189 15.388-15.149 24.166-22.605 0 0 11.975-9.654 12.202-9.858 0-0.042-0.352-4.618-0.352-4.859-0.201 0.171-17.354 15.486-17.354 15.486-6.599 5.802-19.117 19.547-20.468 20.891-0.141 0.136-0.218 0.311-0.218 0.476 0 0.162 0.069 0.316 0.208 0.452l0.077 0.072c2.866 2.721 11.891 11.315 18.055 17.228-4.786-4.798-16.031-16.057-16.031-16.057" fill="#ffec71"/><path d="m7.543 40.93-0.028-0.03-0.218-0.35-0.067-0.149-0.024-0.125 0.039-0.61c0.055-0.181 15.387-15.168 24.179-22.641 0 0 11.96-9.644 12.195-9.832 0-0.054-0.363-4.463-0.363-4.705-0.196 0.176-17.246 15.397-17.246 15.397-6.6 5.789-19.117 19.545-20.468 20.894-0.132 0.12-0.205 0.267-0.205 0.426 0 0.143 0.065 0.28 0.187 0.396 1e-3 2e-3 9.298 8.875 14.568 13.909-4.274-4.279-12.549-12.58-12.549-12.58" fill="#ffed7a"/><path d="m7.5 40.966-0.035-0.036-0.221-0.341-0.07-0.171-0.029-0.142 0.038-0.62c0.062-0.171 15.39-15.19 24.206-22.669 0 0 11.938-9.631 12.16-9.82 0-0.059-0.351-4.305-0.351-4.547-0.201 0.174-17.148 15.301-17.148 15.301-6.594 5.793-19.116 19.562-20.465 20.91-0.118 0.105-0.186 0.242-0.186 0.373s0.057 0.246 0.167 0.354c1e-3 0 7.317 6.99 10.996 10.503-3.636-3.654-9.062-9.095-9.062-9.095" fill="#ffed7e"/><path d="m7.455 41.018-0.044-0.052-0.217-0.34-0.071-0.179-0.034-0.17 0.035-0.621c0.054-0.171 15.397-15.222 24.228-22.723 0 0 11.911-9.598 12.144-9.794 0-0.057-0.357-4.147-0.357-4.382-0.2 0.173-17.052 15.207-17.052 15.207-6.564 5.778-19.103 19.56-20.461 20.901-0.105 0.104-0.17 0.216-0.17 0.339 0 0.108 0.053 0.217 0.152 0.316 0 0 4.804 4.582 7.426 7.094-2.639-2.654-5.579-5.596-5.579-5.596" fill="#ffee83"/><path d="m7.415 41.067-0.051-0.062h0.018c-0.033-0.039-0.098-0.125-0.241-0.35l-0.082-0.199-0.035-0.18 0.037-0.62c0.057-0.176 15.403-15.259 24.25-22.769 0 0 11.894-9.58 12.121-9.78 0-0.044-0.352-3.99-0.352-4.222-0.201 0.177-16.948 15.134-16.948 15.134-6.56 5.758-19.107 19.538-20.461 20.88-0.097 0.104-0.15 0.208-0.15 0.306 0 0.096 0.044 0.185 0.125 0.275 0 2e-3 2.756 2.621 3.858 3.678-0.982-0.981-2.089-2.091-2.089-2.091" fill="#ffef87"/><path d="m7.369 41.108m-0.274-0.416-0.088-0.208-0.04-0.174v-4e-3l0.038-0.65c0.051-0.184 15.404-15.293 24.266-22.805 0 0 11.871-9.574 12.107-9.776 0-0.043-0.362-3.826-0.362-4.062-0.197 0.179-16.845 15.045-16.845 15.045-6.563 5.754-19.103 19.532-20.46 20.884-0.085 0.092-0.133 0.167-0.133 0.262 0 0.077 0.042 0.158 0.113 0.221 0 3e-3 1.023 0.992 1.553 1.484-0.069-0.089-0.149-0.217-0.149-0.217z" fill="#ffef8b"/><path d="m7.044 40.73m-0.091-0.211-0.046-0.203l0.035-0.659c0.051-0.192 15.414-15.327 24.29-22.856 0 0 11.855-9.557 12.077-9.743 0-0.054-0.352-3.671-0.352-3.911-0.2 0.173-16.748 14.95-16.748 14.95-6.521 5.747-19.099 19.532-20.454 20.898-0.074 0.066-0.116 0.148-0.116 0.21 0 0.065 0.035 0.13 0.093 0.18 0 0 0.877 0.842 1.251 1.205z" fill="#ffef8f"/><path d="m6.849 40.32c0-0.044 0.033-0.664 0.033-0.664 0.052-0.202 15.417-15.359 24.31-22.906 0 0 11.831-9.536 12.063-9.721 0-0.062-0.359-3.514-0.359-3.747-0.199 0.171-16.645 14.865-16.645 14.865-6.521 5.733-19.095 19.532-20.454 20.893l-0.1 0.165 0.076 0.143c5e-3 0 0.92 0.874 1.088 1.035l-0.012-0.063" fill="#ffef93"/><path d="m6.822 39.656c0.047-0.206 15.421-15.397 24.327-22.942 0.122-0.101 11.644-9.373 12.04-9.711 0-0.056-0.02-0.833-0.02-0.833s-0.323-2.517-0.323-2.756c-0.192 0.172-16.552 14.783-16.552 14.783-5.078 4.444-13.867 13.851-18.086 18.36l-2.373 2.518h2e-3s-0.049 0.098-0.071 0.136l0.061 0.104c4e-3 0 0.696 0.659 0.968 0.929 5e-3 -0.137 0.027-0.588 0.027-0.588" fill="#fff197"/><path d="m6.763 39.651v-0.025c0.049-0.176 15.43-15.397 24.353-22.958 0-1e-3 11.78-9.495 12.021-9.703-2e-3 -0.046-0.037-0.796-0.037-0.796s-0.298-2.094-0.312-2.623c-0.186 0.161-16.461 14.686-16.461 14.686-5.073 4.468-13.857 13.854-18.08 18.371l-2.364 2.502 0.015-0.055s-0.049 0.099-0.065 0.152l0.049 0.079-0.029-1e-3c0.083 0.066 0.296 0.264 0.889 0.826 7e-3 -0.164 0.021-0.455 0.021-0.455" fill="#fff19b"/><path d="m6.707 39.645 4e-3 -0.019c0.043-0.183 15.439-15.434 24.369-23.013 0 0 11.748-9.472 11.988-9.674 0-0.046-0.021-0.767-0.021-0.767s-0.304-1.985-0.321-2.51c-0.184 0.173-16.353 14.614-16.353 14.614-5.075 4.465-13.852 13.837-18.074 18.351 0.01 0 0 0-2.375 2.522l-0.017 0.027-8e-3 0.024 0.033 0.062-0.046-0.021c0.084 0.044 0.28 0.243 0.803 0.724 4e-3 -0.131 0.018-0.32 0.018-0.32" fill="#fff19f"/><path d="m6.645 39.639 4e-3 -0.041c0.047-0.18 15.456-15.441 24.389-23.02-2e-3 2e-3 2e-3 -1e-3 6.522-5.373 0 0 5.403-4.244 5.453-4.287-3e-3 -0.053-0.324-2.612-0.343-3.121-0.189 0.174-16.26 14.533-16.26 14.533-5.07 4.45-13.845 13.831-18.065 18.343v-0.013c-0.033 0.053-0.131 0.152-0.345 0.382l-2.029 2.155 0.02 0.044c0.098 0.071 0.284 0.243 0.646 0.592 3e-3 -0.089 8e-3 -0.194 8e-3 -0.194" fill="#fff1a3"/><path d="m6.588 39.632 3e-3 -0.045c0.049-0.169 15.47-15.466 24.405-23.053l-3e-3 9e-3c0.028-0.034 0.071-0.067 0.192-0.171 0 0 11.723-9.446 11.761-9.48 0-0.063-0.324-2.73-0.327-2.961-0.189 0.169-16.173 14.439-16.173 14.439-5.069 4.446-13.84 13.844-18.06 18.352l-0.319 0.342c-0.026 0.013-1.822 1.934-2.015 2.138 0.058 0.068 0.368 0.357 0.529 0.504l7e-3 -0.074" fill="#fff2a7"/><path d="m26.49 18.403c-5.073 4.472-13.84 13.852-18.059 18.361l-0.322 0.345s-1.768 1.861-1.978 2.087c0.058 0.046 0.289 0.281 0.404 0.39 0.045-0.201 15.482-15.506 24.423-23.11l0.189-0.142s11.47-9.263 11.744-9.469c-0.014-0.052-0.084-0.694-0.084-0.694-0.085-0.753-0.205-1.794-0.241-2.126-0.169 0.163-16.076 14.358-16.076 14.358" fill="#fff3ab"/><path d="m26.531 18.458c-5.071 4.456-13.838 13.83-18.049 18.341-0.011 0-2.054 2.17-2.266 2.393 0.061 0.05 0.255 0.25 0.317 0.294 1.004-1.102 15.729-15.708 24.392-23.047l0.19-0.158c0-8e-3 11.353-9.159 11.712-9.451-7e-3 -0.049-0.078-0.654-0.078-0.654s-0.182-1.57-0.227-2.001c-0.164 0.142-15.991 14.283-15.991 14.283" fill="#fff3af"/><path d="m26.567 18.504c-5.062 4.446-13.824 13.816-18.032 18.329-0.014 2e-3 -2.163 2.274-2.234 2.359 0.046 0.049 0.185 0.18 0.229 0.226 1.254-1.372 15.83-15.784 24.355-23.021l0.192-0.162s11.632-9.376 11.679-9.419c0-0.061-0.066-0.638-0.066-0.638 0-1e-3 -0.167-1.47-0.208-1.892-0.172 0.159-15.915 14.218-15.915 14.218" fill="#fff3b3"/><path d="m26.605 18.541c-5.056 4.444-13.817 13.814-18.031 18.327 0 0-2.118 2.239-2.191 2.318 0.04 0.046 0.122 0.127 0.142 0.138 1.448-1.539 15.789-15.73 24.319-22.983l0.19-0.146c-3e-3 4e-3 -3e-3 4e-3 6.523-5.267 0 0 5.095-4.098 5.145-4.139-0.011-0.063-0.066-0.598-0.066-0.598 0-2e-3 -0.186-1.6-0.205-1.774-0.171 0.141-15.826 14.124-15.826 14.124" fill="#fff5b8"/><path d="m26.646 18.586c-5.059 4.45-13.818 13.814-18.026 18.314 4e-3 0 3e-3 0-1.121 1.198 0 0-0.958 1.008-1.029 1.083l0.054 0.061c1.605-1.691 15.809-15.741 24.28-22.94l0.189-0.157-1e-3 0.047c0.038-0.064 0.234-0.235 1.12-0.958 0 0 10.474-8.44 10.526-8.473-6e-3 -0.064-0.071-0.56-0.071-0.56 0-7e-3 -0.161-1.506-0.184-1.674-0.168 0.16-15.737 14.059-15.737 14.059" fill="#fff5bb"/><path d="m26.686 18.641c-5.062 4.444-13.816 13.81-18.023 18.298v-9e-3c-0.02 0.041-0.072 0.087-0.223 0.25 0 0-0.386 0.411-0.646 0.69 4.076-4.1 15.653-15.401 22.977-21.606l0.188-0.167-0.019 0.063c0.038-0.066 0.175-0.194 1.138-0.959 0 0 10.442-8.426 10.49-8.475-1e-3 -0.046-0.054-0.521-0.054-0.521 0-2e-3 -0.156-1.416-0.17-1.547-0.174 0.141-15.658 13.983-15.658 13.983" fill="#fff5bf"/><g fill="#ffe600"><path d="m50.703 9.138 2.036 2.459 2.105 2.394 1.428 1.453c7.526 7.541 22.884 22.958 23.033 23.113 0.052 0.034 0.063 0.07 0.063 0.119v9e-3c0 0.044-0.028 0.077-0.044 0.115-0.659 0.619-15.666 15.058-23.828 22.01l-12.585 10.163 0.357 7.753 19.153-17.079c7.023-6.171 20.397-20.818 20.527-20.954 0.338-0.305 0.521-0.743 0.521-1.208 0-0.463-0.183-0.895-0.548-1.232l-0.074-0.077c-2.307-2.187-14.125-13.435-20.088-19.191-2.032-1.97-2.764-2.577-3.514-3.169l-3.268-2.683-5.274-3.995"/><path d="m76.582 47.172c2.343-2.484 4.295-4.586 5.34-5.724l-2e-3 0.093c-0.177 0.193-0.377 0.424-0.593 0.646-0.142 0.16-0.311 0.338-0.481 0.536-1.03 1.105-2.407 2.561-4.264 4.449m-33.152 29.271c-0.047-0.034-0.09-0.068-0.141-0.106-0.101-2.198-0.254-5.267-0.254-5.304 0.225-0.202 12.529-10.147 12.529-10.147 7.989-6.765 22.238-20.468 23.845-22.021 0 0 0.096-0.17 0.096-0.208v-3e-3l-0.105-0.193-3.221-3.214-19.824-19.875-1.416-1.473c-1.913-2.152-2.096-2.352-2.154-2.396l0.053 0.011s-0.958-1.132-1.373-1.653c0.584 0.455 4.423 3.368 4.44 3.372l3.312 2.707c0.719 0.597 1.477 1.19 3.459 3.121 5.224 5.059 14.831 14.209 19.404 18.558l-0.013 0.152c-4.521-4.308-14.199-13.513-19.479-18.618-1.993-1.922-2.722-2.538-3.448-3.124l-3.33-2.705s-2.562-1.947-3.591-2.733c0.312 0.375 0.704 0.857 0.704 0.857l-0.051-0.038c0.06 0.04 0.177 0.174 2.037 2.276l0.133 0.137 1.408 1.464 23.025 23.098 0.132 0.208c0 0.063-0.08 0.308-0.08 0.308-0.128 0.146-15.484 14.95-23.88 22.081 0 0-12.265 9.916-12.497 10.104 2e-3 0.025 0.175 3.258 0.28 5.357"/><path d="m72.715 51.025c3.973-4.137 7.612-8.084 9.225-9.785l-0.018 0.208c-1.045 1.138-2.997 3.239-5.34 5.724-1.109 1.12-2.385 2.408-3.867 3.853m-29.148 25.527c-0.045-0.035-0.085-0.073-0.137-0.108-0.105-2.1-0.278-5.332-0.278-5.36 0.232-0.188 12.497-10.104 12.497-10.104 8.396-7.131 23.752-21.934 23.88-22.081 0 0 0.08-0.244 0.08-0.308l-0.132-0.208-23.026-23.097-1.408-1.464-0.133-0.137c-1.86-2.103-1.978-2.236-2.037-2.276l0.051 0.038s-0.393-0.482-0.704-0.857c1.028 0.786 3.591 2.733 3.591 2.733l3.33 2.705c0.727 0.585 1.455 1.201 3.448 3.124 5.279 5.105 14.957 14.311 19.479 18.618l-6e-3 0.166c-4.454-4.24-14.147-13.472-19.555-18.706-1.986-1.916-2.725-2.516-3.434-3.1l-3.341-2.719s-2.201-1.66-2.754-2.091l0.034 0.051v0.012l2.107 2.367 1.406 1.451 23.045 23.099 0.142 0.235v0.019c0 0.059-0.074 0.384-0.074 0.384-0.067 0.104-15.251 14.779-23.906 22.138 0 0-12.229 9.866-12.458 10.068 1e-3 0.037 0.189 3.415 0.293 5.408"/><path d="m69.678 53.99c5.09-5.203 10.341-10.89 12.273-12.938l-0.012 0.188c-1.612 1.701-5.252 5.648-9.225 9.785-0.926 0.915-1.949 1.899-3.036 2.965m-19.004 17.5c2.562-2.274 5.369-4.783 7.545-6.733-3.138 2.878-5.609 5.075-7.545 6.733m-6.97 5.166c-0.033-0.036-0.084-0.074-0.137-0.104-0.104-1.993-0.292-5.371-0.292-5.409 0.228-0.202 12.458-10.068 12.458-10.068 8.655-7.358 23.839-22.034 23.906-22.138 0 0 0.074-0.325 0.074-0.384v-0.019l-0.142-0.235-23.045-23.098-1.406-1.451-2.107-2.367v-0.012l-0.034-0.051c0.553 0.431 2.754 2.091 2.754 2.091l3.341 2.719c0.709 0.584 1.447 1.185 3.434 3.1 5.407 5.234 15.101 14.465 19.555 18.706l-6e-3 0.161c-4.397-4.19-14.125-13.455-19.636-18.773-1.972-1.917-2.72-2.521-3.433-3.101l0.059 8e-3c-0.068-8e-3 -0.393-0.281-3.048-2.446l-0.332-0.273c0-2e-3 -1.486-1.134-1.822-1.378 0.482 0.547 1.38 1.527 1.38 1.527l1.398 1.465 19.814 19.868 3.207 3.221 0.173 0.266v8e-3c0 0.094-0.066 0.479-0.066 0.479-0.031 0.072-15.093 14.685-23.942 22.187 0 0-12.188 9.851-12.415 10.04-1e-3 0.04 0.207 3.63 0.31 5.461"/></g><path d="m65.658 57.82c6.101-5.936 13.96-14.474 16.293-16.957v0.188c-1.933 2.049-7.184 7.735-12.273 12.938-1.233 1.175-2.573 2.454-4.02 3.831m-17.815 16.043c5.338-4.76 14.186-12.652 14.186-12.652 0.22-0.193 0.457-0.402 0.701-0.635-1.646 1.541-3.135 2.919-4.512 4.181-2.176 1.95-4.982 4.459-7.545 6.733-1.109 0.965-2.045 1.735-2.83 2.373m-4.097 2.824s-0.018-0.019-0.042-0.03c-0.103-1.831-0.311-5.421-0.311-5.462 0.227-0.19 12.415-10.041 12.415-10.041 8.85-7.502 23.911-22.115 23.942-22.187 0 0 0.066-0.384 0.066-0.479v-8e-3l-0.173-0.266-3.207-3.221-19.814-19.868-1.398-1.465s-0.897-0.98-1.38-1.527c0.336 0.244 1.822 1.375 1.822 1.378l0.332 0.273c2.655 2.165 2.979 2.438 3.048 2.446l-0.059-8e-3c0.713 0.581 1.461 1.185 3.433 3.101 5.511 5.318 15.238 14.583 19.636 18.773v0.15c-4.37-4.136-14.193-13.505-19.712-18.842-1.98-1.902-2.721-2.517-3.434-3.098-0.173-0.145-3.311-2.7-3.311-2.7s-0.464-0.343-0.841-0.642c0.271 0.306 0.563 0.619 0.563 0.619l-0.016-2e-3 1.389 1.452 23.045 23.11 0.18 0.273 5e-3 0.038-0.043 0.515c-0.03 0.062-14.911 14.579-23.994 22.285 0 0-12.149 9.796-12.372 9.993 0 0.041 0.225 3.82 0.321 5.438h-1e-3l-0.089 2e-3" fill="#ffe200"/><path d="m46.332 75.041c4.87-4.338 15.606-13.919 15.606-13.919 6.194-5.45 17.338-17.605 20.021-20.43l-8e-3 0.171c-2.333 2.483-10.192 11.021-16.293 16.957-0.519 0.485-1.037 0.983-1.581 1.477-0.454 0.445-0.901 0.867-1.347 1.279-0.244 0.232-0.481 0.441-0.701 0.635 0 0-8.848 7.893-14.186 12.652-0.582 0.462-1.079 0.859-1.511 1.178m-2.496 1.645c-0.096-1.618-0.321-5.397-0.321-5.438 0.223-0.197 12.372-9.993 12.372-9.993 9.083-7.706 23.964-22.223 23.994-22.285l0.043-0.515-5e-3 -0.038-0.18-0.273-23.045-23.11-1.389-1.452 0.016 2e-3s-0.293-0.313-0.563-0.619c0.377 0.298 0.841 0.642 0.841 0.642s3.138 2.555 3.311 2.7c0.713 0.581 1.453 1.196 3.434 3.098 5.519 5.337 15.342 14.706 19.712 18.842l-2e-3 0.17c-4.337-4.115-14.229-13.535-19.805-18.929-1.964-1.91-2.692-2.497-3.411-3.083 0 0-2.583-2.102-3.03-2.479 0.406 0.433 0.993 1.034 0.993 1.034l19.811 19.868 3.211 3.211 0.2 0.312 0.026 0.104-0.05 0.528c-0.074 0.193-15.378 15.02-24.026 22.355 0 0-12.111 9.767-12.339 9.968 0 0.045 0.251 3.905 0.331 5.324-0.071 0.034-0.105 0.044-0.129 0.056" fill="#ffde00"/><path d="m45.304 75.798c3.987-3.55 16.562-14.767 16.562-14.767 6.221-5.464 17.59-17.893 20.096-20.51l-2e-3 0.171c-2.683 2.824-13.826 14.979-20.021 20.43 0 0-10.736 9.581-15.606 13.919-0.397 0.306-0.731 0.553-1.029 0.757m-1.34 0.832c-0.08-1.419-0.331-5.279-0.331-5.324 0.228-0.201 12.339-9.968 12.339-9.968 8.648-7.335 23.952-22.162 24.026-22.355l0.05-0.528-0.026-0.104-0.2-0.312-3.211-3.211-19.81-19.868s-0.587-0.601-0.993-1.034c0.447 0.377 3.03 2.479 3.03 2.479 0.719 0.585 1.447 1.173 3.411 3.083 5.576 5.394 15.468 14.814 19.805 18.929l-0.014 0.149c-4.257-4.041-14.203-13.513-19.867-18.991-1.964-1.898-2.697-2.499-3.408-3.067 0 0-0.768-0.632-1.406-1.166 1.688 1.717 8.163 8.195 19.334 19.391l3.227 3.238 0.208 0.309 0.025 0.104 0.01 0.071-0.035 0.548c-0.074 0.174-15.382 15.054-24.082 22.431 0 0-12.064 9.736-12.289 9.923 0 0.046 0.273 4.055 0.344 5.214-0.052 0.02-0.101 0.049-0.137 0.059" fill="#ffda00"/><path d="m44.604 76.277c2.507-2.244 17.178-15.332 17.178-15.332 6.279-5.51 17.894-18.22 20.195-20.621l-0.016 0.197c-2.506 2.617-13.875 15.046-20.096 20.51 0 0-12.574 11.217-16.562 14.767-0.281 0.199-0.514 0.368-0.699 0.479m-0.503 0.293c-0.071-1.159-0.344-5.168-0.344-5.214 0.225-0.187 12.289-9.923 12.289-9.923 8.7-7.377 24.008-22.257 24.082-22.431l0.035-0.548-0.01-0.071-0.025-0.104-0.208-0.309-3.227-3.238c-11.172-11.195-17.647-17.673-19.335-19.39 0.639 0.534 1.406 1.166 1.406 1.166 0.711 0.568 1.444 1.169 3.408 3.067 5.664 5.479 15.61 14.951 19.867 18.991l-0.016 0.163c-4.213-4.029-14.267-13.603-19.951-19.068-1.579-1.536-2.355-2.221-2.958-2.725 1.548 1.562 20.879 20.938 20.879 20.938l6e-3 0.016 0.226 0.329 0.036 0.133c0.01 0.034 0.029 0.081 0.029 0.081l-0.055 0.571c-0.058 0.189-15.37 15.107-24.124 22.529 0 0-12.006 9.684-12.237 9.886 0 0.043 0.313 4.326 0.356 5.079-0.044 0.026-0.097 0.057-0.129 0.072" fill="#ffd800"/><path d="m44.23 76.496c-0.043-0.753-0.356-5.036-0.356-5.079 0.231-0.202 12.237-9.886 12.237-9.886 8.754-7.422 24.066-22.339 24.124-22.529l0.055-0.571s-0.02-0.046-0.029-0.081l-0.036-0.133-0.226-0.329-6e-3 -0.016s-19.331-19.375-20.879-20.938c0.603 0.504 1.379 1.189 2.958 2.725 5.684 5.467 15.738 15.041 19.952 19.07v0.168c-2.948-2.819-11.866-11.297-17.98-17.179 4.782 4.8 16.046 16.08 16.046 16.08l0.01 0.027 0.228 0.341 0.047 0.146 0.033 0.104-0.043 0.586c-0.061 0.207-15.39 15.16-24.162 22.61 0 0-11.977 9.671-12.206 9.856 0 0.052 0.361 4.629 0.361 4.877 0.196-0.181 17.335-15.498 17.335-15.498 6.373-5.581 18.227-18.555 20.289-20.703l-6e-3 0.18c-2.302 2.401-13.916 15.111-20.195 20.621 0 0-14.671 13.088-17.178 15.332-0.154 0.098-0.276 0.173-0.373 0.219" fill="#fed600"/><path d="m44.358 76.346c0-0.248-0.361-4.825-0.361-4.877 0.229-0.186 12.206-9.856 12.206-9.856 8.772-7.45 24.102-22.403 24.162-22.61l0.043-0.586-0.033-0.104-0.047-0.146-0.228-0.342-0.01-0.027s-11.264-11.28-16.046-16.08c6.114 5.881 15.032 14.359 17.98 17.179l-8e-3 0.149c-0.802-0.766-7.466-7.124-10.914-10.409 3.649 3.638 9.062 9.083 9.062 9.083l0.037 0.046 0.225 0.338 0.078 0.162 0.016 0.151-0.043 0.605c-0.047 0.188-15.374 15.206-24.187 22.685 0 0-11.941 9.616-12.173 9.813 0 0.058 0.357 4.307 0.357 4.55 0.202-0.178 17.151-15.303 17.151-15.303 6.451-5.682 18.6-18.997 20.357-20.802v0.179c-2.062 2.148-13.916 15.122-20.289 20.703 0 1e-3 -17.139 15.318-17.335 15.499" fill="#fdd402"/><path d="m44.474 76.07c0-0.243-0.357-4.492-0.357-4.55 0.232-0.197 12.173-9.813 12.173-9.813 8.812-7.479 24.14-22.497 24.187-22.685l0.043-0.605-0.016-0.151-0.078-0.162-0.225-0.338-0.037-0.046s-5.412-5.444-9.062-9.083c3.448 3.285 10.112 9.643 10.914 10.409v0.165c-0.134-0.137-2.78-2.654-3.854-3.682 0.979 0.995 2.098 2.1 2.098 2.1l0.045 0.066-8e-3 -0.01c0.025 0.035 0.084 0.113 0.229 0.354l0.081 0.179 0.029 0.185-0.029 0.636c-0.063 0.172-15.403 15.263-24.253 22.772 0 0-11.886 9.576-12.118 9.776 0 0.04 0.363 3.976 0.363 4.211 0.197-0.173 16.941-15.129 16.941-15.129 6.554-5.752 19.066-19.495 20.444-20.874l-4e-3 0.171c-1.758 1.805-13.906 15.12-20.357 20.802 2e-3 0-16.947 15.125-17.149 15.302" fill="#fdd303"/><path d="m44.601 75.798c0-0.235-0.363-4.171-0.363-4.211 0.232-0.2 12.118-9.776 12.118-9.776 8.85-7.51 24.189-22.601 24.253-22.772l0.029-0.636-0.029-0.185-0.081-0.179c-0.146-0.241-0.204-0.32-0.229-0.354l8e-3 0.01-0.045-0.066s-1.118-1.105-2.098-2.1c1.073 1.027 3.72 3.545 3.854 3.682l-8e-3 0.183c-0.022-0.033-0.04-0.063-0.071-0.09 0 0-0.884-0.845-1.255-1.192l0.03 0.066 0.046 0.208-0.045 0.656c-0.037 0.178-15.405 15.322-24.28 22.841 0 0-11.85 9.562-12.073 9.749 0 0.06 0.357 3.678 0.357 3.903 0.195-0.17 16.739-14.946 16.739-14.946 6.535-5.736 19.097-19.542 20.458-20.895 0.037-0.036 0.068-0.066 0.078-0.105l-6e-3 0.208c-1.378 1.379-13.891 15.122-20.444 20.874-2e-3 -2e-3 -16.746 14.954-16.943 15.127" fill="#fcd006"/><path d="m80.885 38.455c-0.016 0.137-0.039 0.585-0.039 0.585-0.047 0.195-15.431 15.371-24.319 22.941-0.13 0.101-11.641 9.369-12.048 9.709 0 0.046 0.086 0.831 0.086 0.831s0.257 2.514 0.271 2.758c0.186-0.174 16.545-14.781 16.545-14.781 5.071-4.464 13.859-13.85 18.086-18.377l2.357-2.495h-7e-3c0-6e-3 0.065-0.105 0.077-0.141l-0.047-0.101c1e-3 0-0.704-0.68-0.962-0.929m-36.168 37.078c0-0.226-0.357-3.844-0.357-3.903 0.224-0.188 12.073-9.749 12.073-9.749 8.875-7.519 24.243-22.663 24.28-22.841l0.045-0.656-0.046-0.208-0.03-0.066c0.371 0.348 1.255 1.192 1.255 1.192 0.031 0.027 0.049 0.058 0.071 0.09l-0.017 0.194c-0.01 0.039-0.041 0.069-0.078 0.105-1.361 1.353-13.923 15.158-20.458 20.895 1e-3 1e-3 -16.543 14.777-16.738 14.947" fill="#fccf07"/><path d="m80.987 38.723c-6e-3 0.132-0.029 0.317-0.029 0.317l-2e-3 0.033c-0.044 0.169-15.44 15.423-24.363 23.001 0 0-11.744 9.472-11.989 9.668 0 0.052 0.082 0.827 0.082 0.827s0.241 1.925 0.261 2.443c0.187-0.162 16.354-14.613 16.354-14.613 5.076-4.444 13.846-13.836 18.062-18.347v1e-3s0.08-0.085 2.38-2.529l0.014-4e-3 0.023-0.036-0.037-0.067 0.037 0.032c-0.082-0.061-0.282-0.239-0.793-0.726m-36.152 36.556c-0.014-0.244-0.271-2.758-0.271-2.758s-0.086-0.785-0.086-0.831c0.407-0.34 11.918-9.608 12.048-9.709 8.889-7.57 24.272-22.746 24.319-22.941 0 0 0.023-0.449 0.039-0.585 0.258 0.25 0.963 0.93 0.963 0.93l0.047 0.101c-0.012 0.036-0.077 0.135-0.077 0.141h7e-3l-2.357 2.495c-4.227 4.527-13.015 13.913-18.086 18.377 0-1e-3 -16.36 14.606-16.546 14.78" fill="#fbcd0b"/><path d="m56.668 62.15c-0.012 0.026-0.073 0.066-0.174 0.17 0 0-11.724 9.446-11.776 9.474 0 0.067 0.33 2.727 0.335 2.966 0.184-0.167 16.159-14.432 16.159-14.432 5.069-4.466 13.846-13.846 18.061-18.359l0.336-0.35c0.021-0.01 1.824-1.927 2.001-2.134-0.049-0.067-0.355-0.344-0.519-0.512v0.078l-8e-3 0.056c-0.061 0.175-15.476 15.471-24.415 23.048v-5e-3m-11.722 12.863c-0.021-0.519-0.261-2.443-0.261-2.443s-0.082-0.775-0.082-0.827c0.245-0.196 11.989-9.668 11.989-9.668 8.923-7.578 24.319-22.832 24.363-23.001v-0.034s0.025-0.186 0.031-0.317c0.511 0.487 0.711 0.665 0.793 0.728l-0.037-0.032 0.037 0.067-0.023 0.036-0.014 4e-3c-2.3 2.444-2.38 2.529-2.38 2.529v-1e-3c-4.217 4.511-12.986 13.902-18.062 18.347 1e-3 -2e-3 -16.167 14.45-16.354 14.612" fill="#facb0c"/><path d="m45.053 74.76c-5e-3 -0.239-0.335-2.898-0.335-2.966 0.052-0.027 11.776-9.474 11.776-9.474 0.101-0.104 0.162-0.144 0.174-0.17v4e-3c8.939-7.577 24.354-22.873 24.415-23.048l8e-3 -0.056v-0.078c0.163 0.168 0.47 0.445 0.519 0.512-0.177 0.208-1.979 2.125-2.001 2.134l-0.336 0.35c-4.215 4.514-12.991 13.894-18.061 18.359 0 1e-3 -15.975 14.266-16.159 14.433" fill="#fac90e"/></g><path d="m8.798 33.491-3.67-3.683 3.776-3.757 3.669 3.676-3.775 3.764m67.227-6.982v4.125h1.073v-4.125z" fill="#f8ec17"/><g clip-rule="evenodd" fill-rule="evenodd"><path d="m48.848 25.535v24.039h-7.085l-0.037-19.662 3.063-0.762-0.896-3.581 4.955-0.034m-28.671 5.203v24.814h6.996v-20.2h1.51c0.7 0 2.653 0.963 2.653 3.032 0 2.202-1.962 4.007-3.577 5.276l7.3 12.115c2.016-1.665 5.737-5.166 5.737-5.166-2.966-3.396-6.223-6.923-6.223-6.923 3.188-2.602 3.98-4.543 3.81-6.819-0.364-4.821-4.855-5.719-8.287-6.129-2.691-0.311-6.984-0.115-9.919 0m36.946 24.735h7.222v-19.016h6.824v-6.103h-20.876v6.103h6.83v19.016m-39.65-31.007s-7.288 3e-3 -14.62 0.324v26.822h7.3l7e-3 -9.737 6.708 4e-3v-5.782l-6.805 0.025 0.01-5.604 7.383 0.011 0.017-6.063m75.915 15.329 4.725 0.171 1.887-12.213-5.856-0.462-0.756 12.504m-2.128 2.692 0.934 1.162 3.001 3.692 3.702-2.998-3.926-4.859-3.711 3.003"/><path d="m47.228 48.19h-8.331l-0.033-20.77 2.928-0.738-0.931-3.769 6.366-6e-3v25.283m7.027-13.128v19.031h8.477v-19.031l6.076 0.224 0.748 1e-3v-7.564h-22.119v7.564l0.685-0.072c-0.067 0 6.133-0.153 6.133-0.153m14.848-13.386v7.506l0.302-0.031c3.037-0.137 5.588-0.149 7.691-0.169l-9.858 19.013h1.46 19.64l-6e-3 -7.51-0.77 0.039c-3.527 0.234-6.181 0.207-8.209 0.169l9.949-18.531-1.072-0.07c-9.469-0.527-16.468-0.411-18.85-0.416h-0.277m-53.448 0.208s-7.72-0.022-15.073 0.304l-0.581 0.012v28.032h8.521l0.012-9.757 5.994 5e-3h0.704l4e-3 -7.125-6.803 0.033 9e-3 -4.165 6.718 0.016 0.681-0.015 0.014-6.825"/><path d="m25.527 40.9c1.521-1.244 2.971-2.791 2.971-4.515 0-1.656-1.605-2.446-2.057-2.446h-0.914v6.961m2.394-12.748c3.359 0.382 8.412 1.318 8.815 6.657 0.182 2.406-0.664 4.446-3.565 6.952l6.227 7.301-0.378 0.378c-1.697 1.756-3.636 3.408-5.65 5.065l-0.533 0.448-7.31-12.126v11.317h-8.19v-25.977l0.57-0.014c2.967-0.139 7.301-0.312 10.014-1e-3zm63.513-2.677 7.15 0.578-2.061 13.432-5.931-0.228 0.842-13.782m6.064 17.938-4.67 3.779-2.862-3.534 4e-3 5.715h-19.036-0.432l9.845-19.017c-2.282 0.035-4.938 0-11.078 0.311v-6.217c4.969-0.139 11.832-0.26 21.295 0.258l-9.987 18.574c1.856 0.06 4.388 0.114 7.719-0.039v-0.727h0.75l4.663-3.788 3.789 4.685"/><path d="m46.606 23.536v24.031h-7.085l-0.037-19.654 3.068-0.769-0.919-3.606 4.973-2e-3m-28.672 5.205v24.798h6.997v-20.189h1.51c0.7 0 2.654 0.967 2.654 3.036 0 2.191-1.961 3.997-3.577 5.27l7.472 12.401c2.017-1.654 3.93-3.306 5.603-5.025l-6.26-7.342c3.188-2.614 3.981-4.548 3.812-6.823-0.364-4.818-4.859-5.72-8.289-6.126-2.692-0.312-6.984-0.128-9.922 0m36.947 24.726h7.225v-19.011l6.825 0.144v-6.251h-20.877v6.251l6.827-0.144v19.011m14.735-24.934c3.553-0.175 6.208-0.15 8.488-0.175l-9.842 19.013h0.432 19.034l-7e-3 -6.234c-4.164 0.277-7.243 0.207-9.386 0.143l9.988-18.569c-9.467-0.526-16.326-0.409-18.708-0.413v6.235m-54.381-2.276v-3.756l-14.623 0.285v26.832h7.304l6e-3 -9.756h6.703v-5.776l-6.802 0.029 0.012-5.607 7.408-8e-3 -8e-3 -2.243m76.026 12.401 4.737 0.175 1.88-12.223-5.858-0.455-0.759 12.503m-1.363 3.961 3.007 3.708 3.698-3.003-2.999-3.698-3.706 2.993" fill="#e2001a"/></g></g></svg>
