<svg xmlns="http://www.w3.org/2000/svg" id="GFG" width="59.077" height="29.539" viewBox="0 0 59.077 29.539">
  <path id="Path_402" data-name="Path 402" d="M193.664,1471.966H169.257a9.748,9.748,0,0,1,17.129-5.146l3.55-3.57a14.77,14.77,0,0,0-25.724,8.716h-.085a14.77,14.77,0,0,0-25.724-8.716l3.55,3.57a9.748,9.748,0,0,1,17.129,5.146H134.674q-.043.565-.044,1.141a14.771,14.771,0,0,0,29.149,3.383h.778a14.769,14.769,0,0,0,29.149-3.383Q193.708,1472.531,193.664,1471.966ZM149.4,1482.855a9.749,9.749,0,0,1-9.151-6.385h18.3A9.75,9.75,0,0,1,149.4,1482.855Zm29.538,0a9.75,9.75,0,0,1-9.152-6.385h18.3A9.75,9.75,0,0,1,178.939,1482.855Z" transform="translate(-134.631 -1458.338)" fill="#2f8d46"/>
</svg>