<svg height="500mm" viewBox="0 0 512 500" width="512mm" xmlns="http://www.w3.org/2000/svg"><g fill="#1b1817"><path d="m0 0c-33.347 0-60.388-27.035-60.388-60.388 0-26.68 17.303-49.316 41.297-57.301 3.018-.559 4.126 1.31 4.126 2.905 0 1.439-.056 6.197-.082 11.243-16.8-3.653-20.345 7.125-20.345 7.125-2.747 6.979-6.705 8.836-6.705 8.836-5.479 3.748.413 3.671.413 3.671 6.064-.426 9.257-6.224 9.257-6.224 5.386-9.231 14.127-6.562 17.573-5.019.543 3.902 2.107 6.567 3.834 8.075-13.413 1.526-27.513 6.705-27.513 29.844 0 6.592 2.359 11.98 6.222 16.209-.627 1.521-2.694 7.663.586 15.981 0 0 5.071 1.622 16.61-6.191 4.817 1.338 9.983 2.009 15.115 2.033 5.132-.024 10.302-.695 15.128-2.033 11.526 7.813 16.59 6.191 16.59 6.191 3.287-8.318 1.22-14.46.593-15.981 3.872-4.229 6.214-9.617 6.214-16.209 0-23.195-14.127-28.301-27.574-29.796 2.166-1.874 4.096-5.549 4.096-11.183 0-8.08-.069-14.583-.069-16.572 0-1.608 1.086-3.49 4.147-2.898 23.982 7.994 41.263 30.622 41.263 57.294 0 33.353-27.037 60.388-60.388 60.388" fill-rule="evenodd" transform="matrix(4.2392528 0 0 -4.2392528 256 .64359)"/><path d="m0 0c-.133-.301-.605-.391-1.035-.185-.439.198-.684.607-.542.908.13.308.602.394 1.04.188.438-.197.688-.61.537-.911" transform="matrix(4.2392528 0 0 -4.2392528 96.961883 368.20048)"/><path d="m0 0c-.288-.267-.852-.143-1.233.279-.396.421-.469.985-.177 1.255.297.267.843.142 1.238-.279.396-.426.473-.984.172-1.255" transform="matrix(4.2392528 0 0 -4.2392528 107.33236 379.76723)"/><path d="m0 0c-.37-.258-.976-.017-1.35.52-.37.538-.37 1.182.009 1.44.374.258.971.025 1.35-.507.369-.546.369-1.19-.009-1.453" transform="matrix(4.2392528 0 0 -4.2392528 117.42562 394.5093)"/><path d="m0 0c-.331-.365-1.036-.267-1.552.232-.528.486-.675 1.177-.344 1.542.336.366 1.045.263 1.565-.231.524-.486.683-1.182.331-1.543" transform="matrix(4.2392528 0 0 -4.2392528 131.25277 408.75483)"/><path d="m0 0c-.147-.473-.825-.687-1.509-.486-.683.207-1.13.76-.992 1.238.142.476.824.7 1.513.485.682-.206 1.13-.756.988-1.237" transform="matrix(4.2392528 0 0 -4.2392528 150.32941 417.0261)"/><path d="m0 0c.017-.498-.563-.911-1.281-.92-.722-.016-1.307.387-1.315.877 0 .503.568.911 1.289.924.718.014 1.307-.387 1.307-.881" transform="matrix(4.2392528 0 0 -4.2392528 171.28151 418.55812)"/><path d="m0 0c.086-.485-.413-.984-1.126-1.117-.701-.129-1.35.172-1.439.653-.087.498.42.997 1.121 1.126.714.124 1.353-.168 1.444-.662" transform="matrix(4.2392528 0 0 -4.2392528 190.77611 415.24173)"/></g></svg>