<svg height="500" viewBox="0 0 500 500" width="500" xmlns="http://www.w3.org/2000/svg"><g fill="none" fill-rule="evenodd" transform="matrix(1 0 0 -1 2 476.3333)"><path d="m491.999988 194.666662-27.558666 84.814664-54.617332 168.097329c-2.809334 8.648-15.045333 8.648-17.856 0l-54.618665-168.097329h-181.366662l-54.619999 168.097329c-2.8093331 8.648-15.0453328 8.648-17.8559994 0l-54.617332-168.097329-27.55733263-84.814664c-2.51466661-7.736.23999999-16.210666 6.81999983-20.992l238.5133272-173.28932868 238.514661 173.28932868c6.58 4.781334 9.333333 13.256 6.82 20.992" fill="#fc6d26" transform="translate(1.198658 1.441591)"/><path d="m90.9999977 0 90.6839973 279.095993h-181.36799503z" fill="#e24329" transform="translate(156.864521 1.826925)"/><path d="m218.666661 0-90.683998 279.09466h-127.09199636z" fill="#fc6d26" transform="translate(29.197857 1.827458)"/><path d="m29.3333326 279.999993-27.55866598-84.814665c-2.51333327-7.735999.24-16.210666 6.82133317-20.990666l238.51332721-173.28932869z" fill="#fca326" transform="translate(.755191 .922525)"/><path d="m0 0h127.091997l-54.6186655 168.097329c-2.8106666 8.649333-15.0466663 8.649333-17.8559995 0z" fill="#e24329" transform="translate(30.088524 280.922251)"/><path d="m0 0 90.6839977 279.09466h127.0919973z" fill="#fc6d26" transform="translate(247.864518 1.827458)"/><path d="m218.666661 279.999993 27.558666-84.814665c2.513333-7.735999-.24-16.210666-6.821333-20.990666l-238.51332736-173.28932869z" fill="#fca326" transform="translate(246.973719 .922525)"/><path d="m127.999997 0h-127.09199702l54.61866532 168.097329c2.8106666 8.649333 15.0466663 8.649333 17.8559995 0z" fill="#e24329" transform="translate(337.640383 280.922251)"/></g></svg>