<svg viewBox="0 0 512 512" xmlns="http://www.w3.org/2000/svg"><path d="M0 0V512H512V0" fill="#fff"/><g transform="matrix(2 0 0 2-124-118)"><path fill="#e24329" d="m282.56 170.04l-26.14-68.22a6.81 6.81 0 00-2.69-3.24 7 7 0 00-8 .43 7 7 0 00-2.32 3.52l-17.65 54h-71.47l-17.65-54a6.86 6.86 0 00-2.32-3.53 7 7 0 00-8-.43 6.87 6.87 0 00-2.69 3.24l-26.19 68.19-.26.69a48.54 48.54 0 0016.1 56.1l.09.07.24.17 39.82 29.82 19.7 14.91 12 9.06a8.07 8.07 0 009.76 0l12-9.06 19.7-14.91 40.06-30 .1-.08a48.56 48.56 0 0016.08-56.04"/><path fill="#fc6d26" d="m132.58 185.84a88.19 88.19 0 00-35.14-15.84l-.26.69a48.54 48.54 0 0016.1 56.1l.09.07.24.17 39.82 29.82 36.57-27.64m92.56-59.17a88.3 88.3 0 00-35.15 15.8l-57.41 43.41 36.57 27.64 40.06-30 .1-.08a48.56 48.56 0 0016.1-56.08"/><path fill="#fca326" d="m153.43 256.89 31.7 23.97a8.07 8.07 0 009.76 0l31.7-23.97-36.59-27.64"/></g></svg>