<svg data-name="Logomark" xmlns="http://www.w3.org/2000/svg" viewBox="0 0 500 500"><rect width="500" height="500" fill="#d0fff1"/><path d="M210.89,251.88v-10.7H343.61v2.08C326.61,248.79,301.46,254,295,255c3.52,1.63,4.67,3.08,6.17,3.57a128.94,128.94,0,0,1,15.43,2.84,238.76,238.76,0,0,1,25.08,6.88c7.07,2.65,10.81,3.87,15,5.07a148.93,148.93,0,0,0,14.79,3.24c4.11.6,12.84-2.44,14.89-3S415,262.81,415,262.81s11.55-4.31,16.1-5.47c4.19-1.16,4.3.24,4.3.24a29.22,29.22,0,0,1,.9,3.72,61.11,61.11,0,0,1,.11,11.88,91.66,91.66,0,0,1-1.84,9.06,39.67,39.67,0,0,1-2.77,7.15c-.86,1.49-2.17,3.81-2.62,4.82a13.51,13.51,0,0,0-1.32,4.42,21.21,21.21,0,0,0,.3,6.25c.36,1.76,1.54,6.17,1.54,6.17l1.39,5.52-190.22-.24v11.16h-154a1.58,1.58,0,0,0,0-.8c-.16-.68-.94-1.68-3.91-3.47-3.83-2.49-15.92-6.87-19.4-8.15-.16-3.33-1.59-18.61,17.5-35.39a179.83,179.83,0,0,1,18-13.53s16.36-10.72,29.41-15" fill="#2800ff" style="isolation:isolate"/><path d="M431,316.57l-190.22-.24v11.16h-154c-.85,2.51-12.41,6.95-20.33,8.52,4.23,5.84,12.28,11.17,20.33,15.77a185,185,0,0,0,24.11,11c3,1.05,12.07,4.59,17.46,5a125.4,125.4,0,0,0,22.5-.42,108.14,108.14,0,0,0,11.76-1.83s.75,3,5.45,9.5c3.4,4.52,7.58,9.15,11.75,11.88,5,3.14,6.61,4.79,17.36,6.76a86.12,86.12,0,0,0,24.27,1.12c5.44-.5,10.76-.68,15.46-2,.22-6-.54-11.6-3-16.52,6.54.26,10.17.44,19.28.27,17.6-.34,36.82-4,52.57-7,13-2.48,34.32-8.45,44.5-11.83,5.85-1.95,19.75-6.68,21-6.7a34.94,34.94,0,0,1,9.61,1.78c6.5,1.92,11.5,3.66,22.47,7.58s20.71,7.38,26.64,8.19c4.39.6,4.93,0,5.24-2.2.5-2.78-3.37-9.08-5-14.06a26.3,26.3,0,0,1-1.15-15.79,41.53,41.53,0,0,1,1.5-4.55,25,25,0,0,0,1.36-9.44A28.69,28.69,0,0,0,431,316.57Z" fill="#5a78ff"/><path d="M428.56,225.43a20.11,20.11,0,0,1,.79-6.19c.37-1.21.76-2.29,1.48-4.33a24.71,24.71,0,0,0,1.15-9.67,49,49,0,0,0-1-5.76l-139.5-.24V210.1H86.89c.41,3-12.44,7.75-20.36,9.31,4.13,5.67,12.48,11.26,20.53,15.86a188,188,0,0,0,24.14,11c3.66,1.29,11.6,4.23,17.23,4.9l82.46.73v-10.7H343.61v2.08c2-.56,5-1.44,6.89-2.08,5.85-2,20-6.81,21.28-6.83,2.1,0,4.78.46,9.15,1.75,6.5,1.92,11.67,3.84,22.64,7.76s20.5,7.28,26.42,8.16c5.09.75,5.4-1,5.4-3,.11-2.58-3.72-9.14-5.32-14.12A30.8,30.8,0,0,1,428.56,225.43Z" fill="#fec1ee"/><path d="M436.25,144.81c.11,2,.41,10.05.11,11.89a70.59,70.59,0,0,1-1.7,8.3,52,52,0,0,1-2.91,7.7c-.85,1.49-2.24,3.78-2.68,4.79a15,15,0,0,0-1.26,4.66,21.23,21.23,0,0,0,.3,6.25c.36,1.76,1.54,6.17,1.54,6.17l1.37,4.91-139.5-.24V210.1H86.89s.18-1.21-3.52-3.52a160,160,0,0,0-19.73-8.13C63.11,195.68,61.94,180,81,163.2a181.32,181.32,0,0,1,18-13.54s15.83-11.23,32.83-16.26a86.1,86.1,0,0,1,12.5-2.55c12.07-1,31.39-1.45,33.29-1.39A139.75,139.75,0,0,1,190,115.13c7.21-7.09,11.29-9.83,15.6-10.31,5.94.34,37.78,7.79,46.77,10.46,5.16,1.46,15.48,4.26,23.68,7.68,8.43,3.24,10.48,6,10.48,6a76.45,76.45,0,0,0,5.14,6.88,45.16,45.16,0,0,0,9.29,6.06c2.4.59,6.46.64,15.63,2.86,9.59,2.28,18.19,4.72,25.06,6.85,7.1,2.37,10.8,4,15.05,5.1s11.05,2.73,14.81,3.28,12-2.44,14.09-3S415,146.32,415,146.32s14.75-5.27,16.08-5.7C435.51,139.17,436.25,139.06,436.25,144.81Z" fill="#ff7698" style="isolation:isolate"/><path d="M128.35,161.56c-9.65,0-16.93,7.41-17.42,17.9s7.83,17.91,17.42,17.91a17.91,17.91,0,0,0,0-35.81Zm-4.06,32c-7.41,0-13.42-5.28-13.36-13.77.25-7,6-13.78,13.36-13.78a13.78,13.78,0,0,1,0,27.55Z" fill="#fff"/><path d="M124.29,166.11c-7.41,0-13.17,6.8-13.36,13.78,0,8.5,6,13.78,13.36,13.78a13.79,13.79,0,0,0,0-27.56ZM118,189.05a4.49,4.49,0,1,1,4.37-4.49A4.42,4.42,0,0,1,118,189.05Z"/><ellipse cx="117.97" cy="184.56" rx="4.37" ry="4.49" fill="#fff"/><path d="M128.35,279c-9.65,0-16.93,7.4-17.42,17.9s7.83,17.9,17.42,17.9a17.91,17.91,0,0,0,0-35.8Zm-4.06,32c-7.41,0-13.42-5.28-13.36-13.78.25-7,6-13.77,13.36-13.77a13.78,13.78,0,0,1,0,27.55Z" fill="#fff"/><path d="M124.29,283.59c-7.41,0-13.17,6.79-13.36,13.77,0,8.5,6,13.78,13.36,13.78a13.78,13.78,0,0,0,0-27.55ZM118,306.53a4.49,4.49,0,1,1,4.37-4.49A4.43,4.43,0,0,1,118,306.53Z"/><ellipse cx="117.97" cy="302.04" rx="4.37" ry="4.49" fill="#fff"/><path d="M199.63,210.1c-2.49,9.37-5.09,17.08-5.13,17.21a4.25,4.25,0,0,0,2.66,5.39,4.3,4.3,0,0,0,1.36.22,4.23,4.23,0,0,0,4-2.88c.22-.63,3.2-9.5,5.88-19.94Z" fill="#5a78ff"/><path d="M180.08,210.1c-.78,1.76-1.34,2.84-1.37,2.89a3.64,3.64,0,1,0,6.44,3.41c.13-.25,1.39-2.67,2.84-6.3Z" fill="#5a78ff"/><path d="M204.14,186.83c0,.13,0,.25,0,.38-.49,6.63-2.45,15.31-4.47,22.89h8.79a138.81,138.81,0,0,0,4.14-22.1c1.08-7.33-3.41-21.12-6.38-29.17a727.46,727.46,0,0,1,75.93,6.89c43.13,6.25,95.16,32.09,95.68,32.35a4.24,4.24,0,1,0,3.8-7.59c-2.17-1.09-53.76-26.72-98.26-33.16A709.37,709.37,0,0,0,200,150.16a4.26,4.26,0,0,0-4,5.88C199.64,164.87,205.09,181.05,204.14,186.83Z" fill="#2800ff"/><path d="M185.13,187.7c.71,8.08-3,17.7-5,22.4H188c2.32-5.84,5.12-14.84,4.4-23a67.62,67.62,0,0,0-10.81-30.83,3.64,3.64,0,0,0-5.92,4.24A61.16,61.16,0,0,1,185.13,187.7Z" fill="#2800ff"/><path d="M199.71,327.46c-2.5,9.37-5.09,17.07-5.14,17.21a4.25,4.25,0,0,0,2.67,5.39,4.3,4.3,0,0,0,1.36.22,4.24,4.24,0,0,0,4-2.88c.21-.63,3.2-9.5,5.88-19.94Z" fill="#fec1ee"/><path d="M180.15,327.46c-.78,1.76-1.34,2.83-1.36,2.89a3.64,3.64,0,1,0,6.43,3.41c.13-.25,1.4-2.67,2.84-6.3Z" fill="#fec1ee"/><path d="M204.22,304.19c0,.13,0,.25-.05.38-.49,6.63-2.44,15.31-4.46,22.89h8.79a137.83,137.83,0,0,0,4.13-22.1c1.08-7.33-3.4-21.12-6.37-29.17a724.62,724.62,0,0,1,75.93,6.89c43.13,6.25,95.15,32.09,95.67,32.35a4.25,4.25,0,0,0,3.81-7.59c-2.18-1.09-53.76-26.72-98.26-33.17A710.52,710.52,0,0,0,200,267.52a4.25,4.25,0,0,0-4,5.87C199.72,282.23,205.17,298.41,204.22,304.19Z" fill="#ff7698"/><path d="M185.21,305.06c.71,8.08-3,17.7-5.06,22.4h7.91c2.33-5.84,5.12-14.84,4.4-23a67.54,67.54,0,0,0-10.8-30.83,3.64,3.64,0,0,0-5.93,4.24A61.11,61.11,0,0,1,185.21,305.06Z" fill="#ff7698"/></svg>