<svg overflow="scroll" viewBox="0 0 64 64" xmlns="http://www.w3.org/2000/svg" xmlns:xlink="http://www.w3.org/1999/xlink"><linearGradient id="a" gradientUnits="userSpaceOnUse" x1="14.0005" x2="32" y1="30.7436" y2="30.7436"><stop offset="0" stop-color="#c8c8c8"/><stop offset="1" stop-color="#cdcdcd"/></linearGradient><linearGradient id="b" gradientUnits="userSpaceOnUse" x1="28.6645" x2="50" y1="36.4474" y2="36.4474"><stop offset="0" stop-color="#d9d9d9"/><stop offset="1" stop-color="#e2e2e2"/></linearGradient><path d="m53 50h-42c-1.657 0-3-1.343-3-3v-30c0-1.657 1.343-3 3-3h42c1.657 0 3 1.343 3 3v30c0 1.657-1.343 3-3 3z" fill="#eaeaea"/><path d="m14 50h-3c-1.657 0-3-1.343-3-3v-30c0-1.657 1.343-3 3-3 1.657 0 3 1.343 3 3z" fill="#d54c3f"/><path d="m50 50h3c1.657 0 3-1.343 3-3v-30c0-1.657-1.343-3-3-3-1.657 0-3 1.343-3 3z" fill="#b63524"/><path d="m54.718 19.46c.775-.543 1.282-1.442 1.282-2.46 0-1.657-1.343-3-3-3-.639 0-1.232.2-1.718.54 0 0-19.28 14.037-19.28 14.037l-.002.001-.002-.001-19.28-14.037c-.486-.34-1.079-.54-1.718-.54-1.657 0-3 1.343-3 3 0 1.018.507 1.917 1.282 2.46l-.08-.059 22.798 16.599" fill="#de5145"/><path d="m54.799 19.401-22.799 16.599" fill="#de5145"/><path d="m53 14c-.639 0-1.232.2-1.718.54 0 0-19.28 14.037-19.28 14.037l-.002.001-.002-.001-19.28-14.037c-.486-.34-1.079-.54-1.718-.54z" fill="#efefef"/><path d="m14.001 24.188-5.056-5.008-.002.004c.106.1.219.192.339.276l-.08-.059 4.8 3.495-.001 1.328" fill="#c64132"/><path d="m28.668 38.591-14.668 11.409.001-25.937 14.664 14.524" fill="#e3e3e3"/><path d="m28.668 38.591 3.332-2.591-17.999-13.104v1.167l14.664 14.524z" fill="url(#a)"/><path d="m40.061 50h9.939v-27.105l-18 13.105-3.335 2.587z" fill="url(#b)"/></svg>