<?xml version="1.0" encoding="UTF-8" standalone="no"?>
<svg
   xmlns:dc="http://purl.org/dc/elements/1.1/"
   xmlns:cc="http://creativecommons.org/ns#"
   xmlns:rdf="http://www.w3.org/1999/02/22-rdf-syntax-ns#"
   xmlns:svg="http://www.w3.org/2000/svg"
   xmlns="http://www.w3.org/2000/svg"
   xmlns:xlink="http://www.w3.org/1999/xlink"
   version="1.1"
   id="Content"
   x="0px"
   y="0px"
   viewBox="0 0 12031.384 8750.098"
   enable-background="new 0 0 12031.384 8750.098"
   xml:space="preserve"><defs
     id="defs77"><linearGradient
       id="linearGradient54"><stop
         style="stop-color:#cecece;stop-opacity:0.48"
         offset="0"
         id="stop50" /><stop
         style="stop-color:#eaeaea;stop-opacity:1"
         offset="1"
         id="stop52" /></linearGradient><filter
       style="color-interpolation-filters:sRGB"
       id="filter889"
       x="-0.031284049"
       width="1.0625681"
       y="-0.070104311"
       height="1.1402086"><feGaussianBlur
         stdDeviation="156.82933"
         id="feGaussianBlur891" /></filter><linearGradient
       xlink:href="#linearGradient54"
       id="linearGradient56"
       x1="4534.7222"
       y1="4135.5386"
       x2="7728.189"
       y2="4023.7678"
       gradientUnits="userSpaceOnUse"
       gradientTransform="translate(27.942915,19.948978)" /></defs><path
     fill="#d23f31"
     d="M 31.933915,823.14641 V 7932.6006 c 0,451.178 369.145005,820.321 820.322005,820.321 H 1399.1369 V 823.14641 Z"
     id="path24" /><path
     fill="#c53929"
     d="M 10696.116,823.14641 V 8752.9216 h 546.882 c 451.177,0 820.321,-369.144 820.321,-820.321 V 823.14641 Z"
     id="path26" /><path
     id="polygon18"
     style="fill:#eeeeee"
     d="M 1399.1379,8750.098 H 10696.116 V 2190.0193 L 6047.6269,5369.005 Z" /><path
     style="fill:url(#linearGradient56);fill-opacity:1;stroke:none;stroke-width:1px;stroke-linecap:butt;stroke-linejoin:miter;stroke-opacity:1"
     d="m 299.38792,1441.0415 8486.63628,7305.0541 1910.0918,4.0024 13.972,-6558.5919 -4662.4611,3177.4989 z"
     id="path48" /><path
     style="fill:#e4e4e4;fill-opacity:1;stroke:#000000;stroke-width:0.98754px;stroke-linecap:butt;stroke-linejoin:miter;stroke-opacity:1"
     d="m 1399.1369,2401.7179 4648.49,2967.2871 -4648.489,3381.093 z"
     id="path44" /><path
     id="path44-2"
     style="fill:#d0d0d0;fill-opacity:1;stroke:none;stroke-width:0.99657px;stroke-linecap:butt;stroke-linejoin:miter;stroke-opacity:1"
     d="m 1417.0959,2175.5363 v 201.2676 l 3992.361,3456.5254 638.17,-464.3243 z" /><path
     fill="#db4437"
     d="M 11422.628,365.25781 6227.2596,3919.9847 1031.8896,365.25781 c -451.17699,0 -820.322,369.145 -820.322,820.32189 0,280.961 141.505,529.108 356.84001,676.766 L 6227.2596,5734.2627 11886.11,1862.3457 c 215.334,-147.658 356.84,-395.805 356.84,-676.766 0,-451.17689 -369.145,-820.32189 -820.322,-820.32189 z"
     id="path47-7"
     style="opacity:0.506329;fill:#808080;filter:url(#filter889)" /><path
     fill="#262626"
     fill-opacity="0.2"
     d="M 11244.992,8691.7865 H 854.25184 c -451.177,0 -820.322009,-369.144 -820.322009,-820.321 v 68.36 c 0,451.178 369.145009,820.321 820.322009,820.321 H 11244.992 c 451.177,0 820.321,-369.144 820.321,-820.321 v -68.36 c 0,451.177 -369.144,820.321 -820.321,820.321 z"
     id="path51" /><path
     fill="#3e2723"
     fill-opacity="0.25"
     d="M 11706.479,1428.727 6047.6269,5300.645 388.77492,1428.727 C 182.52192,1287.297 44.094915,1053.65 32.776915,787.30602 c -0.44,10.967 -0.842,21.946 -0.842,33.016 0,280.96098 141.505005,529.10798 356.840005,676.76598 L 6047.6269,5369.005 11706.479,1497.088 c 215.334,-147.658 356.84,-395.805 356.84,-676.76598 0,-11.07 -0.401,-22.048 -0.842,-33.015 -11.317,266.34298 -149.746,499.98998 -355.998,641.41998 z"
     id="path57" /><path
     id="path48-3"
     style="fill:#b0473e;fill-opacity:1;stroke:none;stroke-width:1px;stroke-linecap:butt;stroke-linejoin:miter;stroke-opacity:1"
     d="M 299.38792,1441.0415 1395.1459,2389.7328 V 2189.809 Z" /><g
     id="g39"><path
       id="polygon59"
       style="fill:#f1f1f1"
       d="M 852.25692,-2.2248564e-5 6047.6269,3554.727 11242.997,-2.2248564e-5 Z" /><polygon
       fill="#262626"
       fill-opacity="0.02"
       points="920.128,68.36 11111.256,68.36 11211.062,0 820.322,0 "
       id="polygon61"
       style="fill:#4d4d4d"
       transform="translate(31.935,-2.2248564e-5)" /></g><metadata
     id="metadata40"><rdf:RDF><cc:Work
         rdf:about=""><dc:title></dc:title><dc:format>image/svg+xml</dc:format><dc:type
           rdf:resource="http://purl.org/dc/dcmitype/StillImage" /></cc:Work></rdf:RDF></metadata><g
     id="g35"><g
       id="g29"><path
         fill="#db4437"
         d="M 11242.997,-2.2248564e-5 6047.6269,3554.727 852.25692,-2.2248564e-5 C 401.07992,-2.2248564e-5 31.934915,369.14498 31.934915,820.32198 31.934915,1101.283 173.43992,1349.43 388.77492,1497.088 L 6047.6269,5369.005 11706.479,1497.088 c 215.334,-147.658 356.84,-395.805 356.84,-676.76602 0,-451.177 -369.145,-820.322002248564 -820.322,-820.322002248564 z"
         id="path47" /><path
         fill="#ffffff"
         fill-opacity="0.2"
         d="M 11242.997,-2.2248564e-5 11143.19,68.359988 h 99.807 c 451.177,0 820.321,369.145002 820.321,820.322002 v -68.36 c 0,-451.177 -369.144,-820.322012248564 -820.321,-820.322012248564 z"
         id="path53"
         style="fill:#4d4d4d" /></g><path
       fill="#ffffff"
       fill-opacity="0.2"
       d="m 852.25692,68.359988 h 99.806 L 852.25692,-2.2248564e-5 C 401.07992,-2.2248564e-5 31.934915,369.14499 31.934915,820.32199 v 68.36 c 0,-451.177 369.145005,-820.322002 820.322005,-820.322002 z"
       id="path55"
       style="fill:#4d4d4d" /></g></svg>
