<?xml version="1.0" encoding="UTF-8" standalone="no"?>
<svg
   width="336.2045"
   height="317.04651"
   version="1.1"
   viewBox="0 0 315.19171 297.23015"
   xml:space="preserve"
   id="svg7"
   xmlns="http://www.w3.org/2000/svg"
   xmlns:svg="http://www.w3.org/2000/svg"
   xmlns:rdf="http://www.w3.org/1999/02/22-rdf-syntax-ns#"
   xmlns:cc="http://creativecommons.org/ns#"
   xmlns:dc="http://purl.org/dc/elements/1.1/"><metadata
     id="metadata1"><rdf:RDF><cc:Work
         rdf:about=""><dc:format>image/svg+xml</dc:format><dc:type
           rdf:resource="http://purl.org/dc/dcmitype/StillImage" /></cc:Work></rdf:RDF></metadata><defs
     id="defs1" /><path
     d="m 295.91053,202.52497 c 0,0 -0.45949,-2.81912 -0.72811,-2.79375 l -51.155,4.93563 c -4.07038,0.39303 -7.23163,3.63912 -7.51725,7.718 l -1.40538,20.1425 -39.575,2.82337 -2.69187,-18.255 c -0.59947,-4.0605 -4.14525,-7.12137 -8.24963,-7.12137 h -53.99125 c -4.10287,0 -7.64875,3.06087 -8.24825,7.12137 l -2.69337,18.255 -39.575001,-2.82337 -1.405376,-20.1425 c -0.285599,-4.08025 -3.446874,-7.32638 -7.51725,-7.7195 l -51.18,-4.93425 c -0.264387,-0.0255 -0.458075,2.79649 -0.722462,2.79649 l -0.06925,11.07025 43.345,6.98988 1.4195,20.3225 c 0.287,4.11425 3.606625,7.44088 7.723625,7.73638 l 54.503754,3.888 c 0.20642,0.0141 0.41001,0.0226 0.6136,0.0226 4.09587,0 7.636,-3.06237 8.2355,-7.12275 l 2.76962,-18.78375 h 39.59375 l 2.76963,18.78375 c 0.59803,4.05913 4.1425,7.12138 8.244,7.12138 0.20076,0 0.40152,-0.007 0.59805,-0.0213 l 54.51125,-3.888 c 4.11562,-0.29549 7.43662,-3.62225 7.72362,-7.73638 l 1.418,-20.3225 43.32625,-7.021 z"
     fill="#ffffff"
     id="path3"
     style="stroke-width:1.25" /><path
     d="M 125.53865,-2.9449882e-5 C 111.14053,3.2008766 96.897091,7.6561586 83.543343,14.377471 c 0.305391,11.790937 1.067625,23.08875 2.612907,34.564687 -5.185875,3.3225 -10.635938,6.174094 -15.48,10.063125 -4.9215,3.786188 -9.94875,7.409719 -14.404688,11.837813 C 47.368781,64.954565 37.947187,59.420596 28.240312,54.535283 17.776875,65.796533 7.9921873,77.951221 0,91.551534 6.0129373,101.27903 12.290625,110.39622 19.06875,119.04841 h 0.188597 v 83.47406 c 0.15269,9.4e-4 0.306487,0.008 0.457762,0.0219 l 51.174375,4.93284 c 2.680594,0.25873 4.781063,2.41688 4.967625,5.10319 l 1.578375,22.59 44.639066,3.186 3.07434,-20.85 c 0.39868,-2.70319 2.71856,-4.70578 5.45287,-4.70578 h 53.99063 c 2.73291,0 5.05237,2.00259 5.451,4.70578 l 3.07434,20.85 44.64094,-3.186 1.5765,-22.59 c 0.18804,-2.68622 2.28703,-4.84303 4.96763,-5.10319 l 51.15375,-4.93284 c 0.15127,-0.0142 0.30324,-0.0204 0.45592,-0.0219 v -6.66141 l 0.0219,-0.007 v -76.80562 h 0.18859 c 6.77925,-8.65256 13.05282,-17.77031 19.06875,-27.496875 -7.98946,-13.60125 -17.77875,-25.755938 -28.24218,-37.01625 -9.70407,4.88475 -19.13063,10.418437 -28.03313,16.307812 -4.4549,-4.428094 -9.4725,-8.051531 -14.40093,-11.837812 -4.84238,-3.889407 -10.30032,-6.741 -15.47626,-10.063125 1.54107,-11.475938 2.30429,-22.77375 2.61113,-34.564688 C 218.29569,7.6556896 204.05319,3.2001266 189.64757,-4.9824988e-4 183.89619,9.6660646 178.63663,20.132315 174.056,30.366065 168.62413,29.458387 163.16694,29.121908 157.70319,29.056846 v -0.0073 c -0.0382,0 -0.0737,0.0073 -0.1062,0.0073 -0.0338,0 -0.0704,-0.0073 -0.10437,-0.0073 v 0.0073 c -5.47434,0.065 -10.9275,0.401531 -16.36031,1.309219 C 136.5544,20.133252 131.29887,9.6660646 125.53887,-4.9824988e-4 Z M 19.169906,213.56247 c 0.02125,4.9455 0.08423,10.36313 0.08423,11.44219 0,48.59812 61.65,71.95687 138.243744,72.22594 h 0.1886 c 76.59469,-0.26864 138.225,-23.62782 138.225,-72.22594 0,-1.09856 0.0671,-6.49388 0.0897,-11.44219 l -45.9975,4.43663 -1.58569,22.71093 c -0.19087,2.73713 -2.36785,4.91578 -5.10497,5.11228 l -54.51094,3.88913 c -0.1329,0.01 -0.26585,0.0146 -0.39733,0.0146 -2.70891,0 -5.04544,-1.98928 -5.44556,-4.70943 l -3.12563,-21.19782 h -44.47781 l -3.12562,21.19782 c -0.41991,2.85309 -2.97,4.90547 -5.84288,4.69481 l -54.510931,-3.88913 c -2.737125,-0.19651 -4.914094,-2.37515 -5.104969,-5.11228 l -1.583891,-22.71091 -46.01625,-4.43663 z"
     fill="#478cbf"
     id="path4"
     style="stroke-width:0.9375" /><path
     d="m 85.050844,122.10934 c -17.025001,0 -30.835313,13.79626 -30.835313,30.82407 0,17.03906 13.809375,30.84187 30.835312,30.84187 17.033437,0 30.839997,-13.80281 30.839997,-30.84187 0,-17.02782 -13.80656,-30.82407 -30.839996,-30.82407 z m 145.087496,0 c -17.03625,0 -30.84187,13.79626 -30.84187,30.82407 0,17.03906 13.80562,30.84187 30.84187,30.84187 17.02406,0 30.83156,-13.80281 30.83156,-30.84187 0,-17.02782 -13.8075,-30.82407 -30.83156,-30.82407 z m -72.55031,18.03751 c -5.48278,0 -9.92625,4.04493 -9.92625,9.02156 v 28.39031 c 0,4.98084 4.44337,9.02156 9.92625,9.02156 5.48287,0 9.9375,-4.04072 9.9375,-9.02156 v -28.39031 c 0,-4.97663 -4.45434,-9.02156 -9.9375,-9.02156 z"
     fill="#ffffff"
     id="path5"
     style="stroke-width:0.9375" /><path
     d="m 88.001156,134.29684 c -11.305312,0 -20.469375,9.16913 -20.469375,20.47125 0,11.30213 9.164438,20.46188 20.469375,20.46188 11.310935,0 20.471254,-9.15994 20.471254,-20.46188 0,-11.30193 -9.160689,-20.47125 -20.471254,-20.47125 z m 139.181254,0 c -11.30251,0 -20.46001,9.16913 -20.46001,20.47125 0,11.30213 9.15816,20.46188 20.46001,20.46188 11.31375,0 20.46937,-9.15994 20.46937,-20.46188 0,-11.30193 -9.156,-20.47125 -20.46937,-20.47125 z"
     fill="#414042"
     id="path6"
     style="stroke-width:0.9375" /></svg>
