<?xml version="1.0" encoding="UTF-8"?>
<svg width="944" height="333.05" version="1.1" viewBox="0 0 884.99998 312.23336" xml:space="preserve" xmlns="http://www.w3.org/2000/svg" xmlns:cc="http://creativecommons.org/ns#" xmlns:dc="http://purl.org/dc/elements/1.1/" xmlns:rdf="http://www.w3.org/1999/02/22-rdf-syntax-ns#"><metadata><rdf:RDF><cc:Work rdf:about=""><dc:format>image/svg+xml</dc:format><dc:type rdf:resource="http://purl.org/dc/dcmitype/StillImage"/><dc:title/></cc:Work></rdf:RDF></metadata><defs><clipPath id="a"><path d="M 0,595.276 H 841.89 V 0 H 0 Z"/></clipPath></defs><g transform="matrix(1.25 0 0 -1.25 -131.75 559.11)"><g clip-path="url(#a)"><path d="m453.43 368.3c-13.113 0-23.367-4.1286-30.772-12.385-7.4107-8.2601-11.109-18.981-11.109-32.18 0-15.497 3.7857-27.245 11.357-35.247 7.5848-8.0011 17.543-11.997 29.889-11.997 6.6393 0 12.532 0.57238 17.681 1.7227 5.1542 1.1458 8.5802 2.3214 10.285 3.5112l0.51123 39.959c0 2.322-6.1289 3.3775-13.003 3.4951-6.8745 0.10632-14.742-1.3272-14.742-1.3272v-13.418h7.9116l-0.0879-5.981c0-2.2157-2.1966-3.3281-6.5772-3.3281-4.3862 0-8.2602 1.8563-11.621 5.5605-3.3683 3.7087-5.0435 9.1307-5.0435 16.274 0 7.1584 1.6368 12.435 4.9146 15.841 3.271 3.4022 7.5594 5.1094 12.833 5.1094 2.2157 0 4.5096-0.35738 6.895-1.0869 2.3865-0.72273 3.9797-1.4001 4.793-2.0347 0.80644-0.65262 1.5733-0.9624 2.2983-0.9624 0.72161 0 1.8906 0.84499 3.5068 2.5518 1.6186 1.7022 3.0684 4.2817 4.3477 7.7212 1.2736 3.4576 1.9116 6.108 1.9116 7.9878 0 1.8651-0.0419 3.1505-0.12451 3.8291-1.7882 1.9567-5.0886 3.5089-9.9023 4.6626-4.8047 1.1503-10.192 1.7212-16.151 1.7212zm78.344 0c-12.047 0-21.882-3.8738-29.5-11.615-7.6165-7.7511-11.424-19.134-11.424-34.167 0-15.025 3.7653-26.454 11.292-34.286 7.5373-7.8258 17.288-11.739 29.247-11.739 11.964 0 21.727 3.7621 29.307 11.288 7.5803 7.5419 11.367 19.035 11.367 34.487 0 15.44-3.7012 26.984-11.115 34.6-7.4005 7.6301-17.129 11.433-29.174 11.433zm169.36 0c-12.051 0-21.88-3.8738-29.505-11.615-7.6154-7.7511-11.423-19.134-11.423-34.167 0-15.025 3.7665-26.454 11.303-34.286 7.5306-7.8258 17.275-11.739 29.238-11.739 11.959 0 21.73 3.7621 29.307 11.288 7.5792 7.5419 11.367 19.035 11.367 34.487 0 15.44-3.701 26.984-11.109 34.6-7.4095 7.6301-17.131 11.433-29.178 11.433zm-112.05-1.1426c-1.7079 0-3.0893-0.62289-4.1514-1.8501-1.0688-1.2464-1.5982-2.9269-1.5982-5.0566v-76.611c0-3.9191 2.1754-5.8726 6.5142-5.8726h21.831c26.732 0 40.103 15.661 40.103 46.991 0 14.645-3.5144 25.366-10.544 32.175-7.0171 6.8112-17.296 10.225-30.829 10.225zm159.32 0c-1.4489 0-2.4706-1.9671-3.0644-5.8828-0.25561-1.8719-0.37793-3.7923-0.37793-5.7422 0-1.9612 0.12232-3.8737 0.37793-5.7422 0.59381-3.9259 1.6156-5.8799 3.0644-5.8799h15.321v-64.109c0-1.6921 4.2204-2.5503 12.645-2.5503 8.432 0 12.642 0.85824 12.642 2.5503v64.109h14.941c1.4466 0 2.4645 1.954 3.0674 5.8799 0.24996 1.8685 0.37939 3.7809 0.37939 5.7422 0 1.9499-0.12943 3.8703-0.37939 5.7422-0.60285 3.9157-1.6208 5.8828-3.0674 5.8828zm-216.96-23.376c4.0899 0 7.5171-1.8288 10.28-5.4844 2.7666-3.6601 4.1543-8.9015 4.1543-15.71 0-6.8146-1.3437-12.049-4.0254-15.706-2.6817-3.6703-6.1742-5.499-10.472-5.499-4.3003 0-7.766 1.8073-10.405 5.4346-2.6433 3.616-3.9624 8.8046-3.9624 15.583 0 6.7637 1.3875 12.02 4.1484 15.765 2.7756 3.7415 6.1975 5.6177 10.282 5.6177zm169.36 0c4.0899 0 7.5126-1.8288 10.28-5.4844 2.7666-3.6601 4.1514-8.9015 4.1514-15.71 0-6.8146-1.3425-12.049-4.0254-15.706-2.6783-3.6703-6.173-5.499-10.472-5.499-4.3003 0-7.7694 1.8073-10.405 5.4346-2.6354 3.616-3.958 8.8046-3.958 15.583 0 6.7637 1.3813 12.02 4.1411 15.765 2.7711 3.7415 6.2022 5.6177 10.288 5.6177zm-92.959-0.88477h1.2773c5.4483 0 9.43-1.2458 11.944-3.7148 2.5019-2.4623 3.7602-7.7634 3.7602-15.898 1e-5 -8.1311-1.2028-13.936-3.6357-17.423-2.4272-3.4904-5.977-5.2412-10.664-5.2412-1.2736 0-2.042 0.2352-2.2954 0.70459-0.25561 0.47165-0.38671 1.5957-0.38671 3.3794z" fill="#414042"/><path d="m348.13 279.27s-0.36759 2.2553-0.58249 2.235l-40.924-3.9485c-3.2563-0.31443-5.7853-2.9113-6.0138-6.1744l-1.1243-16.114-31.66-2.2587-2.1535 14.604c-0.47957 3.2484-3.3162 5.6971-6.5997 5.6971h-43.193c-3.2823 0-6.119-2.4487-6.5986-5.6971l-2.1547-14.604-31.66 2.2587-1.1243 16.114c-0.22848 3.2642-2.7575 5.8611-6.0138 6.1756l-40.944 3.9474c-0.21151 0.0204-0.36646-2.2372-0.57797-2.2372l-0.0554-8.8562 34.676-5.5919 1.1356-16.258c0.2296-3.2914 2.8853-5.9527 6.1789-6.1891l43.603-3.1104c0.16514-0.0113 0.32801-0.0181 0.49088-0.0181 3.2767 0 6.1088 2.4499 6.5884 5.6982l2.2157 15.027h31.675l2.2157-15.027c0.47843-3.2473 3.314-5.6971 6.5952-5.6971 0.16061 0 0.32122 6e-3 0.47844 0.017l43.609 3.1104c3.2925 0.23639 5.9493 2.8978 6.1789 6.1891l1.1344 16.258 34.661 5.6168z" fill="#fff"/><path transform="matrix(.75 0 0 -.75 105.4 447.29)" d="m141.91 8c-15.358 3.4143-30.551 8.1666-44.795 15.336 0.32575 12.577 1.1388 24.628 2.7871 36.869-5.5316 3.544-11.345 6.5857-16.512 10.734-5.2496 4.0386-10.612 7.9037-15.365 12.627-9.4963-6.2811-19.546-12.184-29.9-17.395-11.161 12.012-21.598 24.977-30.123 39.484 6.4138 10.376 13.11 20.101 20.34 29.33h0.20117v89.039c0.16287 0.00133 0.32692 0.00877 0.48828 0.02344l54.586 5.2617c2.8593 0.27598 5.0998 2.578 5.2988 5.4434l1.6836 24.096 47.615 3.3984 3.2793-22.24c0.42526-2.8834 2.8998-5.0195 5.8164-5.0195h57.59c2.9151 0 5.3892 2.1361 5.8144 5.0195l3.2793 22.24 47.617-3.3984 1.6816-24.096c0.20057-2.8653 2.4395-5.1659 5.2988-5.4434l54.564-5.2617c0.16136-0.01507 0.32346-0.02184 0.48632-0.02344v-7.1055l0.02344-0.00781v-81.926h0.20117c7.2312-9.2294 13.923-18.955 20.34-29.33-8.5221-14.508-18.964-27.473-30.125-39.484-10.351 5.2104-20.406 11.113-29.902 17.395-4.7519-4.7233-10.104-8.5883-15.361-12.627-5.1652-4.1487-10.987-7.1904-16.508-10.734 1.6438-12.241 2.4579-24.292 2.7852-36.869-14.245-7.1694-29.437-11.922-44.803-15.336-6.1348 10.311-11.745 21.475-16.631 32.391-5.794-0.96819-11.615-1.3271-17.443-1.3965v-0.007813c-0.04067 0-0.07862 0.007813-0.11328 0.007813-0.03614 0-0.07507-0.007813-0.11133-0.007813v0.007813c-5.8393 0.069333-11.656 0.4283-17.451 1.3965-4.8831-10.915-10.489-22.08-16.633-32.391zm-113.46 227.8c0.022667 5.2752 0.089844 11.054 0.089844 12.205 0 51.838 65.76 76.754 147.46 77.041h0.20117c81.701-0.28654 147.44-25.203 147.44-77.041 0-1.1718 0.07157-6.9268 0.09571-12.205l-49.064 4.7324-1.6914 24.225c-0.20359 2.9196-2.5257 5.2435-5.4453 5.4531l-58.145 4.1484c-0.14176 0.01066-0.28357 0.01562-0.42382 0.01562-2.8895 0-5.3818-2.1219-5.8086-5.0234l-3.334-22.611h-47.443l-3.334 22.611c-0.4479 3.0433-3.168 5.2325-6.2324 5.0078l-58.145-4.1484c-2.9196-0.20961-5.2417-2.5335-5.4453-5.4531l-1.6895-24.225-49.084-4.7324z" fill="#478cbf"/><path transform="matrix(.75 0 0 -.75 105.4 447.29)" d="m98.723 138.25c-18.16 0-32.891 14.716-32.891 32.879 0 18.175 14.73 32.898 32.891 32.898 18.169 0 32.896-14.723 32.896-32.898 0-18.163-14.727-32.879-32.896-32.879zm154.76 0c-18.172 0-32.898 14.716-32.898 32.879 0 18.175 14.726 32.898 32.898 32.898 18.159 0 32.887-14.723 32.887-32.898 0-18.163-14.728-32.879-32.887-32.879zm-77.387 19.24c-5.8483 0-10.588 4.3146-10.588 9.623v30.283c0 5.3129 4.7396 9.623 10.588 9.623s10.6-4.3101 10.6-9.623v-30.283c0-5.3084-4.7513-9.623-10.6-9.623z" fill="#fff"/><path transform="matrix(.75 0 0 -.75 105.4 447.29)" d="m101.87 151.25c-12.059 0-21.834 9.7804-21.834 21.836s9.7754 21.826 21.834 21.826c12.065 0 21.836-9.7706 21.836-21.826s-9.7714-21.836-21.836-21.836zm148.46 0c-12.056 0-21.824 9.7804-21.824 21.836s9.7687 21.826 21.824 21.826c12.068 0 21.834-9.7706 21.834-21.826s-9.7664-21.836-21.834-21.836z" fill="#414042"/></g></g></svg>