<svg xmlns="http://www.w3.org/2000/svg" width="134.1" height="192.2"><path d="M37 142.4a198.3 198.3 0 0115.1 22.3c3.9 7.4 5.5 12.3 8.3 21.1 1.7 4.9 3.3 6.4 6.7 6.4s5.3-2.5 6.6-6.3c2.6-8.4 4.7-14.7 8-20.7 6.5-11.6 14.6-21.9 22.5-31.9 2.1-2.8 16-19.1 22.2-32a77.1 77.1 0 007.7-33.9 66.5 66.5 0 00-7.6-31.3l-21.7 5.8-13.2 34.8-3.3 4.8-.7.9-.8 1-1.6 1.8-2.1 2.2-11.8 9.5-29.4 17z" fill="#34a853"/><path d="M6.6 98.9c7.2 16.4 21 30.9 30.4 43.5l49.8-58.9A26.5 26.5 0 0167 92.6a25.5 25.5 0 01-25.6-25.5 27 27 0 015.9-16.5l-33.8 9z" fill="#fbbc04"/><path d="M87.3 3a66.7 66.7 0 0139.2 33L86.8 83.4a27.4 27.4 0 005.9-16.5c0-14.6-12.3-25.5-25.6-25.5a26.7 26.7 0 00-19.8 9.1V20.7z" fill="#4285f4"/><path d="M15.7 24A66.6 66.6 0 0166.9 0a69.8 69.8 0 0120.4 3l-40 47.6H19z" fill="#1a73e8"/><path d="M6.6 98.9S0 86 0 67.3 6.9 34.1 15.7 24l31.6 26.6z" fill="#ea4335"/></svg>