<svg xmlns="http://www.w3.org/2000/svg" aria-label="google_maps" role="img" viewBox="0 0 512 512"><rect width="512" height="512" fill="#fff" rx="15%"/><clipPath id="a"><path d="M375 136a133 133 0 00-79-66 136 136 0 00-40-6 133 133 0 00-103 48 133 133 0 00-31 86c0 38 13 64 13 64 15 32 42 61 61 86a399 399 0 0130 45 222 222 0 0117 42c3 10 6 13 13 13s11-5 13-13a228 228 0 0116-41 472 472 0 0145-63c5-6 32-39 45-64 0 0 15-29 15-68 0-37-15-63-15-63z"/></clipPath><g clip-path="url(#a)"><path fill="#34a853" d="M375 115l111 93-221 262-111-93z"/><path fill="#ea4335" d="M148 108l77 64L95 327l-77-64z"/><path fill="#1a73e8" d="M234 5l77 65-86 102-77-64z"/><path fill="#fbbc04" d="M217 165l78 66-130 155-79-66z"/><path fill="#4285f4" d="M306 59l78 66-89 106-78-66z"/></g><circle cx="256" cy="198" r="51" fill="#fff"/></svg>
