<svg height="46" viewBox="0 0 46 46" width="46" xmlns="http://www.w3.org/2000/svg" xmlns:xlink="http://www.w3.org/1999/xlink"><defs><filter id="a" height="200%" width="200%" x="-50%" y="-50%"><feOffset dx="0" dy="1" in="SourceAlpha" result="shadowOffsetOuter1"/><feGaussianBlur in="shadowOffsetOuter1" result="shadowBlurOuter1" stdDeviation=".5"/><feColorMatrix in="shadowBlurOuter1" result="shadowMatrixOuter1" type="matrix" values="0 0 0 0 0   0 0 0 0 0   0 0 0 0 0  0 0 0 0.168 0"/><feOffset dx="0" dy="0" in="SourceAlpha" result="shadowOffsetOuter2"/><feGaussianBlur in="shadowOffsetOuter2" result="shadowBlurOuter2" stdDeviation=".5"/><feColorMatrix in="shadowBlurOuter2" result="shadowMatrixOuter2" type="matrix" values="0 0 0 0 0   0 0 0 0 0   0 0 0 0 0  0 0 0 0.084 0"/><feMerge><feMergeNode in="shadowMatrixOuter1"/><feMergeNode in="shadowMatrixOuter2"/><feMergeNode in="SourceGraphic"/></feMerge></filter><rect id="b" height="40" rx="2" width="40"/></defs><g fill="none" fill-rule="evenodd" transform="translate(-1 -1)"><path d="m1 1h46v46h-46z" fill="#4285f4" fill-opacity=".3"/><g filter="url(#a)" transform="translate(4 4)"><use fill="#fff" fill-rule="evenodd" xlink:href="#b"/><g fill="none"><use xlink:href="#b"/><use xlink:href="#b"/><use xlink:href="#b"/></g></g><g transform="translate(15 15)"><path d="m17.64 9.20454545c0-.63818181-.0572727-1.25181818-.1636364-1.84090909h-8.4763636v3.48136364h4.8436364c-.2086364 1.125-.8427273 2.0781818-1.7959091 2.7163636v2.2581819h2.9086363c1.7018182-1.5668182 2.6836364-3.874091 2.6836364-6.61500005z" fill="#4285f4"/><path d="m9 18c2.43 0 4.4672727-.8059091 5.9563636-2.1804545l-2.9086363-2.2581819c-.8059091.54-1.8368182.8590909-3.0477273.8590909-2.34409091 0-4.32818182-1.5831818-5.03590909-3.7104545h-3.00681818v2.3318182c1.48090909 2.9413636 4.52454545 4.9581818 8.04272727 4.9581818z" fill="#34a853"/><path d="m3.96409091 10.71c-.18-.54-.28227273-1.11681818-.28227273-1.71s.10227273-1.17.28227273-1.71v-2.33181818h-3.00681818c-.60954546 1.215-.95727273 2.58954545-.95727273 4.04181818 0 1.4522727.34772727 2.8268182.95727273 4.0418182z" fill="#fbbc05"/><path d="m9 3.57954545c1.3213636 0 2.5077273.45409091 3.4404545 1.3459091l2.5813637-2.58136364c-1.5586364-1.45227273-3.5959091-2.34409091-6.0218182-2.34409091-3.51818182 0-6.56181818 2.01681818-8.04272727 4.95818182l3.00681818 2.33181818c.70772727-2.12727273 2.69181818-3.71045455 5.03590909-3.71045455z" fill="#ea4335"/><path d="m0 0h18v18h-18z"/></g></g></svg>