<svg xmlns="http://www.w3.org/2000/svg" viewBox="0 0 512 512">
  <path fill="#fff" d="M0 0V512H512V0"/>
  <path fill="#ea4335" d="m258.333 247.9365-148.9654 158.11c.0055.0315.021.063.021.0944 4.5684 17.1675 20.2492 29.8095 38.86 29.8095 7.4395 0 14.4243-2.0113 20.4143-5.5422l.4753-.2791 167.6805-96.7577-78.4867-85.4337"/>
  <path fill="#fbbc04" d="m409.0374 221.009-.1427-.0945-72.3918-41.9663-81.558 72.5737 81.842 81.8309 72.0099-41.5492c12.6249-6.8156 21.195-20.1248 21.195-35.4726 0-15.2373-8.4553-28.4807-20.9544-35.3186"/>
  <path fill="#4285f4" d="M109.3602 105.9632c-.8951 3.3022-1.3662 6.761-1.3662 10.3527v279.387c0 3.585.4649 7.0556 1.3718 10.3459l154.0928-154.0645-154.098-146.0209"/>
  <path fill="#34a853" d="m259.4244 256.0064 77.1044-77.0819-167.4895-97.1073c-6.0879-3.6463-13.193-5.7507-20.7963-5.7507-18.6108 0-34.3125 12.6642-38.8824 29.8534-.0055.021-.0055.0314-.0055.042L259.4245 256.005"/>
</svg>