<svg enable-background="new 0 0 841.89 595.28" height="129.16048" viewBox="0 0 120.92399 129.16047" width="120.92399" xmlns="http://www.w3.org/2000/svg"><g transform="translate(0 .000007)"><path d="m89.178 84.522358c15.287-8.367 26.962-14.758 28.024-15.34 3.168-1.734 6.487-6.159 0-9.696-2.085-1.139-13.446-7.334-28.042-15.297l-20.075 20.229z" fill="#ffe300"/><path d="m69.084 64.418358-64.208 64.698002c1.45.184 3.194-.2 5.2-1.298 4.153-2.273 48.753-26.686 79.102-43.298002z" fill="#ff4e54"/><path d="m69.084 64.418358 20.075-20.229s-74.616-40.7089996-79.083-43.1459996c-1.717-.93699997-3.589-1.26399997-5.246-.89499997z" fill="#00f085"/><path d="m69.084 64.418358-64.255-64.26899957c-2.654.592-4.829 2.88899997-4.829 7.50599997v113.7500016c0 4.348 1.711 7.406 4.875 7.711z" fill="#00e0ff"/></g></svg>