<svg xmlns="http://www.w3.org/2000/svg" xmlns:xlink="http://www.w3.org/1999/xlink" version="1.1" id="Artwork" x="0px" y="0px" viewBox="0 0 945.8 797.8" style="enable-background:new 0 0 945.8 797.8;" xml:space="preserve">
<style type="text/css">
	.st0{fill:#4285F4;}
	.st1{fill:#34A853;}
	.st2{fill:#FBBC04;}
	.st3{fill:#EA4335;}
</style>
<g>
	<path class="st0" d="M675.6,199.5H352.3c-28.1,0-50.9,22.8-50.9,50.9v50.9h394c28.1,0,50.9,22.8,50.9,50.9v-82.1   C746.3,231.1,714.6,199.5,675.6,199.5z"/>
	<path class="st1" d="M270.2,199.5c-39,0-70.7,31.7-70.7,70.7v175.4c0,28.1,22.8,50.9,50.9,50.9h50.9V250.4c0,0,0,0,0,0   c0-28.1,22.8-50.9,50.9-50.9H270.2z"/>
	<path class="st2" d="M270.2,598.4h323.3c28.1,0,50.9-22.8,50.9-50.9v-50.9h-394c-28.1,0-50.9-22.8-50.9-50.9v82.1   C199.5,566.7,231.1,598.4,270.2,598.4z"/>
	<path class="st3" d="M675.6,598.4c39,0,70.7-31.7,70.7-70.7V352.3c0-28.1-22.8-50.9-50.9-50.9h-50.9v246.1c0,0,0,0,0,0   c0,28.1-22.8,50.9-50.9,50.9H675.6z"/>
</g>
</svg>