<?xml version="1.0" encoding="UTF-8" standalone="no"?>
<!-- Created with Inkscape (http://www.inkscape.org/) -->
<svg xmlns:dc="http://purl.org/dc/elements/1.1/" xmlns:cc="http://creativecommons.org/ns#" xmlns:rdf="http://www.w3.org/1999/02/22-rdf-syntax-ns#" xmlns:svg="http://www.w3.org/2000/svg" xmlns="http://www.w3.org/2000/svg" xmlns:sodipodi="http://sodipodi.sourceforge.net/DTD/sodipodi-0.dtd" xmlns:inkscape="http://www.inkscape.org/namespaces/inkscape" width="367.24213mm" height="64.824165mm" viewBox="0 0 367.24213 64.824165" version="1.1" id="svg14022" inkscape:version="0.92.3 (2405546, 2018-03-11)" sodipodi:docname="guacamole.svg">
  <defs id="defs14016"/>
  <sodipodi:namedview id="base" pagecolor="#ffffff" bordercolor="#666666" borderopacity="1.0" inkscape:pageopacity="0.0" inkscape:pageshadow="2" inkscape:zoom="0.98994949" inkscape:cx="751.39983" inkscape:cy="133.09183" inkscape:document-units="mm" inkscape:current-layer="layer1" showgrid="false" fit-margin-top="0" fit-margin-left="0" fit-margin-right="0" fit-margin-bottom="0" inkscape:window-width="3726" inkscape:window-height="2049" inkscape:window-x="114" inkscape:window-y="55" inkscape:window-maximized="1"/>
  <metadata id="metadata14019">
    <rdf:RDF>
      <cc:Work rdf:about="">
        <dc:format>image/svg+xml</dc:format>
        <dc:type rdf:resource="http://purl.org/dc/dcmitype/StillImage"/>
        <dc:title/>
      </cc:Work>
    </rdf:RDF>
  </metadata>
  <g inkscape:label="Layer 1" inkscape:groupmode="layer" id="layer1" transform="translate(120.43226,-119.22305)">
    <g id="g14596" transform="matrix(0.38281094,0,0,0.38281094,-118.11974,92.92045)">
      <g transform="translate(99.02976,-22.678571)" id="g14578">
        <path inkscape:connector-curvature="0" id="path14584" d="m -29.406548,260.30945 c -28.514627,-2.51803 -54.967954,-21.22627 -67.588994,-47.80008 -5.577268,-11.74304 -8.075118,-23.02164 -8.075118,-36.46175 0,-13.44011 2.49785,-24.71871 8.075118,-36.46174 8.288852,-17.45232 22.670767,-31.83423 40.123085,-40.123083 11.743031,-5.577267 23.021631,-8.075119 36.461742,-8.075119 13.4401108,0 24.7187107,2.497852 36.461742,8.075119 17.452318,8.288853 31.834234,22.670763 40.123085,40.123083 5.577266,11.74303 8.07512,23.02163 8.07512,36.46174 0,13.44011 -2.497854,24.71871 -8.07512,36.46175 -8.288851,17.45231 -22.670767,31.83423 -40.123085,40.12308 -14.0986723,6.69606 -28.679912,9.15858 -45.457575,7.677 z M -8.5417662,228.83032 C 10.197594,226.4856 25.030577,217.7548 34.320169,203.60148 c 2.181739,-3.32403 2.176489,-3.57742 -0.03963,-1.91267 -8.713631,6.54567 -23.847163,11.92371 -39.1157137,13.90067 -21.4407903,2.77612 -43.8038623,-0.5195 -60.9515773,-8.98237 -4.462592,-2.20241 -7.863578,-4.28219 -10.223177,-6.25171 -0.675039,-0.56344 -1.301715,-1.02444 -1.392613,-1.02444 -0.514575,0 2.328691,4.85948 4.566793,7.80521 8.557323,11.26288 21.256363,18.32541 37.778583,21.01041 2.797577,0.45463 6.324053,0.83415 11.07458,1.19185 2.696911,0.20307 12.276267,-0.11216 15.4408238,-0.50811 z M -10.551869,201.5829 c 14.301062,-1.26159 27.260361,-4.6632 39.173305,-10.28238 5.426604,-2.55966 11.279666,-6.2818 14.147837,-8.99703 1.059937,-1.00343 1.390359,-2.07713 2.413714,-7.84337 0.42613,-2.40109 1.023543,-5.04956 1.327581,-5.88547 0.995318,-2.73651 1.384779,-10.74073 0.683631,-14.05 -0.642604,-3.03295 -3.334726,-7.0627 -5.49583,-8.22653 l -0.921983,-0.49652 -1.621676,1.24785 c -0.891921,0.68632 -1.621676,1.29362 -1.621676,1.34956 0,0.0559 0.232079,0.49546 0.515731,0.97672 1.47601,2.50429 1.771166,7.27649 0.66635,10.77384 -2.618435,8.28882 -13.563843,15.92306 -28.8395321,20.1151 -9.65463237,2.64948 -18.0941473,3.7308 -29.2696919,3.75021 -10.708531,0.0186 -18.515695,-0.88769 -27.643492,-3.20899 -19.649376,-4.99704 -31.606379,-14.52806 -31.575866,-25.16937 0.008,-2.80817 0.832268,-4.88324 3.57523,-9.00114 1.38852,-2.08453 2.701126,-4.44182 3.319285,-5.96107 1.170363,-2.87638 1.22922,-2.84738 -1.928016,-0.95003 -5.530738,3.32372 -10.212729,7.78533 -12.084906,11.51608 -1.331223,2.65277 -1.618423,4.10002 -1.618423,8.15548 0,4.42048 0.383964,6.93869 1.348887,8.84658 0.669278,1.32333 0.863758,2.16209 1.168702,5.04047 0.764781,7.21881 0.645929,6.8544 2.976095,9.12478 8.736303,8.51216 29.437668,16.6161 47.952148,18.77178 7.496109,0.87279 16.306808,1.02501 23.352596,0.40345 z" style="fill:#d3b542;stroke-width:0.26458332"/>
        <path inkscape:connector-curvature="0" id="path14582" d="m -26.231548,260.56013 c -0.509323,-0.0579 -2.235729,-0.23356 -3.836458,-0.39032 -3.974854,-0.38926 -10.122165,-1.63445 -14.419792,-2.92087 -10.377389,-3.10627 -19.489012,-7.814 -28.310416,-14.62722 -3.574679,-2.76091 -11.42569,-10.61192 -14.186599,-14.1866 -9.636434,-12.47675 -15.408357,-26.25022 -17.475977,-41.70272 -0.63905,-4.776 -0.63905,-16.59355 0,-21.36956 2.06762,-15.45249 7.839543,-29.22596 17.475977,-41.70271 2.760909,-3.57468 10.61192,-11.4257 14.186599,-14.1866 12.476755,-9.636438 26.250222,-15.408358 41.702719,-17.475976 4.776007,-0.639053 16.593553,-0.639053 21.3695597,0 15.4524971,2.067618 29.2259643,7.839538 41.7027193,17.475976 3.574679,2.7609 11.42569,10.61192 14.186598,14.1866 9.636435,12.47675 15.408354,26.25022 17.475972,41.70271 0.639054,4.77601 0.639054,16.59356 0,21.36956 -2.067618,15.4525 -7.839537,29.22597 -17.475972,41.70272 -2.760908,3.57468 -10.611919,11.42569 -14.186598,14.1866 -12.440705,9.60859 -26.4290302,15.47908 -41.5636755,17.44306 -3.0829035,0.40005 -14.4957635,0.73971 -16.6446565,0.49535 z m 19.7114577,-31.8455 c 7.36633326,-1.16682 13.2458643,-2.98514 19.3461853,-5.98302 7.41972,-3.64629 13.995283,-8.99406 19.077288,-15.51518 2.075466,-2.66319 4.714055,-6.7726 4.491493,-6.99516 -0.08382,-0.0838 -0.856877,0.38969 -1.717913,1.05224 -8.337317,6.41542 -22.550747,11.66457 -37.6251783,13.89531 -11.5646437,1.71137 -24.6861747,1.61905 -35.7039247,-0.25119 -15.224874,-2.5844 -28.953356,-7.97748 -37.188782,-14.60921 -1.018646,-0.82029 -1.888805,-1.38468 -1.933689,-1.25421 -0.116366,0.33825 0.841367,2.1405 2.52154,4.74497 8.989211,13.93441 22.621705,21.96991 42.010065,24.7623 5.23667,0.75421 7.833788,0.89094 15.478124,0.8149 6.234891,-0.062 8.1820386,-0.17661 11.2447917,-0.66175 z m -7.9374997,-26.7448 c 10.9962576,-0.58802 21.4425842,-2.53252 31.353124,-5.83613 11.132259,-3.71085 21.561896,-9.30281 25.953492,-13.91524 1.342255,-1.40975 1.58809,-2.23464 2.627548,-8.81667 0.264282,-1.67349 0.683295,-3.51896 0.931138,-4.10104 0.80024,-1.87945 1.1607,-4.86178 1.170257,-9.68237 0.01013,-5.1059 -0.224547,-6.32289 -1.709245,-8.86401 -0.887984,-1.51982 -3.403989,-4.23873 -4.398404,-4.75312 -0.651095,-0.33679 -0.790845,-0.28566 -2.315105,0.84703 -0.892198,0.66301 -1.622181,1.33478 -1.622181,1.49283 0,0.15805 0.240993,0.78518 0.535538,1.39364 0.652362,1.34759 1.307356,4.32356 1.307356,5.93996 0,10.70742 -12.605342,20.46121 -32.6668519,25.27702 -24.8945371,5.97598 -54.7350301,2.84343 -72.2487351,-7.58441 -8.366977,-4.98179 -12.901125,-11.14972 -12.908896,-17.56032 -0.004,-3.33341 0.492628,-4.56506 3.894352,-9.65729 2.055114,-3.07642 4.460877,-8.37975 3.666357,-8.08222 -1.199091,0.44904 -4.575741,2.56642 -7.022753,4.40372 -4.517444,3.39186 -7.709076,7.25578 -8.890735,10.76348 -0.472069,1.40132 -0.548963,2.27424 -0.548963,6.23202 0,5.28041 0.222947,6.82428 1.305492,9.04029 0.623215,1.27574 0.833855,2.18989 1.072609,4.65499 0.163403,1.68712 0.454207,4.0487 0.64623,5.24796 0.322447,2.01381 0.437611,2.27234 1.506672,3.38216 0.636646,0.66093 2.329572,2.08157 3.762057,3.15699 12.263866,9.2069 32.982638,15.95041 52.233983,17.00102 5.738971,0.31319 6.844453,0.31495 12.365664,0.0197 z m 40.395283,-55.52312 c 8.301239,-4.72551 13.390735,-8.41046 15.301434,-11.07872 0.581022,-0.81139 1.056407,-1.7321 1.056407,-2.04602 0,-3.00693 -16.58819,-12.87368 -20.110587,-11.96189 -0.836306,0.21648 -2.162802,2.26584 -4.060069,6.27259 -1.192688,2.51878 -4.13976,9.9295 -4.13976,10.40986 0,0.0752 0.600106,0.46327 1.333568,0.86247 1.17392,0.63893 1.443316,0.95709 2.250305,2.65766 0.748218,1.57672 1.104916,2.02784 1.940441,2.45409 1.133282,0.57816 2.259306,1.79232 2.891288,3.11759 0.227509,0.4771 0.501747,0.86745 0.609414,0.86745 0.107667,0 1.425067,-0.69979 2.927559,-1.55508 z" style="fill:#578b34;stroke-width:0.26458332"/>
        <path inkscape:connector-curvature="0" id="path14580" d="m -25.173215,260.45414 c -4.930886,-0.38884 -11.129864,-1.39499 -15.742708,-2.55518 -24.037879,-6.04586 -44.142793,-22.26302 -55.029526,-44.38829 -4.292281,-8.72327 -6.806681,-16.77865 -7.935981,-25.4245 -0.22809,-1.74625 -0.55142,-3.77032 -0.71851,-4.49792 -0.40471,-1.76235 -0.40471,-13.3189 0,-15.08125 0.16709,-0.72761 0.49042,-2.75167 0.71851,-4.49792 1.1293,-8.64585 3.6437,-16.70123 7.935981,-25.4245 8.189303,-16.64325 21.428444,-29.88239 38.071687,-38.07169 8.72327,-4.292283 16.77865,-6.806681 25.424506,-7.935979 1.74625,-0.22809 3.770312,-0.551419 4.497916,-0.718509 1.76235,-0.404712 13.3189,-0.404712 15.08125,0 0.727604,0.16709 2.751666,0.490419 4.4979164,0.718509 8.64585559,1.129298 16.7012352,3.643696 25.4245056,7.935979 16.643243,8.1893 29.882385,21.42844 38.071688,38.07169 4.292283,8.72327 6.806679,16.77865 7.935979,25.4245 0.228089,1.74625 0.551418,3.77031 0.718508,4.49792 0.182528,0.79483 0.3038,3.8049 0.3038,7.54062 0,3.73573 -0.121272,6.74579 -0.3038,7.54063 -0.16709,0.7276 -0.490419,2.75167 -0.718508,4.49792 -1.1293,8.64585 -3.643696,16.70123 -7.935979,25.4245 -8.189303,16.64324 -21.428445,29.88239 -38.071688,38.07169 -8.7232704,4.29228 -16.77865001,6.80668 -25.4245056,7.93598 -1.7462504,0.22809 -3.7107814,0.52646 -4.3656244,0.66305 -1.645423,0.3432 -9.388454,0.51303 -12.435417,0.27275 z m 10.926358,-30.70276 c 5.2516214,-0.2912 8.6416483,-0.74182 13.150725,-1.74807 15.324865,-3.41989 27.81886,-11.93627 36.073976,-24.58938 2.802887,-4.29615 2.849589,-5.01446 0.190408,-2.92858 -7.997357,6.27318 -21.219282,11.4907 -35.20605073,13.89271 -7.61777737,1.30823 -10.02028427,1.48674 -19.97604127,1.4843 -7.450656,-0.002 -10.311625,-0.10203 -13.137041,-0.46012 -7.026008,-0.89045 -14.902145,-2.57709 -20.729625,-4.43915 -8.821679,-2.81879 -17.850244,-7.43984 -22.530244,-11.53155 -1.494089,-1.30628 -2.208297,-1.70805 -2.208297,-1.24226 0,0.33293 1.893779,3.89872 2.995173,5.63959 10.106885,15.97506 27.524588,24.75872 51.376701,25.90903 2.328333,0.11229 4.471458,0.22 4.7625,0.23937 0.291041,0.0194 2.648058,-0.0823 5.237816,-0.22589 z m 1.64135,-27.5179 c 12.67983603,-0.92535 24.449016,-3.5655 35.586458,-7.98302 8.275674,-3.28243 16.7236,-8.21684 20.189163,-11.79243 1.175824,-1.21315 1.488006,-2.22559 2.43178,-7.88648 0.352785,-2.11605 0.946393,-4.73094 1.319133,-5.81086 0.534263,-1.5479 0.735298,-2.84657 0.949807,-6.13567 0.410056,-6.28752 0.04798,-8.87844 -1.666727,-11.92667 -0.979363,-1.74102 -3.302249,-4.28128 -4.509368,-4.93135 l -0.905563,-0.48768 -1.561925,1.13214 c -2.227273,1.6144 -2.296792,1.7321 -1.706494,2.88918 0.937152,1.83697 1.407758,4.02845 1.395775,6.49974 -0.02154,4.44366 -1.56264,7.6797 -5.616831,11.79438 -15.249258,15.47679 -56.029449,20.81925 -85.70035,11.22729 -13.613656,-4.401 -22.66864,-11.20928 -25.066045,-18.8467 -0.595556,-1.89725 -0.669322,-2.51807 -0.565878,-4.7625 0.146074,-3.16946 0.619967,-4.31602 3.605115,-8.72243 1.162081,-1.71536 2.485128,-4.05681 2.940105,-5.20321 0.454978,-1.14641 1.000567,-2.41958 1.212422,-2.82926 0.606761,-1.17334 0.03957,-1.17707 -2.062758,-0.0136 -4.447127,2.46124 -9.114372,6.1784 -11.577536,9.22079 -3.303306,4.08008 -4.161235,7.11423 -3.850733,13.61848 0.188928,3.95758 0.610957,6.01641 1.580498,7.71029 0.464908,0.81224 0.674484,1.6897 0.800007,3.34951 0.293516,3.88121 0.970707,7.75759 1.509978,8.64342 0.705873,1.15949 4.337612,4.18015 7.505385,6.24251 16.395605,10.67428 41.653973,16.61768 63.764582,15.00409 z m -0.396875,-25.13384 c 12.28619955,-0.75548 23.233748,-3.25614 31.536825,-7.20369 4.183578,-1.98901 6.577787,-3.6249 9.368544,-6.40123 2.920404,-2.90532 4.035049,-4.95103 4.227441,-7.75864 0.135797,-1.98167 -0.508847,-4.37192 -1.211977,-4.49385 -0.318739,-0.0553 -6.345105,3.23382 -10.77363,5.88007 -0.468466,0.27993 -0.917964,0.44276 -0.998881,0.36184 -0.08092,-0.0809 -0.308975,-1.14695 -0.506794,-2.36895 -0.500782,-3.09356 -0.951568,-4.03125 -2.431142,-5.05712 -2.284532,-1.58398 -2.749889,-2.09313 -3.679357,-4.02557 -0.817086,-1.69879 -1.049872,-1.96833 -2.033706,-2.35479 -1.8269904,-0.71766 -3.9181565,-2.09944 -3.9181565,-2.589 0,-0.50525 1.6835675,-5.30419 2.7467374,-7.82947 0.3810661,-0.90512 0.6928461,-1.69328 0.6928461,-1.75148 0,-0.25786 -5.8629446,-4.45265 -6.729283,-4.81463 -1.125257,-0.47016 -5.0892338,-0.89755 -8.4842586,-0.91475 -3.3372954,-0.0169 -5.6473014,-0.39554 -8.8635414,-1.45279 -4.443368,-1.46064 -4.679558,-1.48588 -8.567137,-0.9153 -3.063957,0.44969 -3.619518,0.61355 -4.917987,1.45049 -3.447497,2.22212 -6.191166,3.02061 -10.404676,3.02809 -1.424964,0.003 -3.497564,0.19188 -4.60578,0.42079 -3.597894,0.74316 -4.649059,1.28167 -7.260121,3.71934 -3.306998,3.08739 -5.47724,4.54271 -9.417238,6.315 -4.151484,1.86743 -4.614418,2.18865 -5.221184,3.62291 -1.396997,3.3022 -2.062353,4.54725 -3.673774,6.87463 -2.584704,3.73309 -3.19128,5.18693 -2.985505,7.15566 0.50768,4.85723 5.757881,10.19871 13.712475,13.95088 11.530669,5.43899 28.306331,8.14111 44.39926,7.15156 z m 43.478179,-32.91728 c 6.656973,-4.06969 10.588887,-7.30953 11.771286,-9.69937 0.616815,-1.24669 0.536864,-1.69951 -0.528222,-2.99164 -2.62123,-3.18 -12.982291,-9.29566 -17.538916,-10.35241 -2.10842,-0.48898 -2.527964,-0.32038 -3.794864,1.52494 -1.949987,2.8403 -6.664547,13.71907 -6.664547,15.37835 0,0.22084 0.594892,0.72531 1.32198,1.12105 1.154004,0.62809 1.435518,0.95871 2.215531,2.60201 0.755386,1.59143 1.102993,2.01271 2.248072,2.72453 0.844664,0.52507 1.650476,1.31962 2.140768,2.11085 1.299771,2.09755 1.15715,2.05388 3.134801,0.9598 0.974127,-0.53891 3.536477,-2.05906 5.694111,-3.37811 z" style="fill:#030403;stroke-width:0.26458332"/>
      </g>
      <path transform="scale(0.26458333)" inkscape:connector-curvature="0" id="path14586" d="m 273.13949,676.63343 c -3.3335,-0.22308 -12.7278,-1.08319 -20.8762,-1.91136 C 183.0661,667.68913 106.97663,639.44123 68.673242,606.565 58.164762,597.54546 56.991422,594.85591 54.570047,574.23745 53.02058,561.04346 51.959098,555.92777 49.476577,549.6901 43.704135,535.18605 42.717532,507.57943 47.470914,493.56867 52.330696,479.24428 67.73802,461.98208 87.850146,448.3282 c 10.67819,-7.24929 16.987024,-10.90998 17.653574,-10.24343 0.71777,0.71777 -6.329472,15.72144 -10.848371,23.09632 -2.526015,4.12248 -6.480501,10.57146 -8.787745,14.33106 -7.082022,11.54 -8.553093,16.14326 -8.629871,27.00447 -0.125184,17.70928 5.919204,30.69833 21.650444,46.5256 25.306103,25.46056 69.162293,44.68035 125.258913,54.89418 18.63218,3.39247 30.23267,4.5842 54.81374,5.63109 36.25785,1.54419 73.60294,-0.86819 102.77006,-6.63861 76.89948,-15.2138 129.95767,-47.92642 139.92573,-86.27012 2.6414,-10.16054 1.7529,-26.8704 -1.84612,-34.7198 -1.49554,-3.26174 -2.71917,-6.27546 -2.71917,-6.69716 0,-0.42169 2.51496,-2.66553 5.5888,-4.9863 3.77212,-2.84798 6.20467,-4.02412 7.48344,-3.61825 3.74827,1.18965 13.12003,11.93069 17.09885,19.5971 4.82582,9.29842 6.1944,16.12299 6.1944,30.88897 0,13.50146 -1.41788,25.8536 -4.06301,35.39585 -1.07807,3.88909 -3.55509,15.1535 -5.5045,25.03201 -1.9494,9.87851 -4.21185,19.2517 -5.02766,20.8293 -2.11386,4.08777 -10.50169,11.34042 -21.70436,18.767 -44.45627,29.47137 -106.09781,50.03307 -172.80204,57.6414 -13.14087,1.49885 -58.73485,2.67978 -71.21576,1.84455 z" style="opacity:1;fill:#ffffff;fill-opacity:0.58588239;stroke:#ffffff;stroke-width:3.77952766;stroke-linecap:round;stroke-linejoin:round;stroke-miterlimit:4;stroke-dasharray:none;stroke-opacity:1"/>
      <path transform="scale(0.26458333)" inkscape:connector-curvature="0" id="path14588" d="m 270.10903,779.69669 c -1.66675,-0.23393 -8.93985,-1.13449 -16.16244,-2.00126 -77.49317,-9.29975 -136.21305,-44.81959 -168.177498,-101.73109 -1.808461,-3.21989 -3.098929,-6.04354 -2.867706,-6.27476 0.231222,-0.23122 3.977163,2.24309 8.324312,5.49848 8.434493,6.31621 28.852952,18.08595 40.492442,23.34091 35.94217,16.22708 74.37937,26.61108 118.18784,31.92904 21.56192,2.61742 77.50154,2.63239 98.48988,0.0264 60.57952,-7.52191 116.61711,-26.29916 151.86105,-50.88608 4.35287,-3.03666 8.14918,-5.28631 8.43626,-4.99924 0.71814,0.71814 -10.85605,17.79287 -17.9039,26.41255 -7.77984,9.51494 -26.00374,27.03165 -35.31724,33.94677 -30.35005,22.53436 -63.34619,35.74158 -107.47912,43.02022 -8.81432,1.45371 -70.13021,2.80632 -77.88388,1.7181 z" style="opacity:1;fill:#ffffff;fill-opacity:0.58588239;stroke:#ffffff;stroke-width:3.77952766;stroke-linecap:round;stroke-linejoin:round;stroke-miterlimit:4;stroke-dasharray:none;stroke-opacity:1"/>
    </g>
    <g aria-label="Apache Guacamole" style="font-style:normal;font-variant:normal;font-weight:normal;font-stretch:normal;font-size:29.18644524px;line-height:125%;font-family:Montserrat;-inkscape-font-specification:Montserrat;letter-spacing:0px;word-spacing:0px;fill:#000000;fill-opacity:1;stroke:none;stroke-width:1.06132531px;stroke-linecap:butt;stroke-linejoin:miter;stroke-opacity:1" id="text14600">
      <path d="m -41.051624,157.41394 -2.043051,4.64064 h -3.677492 l 8.989425,-20.40132 h 3.677492 l 8.989425,20.40132 h -3.677492 l -2.043051,-4.64064 z m 8.814307,-3.18133 -3.706679,-8.40569 -3.706679,8.40569 z" style="stroke-width:1.06132531px" id="path18986"/>
      <path d="m -14.428113,146.2939 q 3.12295,0 5.3411199,2.1598 2.2181698,2.15979 2.2181698,5.74973 0,3.58993 -2.2181698,5.83729 -2.1889839,2.24735 -5.1368139,2.24735 -2.918645,0 -5.253561,-2.5684 v 7.99708 h -3.268881 v -21.18936 h 3.268881 v 2.71434 q 1.926306,-2.94783 5.049255,-2.94783 z m -5.107628,8.02627 q 0,2.21817 1.342577,3.64831 1.342576,1.40095 3.268882,1.40095 1.926305,0 3.356441,-1.40095 1.430136,-1.40095 1.430136,-3.61912 0,-2.24736 -1.40095,-3.70668 -1.400949,-1.48851 -3.356441,-1.48851 -1.955492,0 -3.298068,1.48851 -1.342577,1.45932 -1.342577,3.67749 z" style="stroke-width:1.06132531px" id="path18988"/>
      <path d="M 9.4427504,162.05458 H 6.465733 v -2.07224 q -1.9263054,2.30573 -5.1660008,2.30573 -2.4224749,0 -4.0277294,-1.37176 -1.5760681,-1.37176 -1.5760681,-3.64831 0,-2.30573 1.6928138,-3.444 1.69281387,-1.13827 4.5822719,-1.13827 H 6.203055 V 152.102 q 0,-3.09376 -3.4440005,-3.09376 -2.15979698,0 -4.4947126,1.57607 l -1.4593223,-2.04305 q 2.83108523,-2.24736 6.421018,-2.24736 2.7435258,0 4.4655261,1.40095 1.7511867,1.37176 1.7511867,4.34878 z m -3.2688818,-5.77892 v -1.31339 H 2.4963765 q -3.5315599,0 -3.5315599,2.21817 0,1.13828 0.87559334,1.75119 0.87559336,0.58373 2.42247496,0.58373 1.576068,0 2.7435259,-0.87559 1.1674578,-0.8756 1.1674578,-2.36411 z" style="stroke-width:1.06132531px" id="path18990"/>
      <path d="m 20.909829,162.28807 q -3.239695,0 -5.574611,-2.18898 -2.334915,-2.21817 -2.334915,-5.77892 0,-3.56074 2.422475,-5.77891 2.451661,-2.24736 5.954035,-2.24736 3.502373,0 5.924848,2.42248 l -1.926305,2.3641 q -2.013865,-1.75119 -4.056916,-1.75119 -2.043052,0 -3.560747,1.37176 -1.488508,1.34258 -1.488508,3.50238 0,2.13061 1.488508,3.61912 1.488509,1.4885 3.648306,1.4885 2.188983,0 4.115289,-1.98467 l 1.926305,2.10142 q -2.831085,2.86027 -6.537764,2.86027 z" style="stroke-width:1.06132531px" id="path18992"/>
      <path d="m 34.107124,153.64888 v 8.4057 h -3.268882 v -21.62716 h 3.268882 v 8.93106 q 0.700475,-1.43014 2.101424,-2.24736 1.430136,-0.81722 3.064577,-0.81722 2.62678,0 4.232034,1.60525 1.634441,1.60526 1.634441,4.64065 v 9.51478 h -3.268881 v -8.52244 q 0,-4.29041 -3.560747,-4.29041 -1.692814,0 -2.947831,1.13827 -1.255017,1.10909 -1.255017,3.26888 z" style="stroke-width:1.06132531px" id="path18994"/>
      <path d="M 64.154109,155.72112 H 51.983361 q 0.116746,1.69282 1.546882,2.74353 1.430135,1.02152 3.268881,1.02152 2.918645,0 4.43634,-1.83874 l 1.867933,2.04305 q -2.510035,2.59759 -6.537764,2.59759 -3.268882,0 -5.574611,-2.15979 -2.276543,-2.18899 -2.276543,-5.83729 0,-3.6775 2.334916,-5.83729 2.334915,-2.1598 5.487051,-2.1598 3.181323,0 5.399493,1.92631 2.21817,1.89711 2.21817,5.25356 z m -12.170748,-2.56841 h 8.901866 q 0,-1.95549 -1.225831,-3.0062 -1.225831,-1.05071 -3.03539,-1.05071 -1.780373,0 -3.210509,1.10908 -1.430136,1.0799 -1.430136,2.94783 z" style="stroke-width:1.06132531px" id="path18996"/>
      <path d="m 90.29422,152.13119 h 3.444 v 6.97556 q -2.889458,3.18132 -8.259764,3.18132 -4.523899,0 -7.588476,-2.97702 -3.03539,-2.97701 -3.03539,-7.5301 0,-4.55308 3.093763,-7.58847 3.12295,-3.03539 7.530103,-3.03539 4.407153,0 7.325798,2.5684 l -1.838746,2.62678 q -1.196644,-1.02152 -2.422475,-1.40095 -1.196644,-0.40861 -2.801899,-0.40861 -3.093763,0 -5.195187,2.01387 -2.101424,1.98468 -2.101424,5.25356 0,3.23969 2.043051,5.22437 2.043051,1.95549 4.932509,1.95549 2.918645,0 4.874137,-1.25501 z" style="stroke-width:1.06132531px" id="path18998"/>
      <path d="m 108.67621,154.93309 v -8.4057 h 3.26888 v 15.52719 h -3.26888 v -2.83108 q -0.78804,1.43013 -2.18899,2.24735 -1.37176,0.81722 -2.97701,0.81722 -2.62678,0 -4.261226,-1.60525 -1.605254,-1.60526 -1.605254,-4.64065 v -9.51478 h 3.26888 v 8.52244 q 0,4.29041 3.56075,4.29041 1.69281,0 2.94783,-1.10908 1.25502,-1.13828 1.25502,-3.29807 z" style="stroke-width:1.06132531px" id="path19000"/>
      <path d="m 129.26678,162.05458 h -2.97702 v -2.07224 q -1.9263,2.30573 -5.166,2.30573 -2.42247,0 -4.02773,-1.37176 -1.57606,-1.37176 -1.57606,-3.64831 0,-2.30573 1.69281,-3.444 1.69281,-1.13827 4.58227,-1.13827 h 4.23204 V 152.102 q 0,-3.09376 -3.444,-3.09376 -2.1598,0 -4.49472,1.57607 l -1.45932,-2.04305 q 2.83109,-2.24736 6.42102,-2.24736 2.74353,0 4.46553,1.40095 1.75118,1.37176 1.75118,4.34878 z m -3.26888,-5.77892 v -1.31339 h -3.67749 q -3.53156,0 -3.53156,2.21817 0,1.13828 0.87559,1.75119 0.8756,0.58373 2.42248,0.58373 1.57606,0 2.74352,-0.87559 1.16746,-0.8756 1.16746,-2.36411 z" style="stroke-width:1.06132531px" id="path19002"/>
      <path d="m 140.73387,162.28807 q -3.23969,0 -5.57461,-2.18898 -2.33491,-2.21817 -2.33491,-5.77892 0,-3.56074 2.42247,-5.77891 2.45166,-2.24736 5.95404,-2.24736 3.50237,0 5.92484,2.42248 l -1.9263,2.3641 q -2.01387,-1.75119 -4.05692,-1.75119 -2.04305,0 -3.56074,1.37176 -1.48851,1.34258 -1.48851,3.50238 0,2.13061 1.48851,3.61912 1.48851,1.4885 3.6483,1.4885 2.18899,0 4.11529,-1.98467 l 1.92631,2.10142 q -2.83109,2.86027 -6.53777,2.86027 z" style="stroke-width:1.06132531px" id="path19004"/>
      <path d="m 163.12762,162.05458 h -2.97702 v -2.07224 q -1.9263,2.30573 -5.166,2.30573 -2.42247,0 -4.02773,-1.37176 -1.57606,-1.37176 -1.57606,-3.64831 0,-2.30573 1.69281,-3.444 1.69281,-1.13827 4.58227,-1.13827 h 4.23204 V 152.102 q 0,-3.09376 -3.444,-3.09376 -2.1598,0 -4.49472,1.57607 l -1.45932,-2.04305 q 2.83109,-2.24736 6.42102,-2.24736 2.74353,0 4.46553,1.40095 1.75118,1.37176 1.75118,4.34878 z m -3.26888,-5.77892 v -1.31339 h -3.67749 q -3.53156,0 -3.53156,2.21817 0,1.13828 0.87559,1.75119 0.87559,0.58373 2.42248,0.58373 1.57606,0 2.74352,-0.87559 1.16746,-0.8756 1.16746,-2.36411 z" style="stroke-width:1.06132531px" id="path19006"/>
      <path d="m 170.97559,153.64888 v 8.4057 h -3.26888 v -15.52719 h 3.26888 v 2.83109 q 0.70048,-1.43014 2.10143,-2.24736 1.43013,-0.81722 3.06457,-0.81722 3.6775,0 4.99089,3.03539 2.30573,-3.03539 5.74973,-3.03539 2.62678,0 4.23203,1.60525 1.63444,1.60526 1.63444,4.64065 v 9.51478 h -3.26888 v -8.52244 q 0,-4.29041 -3.56075,-4.29041 -1.66362,0 -2.91864,1.0799 -1.22583,1.05071 -1.2842,3.09376 v 8.63919 h -3.26889 v -8.52244 q 0,-2.21817 -0.78803,-3.2397 -0.78803,-1.05071 -2.48085,-1.05071 -1.69281,0 -2.94783,1.13827 -1.25502,1.10909 -1.25502,3.26888 z" style="stroke-width:1.06132531px" id="path19008"/>
      <path d="m 200.9113,157.96848 q 1.40094,1.40095 3.53156,1.40095 2.13061,0 3.50237,-1.40095 1.40095,-1.43014 1.40095,-3.67749 0,-2.24736 -1.40095,-3.64831 -1.37176,-1.43014 -3.50237,-1.43014 -2.13062,0 -3.53156,1.43014 -1.37177,1.40095 -1.37177,3.64831 0,2.24735 1.37177,3.67749 z m 9.36884,2.01386 q -2.33491,2.30573 -5.83728,2.30573 -3.50238,0 -5.83729,-2.30573 -2.33492,-2.33491 -2.33492,-5.69135 0,-3.35644 2.33492,-5.66217 2.33491,-2.33492 5.83729,-2.33492 3.50237,0 5.83728,2.33492 2.33492,2.30573 2.33492,5.66217 0,3.35644 -2.33492,5.69135 z" style="stroke-width:1.06132531px" id="path19010"/>
      <path d="m 219.60065,162.05458 h -3.26888 v -21.65634 h 3.26888 z" style="stroke-width:1.06132531px" id="path19012"/>
      <path d="M 238.75975,155.72112 H 226.589 q 0.11674,1.69282 1.54688,2.74353 1.43014,1.02152 3.26888,1.02152 2.91865,0 4.43634,-1.83874 l 1.86793,2.04305 q -2.51003,2.59759 -6.53776,2.59759 -3.26888,0 -5.57461,-2.15979 -2.27654,-2.18899 -2.27654,-5.83729 0,-3.6775 2.33491,-5.83729 2.33492,-2.1598 5.48705,-2.1598 3.18133,0 5.3995,1.92631 2.21817,1.89711 2.21817,5.25356 z M 226.589,153.15271 h 8.90186 q 0,-1.95549 -1.22583,-3.0062 -1.22583,-1.05071 -3.03539,-1.05071 -1.78037,0 -3.21051,1.10908 -1.43013,1.0799 -1.43013,2.94783 z" style="stroke-width:1.06132531px" id="path19014"/>
    </g>
    <g aria-label="TM" style="font-style:normal;font-variant:normal;font-weight:normal;font-stretch:normal;font-size:7.27604151px;line-height:125%;font-family:Montserrat;-inkscape-font-specification:Montserrat;letter-spacing:0px;word-spacing:0px;fill:#000000;fill-opacity:1;stroke:none;stroke-width:0.26458332px;stroke-linecap:butt;stroke-linejoin:miter;stroke-opacity:1" id="text14604">
      <path d="m 238.59874,137.65126 v 4.30014 h -0.85857 v -4.30014 h -1.54252 v -0.78581 h 3.94361 v 0.78581 z" style="stroke-width:0.26458332px" id="path18981"/>
      <path d="m 241.92765,141.9514 h -0.85858 v -5.08595 h 1.33879 l 1.53525,3.19418 1.53524,-3.19418 h 1.33152 v 5.08595 h -0.85857 v -3.97272 l -1.77536,3.52888 h -0.48022 l -1.76807,-3.52888 z" style="stroke-width:0.26458332px" id="path18983"/>
    </g>
  </g>
</svg>