<?xml version="1.0" encoding="utf-8"?>
<!-- Generator: Adobe Illustrator 18.0.0, SVG Export Plug-In . SVG Version: 6.00 Build 0)  -->
<!DOCTYPE svg PUBLIC "-//W3C//DTD SVG 1.1//EN" "http://www.w3.org/Graphics/SVG/1.1/DTD/svg11.dtd">
<svg version="1.1" id="Layer_1" xmlns="http://www.w3.org/2000/svg" xmlns:xlink="http://www.w3.org/1999/xlink" x="0px" y="0px"
	 width="320.5px" height="134.4px" viewBox="0 0 320.5 134.4" enable-background="new 0 0 320.5 134.4" xml:space="preserve">
<g id="Layer_1_1_" display="none">
	<path display="inline" fill="none" stroke="#3F3E29" stroke-width="2" stroke-linecap="round" stroke-miterlimit="10" d="
		M10.2,121.7l-4-29c0,0-2-10.3,5.7-16.4c7.8-6,20.7-12.4,25-13.8c4.3-1.4,6-1.7,9.8-0.3s17.2,7.8,20.1,9.5s5.5,3.4,6.9,13.8
		c1.4,10.3,4,33,4,33"/>
	<path display="inline" fill="none" stroke="#3F3E29" stroke-width="2" stroke-miterlimit="10" d="M13.3,88.4c0,0,25-17.5,55.4-3.8
		c0,0,3,11.3,2.7,24.2c0,0-20.4,12.4-55.6,3.5C15.8,112.3,12.3,105.9,13.3,88.4z"/>
	<g display="inline">
		<g>
			<path fill="#3F3E29" d="M-16.5,64.7c0.5,0.6,0.9,1.1,1.3,1.7l0.9,1.9l1.7,3.9l1.7,3.9l0.9,1.9c0.1,0.7,0.3,1.4,0.4,2.1
				c-0.5-0.6-0.9-1.2-1.3-1.7l-0.9-1.9l-1.7-3.9l-1.7-3.9l-0.9-1.9C-16.3,66.2-16.4,65.4-16.5,64.7z"/>
		</g>
		<g>
			<path fill="#3F3E29" d="M-14,77.9c-0.1-0.5-0.1-1,0-1.5l0.4-1.3l0.9-2.6l0.9-2.6l0.4-1.3c0.3-0.4,0.6-0.8,0.9-1.1
				c0,0.5,0,1,0,1.5l-0.4,1.3l-0.9,2.6l-0.9,2.6l-0.4,1.3C-13.3,77.2-13.6,77.6-14,77.9z"/>
		</g>
		<g>
			<path fill="#3F3E29" d="M-3.3,72.2c-0.4,0.3-0.7,0.4-1.1,0.6L-5.6,73l-2.3,0.3l-2.3,0.3l-1.1,0.1c-0.4-0.1-0.8-0.2-1.2-0.4
				c0.4-0.2,0.7-0.4,1.1-0.6l1.1-0.1l2.3-0.3l2.3-0.3l1.1-0.1C-4.1,71.9-3.7,72-3.3,72.2z"/>
		</g>
	</g>
	<g display="inline">
		<g>
			<path fill="#3F3E29" d="M130.2,111.4c-0.4-0.7-0.7-1.4-1-2.2l-0.5-2.3l-0.9-4.5l-0.9-4.5l-0.5-2.3c0-0.8,0-1.6,0-2.4
				c0.4,0.7,0.6,1.4,1,2.2l0.5,2.3l0.9,4.5l0.9,4.5l0.5,2.3C130.3,109.9,130.3,110.6,130.2,111.4z"/>
		</g>
		<g>
			<path fill="#3F3E29" d="M123.9,100.8c0.6,0.1,1.1,0.2,1.6,0.3l1.4,0.7l2.8,1.4l2.8,1.4l1.4,0.7c0.4,0.4,0.8,0.7,1.2,1.2
				c-0.6-0.1-1.1-0.2-1.6-0.3l-1.4-0.7l-2.8-1.4l-2.8-1.4l-1.4-0.7C124.7,101.6,124.3,101.2,123.9,100.8z"/>
		</g>
		<g>
			<path fill="#3F3E29" d="M125.4,108.6c0-0.4,0-0.7,0.1-1.1l0.5-0.8l1-1.7l1-1.7l0.5-0.8c0.3-0.2,0.6-0.4,0.9-0.6
				c0,0.4,0,0.7-0.1,1.1l-0.5,0.8l-1,1.7l-1,1.7l-0.5,0.8C126,108.2,125.7,108.4,125.4,108.6z"/>
		</g>
	</g>
	
		<path display="inline" fill="none" stroke="#3F3E29" stroke-width="1.5" stroke-linecap="round" stroke-linejoin="round" stroke-miterlimit="10" d="
		M9,126c0,0,41.5,4,70.8-7.8l-0.1,6c0,0-37.6,7.8-69.5,6.6l-1.1-2.3"/>
	<g display="inline">
		<path fill="#3F3E29" d="M130.5,129c2.1,0.5,4.1,1,6.2,1.5l-1,0.5l0.2-1.4c0-0.2,0.1-0.3,0.3-0.4l0.2-0.1c1.3-0.9,2.7-1.5,4.1-2.3
			l4.2-2.1l4.2-2.1l2.1-1c0.7-0.3,1.4-0.7,2.3-1c0.3-0.1,0.7,0,0.9,0.2l0,0l1.2,1l-1.5,0.3l1.5-3.1c0.1-0.3,0.4-0.5,0.7-0.5l0,0
			c1.3-0.2,2.6-0.7,3.7-1.3c0.6-0.3,1-0.7,1.5-1.1c0.5-0.5,0.9-1,1.4-1.6c0.9-1.1,1.7-2.2,2.4-3.4c0.3-0.6,0.7-1.2,0.9-1.8
			c0.2-0.6,0.4-1.3,0.4-1.5c0-0.1,0-0.3,0-0.4l0,0c0.1-0.3,0.1-0.7,0.2-1.1c0-0.4,0-0.7,0-1.1c0-0.7-0.2-1.3-0.6-1.6l0,0
			c-0.3-0.3-0.4-0.6-0.3-1c0.1-0.4,0.3-0.7,0.5-1c0.2-0.3,0.5-0.6,0.9-0.8c0.8-0.5,1.8-0.4,2.4-0.1c0.7,0.3,1.2,0.6,1.7,1
			c0.5,0.4,0.9,0.8,1.3,1.2l0,0c0.1,0.1,0.1,0.1,0.1,0.2c0.1,0.3,0.1,0.3,0.2,0.5l0.1,0.4c0.1,0.2,0.1,0.5,0.1,0.7
			c0,0.5,0,0.9,0,1.4c-0.1,0.9-0.2,1.8-0.4,2.7c-0.3,1.7-0.8,3.4-1.4,5.1c0.1-1.7,0.2-3.5,0.2-5.2c0-0.9-0.1-1.7-0.2-2.5
			c-0.1-0.4-0.1-0.8-0.2-1.2l-0.1-0.6c0-0.1,0-0.2-0.1-0.2c0-0.1-0.1-0.2,0-0.1l0.1,0.2c-0.7-0.7-1.5-1.5-2.2-1.7
			c-0.4-0.1-0.6-0.1-0.7,0c-0.2,0.1-0.4,0.4-0.5,0.7l-0.3-1c0.4,0.4,0.7,0.9,0.9,1.4c0.2,0.5,0.3,1,0.3,1.5c0,0.5,0,0.9,0,1.4
			c0,0.5-0.1,0.9-0.2,1.4l0-0.4c0.1,0.6,0,1.1-0.1,1.5c-0.1,0.4-0.2,0.8-0.4,1.2c-0.3,0.7-0.7,1.4-1,2.1c-0.8,1.3-1.6,2.5-2.5,3.7
			c-0.5,0.6-0.9,1.2-1.5,1.7c-0.5,0.6-1.2,1.1-1.9,1.5c-1.4,0.8-2.8,1.2-4.4,1.5l0.7-0.5l-1.5,3.1c-0.2,0.5-0.8,0.7-1.3,0.5
			c-0.1,0-0.1-0.1-0.2-0.1l-1.2-1l0.9,0.2c-0.6,0.2-1.3,0.6-2,0.9l-2.1,1l-4.2,2.1l-4.2,2.1c-1.4,0.7-2.7,1.5-4.2,2l0.4-0.6
			l-0.5,1.4l0,0.1c-0.1,0.3-0.5,0.5-0.8,0.4c0,0-0.1,0-0.1,0C134.2,130.9,132.4,130,130.5,129z"/>
	</g>
	
		<path display="inline" fill="none" stroke="#3F3E29" stroke-width="2" stroke-linecap="round" stroke-linejoin="round" stroke-miterlimit="10" d="
		M131.2,131.6c0,0,7.7,11.8,7.6,23.3l19.9-12.3c0,0,2.1-1.5,3.1-2.9c0,0,2.3-0.3,2.5-1.4c0,0,11.4-0.7,13.5-4.8l5.1-3.6"/>
	<g display="inline">
		<path fill="#3F3E29" d="M174.8,128c-0.8-0.3-1.5-1.1-1.7-2c-0.2-1,0.2-1.9,0.7-2.6l0.1-0.1l0.2-0.1c1.8-0.8,3.5-1.6,5.3-2.3
			c1.8-0.7,3.7-1.3,5.5-1.9l0.4-0.1l0.1,0.3c0.3,0.7,0.5,1.3,0.6,2c0.1,0.7,0.3,1.4,0.1,2.1c-0.1,0.4-0.3,0.8-0.6,1
			c-0.3,0.2-0.6,0.4-0.9,0.5c-0.6,0.3-1.2,0.6-1.9,0.9c-2.5,1.1-5.1,2.1-7.7,3l0.5-0.6c0,0.3,0,0.6,0,0.9c0,0.3,0.1,0.6,0.2,0.9
			c0.2,0.6,0.5,1,0.9,1.2l-0.7-0.1c1.6-0.6,3.2-1.1,4.8-1.6c1.6-0.5,3.2-1,4.8-1.4l-0.3,0.2c0.1-0.2,0.2-0.6,0.3-0.9
			c0-0.3,0-0.7,0-1c-0.1-0.7-0.5-1.3-1-1.9l0.1-0.1c0.7,0.4,1.2,1,1.5,1.8c0.2,0.4,0.2,0.8,0.2,1.2c0,0.4,0,0.8-0.2,1.3l-0.1,0.2
			l-0.2,0.1c-1.5,0.7-3.1,1.3-4.7,1.9c-1.6,0.6-3.1,1.2-4.7,1.7l-0.4,0.1l-0.3-0.2c-0.4-0.2-0.8-0.6-1-1c-0.2-0.4-0.4-0.8-0.5-1.2
			s-0.2-0.8-0.2-1.2c0-0.4,0-0.8,0-1.2l0.1-0.5l0.5-0.1l3.9-1.1c1.3-0.4,2.6-0.7,3.9-1.1c0.6-0.2,1.3-0.4,1.9-0.7
			c0.3-0.1,0.6-0.3,0.9-0.5c0.3-0.2,0.4-0.4,0.5-0.7c0.1-0.6,0-1.3-0.2-1.9c-0.2-0.6-0.5-1.2-0.8-1.8l0.5,0.2
			c-1.7,0.8-3.5,1.7-5.3,2.5c-1.8,0.7-3.6,1.4-5.4,2l0.2-0.2c-0.5,0.6-0.8,1.3-0.8,2c0,0.7,0.4,1.4,1.1,1.9L174.8,128z"/>
	</g>
	<g display="inline">
		<path fill="#3F3E29" d="M185.1,119.5c0.1-1,0.2-1.9,0-2.8c-0.1-0.4-0.2-0.8-0.3-1.1c-0.2-0.3-0.4-0.5-0.7-0.7l0.5,0
			c-0.9,0.3-1.9,0.4-2.8,0.7c-0.9,0.3-1.8,0.8-2.6,1.3c-0.8,0.5-1.7,1-2.6,1.4c-0.9,0.4-1.8,0.8-2.7,1.2l0.4-0.3
			c-0.2,0.3-0.3,0.7-0.5,1.1c-0.1,0.4-0.2,0.8-0.2,1.2c0,0.4,0.1,0.8,0.2,1.2c0.1,0.4,0.4,0.8,0.7,1.1l-0.1,0.1
			c-0.5-0.2-0.9-0.4-1.2-0.8c-0.4-0.4-0.6-0.9-0.7-1.4c-0.1-0.5-0.1-1.1,0-1.6c0.1-0.5,0.2-1,0.5-1.5l0.1-0.2l0.3-0.1
			c0.9-0.4,1.8-0.7,2.7-1c0.9-0.3,1.8-0.6,2.8-0.8c1-0.2,1.9-0.5,2.8-0.9c0.9-0.4,1.7-1,2.6-1.5l0.2-0.1l0.3,0.1
			c0.5,0.2,1.1,0.7,1.3,1.2c0.3,0.6,0.4,1.1,0.3,1.7c0,0.5-0.1,1.1-0.3,1.5c-0.2,0.5-0.4,0.9-0.7,1.3L185.1,119.5z"/>
	</g>
	<g display="inline">
		<path fill="#3F3E29" d="M184.1,114.2c-0.2-0.8-0.4-1.6-0.7-2.2c-0.2-0.3-0.4-0.6-0.6-0.8c-0.2-0.2-0.5-0.4-0.7-0.5l0.5,0
			c-0.8,0.3-1.7,0.4-2.5,0.7c-0.8,0.3-1.5,0.7-2.2,1.1c-0.7,0.5-1.4,0.9-2.2,1.3c-0.7,0.4-1.5,0.8-2.3,1.1l0.3-0.3
			c-0.2,0.2-0.4,0.6-0.5,0.9c-0.1,0.3-0.2,0.6-0.3,1c-0.1,0.7,0.1,1.4,0.6,2.2l-0.1,0.1c-0.8-0.4-1.5-1.2-1.6-2.2
			c-0.1-0.5-0.1-1,0.1-1.5c0.1-0.5,0.3-0.9,0.6-1.4l0.1-0.2l0.2-0.1c0.8-0.3,1.5-0.6,2.3-0.9c0.8-0.3,1.6-0.5,2.4-0.7
			c0.8-0.2,1.6-0.5,2.4-0.9c0.7-0.4,1.4-1,2.1-1.4l0.2-0.1l0.3,0.1c0.5,0.1,0.9,0.4,1.2,0.8c0.3,0.4,0.6,0.8,0.7,1.3
			c0.2,0.9,0.1,1.8-0.2,2.6L184.1,114.2z"/>
	</g>
	<g display="inline">
		<path fill="#3F3E29" d="M173.4,111.7c0.3-0.4,0.6-0.7,1-1l1.2-0.2c0.8-0.2,1.5-0.3,2.3-0.5c0.8-0.1,1.6-0.3,2.3-0.4
			c0.4,0,0.8-0.1,1.2-0.1c0.4,0.2,0.8,0.4,1.2,0.7c-0.4,0.3-0.7,0.6-1.1,0.8c-0.4,0-0.8,0.1-1.1,0.1c-0.8,0.1-1.5,0.2-2.3,0.3
			c-0.8,0.1-1.5,0.3-2.3,0.4c-0.4,0.1-0.8,0.2-1.1,0.3C174.3,112.1,173.9,111.9,173.4,111.7z"/>
	</g>
	<path display="inline" fill="none" stroke="#3F3E29" stroke-width="2" stroke-linejoin="round" stroke-miterlimit="10" d="
		M-13.9,196.8"/>
	<g display="inline">
		<path fill="#3F3E29" d="M11.6,154.7c-0.3,1.8-0.8,3.5-1.3,5.1l0.1-0.4c0.4,4.3,0.7,8.5,0.6,12.8l-0.3,12.8
			c-0.2,8.6-0.4,17.1-0.7,25.7l-0.3,0c-0.5-8.5-0.8-17.1-1.2-25.6l-0.6-12.8c-0.1-4.3,0.1-8.6,0.4-12.8l0-0.3l0.1-0.1
			c0.9-1.5,1.9-3,3-4.4L11.6,154.7z"/>
	</g>
	
		<line display="inline" fill="none" stroke="#3F3E29" stroke-width="2" stroke-linecap="round" stroke-miterlimit="10" x1="6.3" y1="158.2" x2="8.8" y2="161.7"/>
	
		<path display="inline" fill="none" stroke="#3F3E29" stroke-width="2" stroke-linecap="round" stroke-linejoin="round" stroke-miterlimit="10" d="
		M131.8,133.8c-8.6,3.3-11.8,5.7-14.1,5.7s-18.3-10.2-21.2-11.4c-2.9-1.2-21-3.8-21-3.8"/>
	<g display="inline">
		<path fill="#3F3E29" d="M82.8,149.7c1.1,5.1,1.9,10.2,2.8,15.3l0.7,3.8c0.1,0.6,0.2,1.2,0.4,1.8c0.1,0.3,0.2,0.6,0.2,0.8l0.1,0.2
			l0.1,0.2c0.1,0.3,0.1,0.4,0.2,0.6c0.6,2.7,0.9,5.2,1.2,7.8c0.5,5.1,1.2,10.3,1.9,15.4c0.4,2.6,0.7,5.1,1.1,7.6
			c0.2,1.3,0.4,2.5,0.7,3.8c0.1,0.6,0.3,1.2,0.5,1.9c0.2,0.6,0.4,1.3,0.7,1.7l0,0c0.1,0.1,0,0.2,0,0.2c-0.1,0-0.1,0-0.2,0
			c-0.5-0.5-0.7-1.1-1-1.7c-0.2-0.6-0.5-1.2-0.7-1.8c-0.4-1.2-0.7-2.5-1.1-3.8c-0.6-2.5-1.2-5-1.8-7.6c-1.1-5.1-2-10.2-3-15.2
			c-0.5-2.5-1-5.1-1.4-7.5c0-0.1-0.1-0.3-0.1-0.3c0,0,0-0.1,0-0.1l-0.1-0.2l-0.1-0.3c-0.1-0.4-0.2-0.7-0.2-1c-0.1-0.7-0.2-1.3-0.3-2
			c-0.2-1.3-0.3-2.6-0.4-3.9c-0.4-5.2-0.7-10.4-0.6-15.6c0-0.1,0.1-0.1,0.2-0.1C82.7,149.5,82.8,149.6,82.8,149.7z"/>
	</g>
	<g display="inline">
		<path fill="#3F3E29" d="M134.7,153.3c-2,1.2-4.1,2.3-6.2,3.3c-2.1,1-4.2,2-6.4,2.9c-0.6,0.2-1.1,0.4-1.7,0.6
			c-0.3,0.1-0.6,0.2-1,0.3l-0.5,0.1l-0.3,0.1c-0.9,0.3-1.9,0.9-3.2,1.3c-1.3,0.5-3,0.5-4.4-0.1l-3.2-1.5l0.4,0.1
			c-1.4-0.2-2.5-0.6-3.8-0.9c-1.2-0.4-2.4-0.7-3.6-1.1c-2.3-0.9-4.7-1.7-6.9-2.7c-2.3-1-4.5-2.1-6.7-3.2c-2.2-1.1-4.4-2.3-6.5-3.6
			c2.4,0.7,4.7,1.5,7.1,2.3l7,2.3c2.3,0.7,4.6,1.5,7,2.2c1.2,0.4,2.3,0.7,3.5,1c1.1,0.3,2.4,0.6,3.4,0.8l0.1,0
			c0.1,0,0.3,0.1,0.4,0.1l3,1.5c0.8,0.3,1.5,0.3,2.5,0.1c1-0.2,2-0.8,3.3-1.1c0.2,0,0.3-0.1,0.6-0.1l0.4-0.1c0.2,0,0.5-0.1,0.7-0.2
			c0.5-0.1,1.1-0.3,1.6-0.4C125.7,156,130.2,154.5,134.7,153.3z"/>
	</g>
	<path display="inline" fill="#3F3E29" d="M58.4,81.3c0,0,5.8,2.5,7.5,4.5s-3.8,0.8-5.8,0.2s1.5,2,2.2,2s-0.2,1.5-1.8,1.5
		s0.2,0.8,3.2,1.2c6.4,1.1-1.8,1.2-6.2,1.2c-3.2,0-3.8,3.8,3.5,3.5s5.5,2.5,3,3.8s-6,3.2-2.5,3.8s-1.5,2.2-3.5,2.8s6.7,2.8,10.8,1.5
		c4.8-1.5,4.2,2.5-6.5,5c0,0-19.7,7.5-46.6,0c0,0-4.2-12.8-2.4-23.9C13.3,88.4,34.4,74.6,58.4,81.3z"/>
	<path display="inline" fill="#3F3E29" d="M16.1,126.3c0,0-2.4-0.2-5.9,0c-1.5,0.1,3.2,0.5,4.5,1.5c1.1,0.9,7.2-0.6,5.6,0.5
		c-1.9,1.2-9.1,0-8.6,2.1c0.5,2.1,37.8,0.5,68-6.2l0.1-6C79.9,118.3,58.6,128.3,16.1,126.3z"/>
	<path display="inline" fill="none" stroke="#3F3E29" stroke-miterlimit="10" d="M35.6,114.8c0,0,0.8,11.2,1.8,13"/>
	<path display="inline" fill="none" stroke="#3F3E29" stroke-miterlimit="10" d="M55.2,112.8c0,0,1.3,11.2,0.6,13.1"/>
	<g display="inline">
		<path fill="#3F3E29" d="M10.2,195.8c-5.1,0.6-10.2,1.1-15.3,1.4c-2.6,0.1-5.1,0.3-7.7,0.2c-0.7,0-1.3-0.1-2.1-0.3
			c-0.5-0.2-0.7-0.3-0.8-0.3c0,0,0.1,0,0.3-0.1c0.1-0.1,0.1-0.2,0.2-0.3c0,0,0-0.1,0-0.1c0,0,0,0.1,0.1,0.2c0.4,1,1.2,2.1,1.9,3.1
			l0,0c0.1,0.1,0.1,0.2,0.1,0.2l1.1,16.7l-2.2-16.6l0.1,0.3c-0.8-1-1.6-2-2.3-3.3c-0.1-0.2-0.2-0.3-0.2-0.7c0-0.1,0-0.2,0-0.3
			c0.1-0.2,0.1-0.3,0.3-0.4c0.3-0.2,0.6-0.2,0.7-0.2c0.6,0.1,0.9,0.3,1,0.3c0.5,0.1,1.1,0.1,1.7,0.1c2.5,0,5-0.4,7.5-0.7
			c5-0.6,10.1-1.5,15.1-2.4L10.2,195.8z"/>
	</g>
	<path display="inline" fill="none" stroke="#3F3E29" stroke-width="2" stroke-linejoin="round" stroke-miterlimit="10" d="
		M-12.9,196.8"/>
	<path display="inline" fill="none" stroke="#3F3E29" stroke-width="2" stroke-linejoin="round" stroke-miterlimit="10" d="
		M14.1,130.3c0,0-18.2,11.5-21,13.2s-6.2,34.8-5,52.8"/>
	<g display="inline">
		<path fill="#3F3E29" d="M28.6,154.9c3-0.9,6-1.8,9.1-2.5c3-0.7,6.1-1.5,9.2-2.1c3.1-0.6,6.2-1.2,9.3-1.6c3.1-0.5,6.3-0.7,9.5-0.9
			c0.8,0,1.5,0.5,1.6,1.3l0,0c0.5,3,0.9,6.1,1.3,9.1l1.2,9.1c0.4,3,0.8,6.1,1.1,9.1c0.4,3,0.7,6.1,1,9.1l0,0.1c0,0.5-0.3,0.9-0.8,1
			l-0.1,0c-3.5,0.1-7,0.3-10.5,0.6c-3.5,0.3-7,0.7-10.4,1.3c-3.5,0.5-6.9,1.2-10.3,2c-3.4,0.7-6.8,1.6-10.2,2.4
			c-0.7,0.2-1.4-0.2-1.5-0.9c0-0.1,0-0.2,0-0.2l0-0.1c-0.1-3.1-0.2-6.1-0.2-9.2c0-3.1,0-6.1,0-9.2c0-3.1,0.1-6.1,0.2-9.2
			c0-1.5,0.1-3.1,0.2-4.6c0.1-1.5,0.1-3.1,0.3-4.6C28.5,154.9,28.5,154.9,28.6,154.9z M28.8,155.1c0.2,1.5,0.3,3,0.4,4.4
			c0.1,1.5,0.3,3.1,0.4,4.6c0.2,3.1,0.4,6.1,0.5,9.2c0.1,3.1,0.3,6.1,0.3,9.2c0.1,3.1,0.2,6.1,0.1,9.2l-1.6-1.2
			c3.5-0.7,7-1.2,10.5-1.6l10.5-1.3c3.5-0.4,7-0.9,10.5-1.4c3.5-0.5,7-1,10.5-1.4l-0.8,1.1c-0.6-3-1.1-6-1.7-9c-0.5-3-1-6-1.5-9.1
			l-1.5-9.1c-0.5-3-0.9-6.1-1.3-9.1l1.6,1.4c-3,0-6.1,0.3-9.2,0.6c-3.1,0.3-6.2,0.7-9.3,1c-3.1,0.4-6.2,0.8-9.3,1.3L28.8,155.1z"/>
	</g>
	<g display="inline">
		<circle fill="#3F3E29" cx="40" cy="163.3" r="5.7"/>
		<path fill="#3F3E29" d="M45,166.1c-0.3,0.7-0.8,1.3-1.4,1.8c-0.6,0.5-1.2,1-2,1.2c-1.5,0.6-3.2,0.7-4.9,0.1
			c-1.6-0.6-3.1-2-3.8-3.7c-0.3-0.9-0.5-1.9-0.4-2.8c0.1-1,0.3-1.9,0.8-2.8c0.4-0.8,1.1-1.6,1.9-2.2c0.8-0.6,1.7-1,2.6-1.2
			c1.9-0.4,3.8,0.1,5.2,1.1c1.4,1,2.3,2.5,2.6,4.1c0.2,0.8,0.2,1.6,0.1,2.3C45.7,164.7,45.4,165.4,45,166.1z M44.9,166
			c0.7-1.3,0.8-2.8,0.4-4.2c-0.4-1.4-1.4-2.6-2.7-3.3c-1.3-0.7-2.8-0.8-4.2-0.4c-1.4,0.4-2.6,1.4-3.2,2.7c-0.7,1.2-0.9,2.8-0.4,4.2
			c0.4,1.4,1.4,2.6,2.6,3.3c1.3,0.7,2.8,0.9,4.2,0.4C42.9,168.2,44.2,167.3,44.9,166z"/>
	</g>
	<g display="inline">
		<path fill="#3F3E29" d="M46.1,175.7c0.4,0.7,0.6,1.4,0.7,2.2c0.1,0.8,0.1,1.5-0.1,2.3c-0.3,1.6-1.2,3.1-2.7,4.1
			c-1.4,1-3.4,1.4-5.2,1c-0.9-0.2-1.8-0.6-2.6-1.2c-0.8-0.6-1.4-1.3-1.9-2.3c-0.4-0.8-0.7-1.8-0.7-2.8c0-1,0.1-1.9,0.5-2.8
			c0.7-1.8,2.2-3.1,3.9-3.7c1.6-0.6,3.4-0.5,4.8,0.1c0.7,0.3,1.4,0.7,1.9,1.3C45.3,174.4,45.7,175,46.1,175.7z M45.9,175.8
			c-0.7-1.3-1.9-2.3-3.3-2.7c-1.4-0.4-2.9-0.3-4.2,0.4c-1.3,0.7-2.3,1.9-2.7,3.2c-0.4,1.4-0.3,2.9,0.4,4.2c0.6,1.3,1.8,2.3,3.2,2.7
			c1.4,0.4,2.9,0.3,4.2-0.3c1.3-0.7,2.3-1.8,2.7-3.2C46.7,178.6,46.6,177.1,45.9,175.8z"/>
	</g>
	
		<line display="inline" fill="none" stroke="#3F3E29" stroke-width="2" stroke-linecap="round" stroke-linejoin="round" stroke-miterlimit="10" x1="49" y1="158" x2="61.3" y2="156.3"/>
	
		<line display="inline" fill="none" stroke="#3F3E29" stroke-width="2" stroke-linecap="round" stroke-linejoin="round" stroke-miterlimit="10" x1="50" y1="163" x2="62.3" y2="161.3"/>
	
		<line display="inline" fill="none" stroke="#3F3E29" stroke-width="2" stroke-linecap="round" stroke-linejoin="round" stroke-miterlimit="10" x1="51" y1="172" x2="63.3" y2="170.3"/>
	
		<line display="inline" fill="none" stroke="#3F3E29" stroke-width="2" stroke-linecap="round" stroke-linejoin="round" stroke-miterlimit="10" x1="52" y1="177" x2="64.3" y2="175.3"/>
	<g display="inline">
		<path fill="#3F3E29" d="M118.6,140.3c-0.6,0.2-1.2,0.3-1.8,0.5c-0.6,0.1-1.2,0.2-1.8,0.3c-1.2,0.2-2.4,0.4-3.6,0.5
			c1.1-0.5,2.2-0.9,3.3-1.4c0.5-0.3,1.1-0.5,1.6-0.8c0.5-0.3,1-0.6,1.5-0.9c0.5-0.3,1.1-0.2,1.4,0.3c0.3,0.5,0.2,1.1-0.3,1.4
			C118.8,140.2,118.7,140.3,118.6,140.3L118.6,140.3z"/>
	</g>
	<g display="inline">
		<path fill="#3F3E29" d="M-6.9,143.6c2.3,0.5,4.5,1.2,6.7,1.8l-0.7,0.2c1.7-2.2,3.6-4.1,5.7-5.9c2.1-1.8,4.2-3.5,6.6-4.9
			c2.3-1.4,4.8-2.7,7.5-3.5c2.6-0.8,5.4-1.2,8.1-0.9c-5.4,0.7-10.1,3.2-14.5,6c-2.2,1.5-4.3,3-6.4,4.7c-2.1,1.7-4.1,3.5-5.9,5.3
			l-0.3,0.3l-0.4-0.2C-2.7,145.6-4.8,144.7-6.9,143.6z"/>
	</g>
	<g display="inline">
		<path fill="#3F3E29" d="M96.3,129c-1.6,1.1-3.3,2-5.1,3l-0.1,0.1l-0.3,0c-2.2-0.3-4.5-0.6-6.7-1l-3.3-0.6l-3.3-0.7
			c-4.4-0.9-8.8-2-13.2-3.4c2.3,0.1,4.5,0.3,6.8,0.5c2.2,0.3,4.5,0.6,6.7,1l3.3,0.6l3.3,0.7c2.2,0.5,4.4,1,6.6,1.5l-0.4,0
			C92.5,130.1,94.4,129.5,96.3,129z"/>
	</g>
	<path display="inline" fill="none" stroke="#3F3E29" stroke-width="2" stroke-miterlimit="10" d="M129.6,135.3"/>
	<path display="inline" fill="none" stroke="#3F3E29" stroke-width="2" stroke-linecap="round" stroke-miterlimit="10" d="
		M137.2,149.4c0,0-1.3-9.1-5.7-14.2"/>
	<g display="inline">
		<path fill="#3F3E29" d="M-7.9,195.8c1.3-0.7,2.6-1.2,3.9-1.5c1.3-0.3,2.6-0.6,4-0.7c1.3-0.1,2.7-0.1,4-0.1
			c1.4,0.1,2.7,0.3,4.1,0.8c-1.3,0.7-2.6,1.2-3.9,1.5c-1.3,0.3-2.6,0.6-4,0.7c-1.3,0.1-2.7,0.1-4,0.1
			C-5.1,196.5-6.5,196.3-7.9,195.8z"/>
	</g>
	<path display="inline" fill="#3F3E29" d="M29.5,192l3.3,2c0,0,17.5-3.7,36.9-5l0.8-3.2C70.4,185.8,37,188.5,29.5,192z"/>
</g>
<g id="Layer_3" display="none">
	<g display="inline">
		<g>
			<path fill="#3F3E29" d="M256.5,123.9c0,0.6,0.4,1.1,0.8,1.5c0.4,0.4,1,0.7,1.5,1c1.1,0.5,2.3,0.9,3.5,1.2
				c2.4,0.6,4.8,0.9,7.3,1.2c4.9,0.4,9.8,0.7,14.7,0.8c2.5,0.1,4.9,0.1,7.4,0c2.5-0.1,4.9-0.2,7.4-0.5c2.4-0.3,4.9-0.8,7.2-1.5
				c1.2-0.4,2.3-0.8,3.3-1.4c0.5-0.3,1-0.6,1.4-1c0.4-0.4,0.7-0.9,0.6-1.2c0-0.9-1.1-1.6-2.1-2.1c-1.1-0.5-2.2-0.9-3.4-1.2
				c-2.3-0.6-4.7-1-7.1-1.4c-4.8-0.6-9.7-0.8-14.6-0.9c-4.9,0-9.8,0.2-14.7,0.6c-2.4,0.2-4.9,0.6-7.3,1.1c-1.2,0.3-2.4,0.7-3.5,1.2
				c-0.5,0.3-1.1,0.6-1.5,1C256.9,122.8,256.5,123.3,256.5,123.9L256.5,123.9L256.5,123.9z M256.3,123.9c0-0.7,0.4-1.3,0.9-1.7
				c0.5-0.4,1-0.8,1.5-1.1c1.1-0.6,2.3-1.1,3.4-1.5c2.4-0.8,4.8-1.4,7.2-1.9c4.9-1,9.9-1.4,14.9-1.4c5,0,10,0.3,14.9,1.1
				c2.5,0.4,4.9,0.9,7.3,1.7c1.2,0.4,2.4,0.9,3.5,1.5c0.6,0.3,1.1,0.7,1.6,1.2c0.2,0.2,0.5,0.5,0.7,0.9c0.1,0.2,0.2,0.4,0.2,0.6
				c0.1,0.2,0.1,0.5,0.1,0.6c0,0.9-0.6,1.5-1.1,2c-0.5,0.4-1.1,0.8-1.7,1.1c-1.2,0.6-2.3,0.9-3.5,1.3c-2.4,0.7-4.8,1.1-7.3,1.5
				c-4.9,0.8-9.8,1.4-14.8,1.5c-5,0.1-10-0.2-14.9-1.2c-2.4-0.5-4.9-1.1-7.2-1.9c-1.2-0.4-2.3-0.9-3.4-1.5c-0.5-0.3-1.1-0.6-1.5-1.1
				C256.7,125.1,256.3,124.6,256.3,123.9L256.3,123.9L256.3,123.9z"/>
		</g>
		<ellipse fill="#3F3E29" cx="283.8" cy="126.8" rx="20.2" ry="4.4"/>
		<g>
			<path fill="#3F3E29" d="M313,125.4l-7,29.3l4-29.9c0.1-0.8,0.9-1.4,1.7-1.3c0.8,0.1,1.4,0.9,1.3,1.7
				C313,125.3,313,125.4,313,125.4z"/>
		</g>
		<g>
			<path fill="#3F3E29" d="M258.3,125.1l3.8,29.3l-6.7-28.8c-0.2-0.8,0.3-1.6,1.1-1.8c0.8-0.2,1.6,0.3,1.8,1.1
				C258.3,125,258.3,125.1,258.3,125.1z"/>
		</g>
		<g>
			<path fill="#3F3E29" d="M262,153.9c0.1,0.5,0.5,0.8,0.9,1c0.4,0.2,0.8,0.4,1.3,0.5c0.9,0.3,1.8,0.5,2.7,0.6
				c1.9,0.3,3.8,0.4,5.6,0.6c3.8,0.2,7.6,0.3,11.4,0.3c3.8,0,7.6-0.1,11.4-0.3c1.9-0.1,3.8-0.2,5.7-0.5c0.9-0.1,1.9-0.3,2.7-0.6
				c0.4-0.1,0.9-0.3,1.3-0.5c0.4-0.2,0.7-0.5,0.9-1c0.1,0.5-0.1,1.1-0.5,1.5c-0.3,0.4-0.7,0.8-1.2,1.1c-0.8,0.6-1.8,1.1-2.7,1.5
				c-1.9,0.8-3.8,1.4-5.8,1.8c-3.9,0.8-7.9,1.2-11.9,1.2c-4,0-7.9-0.4-11.9-1.2c-2-0.4-3.9-1-5.8-1.8c-0.9-0.4-1.9-0.9-2.7-1.5
				c-0.4-0.3-0.8-0.7-1.2-1.1C262.2,154.9,261.9,154.4,262,153.9z"/>
		</g>
		<g>
			<path fill="#3F3E29" d="M282.9,116.9l-2.4-7.9l0,0.1c-0.5-0.7-1.5-1.4-2.5-1.7c-1-0.4-2.1-0.6-3.2-0.7c-2.2-0.1-4.5,0-6.4,0.8
				c-0.9,0.4-1.7,1-2,1.6l-0.6,3.2c-0.5,2.2-1.1,4.5-1.8,6.7l-0.2,0c-0.1-2.3,0-4.6,0.2-6.9l0.2-1.7l0.1-0.9l0.1-0.4l0-0.3
				c0-0.2,0.1-0.3,0.1-0.4c0.3-0.8,0.9-1.3,1.4-1.8c0.6-0.4,1.2-0.7,1.8-0.9c1.2-0.4,2.5-0.5,3.6-0.6c1.2,0,2.4,0,3.6,0.2
				c1.2,0.2,2.4,0.5,3.5,1c1.1,0.5,2.2,1.2,2.9,2.4l0,0l0,0.1l1.6,8.1L282.9,116.9z"/>
		</g>
		<g>
			<path fill="#3F3E29" d="M279,106.5c-11.3-2.9-22.6-5.9-33.9-9l-16.9-4.7c-5.6-1.6-11.2-3.2-16.8-4.9
				c-11.2-3.3-22.4-6.8-33.6-10.1L161,72.7l-4.2-1.2c-0.7-0.2-1.4-0.4-2.1-0.6c-0.7-0.2-1.3-0.3-2-0.3c-1.3-0.1-2.8,0-3.5,0.7
				c-0.7,0.7-0.5,2.1,0.1,3.3l-0.3-0.3c9.2,3.5,18.4,6.8,27.6,10l27.9,9.2c9.3,3.2,18.5,6.5,27.6,9.9c9.2,3.4,18.3,6.9,27.4,10.6
				l0,0l0,0c0.4,0.2,0.8,0.5,1.1,0.8c0.4,0.3,0.7,0.7,0.9,1c0.5,0.8,0.8,1.7,0.7,2.7l-0.3,0c0-0.9-0.3-1.7-0.9-2.3
				c-0.3-0.3-0.6-0.6-0.9-0.9c-0.3-0.3-0.7-0.5-1.1-0.7l0,0c-9.4-2.9-18.7-6-27.9-9.1c-9.3-3.2-18.5-6.4-27.7-9.8l-27.4-10.5
				c-9.2-3.4-18.4-6.7-27.7-9.8l-0.2-0.1l-0.1-0.2c-0.4-0.7-0.7-1.4-0.8-2.3c-0.1-0.8,0.1-1.9,0.7-2.6c0.6-0.7,1.5-1.1,2.3-1.2
				c0.8-0.2,1.6-0.2,2.4-0.2c0.8,0,1.5,0.1,2.3,0.3c0.7,0.2,1.5,0.3,2.2,0.5l4.3,1c5.7,1.4,11.3,3,17,4.5l16.9,4.8
				c5.6,1.6,11.2,3.2,16.8,4.9c5.6,1.6,11.2,3.4,16.8,5.1l16.7,5.3c11.1,3.5,22.2,7.2,33.3,11L279,106.5z"/>
		</g>
		<path fill="#3F3E29" d="M280.5,117.6c0,0-1.8-5.4-3-6.7c-1.2-1.3-2.8-1.7-4.8-1.8c-2.7,0-4.3,2.4-4.3,2.4l-1.1,7.3"/>
		<g>
			<path fill="#3F3E29" d="M310.5,129.1c-0.9,0.9-2.1,1.5-3.2,2.1c-1.2,0.5-2.4,1-3.6,1.4c-2.5,0.8-5,1.2-7.5,1.5
				c-2.5,0.3-5.1,0.4-7.6,0.3c-2.5-0.1-5.1-0.3-7.6-0.7c2.5-0.4,5-0.6,7.5-0.8c2.5-0.2,5-0.5,7.4-0.7c2.5-0.3,4.9-0.6,7.4-1
				C305.8,130.6,308.2,130.1,310.5,129.1z"/>
		</g>
		<g>
			<path fill="#3F3E29" d="M307.6,133c-0.9,0.8-2,1.3-3,1.8c-1.1,0.4-2.2,0.8-3.3,1.1c-2.3,0.6-4.6,1-6.9,1.3
				c-2.3,0.3-4.6,0.7-6.9,0.6c-2.3-0.1-4.6-0.3-6.9-0.9c-0.1,0-0.1-0.1-0.1-0.1c0,0,0-0.1,0.1-0.1c2.3-0.5,4.6-0.7,6.9-0.9
				c2.3-0.2,4.6-0.1,6.8-0.2c2.3-0.1,4.5-0.3,6.8-0.7c1.1-0.2,2.2-0.4,3.3-0.7c1.1-0.3,2.2-0.7,3.1-1.3l0,0c0,0,0.1,0,0.1,0
				C307.7,132.9,307.6,132.9,307.6,133z"/>
		</g>
		<g>
			<path fill="#3F3E29" d="M296.3,147.5c-1.3,0.5-2.6,0.8-3.9,1.1c-1.3,0.3-2.7,0.5-4,0.6c-1.4,0.1-2.7,0.4-4.1,0.2
				c-1.4-0.2-2.7-0.5-4-1.2c-0.1,0-0.1-0.1,0-0.1c0,0,0,0,0.1-0.1c1.4-0.4,2.7-0.5,4-0.6c1.3-0.1,2.6,0.2,4,0.2c1.3,0,2.7,0,4,0
				c1.3,0,2.7-0.1,4-0.3c0.1,0,0.1,0,0.1,0.1C296.4,147.4,296.4,147.5,296.3,147.5z"/>
		</g>
		<g>
			<path fill="#3F3E29" d="M306.9,136.5c-0.8,1-1.9,1.6-2.9,2.1c-1.1,0.5-2.2,0.9-3.3,1.2c-2.3,0.6-4.6,0.7-7,0.8
				c-2.3,0.1-4.6,0.1-6.9,0.1c-2.3-0.1-4.6-0.2-6.9-0.4c-0.1,0-0.1-0.1-0.1-0.1c0-0.1,0-0.1,0.1-0.1c2.3-0.1,4.6-0.2,6.9-0.4
				c2.3-0.2,4.6-0.4,6.8-0.7c2.3-0.3,4.5-0.8,6.7-1.2c2.2-0.4,4.5-0.6,6.5-1.5l0,0C306.8,136.3,306.9,136.3,306.9,136.5
				C306.9,136.4,306.9,136.4,306.9,136.5z"/>
		</g>
		<g>
			<path fill="#3F3E29" d="M307.9,141.9c-0.2,0.6-0.7,1-1.1,1.4c-0.5,0.4-0.9,0.7-1.4,0.9c-1,0.5-2.1,0.9-3.1,1.2
				c-2.1,0.6-4.3,0.6-6.5,0.7c-4.3,0.2-8.6,0-12.9-0.4c-0.1,0-0.1-0.1-0.1-0.1c0-0.1,0-0.1,0.1-0.1c2.1-0.1,4.3-0.2,6.4-0.4
				c2.1-0.1,4.3-0.3,6.4-0.6c2.1-0.3,4.2-0.8,6.2-1.1c1-0.2,2-0.3,3.1-0.6c1-0.2,2-0.5,2.9-1.1l0,0
				C307.8,141.8,307.8,141.8,307.9,141.9C307.9,141.9,307.9,141.9,307.9,141.9z"/>
		</g>
		<g>
			<path fill="#3F3E29" d="M304.8,140.5c-1.3,0.7-2.7,1.1-4,1.5c-1.4,0.4-2.8,0.6-4.2,0.9c-2.8,0.4-5.7,0.7-8.5,0.9
				c-2.9,0.2-5.7,0.4-8.6,0.1c-2.8-0.2-5.7-0.6-8.5-1.4c-0.1,0-0.1-0.1-0.1-0.1c0,0,0-0.1,0.1-0.1c2.9-0.3,5.7-0.4,8.5-0.4
				c2.8-0.1,5.6,0.2,8.5,0.2c2.8,0,5.6,0,8.4-0.3c2.8-0.2,5.6-0.6,8.3-1.5l0,0c0.1,0,0.1,0,0.1,0.1
				C304.9,140.4,304.9,140.5,304.8,140.5z"/>
		</g>
		<g>
			<path fill="#3F3E29" d="M271.8,103.7c-0.6,0.4-1.1,0.6-1.7,0.8c-0.6,0.2-1.1,0.3-1.7,0.4c-0.6,0.1-1.1,0.2-1.7,0.2
				c-0.6,0-1.1,0-1.8,0l-0.1-0.1c1-0.6,2.3-0.9,3.4-1.1C269.4,103.8,270.6,103.6,271.8,103.7L271.8,103.7z"/>
		</g>
		<g>
			<path fill="#3F3E29" d="M268.8,102.7c-0.6,0.4-1.1,0.6-1.7,0.8c-0.6,0.2-1.1,0.3-1.7,0.4c-0.6,0.1-1.1,0.2-1.7,0.2
				c-0.6,0-1.1,0-1.8,0l-0.1-0.1c1-0.6,2.3-0.9,3.4-1.1C266.4,102.8,267.6,102.6,268.8,102.7L268.8,102.7z"/>
		</g>
		<g>
			<path fill="#3F3E29" d="M151.1,73.2c4.4,1.2,8.8,2.5,13.3,3.8l13.2,3.9c8.8,2.6,17.6,5.4,26.4,8.1c8.8,2.8,17.5,5.6,26.3,8.4
				l13.1,4.3c4.3,1.5,8.7,2.9,13,4.5c-4.4-1.2-8.8-2.5-13.3-3.8l-13.2-3.9c-8.8-2.6-17.6-5.4-26.4-8.1c-8.8-2.8-17.5-5.6-26.3-8.4
				l-13.1-4.3C159.8,76.2,155.5,74.7,151.1,73.2z"/>
		</g>
	</g>
	<g display="inline">
		<g>
			<path fill="#3F3E29" d="M288.6,89.7c1.1-0.4,2.3-0.6,3.5-0.7c1.2-0.1,2.4-0.1,3.6,0c1.2,0.1,2.4,0.4,3.6,0.8
				c1.2,0.4,2.4,1.1,3.3,2.1l0.5,0.5l-0.1,0.8c-0.3,1.5-0.6,3.1-0.9,4.6l-0.2,0.9l-0.9,0.2c-0.5,0.1-0.7,0.1-1.1,0.2
				c-0.3,0-0.6,0-0.9,0c-0.6,0-1.2,0-1.8-0.1c-1.2-0.1-2.4-0.4-3.5-0.7c-2.3-0.6-4.4-1.5-6.4-2.6l-0.7-0.4l0.2-0.6
				c0.3-0.8,0.6-1.7,0.9-2.5C287.9,91.4,288.2,90.5,288.6,89.7z M288.6,89.7c0,0.9-0.1,1.8-0.1,2.7c-0.1,0.9-0.1,1.8-0.2,2.7
				l-0.5-0.9c2.1,0.6,4.3,1.2,6.4,1.5c1.1,0.2,2.1,0.3,3.2,0.4c0.5,0,1,0,1.5,0c0.3,0,0.5,0,0.7,0c0.2,0,0.5-0.1,0.6-0.1l-1.1,1.1
				c0.3-1.5,0.7-3,1.1-4.5l0.3,1.3c-0.6-0.7-1.4-1.3-2.3-1.8c-0.9-0.5-1.9-0.9-3-1.2c-1-0.3-2.1-0.5-3.3-0.7
				C290.9,90,289.8,89.8,288.6,89.7z"/>
		</g>
		<g>
			<path fill="#3F3E29" d="M289.5,88.5c1.7-9.3,3.7-18.5,5.6-27.8c2-9.2,4.1-18.5,6.2-27.7c1.1-4.6,2.2-9.2,3.3-13.8l3.5-13.7
				c1.2-4.6,2.3-9.2,3.5-13.7l1.8-6.9l1.8-6.8l0.1-0.2l0.1-0.1c0.5-0.5,1-0.9,1.6-1.3c0.6-0.3,1.4-0.5,2.3-0.3
				c0.8,0.2,1.4,0.8,1.8,1.3c0.4,0.6,0.7,1.1,0.9,1.8l0.1,0.2l0,0.2c-2,9.3-3.8,18.6-5.4,27.9c-1.5,9.4-2.9,18.7-4.4,28.1
				c-0.4,2.3-0.8,4.7-1.2,7c-0.4,2.3-0.9,4.7-1.3,7c-0.9,4.7-1.8,9.3-2.7,14c-1.9,9.3-3.9,18.6-6.1,27.8c0,0.1-0.1,0.1-0.2,0.1
				c-0.1,0-0.1-0.1-0.1-0.2c1.2-9.4,2.6-18.8,4.2-28.1c0.8-4.7,1.6-9.3,2.4-14c0.4-2.3,0.8-4.7,1.3-7c0.4-2.3,0.9-4.7,1.4-7
				c1.9-9.3,4-18.5,5.9-27.8c1.9-9.3,3.5-18.6,4.9-28l0,0.3c-0.1-0.4-0.4-0.9-0.7-1.3c-0.3-0.4-0.6-0.6-1-0.7c-0.3,0-0.7,0-1.1,0.3
				c-0.4,0.2-0.8,0.6-1.1,0.9l0.2-0.4l-1.5,6.9l-1.5,6.9c-1,4.6-2.1,9.2-3.1,13.8l-3.2,13.8c-1.1,4.6-2.2,9.2-3.3,13.8
				c-2.3,9.2-4.6,18.3-7,27.5c-2.5,9.1-4.9,18.2-7.6,27.3c0,0.1-0.1,0.1-0.2,0.1C289.6,88.7,289.5,88.6,289.5,88.5z"/>
		</g>
		<g>
			<path fill="#3F3E29" d="M288.2,95.8c-1.5,5.3-1.8,10.6-2.1,16c-0.2,2.7-0.4,5.4-0.2,8.1c0.1,1.3,0.3,2.7,0.6,4
				c0.1,0.7,0.3,1.3,0.6,1.9c0.1,0.3,0.3,0.6,0.4,0.8c0.1,0.1,0.2,0.2,0.2,0.2c0,0,0,0-0.1,0c0.2,0,0,0,0.1,0
				c0.4-0.2,0.8-0.8,1.2-1.3c0.4-0.5,0.8-1.1,1.1-1.6c0.7-1.1,1.4-2.3,2-3.5c1.2-2.4,2.3-4.8,3.3-7.3c2-5,3.6-10.1,4.7-15.4
				c0-0.1,0.1-0.1,0.1-0.1c0,0,0.1,0.1,0.1,0.1c0.2,5.5-1,11-2.9,16.2c-1,2.6-2.2,5.1-3.7,7.4c-0.7,1.2-1.5,2.4-2.3,3.5
				c-0.4,0.6-0.9,1.1-1.4,1.6c-0.5,0.5-1,1-1.8,1.4c-0.1,0-0.4,0.1-0.4,0.1c-0.3,0-0.5-0.1-0.6-0.2c-0.2-0.2-0.3-0.4-0.4-0.6
				c-0.2-0.4-0.3-0.7-0.4-1c-0.2-0.7-0.3-1.4-0.4-2c-0.2-1.4-0.4-2.7-0.6-4.1c-0.3-2.7-0.7-5.4-0.8-8.2c-0.1-2.8,0.2-5.5,0.8-8.2
				c0.6-2.7,1.4-5.4,2.8-7.8c0,0,0.1-0.1,0.1,0C288.2,95.7,288.2,95.7,288.2,95.8z"/>
		</g>
		<path fill="#3F3E29" stroke="#3F3E29" stroke-linecap="round" stroke-miterlimit="10" d="M296.3,111.5c0,0-2.7-0.3-3.6,2.3
			c-0.9,2.5-3.9,6.6-4.9,1.3c-1-5.3-1-2.6-2.4-1.9c0,0,0.7,13.5,2.2,14.1C287.5,127.3,292.4,125,296.3,111.5z"/>
		<path fill="none" stroke="#3F3E29" stroke-linecap="round" stroke-miterlimit="10" d="M292.1,86.4c0,0,6.1-6.8,7.4-21.2
			c1.3-14.4,5-25.9,5-25.9"/>
		<path fill="none" stroke="#3F3E29" stroke-linecap="round" stroke-miterlimit="10" d="M297.6,59.9c0,0-0.3,18.4-5.9,19.9"/>
		<path fill="none" stroke="#3F3E29" stroke-linecap="round" stroke-miterlimit="10" d="M295.4,88.5c0,0-0.1-2.4,4.3-6.9
			c4.4-4.5,3.9-17.9,4.5-24.9s7.5-24.6,7.5-24.6"/>
		<path fill="none" stroke="#3F3E29" stroke-linecap="round" stroke-miterlimit="10" d="M307.1,37.8c0,0-2-4.9-0.9-14.5"/>
		<path fill="none" stroke="#3F3E29" stroke-linecap="round" stroke-miterlimit="10" d="M311.4,33.9c0,0-7.2-7,1.5-11.3"/>
		<path fill="none" stroke="#3F3E29" stroke-linecap="round" stroke-miterlimit="10" d="M308.7,21.8c0,0,1.1-14.8,2.3-20.6"/>
		<path fill="none" stroke="#3F3E29" stroke-linecap="round" stroke-miterlimit="10" d="M311.2,19.2c0,0,2.8-21.6,2.3-27.5"/>
		<path fill="none" stroke="#3F3E29" stroke-linecap="round" stroke-miterlimit="10" d="M315.3-4.1c0,0,0.3-12.6,5-14.6"/>
	</g>
</g>
<g id="Layer_4" display="none">
	<g display="inline">
		<path fill="#3F3E29" d="M64.2,27.1c1.1-4.6,1.8-9.2,2.5-13.9c0.3-2.3,0.6-4.7,0.8-7c0.2-2.3,0.4-4.6,0.5-7
			c0.2-2.6,1.2-5.1,2.8-7.2c1.7-2,3.9-3.5,6.2-4.5c2.3-1,4.8-1.6,7.2-1.9c2.4-0.3,4.9-0.3,7.3,0c1.2,0.1,2.4,0.4,3.7,0.7
			c0.6,0.2,1.2,0.4,1.9,0.8c0.2,0.1,0.3,0.2,0.5,0.4l0.3,0.3c0.1,0.1,0.4,0.3,0.6,0.4c1.9,1,4.2,1.6,6.5,2.2
			c4.5,1.2,9.2,2.1,13.8,2.8l0.9,0.1c0.3,0,0.6,0.1,0.9,0.2c0.6,0.1,1.2,0.3,1.8,0.6c1.1,0.5,2.1,1.2,3,2c1.8,1.6,3.2,3.7,4.3,5.8
			c2.2,4.3,3.6,8.9,4.5,13.6c0.4,2.4,0.6,4.8,0.4,7.3c-0.2,2.5-0.8,4.9-1.5,7.1c-0.7,2.3-1.2,4.4-1.2,6.6c0,1.1,0,2.2,0.2,3.3
			c0.2,1.3,0.2,2.6-0.1,3.9c-0.4,2.6-1.8,5.1-3.6,6.9c-1.8,1.9-3.9,3.3-6.2,4.4c-2.3,1.1-4.7,1.8-7.1,2.3c-1.2,0.2-2.5,0.3-3.8,0.3
			c-1.2,0-2.4-0.1-3.6-0.1c-4.8-0.3-9.5-0.9-14.2-1.8c-2.3-0.4-4.7-1-7-1.6c-2.3-0.7-4.6-1.5-6.8-2.7c-0.6-0.3-1.1-0.7-1.6-1.1
			c-0.3-0.2-0.5-0.4-0.8-0.7c-0.2-0.2-0.4-0.4-0.6-0.7C75.7,48,75,47,74.3,46c-1.3-2-2.4-4.1-3.5-6.3l-3.1-6.3
			c-1.1-2.1-2.2-4.2-3.4-6.2L64.2,27.1L64.2,27.1z M64.5,27.1c2.9,3.7,5.3,7.9,7.6,11.9c1.2,2,2.4,4,3.8,5.9
			c0.7,0.9,1.4,1.8,2.2,2.6c0.2,0.2,0.4,0.4,0.6,0.6c0.2,0.2,0.4,0.3,0.6,0.5c0.4,0.3,0.9,0.6,1.4,0.8c1.9,1,4.2,1.7,6.4,2.2
			c2.2,0.6,4.5,1,6.8,1.4c4.6,0.7,9.3,1.2,13.9,1.5c1.2,0.1,2.3,0.1,3.5,0.1c1.1,0,2.2-0.1,3.2-0.3c2.2-0.4,4.3-1,6.3-1.9
			c2-0.9,3.9-2.1,5.4-3.6c1.5-1.5,2.6-3.4,3-5.4c0.2-1,0.2-2,0.1-3.1c-0.1-1.2-0.2-2.5-0.1-3.8c0.1-2.5,0.8-5,1.6-7.2
			c0.7-2.3,1.4-4.4,1.7-6.6c0.3-2.2,0.3-4.5,0-6.8c-0.3-2.3-0.8-4.6-1.4-6.8c-0.6-2.3-1.4-4.5-2.4-6.5c-1-2.1-2.3-4-4-5.6
			c-0.8-0.8-1.8-1.4-2.8-1.9c-0.5-0.2-1-0.4-1.6-0.5c-0.5-0.1-1.1-0.2-1.7-0.2c-2.4-0.3-4.7-0.6-7-1c-2.3-0.3-4.7-0.7-7-1.2
			c-2.3-0.5-4.7-0.9-7-2c-0.3-0.1-0.6-0.3-0.9-0.5l-0.2-0.2l-0.1-0.1l0,0c0,0-0.1-0.1-0.2-0.1c-0.4-0.2-0.9-0.3-1.4-0.5
			c-1.1-0.2-2.2-0.4-3.3-0.5c-4.5-0.3-9.2,0.2-13.3,1.9c-2,0.8-3.9,2-5.2,3.7c-1.4,1.6-2.2,3.6-2.5,5.8
			C69.4,8.8,67.6,18.2,64.5,27.1z"/>
	</g>
	<g display="inline">
		<path fill="#3F3E29" d="M69.5,27.2c1.1-3.9,2-7.9,2.7-11.9c0.8-4,1.3-8.1,1.7-12.1c0.1-1,0.1-2,0.3-3.1C74.3-1,74.6-2,75.1-3
			c0.9-2,2.6-3.6,4.5-4.6c1.9-1,4-1.5,6.1-1.6C87.8-9.4,89.9-9.3,92-9c1,0.2,2.1,0.4,3.1,0.7c0.5,0.2,1,0.3,1.5,0.6
			c0.2,0.1,0.5,0.2,0.7,0.4c0.1,0.1,0.3,0.2,0.4,0.3l0.1,0.1c0,0,0.1,0,0.1,0.1c0.7,0.5,1.7,0.7,2.7,1c1,0.2,2,0.4,3,0.5
			c2,0.3,4,0.5,6.1,0.7c2,0.2,4.1,0.2,6.2,0.4c2.1,0.5,3.9,1.6,5.5,2.9c1.6,1.3,3,2.9,4.2,4.6c2.3,3.4,3.8,7.4,4.7,11.4
			c0.4,2,0.6,4.1,0.3,6.2c-0.2,2.1-0.8,4.1-1.6,6c-0.8,1.9-1.7,3.7-2.4,5.6c-0.7,1.9-1.1,3.8-0.9,5.7c0,0.5,0.1,1,0.1,1.5
			c0,0.6,0,1.1-0.1,1.7c-0.2,1.1-0.6,2.2-1.2,3.1c-1.3,1.9-3.1,3.1-5,4.1c-3.8,1.9-8,2.7-12.2,2.9c-2.1,0.1-4.2,0-6.2-0.2
			c-2.1-0.2-4.1-0.4-6.1-0.7c-4.1-0.7-8.1-1.5-12-3.1c-1-0.4-1.9-0.9-2.8-1.5c-0.4-0.3-0.9-0.6-1.3-1.1c-0.3-0.4-0.7-0.8-1-1.2
			c-1.3-1.7-2.2-3.6-3-5.5c-0.8-1.9-1.5-3.8-2.3-5.7C71.6,30.8,70.7,29,69.5,27.2L69.5,27.2L69.5,27.2z M69.7,27.2
			c2.5,3.3,4.1,7.1,5.8,10.8c0.9,1.8,1.8,3.6,3.1,5.1c0.3,0.4,0.6,0.7,1,1.1c0.3,0.3,0.7,0.6,1.1,0.9c0.8,0.5,1.7,0.9,2.6,1.3
			c3.7,1.4,7.8,2.2,11.8,2.7c2,0.3,4,0.5,6,0.7c2,0.1,4.1,0.3,6,0.2c2-0.1,4-0.4,5.9-0.8c1.9-0.4,3.9-1,5.6-1.9
			c1.8-0.9,3.4-2,4.5-3.5c0.5-0.8,0.9-1.6,1-2.5c0.1-0.5,0.1-0.9,0.1-1.4c0-0.4-0.1-1-0.1-1.5c-0.1-2.2,0.3-4.3,1.1-6.3
			c0.8-2,1.7-3.8,2.5-5.6c0.8-1.8,1.4-3.7,1.7-5.7c0.3-2,0.2-4-0.2-6c-0.7-4-2.1-7.9-4.4-11.2c-1.1-1.7-2.5-3.2-4-4.5
			c-1.6-1.3-3.4-2.3-5.3-2.8c-4-0.3-8.2-0.3-12.2-0.8c-1-0.1-2-0.2-3.1-0.4c-1-0.2-2-0.4-3.1-1c-0.1,0-0.1-0.1-0.2-0.1L97-6.2
			c-0.1-0.1-0.1-0.1-0.2-0.2c-0.2-0.1-0.4-0.2-0.6-0.3c-0.4-0.2-0.9-0.3-1.4-0.5c-1-0.3-1.9-0.4-2.9-0.6c-2-0.3-4-0.3-6-0.2
			c-2,0.2-3.9,0.6-5.7,1.5c-1.7,0.9-3.2,2.2-4,3.9c-0.4,0.9-0.7,1.8-0.8,2.7c-0.1,1-0.2,2-0.3,3C74.1,11.5,72.3,19.5,69.7,27.2z"/>
	</g>
	<g display="inline">
		<path fill="#3F3E29" d="M108.5,22.2c-0.2,2.2-1.2,4.3-2.8,5.8c-1.6,1.5-3.9,2.4-6.3,2.2c-2.3-0.2-4.5-1.3-6-3.1
			c-1.5-1.8-2.3-4.1-2.2-6.6c0.1-2.3,1.2-4.7,3-6.3c1.8-1.6,4.4-2.5,6.8-2.1c1.2,0.2,2.4,0.6,3.4,1.2c1,0.7,1.8,1.5,2.5,2.5
			C108.2,17.7,108.7,20,108.5,22.2z M108.3,22.2c0.1-1.1-0.1-2.2-0.5-3.1c-0.4-1-1-1.9-1.7-2.6c-1.5-1.5-3.4-2.2-5.3-2.4
			c-1.9-0.1-3.8,0.4-5.3,1.6c-1.5,1.2-2.5,3-2.7,5c-0.2,1.9,0.4,4,1.6,5.6c1.2,1.6,3.1,2.7,5.1,3c2,0.3,4.2-0.2,5.9-1.5
			c0.8-0.7,1.5-1.5,2-2.4C107.9,24.3,108.2,23.3,108.3,22.2z"/>
	</g>
	<g display="inline">
		<path fill="#3F3E29" d="M90.6-16.5c6.5-1.4,13.2-2.2,19.9-2.7c3.3-0.2,6.7-0.4,10.1-0.4c3.4,0,6.7,0.1,10.1,0.4
			c3.4,0.3,6.7,0.8,10,1.5c3.3,0.8,6.5,1.5,9.8,2c3.3,0.5,6.6,0.8,9.9,0.6c1.6-0.1,3.3-0.2,4.9-0.6c0.8-0.2,1.6-0.4,2.3-0.7
			c0.7-0.3,1.5-0.6,2-1.1l0,0c0,0,0.1,0,0.1-0.1c0.7-0.3,1.5-0.4,2.3-0.5c0.8,0,1.6,0.2,2.3,0.7c0.7,0.5,1.2,1.2,1.5,1.9
			c0.3,0.7,0.5,1.5,0.5,2.2c0.2,1.3,0.7,2.5,1.6,2.8c0.9,0.4,2.2,0.1,3.2-0.5l0,0c0.1-0.1,0.3-0.1,0.5-0.1c0.7,0,1.2,0.1,1.8,0.5
			c0.6,0.3,1.2,0.9,1.4,1.6c0.2,0.7,0.2,1.4,0,2c-0.1,0.6-0.3,1.1-0.6,1.5c-0.5,0.9-1,1.8-1.6,2.5c-0.6,0.8-1.1,1.4-1.6,2.2
			c-2,3-3.9,6.2-5.7,9.4c-3.6,6.5-7,13.1-10.8,19.6c-0.9,1.6-2.1,3.3-3.3,4.7c-1.2,1.5-2.5,2.9-3.9,4.2c-2.8,2.6-5.7,5-8.8,7.1
			c-3.1,2.2-6.4,4-9.8,5.7c-1.7,0.8-3.4,1.6-5.2,2.2c-1.8,0.6-3.6,1.2-5.4,1.6c-0.1,0-0.2,0-0.2-0.1c0-0.1,0-0.1,0.1-0.2
			c3.5-1.3,6.8-3,9.9-4.9c3.2-1.9,6.2-4,9.1-6.3c2.9-2.3,5.7-4.7,8.2-7.3c1.3-1.3,2.5-2.6,3.6-4.1c1.1-1.4,2.1-2.8,3-4.4
			c3.8-6.4,7.3-12.9,11.1-19.3c1.9-3.2,3.9-6.4,6.2-9.5c0.6-0.7,1.2-1.5,1.8-2.2c0.6-0.7,1.1-1.4,1.5-2.1c0.4-0.7,0.6-1.5,0.5-1.8
			c0-0.2-0.1-0.3-0.4-0.5c-0.2-0.1-0.6-0.3-0.9-0.3l0.5-0.1c-0.8,0.4-1.5,0.6-2.3,0.7c-0.8,0.1-1.7,0-2.5-0.4
			c-0.8-0.4-1.4-1.2-1.7-1.9c-0.3-0.8-0.5-1.5-0.5-2.3c-0.1-1.3-0.4-2.6-1.3-3.3c-0.9-0.7-2.3-0.7-3.4-0.2l0.1-0.1
			c-0.8,0.6-1.6,0.9-2.4,1.2c-0.8,0.3-1.6,0.5-2.5,0.7c-1.7,0.3-3.3,0.5-5,0.6c-3.4,0.2-6.7,0-10.1-0.3c-1.7-0.1-3.3-0.3-5-0.6
			c-1.7-0.2-3.3-0.5-4.9-0.7c-3.3-0.4-6.6-0.7-9.8-0.9c-6.6-0.4-13.2-0.5-19.8-0.4c-6.6,0.1-13.3,0.4-19.9,0.8
			c-0.1,0-0.2-0.1-0.2-0.1C90.5-16.4,90.6-16.5,90.6-16.5z"/>
	</g>
	<g display="inline">
		<path fill="#3F3E29" d="M176.7-18.4c0.4-0.8,0.7-1.6,1.1-2.3l0,0.2c-0.5-1.1-0.9-2.2-1.1-3.4c-0.2-1.2-0.1-2.4,0.2-3.7
			c0.2-0.6,0.4-1.2,0.8-1.7c0.1-0.2,0.3-0.5,0.5-0.8c0.2-0.2,0.4-0.5,0.6-0.7c0.9-0.9,2.1-1.6,3.5-1.7c0.7-0.1,1.4,0,2.1,0.4
			c0.7,0.3,1.2,0.8,1.7,1.4c0.8,1.1,1.1,2.5,1.3,3.7c0.1,1.1,0.4,2.1,0.9,2.9c0.5,0.8,1.2,1.2,2.1,1.4c0.5,0.1,1,0.1,1.5,0.1
			c0.5,0,1.1,0,1.9,0.1c1.3,0.3,2.5,0.8,3.5,1.6c0.5,0.4,1,1,1.3,1.8c0.3,0.8,0.1,1.8-0.4,2.4c-0.9,1.2-2,1.8-3.1,2.3
			c-1.1,0.5-2.2,1-3.4,1.2c-0.6,0.1-1.3,0.1-2-0.1c-0.3-0.1-0.6-0.3-0.9-0.4c-0.2-0.1-0.4-0.2-0.6-0.2c-0.4,0-1,0.2-1.5,0.4
			c-0.5,0.2-1,0.5-1.5,0.8c-1,0.6-2,1.2-2.9,1.8c0.8-0.8,1.7-1.6,2.6-2.3c0.5-0.4,0.9-0.7,1.5-1c0.5-0.3,1.1-0.6,1.8-0.7
			c0.4,0,0.8,0.1,1.1,0.2c0.3,0.1,0.5,0.2,0.7,0.3c0.4,0.1,0.9,0.1,1.4-0.1c1-0.3,2-0.8,3-1.3c0.9-0.5,1.9-1.2,2.3-1.9
			c0.2-0.4,0.2-0.6,0.1-0.9c-0.1-0.3-0.4-0.6-0.8-0.9c-0.8-0.6-1.8-1-2.7-1.2c-0.4-0.1-0.9,0-1.6,0c-0.6,0-1.2,0-1.9-0.1
			c-0.7-0.1-1.4-0.4-2-0.8c-0.6-0.4-1.1-1-1.5-1.6c-0.7-1.2-1-2.5-1.1-3.7c-0.1-1.1-0.3-2.1-0.8-2.8c-0.5-0.7-1.3-1.2-2.2-1.1
			c-1.9,0.1-3.7,1.8-4.4,3.7c-0.8,2-0.6,4.4,0.1,6.5l0,0.1l-0.1,0.1C177.7-19.8,177.2-19.1,176.7-18.4z"/>
	</g>
	<g display="inline">
		<path fill="#3F3E29" d="M136.6,8.8c2.7-1.8,5.5-3.2,8.3-4.6c2.8-1.4,5.8-2.4,8.7-3.6l8.8-3.5l8.8-3.4l0.1,0.2l-8.5,4.2L154.3,2
			c-2.8,1.3-5.6,2.8-8.6,4c-2.9,1.1-5.9,2.2-9,3L136.6,8.8z"/>
	</g>
	<g display="inline">
		<path fill="#3F3E29" d="M140.1,32.6c2.7-1.9,5.3-4.1,7.8-6.2c2.5-2.2,5.1-4.2,7.6-6.5c2.5-2.3,4.8-4.6,7.2-7
			c2.3-2.4,4.6-4.9,6.8-7.4l0.2,0.1c-2,2.7-4.1,5.3-6.2,7.9c-2.2,2.6-4.4,5.1-6.8,7.5c-2.4,2.4-4.7,4.9-7.5,6.9
			c-1.4,1-2.8,2-4.3,2.8c-1.5,0.8-3,1.6-4.7,2.1L140.1,32.6z"/>
	</g>
	<g display="inline">
		<path fill="#3F3E29" d="M123.6-11.4c2.6-0.2,5.1,0,7.6,0.3c2.5,0.2,5,0.9,7.5,1.3c2.5,0.4,5,0.7,7.5,0.8c2.5,0.1,5,0,7.6,0l0,0.2
			c-2.5,0.3-5,0.6-7.6,0.8c-2.6,0.1-5.1,0-7.7-0.2c-2.5-0.2-5.1-0.3-7.6-0.9c-2.5-0.5-4.9-1.1-7.4-2L123.6-11.4z"/>
	</g>
	<g display="inline">
		<path fill="#3F3E29" d="M126.6-14.8c4.9,2.2,9.3,5.3,13.2,9.1c3.9,3.7,7.1,8.2,9.3,13.2c1,2.5,1.8,5.2,2.2,7.8
			c0.4,2.7,0.5,5.4,0.3,8.1c-0.5,5.4-2.2,10.6-4.8,15.2c1.8-5,3.1-10.1,3.3-15.3c0.2-5.2-0.8-10.4-2.8-15.1c-2-4.8-5-9.1-8.5-12.9
			C135.1-8.5,131-11.9,126.6-14.8z"/>
	</g>
	<g display="inline">
		<path fill="#3F3E29" d="M153.7-3.5c1.9,1.5,3.5,3.3,4.8,5.2c1.4,2,2.5,4.1,3.3,6.4c0.8,2.3,1.2,4.8,1,7.2c-0.2,2.4-1,4.9-2.4,6.8
			c0.7-2.3,1-4.5,0.8-6.8c-0.1-2.2-0.6-4.4-1.4-6.6c-0.7-2.1-1.7-4.2-2.7-6.2C156.2,0.5,155-1.5,153.7-3.5z"/>
	</g>
</g>
<g id="Layer_5">
	<path fill="#ECDFA7" d="M262.7,67.4l-9.2,65.7c0,0-15,5.5-28.6-6l14.9-63.7l-28.1-57c0,0,11.1-4.7,18.2-3.1l24.7,46.6l42.8-36.4
		c0,0,14.4,5,15.7,9.8L262.7,67.4z"/>
	<path display="none" fill="#EF4135" d="M55.7,73.8c0,0-4.3,10.4,11.9,11.6c0,0,2.4,8.1-1.4,13.1c0,0-17.1-1.9-15.7-15.8
		C50.5,82.7,53.3,74.2,55.7,73.8z"/>
	<g display="none">
		<g display="inline">
			<path fill="#ECDFA7" d="M152.6,125.9c2.3-0.4,3.5-0.8,5-1.9v-21.9c0-3.8-1.4-4.9-5.3-5l0.2-2.3c3.3-0.6,6.5-1.7,9.4-2.6l1.3,0.7
				l0.6,4c0.5-0.6,4-4.7,9.1-4.7c4.5,0,7.8,1.6,9.8,5c2.5-2.5,5.8-5,10-5c6.1,0,11.5,3.1,11.5,11.5V124c0.9,0.7,3.1,1.6,5.3,2.1
				l-0.3,2.6h-16.8l0.2-2.6c1.9-0.3,3.6-1,5-2.1v-20.4c0-5.3-1.9-7.6-5.8-7.6c-3.6,0-6.9,3.3-7.7,6V124c0.9,0.7,3.1,1.6,5.3,2.1
				l-0.3,2.6h-16.8l0.2-2.6c1.9-0.3,3.6-1,5-2.1v-20.4c0-5.3-1.9-7.6-5.7-7.6c-3.6,0-6.9,3.3-7.7,6V124c1.3,0.9,3.1,1.6,5.3,2.1
				l-0.3,2.6h-16.9L152.6,125.9z"/>
		</g>
	</g>
	<g>
		<g>
			<path fill="#3F3E29" d="M0.5,94.5c2.8-0.3,5.4-0.8,7.8-2.2V49c-2.4-1.4-5.4-1.9-8.2-2.2l0.4-3.2h23.7l-0.5,3.2
				c-2.8,0.3-5.4,0.8-7.8,2.2v18.7H41V49c-2.4-1.4-5.4-1.9-8.2-2.2l0.4-3.2h23.7l-0.5,3.2c-2.8,0.3-5.4,0.8-7.8,2.2v43.2
				c2.4,1.4,5.4,1.9,8.2,2.2l-0.4,3.2H32.8l0.5-3.2c2.8-0.3,5.4-0.8,7.8-2.2V72.2H15.9v20.1c2.4,1.4,5.4,1.9,8.2,2.2l-0.4,3.2H0
				L0.5,94.5z"/>
		</g>
		<g>
			<path fill="#3F3E29" d="M84.4,93.9c-3.6,3.4-7.4,4.5-11.8,4.5c-6.8,0-10.8-3.7-10.8-9.9c0-7.4,5.4-11.9,15.5-12.6l6.8-0.5v-7
				c0-5.8-2.2-8.2-7.2-8.2c-4.3,0-6.8,1.4-6.8,3.9c0,1.4,1,2.6,2.6,3.2c0,2.6-1.8,4.1-5,4.1c-3,0-5-2-5-5c0-5.9,5.4-9.7,14.1-9.7
				c9.1,0,14.6,4.3,14.6,11.7v24.1c1,0.8,3.5,1.8,6,2.3l-0.3,3H85.3L84.4,93.9z M84.1,78.9l-6.5,0.6c-5.1,0.5-8.2,3.6-8.2,8.2
				c0,4.6,1.8,7.1,5.4,7.1c3.1,0,5.8-1.4,9.3-5V78.9z"/>
		</g>
		<g>
			<path fill="#3F3E29" d="M102.7,94.6c2.6-0.4,3.9-0.9,5.7-2.2V67.8c0-4.3-1.6-5.5-6-5.7l0.2-2.6c3.7-0.6,7.3-1.9,10.6-2.9l1.5,0.8
				l0.6,4.5c0.6-0.7,4.5-5.3,10.3-5.3c5.1,0,8.8,1.8,11,5.6c2.8-2.8,6.5-5.6,11.3-5.6c6.9,0,13,3.4,13,13v22.8c1,0.8,3.5,1.8,6,2.3
				l-0.3,3h-19l0.2-3c2.2-0.3,4.1-1.1,5.7-2.3V69.4c0-6-2.2-8.6-6.5-8.6c-4.1,0-7.8,3.8-8.7,6.7v24.9c1,0.8,3.5,1.8,6,2.3l-0.3,3
				h-19l0.2-3c2.2-0.3,4.1-1.1,5.7-2.3V69.4c0-6-2.2-8.6-6.5-8.6c-4.1,0-7.8,3.8-8.7,6.7v24.9c1.4,1,3.5,1.8,6,2.3l-0.3,3h-19.1
				L102.7,94.6z"/>
		</g>
		<g>
			<path fill="#3F3E29" d="M172.4,94.6c2.6-0.4,3.9-0.9,5.7-2.2v-42c0-4.3-1.6-5.5-6-5.7l0.2-2.6c3.8-0.6,7.9-1.9,11.4-3l1.7,0.9
				v52.3c1.4,1,3.5,1.8,6,2.3l-0.3,3h-19.1L172.4,94.6z"/>
		</g>
	</g>
	<g>
		<path fill="#3F3E29" d="M319.2,74c-0.7-1.4-1.6-2.7-2.6-3.9c-2-2.3-4.4-4.2-7-5.7c-2.5-1.6-5.3-2.9-8.1-3.8l-1.1-0.3
			c-0.3-0.1-0.6-0.2-0.9-0.3c-0.6-0.2-1.1-0.5-1.6-0.7c-1-0.6-1.7-1.2-2.2-2c-1-1.5-1.1-3.8-0.6-6.2c0.1-0.6,0.3-1.2,0.5-1.8
			c0.2-0.6,0.4-1.2,0.6-1.9c0.2-0.9,0.3-1.8,0.3-2.9l0.5-0.4l6-5c1.1-0.9,2.2-1.9,3.3-2.8c0.4,0.2,0.8,0.5,1.1,0.7
			c0,0,3.1,0.3,4.8-4.4l-0.9-0.6l0.6-0.5l1.5-1.3c0.5-0.4,0.9-0.9,1.1-1.8c-0.9-0.1-1.5,0.2-2,0.6l-1.6,1.2l-1.1,0.8l-13.8-9.5
			c0.7-0.6,1.3-1.1,2-1.7l2.9-2.6c0.1-0.1,0.2-0.2,0.3-0.3c0.3,0.2,0.5,0.4,0.8,0.6c0.7,0.5,1.5,1,2.2,1.4l4.4,2.4
			c1.4,0.8,2.9,1.6,4.4,2.3c0.7,0.4,1.5,0.7,2.3,1c0.4,0.1,0.8,0.3,1.2,0.4c0.2,0,0.5,0.1,0.7,0.1c0.1,0,0.3,0,0.5,0
			c0.2,0,0.4-0.1,0.6-0.4l0-0.1l0,0l0,0l0,0c0-0.1,0-0.2,0.1-0.3c0-0.2,0-0.3,0-0.4c0-0.2-0.1-0.3-0.2-0.4c-0.1-0.2-0.3-0.4-0.4-0.6
			c-0.3-0.3-0.6-0.7-0.9-0.9c-0.6-0.6-1.3-1.1-1.9-1.6c-1.3-1-2.7-1.9-4.1-2.8c-1.4-0.9-2.8-1.7-4.3-2.4c-0.7-0.4-1.5-0.7-2.3-1
			c-0.4-0.1-0.8-0.3-1.3-0.4c-0.2,0-0.5-0.1-0.8-0.1c-0.2,0-0.3,0-0.6,0.1c-0.2,0.1-0.5,0.2-0.8,0.5c-0.7,0.3-1.3,0.6-1.8,1L296,17
			c-0.9,0.7-1.9,1.5-2.8,2.2l-1-0.7c0,0-4.2,0.4-2.8,3.1c0,0,0.1,0.1,0.4,0.4c-4,3.3-7.9,6.7-11.8,10c-4,3.4-7.9,6.8-11.9,10.3
			l-5.9,5.2c-0.3,0.3-0.6,0.6-1,0.9c-0.2-0.6-0.5-1.1-0.7-1.6l-1.4-3l-2.7-6c-1.8-4-3.6-8-5.5-12l-5.6-11.9
			c-0.3-0.6-0.6-1.2-0.9-1.8c0.5,0,0.9,0,1.2,0c0,0,0.4-3.3-2-3.9c0,0-0.4,0-1,0.1c-0.9-1.8-1.7-3.6-2.6-5.4c0,0,0,0,0,0l-0.4-1.5
			c-0.1-0.5-0.4-0.7-0.6-0.9c-0.2-0.1-0.4-0.2-0.5-0.2c-0.3-0.1-0.5-0.1-0.8-0.2C235.2,0,234.8,0,234.4,0c-0.9,0-1.7,0.1-2.5,0.2
			c-1.6,0.2-3.3,0.5-4.9,0.9c-1.6,0.4-3.2,0.8-4.8,1.3c-0.8,0.3-1.6,0.5-2.3,0.9c-0.4,0.2-0.8,0.4-1.2,0.6c-0.2,0.1-0.4,0.3-0.6,0.4
			c-0.1,0.1-0.2,0.2-0.3,0.3c-0.1,0.1-0.1,0.2-0.2,0.3c0,0.1,0,0.2,0,0.3l0,0l0,0v0l0,0.1c0.1,0.4,0.3,0.5,0.5,0.6
			c0.2,0.1,0.3,0.2,0.4,0.2c0.3,0.1,0.5,0.1,0.7,0.2c0.4,0.1,0.9,0.1,1.3,0.1c0.8,0,1.7-0.1,2.5-0.2c1.6-0.2,3.3-0.4,4.9-0.7
			l4.9-0.8c0.8-0.1,1.6-0.3,2.5-0.5c0.7,1.4,1.4,2.9,2.1,4.3c-4.6,0.4-11.8,1-16.3,1.5c-0.5-0.9-0.9-1.7-1.4-2.6
			c-0.1-0.2-0.4-0.4-0.7-0.3c-0.3,0.1-0.4,0.4-0.3,0.7c0.3,0.8,0.6,1.5,0.9,2.3c-1.4,0.2-2.3,0.4-2.4,0.6c-0.5,0.9,1,5.6,3,6.8
			c0,0,0.8-0.3,2.2-0.6c0.7,1.6,1.4,3.2,2.1,4.8l6,13.6l6.1,13.6c2,4.5,4.1,9,6.2,13.6l0,0c0,0,0,0.1,0.1,0.1c-0.3,1-0.6,2-0.9,3
			c-0.8,2.8-1.6,5.6-2.4,8.4c-1.5,5.6-2.9,11.3-4.3,16.9l-2.1,8.5l-2,8.5c-1.4,5.7-2.7,11.3-4.3,16.9c0,0.1,0,0.3,0.1,0.4
			c0.8,1.1,1.9,1.9,2.9,2.7c1.1,0.8,2.2,1.4,3.3,2c2.3,1.2,4.7,2.1,7.2,2.9c2.5,0.7,5.1,1.2,7.8,1.3c1.3,0.1,2.7,0,4-0.2
			c1.3-0.2,2.6-0.4,4-0.8c0.4-0.1,0.7-0.5,0.8-0.9l0-0.1c1.1-5.5,2-11.1,3-16.6l2.8-16.7c0.9-5.6,1.9-11.1,2.8-16.7
			c0.1-0.6,0.2-1.3,0.3-1.9c0.2,0.2,0.3,0.5,0.5,0.7c1,1.2,2.2,2.2,3.4,3.1c2.4,1.7,5,3,7.6,4c2.6,1,5.3,1.8,8,2.4
			c1.8,0.4,3.5,0.7,5.3,0.9c-0.8,1.8-1.3,3.7-1.2,5.8c0,0.2,0.1,0.4,0.3,0.5l0.1,0c1.9,1,3.9,1.8,6.1,2.3c2.1,0.4,4.4,0.6,6.6,0.3
			c2.3-0.3,4.6-1.2,6.4-2.7c1.8-1.5,3.1-3.5,3.9-5.6l0.1-0.1c0,0,0-0.1,0-0.1c0.1-0.9,0.2-1.8,0.3-2.7c0,0,0-0.1,0-0.1
			c1-0.6,2-1.2,3-2c1.2-1,2.3-2.1,3.1-3.5c0.8-1.4,1.3-3.1,1.2-4.8C320.5,77,319.9,75.4,319.2,74z M317.3,23.6
			C317.3,23.6,317.3,23.6,317.3,23.6C317.3,23.6,317.3,23.7,317.3,23.6z M310.2,18.3c1.4,0.8,2.7,1.6,4,2.6c0.6,0.5,1.3,0.9,1.9,1.5
			c0.3,0.3,0.6,0.5,0.8,0.8c0.1,0.1,0.1,0.1,0.2,0.2c-0.1,0-0.2,0-0.2,0c-0.4-0.1-0.7-0.2-1.1-0.3c-0.7-0.3-1.5-0.6-2.2-0.9
			c-1.4-0.7-2.9-1.4-4.2-2.3c-1.3-0.9-2.6-1.9-3.7-3c-0.4-0.4-0.8-0.8-1.1-1.2c0.5,0.2,1,0.4,1.5,0.6
			C307.4,16.8,308.8,17.5,310.2,18.3z M303.4,13.9c0,0,0,0,0.1,0.1c0,0,0,0.1,0,0.1l0,0.1c0,0,0-0.1-0.1-0.1
			C303.4,14.1,303.4,13.9,303.4,13.9C303.4,13.9,303.4,13.9,303.4,13.9z M218.9,5.3C218.9,5.3,218.9,5.3,218.9,5.3
			C218.9,5.3,218.9,5.3,218.9,5.3z M232.1,2.7c-1.4,0.7-3,1.2-4.5,1.6c-1.6,0.4-3.1,0.7-4.7,0.8c-0.8,0.1-1.6,0.1-2.4,0.1
			c-0.4,0-0.8,0-1.1-0.1c-0.1,0-0.2,0-0.3,0c0.1,0,0.1-0.1,0.2-0.1c0.3-0.2,0.7-0.3,1-0.5c0.7-0.3,1.5-0.5,2.2-0.8
			c1.5-0.4,3.1-0.8,4.7-1.1c1.6-0.3,3.2-0.5,4.7-0.6c0.5,0,1,0,1.5-0.1C233.1,2.2,232.6,2.4,232.1,2.7z M301.5,36.8l-6.2,4.8
			l-6.2,4.9c-1.7,1.4-3.4,2.8-5.1,4.1c0.1-0.1,0.2-0.3,0.3-0.4c0.8-1.1,1.6-2.1,2.4-3.1c1.7-2,3.3-4.1,5.1-6
			c1.8-1.9,3.7-3.8,5.6-5.5c1-0.9,2-1.7,3.1-2.4c0.3-0.2,0.6-0.4,0.9-0.6c0.9,0.7,1.9,1.4,2.8,2.1C303.4,35.4,302.4,36.1,301.5,36.8
			z M228.2,24.5l0.5,0.5c1,1,2,2,2.8,3.1c0.8,1.1,1.5,2.3,1.8,3.5c0.2,1,0.2,2.1-0.3,3l-0.1-0.3L228.2,24.5z M233.1,34.9
			c0.3-0.3,0.5-0.7,0.7-1.2c0.3-0.7,0.3-1.5,0.2-2.2c-0.2-1.5-0.9-2.9-1.8-4c-1.3-1.7-2.9-3.1-4.7-4.3l-1.1-2.3
			c-0.7-1.5-1.4-3-2.2-4.4c1.5-0.4,3.3-1,5.3-1.5c1.8,2.9,3.4,5.9,4.9,9c1.7,3.9,3.4,8,3.7,12.2c0.1,1,0,2.1,0,3.2
			c0,1.1,0,2.2,0.1,3.3c0.1,1.5,0.4,3.1,0.7,4.6L233.1,34.9z M256.7,116.4c-0.3,0.4-0.5,0.7-0.9,1c-0.5,0.4-1,0.6-1.6,0.5
			c-0.5-0.1-0.9-0.6-1.1-1.1c-0.2-0.5-0.4-1.1-0.4-1.7c-0.1-1.2-0.1-2.4,0.2-3.6c0.2-1.2,0.6-2.3,1.1-3.4c0.3-0.5,0.6-1,1-1.4
			c0.4-0.4,0.9-0.7,1.4-0.6c0.5,0,1,0.5,1.3,1c0.2,0.3,0.3,0.6,0.4,0.9l-1.2,7.1C256.8,115.6,256.8,116,256.7,116.4z M262.6,81.9
			c-0.6,3.5-1.2,7-1.8,10.5c-0.1-0.7-0.3-1.4-0.5-2.1c-0.5-1.9-1.1-3.7-1.7-5.5c-1.3-3.6-2.8-7.1-4.6-10.4c1.1,3.7,2.4,7.2,3.7,10.8
			c0.7,1.8,1.3,3.6,1.9,5.3c0.3,0.9,0.6,1.8,0.9,2.7c0,0.1,0.1,0.3,0.1,0.4c-0.3,1.6-0.6,3.2-0.8,4.9l-1.5,9.1
			c-0.1-0.2-0.1-0.4-0.2-0.6c-0.3-0.6-0.7-1.2-1.5-1.4c-0.7-0.2-1.4,0.2-2,0.6c-0.5,0.4-0.9,1-1.3,1.5c-0.7,1.1-1.1,2.4-1.3,3.6
			c-0.2,1.3-0.3,2.6,0,3.9c0.1,0.6,0.3,1.3,0.7,1.9c0.3,0.6,0.9,1.2,1.6,1.3c0.7,0.1,1.4-0.3,1.8-0.8c0.2-0.2,0.4-0.5,0.6-0.7
			c-0.7,4.7-1.5,9.4-2.2,14.2c-0.9,0.3-1.8,0.5-2.7,0.6c-1.2,0.2-2.4,0.3-3.6,0.4c-2.5,0.1-4.9-0.1-7.4-0.7
			c-2.4-0.5-4.9-1.3-7.2-2.3c-2.2-1-4.3-2.3-5.9-4.1c1.5-5.5,3.2-11,4.9-16.5l2.6-8.3l2.5-8.4c1.7-5.6,3.4-11.2,5-16.8
			c0.8-2.8,1.5-5.6,2.3-8.4c0.6-2.9,1.8-5.6,0.9-8.8c0,0,0-0.1,0-0.1c-0.1-0.1-0.2-0.1-0.2,0c-0.5,0.5-0.8,0.9-1.2,1.4
			c-1.1-2.5-2.3-4.9-3.4-7.4c-0.3-0.9-0.6-1.8-0.8-2.8c-0.5-2.1-0.9-4.2-1-6.3c-0.1-1.1-0.1-2.1-0.1-3.2c0-1.1,0.1-2.2,0-3.3
			c-0.4-4.4-2.1-8.6-4-12.5c-1.5-3.1-3.3-6-5.3-8.8c3.3-0.9,6.8-1.8,9.6-2.3c0.4,0.9,0.9,1.7,1.3,2.6l6,11.8c2,3.9,4,7.8,6,11.7
			l3,5.8l1.5,2.9c0.4,0.6,0.6,1.3,1,1.8c-1.3,1.2-2.6,2.4-3.9,3.6c-0.1,0.1-0.2,0.3,0,0.5c0.1,0.2,0.4,0.2,0.5,0.1
			c2.1-1.5,4.2-3.1,6.3-4.7l6.3-4.8c4.2-3.2,8.3-6.4,12.4-9.6c4.1-3.2,8.2-6.5,12.3-9.8c0,0,0.1-0.1,0.1-0.1c2.2,2.1,5.5,5.2,9,7.9
			c-1.5,0.8-2.9,1.6-4.2,2.6c-2.1,1.6-4.1,3.4-5.9,5.4c-1.8,2-3.5,4-5,6.2c-1.1,1.5-2.1,3.1-3.1,4.8c-6.1,5-12.1,10.1-17.9,15.4
			c-0.2,0.2-0.2,0.5-0.1,0.7c0.2,0.2,0.5,0.3,0.7,0.2c-0.7,2-1.1,4-1.5,6C263.7,76.3,263.1,79.1,262.6,81.9z M306.8,95.3
			c-1.4,1.1-3.1,1.8-4.9,2.2c-1.8,0.4-3.8,0.4-5.7,0.2c-1.8-0.2-3.7-0.5-5.5-1c-0.2-1.6,0.1-3.4,0.8-5c0.7,0.1,1.3,0.1,2,0.2
			c0.3,0,0.5-0.1,0.6-0.4c0.1-0.3,0-0.7-0.4-0.8l0,0c-0.5-0.2-0.9-0.3-1.4-0.5c0.4-0.7,0.9-1.3,1.4-1.9c0.6-0.6,1.2-1.2,1.8-1.7
			c1.3,0.8,2.6,1.4,4.1,1.9c1.7,0.5,3.5,0.7,5.4,0.5c1.8-0.2,3.7-1.1,4.9-2.6c1.1-1.3,1.6-2.8,1.7-4.4c0.2,0.6,0.2,1.3,0.1,1.9
			c-0.1,0.8-0.2,1.7-0.4,2.5c-0.1,0.5-0.2,1-0.3,1.5c-0.5,0.3-1,0.6-1.5,0.9c-0.6,0.4-1.1,0.8-1.6,1.7c0.9,0.3,1.6,0.2,2.3,0
			c0.1,0,0.1-0.1,0.2-0.1c-0.1,0.3-0.1,0.5-0.2,0.8C309.4,92.8,308.2,94.2,306.8,95.3z M316.7,82.2c-0.5,1.1-1.3,2.1-2.2,3
			c-0.4,0.4-0.9,0.8-1.3,1.1c0-0.9-0.1-1.8-0.3-2.7c-0.1-0.5-0.2-0.9-0.4-1.4c-0.2-0.4-0.4-0.9-0.9-1.2c0,0,0,0,0,0
			c-0.1,0-0.2,0-0.2,0.1l0,0c-0.6,1.5-1.6,2.8-2.7,3.7c-1.1,0.9-2.5,1.3-3.9,1.4c-1.4,0.1-2.9-0.2-4.4-0.6c-1.5-0.4-3-0.9-4.5-1.4
			l-0.2-0.1c-0.3-0.1-0.7,0-0.9,0.2c-0.8,1-1.4,1.9-2.1,2.9c-0.5,0.8-0.9,1.5-1.3,2.3c-1.8-0.7-3.5-1.3-5.3-2c-2.5-1-5-2-7.3-3.2
			c-2.4-1.1-4.7-2.4-6.7-3.9c-2-1.5-3.8-3.1-4.7-5.1l0-0.1c-0.2-0.4-0.5-0.7-0.9-0.9c0-0.2,0.1-0.5,0.1-0.7c0.3-2.4,0.7-4.8,0.5-7.3
			c8.1-5.7,16-11.7,23.8-17.9c-0.1,0.3-0.2,0.6-0.3,0.9c-0.5,1.5-0.7,3.2-0.7,4.9c0.1,1.7,0.6,3.6,1.7,5.2c1.1,1.6,2.6,2.8,4.1,3.5
			c0.8,0.4,1.6,0.7,2.3,0.9c0.4,0.1,0.8,0.2,1.2,0.3l1,0.2c2.6,0.7,5.1,1.7,7.4,3c2.3,1.3,4.5,2.9,6.3,4.7c1.8,1.8,3.2,4.1,3.4,6.4
			C317.4,80,317.2,81.2,316.7,82.2z"/>
		<path fill="#3F3E29" d="M250.3,105.2c-0.8,1.1-1.4,2.4-1.7,3.7c-0.2,0.7-0.3,1.4-0.3,2l-0.1,2c-0.2,2.6-0.1,5.4,0.7,8
			c0.8,2.6,1.9,5,3.2,7.3c-0.4-1.3-0.9-2.5-1.3-3.7c-0.4-1.2-0.8-2.5-1.1-3.8c-0.6-2.5-0.6-5.1-0.5-7.7l0.1-2c0-0.6,0.1-1.3,0.2-1.9
			c0.3-1.2,0.8-2.4,1.4-3.5c0.7-1.1,1.5-2.1,2.5-3c0.9-0.9,2-1.7,3.2-2.3C254.1,101.3,251.8,102.9,250.3,105.2z"/>
	</g>
</g>
</svg>
