<?xml version="1.0" encoding="UTF-8" standalone="no"?>
<!-- Generator: Adobe Illustrator 18.0.0, SVG Export Plug-In . SVG Version: 6.00 Build 0)  -->

<svg
   version="1.1"
   id="Layer_1"
   x="0px"
   y="0px"
   width="108.91268"
   height="134.41457"
   viewBox="0 0 108.91268 134.41457"
   enable-background="new 0 0 320.5 134.4"
   xml:space="preserve"
   xmlns="http://www.w3.org/2000/svg"
   xmlns:svg="http://www.w3.org/2000/svg"><defs
   id="defs88">
	
	
	
	
	
</defs>



<path
   fill="#ecdfa7"
   d="m 51,67.4 -9.2,65.7 c 0,0 -15,5.5 -28.6,-6 L 28.1,63.4 0,6.4 C 0,6.4 11.1,1.7 18.2,3.3 L 42.9,49.9 85.7,13.5 c 0,0 14.4,5 15.7,9.8 z"
   id="path79" /><g
   id="g88"
   transform="translate(-211.7)">
		<path
   fill="#3f3e29"
   d="m 319.2,74 c -0.7,-1.4 -1.6,-2.7 -2.6,-3.9 -2,-2.3 -4.4,-4.2 -7,-5.7 -2.5,-1.6 -5.3,-2.9 -8.1,-3.8 l -1.1,-0.3 c -0.3,-0.1 -0.6,-0.2 -0.9,-0.3 -0.6,-0.2 -1.1,-0.5 -1.6,-0.7 -1,-0.6 -1.7,-1.2 -2.2,-2 -1,-1.5 -1.1,-3.8 -0.6,-6.2 0.1,-0.6 0.3,-1.2 0.5,-1.8 0.2,-0.6 0.4,-1.2 0.6,-1.9 0.2,-0.9 0.3,-1.8 0.3,-2.9 l 0.5,-0.4 6,-5 c 1.1,-0.9 2.2,-1.9 3.3,-2.8 0.4,0.2 0.8,0.5 1.1,0.7 0,0 3.1,0.3 4.8,-4.4 l -0.9,-0.6 0.6,-0.5 1.5,-1.3 c 0.5,-0.4 0.9,-0.9 1.1,-1.8 -0.9,-0.1 -1.5,0.2 -2,0.6 l -1.6,1.2 -1.1,0.8 -13.8,-9.5 c 0.7,-0.6 1.3,-1.1 2,-1.7 l 2.9,-2.6 c 0.1,-0.1 0.2,-0.2 0.3,-0.3 0.3,0.2 0.5,0.4 0.8,0.6 0.7,0.5 1.5,1 2.2,1.4 l 4.4,2.4 c 1.4,0.8 2.9,1.6 4.4,2.3 0.7,0.4 1.5,0.7 2.3,1 0.4,0.1 0.8,0.3 1.2,0.4 0.2,0 0.5,0.1 0.7,0.1 0.1,0 0.3,0 0.5,0 0.2,0 0.4,-0.1 0.6,-0.4 v -0.1 0 0 0 c 0,-0.1 0,-0.2 0.1,-0.3 0,-0.2 0,-0.3 0,-0.4 0,-0.2 -0.1,-0.3 -0.2,-0.4 -0.1,-0.2 -0.3,-0.4 -0.4,-0.6 -0.3,-0.3 -0.6,-0.7 -0.9,-0.9 -0.6,-0.6 -1.3,-1.1 -1.9,-1.6 -1.3,-1 -2.7,-1.9 -4.1,-2.8 -1.4,-0.9 -2.8,-1.7 -4.3,-2.4 -0.7,-0.4 -1.5,-0.7 -2.3,-1 -0.4,-0.1 -0.8,-0.3 -1.3,-0.4 -0.2,0 -0.5,-0.1 -0.8,-0.1 -0.2,0 -0.3,0 -0.6,0.1 -0.2,0.1 -0.5,0.2 -0.8,0.5 -0.7,0.3 -1.3,0.6 -1.8,1 l -3,1.7 c -0.9,0.7 -1.9,1.5 -2.8,2.2 l -1,-0.7 c 0,0 -4.2,0.4 -2.8,3.1 0,0 0.1,0.1 0.4,0.4 -4,3.3 -7.9,6.7 -11.8,10 -4,3.4 -7.9,6.8 -11.9,10.3 l -5.9,5.2 c -0.3,0.3 -0.6,0.6 -1,0.9 -0.2,-0.6 -0.5,-1.1 -0.7,-1.6 l -1.4,-3 -2.7,-6 c -1.8,-4 -3.6,-8 -5.5,-12 l -5.6,-11.9 c -0.3,-0.6 -0.6,-1.2 -0.9,-1.8 0.5,0 0.9,0 1.2,0 0,0 0.4,-3.3 -2,-3.9 0,0 -0.4,0 -1,0.1 -0.9,-1.8 -1.7,-3.6 -2.6,-5.4 0,0 0,0 0,0 L 237.6,1.4 C 237.5,0.9 237.2,0.7 237,0.5 236.8,0.4 236.6,0.3 236.5,0.3 236.2,0.2 236,0.2 235.7,0.1 235.2,0 234.8,0 234.4,0 c -0.9,0 -1.7,0.1 -2.5,0.2 -1.6,0.2 -3.3,0.5 -4.9,0.9 -1.6,0.4 -3.2,0.8 -4.8,1.3 -0.8,0.3 -1.6,0.5 -2.3,0.9 -0.4,0.2 -0.8,0.4 -1.2,0.6 -0.2,0.1 -0.4,0.3 -0.6,0.4 -0.1,0.1 -0.2,0.2 -0.3,0.3 -0.1,0.1 -0.1,0.2 -0.2,0.3 0,0.1 0,0.2 0,0.3 v 0 0 0 0.1 c 0.1,0.4 0.3,0.5 0.5,0.6 0.2,0.1 0.3,0.2 0.4,0.2 0.3,0.1 0.5,0.1 0.7,0.2 0.4,0.1 0.9,0.1 1.3,0.1 0.8,0 1.7,-0.1 2.5,-0.2 1.6,-0.2 3.3,-0.4 4.9,-0.7 l 4.9,-0.8 c 0.8,-0.1 1.6,-0.3 2.5,-0.5 0.7,1.4 1.4,2.9 2.1,4.3 -4.6,0.4 -11.8,1 -16.3,1.5 -0.5,-0.9 -0.9,-1.7 -1.4,-2.6 -0.1,-0.2 -0.4,-0.4 -0.7,-0.3 -0.3,0.1 -0.4,0.4 -0.3,0.7 0.3,0.8 0.6,1.5 0.9,2.3 -1.4,0.2 -2.3,0.4 -2.4,0.6 -0.5,0.9 1,5.6 3,6.8 0,0 0.8,-0.3 2.2,-0.6 0.7,1.6 1.4,3.2 2.1,4.8 l 6,13.6 6.1,13.6 c 2,4.5 4.1,9 6.2,13.6 v 0 c 0,0 0,0.1 0.1,0.1 -0.3,1 -0.6,2 -0.9,3 -0.8,2.8 -1.6,5.6 -2.4,8.4 -1.5,5.6 -2.9,11.3 -4.3,16.9 l -2.1,8.5 -2,8.5 c -1.4,5.7 -2.7,11.3 -4.3,16.9 0,0.1 0,0.3 0.1,0.4 0.8,1.1 1.9,1.9 2.9,2.7 1.1,0.8 2.2,1.4 3.3,2 2.3,1.2 4.7,2.1 7.2,2.9 2.5,0.7 5.1,1.2 7.8,1.3 1.3,0.1 2.7,0 4,-0.2 1.3,-0.2 2.6,-0.4 4,-0.8 0.4,-0.1 0.7,-0.5 0.8,-0.9 v -0.1 c 1.1,-5.5 2,-11.1 3,-16.6 l 2.8,-16.7 c 0.9,-5.6 1.9,-11.1 2.8,-16.7 0.1,-0.6 0.2,-1.3 0.3,-1.9 0.2,0.2 0.3,0.5 0.5,0.7 1,1.2 2.2,2.2 3.4,3.1 2.4,1.7 5,3 7.6,4 2.6,1 5.3,1.8 8,2.4 1.8,0.4 3.5,0.7 5.3,0.9 -0.8,1.8 -1.3,3.7 -1.2,5.8 0,0.2 0.1,0.4 0.3,0.5 h 0.1 c 1.9,1 3.9,1.8 6.1,2.3 2.1,0.4 4.4,0.6 6.6,0.3 2.3,-0.3 4.6,-1.2 6.4,-2.7 1.8,-1.5 3.1,-3.5 3.9,-5.6 l 0.1,-0.1 c 0,0 0,-0.1 0,-0.1 0.1,-0.9 0.2,-1.8 0.3,-2.7 0,0 0,-0.1 0,-0.1 1,-0.6 2,-1.2 3,-2 1.2,-1 2.3,-2.1 3.1,-3.5 0.8,-1.4 1.3,-3.1 1.2,-4.8 -0.1,-1.6 -0.7,-3.2 -1.4,-4.6 z m -1.9,-50.4 c 0,0 0,0 0,0 0,0 0,0.1 0,0 z m -7.1,-5.3 c 1.4,0.8 2.7,1.6 4,2.6 0.6,0.5 1.3,0.9 1.9,1.5 0.3,0.3 0.6,0.5 0.8,0.8 0.1,0.1 0.1,0.1 0.2,0.2 -0.1,0 -0.2,0 -0.2,0 -0.4,-0.1 -0.7,-0.2 -1.1,-0.3 -0.7,-0.3 -1.5,-0.6 -2.2,-0.9 -1.4,-0.7 -2.9,-1.4 -4.2,-2.3 -1.3,-0.9 -2.6,-1.9 -3.7,-3 -0.4,-0.4 -0.8,-0.8 -1.1,-1.2 0.5,0.2 1,0.4 1.5,0.6 1.3,0.5 2.7,1.2 4.1,2 z m -6.8,-4.4 c 0,0 0,0 0.1,0.1 0,0 0,0.1 0,0.1 v 0.1 c 0,0 0,-0.1 -0.1,-0.1 z M 218.9,5.3 Z m 13.2,-2.6 c -1.4,0.7 -3,1.2 -4.5,1.6 -1.6,0.4 -3.1,0.7 -4.7,0.8 -0.8,0.1 -1.6,0.1 -2.4,0.1 -0.4,0 -0.8,0 -1.1,-0.1 -0.1,0 -0.2,0 -0.3,0 0.1,0 0.1,-0.1 0.2,-0.1 0.3,-0.2 0.7,-0.3 1,-0.5 0.7,-0.3 1.5,-0.5 2.2,-0.8 1.5,-0.4 3.1,-0.8 4.7,-1.1 1.6,-0.3 3.2,-0.5 4.7,-0.6 0.5,0 1,0 1.5,-0.1 -0.3,0.3 -0.8,0.5 -1.3,0.8 z m 69.4,34.1 -6.2,4.8 -6.2,4.9 c -1.7,1.4 -3.4,2.8 -5.1,4.1 0.1,-0.1 0.2,-0.3 0.3,-0.4 0.8,-1.1 1.6,-2.1 2.4,-3.1 1.7,-2 3.3,-4.1 5.1,-6 1.8,-1.9 3.7,-3.8 5.6,-5.5 1,-0.9 2,-1.7 3.1,-2.4 0.3,-0.2 0.6,-0.4 0.9,-0.6 0.9,0.7 1.9,1.4 2.8,2.1 -0.8,0.7 -1.8,1.4 -2.7,2.1 z m -73.3,-12.3 0.5,0.5 c 1,1 2,2 2.8,3.1 0.8,1.1 1.5,2.3 1.8,3.5 0.2,1 0.2,2.1 -0.3,3 l -0.1,-0.3 z m 4.9,10.4 c 0.3,-0.3 0.5,-0.7 0.7,-1.2 0.3,-0.7 0.3,-1.5 0.2,-2.2 -0.2,-1.5 -0.9,-2.9 -1.8,-4 -1.3,-1.7 -2.9,-3.1 -4.7,-4.3 l -1.1,-2.3 c -0.7,-1.5 -1.4,-3 -2.2,-4.4 1.5,-0.4 3.3,-1 5.3,-1.5 1.8,2.9 3.4,5.9 4.9,9 1.7,3.9 3.4,8 3.7,12.2 0.1,1 0,2.1 0,3.2 0,1.1 0,2.2 0.1,3.3 0.1,1.5 0.4,3.1 0.7,4.6 z m 23.6,81.5 c -0.3,0.4 -0.5,0.7 -0.9,1 -0.5,0.4 -1,0.6 -1.6,0.5 -0.5,-0.1 -0.9,-0.6 -1.1,-1.1 -0.2,-0.5 -0.4,-1.1 -0.4,-1.7 -0.1,-1.2 -0.1,-2.4 0.2,-3.6 0.2,-1.2 0.6,-2.3 1.1,-3.4 0.3,-0.5 0.6,-1 1,-1.4 0.4,-0.4 0.9,-0.7 1.4,-0.6 0.5,0 1,0.5 1.3,1 0.2,0.3 0.3,0.6 0.4,0.9 l -1.2,7.1 c -0.1,0.5 -0.1,0.9 -0.2,1.3 z m 5.9,-34.5 c -0.6,3.5 -1.2,7 -1.8,10.5 -0.1,-0.7 -0.3,-1.4 -0.5,-2.1 -0.5,-1.9 -1.1,-3.7 -1.7,-5.5 -1.3,-3.6 -2.8,-7.1 -4.6,-10.4 1.1,3.7 2.4,7.2 3.7,10.8 0.7,1.8 1.3,3.6 1.9,5.3 0.3,0.9 0.6,1.8 0.9,2.7 0,0.1 0.1,0.3 0.1,0.4 -0.3,1.6 -0.6,3.2 -0.8,4.9 l -1.5,9.1 c -0.1,-0.2 -0.1,-0.4 -0.2,-0.6 -0.3,-0.6 -0.7,-1.2 -1.5,-1.4 -0.7,-0.2 -1.4,0.2 -2,0.6 -0.5,0.4 -0.9,1 -1.3,1.5 -0.7,1.1 -1.1,2.4 -1.3,3.6 -0.2,1.3 -0.3,2.6 0,3.9 0.1,0.6 0.3,1.3 0.7,1.9 0.3,0.6 0.9,1.2 1.6,1.3 0.7,0.1 1.4,-0.3 1.8,-0.8 0.2,-0.2 0.4,-0.5 0.6,-0.7 -0.7,4.7 -1.5,9.4 -2.2,14.2 -0.9,0.3 -1.8,0.5 -2.7,0.6 -1.2,0.2 -2.4,0.3 -3.6,0.4 -2.5,0.1 -4.9,-0.1 -7.4,-0.7 -2.4,-0.5 -4.9,-1.3 -7.2,-2.3 -2.2,-1 -4.3,-2.3 -5.9,-4.1 1.5,-5.5 3.2,-11 4.9,-16.5 l 2.6,-8.3 2.5,-8.4 c 1.7,-5.6 3.4,-11.2 5,-16.8 0.8,-2.8 1.5,-5.6 2.3,-8.4 0.6,-2.9 1.8,-5.6 0.9,-8.8 0,0 0,-0.1 0,-0.1 -0.1,-0.1 -0.2,-0.1 -0.2,0 -0.5,0.5 -0.8,0.9 -1.2,1.4 -1.1,-2.5 -2.3,-4.9 -3.4,-7.4 -0.3,-0.9 -0.6,-1.8 -0.8,-2.8 -0.5,-2.1 -0.9,-4.2 -1,-6.3 -0.1,-1.1 -0.1,-2.1 -0.1,-3.2 0,-1.1 0.1,-2.2 0,-3.3 -0.4,-4.4 -2.1,-8.6 -4,-12.5 -1.5,-3.1 -3.3,-6 -5.3,-8.8 3.3,-0.9 6.8,-1.8 9.6,-2.3 0.4,0.9 0.9,1.7 1.3,2.6 l 6,11.8 c 2,3.9 4,7.8 6,11.7 l 3,5.8 1.5,2.9 c 0.4,0.6 0.6,1.3 1,1.8 -1.3,1.2 -2.6,2.4 -3.9,3.6 -0.1,0.1 -0.2,0.3 0,0.5 0.1,0.2 0.4,0.2 0.5,0.1 2.1,-1.5 4.2,-3.1 6.3,-4.7 l 6.3,-4.8 c 4.2,-3.2 8.3,-6.4 12.4,-9.6 4.1,-3.2 8.2,-6.5 12.3,-9.8 0,0 0.1,-0.1 0.1,-0.1 2.2,2.1 5.5,5.2 9,7.9 -1.5,0.8 -2.9,1.6 -4.2,2.6 -2.1,1.6 -4.1,3.4 -5.9,5.4 -1.8,2 -3.5,4 -5,6.2 -1.1,1.5 -2.1,3.1 -3.1,4.8 -6.1,5 -12.1,10.1 -17.9,15.4 -0.2,0.2 -0.2,0.5 -0.1,0.7 0.2,0.2 0.5,0.3 0.7,0.2 -0.7,2 -1.1,4 -1.5,6 -0.6,2.8 -1.2,5.6 -1.7,8.4 z m 44.2,13.4 c -1.4,1.1 -3.1,1.8 -4.9,2.2 -1.8,0.4 -3.8,0.4 -5.7,0.2 -1.8,-0.2 -3.7,-0.5 -5.5,-1 -0.2,-1.6 0.1,-3.4 0.8,-5 0.7,0.1 1.3,0.1 2,0.2 0.3,0 0.5,-0.1 0.6,-0.4 0.1,-0.3 0,-0.7 -0.4,-0.8 v 0 c -0.5,-0.2 -0.9,-0.3 -1.4,-0.5 0.4,-0.7 0.9,-1.3 1.4,-1.9 0.6,-0.6 1.2,-1.2 1.8,-1.7 1.3,0.8 2.6,1.4 4.1,1.9 1.7,0.5 3.5,0.7 5.4,0.5 1.8,-0.2 3.7,-1.1 4.9,-2.6 1.1,-1.3 1.6,-2.8 1.7,-4.4 0.2,0.6 0.2,1.3 0.1,1.9 -0.1,0.8 -0.2,1.7 -0.4,2.5 -0.1,0.5 -0.2,1 -0.3,1.5 -0.5,0.3 -1,0.6 -1.5,0.9 -0.6,0.4 -1.1,0.8 -1.6,1.7 0.9,0.3 1.6,0.2 2.3,0 0.1,0 0.1,-0.1 0.2,-0.1 -0.1,0.3 -0.1,0.5 -0.2,0.8 -0.8,1.6 -2,3 -3.4,4.1 z m 9.9,-13.1 c -0.5,1.1 -1.3,2.1 -2.2,3 -0.4,0.4 -0.9,0.8 -1.3,1.1 0,-0.9 -0.1,-1.8 -0.3,-2.7 -0.1,-0.5 -0.2,-0.9 -0.4,-1.4 -0.2,-0.4 -0.4,-0.9 -0.9,-1.2 0,0 0,0 0,0 -0.1,0 -0.2,0 -0.2,0.1 v 0 c -0.6,1.5 -1.6,2.8 -2.7,3.7 -1.1,0.9 -2.5,1.3 -3.9,1.4 -1.4,0.1 -2.9,-0.2 -4.4,-0.6 -1.5,-0.4 -3,-0.9 -4.5,-1.4 l -0.2,-0.1 c -0.3,-0.1 -0.7,0 -0.9,0.2 -0.8,1 -1.4,1.9 -2.1,2.9 -0.5,0.8 -0.9,1.5 -1.3,2.3 -1.8,-0.7 -3.5,-1.3 -5.3,-2 -2.5,-1 -5,-2 -7.3,-3.2 -2.4,-1.1 -4.7,-2.4 -6.7,-3.9 -2,-1.5 -3.8,-3.1 -4.7,-5.1 v -0.1 c -0.2,-0.4 -0.5,-0.7 -0.9,-0.9 0,-0.2 0.1,-0.5 0.1,-0.7 0.3,-2.4 0.7,-4.8 0.5,-7.3 8.1,-5.7 16,-11.7 23.8,-17.9 -0.1,0.3 -0.2,0.6 -0.3,0.9 -0.5,1.5 -0.7,3.2 -0.7,4.9 0.1,1.7 0.6,3.6 1.7,5.2 1.1,1.6 2.6,2.8 4.1,3.5 0.8,0.4 1.6,0.7 2.3,0.9 0.4,0.1 0.8,0.2 1.2,0.3 l 1,0.2 c 2.6,0.7 5.1,1.7 7.4,3 2.3,1.3 4.5,2.9 6.3,4.7 1.8,1.8 3.2,4.1 3.4,6.4 0.1,1.6 -0.1,2.8 -0.6,3.8 z"
   id="path87" />
		<path
   fill="#3f3e29"
   d="m 250.3,105.2 c -0.8,1.1 -1.4,2.4 -1.7,3.7 -0.2,0.7 -0.3,1.4 -0.3,2 l -0.1,2 c -0.2,2.6 -0.1,5.4 0.7,8 0.8,2.6 1.9,5 3.2,7.3 -0.4,-1.3 -0.9,-2.5 -1.3,-3.7 -0.4,-1.2 -0.8,-2.5 -1.1,-3.8 -0.6,-2.5 -0.6,-5.1 -0.5,-7.7 l 0.1,-2 c 0,-0.6 0.1,-1.3 0.2,-1.9 0.3,-1.2 0.8,-2.4 1.4,-3.5 0.7,-1.1 1.5,-2.1 2.5,-3 0.9,-0.9 2,-1.7 3.2,-2.3 -2.5,1 -4.8,2.6 -6.3,4.9 z"
   id="path88" />
	</g>
</svg>
