<svg id="text-OL" xmlns="http://www.w3.org/2000/svg" viewBox="0 0 125 125"><defs><style>.cls-1{fill:#e6e7e8;}.cls-2{fill:#221e1f;}</style></defs><title>HomeKit_Black</title><rect class="cls-1" width="125" height="125"/><g id="_Group_" data-name="&lt;Group&gt;"><path id="_Compound_Path_" data-name="&lt;Compound Path&gt;" class="cls-2" d="M93.2,52.76l-6.83-5.44v-9.6c0-.71-.29-.91-.79-.91H81.27c-.58,0-.93.11-.93.91V42.6h0L64,29.69a2,2,0,0,0-2.94,0L31.82,52.76c-1,.81-.73,2,.41,2h5.42v29.4c0,1.9.76,2.66,2.56,2.66h44.6c1.81,0,2.57-.76,2.57-2.66V54.73H92.8C93.94,54.73,94.23,53.57,93.2,52.76ZM83.8,80.61a2,2,0,0,1-2.11,2.3H43.32a2,2,0,0,1-2.11-2.3V52.2a4.09,4.09,0,0,1,1.54-3.36L61.22,34.5A2.07,2.07,0,0,1,62.51,34a2.12,2.12,0,0,1,1.3.54L82.26,48.84A4.09,4.09,0,0,1,83.8,52.2Z"/><path id="_Compound_Path_2" data-name="&lt;Compound Path&gt;" class="cls-2" d="M76.43,52.18,63.5,42a1.64,1.64,0,0,0-1-.39,1.6,1.6,0,0,0-1,.39L48.6,52.18a2.65,2.65,0,0,0-1.07,2.41V75a1.51,1.51,0,0,0,1.63,1.7H75.87A1.5,1.5,0,0,0,77.49,75V54.59A2.65,2.65,0,0,0,76.43,52.18ZM73.8,71.49a1.2,1.2,0,0,1-1.3,1.37h-20a1.2,1.2,0,0,1-1.3-1.37V55.93A2,2,0,0,1,52,54.08l9.71-7.66a1.29,1.29,0,0,1,.82-.32,1.36,1.36,0,0,1,.83.32L73,54.08a2,2,0,0,1,.76,1.85Z"/><path id="_Compound_Path_3" data-name="&lt;Compound Path&gt;" class="cls-2" d="M63.07,53.08a1,1,0,0,0-.56-.21,1.08,1.08,0,0,0-.56.21c-.16.13-4.88,3.74-5.09,3.92a1.63,1.63,0,0,0-.61,1.27V67c0,.71.36.87.85.87H67.93c.5,0,.85-.16.85-.87V58.27a1.65,1.65,0,0,0-.6-1.27C68,56.82,63.24,53.21,63.07,53.08Zm2,10.68c0,.29-.14.36-.35.36H60.31c-.2,0-.35-.07-.35-.36V59.64a.66.66,0,0,1,.25-.53l2.08-1.63a.37.37,0,0,1,.23-.09.4.4,0,0,1,.23.09l2.07,1.63a.66.66,0,0,1,.25.53Z"/></g></svg>