<?xml version="1.0" encoding="utf-8"?>
<!-- Generator: Adobe Illustrator 22.1.0, SVG Export Plug-In . SVG Version: 6.00 Build 0)  -->
<svg version="1.1" id="Layer_1" xmlns="http://www.w3.org/2000/svg" xmlns:xlink="http://www.w3.org/1999/xlink" x="0px" y="0px"
	 viewBox="0 0 320 170" style="enable-background:new 0 0 320 170;" xml:space="preserve">
<metadata><?xpacket begin="﻿" id="W5M0MpCehiHzreSzNTczkc9d"?>
<x:xmpmeta xmlns:x="adobe:ns:meta/" x:xmptk="Adobe XMP Core 5.6-c143 79.161356, 2017/09/07-01:11:22        ">
   <rdf:RDF xmlns:rdf="http://www.w3.org/1999/02/22-rdf-syntax-ns#">
      <rdf:Description rdf:about=""/>
   </rdf:RDF>
</x:xmpmeta>
                                                                                                    
                                                                                                    
                                                                                                    
                                                                                                    
                                                                                                    
                                                                                                    
                                                                                                    
                                                                                                    
                                                                                                    
                                                                                                    
                                                                                                    
                                                                                                    
                                                                                                    
                                                                                                    
                                                                                                    
                                                                                                    
                                                                                                    
                                                                                                    
                                                                                                    
                                                                                                    
                           
<?xpacket end="w"?></metadata>
<style type="text/css">
	.st0{fill:#1CE783;}
</style>
<g id="XMLID_2489_">
	<path id="XMLID_2490_" class="st0" d="M185.3,117.3h17.2V46.1h-17.2V117.3z M155.1,97c0,2.5-2.1,4.6-4.6,4.6h-10
		c-2.5,0-4.6-2.1-4.6-4.6c0-1,0-28.7,0-28.7h-17.2v30.1c0,12.3,7.9,18.8,19.5,18.8h16.8c10.7,0,17.2-7.7,17.2-18.8V68.3h-17.2
		C155.1,68.3,155.1,96.1,155.1,97z M251.8,68.3c0,0,0,27.8,0,28.7c0,2.5-2.1,4.6-4.6,4.6h-10c-2.5,0-4.6-2.1-4.6-4.6
		c0-1,0-28.7,0-28.7h-17.2v30.1c0,12.3,7.9,18.8,19.5,18.8h16.8c10.7,0,17.2-7.7,17.2-18.8V68.3H251.8z M87,68.3c0,0-8.9,0-11,0
		c-3.9,0-5.8,1-5.8,1V46.1H53v71.1h17.1V88.6c0-2.5,2.1-4.6,4.6-4.6h10c2.5,0,4.6,2.1,4.6,4.6v28.7h17.2V86.3
		C106.5,73.3,97.8,68.3,87,68.3z"/>
</g>
</svg>
