<svg width="201" height="199" viewBox="0 0 201 199" fill="none" xmlns="http://www.w3.org/2000/svg">
<path fill-rule="evenodd" clip-rule="evenodd" d="M90.2917 79.729H114.988C122.794 35.6757 135.501 0.589661 135.501 0.589661H164.749C164.749 0.589661 121.439 160.67 149.562 160.67C177.686 160.67 186.685 119.522 186.685 119.522H200.184C200.184 140.942 186.123 169.688 168.124 185.471C150.126 201.254 110.191 214.218 109.066 145.451C108.861 132.955 109.604 120.217 110.957 107.737H87.0916C79.6728 157.049 64.6831 198.435 64.6831 198.435H35.4354C35.4354 198.435 78.7449 38.3549 50.6222 38.3549C22.4988 38.3549 13.4996 79.5022 13.4996 79.5022C13.4996 79.5022 3.37531 79.5022 0 79.5022C0 58.083 14.0617 29.3363 32.0601 13.5535C50.0584 -2.22935 89.9934 -15.1932 91.1185 53.5738C91.2602 62.2315 90.9471 71.0054 90.2917 79.729Z" fill="#CB272C"/>
</svg>
