<svg id="Laag_1" xmlns="http://www.w3.org/2000/svg" viewBox="0 0 1007.6 807" width="2000" height="1602"><style>.st0{fill:#cc2929}</style><title>Shape</title><g id="Page-1"><path id="Shape" class="st0" d="M678 454c4 2 9 6.8 15 14.5s11.3 16.5 16 26.5c10.7 25.3 16 60.7 16 106 0 69.3-23.7 121-71 155s-116 51-206 51c-98 0-173-19-225-57-55.3-41.3-83-113.7-83-217 0-78.7 23.7-141.3 71-188 16-16 30.3-28.7 43-38s29.3-19.3 50-30c26-12.7 48.8-22.8 68.5-30.5 19.7-7.7 30.5-11.8 32.5-12.5 88-34 144.7-73.7 170-119 8.7-15.3 13-31.2 13-47.5s-4.3-28.7-13-37-10-13.2-4-14.5c12 2 22.5 10 31.5 24S616 66.7 616 78s-.3 20.8-1 28.5c-.7 7.7-2.2 17-4.5 28s-5.8 22-10.5 33-10.7 23.2-18 36.5c-14.7 26.7-39.7 59-75 97-33.3 35.3-54.3 59.3-63 72l-28 38-20 34-12 33-6 33 5 28c6 18.7 23.3 34 52 46-7.3-6-14-16.3-20-31s-9-32-9-52 13.8-45.8 41.5-77.5c27.7-31.7 48.5-50.5 62.5-56s.5 0 0 0L678 454zM455 68c0 29.3 13.7 57.3 41 84l-49 27c-13.3-30-20-62.7-20-98 0-17.3 3.3-30 10-38 10-12.7 18.8-20.8 26.5-24.5 7.7-3.7 11.5-3.8 11.5-.5s-2 7-6 11c-8.7 8.7-13.3 21.7-14 39zm-35 127l-93 36L17 69C5.7 61.7 0 52.8 0 42.5s1.8-19 5.5-26S14.8 4.7 22.5 2 39.3-.7 50 2l370 193zm155 81l420 217c14 13.3 16.3 29.3 7 48-3.3 7.3-8.3 12.7-15 16s-15 4.7-25 4L527 335l48-59z"/></g></svg>