<svg height="6.008864mm" viewBox="0 0 14.907331 6.0088639" width="14.907331mm" xmlns="http://www.w3.org/2000/svg" xmlns:xlink="http://www.w3.org/1999/xlink"><clipPath id="a"><path d="m54.857 649.478h52.994v24.522h-52.994z"/></clipPath><g clip-path="url(#a)" fill="#5a87c5" transform="matrix(.35277777 0 0 -.35277777 -19.35233 237.77222)"><path d="m57.221 669.467h3.562v-1.166h-3.562z"/><path d="m60.783 667.2h-3.562v-1.166h3.562z"/><path d="m60.783 664.933h-3.562v-1.166h3.562z"/><path d="m60.783 662.667h-3.562v-1.166h3.562z"/><path d="m63.147 660.4h-8.225v-1.166h8.225z"/><path d="m63.147 658.133h-8.225v-1.166h8.225z"/><path d="m54.857 670.568h8.225v1.166h-8.225z"/><path d="m54.857 672.834h8.225v1.166h-8.225z"/><path d="m86.947 668.301-.421 1.166h-5.894v-1.166z"/><path d="m84.194 666.034v.648l.227-.648h6.525l.242.648v-.648h3.562v1.166h-6.686l-.356-.988-.357.988h-6.719v-1.166z"/><path d="m84.194 664.933h-3.562v-1.166h3.562z"/><path d="m90.164 663.768.409 1.165h-5.731l.429-1.165z"/><path d="m84.194 662.667h-3.562v-1.166h3.562z"/><path d="m84.194 660.4h-5.861v-1.166h5.861z"/><path d="m84.194 658.133h-5.861v-1.166h5.861z"/><path d="m89.347 661.501.421 1.166h-4.117l.417-1.166z"/><path d="m88.558 659.234.404 1.166h-2.501l.429-1.166z"/><path d="m87.687 656.97.071-.002.419 1.165h-.902z"/><path d="m78.268 671.733v-1.165h7.869l-.389 1.165z"/><path d="m78.268 674v-1.166h7.092l-.421 1.166z"/><path d="m94.75 668.301v1.166h-5.925l-.421-1.166z"/><path d="m94.75 664.933h-3.562v-1.166h3.562z"/><path d="m94.75 662.667h-3.562v-1.166h3.562z"/><path d="m97.114 660.4h-5.926v-1.166h5.926z"/><path d="m97.114 658.133h-5.926v-1.166h5.926z"/><path d="m89.602 671.733-.389-1.165h7.836v1.165z"/><path d="m90.444 674-.421-1.166h7.026v1.166z"/><path d="m70.173 669.467h-3.562v-1.166h3.562z"/><path d="m75.71 666.034s.761.599 1.004 1.166h-10.103v-1.166z"/><path d="m66.611 664.933v-1.165h10.103c-.243.566-1.004 1.165-1.004 1.165z"/><path d="m70.173 662.667h-3.562v-1.166h3.562z"/><path d="m77.2 668.301s.227.615.227 1.166h-3.789v-1.166z"/><path d="m73.638 662.667v-1.166h3.789c0 .55-.227 1.166-.227 1.166z"/><path d="m64.248 671.733v-1.165h13.081s-.153.898-.42 1.165z"/><path d="m76.909 659.234c.267.267.42 1.166.42 1.166h-13.081v-1.166z"/><path d="m64.248 674v-1.166h11.721s-1.198 1.166-2.784 1.166z"/><path d="m73.185 656.968c1.586 0 2.784 1.165 2.784 1.165h-11.721v-1.165z"/></g></svg>