<svg xmlns="http://www.w3.org/2000/svg" viewBox="0 0 512 512"><path d="M76.8 0h358.4C477.6 0 512 34.4 512 76.8v358.4c0 42.4-34.4 76.8-76.8 76.8H76.8C34.4 512 0 477.6 0 435.2V76.8C0 34.4 34.4 0 76.8 0z" fill="#fff"/><path d="M372.4 67C324.1 67 281 92.6 256 129.9 231 92.6 187.9 67 139.6 67 62.7 67 .4 129.3.4 206.2c0 48.8 30.9 84 63.2 116.5l126.2 119.4c4.2 3.9 10.7 3.8 14.7-.4 1.8-1.9 2.8-4.5 2.8-7.1v-93c0-26.9 21.8-48.7 48.7-48.7 26.9 0 48.7 21.8 48.7 48.7v93c0 5.7 4.7 10.4 10.4 10.4 2.7 0 5.2-1 7.1-2.8l126.2-119.4c32.3-32.6 63.2-67.7 63.2-116.5 0-76.9-62.3-139.3-139.2-139.3zM129.6 313.6c-3.5 4-9.6 4.4-13.6.8-41.6-36.9-62.7-75.3-62.7-114.3v-.5c0-33.5 20.5-71.7 47.6-88.7 4.5-2.8 10.5-1.5 13.3 3 2.8 4.5 1.5 10.5-3 13.3-21.6 13.6-38.6 45.3-38.6 72.3v.5c0 33.3 18.9 66.9 56.2 99.9 3.9 3.6 4.3 9.7.8 13.7zm62.1-35.8c-1.7 3-4.9 4.9-8.4 4.9-1.6 0-3.3-.4-4.7-1.2-28.2-15.8-47.2-46.8-47.3-77.2v-.3c.1-28.9 16.2-55.4 41.8-68.8 4.7-2.5 10.6-.7 13 4 2.5 4.7.7 10.6-4 13-19.3 10.1-31.4 30.1-31.4 51.8.1 23.7 15.1 48 37.4 60.5 4.5 2.8 6.2 8.7 3.6 13.3zm106.2-66.5c0 23.1-18.7 41.9-41.9 41.9-23.1 0-41.9-18.7-41.9-41.8 0-23.1 18.7-41.9 41.8-41.9 23.2-.1 41.9 18.6 42 41.8zm35.6 70.2c-1.4.8-3.1 1.2-4.7 1.2-5.3 0-9.6-4.3-9.7-9.6 0-3.5 1.9-6.7 4.9-8.4 22.3-12.5 37.3-36.8 37.4-60.5 0-21.8-12.1-41.7-31.4-51.8-4.7-2.5-6.5-8.3-4-13 2.5-4.7 8.3-6.5 13-4 25.6 13.4 41.6 39.9 41.7 68.8v.3c-.1 30.2-19 61.2-47.2 77zm125.2-81.4c0 39-21.1 77.5-62.7 114.3-3.9 3.6-10 3.3-13.6-.6-3.6-3.9-3.3-10 .6-13.6.1-.1.2-.1.2-.2 37.3-33 56.2-66.6 56.2-99.9v-.5c0-27-16.9-58.8-38.6-72.3-4.4-3.1-5.4-9.1-2.4-13.4 2.8-4.1 8.3-5.3 12.6-2.9 27.1 17 47.6 55.1 47.6 88.7v.4z" fill="#c6002b"/></svg>