<svg
xmlns="http://www.w3.org/2000/svg"
aria-label="iheartradio" role="img"
viewBox="0 0 512 512"><rect
width="512" height="512"
rx="15%"
fill="#fff"/><path d="M77 0h358c43 0 77 34 77 77v358c0 43-34 77-77 77H77c-43 0-77-34-77-77V77C0 34 34 0 77 0z" fill="#fff"/><path d="M372 67c-48 0-91 26-116 63A139 139 0 000 206c0 49 31 84 64 117l126 119c7 6 17 2 17-7v-93a49 49 0 1197 0v93c1 9 12 13 18 7l127-119c32-33 63-68 63-117 0-77-63-139-140-139zM130 314c-2 2-5 3-8 3l-6-2c-42-37-63-76-63-115 0-34 21-72 48-89 5-3 10-1 13 3 3 5 2 10-3 13a93 93 0 00-38 73c0 33 19 67 56 100 4 4 4 10 1 14zm62-36c-2 3-5 5-9 5l-5-1a93 93 0 01-47-78c0-29 16-55 42-69 5-2 10-1 13 4 2 5 1 11-4 13a59 59 0 00-32 52c0 24 16 48 38 61 5 2 6 8 4 13zm64-25a42 42 0 110-84 42 42 0 010 84zm78 29l-5 1a10 10 0 01-5-18c22-13 37-37 37-61 0-22-12-41-31-52a10 10 0 019-17c26 14 42 40 42 69 0 31-19 62-47 78zm125-82c0 39-21 78-63 114l-6 3c-3 0-5-1-7-3-4-4-3-10 0-14 38-33 57-67 57-100v-1c0-27-17-58-39-72-5-3-6-9-3-13 3-5 9-6 13-3 27 17 48 55 48 89z" fill="#c6002b"/></svg>
