<svg height="54.184067" width="150" xmlns="http://www.w3.org/2000/svg"><g transform="matrix(.93208065 0 0 .9103974 -515.627389 -650.814301)"><path d="m570.17592 754.21405v-19.02783c-.00001-2.34546.39091-4.09481 1.17275-5.24804.78182-1.15317 1.96434-1.72977 3.54756-1.72981.91864.00004 1.75422.25902 2.50674.77695.75251.51799 1.42195 1.30471 2.00833 2.36015.97728-1.07498 2.08162-1.86659 3.31302-2.37481 1.23136-.50816 2.64843-.76225 4.25121-.76229 2.03274.00004 3.83095.37141 5.39463 1.11411 1.56364.74278 2.9123 1.85688 4.04598 3.34234 1.42682-1.58318 2.88298-2.72173 4.36849-3.41563 1.48544-.69385 3.20547-1.04078 5.16009-1.04082 3.38138.00004 6.01028 1.08483 7.88672 3.25438 1.87635 2.16961 2.81455 5.22852 2.8146 9.17675v13.57455c-.00005 2.32595-.39097 4.05576-1.17275 5.18941-.78188 1.13366-1.97417 1.70048-3.57688 1.70048-1.6028 0-2.78532-.56194-3.54756-1.68582-.76233-1.12388-1.14347-2.85857-1.14343-5.20407v-10.70132c-.00004-2.4823-.34698-4.30005-1.04081-5.45328-.69392-1.15317-1.78359-1.72977-3.26904-1.7298-1.64188.00003-2.84394.56685-3.60619 1.70049-.76232 1.13367-1.14346 2.92211-1.14343 5.36532v10.81859c-.00003 2.32595-.39095 4.05576-1.17275 5.18941-.78186 1.13366-1.97415 1.70048-3.57688 1.70048-1.60278 0-2.79507-.56682-3.57688-1.70048-.78186-1.13365-1.17277-2.86346-1.17275-5.18941v-10.70132c-.00002-2.50184-.34207-4.32449-1.02615-5.46794-.68413-1.1434-1.75914-1.71511-3.22506-1.71514-1.64186.00003-2.84393.56685-3.6062 1.70049-.7623 1.13367-1.14344 2.92211-1.14343 5.36532v10.81859c-.00001 2.32595-.39092 4.05576-1.17274 5.18941-.78185 1.13366-1.97414 1.70048-3.57688 1.70048-1.60276 0-2.79017-.56682-3.56222-1.70048-.77207-1.13365-1.1581-2.86346-1.15809-5.18941z"/><path d="m643.35536 756.73546c-1.03595 1.48548-2.26733 2.5947-3.69415 3.32767-1.42686.73297-3.05893 1.09945-4.89622 1.09945-3.83099 0-7.0707-1.57343-9.71915-4.72031-2.64845-3.14686-3.97268-7.05602-3.97268-11.72747 0-4.71052 1.42684-8.67831 4.28053-11.90339 2.85368-3.22503 6.33282-4.83755 10.43745-4.83758 1.60274.00003 3.02469.27367 4.26587.82092 1.24114.54731 2.34059 1.39755 3.29835 2.55072.50817-.93816 1.13852-1.67602 1.89106-2.21356.75249-.53747 1.51966-.80623 2.30152-.80626 1.62227.00003 2.81945.56197 3.59154 1.68582.77202 1.12392 1.15805 2.84883 1.15808 5.17475v19.02783c-.00003 3.4987-.17105 6.23022-.51307 8.19457-.34209 1.96435-.9138 3.59154-1.71515 4.88157-1.38778 2.32594-3.29838 4.08994-5.7318 5.29202-2.43347 1.20205-5.32136 1.80309-8.66367 1.8031-4.08508-.00001-7.41764-.6548-9.99767-1.96435-2.58005-1.30958-3.87007-2.9612-3.87007-4.95486 0-1.1923.38603-2.17936 1.15809-2.96119.77205-.78183 1.74445-1.17275 2.91721-1.17275.56682 0 1.93013.42023 4.08995 1.26071 2.1598.84046 4.1779 1.2607 6.05431 1.2607 2.34548 0 4.16324-.69388 5.45328-2.08163 1.29-1.38775 1.93501-3.3521 1.93503-5.89305-.00002-.11727-.01-.30296-.0293-.55706-.0196-.25409-.0293-.44955-.0293-.58637zm-12.48976-12.02066c-.00001 2.36505.57659 4.28054 1.72981 5.74646 1.15318 1.46594 2.63866 2.19891 4.45644 2.1989 1.81774.00001 3.31299-.73784 4.48576-2.21356 1.17272-1.4757 1.75909-3.3863 1.75912-5.7318-.00003-2.28684-.5864-4.14858-1.75912-5.58521-1.17277-1.4366-2.66802-2.1549-4.48576-2.15493-1.81778.00003-3.30326.71833-4.45644 2.15493-1.15322 1.43663-1.72982 3.29837-1.72981 5.58521z"/><path d="m658.6304 747.79326v-12.60704c-.00001-2.32592.39091-4.05083 1.17274-5.17475.78183-1.12385 1.97412-1.68579 3.57688-1.68582 1.5832.00003 2.76084.56197 3.53291 1.68582.77204 1.12392 1.15807 2.84883 1.15808 5.17475v10.67201c-.00001 2.52141.38113 4.30497 1.14343 5.35066.76227 1.0457 2.00343 1.56855 3.72348 1.56855 1.72001 0 2.96116-.52285 3.72347-1.56855.76226-1.04569 1.14341-2.82925 1.14343-5.35066v-10.67201c-.00002-2.32592.38601-4.05083 1.15809-5.17475.77203-1.12385 1.96921-1.68579 3.59154-1.68582 1.58318.00003 2.75592.55709 3.51824 1.67116.76225 1.11414 1.1434 2.84395 1.14343 5.18941v12.60704c-.00003 4.49554-1.22164 7.93071-3.66484 10.30552-2.44325 2.37481-5.98103 3.56222-10.61336 3.56222-4.63237 0-8.17504-1.18741-10.62803-3.56222-2.453-2.37481-3.6795-5.80998-3.67949-10.30552z"/><path d="m693.66624 754.21405v-19.02783c0-2.32592.38603-4.05083 1.15809-5.17475.77205-1.12385 1.95946-1.68579 3.56222-1.68582.95773.00003 1.80797.24924 2.55072.74763.74273.49844 1.39752 1.25584 1.96436 2.27219.97727-1.05544 2.0132-1.85193 3.10778-2.38947 1.09455-.53748 2.19888-.80623 3.31301-.80626 1.30955.00003 2.43832.46424 3.38631 1.39263.94795.92846 1.42193 2.02791 1.42195 3.29836-.00002 1.89597-1.73959 3.47917-5.21872 4.74962-1.25095.44958-2.18915.82095-2.8146 1.11412-1.1923.56684-1.98391 1.1972-2.37481 1.89105-.39093.6939-.58639 1.94971-.58637 3.76745v9.85108c-.00002 2.32595-.39093 4.05576-1.17275 5.18941-.78184 1.13366-1.97414 1.70048-3.57688 1.70048-1.60276 0-2.79017-.56682-3.56222-1.70048-.77206-1.13365-1.15809-2.86346-1.15809-5.18941z"/><path d="m563.34466 754.21405c-.00001 2.3455-.38115 4.08019-1.14343 5.20407-.76229 1.12388-1.93504 1.68582-3.51824 1.68582-1.60276 0-2.79505-.56682-3.57688-1.70048-.78183-1.13365-1.17275-2.86346-1.17275-5.18941v-19.02783c0-2.32592.38603-4.05083 1.15809-5.17475.77206-1.12385 1.96923-1.68579 3.59154-1.68582 1.5832.00003 2.75595.56197 3.51824 1.68582.76228 1.12392 1.14342 2.84883 1.14343 5.17475z"/><path d="m553.2004 720.35097c-.00001-1.50499.5375-2.79501 1.61253-3.87007 1.07501-1.07497 2.36503-1.61248 3.87006-1.61253 1.48547.00005 2.75595.53756 3.81143 1.61253 1.05546 1.07506 1.5832 2.36508 1.58321 3.87007-.00001 1.52461-.52286 2.81463-1.56855 3.87006-1.04571 1.05551-2.32107 1.58325-3.82609 1.58321-1.54412.00004-2.84392-.5277-3.89938-1.58321-1.05548-1.05543-1.58322-2.34545-1.58321-3.87006z" fill="#89c623"/></g></svg>