<?xml version="1.0" encoding="UTF-8" standalone="no"?>
<!-- Created with Inkscape (http://www.inkscape.org/) -->

<svg
   xmlns:dc="http://purl.org/dc/elements/1.1/"
   xmlns:cc="http://creativecommons.org/ns#"
   xmlns:rdf="http://www.w3.org/1999/02/22-rdf-syntax-ns#"
   xmlns:svg="http://www.w3.org/2000/svg"
   xmlns="http://www.w3.org/2000/svg"
   version="1.1"
   width="150"
   height="54.184067"
   id="svg2">
  <defs
     id="defs4" />
  <metadata
     id="metadata7">
    <rdf:RDF>
      <cc:Work
         rdf:about="">
        <dc:format>image/svg+xml</dc:format>
        <dc:type
           rdf:resource="http://purl.org/dc/dcmitype/StillImage" />
        <dc:title></dc:title>
      </cc:Work>
    </rdf:RDF>
  </metadata>
  <g
     transform="translate(-559.74952,-709.62564)"
     id="layer1">
    <g
       transform="matrix(0.93208065,0,0,0.9103974,44.122131,58.811339)"
       id="text2996">
      <path
         d="m 570.17592,754.21405 0,-19.02783 c -10e-6,-2.34546 0.39091,-4.09481 1.17275,-5.24804 0.78182,-1.15317 1.96434,-1.72977 3.54756,-1.72981 0.91864,4e-5 1.75422,0.25902 2.50674,0.77695 0.75251,0.51799 1.42195,1.30471 2.00833,2.36015 0.97728,-1.07498 2.08162,-1.86659 3.31302,-2.37481 1.23136,-0.50816 2.64843,-0.76225 4.25121,-0.76229 2.03274,4e-5 3.83095,0.37141 5.39463,1.11411 1.56364,0.74278 2.9123,1.85688 4.04598,3.34234 1.42682,-1.58318 2.88298,-2.72173 4.36849,-3.41563 1.48544,-0.69385 3.20547,-1.04078 5.16009,-1.04082 3.38138,4e-5 6.01028,1.08483 7.88672,3.25438 1.87635,2.16961 2.81455,5.22852 2.8146,9.17675 l 0,13.57455 c -5e-5,2.32595 -0.39097,4.05576 -1.17275,5.18941 -0.78188,1.13366 -1.97417,1.70048 -3.57688,1.70048 -1.6028,0 -2.78532,-0.56194 -3.54756,-1.68582 -0.76233,-1.12388 -1.14347,-2.85857 -1.14343,-5.20407 l 0,-10.70132 c -4e-5,-2.4823 -0.34698,-4.30005 -1.04081,-5.45328 -0.69392,-1.15317 -1.78359,-1.72977 -3.26904,-1.7298 -1.64188,3e-5 -2.84394,0.56685 -3.60619,1.70049 -0.76232,1.13367 -1.14346,2.92211 -1.14343,5.36532 l 0,10.81859 c -3e-5,2.32595 -0.39095,4.05576 -1.17275,5.18941 -0.78186,1.13366 -1.97415,1.70048 -3.57688,1.70048 -1.60278,0 -2.79507,-0.56682 -3.57688,-1.70048 -0.78186,-1.13365 -1.17277,-2.86346 -1.17275,-5.18941 l 0,-10.70132 c -2e-5,-2.50184 -0.34207,-4.32449 -1.02615,-5.46794 -0.68413,-1.1434 -1.75914,-1.71511 -3.22506,-1.71514 -1.64186,3e-5 -2.84393,0.56685 -3.6062,1.70049 -0.7623,1.13367 -1.14344,2.92211 -1.14343,5.36532 l 0,10.81859 c -10e-6,2.32595 -0.39092,4.05576 -1.17274,5.18941 -0.78185,1.13366 -1.97414,1.70048 -3.57688,1.70048 -1.60276,0 -2.79017,-0.56682 -3.56222,-1.70048 -0.77207,-1.13365 -1.1581,-2.86346 -1.15809,-5.18941 z"
         id="path3003"
         style="fill:#000000" />
      <path
         d="m 643.35536,756.73546 c -1.03595,1.48548 -2.26733,2.5947 -3.69415,3.32767 -1.42686,0.73297 -3.05893,1.09945 -4.89622,1.09945 -3.83099,0 -7.0707,-1.57343 -9.71915,-4.72031 -2.64845,-3.14686 -3.97268,-7.05602 -3.97268,-11.72747 0,-4.71052 1.42684,-8.67831 4.28053,-11.90339 2.85368,-3.22503 6.33282,-4.83755 10.43745,-4.83758 1.60274,3e-5 3.02469,0.27367 4.26587,0.82092 1.24114,0.54731 2.34059,1.39755 3.29835,2.55072 0.50817,-0.93816 1.13852,-1.67602 1.89106,-2.21356 0.75249,-0.53747 1.51966,-0.80623 2.30152,-0.80626 1.62227,3e-5 2.81945,0.56197 3.59154,1.68582 0.77202,1.12392 1.15805,2.84883 1.15808,5.17475 l 0,19.02783 c -3e-5,3.4987 -0.17105,6.23022 -0.51307,8.19457 -0.34209,1.96435 -0.9138,3.59154 -1.71515,4.88157 -1.38778,2.32594 -3.29838,4.08994 -5.7318,5.29202 -2.43347,1.20205 -5.32136,1.80309 -8.66367,1.8031 -4.08508,-10e-6 -7.41764,-0.6548 -9.99767,-1.96435 -2.58005,-1.30958 -3.87007,-2.9612 -3.87007,-4.95486 0,-1.1923 0.38603,-2.17936 1.15809,-2.96119 0.77205,-0.78183 1.74445,-1.17275 2.91721,-1.17275 0.56682,0 1.93013,0.42023 4.08995,1.26071 2.1598,0.84046 4.1779,1.2607 6.05431,1.2607 2.34548,0 4.16324,-0.69388 5.45328,-2.08163 1.29,-1.38775 1.93501,-3.3521 1.93503,-5.89305 -2e-5,-0.11727 -0.01,-0.30296 -0.0293,-0.55706 -0.0196,-0.25409 -0.0293,-0.44955 -0.0293,-0.58637 z M 630.8656,744.7148 c -10e-6,2.36505 0.57659,4.28054 1.72981,5.74646 1.15318,1.46594 2.63866,2.19891 4.45644,2.1989 1.81774,10e-6 3.31299,-0.73784 4.48576,-2.21356 1.17272,-1.4757 1.75909,-3.3863 1.75912,-5.7318 -3e-5,-2.28684 -0.5864,-4.14858 -1.75912,-5.58521 -1.17277,-1.4366 -2.66802,-2.1549 -4.48576,-2.15493 -1.81778,3e-5 -3.30326,0.71833 -4.45644,2.15493 -1.15322,1.43663 -1.72982,3.29837 -1.72981,5.58521 z"
         id="path3005"
         style="fill:#000000" />
      <path
         d="m 658.6304,747.79326 0,-12.60704 c -10e-6,-2.32592 0.39091,-4.05083 1.17274,-5.17475 0.78183,-1.12385 1.97412,-1.68579 3.57688,-1.68582 1.5832,3e-5 2.76084,0.56197 3.53291,1.68582 0.77204,1.12392 1.15807,2.84883 1.15808,5.17475 l 0,10.67201 c -10e-6,2.52141 0.38113,4.30497 1.14343,5.35066 0.76227,1.0457 2.00343,1.56855 3.72348,1.56855 1.72001,0 2.96116,-0.52285 3.72347,-1.56855 0.76226,-1.04569 1.14341,-2.82925 1.14343,-5.35066 l 0,-10.67201 c -2e-5,-2.32592 0.38601,-4.05083 1.15809,-5.17475 0.77203,-1.12385 1.96921,-1.68579 3.59154,-1.68582 1.58318,3e-5 2.75592,0.55709 3.51824,1.67116 0.76225,1.11414 1.1434,2.84395 1.14343,5.18941 l 0,12.60704 c -3e-5,4.49554 -1.22164,7.93071 -3.66484,10.30552 -2.44325,2.37481 -5.98103,3.56222 -10.61336,3.56222 -4.63237,0 -8.17504,-1.18741 -10.62803,-3.56222 -2.453,-2.37481 -3.6795,-5.80998 -3.67949,-10.30552 z"
         id="path3007"
         style="fill:#000000" />
      <path
         d="m 693.66624,754.21405 0,-19.02783 c 0,-2.32592 0.38603,-4.05083 1.15809,-5.17475 0.77205,-1.12385 1.95946,-1.68579 3.56222,-1.68582 0.95773,3e-5 1.80797,0.24924 2.55072,0.74763 0.74273,0.49844 1.39752,1.25584 1.96436,2.27219 0.97727,-1.05544 2.0132,-1.85193 3.10778,-2.38947 1.09455,-0.53748 2.19888,-0.80623 3.31301,-0.80626 1.30955,3e-5 2.43832,0.46424 3.38631,1.39263 0.94795,0.92846 1.42193,2.02791 1.42195,3.29836 -2e-5,1.89597 -1.73959,3.47917 -5.21872,4.74962 -1.25095,0.44958 -2.18915,0.82095 -2.8146,1.11412 -1.1923,0.56684 -1.98391,1.1972 -2.37481,1.89105 -0.39093,0.6939 -0.58639,1.94971 -0.58637,3.76745 l 0,9.85108 c -2e-5,2.32595 -0.39093,4.05576 -1.17275,5.18941 -0.78184,1.13366 -1.97414,1.70048 -3.57688,1.70048 -1.60276,0 -2.79017,-0.56682 -3.56222,-1.70048 -0.77206,-1.13365 -1.15809,-2.86346 -1.15809,-5.18941 z"
         id="path3009"
         style="fill:#000000" />
      <g
         id="g3797">
        <path
           d="m 563.34466,754.21405 c -10e-6,2.3455 -0.38115,4.08019 -1.14343,5.20407 -0.76229,1.12388 -1.93504,1.68582 -3.51824,1.68582 -1.60276,0 -2.79505,-0.56682 -3.57688,-1.70048 -0.78183,-1.13365 -1.17275,-2.86346 -1.17275,-5.18941 l 0,-19.02783 c 0,-2.32592 0.38603,-4.05083 1.15809,-5.17475 0.77206,-1.12385 1.96923,-1.68579 3.59154,-1.68582 1.5832,3e-5 2.75595,0.56197 3.51824,1.68582 0.76228,1.12392 1.14342,2.84883 1.14343,5.17475 z"
           id="path3001"
           style="fill:#000000" />
        <path
           d="m 553.2004,720.35097 c -10e-6,-1.50499 0.5375,-2.79501 1.61253,-3.87007 1.07501,-1.07497 2.36503,-1.61248 3.87006,-1.61253 1.48547,5e-5 2.75595,0.53756 3.81143,1.61253 1.05546,1.07506 1.5832,2.36508 1.58321,3.87007 -10e-6,1.52461 -0.52286,2.81463 -1.56855,3.87006 -1.04571,1.05551 -2.32107,1.58325 -3.82609,1.58321 -1.54412,4e-5 -2.84392,-0.5277 -3.89938,-1.58321 -1.05548,-1.05543 -1.58322,-2.34545 -1.58321,-3.87006 z"
           id="path3001-4"
           style="fill:#89c623" />
      </g>
    </g>
  </g>
</svg>
