<?xml version="1.0" encoding="UTF-8" standalone="no"?>
<svg
   xmlns:dc="http://purl.org/dc/elements/1.1/"
   xmlns:cc="http://creativecommons.org/ns#"
   xmlns:rdf="http://www.w3.org/1999/02/22-rdf-syntax-ns#"
   xmlns:svg="http://www.w3.org/2000/svg"
   xmlns="http://www.w3.org/2000/svg"
   xmlns:sodipodi="http://sodipodi.sourceforge.net/DTD/sodipodi-0.dtd"
   xmlns:inkscape="http://www.inkscape.org/namespaces/inkscape"
   version="1.0"
   width="128"
   height="128"
   id="svg2"
   sodipodi:version="0.32"
   inkscape:version="0.91 r"
   sodipodi:docname="Inkscape-flat-logo-2color.svg"
   inkscape:output_extension="org.inkscape.output.svg.inkscape"
   inkscape:export-filename="/home/valessio/Desenvolvimento/inkscape/inkscape/inkscape.png"
   inkscape:export-xdpi="45"
   inkscape:export-ydpi="45"
   viewBox="0 0 128 128">
  <title
     id="title7387">Inkscape Logo</title>
  <sodipodi:namedview
     bordercohor="#666666"
     inkscape:window-height="577"
     inkscape:window-width="862"
     inkscape:pageshadow="2"
     inkscape:pageopacity="0.0"
     guidetolerance="10.0"
     gridtolerance="10.0"
     objecttolerance="10.0"
     borderopacity="1.0"
     bordercolor="#666666"
     pagecolor="#ffffff"
     id="base"
     inkscape:zoom="2.5937425"
     inkscape:cx="25.56152"
     inkscape:cy="38.130231"
     inkscape:window-x="192"
     inkscape:window-y="122"
     inkscape:current-layer="layer1"
     showgrid="false"
     inkscape:window-maximized="0"
     inkscape:document-units="px" />
  <defs
     id="defs4" />
  <style
     type="text/css"
     id="style26">
	.specularity {opacity:0.5;}
	.low-specularity {opacity:0.25;}
	.full-specularity {opacity:1;}
	.black {fill:#000000;}
	.white {fill:#ffffff;}
	.outline-big {stroke-width:16;stroke:none;opacity:0.1;fill:none;}
	.outline-small {stroke-width:8;stroke:none;opacity:0.2;fill:none;}
	.stroke-highlight {fill:none;stroke:none;opacity:0.2;}
       	.base-shadow 	{fill:black;opacity:75;}
	</style>
  <!-- Copyright License -->
  <metadata
     id="metadata49">
    <rdf:RDF>
      <cc:Work
         rdf:about="etiquette-icon">
        <dc:format>image/svg+xml</dc:format>
        <dc:type
           rdf:resource="http://purl.org/dc/dcmitype/StillImage" />
        <dc:creator>
          <cc:Agent>
            <dc:title>Andy Fitzsimon</dc:title>
          </cc:Agent>
        </dc:creator>
        <dc:rights>
          <cc:Agent>
            <dc:title>Andrew Michael Fitzsimon</dc:title>
          </cc:Agent>
        </dc:rights>
        <dc:publisher>
          <cc:Agent>
            <dc:title>Fitzsimon IT Consulting Pty Ltd</dc:title>
          </cc:Agent>
        </dc:publisher>
        <dc:identifier>http://andy.fitzsimon.com.au</dc:identifier>
        <dc:date>2006</dc:date>
        <cc:license
           rdf:resource="http://creativecommons.org/licenses/by-sa/3.0/" />
        <dc:title>Inkscape Logo</dc:title>
      </cc:Work>
      <cc:License
         rdf:about="http://creativecommons.org/licenses/by-sa/3.0/">
        <cc:permits
           rdf:resource="http://creativecommons.org/ns#Reproduction" />
        <cc:permits
           rdf:resource="http://creativecommons.org/ns#Distribution" />
        <cc:requires
           rdf:resource="http://creativecommons.org/ns#Notice" />
        <cc:requires
           rdf:resource="http://creativecommons.org/ns#Attribution" />
        <cc:permits
           rdf:resource="http://creativecommons.org/ns#DerivativeWorks" />
        <cc:requires
           rdf:resource="http://creativecommons.org/ns#ShareAlike" />
      </cc:License>
    </rdf:RDF>
  </metadata>
  <g
     inkscape:groupmode="layer"
     id="layer1"
     inkscape:label="Inkscape Flat Logo 2 Color Variant">
    <g
       style=""
       id="inkscape-logo"
       transform="matrix(0.3432319,0,0,0.3432319,-2.915043,-2.66029)">
      <path
         d="M 163.15,27.83 28.81,165.3 C -16.58,221.51 59.7,214.97 92.4,231.16 104.13,243.15 47.44,252 59.17,264 c 11.73,11.99 70.93,23.1 82.68,35.09 11.73,11.99 -24.01,24.71 -12.28,36.7 11.73,11.99 38.86,0.63 43.94,28.31 3.62,19.78 48.89,8.5 71.03,-7.7 11.73,-12 -22.44,-10.87 -10.71,-22.86 29.17,-29.83 56.33,-10.84 66.31,-40.73 4.93,-14.77 -42.94,-22.77 -31.19,-34.76 33.75,-19.71 150.4,-32.54 95.05,-87.89 L 224.75,27.83 c -17.03,-16.35 -45.45,-16.53 -61.6,0 z m 154.31,264.98 c 0,6.82 50.25,11.29 50.25,-1.61 -7.16,-20.72 -44.31,-19.32 -50.25,1.61 z M 91.1,329.05 c 11.9,10.29 30.28,-2.56 35.79,-16.92 -11.53,-15.32 -54.69,0.55 -35.79,16.92 z m 220.06,-22.23 c -15.34,13.76 1.72,27.72 16.84,18.83 3.37,-3.42 -0.09,-15.41 -16.84,-18.83 z"
         id="path2313"
         inkscape:connector-curvature="0"
         style="fill:#000000;fill-opacity:1.0" />
      <path
         d="m 131,238.6 c 3.59,2.23 57.89,13.26 71.16,15.46 4.6,0.97 1.34,5.71 -5,8.91 -14.3,3.8 -83.66,-24.37 -66.16,-24.37 z"
         id="path2315"
         style="fill:#ffffff"
         inkscape:connector-curvature="0" />
      <path
         d="m 216.63,37.47 53.15,53.98 c 5.04,5.15 4.97,15.13 2.15,18 L 245.54,88.34 240.35,119.6 218.3,107.96 182.99,130.27 171.3,83.24 152.33,116.06 h -29 c -11.82,0 -13.21,-15 -2.47,-25.74 18.76,-20.25 40.29,-40.89 51.99,-52.85 11.76,-12.02 32.25,-11.68 43.78,0 z"
         id="path2317"
         style="fill:#ffffff"
         inkscape:connector-curvature="0" />
    </g>
  </g>
</svg>
