<svg height="671.78668" viewBox="0 0 671.78668 671.78668" width="671.78668" xmlns="http://www.w3.org/2000/svg"><g fill="#100f0d" transform="matrix(.13333333 0 0 -.13333333 0 671.78667)"><path d="m2519.21 5038.41c-684.18 0-769.97-2.9-1038.67-15.16-268.14-12.23-451.27-54.82-611.513-117.09-165.66-64.38-306.148-150.52-446.203-290.57-140.051-140.05-226.191-280.55-290.57-446.21-62.2735-160.24-104.8595-343.37-117.0977-611.51-12.25786-268.7-15.1563-354.49-15.1563-1038.67 0-684.17 2.89844-769.96 15.1563-1038.66 12.2382-268.14 54.8242-451.27 117.0977-611.509 64.379-165.66 150.519-306.152 290.57-446.211 140.055-140.05 280.543-226.191 446.203-290.57 160.243-62.2695 343.373-104.8594 611.513-117.0898 268.7-12.25786 354.49-15.1602 1038.67-15.1602 684.17 0 769.96 2.90234 1038.66 15.1602 268.14 12.2304 451.27 54.8203 611.51 117.0898 165.66 64.379 306.15 150.52 446.21 290.57 140.05 140.059 226.19 280.551 290.57 446.211 62.27 160.239 104.86 343.369 117.09 611.509 12.26 268.7 15.16 354.49 15.16 1038.66 0 684.18-2.9 769.97-15.16 1038.67-12.23 268.14-54.82 451.27-117.09 611.51-64.38 165.66-150.52 306.16-290.57 446.21-140.06 140.05-280.55 226.19-446.21 290.57-160.24 62.27-343.37 104.86-611.51 117.09-268.7 12.26-354.49 15.16-1038.66 15.16zm0-453.91c672.65 0 752.33-2.57 1017.97-14.69 245.62-11.2 379.01-52.24 467.78-86.74 117.59-45.7 201.51-100.29 289.66-188.44 88.16-88.16 142.75-172.08 188.45-289.67 34.5-88.77 75.54-222.16 86.74-467.78 12.12-265.64 14.69-345.32 14.69-1017.98 0-672.65-2.57-752.33-14.69-1017.97-11.2-245.62-52.24-379.01-86.74-467.78-45.7-117.591-100.29-201.509-188.45-289.661-88.15-88.16-172.07-142.75-289.66-188.449-88.77-34.5-222.16-75.539-467.78-86.738-265.6-12.122-345.27-14.692-1017.97-14.692-672.71 0-752.37 2.57-1017.98 14.692-245.62 11.199-379.01 52.238-467.78 86.738-117.591 45.699-201.509 100.289-289.661 188.449-88.152 88.152-142.75 172.07-188.449 289.661-34.5 88.77-75.535 222.16-86.742 467.78-12.121 265.64-14.688 345.32-14.688 1017.97 0 672.66 2.567 752.34 14.688 1017.98 11.207 245.62 52.242 379.01 86.742 467.78 45.699 117.59 100.293 201.51 188.445 289.66 88.156 88.16 172.074 142.75 289.665 188.45 88.77 34.5 222.16 75.54 467.78 86.74 265.64 12.12 345.32 14.69 1017.98 14.69"/><path d="m2519.21 1679.47c-463.78 0-839.74 375.96-839.74 839.73 0 463.78 375.96 839.74 839.74 839.74 463.77 0 839.73-375.96 839.73-839.74 0-463.77-375.96-839.73-839.73-839.73zm0 2133.38c-714.47 0-1293.65-579.18-1293.65-1293.65 0-714.46 579.18-1293.64 1293.65-1293.64 714.46 0 1293.64 579.18 1293.64 1293.64 0 714.47-579.18 1293.65-1293.64 1293.65"/><path d="m4166.27 3863.96c0-166.96-135.35-302.3-302.31-302.3-166.95 0-302.3 135.34-302.3 302.3s135.35 302.31 302.3 302.31c166.96 0 302.31-135.35 302.31-302.31"/></g></svg>