<?xml version="1.0" encoding="UTF-8" standalone="no"?>
<!-- Created with Inkscape (http://www.inkscape.org/) -->

<svg
   xmlns:dc="http://purl.org/dc/elements/1.1/"
   xmlns:cc="http://creativecommons.org/ns#"
   xmlns:rdf="http://www.w3.org/1999/02/22-rdf-syntax-ns#"
   xmlns:svg="http://www.w3.org/2000/svg"
   xmlns="http://www.w3.org/2000/svg"
   xmlns:sodipodi="http://sodipodi.sourceforge.net/DTD/sodipodi-0.dtd"
   xmlns:inkscape="http://www.inkscape.org/namespaces/inkscape"
   version="1.1"
   id="svg2"
   xml:space="preserve"
   width="671.78668"
   height="671.78668"
   viewBox="0 0 671.78668 671.78668"
   sodipodi:docname="instagram.svg"
   inkscape:version="0.92.1 r15371"><metadata
     id="metadata8"><rdf:RDF><cc:Work
         rdf:about=""><dc:format>image/svg+xml</dc:format><dc:type
           rdf:resource="http://purl.org/dc/dcmitype/StillImage" /><dc:title></dc:title></cc:Work></rdf:RDF></metadata><defs
     id="defs6" /><sodipodi:namedview
     pagecolor="#ffffff"
     bordercolor="#666666"
     borderopacity="1"
     objecttolerance="10"
     gridtolerance="10"
     guidetolerance="10"
     inkscape:pageopacity="0"
     inkscape:pageshadow="2"
     inkscape:window-width="640"
     inkscape:window-height="480"
     id="namedview4"
     showgrid="false"
     inkscape:zoom="0.35130199"
     inkscape:cx="335.89334"
     inkscape:cy="335.89334"
     inkscape:window-x="0"
     inkscape:window-y="0"
     inkscape:window-maximized="0"
     inkscape:current-layer="g10" /><g
     id="g10"
     inkscape:groupmode="layer"
     inkscape:label="ink_ext_XXXXXX"
     transform="matrix(1.3333333,0,0,-1.3333333,0,671.78667)"><g
       id="g12"
       transform="scale(0.1)"><path
         d="m 2519.21,5038.41 c -684.18,0 -769.97,-2.9 -1038.67,-15.16 C 1212.4,5011.02 1029.27,4968.43 869.027,4906.16 703.367,4841.78 562.879,4755.64 422.824,4615.59 282.773,4475.54 196.633,4335.04 132.254,4169.38 69.9805,4009.14 27.3945,3826.01 15.1563,3557.87 2.89844,3289.17 0,3203.38 0,2519.2 0,1835.03 2.89844,1749.24 15.1563,1480.54 27.3945,1212.4 69.9805,1029.27 132.254,869.031 196.633,703.371 282.773,562.879 422.824,422.82 562.879,282.77 703.367,196.629 869.027,132.25 1029.27,69.9805 1212.4,27.3906 1480.54,15.1602 1749.24,2.90234 1835.03,0 2519.21,0 c 684.17,0 769.96,2.90234 1038.66,15.1602 268.14,12.2304 451.27,54.8203 611.51,117.0898 165.66,64.379 306.15,150.52 446.21,290.57 140.05,140.059 226.19,280.551 290.57,446.211 62.27,160.239 104.86,343.369 117.09,611.509 12.26,268.7 15.16,354.49 15.16,1038.66 0,684.18 -2.9,769.97 -15.16,1038.67 -12.23,268.14 -54.82,451.27 -117.09,611.51 -64.38,165.66 -150.52,306.16 -290.57,446.21 -140.06,140.05 -280.55,226.19 -446.21,290.57 -160.24,62.27 -343.37,104.86 -611.51,117.09 -268.7,12.26 -354.49,15.16 -1038.66,15.16 z m 0,-453.91 c 672.65,0 752.33,-2.57 1017.97,-14.69 245.62,-11.2 379.01,-52.24 467.78,-86.74 117.59,-45.7 201.51,-100.29 289.66,-188.44 88.16,-88.16 142.75,-172.08 188.45,-289.67 34.5,-88.77 75.54,-222.16 86.74,-467.78 12.12,-265.64 14.69,-345.32 14.69,-1017.98 0,-672.65 -2.57,-752.33 -14.69,-1017.97 -11.2,-245.62 -52.24,-379.01 -86.74,-467.78 -45.7,-117.591 -100.29,-201.509 -188.45,-289.661 -88.15,-88.16 -172.07,-142.75 -289.66,-188.449 -88.77,-34.5 -222.16,-75.539 -467.78,-86.738 -265.6,-12.122 -345.27,-14.692 -1017.97,-14.692 -672.71,0 -752.37,2.57 -1017.98,14.692 -245.62,11.199 -379.01,52.238 -467.78,86.738 -117.591,45.699 -201.509,100.289 -289.661,188.449 -88.152,88.152 -142.75,172.07 -188.449,289.661 -34.5,88.77 -75.535,222.16 -86.742,467.78 -12.121,265.64 -14.688,345.32 -14.688,1017.97 0,672.66 2.567,752.34 14.688,1017.98 11.207,245.62 52.242,379.01 86.742,467.78 45.699,117.59 100.293,201.51 188.445,289.66 88.156,88.16 172.074,142.75 289.665,188.45 88.77,34.5 222.16,75.54 467.78,86.74 265.64,12.12 345.32,14.69 1017.98,14.69"
         style="fill:#100f0d;fill-opacity:1;fill-rule:nonzero;stroke:none"
         id="path14"
         inkscape:connector-curvature="0" /><path
         d="m 2519.21,1679.47 c -463.78,0 -839.74,375.96 -839.74,839.73 0,463.78 375.96,839.74 839.74,839.74 463.77,0 839.73,-375.96 839.73,-839.74 0,-463.77 -375.96,-839.73 -839.73,-839.73 z m 0,2133.38 c -714.47,0 -1293.65,-579.18 -1293.65,-1293.65 0,-714.46 579.18,-1293.64 1293.65,-1293.64 714.46,0 1293.64,579.18 1293.64,1293.64 0,714.47 -579.18,1293.65 -1293.64,1293.65"
         style="fill:#100f0d;fill-opacity:1;fill-rule:nonzero;stroke:none"
         id="path16"
         inkscape:connector-curvature="0" /><path
         d="m 4166.27,3863.96 c 0,-166.96 -135.35,-302.3 -302.31,-302.3 -166.95,0 -302.3,135.34 -302.3,302.3 0,166.96 135.35,302.31 302.3,302.31 166.96,0 302.31,-135.35 302.31,-302.31"
         style="fill:#100f0d;fill-opacity:1;fill-rule:nonzero;stroke:none"
         id="path18"
         inkscape:connector-curvature="0" /></g></g></svg>