<svg width="347" height="125" viewBox="0 0 347 125" fill="none" xmlns="http://www.w3.org/2000/svg">
<path fill-rule="evenodd" clip-rule="evenodd" d="M128.935 73.6041C128.935 74.8756 128.003 75.9208 126.677 75.9208C125.387 75.9208 124.455 74.8732 124.455 73.6041V51.516C124.455 50.2446 125.387 49.1994 126.713 49.1994C128.003 49.1994 128.935 50.247 128.935 51.516V73.6041Z" fill="white"/>
<path fill-rule="evenodd" clip-rule="evenodd" d="M157.892 51.516V71.6994C157.892 74.4279 156.495 75.9613 154.273 75.9613H154.095C151.981 75.9613 150.976 74.6898 150.081 72.8208L145.565 63.6636L141.551 54.2089L141.659 63.366L141.695 73.5684C141.695 74.8398 140.764 75.8851 139.437 75.8851C138.147 75.8851 137.216 74.8375 137.216 73.5684V53.3851C137.216 50.8803 138.613 49.1232 141.051 49.1232H141.23C143.488 49.1232 144.419 50.3946 145.316 52.2636L149.759 61.347L153.558 70.1684L153.451 61.7208L153.415 51.5184C153.415 50.247 154.346 49.2017 155.673 49.2017C156.96 49.1994 157.892 50.2446 157.892 51.516Z" fill="white"/>
<path fill-rule="evenodd" clip-rule="evenodd" d="M175.848 73.5684C175.848 74.8399 174.917 75.8851 173.59 75.8851C172.301 75.8851 171.369 74.8375 171.369 73.5684V53.5732H165.814C164.668 53.5732 163.737 52.6756 163.737 51.3684C163.737 50.097 164.668 49.2018 165.814 49.2018H181.403C182.549 49.2018 183.481 50.0994 183.481 51.4065C183.481 52.6779 182.549 53.5732 181.403 53.5732H175.848V73.5684Z" fill="white"/>
<path fill-rule="evenodd" clip-rule="evenodd" d="M189.323 72.8208V52.0779C189.323 50.1351 190.362 49.0517 192.262 49.1256H205.164C206.31 49.1256 207.241 50.0589 207.241 51.3303C207.241 52.6017 206.31 53.497 205.164 53.497H193.766V59.9255H203.837C204.949 59.9255 205.844 60.7851 205.844 62.0184C205.844 63.2517 204.949 64.1113 203.837 64.1113H193.766V71.5113H205.164C206.31 71.5113 207.241 72.4446 207.241 73.716C207.241 74.9875 206.31 75.8827 205.164 75.8827H192.154C190.291 75.8851 189.253 74.8017 189.323 72.8208Z" fill="white"/>
<path fill-rule="evenodd" clip-rule="evenodd" d="M231.65 75.997C232.904 75.3232 233.299 73.9398 232.689 72.8565L228.209 64.5613C231.901 63.8136 234.052 60.9732 234.052 57.1232C234.052 53.0875 231.616 49.1256 225.773 49.1256H217.28C215.381 49.0517 214.342 50.1351 214.342 52.0779V73.6065C214.342 74.8756 215.273 75.9232 216.563 75.9232C217.89 75.9232 218.821 74.8779 218.821 73.6065L218.785 65.4589H223.515L228.497 75.0636C229.104 76.147 230.431 76.6327 231.65 75.997ZM225.878 61.2327H218.782V53.4946H225.842C228.207 53.4946 229.534 55.0636 229.534 57.3446C229.534 59.6255 228.28 61.2327 225.878 61.2327Z" fill="white"/>
<path fill-rule="evenodd" clip-rule="evenodd" d="M243.296 73.9041C240.609 71.3994 239.39 67.4756 239.39 62.5422C239.39 57.5708 240.573 53.6851 243.226 51.2184C244.874 49.7232 247.095 48.7137 250.322 48.7137C253.153 48.7137 255.34 49.3875 256.988 50.8446C258.422 52.0398 259.461 53.7232 260.07 56.0779C260.392 57.3113 259.568 58.5446 258.207 58.8065C256.917 59.0303 255.879 58.1708 255.484 56.9375C255.054 55.7422 254.479 54.8827 253.799 54.2827C252.867 53.4232 251.721 53.0494 250.214 53.0494C248.602 53.0494 247.203 53.5351 246.164 54.6184C244.659 56.1875 244.013 58.9922 244.013 62.5422C244.013 66.0565 244.623 68.8589 246.2 70.4279C247.239 71.5113 248.602 71.997 250.178 71.997C251.826 71.997 253.08 71.5494 254.121 70.5398C254.657 70.016 255.125 69.3446 255.447 68.5589C255.913 67.3994 256.881 66.5398 258.134 66.8398C259.388 67.1398 260.178 68.4089 259.783 69.6422C259.137 71.697 258.027 73.3422 256.522 74.4637C254.874 75.697 252.831 76.3327 250.251 76.3327C246.954 76.3327 244.874 75.3232 243.296 73.9041Z" fill="white"/>
<path fill-rule="evenodd" clip-rule="evenodd" d="M276.198 48.7137C268.42 48.7137 265.123 54.1708 265.123 62.5422C265.123 71.1756 268.386 76.3708 276.198 76.3708C283.867 76.3708 287.237 71.1756 287.237 62.5422C287.237 54.0208 283.904 48.7137 276.198 48.7137ZM276.162 53.0875C280.427 53.0875 282.648 56.1875 282.648 62.5422C282.648 68.8946 280.39 71.997 276.162 71.997C271.897 71.997 269.746 68.897 269.746 62.5422C269.746 56.1899 271.968 53.0875 276.162 53.0875Z" fill="white"/>
<path fill-rule="evenodd" clip-rule="evenodd" d="M322 73.5684C322 74.8398 321.068 75.8851 319.742 75.8851C318.452 75.8851 317.52 74.8375 317.52 73.5684V63.5518L317.628 53.797L314.509 63.7018L311.356 73.4565C310.82 75.1756 309.708 75.8494 308.31 75.8494C306.84 75.8494 305.765 75.1398 305.192 73.4208L301.966 63.7041L298.991 53.9494L299.098 63.5541V73.5708C299.098 74.8422 298.166 75.8875 296.84 75.8875C295.55 75.8875 294.619 74.8398 294.619 73.5708V53.5756C294.619 50.8089 296.052 49.2018 298.561 49.2018C300.927 49.2018 302.253 50.5089 303.004 52.9018L306.301 63.1041L308.308 70.0565L310.351 63.1041L313.648 52.9018C314.402 50.5089 315.692 49.2018 318.057 49.2018C320.566 49.2018 321.963 50.7708 321.963 53.5756L322 73.5684Z" fill="white"/>
<path d="M88.2824 66.3609C88.2824 67.0294 88.0263 67.6706 87.5705 68.1434C87.1146 68.6161 86.4963 68.8817 85.8516 68.8817C85.2069 68.8817 84.5886 68.6161 84.1327 68.1434C83.6768 67.6706 83.4207 67.0294 83.4207 66.3609V43.8401C83.4207 43.1715 83.6768 42.5303 84.1327 42.0576C84.5886 41.5848 85.2069 41.3192 85.8516 41.3192C86.4963 41.3192 87.1146 41.5848 87.5705 42.0576C88.0263 42.5303 88.2824 43.1715 88.2824 43.8401V66.3609ZM87.4387 81.965C87.1172 82.2984 78.0769 90.1109 61.5029 90.1109C44.9289 90.1109 35.9489 82.34 35.5672 82.0067C35.3266 81.7964 35.1285 81.5389 34.9841 81.249C34.8397 80.959 34.752 80.6424 34.7258 80.3173C34.6997 79.9921 34.7357 79.6648 34.8318 79.3541C34.9279 79.0434 35.0822 78.7554 35.2859 78.5067C35.7055 78.0033 36.2999 77.6923 36.9397 77.6416C37.5795 77.5908 38.2127 77.8045 38.7011 78.2359C38.8418 78.34 46.9178 85.1317 61.4828 85.1317C76.0478 85.1317 84.1841 78.2984 84.2645 78.2359C84.7584 77.8084 85.3937 77.5975 86.0352 77.6481C86.6767 77.6986 87.2739 78.0067 87.6998 78.5067C88.1097 79.0026 88.3143 79.6462 88.2691 80.2977C88.224 80.9492 87.9328 81.5558 87.4588 81.9859L87.4387 81.965ZM34.7033 43.8401C34.7396 43.1694 35.0305 42.5409 35.5124 42.0919C35.9942 41.643 36.6279 41.4101 37.2748 41.4442C37.8745 41.4795 38.4404 41.7439 38.8633 42.1863C39.2862 42.6287 39.5362 43.2178 39.565 43.8401V66.3192C39.565 66.9878 39.3089 67.629 38.853 68.1017C38.3972 68.5745 37.7789 68.84 37.1342 68.84C36.4895 68.84 35.8712 68.5745 35.4153 68.1017C34.9594 67.629 34.7033 66.9878 34.7033 66.3192V43.8401ZM46.8977 38.8401C46.9341 38.1694 47.2249 37.5409 47.7068 37.0919C48.1886 36.643 48.8223 36.4101 49.4692 36.4442C50.0689 36.4795 50.6348 36.7439 51.0577 37.1863C51.4806 37.6287 51.7306 38.2178 51.7594 38.8401V72.1734C51.7594 72.8419 51.5033 73.4831 51.0475 73.9559C50.5916 74.4286 49.9733 74.6942 49.3286 74.6942C48.6839 74.6942 48.0656 74.4286 47.6097 73.9559C47.1538 73.4831 46.8977 72.8419 46.8977 72.1734V38.8401ZM59.1524 37.5901C59.1524 36.9215 59.4085 36.2803 59.8644 35.8076C60.3203 35.3348 60.9386 35.0692 61.5833 35.0692C62.228 35.0692 62.8463 35.3348 63.3021 35.8076C63.758 36.2803 64.0141 36.9215 64.0141 37.5901V73.84C64.0141 74.5086 63.758 75.1498 63.3021 75.6225C62.8463 76.0953 62.228 76.3609 61.5833 76.3609C60.9386 76.3609 60.3203 76.0953 59.8644 75.6225C59.4085 75.1498 59.1524 74.5086 59.1524 73.84V37.5901ZM71.2062 38.8401C71.2062 38.1715 71.4623 37.5303 71.9182 37.0576C72.3741 36.5848 72.9924 36.3192 73.6371 36.3192C74.2818 36.3192 74.9001 36.5848 75.3559 37.0576C75.8118 37.5303 76.0679 38.1715 76.0679 38.8401V72.1734C76.0679 72.8419 75.8118 73.4831 75.3559 73.9559C74.9001 74.4286 74.2818 74.6942 73.6371 74.6942C72.9924 74.6942 72.3741 74.4286 71.9182 73.9559C71.4623 73.4831 71.2062 72.8419 71.2062 72.1734V38.8401ZM88.9454 25.0901H34.1408C32.9466 25.0818 31.7626 25.3179 30.6566 25.7849C29.5505 26.2518 28.5442 26.9404 27.6951 27.8112C26.846 28.6821 26.1709 29.718 25.7085 30.8598C25.246 32.0015 25.0053 33.2267 25 34.4651V90.715C25.0053 91.9534 25.246 93.1786 25.7085 94.3203C26.1709 95.4621 26.846 96.498 27.6951 97.3689C28.5442 98.2397 29.5505 98.9283 30.6566 99.3952C31.7626 99.8622 32.9466 100.098 34.1408 100.09H88.9454C90.1379 100.098 91.3202 99.8629 92.425 99.3972C93.5297 98.9316 94.5352 98.2448 95.384 97.3762C96.2328 96.5076 96.9083 95.4741 97.372 94.3348C97.8356 93.1954 98.0783 91.9725 98.0862 90.7359V34.4651C98.0809 33.2284 97.8408 32.005 97.3796 30.8646C96.9184 29.7242 96.2451 28.6892 95.3982 27.8186C94.5512 26.9481 93.5472 26.2591 92.4435 25.7909C91.3398 25.3227 90.158 25.0846 88.9655 25.0901" fill="white"/>
</svg>
