<?xml version="1.0" encoding="UTF-8" standalone="no"?>
<svg
   width="73.086197"
   height="75.000305"
   viewBox="0 0 73.086197 75.000305"
   fill="none"
   version="1.1"
   id="svg9"
   xmlns="http://www.w3.org/2000/svg"
   xmlns:svg="http://www.w3.org/2000/svg">
  <defs
     id="defs9" />
  <path
     d="m 63.2824,41.271011 c 0,0.6685 -0.2561,1.3097 -0.7119,1.7825 -0.4559,0.4727 -1.0742,0.7383 -1.7189,0.7383 -0.6447,0 -1.263,-0.2656 -1.7189,-0.7383 -0.4559,-0.4728 -0.712,-1.114 -0.712,-1.7825 v -22.5208 c 0,-0.6686 0.2561,-1.3098 0.712,-1.7825 0.4559,-0.4728 1.0742,-0.7384 1.7189,-0.7384 0.6447,0 1.263,0.2656 1.7189,0.7384 0.4558,0.4727 0.7119,1.1139 0.7119,1.7825 z m -0.8437,15.6041 c -0.3215,0.3334 -9.3618,8.1459 -25.9358,8.1459 -16.574,0 -25.554,-7.7709 -25.9357,-8.1042 -0.2406,-0.2103 -0.4387,-0.4678 -0.5831,-0.7577 -0.1444,-0.29 -0.2321,-0.6066 -0.2583,-0.9317 -0.0261,-0.3252 0.0099,-0.6525 0.106,-0.9632 0.0961,-0.3107 0.2504,-0.5987 0.4541,-0.8474 0.4196,-0.5034 1.014,-0.8144 1.6538,-0.8651 0.6398,-0.0508 1.273,0.1629 1.7614,0.5943 0.1407,0.1041 8.2167,6.8958 22.7817,6.8958 14.565,0 22.7013,-6.8333 22.7817,-6.8958 0.4939,-0.4275 1.1292,-0.6384 1.7707,-0.5878 0.6415,0.0505 1.2387,0.3586 1.6646,0.8586 0.4099,0.4959 0.6145,1.1395 0.5693,1.791 -0.0451,0.6515 -0.3363,1.2581 -0.8103,1.6882 z M 9.7033,18.750211 c 0.0363,-0.6707 0.3272,-1.2992 0.8091,-1.7482 0.4818,-0.4489 1.1155,-0.6818 1.7624,-0.6477 0.5997,0.0353 1.1656,0.2997 1.5885,0.7421 0.4229,0.4424 0.6729,1.0315 0.7017,1.6538 v 22.4791 c 0,0.6686 -0.2561,1.3098 -0.712,1.7825 -0.4558,0.4728 -1.0741,0.7383 -1.7188,0.7383 -0.6447,0 -1.263,-0.2655 -1.7189,-0.7383 -0.4559,-0.4727 -0.712,-1.1139 -0.712,-1.7825 z m 12.1944,-5 c 0.0364,-0.6707 0.3272,-1.2992 0.8091,-1.7482 0.4818,-0.4489 1.1155,-0.6818 1.7624,-0.6477 0.5997,0.0353 1.1656,0.2997 1.5885,0.7421 0.4229,0.4424 0.6729,1.0315 0.7017,1.6538 v 33.3333 c 0,0.6685 -0.2561,1.3097 -0.7119,1.7825 -0.4559,0.4727 -1.0742,0.7383 -1.7189,0.7383 -0.6447,0 -1.263,-0.2656 -1.7189,-0.7383 -0.4559,-0.4728 -0.712,-1.114 -0.712,-1.7825 z m 12.2547,-1.25 c 0,-0.6686 0.2561,-1.3098 0.712,-1.7825 0.4559,-0.4728 1.0742,-0.7383995 1.7189,-0.7383995 0.6447,0 1.263,0.2655995 1.7188,0.7383995 0.4559,0.4727 0.712,1.1139 0.712,1.7825 v 36.2499 c 0,0.6686 -0.2561,1.3098 -0.712,1.7825 -0.4558,0.4728 -1.0741,0.7384 -1.7188,0.7384 -0.6447,0 -1.263,-0.2656 -1.7189,-0.7384 -0.4559,-0.4727 -0.712,-1.1139 -0.712,-1.7825 z m 12.0538,1.25 c 0,-0.6686 0.2561,-1.3098 0.712,-1.7825 0.4559,-0.4728 1.0742,-0.7384 1.7189,-0.7384 0.6447,0 1.263,0.2656 1.7188,0.7384 0.4559,0.4727 0.712,1.1139 0.712,1.7825 v 33.3333 c 0,0.6685 -0.2561,1.3097 -0.712,1.7825 -0.4558,0.4727 -1.0741,0.7383 -1.7188,0.7383 -0.6447,0 -1.263,-0.2656 -1.7189,-0.7383 -0.4559,-0.4728 -0.712,-1.114 -0.712,-1.7825 z M 63.9454,2.1147163e-4 H 9.1408 C 7.9466,-0.00808853 6.7626,0.22801147 5.6566,0.69501147 4.5505,1.1619115 3.5442,1.8505115 2.6951,2.7213115 c -0.8491,0.8709 -1.5242,1.9068 -1.9866,3.0486 -0.4625,1.1417 -0.7032,2.3669 -0.7085,3.6053 V 65.625111 c 0.0053,1.2384 0.246,2.4636 0.7085,3.6053 0.4624,1.1418 1.1375,2.1777 1.9866,3.0486 0.8491,0.8708 1.8554,1.5594 2.9615,2.0263 1.106,0.467 2.29,0.7028 3.4842,0.6948 h 54.8046 c 1.1925,0.008 2.3748,-0.2271 3.4796,-0.6928 1.1047,-0.4656 2.1102,-1.1524 2.959,-2.021 0.8488,-0.8686 1.5243,-1.9021 1.988,-3.0414 0.4636,-1.1394 0.7063,-2.3623 0.7142,-3.5989 V 9.3752115 c -0.0053,-1.2367 -0.2454,-2.4601 -0.7066,-3.6005 -0.4612,-1.1404 -1.1345,-2.1754 -1.9814,-3.046 -0.847,-0.8705 -1.851,-1.5595 -2.9547,-2.02770003 -1.1037,-0.4682 -2.2855,-0.7063 -3.478,-0.70079999837"
     fill="#ffffff"
     id="path9" />
</svg>
