<?xml version="1.0" encoding="UTF-8"?>
<svg id="Layer_1" data-name="Layer 1" xmlns="http://www.w3.org/2000/svg" version="1.1" viewBox="0 0 1000 998.91">
  <defs>
    <style>
      .cls-1 {
        fill: #16100e;
        stroke-width: 0px;
      }
    </style>
  </defs>
  <path class="cls-1" d="M499.22,998.85c-123.05.02-246.09.16-369.14-.04-62.23-.11-110.04-34.2-125.47-89.56-3.03-10.87-4.41-22.56-4.42-33.87C-.05,623.55,0,371.72.01,119.89.02,59.6,51.37,4.9,111.7.95c6.41-.42,12.85-.53,19.27-.53C375.23.32,619.48.41,863.74,0c37.85-.06,71.42,8.94,99.22,35.98,24.8,24.13,36.72,53.61,36.76,87.56.27,252.29.46,504.57.04,756.86-.1,60.59-52.91,115.75-113.52,117.06-87.65,1.9-175.36,1.09-263.05,1.35-41.32.12-82.64.02-123.96.04ZM499.04,865.08c4.12,0,8.23.02,12.35,0,68.87-.29,136.09-10.98,201.29-33.17,48.37-16.47,94.65-37.57,135.27-69.06,7.78-6.03,14.82-15.55,17.64-24.84,3.97-13.08-1.44-25.35-13.74-33.1-14.1-8.88-27.95-7.34-41,2.25-38.02,27.97-79.81,48.45-124.54,63.13-73.31,24.06-148.56,30.98-225.37,26.69-99.69-5.56-192.05-32.37-274.21-90.54-4-2.83-8.71-5.25-13.44-6.38-15.53-3.69-30.84,4.05-37.62,18.31-7.45,15.67-3.26,30.78,13.53,43.01,104.27,75.95,223.49,102.13,349.85,103.71ZM533.18,406.93h-.06c0-74.76.02-149.51-.04-224.27,0-6.87-.16-13.77-.85-20.6-2.22-21.96-23.82-34.98-44.29-26.91-15.53,6.12-21.98,16.87-21.99,37.23-.02,155.01-.01,310.03.05,465.04,0,5.94.13,11.98,1.13,17.81,2.44,14.16,13.83,24.58,27.97,26.31,14.62,1.79,28.44-4.77,33.85-18.08,2.99-7.36,4.03-15.96,4.06-24.01.29-77.51.17-155.01.17-232.52ZM366.33,405.54c0-73.35.12-146.71-.08-220.06-.06-21.37-13.91-35.96-33.18-36.12-19.56-.17-33.66,13.98-33.68,35.52-.17,146.71-.12,293.42.22,440.13.02,6.98,2.07,14.73,5.53,20.77,7.5,13.1,22.94,18.29,36.88,14.07,15.28-4.63,24.24-16.8,24.27-34.24.13-73.35.06-146.71.04-220.06ZM700.03,405c0-3.67,0-7.33,0-11-.01-69.67.09-139.33-.11-209-.06-20.42-13.66-34.93-32.35-35.58-19.05-.67-32.85,12.6-34.47,33.31-.36,4.56-.27,9.16-.27,13.74.02,138.42.05,276.83.13,415.25,0,6.87-.23,13.85.89,20.57.87,5.2,2.81,10.7,5.81,14.99,8.45,12.04,23.19,16.6,36.42,12.24,15.5-5.11,23.86-16.71,23.89-34.52.13-73.33.05-146.67.06-220ZM799.45,399.39h-.07c0,47.7-.03,95.39.01,143.09.02,24.23,13.61,39.94,34.12,39.66,20.49-.28,33.25-14.96,33.34-38.85.14-33.48.04-66.96.03-100.44,0-62.83.02-125.66-.07-188.49-.03-18.77-7.74-31.25-21.76-36.04-24.47-8.37-45.36,7.48-45.53,35.24-.3,48.61-.08,97.23-.08,145.84ZM199.46,398.72h-.17c0-48.15-.08-96.31.05-144.46.04-15.94-4.71-29.09-20.38-35.7-22.97-9.69-46.42,7.19-46.47,33.73-.18,88.05-.07,176.11-.07,264.16,0,11.47-.49,22.96.2,34.39.77,12.85,7.38,22.64,19.09,28.14,11.69,5.49,23.46,4.5,33.92-3.09,10.47-7.6,13.95-18.61,13.9-31.32-.18-48.61-.07-97.23-.07-145.84Z"/>
</svg>