<svg width="1e3" height="421.85" viewBox="0 0 264.58 111.61" xmlns="http://www.w3.org/2000/svg">
 <g transform="translate(81.212 -76.85)">
  <rect x="-81.212" y="78.407" width="20.826" height="20.826" fill="#0068b5"/>
  <path d="m-60.905 186.91v-75.076h-19.788v75.002h19.788zm131.03.74112v-18.38c-2.8904 0-5.3361-.14818-7.1148-.44467-2.0752-.29645-3.6315-1.0376-4.6691-2.0752-1.0376-1.0376-1.7046-2.5198-2.0752-4.5209-.29645-1.8528-.44468-4.2986-.44468-7.2631v-26.162h14.304v-16.972h-14.304v-29.201h-19.788v72.557c0 6.1514.51879 11.339 1.5564 15.49 1.0376 4.0762 2.8163 7.4113 5.262 9.9311 2.4457 2.5198 5.7067 4.2986 9.6347 5.4103 4.0021 1.1117 9.0418 1.6305 15.045 1.6305zm113.24-.74112v-110.06h-19.788v110.06zm-166.38-67.665c-5.4844-5.929-13.192-8.8936-22.975-8.8936-4.7432 0-9.1159.96347-12.97 2.8904-3.928 1.927-7.189 4.595-9.857 8.0042l-1.0376 1.4082v-10.82h-19.492v75.002h19.64v-39.947 2.7422-1.334c.22232-7.0408 1.9269-12.229 5.1879-15.564 3.4833-3.5574 7.7078-5.3361 12.525-5.3361 5.7067 0 10.079 1.7787 12.97 5.1879 2.8163 3.4092 4.2986 8.2265 4.2986 14.378v39.873h19.936v-42.541c.07412-10.672-2.7422-19.121-8.2265-25.05zm136.37 30.016c0-5.4102-.96347-10.45-2.8163-15.193-1.9269-4.6691-4.595-8.8195-7.9301-12.377-3.4092-3.5574-7.4854-6.2996-12.229-8.3006-4.7432-2.001-10.005-2.9645-15.712-2.9645-5.4102 0-10.524 1.0376-15.267 3.0386-4.7432 2.0752-8.8936 4.8173-12.377 8.3006-3.4833 3.4833-6.2996 7.6336-8.3007 12.377-2.0752 4.7432-3.0386 9.857-3.0386 15.267 0 5.4103.96347 10.524 2.8904 15.267 1.9269 4.7432 4.6691 8.8936 8.0783 12.377 3.4092 3.4833 7.6336 6.2996 12.525 8.3006 4.8915 2.0752 10.302 3.1128 16.083 3.1128 16.75 0 27.125-7.6336 33.351-14.748l-14.23-10.82c-2.9645 3.5574-10.079 8.3748-18.973 8.3748-5.5585 0-10.153-1.2599-13.637-3.8539-3.4833-2.5199-5.8549-6.0773-7.1148-10.45l-.22235-.667h58.92zm-58.772-6.8925c0-5.4844 6.2996-15.045 19.862-15.119 13.563 0 19.936 9.5606 19.936 15.045z"/>
 </g>
</svg>
