<?xml version="1.0" encoding="UTF-8"?>
<!-- Generator: Adobe Illustrator 27.4.0, SVG Export Plug-In . SVG Version: 6.00 Build 0)  -->
<svg version="1.1" id="Artwork" xmlns="http://www.w3.org/2000/svg" xmlns:xlink="http://www.w3.org/1999/xlink" x="0px" y="0px" width="73px" height="73px" viewBox="0 0 73 73" style="enable-background:new 0 0 73 73;" xml:space="preserve">
<style type="text/css">
	.st0{fill:url(#SVGID_1_);}
	.st1{fill:#FFFFFF;}
</style>
<g>
	<g>
		<linearGradient id="SVGID_1_" gradientUnits="userSpaceOnUse" x1="36" y1="9.094947e-13" x2="36" y2="72">
			<stop offset="0" style="stop-color:#D56EFC"/>
			<stop offset="1" style="stop-color:#832BC1"/>
		</linearGradient>
		<path class="st0" d="M72,22.523c0-0.86,0-1.72-0.005-2.58c-0.004-0.724-0.013-1.449-0.032-2.173    c-0.043-1.577-0.136-3.169-0.416-4.728c-0.285-1.584-0.749-3.058-1.482-4.497c-0.72-1.414-1.66-2.707-2.781-3.828    c-1.122-1.122-2.415-2.062-3.829-2.782c-1.438-0.732-2.912-1.197-4.495-1.481c-1.56-0.281-3.152-0.373-4.73-0.416    c-0.724-0.02-1.448-0.028-2.173-0.032C51.197,0,50.337,0,49.477,0H22.523c-0.86,0-1.72,0-2.58,0.005    c-0.724,0.004-1.449,0.013-2.173,0.032c-1.578,0.043-3.17,0.136-4.73,0.416c-1.583,0.285-3.056,0.749-4.495,1.481    c-1.414,0.72-2.707,1.66-3.829,2.782C3.595,5.838,2.654,7.131,1.935,8.544c-0.733,1.439-1.197,2.913-1.482,4.497    c-0.28,1.56-0.373,3.151-0.416,4.728c-0.02,0.724-0.028,1.448-0.032,2.173C0,20.803,0,21.663,0,22.523v26.955    c0,0.86,0,1.72,0.005,2.58c0.004,0.724,0.013,1.449,0.032,2.173c0.043,1.577,0.136,3.169,0.416,4.728    c0.285,1.584,0.749,3.058,1.482,4.497c0.72,1.414,1.66,2.707,2.781,3.828c1.122,1.122,2.415,2.062,3.829,2.782    c1.438,0.732,2.912,1.197,4.495,1.481c1.56,0.281,3.152,0.373,4.73,0.416c0.724,0.02,1.448,0.028,2.173,0.032    C20.803,72,21.663,72,22.523,72h26.955c0.86,0,1.72,0,2.58-0.005c0.724-0.004,1.449-0.013,2.173-0.032    c1.578-0.043,3.17-0.136,4.73-0.416c1.583-0.285,3.056-0.749,4.495-1.481c1.414-0.72,2.707-1.66,3.829-2.782    c1.122-1.122,2.062-2.415,2.781-3.828c0.733-1.439,1.197-2.913,1.482-4.497c0.28-1.56,0.373-3.151,0.416-4.728    c0.02-0.724,0.028-1.448,0.032-2.173C72,51.197,72,50.337,72,49.477V22.523z"/>
	</g>
	<path class="st1" d="M35.977,26.184c2.976,0,5.388,2.411,5.388,5.386c0,2.975-2.412,5.386-5.388,5.386   c-2.976,0-5.388-2.411-5.388-5.386C30.59,28.595,33.002,26.184,35.977,26.184z M51.486,33.458c0,5.315-2.69,10.014-6.78,12.808   c-0.208,0.142-0.491-0.019-0.475-0.27c0.057-0.945,0.075-1.782,0.026-2.643c-0.016-0.283,0.095-0.559,0.302-0.753   c2.439-2.289,3.965-5.54,3.965-9.141c0-7.08-5.899-12.809-13.042-12.533c-6.572,0.255-11.873,5.623-12.046,12.196   c-0.098,3.735,1.446,7.118,3.961,9.479c0.207,0.194,0.317,0.47,0.302,0.752c-0.048,0.861-0.031,1.698,0.027,2.644   c0.015,0.251-0.267,0.413-0.475,0.271c-4.143-2.829-6.849-7.612-6.78-13.011c0.105-8.208,6.688-14.972,14.894-15.29   C44.193,17.625,51.486,24.706,51.486,33.458z M35.91,10.316c12.796-0.036,23.217,10.359,23.217,23.143   c0,10.078-6.477,18.67-15.488,21.838c-0.221,0.078-0.445-0.106-0.41-0.337c0.119-0.792,0.232-1.587,0.335-2.37   c0.036-0.276,0.212-0.516,0.467-0.627c7.135-3.115,12.134-10.236,12.134-18.504c0-11.183-9.146-20.271-20.354-20.181   C24.848,13.366,15.896,22.301,15.79,33.26c-0.081,8.351,4.941,15.561,12.132,18.701c0.256,0.112,0.432,0.35,0.469,0.627   c0.103,0.783,0.216,1.579,0.335,2.371c0.035,0.232-0.189,0.415-0.41,0.337c-9.098-3.199-15.613-11.927-15.487-22.13   C12.985,20.571,23.31,10.352,35.91,10.316z M35.977,39.132c2.048,0,3.784,0.668,4.771,1.71c0.516,0.544,0.788,1.101,0.874,1.895   c0.166,1.538,0.073,2.862-0.107,4.978c-0.172,2.017-0.497,4.707-0.923,7.446c-0.303,1.95-0.549,3.002-0.773,3.755   c-0.363,1.221-1.72,2.289-3.842,2.289s-3.479-1.068-3.842-2.289c-0.224-0.753-0.47-1.806-0.773-3.755   c-0.425-2.739-0.751-5.429-0.923-7.446c-0.18-2.117-0.274-3.441-0.107-4.978c0.086-0.794,0.358-1.351,0.874-1.895   C32.194,39.8,33.929,39.132,35.977,39.132z"/>
</g>
<g>
</g>
<g>
</g>
<g>
</g>
<g>
</g>
<g>
</g>
<g>
</g>
</svg>