<svg viewBox="0 0 512 512" xmlns="http://www.w3.org/2000/svg">
  <rect width="512" height="512" fill="#fff"/>
  <path fill="#2e64b3" d="m87.1836 206.3418-2.2324 3.0801c-2.9978 4.3989-3.2857 9.8648-1.2188 14.7168 2.1944 5.1579 6.6797 9.2024 11.9063 11.1172.2122.0836.4244.154.6426.2285.0979.0283.189.0606.293.0918.304.0949.6083.2088.9238.2695 14.4545 2.7911 18.3733-7.4181 19.4238-8.9199-3.4396 4.9451-9.2118 6.1317-16.293 4.4121-.5573-.1352-1.1655-.336-1.7051-.5313-.6888-.244-1.3725-.5281-2.0391-.8418-1.246-.6053-2.4521-1.3353-3.5664-2.1797-6.3402-4.807-10.2692-13.9751-6.1348-21.4434zm-16.4004 3.5781-4.1289 5.8457c-5.0828 7.2934-4.8003 17.0597-.8438 24.7773.6545 1.2921 1.3999 2.5469 2.2383 3.7383.7585 1.0907 1.5969 2.3835 2.6133 3.2598.3557.4022.7401.7932 1.1367 1.1855.098.098.196.1941.2988.2969.3793.3642.7641.7224 1.1602 1.0723.012.0149.0349.0304.0469.0449.0054.003.0117.0078.0117.0078.4417.3906.8902.7613 1.3555 1.123.1088.0776.2057.1633.3145.2402.4599.3594.9322.704 1.4082 1.043.0174.006.0272.0164.0508.0254.2062.1491.4243.2879.6484.4316.0972.0631.2008.1366.2988.1973.3497.2273.6951.4401 1.0508.6504.0523.0258.1046.0523.1563.0781.2986.1809.6129.3604.9297.5215.1088.0662.2187.1176.3281.1777.2182.1088.4363.2236.6484.3359.0288.0151.0694.0298.1035.0449.4477.2211.9019.4246 1.3496.6289.1088.0432.2.0803.3027.1231.3685.158.7416.3151 1.1094.4551.166.0552.3215.1206.4766.1758.3383.1203.6843.2378 1.0234.3496.1659.0546.3151.0997.4648.1484.482.1526.9696.3483 1.4805.4277 26.1649 4.3394 32.2188-15.8164 32.2188-15.8164-5.4499 7.8511-16.0006 11.5907-27.2559 8.668-.5054-.1292-.9991-.2741-1.4824-.4316-.1551-.0402-.2917-.0889-.4414-.1406-.3503-.1117-.7007-.2293-1.0391-.3555-.1551-.0571-.3158-.1156-.4707-.1758-.3733-.146-.747-.2901-1.1094-.4512-.1088-.0432-.2128-.0787-.2988-.125-.4651-.2014-.9253-.4183-1.373-.6328-.2296-.1179-.4521-.2327-.6816-.3535-.1377-.0691-.2698-.1342-.3906-.1973-.3048-.1576-.5877-.3253-.875-.4941-.0678-.0374-.136-.0711-.2051-.1113-.3497-.2122-.7126-.4254-1.0449-.6465-.1154-.0655-.2135-.1405-.3223-.209-.2302-.1468-.4533-.2932-.6895-.4512-.476-.3307-.941-.6803-1.4063-1.0313-.1094-.0889-.213-.1694-.3164-.2559-4.9393-3.8881-8.8447-9.205-10.6934-15.2266-1.9528-6.2543-1.522-13.2752 1.8438-18.9688zm-20.4277 7.3965-5.4668 6.9395c-7.0115 10.0732-6.146 23.1787-.7813 33.8828.1196.2614.259.5094.3906.7617.0751.1635.16.3278.252.4883.0403.0889.1046.1868.1563.2734.0866.1748.1776.3355.2695.502.1725.2903.3431.5852.5156.873.0974.1605.19.3219.2988.4824.1833.3106.396.6177.5859.9277.0859.1323.1678.2614.2598.3906.2753.4196.5513.8327.8555 1.2402 0 .012.012.022.0234.0274.0457.0692.0969.1361.1426.1992.2584.3534.5167.6972.7871 1.0391.0919.1263.1945.2518.2871.375.2464.2993.4881.5988.7285.8945.0926.1065.1833.2174.2813.3262.3215.3877.6609.7725 1.0059 1.1523 0 .005.0116.0143.0176.0234.0114.0145.0221.0293.0449.043.333.3654.6726.7237 1.0176 1.0801.1088.1094.2171.2147.3379.3301.2638.2676.5287.5369.8105.8008.1148.1098.2279.2146.3379.3203.3672.3451.7345.6903 1.1191 1.0195.006.006.0122.0111.0176.0156.0631.0548.1337.1099.1914.1641.3384.2896.6778.5772 1.0215.8613.1383.1154.2757.2241.4141.3359.2873.2271.5726.4433.8594.6621.1496.1119.3.2274.4551.3457.31.232.6317.4594.9473.6836.1148.0836.2288.1653.3496.2422.0289.0258.0648.0487.0938.0723.3156.2066.613.409.9238.6133.1369.0883.2702.1734.4023.2617.482.3077.9643.6053 1.4414.8926.1377.0722.2759.1496.4082.2266.3557.2068.7167.4102 1.084.6055.2008.1119.4032.2097.6094.3125.2477.1351.505.2729.7695.4082.0631.0252.1264.0489.1836.0801.1088.0494.213.1032.3164.1543.4028.1983.8147.3848 1.2402.5742.0798.0378.1655.0719.252.1152.476.2066.9534.4053 1.4414.5976.1154.0428.2308.0952.3516.1348.4424.1726.9017.3423 1.3555.5059.0577.0234.1083.0413.166.0605.5054.1731 1.0042.3355 1.5156.4941.1202.0343.2409.0775.3672.1094.5228.1576 1.0281.3411 1.5625.4414 33.9 6.1791 43.75-20.373 43.75-20.373-8.2748 10.7703-22.9604 13.6155-36.8691 10.4512-.5174-.1172-1.0286-.2798-1.5508-.4355-.1214-.0343-.2601-.074-.3809-.1172-.5048-.152-1.0041-.3159-1.4922-.4824-.0692-.0228-.1438-.0486-.2129-.0781-.4417-.152-.8775-.3195-1.3145-.4883-.1208-.0523-.2463-.0951-.3672-.1406-.4825-.1894-.9586-.3933-1.4238-.5976-.1032-.0368-.1911-.0794-.2891-.1191-.4068-.1868-.7967-.3707-1.1934-.5606-.1203-.0517-.2308-.1098-.3516-.1699-.31-.1466-.6196-.3096-.9238-.4707-.2126-.1088-.4184-.2086-.6191-.3203-.3733-.2008-.7478-.4144-1.1211-.6211-.1154-.0782-.2407-.1453-.373-.2168-.482-.2867-.9712-.5827-1.4473-.8867-.1377-.0866-.2645-.1726-.3906-.2617-.3505-.2205-.6949-.4521-1.0332-.6816-.1094-.0776-.2192-.1596-.334-.2402-.3276-.2296-.6477-.4601-.9746-.6992-.1382-.1088-.2825-.2189-.4316-.3281-.2933-.2266-.5863-.45-.8789-.6855-.1269-.1059-.2574-.2097-.3848-.3125-.3787-.304-.7353-.6104-1.0977-.9258-.0343-.0374-.0841-.0683-.125-.0996-.3847-.3443-.7693-.6979-1.1484-1.0488-.1149-.1088-.2127-.2091-.3281-.3125-.2753-.2699-.5504-.5352-.8203-.8086-.1148-.1143-.2193-.2194-.3281-.3281-.345-.348-.6833-.707-1.0156-1.0742-.0174-.0149-.0352-.0323-.0527-.0527-.3497-.3846-.689-.7752-1.0273-1.1719-.0926-.1057-.1783-.215-.2695-.3184-.2477-.3042-.4956-.612-.748-.916-.0799-.1179-.1718-.2284-.2637-.3438-.2928-.3763-.5742-.7529-.8555-1.1406-7.7189-10.5298-10.5044-25.0614-4.3301-36.9863zm187.5215 69.7793-4.2871.5879-.9199 4.4141 4.2578-.5899.9492-4.4121zm37.6465.1465-4.2871.5879-4.2344 20.1836 4.1484 0 4.373-20.7715zm66.0957 0-4.2559.5879-1.1992 5.709c-.38-.0883-1.2889-.1484-1.7305-.1484-6.0298 0-7.0032 2.5594-7.7109 5.9727l-.8106 3.8555c-.6708 3.2077.0273 5.0898 3.1445 5.0898 2.0602 0 3.5547-.6758 4.6133-1.5293l.0762 1.2344 3.502 0 4.3711-20.7715zm-95.8926 2.4121-4.2852.5879-.707 3.4434-2.1191 0-.7031 3.3242 2.1172 0-1.6914 7.9746c-.0354.2061-.0721.4104-.0781.6172-.06 1.7057 1.0215 2.707 3.1094 2.707 1.6771 0 3.403-.531 4.6016-1.1777l-.7226-2.8828c-.7478.2945-1.5496.5898-2.2559.5898-.2954 0-.4083-.0888-.4023-.2949.0031-.0884.0384-.2356.0723-.3828l1.5137-7.1504 3.1777 0 .9394-3.3242-3.4121 0 .8457-4.0313zm10.168 3.7363c-4.5312 0-6.0777 2.1187-6.7793 5.4141l-.8457 4.0313c-.1385.6184-.2198 1.2068-.2383 1.7363-.0846 2.4425 1.1344 3.7363 4.1055 3.7363 2.5295 0 5.2963-.8842 7.0703-1.9726l-.6914-2.9414c-1.971.8528-4.1741 1.5899-5.6758 1.5899-.7647-0-.8054-.4719-.6992-1.002l.2129-1c1.2463-.324 1.2737-.324 3.0293-.8535 3.5665-1.0584 5.0535-2.353 5.1504-5.1484.0846-2.413-1.9338-3.5899-4.6387-3.5899zm26.9434 0c-4.5297 0-6.0757 2.1187-6.7773 5.4141l-.8496 4.0313c-.1384.6184-.2178 1.2068-.2363 1.7363-.0862 2.4425 1.1348 3.7363 4.1074 3.7363 2.5295 0 5.2948-.8842 7.0703-1.9726l-.6934-2.9414c-1.971.8528-4.1721 1.5899-5.6738 1.5899-.7647-0-.8074-.4719-.7012-1.002l.2129-1c1.2463-.324 1.2753-.324 3.0293-.8535 3.5681-1.0584 5.0555-2.353 5.1524-5.1484.0846-2.413-1.9342-3.5899-4.6406-3.5899zm12.5313 0c-3.9712 0-4.9119.8236-5.5781 3.9141-.4585 2.1469-.377 3.2064 2.5664 4.7949 1.5879.8535 1.9877 1.2068 1.8477 1.8535-.1415.6767-.2437 1.0899-1.627 1.0899-1.5586 0-2.7815-.3535-3.8555-.7363l-.9024 3.0605c1.2447.5589 3.085.9414 4.4082.9414 4.2958 0 5.2828-1.2935 5.9844-4.5313.4908-2.2646.01-2.882-3.2227-4.6484-1.3566-.7344-1.4974-.8826-1.3574-1.5606.1739-.7639.3563-.9121 1.5918-.9121 1.0016 0 2.5503.2367 3.5996.5313l.7871-3.1191c-1.1647-.3817-2.8897-.6777-4.2422-.6777zm11.8867 0c-3.9727 0-4.9154.8236-5.5801 3.9141-.4585 2.1469-.3785 3.2064 2.5664 4.7949 1.5879.8535 1.9877 1.2068 1.8476 1.8535-.1415.6767-.2433 1.0899-1.625 1.0899-1.5601 0-2.7835-.3535-3.8574-.7363l-.9023 3.0605c1.2463.5589 3.0854.9414 4.4101.9414 4.2958 0 5.2808-1.2935 5.9824-4.5313.4923-2.2646.0115-2.882-3.2227-4.6484-1.3551-.7344-1.4974-.8826-1.3574-1.5606.1739-.7639.3582-.9121 1.5938-.9121 1.0001 0 2.5483.2367 3.5976.5313l.7871-3.1191c-1.1632-.3817-2.8893-.6777-4.2402-.6777zm42.3242 0c-5.0005 0-6.8702 2.1186-7.6426 5.7969l-.7051 3.3242c-.0708.324-.1146.6766-.1269 1-.0892 2.6187 1.7465 4.7969 5.3945 4.7969 5.2067 0 6.9377-2.3536 7.6777-5.7969l.7031-3.3242c.0707-.3528.1107-.7054.1231-1.0293.0877-2.5592-1.5696-4.7676-5.4238-4.7676zm24.3887 0c-1.6479 0-3.4325.5595-5.7051 1.6191l.084-1.5899-3.668.6191-2.9316 13.9746 4.1484 0 1.9395-9.2383c1.1386-.5884 2.9912-1.3535 3.7559-1.3535.4123 0 .5538.1176.543.4121-.0015.1178-.0384.2647-.0723.4414l-2.0469 9.7383 4.1172 0 1.9395-9.209c1.197-.6178 3.0185-1.3828 3.7832-1.3828.4123 0 .5539.1176.5449.4121-.0031.1178-.0369.2647-.0723.4414l-2.0469 9.7383 4.1484 0 2.1172-10.0625c.1369-.5884.1846-1.1472.2031-1.6484.0631-1.8229-.6031-2.9121-2.5156-2.9121-1.6463 0-3.6337.4119-5.8555 1.6777-.2862-1.059-.9992-1.6777-2.4102-1.6777zm20.6484 0c-5.0005 0-6.8726 2.1186-7.6465 5.7969l-.7051 3.3242c-.0708.324-.1107.6766-.123 1-.0908 2.6187 1.7445 4.7969 5.3926 4.7969 5.2067 0 6.9372-2.3536 7.6758-5.7969l.7031-3.3242c.0707-.3528.1127-.7054.125-1.0293.0892-2.5592-1.5676-4.7676-5.4219-4.7676zm24.1484 0c-4.5297 0-6.0757 2.1187-6.7773 5.4141l-.8477 4.0313c-.1384.6184-.2194 1.2068-.2363 1.7363-.0862 2.4425 1.1348 3.7363 4.1074 3.7363 2.5279 0 5.2943-.8842 7.0684-1.9726l-.6914-2.9414c-1.971.8528-4.1737 1.5899-5.6738 1.5899-.7647-0-.8089-.4719-.7012-1.002l.2109-1c1.2478-.324 1.2753-.324 3.0293-.8535 3.568-1.0584 5.0538-2.353 5.1523-5.1484.0831-2.413-1.9342-3.5899-4.6406-3.5899zm-199.6699.0293-4.0293.7656c.1539.6473.1954 1.1188.1816 1.5605-.0169.4417-.0885.8818-.2285 1.4707l-1.7695 6.0313-1.3984-9.6211-3.8457.5879.4199 2.2656-3.8301 6.9434c.1231-1.0308.1865-2.0002.2188-2.9414.0877-2.5009-.0703-4.7077-.375-6.9141l-3.9922.6172c.4201 3.9716.6401 7.7668.457 13.8281l4.6504 0 3.7559-6.5019 1.0078 6.5019 4.7969 0 3.2422-8.709c.6739-1.5891.9177-2.6478.9531-3.6191.0246-.735-.0687-1.4423-.2149-2.2656zm7.1172 0-3.6699.6191-2.9277 13.9746 4.1465 0 1.7949-8.4434c1.6833-1.029 2.3738-1.4126 4.2324-2.4121l.0723-3.7383c-1.254.5288-2.3922 1.1179-3.8047 1.9414l.1563-1.9414zm10.3262 0-4.2891.5899-2.957 14.0039 4.1465 0 3.0996-14.5938zm170.9297 0-3.666.6191-2.9316 13.9746 4.1484 0 1.7949-8.4434c1.6817-1.029 2.3718-1.4126 4.2305-2.4121l.0723-3.7383c-1.2524.5288-2.3922 1.1179-3.8047 1.9414l.1563-1.9414zm-151.9805 3.1777c.7647 0 1.1946.3236 1.1777.8242-.0308.8534-.5781 1.3837-1.709 1.707-.8616.2657-1.1861.3227-1.8984.5l.2109-1c.2462-1.1774.7171-2.0313 2.2188-2.0313zm26.9434 0c.7647 0 1.1943.3236 1.1758.8242-.0292.8534-.5757 1.3837-1.7051 1.707-.8632.2657-1.186.3227-1.8984.5l.209-1c.2462-1.1774.7171-2.0313 2.2188-2.0313zm135.9277 0c.7662 0 1.1962.3236 1.1777.8242-.0292.8534-.5777 1.3837-1.707 1.707-.8632.2657-1.1861.3227-1.8984.5l.2109-1c.2462-1.1774.7167-2.0313 2.2168-2.0313zm-84.5469.2656c.5878 0 1.1436.0283 1.6113.1172l-1.3399 6.3848c-.8185.7062-1.9041 1.4727-3.375 1.4727-.7355 0-.9278-.3534-.7539-1.1191l.9141-4.3242c.3123-1.3836.7954-2.5313 2.9434-2.5313zm15.0879 0c1.354 0 1.9803.5582 1.9434 1.6172-.0062.1767-.0427.3837-.0781.5898l-.7422 3.5605c-.2846 1.4124-1.1954 2.207-2.7832 2.207-1.354 0-1.9787-.589-1.9434-1.6191.0062-.1761.0396-.3823.0781-.5879l.7422-3.5605c.2831-1.4124 1.223-2.207 2.7832-2.207zm45.0352 0c1.354 0 1.9819.5582 1.9434 1.6172-.0062.1767-.0432.3837-.0801.5898l-.7402 3.5605c-.2862 1.4124-1.1938 2.207-2.7832 2.207-1.354 0-1.9803-.589-1.9434-1.6191.0062-.1761.0412-.3823.0781-.5879l.7422-3.5605c.2816-1.4124 1.2246-2.207 2.7832-2.207zm-81.0234 6.2676-1.0234 4.8828 1.5606 0-2.3789 3.207 1.457 1.207 3.4102-4.0605 1.123-5.2363-4.1484 0zm112.1914 0-1.0234 4.8828 4.1465 0 1.0234-4.8828-4.1465 0z"/>
  <path fill="#2f2d2e" d="m213.625 203.5723c-24.8542 0-35.6405 17.8976-39.7695 37.3574-4.1115 19.6 1.2726 36.6655 25.9902 36.5273l37.7266-.0234c.6954-.003 1.4211-.5641 1.5996-1.2344l3.1797-12.1113c.1723-.6833-.2586-1.2373-.9648-1.2402l-3.0391-.0234-3.0371-.0137c-.597-.006-.9413-.3943-.8613-.9082.0108-.0931.0223-.1851.0684-.2813 0 0 6.8812-16.7154 8.4414-26.375 2.1371-12.9275-4.3299-31.6738-29.334-31.6738zm253.916 6.6348-4.1719.0039c-.7062.008-13.377 0-13.377 0-.7001 0-1.6033.7521-1.9941 1.332l-23.4824 34.5488c-.4.5801-.8544.5598-1.0098-.1231l-1.7363-7.5723c-.1477-.6864-.8482-1.2461-1.5605-1.2461l-15.0938 0c-.6939 0-1.1124.5799-.9277 1.2578l6.7637 23.7207c.1954.6791.2129 1.7876.0391 2.4668l-3.1543 12.0137c-.1677.681.2642.8867.9766.8867l14.9023 0c.7001 0 1.4249-.2028 1.5957-.8867l3.1563-12.1816c.1723-.6791.6616-1.6033 1.0801-2.1699l38.3242-50.8262c.4308-.5571.37-1.2246-.3301-1.2246zm-254.5938 8.5781c12.6015.2754 15.0685 10.2349 11.6816 21.5762l-3.0879 11.0059-2.832 9.6758c-.1954.6791-.9937 1.1328-1.6953 1.1328l-14.6055 0c-11.0828 0-13.7758-8.5668-11.082-21.3477 2.705-13.0644 8.0633-21.1463 18.9629-21.9648.9314-.0702 1.8181-.0965 2.6582-.0781zm127.7441.9629c-24.5671 0-30.4295 15.1848-33.6914 30.2344-3.2634 15.3454-2.9859 27.4746 22.4336 27.4746l.918 0 22.3379 0c.6878-.012 1.3771-.6432 1.5156-1.3242l2.498-9.7344c.1446-.6895-.3217-.8926-1.0156-.8926l-22.8613 0c-8.2808 0-11.2463-2.5515-10.957-8.2793-.006-.6521.7394-2.3105 1.4394-2.3105l35.2168 0c1.5463-.009 1.5957-.9141 1.5957-.9141 3.585-16.1801 3.8173-34.2539-19.4297-34.2539zm-184.752.0859c-.7008 0-1.4074.1666-1.5625.8555l-2.6367 11.4024c-.1497.6744.2996 1.2148 1.0059 1.2148l13.9824 0c.7068 0 1.4069-.6374 1.5566-1.3184l2.5391-11.4883c0 0 .2026-.666-.2813-.666l-14.6035 0zm221.0195 0c-.7016 0-1.4018.3162-1.5449 1.002l-11.5527 54.7969c-.1508.6924-.1957 1.1849-.1172 1.5274.0815.3534 1.4369.2871 2.1309.2871l10.5508 0c.7062 0 1.987.0524 2.3594-.0977.3908-.1605.5639-1.2052.707-1.8965l3.7285-19.2129 4.5527-21.3125c.1477-.6841.8374-1.2422 1.5391-1.2422l30.166-.0215c.087 0 .1699-.0092.248-.0254l.002 0c.0781-.0164.1507-.0413.2188-.0723l.002 0c.068-.0311.1309-.0692.1875-.1133l.0019 0c.1709-.1336.2862-.3243.3301-.5469.0289-.1479.0262-.3117-.0137-.4824l-.5664-2.3945-.875-3.7012c-1.137-4.4109-4.3589-6.4941-11.5996-6.4941l-30.4551 0zm-119.7207.0449c-.7001 0-1.3978.2472-1.5332.9336l-5.2227 27.8711c-2.6033 15.07-2.6807 28.3306 14.7949 28.7676.2877.0108 27.5957 0 27.5957 0 .7062 0 1.4-.231 1.5508-.9101l5.9238-27.9512 5.9043-28.0664c0 0 .2096-.6445-.0273-.6445l-13.623 0c-.6939 0-1.4064.2443-1.5449.9336l-4.502 21.0664-4.4844 20.1719c-.1431.6839-.8394.6367-1.541.6367l-8.9512 0c-8.8563 0-7.8354-5.5953-6.0137-13.9824.0215-.0836 5.6797-27.8926 5.6797-27.8926.1262-.6864-.3334-.9336-1.0273-.9336l-12.9785 0zm117.0508 6.0391-.1719.8027-5.2598 24.6641 5.002-23.4102c.1139-.5547.2866-1.393.4297-2.0566zm-36.5703 7.7695c7.8777 0 9.5605 3.9075 9.5605 8.2402l-.1113 1.9297c0 .7609-2.4043.6152-2.4043.6152l-19.1504-.1387c-.6616 0-.8523-.9283-.8984-1.5918-.002-.0223.0486-.7946.1055-.9863 1.4801-5.1351 5.8977-8.0684 12.8984-8.0684zm-185.9199 3.4629c-.6948 0-1.4071.5545-1.5566 1.2402l-1.9707 8.6973-4.3926 20.0859c0 0-2.337 10.6767-2.5605 11.3457 0 0-1.9694 7.7098-6.6719 7.4004-2.1876-.1443-4.6875-.6465-4.6875-.6465l-.0059 0c-1.3151-.3968-1.4079.9683-1.5684 1.6504l-2.9004 12.5137c-.1671.6852.2819 1.3015.9766 1.3105 0 0 6.2867.8848 10.7266.8848l.7305 0c10.9686 0 16.7626-6.4488 20.4668-23.9609l4.3418-20.2695 4.0723-18.8594c.1497-.687-.2648-1.3242-.9649-1.3242l-14.0351-.0684z"/>
</svg>