<svg viewBox="0 0 400 400" width="400" height="400" xmlns="http://www.w3.org/2000/svg"><title>Layer 1</title><g transform="translate(72 20)"><path d="M8.787 159.65v147.517c0 28.62 53.374 51.822 119.214 51.822 65.842 0 119.215-23.204 119.215-51.823V159.65s-4.96 50.374-119.214 50.374c-114.256 0-119.213-50.373-119.213-50.373z" fill="#9EAAB2"/><ellipse ry="51.818" rx="119.214" cy="159.651" cx="128.001" fill="#8E979A"/><path d="M236.838 156.954c0 4.564-1.968 8.678-5.6 12.78-7.184 8.117-54.738 26.938-102.5 26.978-48.25.042-96.714-18.78-103.976-26.98-3.638-4.103-5.598-8.208-5.598-12.778 0-22.72 48.73-41.136 108.837-41.136 60.11 0 108.838 18.417 108.838 41.136z" fill="#1A2B2F"/><g class="hide"><path d="M24.76 107.832c17.175 11.98 60.86 23.164 103.24 23.164 42.38 0 88.462-11.582 103.238-23.164v-7.19s-32.382 20.72-103.238 20.72c-70.858 0-103.24-20.72-103.24-20.72v7.19z" fill="#1B3134"/><path d="M128 119.254C59.01 119.254 2.78 97.794.11 70.93c-.066.662-.11 1.328-.11 1.996 0 27.793 57.31 50.32 128 50.32 70.693 0 128-22.527 128-50.32 0-.668-.042-1.334-.11-1.996-2.666 26.865-58.9 48.324-127.89 48.324z" fill="#8E979A"/><path d="M231.24 165.562S210.25 195.115 128 195.115 24.763 165.562 24.763 165.562v-64.167s29.72 20.236 100.81 20.236c71.088 0 105.668-20.235 105.668-20.235v64.167z" fill="#213F48"/><path d="M128 0C57.31 0 0 22.53 0 50.322v21.966c0 27.79 57.31 50.32 128 50.32 70.693 0 128-22.53 128-50.32V50.322C256 22.53 198.694 0 128 0z" fill="#9EAAB2"/><path d="M127.738 16.975c18.917 0 36.344 2.6 49.566 6.88l18.944-6.88 4.587 19.518h-57.217l-.73-.148 20.343-7.383c-9.356-3.127-21.84-5.04-35.44-5.04-10.9 0-21.112 1.24-29.556 3.356L79.44 23.462c13.183-4.106 30.194-6.487 48.298-6.487zm-73.982 17.97c.635-2.842 7.603-5.11 15.575-5.11 7.97 0 14.133 2.27 13.76 5.11-.38 2.895-7.37 5.28-15.605 5.28-8.233 0-14.376-2.385-13.73-5.28zm74.3 36.058c-22.3 0-42.055-3.546-55.67-9.108l-25.09 9.108L52.5 47.228h59.868l.272.06-23.115 8.388c9.56 3.757 23.195 6.135 38.46 6.135 12.543 0 23.907-1.59 32.8-4.22l21.9 4.69c-13.3 5.27-32.5 8.723-54.63 8.723zm62.16-16.366c-8.598 0-15.946-2.602-16.404-5.753-.448-3.096 5.933-5.562 14.24-5.562 8.313 0 15.638 2.466 16.37 5.562.748 3.15-5.607 5.753-14.205 5.753z" fill="#DBE1E3" clip-rule="evenodd" fill-rule="evenodd"/><path d="M196.156 155.806c0 9.787-7.16 17.723-16.98 17.723-9.817 0-16.977-7.937-16.977-17.724 0-9.79 7.16-17.722 16.977-17.722 9.82 0 16.98 7.933 16.98 17.722z" fill="#1B3134" clip-rule="evenodd" fill-rule="evenodd"/><circle r="15.597" cy="152.28" cx="179.178" fill="#51C3F1" clip-rule="evenodd" fill-rule="evenodd"/><g clip-rule="evenodd" fill-rule="evenodd"><path d="M93.398 155.806c0 9.787-7.16 17.723-16.98 17.723-9.816 0-16.978-7.937-16.978-17.724 0-9.79 7.16-17.722 16.98-17.722 9.818 0 16.978 7.933 16.978 17.722z" fill="#1B3134"/><circle r="15.596" cy="152.28" cx="76.575" fill="#51C3F1"/></g><path d="M216.86 108.502V84.088s34.647-10.65 39.14-33.766v21.966c0 14.22-15.01 27.063-39.14 36.214z" fill="#8E979A"/><path d="M39.14 108.502v-24.68C11.88 75.3 1.23 59.857 0 50.32v21.966c0 14.22 15.01 27.063 39.14 36.214z" fill="#8E979A"/><path d="M128 96.65C59.01 96.65 2.78 75.19.11 48.326.044 48.99 0 49.653 0 50.323c0 27.79 57.31 50.32 128 50.32 70.693 0 128-22.53 128-50.32 0-.67-.042-1.334-.11-1.997C253.225 75.19 196.99 96.65 128 96.65z" fill="#DBE1E3"/><circle r="5.088" cy="149.872" cx="179.177" fill="#fff" clip-rule="evenodd" fill-rule="evenodd"/><circle r="5.088" cy="149.872" cx="76.42" fill="#fff" clip-rule="evenodd" fill-rule="evenodd"/></g><path d="M8.787 159.65v147.517c0 28.62 53.374 51.822 119.214 51.822 65.842 0 119.215-23.204 119.215-51.823V159.65s-4.96 50.374-119.214 50.374c-114.256 0-119.213-50.373-119.213-50.373z" fill="#9EAAB2"/><path d="M127.96 191.956c-51.833-.008-94.68-15.004-103.198-32.305v10.083S45.74 198.07 127.92 198.09h.08c82.185-.02 103.24-28.357 103.24-28.357V159.65c-8.52 17.302-51.445 32.298-103.28 32.306z" fill="#1B3134"/><path d="M231.27 184.228c3.365-2.575 6.646-5.152 9.125-8.64 1.423-2.005 2.595-4.14 3.696-6.315 1.22-2.12 2.266-4.31 3.124-6.57v144.465c0 13.27-11.48 25.375-30.353 34.542V192.93c5.09-2.398 9.948-5.288 14.41-8.702z" fill="#8E979A"/><path d="M24.73 184.228c-3.365-2.575-6.644-5.152-9.123-8.64-1.426-2.005-2.597-4.14-3.697-6.315-1.22-2.12-2.264-4.31-3.123-6.57v144.465c0 13.27 11.48 25.375 30.352 34.542V192.93c-5.09-2.398-9.947-5.288-14.41-8.702z" fill="#8E979A"/><path d="M128 355.116c-64.215 0-116.555-21.46-119.037-48.324-.062.662-.103 1.328-.103 1.994 0 27.793 53.34 50.322 119.14 50.322s119.142-22.53 119.142-50.322c0-.666-.038-1.332-.103-1.994-2.484 26.865-54.823 48.324-119.04 48.324z" fill="#8E979A"/><path d="M128 207.974c-64.215 0-116.555-21.457-119.037-48.322-.062.662-.103 1.326-.103 1.996 0 27.792 53.34 50.32 119.14 50.32s119.142-22.528 119.142-50.32c0-.67-.038-1.334-.103-1.996-2.484 26.865-54.823 48.322-119.04 48.322z" fill="#DBE1E3"/><path d="M128 338.607c-64.215 0-116.555-21.457-119.037-48.322-.062.664-.103 1.326-.103 1.996 0 27.793 53.34 50.32 119.14 50.32s119.142-22.527 119.142-50.32c0-.67-.038-1.33-.103-1.995-2.484 26.865-54.823 48.322-119.04 48.322z" fill="#DBE1E3"/><path d="M128.74 327.302c-5.32 0-10.668-.28-19.082-.992-3.943-.338-7.153-3.863-7.153-7.867V238.47c0-3.728 2.824-6.54 6.57-6.54.207 0 .42.01.633.027 8.382.712 13.72.99 19.032.99 5.312 0 10.648-.278 19.034-.99.21-.02.423-.028.63-.028 3.744 0 6.57 2.81 6.57 6.54v79.973c0 4.004-3.21 7.53-7.154 7.867-8.416.713-13.764.992-19.08.992zm-19.665-91.38c-1.542 0-2.576 1.023-2.576 2.548v79.973c0 1.912 1.633 3.728 3.497 3.887 8.29.703 13.546.98 18.743.98 5.194 0 10.45-.276 18.742-.98 1.863-.158 3.498-1.975 3.498-3.887V238.47c0-1.617-1.203-2.684-2.864-2.533-8.51.722-13.942 1.004-19.376 1.004-5.435 0-10.867-.28-19.375-1.003-.098-.01-.197-.014-.29-.014z" fill="#DBE1E3"/><path d="M226.244 232.493c-9.48 6.145-27.13 17.582-62.338 25.516 5.057 26.837 5.057 26.837 11.706 62.013 12.18-3.625 37.53-11.174 58.065-28.104-2.343-19.667-4.222-34.962-7.433-59.427" fill="#F5DD3E"/><path d="M203.304 303.173c-6.94 3.828-11.682-1.734-11.682-1.734l4.097-3.894s2.284 2.947 6.06.434c1.767-1.176.614-7.066.614-7.066L199 274.72l5.34-2.253s3.24 18.7 3.577 20.572c.632 3.502 1.153 6.95-4.613 10.133z" fill="#3B3735"/><path d="M217.69 294.99c-3.91.59-6.118-2.323-6.118-2.323l3.563-4.36s1.343 1.49 3.208 1.21c1.582-.242 3.44-1.295 4.087-3.283 1.104-3.404.08-4.57-3.386-4.184-3.463.387-7.82.895-8.59-5.936-.684-6.06 4.613-10.694 8.2-11.324 3.557-.623 5.542 1.89 5.542 1.89l-3.548 4.306s-2.354-1.07-3.77.197c-1.286 1.155-1.78 2.662-1.29 3.807.428 1.003 1.724 1.445 3.805 1.29 2.082-.15 5.51-1.36 7.62 2.886 2.373 4.77-.1 14.435-9.324 15.825z" fill="#3B3735"/></g></svg>