<svg xmlns="http://www.w3.org/2000/svg" xmlns:xlink="http://www.w3.org/1999/xlink" width="16" height="16" viewBox="0 0 16 16">
    <defs>
        <path id="a" d="M0 0h16v16H0z"/>
    </defs>
    <g fill="none" fill-rule="evenodd">
        <g>
            <mask id="b" fill="#fff">
                <use xlink:href="#a"/>
            </mask>
            <path fill="#000" d="M1.568 12.61c0 1.243.365 2.415.994 3.39H13.34c.589-1.148.731-2.434.731-3.39 0-1.547-.669-3.122-1.836-4.322-1.21-1.245-2.778-1.93-4.415-1.93a6.259 6.259 0 0 0-6.252 6.251zM1.447 16a7.275 7.275 0 0 1-.834-3.39c0-3.975 3.233-7.208 7.207-7.208 1.897 0 3.709.789 5.1 2.22 1.339 1.376 2.106 3.194 2.106 4.987 0 1.253-.216 2.41-.634 3.391" mask="url(#b)"/>
        </g>
        <path fill="#000" d="M4.717 5.882c-.246-.507-.335-1.096-.257-1.723.167-1.341.994-2.484 1.95-3.808l.197-.27.82.482c-.405.861-.359 1.18-.338 1.253.326-.01.716.06 1.16.207A2.781 2.781 0 0 1 9.9 3.485a2.784 2.784 0 0 1 .061 2.262c.22.076.44.162.658.259a7.602 7.602 0 0 1 3.003 2.45c.806 1.108.914 2.354.282 3.251-.618.878-1.808 1.212-3.032.853-2.822-.829-5.309-.48-7.392 1.035l-1.179.859 1.558-3.875L0 15.51v-1.203c0-1.993 0-4.474 2.242-6.738a7.671 7.671 0 0 1 2.475-1.686zm2.136 8.68a.646.646 0 1 1-1.292 0 .646.646 0 0 1 1.292 0zm4.039 0a.646.646 0 1 1-1.292 0 .646.646 0 0 1 1.292 0zM7.277 6.21a.308.308 0 0 0-.424-.041.283.283 0 0 0-.043.408l1.028 1.215-.5.393a.218.218 0 0 0-.032.315l.105.124a.227.227 0 0 0 .313.03l.506-.397.417.495-1.022.804a.218.218 0 0 0-.033.314l.46.543a.24.24 0 0 0 .33.032l1.018-.8.286.34a.306.306 0 0 0 .302.1.305.305 0 0 0 .122-.058.283.283 0 0 0 .043-.408L7.277 6.209z"/>
        <path fill="#000" d="M1.959 3.112l-.085 1.31c-.058.966.706 1.796 1.704 1.855l.738.044s-.115-.202.424.434c.724.854 3.19-1.325 2.404-2.251-.481-.569-.252-.233-.252-.233l.055-.86c.03-.468-.13-.919-.453-1.27a1.83 1.83 0 0 0-1.25-.587l-1.359-.081a1.93 1.93 0 0 0-.111-.004c-.959 0-1.756.722-1.815 1.643zM3.8 2.788l1.36.082c.119.007.229.058.308.145.08.086.12.197.112.313l-.084 1.309c-.001.02-.01.038-.014.057 0 0-.47-.62.228.204.315.371-.165.723-.49.34-.7-.826-.223-.198-.223-.198l-1.336-.08a.44.44 0 0 1-.421-.456l.084-1.31a.442.442 0 0 1 .476-.406z"/>
    </g>
</svg>
