<svg height="228" viewBox="0 0 200 228" width="200" xmlns="http://www.w3.org/2000/svg" xmlns:xlink="http://www.w3.org/1999/xlink"><clipPath id="a"><path d="m1226.38 862.832 153.98 152.958c159.52 158.46 159.52 416.53 0 574.98-159.51 158.45-419.317 158.45-578.833 0l-56.066-55.7c-74.231 105.9-196.633 174.93-336.406 174.93-225.848 0-409.055-181.98-409.055-406.32v-880.903c0-224.343 183.207-406.3239 409.055-406.3239 139.773 0 262.175 69.0274 336.406 174.9219l56.066-55.691c159.516-158.4535 419.323-158.4535 578.833 0 159.52 158.449 159.52 416.523 0 574.972z"/></clipPath><clipPath id="b"><path d="m0 0h1500v1710h-1500z"/></clipPath><g clip-path="url(#a)" transform="matrix(.13333333 0 0 -.13333333 0 228)"><g clip-path="url(#b)"><path d="m0 0h1650v1860h-1650z" fill="#044651"/></g></g></svg>