<?xml version="1.0" encoding="UTF-8"?>
<!-- Generator: Adobe Illustrator 16.0.0, SVG Export Plug-In . SVG Version: 6.00 Build 0)  -->
<!DOCTYPE svg PUBLIC "-//W3C//DTD SVG 1.1//EN" "http://www.w3.org/Graphics/SVG/1.1/DTD/svg11.dtd">
<svg version="1.1" id="Layer_1" xmlns="http://www.w3.org/2000/svg" xmlns:xlink="http://www.w3.org/1999/xlink" x="0px" y="0px" viewBox="0 0 197 209" enable-background="new 0 0 197 209" xml:space="preserve">
<path fill-rule="evenodd" clip-rule="evenodd" fill="#FFFFFF" d="M86.381,140.613c0.465,0.03,0.931,0.059,1.396,0.091  c3.571,0.247,6.984,1.084,10.173,2.741c2.279,1.184,4.3,2.717,6.102,4.545c1.957,1.984,3.576,4.21,4.794,6.72  c0.895,1.842,1.516,3.776,1.945,5.775c0.527,2.451,0.701,4.932,0.596,7.43c-0.168,4.005-1.055,7.835-2.944,11.4  c-1.318,2.487-3.036,4.669-5.079,6.598c-3.276,3.095-7.117,5.113-11.529,6.048c-1.633,0.346-3.281,0.563-4.949,0.615  c-0.076,0.003-0.15,0.025-0.226,0.037c-0.655,0-1.31,0-1.964,0c-0.426-0.029-0.853-0.06-1.279-0.091  c-5.111-0.369-9.774-1.949-13.815-5.165c-3.189-2.537-5.688-5.635-7.392-9.351c-0.867-1.889-1.445-3.87-1.832-5.909  c-0.438-2.307-0.576-4.635-0.459-6.975c0.246-4.926,1.543-9.526,4.401-13.603c3.345-4.769,7.719-8.161,13.366-9.8  c1.721-0.5,3.476-0.833,5.264-0.971c0.566-0.043,1.135-0.065,1.702-0.1c0.093-0.005,0.184-0.024,0.276-0.036  C85.415,140.613,85.898,140.613,86.381,140.613z M85.604,185.929c1.816-0.016,3.575-0.164,5.298-0.59  c3.756-0.928,6.879-2.875,9.361-5.846c2.534-3.031,3.852-6.553,4.21-10.459c0.123-1.336,0.136-2.675,0.057-4.016  c-0.086-1.455-0.278-2.896-0.665-4.303c-1.206-4.395-3.674-7.901-7.467-10.438c-2.836-1.896-6.009-2.765-9.394-2.932  c-1.85-0.091-3.689-0.008-5.513,0.324c-3.187,0.579-6.022,1.895-8.466,4.036c-2.37,2.076-4.082,4.598-5.143,7.563  c-0.802,2.244-1.123,4.567-1.157,6.94c-0.026,1.844,0.102,3.673,0.503,5.475c0.727,3.249,2.187,6.119,4.469,8.563  c2.013,2.156,4.408,3.708,7.197,4.658C81.087,185.65,83.35,185.904,85.604,185.929z"/>
<path fill-rule="evenodd" clip-rule="evenodd" fill="#FFFFFF" d="M178.785,191.445c-0.192,0.465-0.339,0.56-0.865,0.56  c-1.714,0-3.429,0.001-5.144,0c-0.604,0-0.827-0.224-0.827-0.832c0-16.367,0-32.734,0-49.101c0-0.629,0.222-0.849,0.861-0.85  c1.714,0,3.429-0.006,5.143,0.009c0.211,0.001,0.442,0.085,0.623,0.197c0.11,0.068,0.142,0.262,0.208,0.4  C178.785,158.368,178.785,174.906,178.785,191.445z"/>
<path fill-rule="evenodd" clip-rule="evenodd" fill="#FFFFFF" d="M38.938,161.821c0.866,1.149,1.722,2.288,2.579,3.426  c1.816,2.414,3.633,4.829,5.45,7.243c2.336,3.105,4.671,6.209,7.007,9.314c2.29,3.042,4.578,6.085,6.87,9.125  c0.169,0.225,0.244,0.452,0.122,0.712c-0.123,0.263-0.363,0.348-0.633,0.363c-0.124,0.007-0.249,0.001-0.374,0.001  c-2.112,0-4.224-0.002-6.336,0.002c-0.361,0.001-0.626-0.121-0.852-0.422c-3.984-5.324-7.976-10.642-11.967-15.961  c-2.267-3.021-4.534-6.04-6.801-9.06c-0.019-0.025-0.041-0.047-0.073-0.085c-0.275,0.257-0.548,0.51-0.819,0.764  c-1.838,1.719-3.676,3.439-5.514,5.157c-1.014,0.947-2.027,1.894-3.045,2.834c-0.131,0.122-0.186,0.241-0.185,0.42  c0.004,5.144,0.003,10.288,0.003,15.431c0,0.062,0.001,0.125,0,0.187c-0.013,0.472-0.252,0.728-0.724,0.729  c-1.801,0.007-3.601,0.006-5.401,0.001c-0.457-0.001-0.697-0.258-0.706-0.717c-0.001-0.054,0-0.109,0-0.164  c0-16.335,0-32.67,0-49.005c0-0.016,0-0.031,0-0.047c0-0.62,0.225-0.846,0.84-0.846c1.645-0.001,3.289-0.001,4.934-0.001  c0.108,0,0.218-0.003,0.327,0.001c0.476,0.021,0.71,0.256,0.731,0.73c0.003,0.071,0,0.141,0,0.21c0,7.919,0,15.836,0,23.754  c0,0.091,0,0.181,0,0.33c0.408-0.381,0.776-0.723,1.143-1.067c2.171-2.036,4.34-4.074,6.512-6.109  c2.848-2.669,5.698-5.336,8.546-8.006c2.387-2.238,4.772-4.478,7.159-6.717c1.006-0.944,2.014-1.885,3.017-2.832  c0.21-0.198,0.449-0.294,0.735-0.294c2.518,0.001,5.035,0,7.552,0.001c0.429,0,0.671,0.155,0.761,0.476  c0.075,0.265-0.027,0.471-0.212,0.649c-0.728,0.692-1.457,1.384-2.188,2.074c-1.292,1.218-2.587,2.435-3.88,3.654  c-1.792,1.688-3.583,3.376-5.374,5.067c-1.835,1.732-3.669,3.467-5.505,5.199C41.411,159.498,40.184,160.649,38.938,161.821z"/>
<path fill-rule="evenodd" clip-rule="evenodd" fill="#FFFFFF" d="M119.201,166.62c0-8.152,0-16.305,0-24.457  c0-0.071-0.001-0.141,0-0.211c0.009-0.462,0.242-0.703,0.701-0.728c0.031-0.002,0.063-0.001,0.093-0.001  c6.991,0.001,13.982-0.017,20.974,0.009c3.215,0.013,6.292,0.735,9.228,2.048c2.553,1.142,4.797,2.733,6.747,4.736  c3.174,3.262,5.283,7.108,6.32,11.545c0.597,2.555,0.844,5.142,0.789,7.76c-0.073,3.516-0.683,6.929-2.016,10.196  c-1.113,2.727-2.706,5.148-4.713,7.299c-3.082,3.301-6.825,5.469-11.212,6.532c-1.893,0.459-3.811,0.663-5.758,0.661  c-6.773-0.011-13.546-0.003-20.319-0.004c-0.116,0-0.233-0.008-0.347-0.025c-0.25-0.04-0.405-0.19-0.45-0.439  c-0.023-0.129-0.034-0.262-0.034-0.393C119.201,182.971,119.201,174.795,119.201,166.62z M126.041,185.468c0.116,0,0.208,0,0.301,0  c4.551,0,9.103,0.004,13.654-0.004c0.816-0.001,1.635-0.036,2.449-0.1c1.691-0.133,3.303-0.581,4.845-1.287  c2.016-0.923,3.708-2.268,5.167-3.928c1.359-1.548,2.432-3.27,3.224-5.168c0.842-2.021,1.295-4.13,1.463-6.311  c0.154-1.99,0.091-3.97-0.208-5.94c-0.355-2.33-1.112-4.526-2.283-6.573c-1.302-2.275-2.981-4.223-5.137-5.729  c-2.582-1.802-5.479-2.64-8.609-2.655c-4.871-0.023-9.742-0.008-14.613-0.009c-0.082,0-0.165,0-0.252,0  C126.041,160.343,126.041,172.888,126.041,185.468z"/>
<path fill-rule="evenodd" clip-rule="evenodd" fill="#17B2E7" d="M153.034,69.028c-0.354,1.148-1.129,1.989-1.96,2.817  c-5.567,5.548-11.117,11.114-16.671,16.674c-2.001,2.002-4.141,1.997-6.15-0.014c-5.733-5.738-11.467-11.475-17.198-17.214  c-1.952-1.955-1.952-4.089,0.006-6.048c5.764-5.772,11.528-11.542,17.294-17.311c1.876-1.877,4.08-1.878,5.956-0.001  c5.59,5.59,11.171,11.189,16.77,16.769c0.832,0.828,1.604,1.673,1.954,2.822C153.034,68.023,153.034,68.525,153.034,69.028z"/>
<path fill-rule="evenodd" clip-rule="evenodd" fill="#17B2E7" d="M97.773,122.78c-1.143-0.364-1.971-1.155-2.795-1.984  c-5.543-5.571-11.103-11.125-16.657-16.686c-1.987-1.99-1.99-4.113-0.006-6.099c5.749-5.753,11.497-11.506,17.247-17.259  c1.912-1.912,4.102-1.919,6.002-0.017c5.75,5.753,11.498,11.506,17.246,17.261c1.974,1.977,1.98,4.143,0.014,6.111  c-5.602,5.608-11.214,11.209-16.803,16.83c-0.8,0.804-1.623,1.527-2.738,1.843C98.779,122.78,98.277,122.78,97.773,122.78z"/>
<path fill-rule="evenodd" clip-rule="evenodd" fill="#17B2E7" d="M77.599,54.488c0-6.396,0.058-12.793-0.036-19.189  c-0.027-1.852,0.415-3.298,1.829-4.519c1.137-0.983,2.146-2.117,3.21-3.184c4.214-4.218,8.428-8.438,12.644-12.654  c1.982-1.982,4.12-1.98,6.101,0.001c5.733,5.735,11.466,11.472,17.199,17.209c1.969,1.971,1.968,4.139-0.001,6.11  c-6.78,6.788-13.562,13.575-20.344,20.363c-5.989,5.995-11.976,11.989-17.966,17.983c-1.109,1.11-2.092,0.852-2.496-0.688  c-0.125-0.476-0.134-0.992-0.135-1.49C77.596,67.784,77.599,61.136,77.599,54.488z"/>
<path fill-rule="evenodd" clip-rule="evenodd" fill="#17B2E7" d="M63.888,68.349c0,5.871,0.008,11.742-0.012,17.613  c-0.002,0.558-0.091,1.148-0.29,1.665c-0.392,1.02-1.127,1.146-1.897,0.377c-2.7-2.695-5.392-5.398-8.087-8.098  c-3.115-3.12-6.23-6.24-9.344-9.362c-1.289-1.292-1.294-3.084-0.011-4.383c5.733-5.799,11.468-11.597,17.205-17.394  c0.38-0.383,0.737-0.903,1.382-0.66c0.616,0.232,0.859,0.788,0.947,1.405c0.054,0.382,0.098,0.77,0.098,1.155  c0.006,5.894,0.004,11.788,0.004,17.681C63.885,68.349,63.887,68.349,63.888,68.349z"/>
</svg>