<svg enable-background="new 0 0 700 700" viewBox="0 0 700 700" xmlns="http://www.w3.org/2000/svg"><path d="m556.8 344.2c-2.9-3.2-42.3-52.6-49.3-61s-10.3-6.9-14.6-6.2-54.2 9-60 10-9.4 3.3-5.9 8.3c3.2 4.4 36 51 43.2 61.2l-130.5 31.3-103.6-173.5c-4.1-6.1-5-8.3-14.4-7.8-9.4.4-81.4 6.4-86.5 6.8s-10.8 2.7-5.6 14.8c5.1 12.1 86.9 188.3 89.2 193.4s8.2 13.4 22.1 10.1c14.2-3.4 63.5-16.3 90.4-23.3 14.2 25.8 43.3 78 48.6 85.5 7.2 10 12.1 8.3 23.1 5 8.6-2.6 134.4-47.8 140.1-50.2 5.7-2.3 9.2-4 5.3-9.7-2.8-4.2-36-48.6-53.4-71.9 11.9-3.2 54.2-14.4 58.8-15.7 5.2-1.3 5.9-3.9 3-7.1zm-237.2 48.5c-1.6.3-74.6 17.8-78.5 18.7s-3.9.4-4.3-.9-86.9-179.6-88.1-181.8-1.1-4 0-4 69-6.1 71.4-6.2 2.1.4 3 1.9c0 0 95.7 165.2 97.4 168.1 1.7 3 .7 3.9-.9 4.2zm206.1 38.6c1.2 1.8 2.3 3-1.3 4.3-3.7 1.3-123.7 41.8-126 42.8s-4.2 1.3-7.2-3-42-71.9-42-71.9l127.2-33.1c3.2-1 4.2-1.7 6.2 1.5s41.9 57.6 43.1 59.4zm8.1-90.3c-2.9.6-49.6 12.2-49.6 12.2l-38.2-52.4c-1.1-1.5-2-3 .7-3.4s46.1-8.2 48-8.6c2-.4 3.7-1 6.1 2.3s35.4 45.1 36.7 46.7-.8 2.6-3.7 3.2z" fill="#fb503b"/></svg>