<svg xmlns="http://www.w3.org/2000/svg" viewBox="0 0 512 512">
  <defs>
    <linearGradient id="a" x2="0" y1="199.735" y2="159.0767" gradientUnits="userSpaceOnUse">
      <stop offset="0" stop-color="#1b75bc"/>
      <stop offset="1" stop-color="#00aeef"/>
    </linearGradient>
  </defs>
  <path d="M0 0v512h512V0"/>
  <g fill="#d1d3d4">
    <path fill="#f7941d" d="m340.2834 144.4221-13.0474 17.0967c-8.2484-6.2988-17.2466-11.3978-26.3948-15.297l8.2484-19.946c10.9478 4.649 21.4457 10.6478 31.1938 18.1463z"/>
    <path fill="#f15a29" d="m372.827 179.9651-18.1464 11.5477c-5.399-8.3983-11.8477-16.3467-19.6462-23.3953l14.5472-15.897c9.1482 8.3984 16.9466 17.6966 23.2454 27.7446z"/>
    <path fill="#ef4136" d="m391.2733 224.3563-20.9958 4.6491c-2.2496-9.898-5.6989-19.6461-10.498-28.7943l19.1963-9.898c5.5489 10.9478 9.748 22.3455 12.2975 34.0432z"/>
    <path fill="#ed1c24" d="M393.373 236.354a145.7366 145.7366 0 0 1 0 36.1428l-21.2959-2.8494c1.3498-10.198 1.3498-20.396 0-30.594z"/>
    <path fill="#be1e2d" d="M391.2733 284.3445c-2.5495 11.6977-6.7486 23.0954-12.2975 34.0433l-19.1963-9.8981c4.7991-9.1482 8.2484-18.8963 10.498-28.7943z"/>
    <path d="M296.6421 338.7836h16.1968v16.1968h-16.1968z"/>
    <path d="M264.0984 338.7836h16.1968v16.1968h-16.1968z"/>
    <path d="M291.0931 142.7724c-9.1482-2.8494-18.7463-4.649-28.1944-5.099l-1.3497-9.748.4499-11.8477c11.9976.45 23.9952 2.5495 35.693 6.2988z"/>
    <path fill="url(#a)" d="M256 283.5946c-11.2477 0-20.246-13.1974-20.246-29.2442l1.7997-11.8477 18.5963-126.425 18.5964 126.275 1.7996 11.9977c-.15 16.0468-9.2982 29.2442-20.546 29.2442zm-8.9982-27.5945c0 4.949 4.0492 8.9982 8.9983 8.9982 4.949 0 8.9982-4.0492 8.9982-8.9982 0-4.949-4.0492-8.9982-8.9982-8.9982-4.949 0-8.9983 4.0492-8.9983 8.9982z"/>
    <path d="M231.5549 338.7836h16.1968v16.1968h-16.1968z"/>
    <path d="M256 264.9983c-4.949 0-8.9982-4.0492-8.9982-8.9982 0-4.949 4.0492-8.9983 8.9983-8.9983 4.949 0 8.9982 4.0492 8.9982 8.9983 0 4.949-3.8992 8.9982-8.9982 8.9982z"/>
    <path d="M199.1613 338.7836h16.1968v16.1968h-16.1968z"/>
    <path d="m249.8513 115.9278.5998 12.2975-1.3497 9.2982c-9.598.5999-19.0462 2.2495-28.3444 5.249l-6.4487-20.546c11.5477-3.5993 23.5453-5.6989 35.543-6.2987z"/>
    <path d="m184.7641 161.5188-13.1974-17.0967c9.7481-7.4985 20.246-13.4973 31.3438-18.1464l8.2484 19.946c-9.2981 3.8993-18.2964 8.9983-26.3948 15.297z"/>
    <path d="M415.1186 249.1014c-3.8992-87.8826-78.1345-155.9691-166.0172-152.07-87.8826 3.8993-155.9692 78.1347-152.07 166.0173 3.7493 87.8826 78.1346 155.9692 166.0173 152.07 87.7326-3.8993 155.8192-78.2846 152.07-166.0173ZM264.3984 447.8122c-105.879 4.649-195.5614-77.5347-200.2104-183.4138-4.6491-105.879 77.5346-195.5613 183.4137-200.2104 105.879-4.6491 195.5614 77.5347 200.2104 183.4137 4.6491 105.8791-77.5346 195.5614-183.4137 200.2105Z"/>
    <path d="M169.6171 175.316c-4.649 5.099-8.8482 10.498-12.4475 16.1968l-18.1464-11.5477c4.1991-6.7487 9.1482-13.0474 14.697-19.1962a114.9247 114.9247 0 0 1 8.5484-8.5483l14.5471 15.8969c-2.3995 2.2495-4.799 4.649-7.1986 7.1985z"/>
    <path d="m133.0244 190.463 19.1962 9.898c-4.799 9.1483-8.2484 18.8963-10.498 28.7944l-20.9958-4.6491c2.5495-11.8477 6.5987-23.2454 12.2976-34.0433z"/>
    <path d="M141.7226 279.6954c2.2496 9.898 5.699 19.4961 10.498 28.7943l-19.1962 9.898c-5.699-10.7978-9.7481-22.3455-12.2976-34.0432z"/>
    <path d="m139.923 269.6474-21.2958 2.8494a145.7356 145.7356 0 0 1 0-36.1428l21.2958 2.8494c-1.3497 10.048-1.3497 20.396 0 30.444z"/>
  </g>
</svg>