<?xml version="1.0" encoding="UTF-8" standalone="no"?>
<!-- Created with Inkscape (http://www.inkscape.org/) -->

<svg
   xmlns:dc="http://purl.org/dc/elements/1.1/"
   xmlns:cc="http://creativecommons.org/ns#"
   xmlns:rdf="http://www.w3.org/1999/02/22-rdf-syntax-ns#"
   xmlns:svg="http://www.w3.org/2000/svg"
   xmlns="http://www.w3.org/2000/svg"
   xmlns:sodipodi="http://sodipodi.sourceforge.net/DTD/sodipodi-0.dtd"
   xmlns:inkscape="http://www.inkscape.org/namespaces/inkscape"
   version="1.1"
   id="svg29"
   xml:space="preserve"
   width="191.03206"
   height="191.03738"
   viewBox="0 0 191.03206 191.03739"
   sodipodi:docname="line.svg"
   inkscape:version="0.92.1 r15371"><metadata
     id="metadata35"><rdf:RDF><cc:Work
         rdf:about=""><dc:format>image/svg+xml</dc:format><dc:type
           rdf:resource="http://purl.org/dc/dcmitype/StillImage" /><dc:title></dc:title></cc:Work></rdf:RDF></metadata><defs
     id="defs33"><clipPath
       clipPathUnits="userSpaceOnUse"
       id="clipPath65"><path
         d="M 0,595.28 H 841.89 V 0 H 0 Z"
         id="path63"
         inkscape:connector-curvature="0" /></clipPath></defs><sodipodi:namedview
     pagecolor="#ffffff"
     bordercolor="#666666"
     borderopacity="1"
     objecttolerance="10"
     gridtolerance="10"
     guidetolerance="10"
     inkscape:pageopacity="0"
     inkscape:pageshadow="2"
     inkscape:window-width="1366"
     inkscape:window-height="739"
     id="namedview31"
     showgrid="false"
     fit-margin-top="0"
     fit-margin-left="0"
     fit-margin-right="0"
     fit-margin-bottom="0"
     inkscape:zoom="0.70303051"
     inkscape:cx="561.26001"
     inkscape:cy="396.85334"
     inkscape:window-x="0"
     inkscape:window-y="0"
     inkscape:window-maximized="1"
     inkscape:current-layer="g37" /><g
     id="g37"
     inkscape:groupmode="layer"
     inkscape:label="LINE_Icon_RGB"
     transform="matrix(1.3333333,0,0,-1.3333333,1.2194059e-6,191.03739)"><g
       id="g89"
       transform="translate(117.36002,143.27802)"><path
         d="m 0,0 h -91.246 c -14.327,0.019 -26.093,-11.583 -26.114,-25.914 v -91.246 c -0.018,-14.332 11.585,-26.099 25.914,-26.118 h 91.247 c 14.33,-0.018 26.091,11.583 26.113,25.917 v 91.247 C 25.934,-11.782 14.333,-0.02 0,0"
         style="fill:#00b900;fill-opacity:1;fill-rule:nonzero;stroke:none"
         id="path91"
         inkscape:connector-curvature="0" /></g><g
       id="g93"
       transform="translate(123.56882,77.938925)"><path
         d="m 0,0 c 0,23.342 -23.4,42.332 -52.165,42.332 -28.761,0 -52.164,-18.99 -52.164,-42.332 0,-20.926 18.558,-38.451 43.626,-41.765 1.699,-0.366 4.011,-1.12 4.596,-2.572 0.526,-1.319 0.344,-3.385 0.168,-4.717 0,0 -0.612,-3.681 -0.744,-4.465 -0.227,-1.319 -1.048,-5.158 4.518,-2.812 5.568,2.346 30.042,17.689 40.986,30.286 h -0.002 C -3.621,-17.755 0,-9.342 0,0"
         style="fill:#ffffff;fill-opacity:1;fill-rule:nonzero;stroke:none"
         id="path95"
         inkscape:connector-curvature="0" /></g><g
       id="g97"
       transform="translate(60.805421,89.218525)"><path
         d="M 0,0 H -3.659 C -4.22,0 -4.676,-0.455 -4.676,-1.014 v -22.73 c 0,-0.56 0.456,-1.014 1.017,-1.014 H 0 c 0.561,0 1.016,0.454 1.016,1.014 v 22.73 C 1.016,-0.455 0.561,0 0,0"
         style="fill:#00b900;fill-opacity:1;fill-rule:nonzero;stroke:none"
         id="path99"
         inkscape:connector-curvature="0" /></g><g
       id="g101"
       transform="translate(85.990321,89.218525)"><path
         d="M 0,0 H -3.659 C -4.22,0 -4.675,-0.455 -4.675,-1.014 v -13.504 l -10.416,14.067 c -0.024,0.036 -0.051,0.07 -0.079,0.103 l -0.007,0.006 c -0.02,0.023 -0.04,0.043 -0.061,0.063 -0.006,0.006 -0.012,0.011 -0.019,0.017 -0.017,0.016 -0.035,0.031 -0.054,0.045 -0.008,0.008 -0.017,0.014 -0.026,0.021 -0.018,0.012 -0.035,0.025 -0.053,0.036 -0.01,0.007 -0.02,0.013 -0.031,0.018 -0.018,0.011 -0.036,0.022 -0.054,0.031 -0.011,0.005 -0.021,0.011 -0.032,0.015 -0.019,0.009 -0.038,0.018 -0.058,0.025 -0.012,0.004 -0.022,0.008 -0.033,0.012 -0.02,0.007 -0.04,0.014 -0.061,0.019 -0.011,0.004 -0.023,0.006 -0.035,0.01 -0.02,0.004 -0.039,0.009 -0.058,0.013 -0.014,0.002 -0.029,0.004 -0.043,0.005 -0.018,0.004 -0.036,0.005 -0.054,0.007 -0.017,0.002 -0.034,0.002 -0.052,0.003 -0.013,0 -0.023,0.002 -0.036,0.002 h -3.658 c -0.561,0 -1.017,-0.455 -1.017,-1.014 v -22.73 c 0,-0.56 0.456,-1.014 1.017,-1.014 h 3.658 c 0.562,0 1.017,0.454 1.017,1.014 v 13.5 l 10.429,-14.085 c 0.072,-0.102 0.161,-0.185 0.258,-0.251 0.003,-0.002 0.007,-0.005 0.01,-0.008 0.021,-0.013 0.042,-0.026 0.063,-0.038 0.01,-0.006 0.019,-0.01 0.029,-0.015 0.015,-0.009 0.032,-0.017 0.048,-0.024 0.017,-0.007 0.032,-0.014 0.05,-0.021 0.01,-0.004 0.02,-0.008 0.03,-0.011 0.024,-0.009 0.046,-0.016 0.069,-0.023 0.005,0 0.01,-0.002 0.015,-0.003 0.083,-0.022 0.17,-0.035 0.26,-0.035 H 0 c 0.562,0 1.016,0.454 1.016,1.014 v 22.73 C 1.016,-0.455 0.562,0 0,0"
         style="fill:#00b900;fill-opacity:1;fill-rule:nonzero;stroke:none"
         id="path103"
         inkscape:connector-curvature="0" /></g><g
       id="g105"
       transform="translate(51.985321,70.152125)"><path
         d="m 0,0 h -9.942 v 18.051 c 0,0.561 -0.455,1.016 -1.015,1.016 h -3.66 c -0.561,0 -1.016,-0.455 -1.016,-1.016 V -4.675 -4.677 c 0,-0.273 0.109,-0.52 0.284,-0.702 0.004,-0.005 0.008,-0.01 0.014,-0.015 0.005,-0.005 0.01,-0.009 0.015,-0.014 0.183,-0.176 0.429,-0.284 0.702,-0.284 H -14.617 0 c 0.561,0 1.014,0.456 1.014,1.017 v 3.659 C 1.014,-0.455 0.561,0 0,0"
         style="fill:#00b900;fill-opacity:1;fill-rule:nonzero;stroke:none"
         id="path107"
         inkscape:connector-curvature="0" /></g><g
       id="g109"
       transform="translate(106.19662,83.527125)"><path
         d="M 0,0 C 0.561,0 1.014,0.454 1.014,1.016 V 4.675 C 1.014,5.236 0.561,5.692 0,5.692 h -14.617 -0.002 c -0.274,0 -0.521,-0.11 -0.704,-0.287 -0.004,-0.004 -0.009,-0.007 -0.012,-0.011 -0.006,-0.006 -0.011,-0.012 -0.016,-0.018 -0.174,-0.182 -0.282,-0.428 -0.282,-0.7 v -0.001 -22.726 -0.001 c 0,-0.273 0.109,-0.52 0.284,-0.702 0.004,-0.005 0.009,-0.011 0.014,-0.015 0.004,-0.005 0.01,-0.01 0.015,-0.014 0.182,-0.175 0.429,-0.284 0.701,-0.284 H -14.617 0 c 0.561,0 1.014,0.456 1.014,1.016 v 3.66 c 0,0.56 -0.453,1.016 -1.014,1.016 h -9.941 v 3.842 H 0 c 0.561,0 1.014,0.455 1.014,1.016 v 3.659 c 0,0.561 -0.453,1.017 -1.014,1.017 H -9.941 V 0 Z"
         style="fill:#00b900;fill-opacity:1;fill-rule:nonzero;stroke:none"
         id="path111"
         inkscape:connector-curvature="0" /></g></g></svg>