<svg height="191.03738" viewBox="0 0 191.03206 191.03739" width="191.03206" xmlns="http://www.w3.org/2000/svg"><path d="m0 0h-91.246c-14.327.019-26.093-11.583-26.114-25.914v-91.246c-.018-14.332 11.585-26.099 25.914-26.118h91.247c14.33-.018 26.091 11.583 26.113 25.917v91.247c.02 14.332-11.581 26.094-25.914 26.114" fill="#00b900" transform="matrix(1.3333333 0 0 -1.3333333 156.48002375467 .00003477593)"/><path d="m0 0c0 23.342-23.4 42.332-52.165 42.332-28.761 0-52.164-18.99-52.164-42.332 0-20.926 18.558-38.451 43.626-41.765 1.699-.366 4.011-1.12 4.596-2.572.526-1.319.344-3.385.168-4.717 0 0-.612-3.681-.744-4.465-.227-1.319-1.048-5.158 4.518-2.812 5.568 2.346 30.042 17.689 40.986 30.286h-.002c7.56 8.29 11.181 16.703 11.181 26.045" fill="#fff" transform="matrix(1.3333333 0 0 -1.3333333 164.75842354771 87.1188259313)"/><g fill="#00b900"><path d="m0 0h-3.659c-.561 0-1.017-.455-1.017-1.014v-22.73c0-.56.456-1.014 1.017-1.014h3.659c.561 0 1.016.454 1.016 1.014v22.73c0 .559-.455 1.014-1.016 1.014" transform="matrix(1.3333333 0 0 -1.3333333 81.07389363982 72.07935964062)"/><path d="m0 0h-3.659c-.561 0-1.016-.455-1.016-1.014v-13.504l-10.416 14.067c-.024.036-.051.07-.079.103l-.007.006c-.02.023-.04.043-.061.063-.006.006-.012.011-.019.017-.017.016-.035.031-.054.045-.008.008-.017.014-.026.021-.018.012-.035.025-.053.036-.01.007-.02.013-.031.018-.018.011-.036.022-.054.031-.011.005-.021.011-.032.015-.019.009-.038.018-.058.025-.012.004-.022.008-.033.012-.02.007-.04.014-.061.019-.011.004-.023.006-.035.01-.02.004-.039.009-.058.013-.014.002-.029.004-.043.005-.018.004-.036.005-.054.007-.017.002-.034.002-.052.003-.013 0-.023.002-.036.002h-3.658c-.561 0-1.017-.455-1.017-1.014v-22.73c0-.56.456-1.014 1.017-1.014h3.658c.562 0 1.017.454 1.017 1.014v13.5l10.429-14.085c.072-.102.161-.185.258-.251.003-.002.007-.005.01-.008.021-.013.042-.026.063-.038.01-.006.019-.01.029-.015.015-.009.032-.017.048-.024.017-.007.032-.014.05-.021.01-.004.02-.008.03-.011.024-.009.046-.016.069-.023.005 0 .01-.002.015-.003.083-.022.17-.035.26-.035h3.659c.562 0 1.016.454 1.016 1.014v22.73c0 .559-.454 1.014-1.016 1.014" transform="matrix(1.3333333 0 0 -1.3333333 114.65375946699 72.07935964062)"/><path d="m0 0h-9.942v18.051c0 .561-.455 1.016-1.015 1.016h-3.66c-.561 0-1.016-.455-1.016-1.016v-22.726-.002c0-.273.109-.52.284-.702.004-.005.008-.01.014-.015.005-.005.01-.009.015-.014.183-.176.429-.284.702-.284h.001 14.617c.561 0 1.014.456 1.014 1.017v3.659c0 .561-.453 1.016-1.014 1.016" transform="matrix(1.3333333 0 0 -1.3333333 69.31376060049 97.50122567174)"/><path d="m0 0c.561 0 1.014.454 1.014 1.016v3.659c0 .561-.453 1.017-1.014 1.017h-14.617-.002c-.274 0-.521-.11-.704-.287-.004-.004-.009-.007-.012-.011-.006-.006-.011-.012-.016-.018-.174-.182-.282-.428-.282-.7v-.001-22.726-.001c0-.273.109-.52.284-.702.004-.005.009-.011.014-.015.004-.005.01-.01.015-.014.182-.175.429-.284.701-.284h.002 14.617c.561 0 1.014.456 1.014 1.016v3.66c0 .56-.453 1.016-1.014 1.016h-9.941v3.842h9.941c.561 0 1.014.455 1.014 1.016v3.659c0 .561-.453 1.017-1.014 1.017h-9.941v3.841z" transform="matrix(1.3333333 0 0 -1.3333333 141.59549079345 79.66789278424)"/></g></svg>