<svg height="512" viewBox="0 0 512 512" width="512" xmlns="http://www.w3.org/2000/svg"><g transform="matrix(1.3333333 0 0 -1.3333333 0 512)"><path d="m133.344 144h-122.7151c-5.86406 0-10.6289-4.648-10.6289-10.377v-123.2339c0-5.73402 4.76484-10.3891 10.6289-10.3891h122.7151c5.875 0 10.66 4.65508 10.66 10.3891v123.2339c0 5.729-4.785 10.377-10.66 10.377" fill="#0977b6" transform="scale(2.6665927)"/><g fill="#fff"><path d="m85.422697 331.12148c18.206693 0 33.006283-14.79692 33.006283-33.00975 0-18.23149-14.79959-33.02948-33.006283-33.02948-18.254693 0-33.028417 14.79799-33.028417 33.02948 0 18.21283 14.773724 33.00975 33.028417 33.00975m-28.492009-91.08947h56.956822v-183.252252h-56.956822z"/><path d="m149.61265 240.03201h54.62328v-25.04117h.76372c7.60272 14.40893 26.18247 29.59704 53.88997 29.59704 57.67493 0 68.32264-37.95494 68.32264-87.28904v-100.519082h-56.91576v89.118332c0 21.24927-.39199 48.58292-29.59598 48.58292-29.63251 0-34.18225-23.1463-34.18225-47.04643v-90.654822h-56.90562z"/></g></g></svg>