<?xml version="1.0" encoding="UTF-8"?>
<!-- Generator: Adobe Illustrator 25.4.1, SVG Export Plug-In . SVG Version: 6.00 Build 0)  -->
<svg version="1.1" id="Layer_1" xmlns="http://www.w3.org/2000/svg" xmlns:xlink="http://www.w3.org/1999/xlink" x="0px" y="0px" viewBox="0 0 256 256" style="enable-background:new 0 0 256 256;" xml:space="preserve">
<style type="text/css">
	.st0{fill:#FFFFFF;}
	.st1{fill:#69B53F;}
	.st2{fill:#F8F8F8;}
</style>
<g>
	<circle class="st0" cx="128" cy="128" r="128"/>
	<circle class="st1" cx="128" cy="128" r="108"/>
	<path id="_x3C_Path_x3E_" class="st2" d="M58,63v90c0.1,22.1,17.9,39.9,40,40h60c22.1-0.1,39.9-17.9,40-40v-50   c-0.1-16.5-13.5-29.9-30-30c-7.4,0-14.5,2.8-20,7.9c-5.5-5-12.6-7.8-20-7.9c-16.5,0.1-29.9,13.5-30,30v50h20v-50   c0-5.5,4.5-10,10-10c5.5,0,10,4.5,10,10v50h20v-50c0-5.5,4.5-10,10-10s10,4.5,10,10v50c0.1,11-8.8,19.9-19.7,20c-0.1,0-0.2,0-0.3,0   H98c-11,0.1-19.9-8.8-20-19.7c0-0.1,0-0.2,0-0.3V63H58z"/>
</g>
</svg>