<?xml version="1.0" encoding="utf-8"?>
<!-- Generator: Adobe Illustrator 21.0.0, SVG Export Plug-In . SVG Version: 6.00 Build 0)  -->
<svg version="1.1" id="Layer_1" xmlns="http://www.w3.org/2000/svg" xmlns:xlink="http://www.w3.org/1999/xlink" x="0px" y="0px"
	 viewBox="0 0 1366 768" style="enable-background:new 0 0 1366 768;" xml:space="preserve">
<g>
	<g>
		<g>
			<g>
				<path d="M765.2,308.8c3-0.4,5.9-0.4,8.6,0c1.5-3.5,1.8-9.7,0.4-16.3c-2.1-9.9-4.9-15.9-10.6-14.9c-5.8,0.9-6,8.1-3.9,18
					C760.8,301.1,762.9,305.9,765.2,308.8z"/>
				<path d="M715.6,316.7c4.1,1.8,6.7,3,7.7,2c0.6-0.7,0.4-1.9-0.5-3.5c-2-3.3-6.2-6.7-10.7-8.6c-9.1-3.9-20-2.6-28.3,3.4
					c-2.8,2-5.4,4.8-5,6.5c0.1,0.6,0.5,1,1.5,1.1c2.3,0.3,10.2-3.8,19.4-4.3C706.1,312.8,711.4,314.9,715.6,316.7z"/>
				<path d="M707.3,321.4c-5.4,0.8-8.4,2.6-10.3,4.3c-1.6,1.4-2.6,3-2.6,4.1c0,0.5,0.2,0.8,0.4,1c0.2,0.2,0.5,0.3,0.9,0.3
					c1.2,0,3.9-1.1,3.9-1.1c7.5-2.7,12.4-2.4,17.3-1.8c2.7,0.3,4,0.5,4.6-0.5c0.2-0.3,0.4-0.8-0.2-1.7
					C720.1,324,714.7,320.5,707.3,321.4z"/>
				<ellipse transform="matrix(0.441 -0.8975 0.8975 0.441 119.9225 860.5483)" cx="750.8" cy="334" rx="5.4" ry="7.4"/>
				
					<ellipse transform="matrix(1.693795e-02 -0.9999 0.9999 1.693795e-02 433.0927 1091.8311)" cx="771.8" cy="325.7" rx="7.4" ry="5.4"/>
				<path d="M572.5,391.7c-0.7-0.9-2-0.6-3.1-0.4c-0.8,0.2-1.8,0.4-2.8,0.4c-2.2,0-4-1-5.1-2.6c-1.4-2.1-1.3-5.2,0.2-8.7
					c0.2-0.5,0.4-1,0.7-1.6c2.4-5.3,6.4-14.3,1.9-22.8c-3.4-6.4-8.9-10.4-15.5-11.2c-6.3-0.8-12.9,1.5-17,6.1
					c-6.6,7.2-7.6,17.1-6.3,20.6c0.5,1.3,1.2,1.6,1.7,1.7c1.1,0.2,2.8-0.7,3.8-3.4c0.1-0.2,0.2-0.5,0.3-0.9c0.5-1.5,1.3-4.2,2.7-6.4
					c1.7-2.7,4.3-4.5,7.4-5.1c3.2-0.7,6.4-0.1,9.1,1.7c4.6,3,6.4,8.7,4.4,14c-1,2.8-2.7,8.1-2.3,12.5c0.7,8.8,6.2,12.4,11.1,12.8
					c4.8,0.2,8.1-2.5,8.9-4.4C573.1,392.7,572.7,392,572.5,391.7z"/>
				<path d="M846.8,375.5c-0.2-0.6-1.4-4.9-3-10.1s-3.3-8.8-3.3-8.8c6.5-9.7,6.6-18.4,5.7-23.4c-0.9-6.1-3.5-11.3-8.6-16.7
					c-5.1-5.4-15.6-10.9-30.3-15c-1.7-0.5-7.2-2-7.7-2.1c0-0.3-0.4-18.2-0.7-25.9c-0.2-5.6-0.7-14.2-3.4-22.8
					c-3.2-11.6-8.8-21.7-15.8-28.2c19.2-20,31.3-41.9,31.2-60.8c-0.1-36.3-44.6-47.2-99.5-24.5c-0.1,0-11.5,4.9-11.6,4.9
					c-0.1-0.1-21-20.6-21.3-20.9C616,66.7,420.4,284.1,482.9,336.9l13.7,11.6c-3.5,9.2-4.9,19.7-3.8,31c1.5,14.5,9,28.5,21.1,39.2
					c11.5,10.2,26.7,16.7,41.4,16.7c24.3,56.1,79.9,90.5,145.1,92.4c69.9,2.1,128.7-30.7,153.3-89.7c1.6-4.1,8.4-22.8,8.4-39.2
					C862.1,382.4,852.8,375.5,846.8,375.5z M560.7,419.7c-2.1,0.4-4.3,0.5-6.5,0.5c-21.1-0.6-43.9-19.6-46.2-42.1
					c-2.5-24.9,10.2-44.1,32.8-48.7c2.7-0.5,6-0.9,9.5-0.7c12.6,0.7,31.3,10.4,35.5,37.9C589.5,391,583.5,415.8,560.7,419.7z
					 M537.1,314.4c-14,2.7-26.4,10.7-34,21.7c-4.5-3.8-12.9-11.1-14.4-13.9c-12.1-22.9,13.2-67.5,30.8-92.7
					c43.6-62.2,111.9-109.4,143.6-100.8c5.1,1.5,22.2,21.2,22.2,21.2s-31.6,17.5-60.9,42C584.8,222.3,555,266.5,537.1,314.4z
					 M758.8,410.4c0.5-0.2,0.8-0.7,0.7-1.2c-0.1-0.6-0.6-1.1-1.3-1c0,0-33.1,4.9-64.4-6.5c3.4-11.1,12.5-7.1,26.1-6
					c24.7,1.5,46.8-2.1,63.1-6.8c14.2-4.1,32.8-12.1,47.2-23.5c4.9,10.7,6.6,22.5,6.6,22.5s3.8-0.7,6.9,1.3c3,1.8,5.2,5.6,3.7,15.5
					c-3,18.4-10.9,33.3-24,47.1c-8,8.6-17.7,16.1-28.8,21.5c-5.9,3.1-12.2,5.8-18.8,8c-49.6,16.2-100.3-1.6-116.6-39.8
					c-1.3-2.9-2.4-5.9-3.3-9c-7-25.2-1.1-55.4,17.4-74.4c0,0,0,0,0,0c1.1-1.2,2.3-2.6,2.3-4.4c0-1.5-1-3.1-1.8-4.2
					c-6.5-9.4-28.9-25.4-24.4-56.3c3.2-22.2,22.7-37.9,40.8-37c1.5,0.1,3.1,0.2,4.6,0.3c7.9,0.5,14.7,1.5,21.2,1.7
					c10.8,0.5,20.6-1.1,32.1-10.7c3.9-3.2,7-6,12.3-6.9c0.6-0.1,1.9-0.6,4.7-0.5c2.8,0.1,5.5,0.9,7.9,2.5c9.2,6.1,10.6,21,11,31.9
					c0.3,6.2,1,21.3,1.3,25.6c0.6,9.9,3.2,11.3,8.4,13c3,1,5.7,1.7,9.7,2.8c12.2,3.4,19.5,6.9,24.1,11.4c2.7,2.8,4,5.8,4.4,8.6
					c1.4,10.5-8.2,23.5-33.6,35.3c-27.8,12.9-61.6,16.2-84.9,13.6c-1.8-0.2-8.1-0.9-8.2-0.9c-18.6-2.5-29.3,21.6-18.1,38.1
					c7.2,10.6,26.9,17.6,46.5,17.6c45.1,0,79.7-19.2,92.6-35.9c0.4-0.5,0.4-0.6,1-1.5c0.6-1,0.1-1.5-0.7-0.9
					c-10.5,7.2-57.3,35.8-107.3,27.2c0,0-6.1-1-11.6-3.2c-4.4-1.7-13.6-6-14.8-15.4C733.4,422.2,758.8,410.4,758.8,410.4z
					 M694.9,402.8C694.9,402.8,694.9,402.8,694.9,402.8C694.9,402.8,694.9,402.8,694.9,402.8C694.9,402.8,694.9,402.8,694.9,402.8z
					 M617.7,229.2c15.5-17.9,34.6-33.5,51.7-42.2c0.6-0.3,1.2,0.3,0.9,0.9c-1.4,2.5-4,7.7-4.8,11.7c-0.1,0.6,0.5,1.1,1.1,0.7
					c10.6-7.3,29.1-15,45.4-16c0.7,0,1,0.9,0.5,1.3c-2.5,1.9-5.2,4.5-7.1,7.2c-0.3,0.5,0,1.1,0.5,1.1c11.4,0.1,27.5,4.1,37.9,9.9
					c0.7,0.4,0.2,1.8-0.6,1.6c-15.8-3.6-41.8-6.4-68.7,0.2c-24.1,5.9-42.4,14.9-55.8,24.7C617.9,230.7,617.1,229.8,617.7,229.2z"/>
			</g>
		</g>
	</g>
	<g>
		<path d="M528.2,592.8c-7.7,0-11.5,6.1-13.3,10c-1,2.2-1.2,3.9-2,3.9c-1.1,0-0.3-1.5-1.2-4.8c-1.2-4.4-4.8-9-12.5-9
			c-8.1,0-11.6,6.8-13.2,10.6c-1.1,2.6-1.1,3.3-2,3.3c-1.3,0-0.2-2,0.3-4.4c1.1-4.7,0.3-8.3,0.3-8.3h-12.8v48.2h17.5
			c0,0,0-20.1,0-24c0-4.7,2-10.7,5.4-10.7c3.9,0,4.7,3,4.7,8.6c0,5.1,0,26.1,0,26.1h17.6c0,0,0-20.3,0-24c0-4.2,1.7-10.7,5.4-10.7
			c4,0,4.7,4.2,4.7,8.6s0,26.1,0,26.1h17.3c0,0,0-19.1,0-28.3C544.2,601.2,539.8,592.8,528.2,592.8z"/>
		<path d="M825.2,592.8c-7.7,0-11.5,6.1-13.3,10c-1,2.2-1.2,3.9-2,3.9c-1.1,0-0.4-1.9-1.2-4.8c-1.3-4.4-4.5-9-12.5-9
			c-8.1,0-11.6,6.8-13.2,10.6c-1.1,2.6-1.1,3.3-2,3.3c-1.3,0-0.2-2,0.3-4.4c1.1-4.7,0.3-8.3,0.3-8.3h-12.8v48.2h17.5
			c0,0,0-20.1,0-24c0-4.7,2-10.7,5.4-10.7c3.9,0,4.7,3,4.7,8.6c0,5.1,0,26.1,0,26.1h17.6c0,0,0-20.3,0-24c0-4.2,1.7-10.7,5.4-10.7
			c4,0,4.7,4.2,4.7,8.6s0,26.1,0,26.1h17.3c0,0,0-19.1,0-28.3C841.3,601.2,836.8,592.8,825.2,592.8z"/>
		<path d="M574.1,592.8c-13.4,0-23,4.9-23,4.9v14.5c0,0,10.6-6.1,19.2-6.1c6.9,0,7.7,3.7,7.4,6.8c0,0-2-0.5-8-0.5
			c-14.3,0-21.5,6.5-21.5,16.9c0,9.9,8.1,14,14.9,14c9.9,0,14.3-6.7,15.7-9.9c0.9-2.2,1.1-3.7,1.9-3.7c1,0,0.6,1.1,0.6,3.3
			c-0.1,3.8,0.1,6.7,0.7,9.2h13.2v-23.7C595.2,603.6,590,592.8,574.1,592.8z M569.8,630.9c-4.2,1-6.4-0.3-6.4-3.1
			c0-3.8,3.9-5.3,9.5-5.3c2.5,0,4.8,0.2,4.8,0.2C577.8,624.3,574.3,629.8,569.8,630.9z"/>
		<rect x="624" y="579.3" width="17.5" height="62.8"/>
		<path d="M660.8,618c0-4.3,4-8.3,11.4-8.3c8.1,0,14.5,3.9,16,4.8v-16.8c0,0-5.1-4.9-17.7-4.9c-13.3,0-24.3,7.8-24.3,24.5
			c0,16.7,10,26,24.3,26c11.1,0,17.8-6.1,17.8-6.1v-15.9c-2.1,1.2-7.9,5.2-15.9,5.2C663.9,626.5,660.8,622.6,660.8,618z"/>
		<path d="M723.7,592.8c-10.1,0-14,9.6-14.8,11.3c-0.8,1.7-1.2,2.6-1.8,2.6c-1.1,0-0.3-2,0.1-3.3c0.8-2.5,2.5-8.9,2.5-16.8
			c0-5.4-0.7-7.2-0.7-7.2h-15.1v62.8h17.5c0,0,0-20.1,0-24c0-3.9,1.6-10.7,6-10.7c3.7,0,4.8,2.7,4.8,8.2c0,5.4,0,26.6,0,26.6h17.5
			c0,0,0-14.7,0-25.5C739.7,604.3,737.6,592.8,723.7,592.8z"/>
		<path d="M745.4,594v48.2h17.5V594c0,0-2.9,1.7-8.7,1.7S745.4,594,745.4,594z"/>
		<ellipse cx="754.1" cy="585.8" rx="10.7" ry="7"/>
		<path d="M600.9,594v48.2h17.5V594c0,0-2.9,1.7-8.7,1.7C603.9,595.7,600.9,594,600.9,594z"/>
		<ellipse cx="609.6" cy="585.8" rx="10.7" ry="7"/>
		<path d="M876,592.8c-9,0-13.1,6.7-14.9,10.6c-1.2,2.5-1.1,3.3-2,3.3c-1.3,0-0.2-2,0.3-4.4c1.1-4.7,0.3-8.3,0.3-8.3h-12.8v61.5
			h17.5c0,0,0-10.1,0-19.5c2.1,3.5,5.9,7.3,11.8,7.3c12.7,0,19-10.7,19-25.2C895.3,601.6,887.6,592.8,876,592.8z M871.2,631.8
			c-4,0-7-5.1-7-12.2c0-6.9,3-12.2,6.8-12.2c4.9,0,6.9,4.5,6.9,12.2C878,627.6,876.1,631.8,871.2,631.8z"/>
	</g>
</g>
</svg>
