<svg width="745" height="213" viewBox="0 0 745 213" fill="none" xmlns="http://www.w3.org/2000/svg">
<path d="M159.852 52.304C145.752 38.204 130.69 47.33 121.264 56.756L32.22 145.803C22.794 155.228 12.928 169.549 27.768 184.387C42.608 199.23 56.929 189.362 66.353 179.936L155.399 90.891C164.825 81.464 173.951 66.402 159.852 52.304Z" fill="#FC5656"/>
<path d="M74.78 48.657L93.635 67.511L112.827 48.319C114.13 47.013 115.453 45.801 116.784 44.658C114.774 34.518 108.988 25.351 93.626 25.351C78.235 25.351 72.456 34.554 70.457 44.716C71.894 45.959 73.328 47.205 74.78 48.657Z" fill="#FC5656"/>
<path d="M112.816 188.71L93.636 169.529L74.791 188.372C73.36 189.804 71.936 191.112 70.518 192.341C72.679 202.678 78.795 212.146 93.628 212.146C108.5 212.146 114.608 202.627 116.755 192.257C115.436 191.122 114.116 190.009 112.816 188.71Z" fill="#FC5656"/>
<path d="M66.783 94.364H30.433C17.105 94.364 0 98.563 0 118.501C0 133.378 9.522 139.487 19.894 141.633C21.122 140.215 66.783 94.364 66.783 94.364Z" fill="#FC5656"/>
<path d="M167.435 95.332C166.285 96.67 120.528 142.637 120.528 142.637H156.362C169.691 142.637 186.795 139.488 186.795 118.501C186.795 103.112 177.595 97.33 167.435 95.332Z" fill="#FC5656"/>
<path d="M78.693 82.432L85.187 75.938L66.344 57.092C56.917 47.667 42.598 37.8 27.758 52.64C16.876 63.522 19.293 74.113 25.065 82.711C26.823 82.581 78.693 82.432 78.693 82.432Z" fill="#FC5656"/>
<path d="M108.571 154.569L102.06 161.08L121.254 180.272C130.68 189.699 145.742 198.823 159.84 184.725C170.36 174.204 167.946 163.154 162.13 154.302C160.258 154.437 108.571 154.569 108.571 154.569Z" fill="#FC5656"/>
<path d="M560.612 56.612C557.393 56.612 551.759 57.417 545.586 60.1C537.538 63.588 533.245 66.271 531.099 69.758C523.049 60.369 512.585 57.417 500.78 57.417C466.168 57.417 441.485 86.662 441.485 128.248C441.485 163.128 460.266 188.885 486.828 188.885C494.876 188.885 502.121 185.664 510.708 177.617C517.414 171.445 520.635 167.422 520.635 163.665C520.635 160.981 518.757 159.103 516.073 159.103C512.316 159.103 508.292 162.322 503.194 162.322C492.193 162.322 484.68 145.418 484.68 120.466C484.68 95.515 494.607 78.612 509.632 78.612C519.559 78.612 527.072 86.123 527.072 99.003V177.348C527.072 185.932 535.12 188.347 549.877 188.347C564.367 188.347 570 185.664 570 177.348V65.199C570.003 59.831 566.515 56.612 560.612 56.612Z" fill="#FC5656"/>
<path d="M395.071 56.612C384.607 56.612 373.607 60.369 363.946 67.881C358.581 72.174 354.019 77.003 354.019 81.028C354.019 84.515 356.433 86.393 359.922 86.393C365.826 86.393 367.704 83.979 373.338 83.979C378.972 83.979 381.655 89.345 381.655 98.736V177.35C381.655 185.934 389.705 188.349 404.46 188.349C418.949 188.349 424.583 185.666 424.583 177.35V91.223C424.583 70.831 412.51 56.612 395.071 56.612Z" fill="#FC5656"/>
<path d="M319.677 56.612C308.677 56.612 298.749 60.369 289.091 67.881C283.725 72.174 279.164 77.003 279.164 81.028C279.164 84.515 281.577 86.393 285.067 86.393C290.968 86.393 292.848 83.979 297.946 83.979C303.044 83.979 305.727 89.345 305.727 98.736V177.35C305.727 185.934 313.775 188.349 328.531 188.349C343.021 188.349 348.654 185.666 348.654 177.35V91.223C348.653 70.831 336.579 56.612 319.677 56.612Z" fill="#FC5656"/>
<path d="M263.333 56.612C259.309 56.612 254.48 57.417 248.307 60.1C234.892 66.003 229.795 69.758 229.795 78.076V177.349C229.795 185.933 237.843 188.348 252.6 188.348C267.089 188.348 272.723 185.665 272.723 177.349V65.199C272.724 59.831 269.236 56.612 263.333 56.612Z" fill="#FC5656"/>
<path d="M735.278 152.127C724.545 154.81 721.327 155.615 717.569 155.615C713.009 155.615 711.398 154.273 711.398 149.444V82.368H735.815C742.254 82.368 744.668 79.954 744.668 73.515C744.668 68.149 742.254 65.464 735.815 65.464H711.398V39.439C711.398 31.389 708.717 28.17 703.081 28.17C697.716 28.17 690.202 33 674.105 46.684C657.74 60.636 648.347 69.758 648.347 76.197C648.347 79.954 651.032 82.368 655.324 82.368H668.471V154.81C668.471 176.007 678.934 188.348 697.179 188.348C709.253 188.348 718.107 183.786 728.571 175.738C738.23 168.225 744.4 162.322 744.4 157.226C744.4 152.933 741.181 150.517 735.278 152.127Z" fill="#FC5656"/>
<path d="M626.616 0C624.47 0 617.763 0.805 611.59 3.488C598.174 9.122 593.078 13.146 593.078 21.464V177.348C593.078 185.935 601.126 188.349 615.883 188.349C630.373 188.349 636.005 185.666 636.005 177.348V8.586C636.005 3.219 632.518 0 626.616 0Z" fill="#FC5656"/>
</svg>
