<svg xmlns="http://www.w3.org/2000/svg" xml:space="preserve" viewBox="0 0 512 512">
  <linearGradient id="a" x1="254" x2="254" y1="426.534" y2="85.466" gradientTransform="matrix(1 0 0 -1 2 512)" gradientUnits="userSpaceOnUse">
    <stop offset="0" stop-color="#6364ff"/>
    <stop offset="1" stop-color="#563acc"/>
  </linearGradient>
  <path fill="url(#a)" d="M414.7 161c-4.9-36.6-36.9-65.5-74.7-71.1-6.4-.9-30.6-4.4-86.7-4.4h-.4c-56.1 0-68.1 3.4-74.5 4.4-36.8 5.4-70.4 31.4-78.6 68.5-3.9 18.3-4.3 38.5-3.6 57.1 1 26.6 1.2 53.2 3.7 79.7 1.7 17.6 4.6 35.1 8.7 52.3 7.8 31.8 39.1 58.2 69.9 69 32.9 11.3 68.3 13.1 102.2 5.4 3.7-.9 7.4-1.9 11.1-3 8.2-2.6 17.9-5.5 25-10.7.1-.1.2-.2.2-.3.1-.1.1-.2.1-.3v-25.7c0-.1 0-.2-.1-.3-.1-.1-.1-.2-.2-.3s-.2-.1-.3-.1h-.3c-21.7 5.2-44 7.8-66.3 7.8-38.5 0-48.8-18.2-51.8-25.8-2.4-6.6-3.9-13.4-4.5-20.4 0-.1 0-.2.1-.3 0-.1.1-.2.2-.3.1-.1.2-.1.3-.2h.3c21.4 5.2 43.3 7.8 65.3 7.8 5.3 0 10.6 0 15.8-.1 22.1-.6 45.4-1.8 67.2-6 .5-.1 1.1-.2 1.6-.3 34.3-6.6 67-27.3 70.3-79.6.1-2.1.4-21.6.4-23.7 0-7.6 2.3-51.9-.4-79.1z"/>
  <path fill="#fff" d="M360.4 202.1v91h-36.1v-88.4c0-18.6-7.8-28.1-23.5-28.1-17.3 0-26 11.2-26 33.4v48.4h-35.9V210c0-22.2-8.7-33.4-26-33.4-15.7 0-23.5 9.5-23.5 28.1v88.4h-36.1v-91c0-18.6 4.7-33.4 14.2-44.3 9.8-10.9 22.7-16.5 38.6-16.5 18.5 0 32.4 7.1 41.7 21.3l9 15.1 9-15.1c9.3-14.2 23.3-21.3 41.7-21.3 15.9 0 28.8 5.6 38.6 16.5 9.6 11 14.3 25.7 14.3 44.3z"/>
</svg>
