<svg xmlns="http://www.w3.org/2000/svg" width="222" height="222" viewBox="0 0 222 222">
	<defs>
		<linearGradient id="gradient" gradientUnits="userSpaceOnUse" x1="0" x2="222" y1="222" y2="0">
			<stop offset="0%" stop-color="#0a00b2"/>
			<stop offset="50%" stop-color="#ff0000"/>
			<stop offset="100%" stop-color="#fffc00"/>
		</linearGradient>
		<style>
			.petal {
				opacity: 0.65;
			}
			.petals {
				fill: url(#gradient);
			}
		</style>
	</defs>
	<g id="petals" class="petals">
		<path class="petal" d="M80.283,29.02c-0.648,8.246.645,16.05,5.16,23.1a23.04,23.04,0,0,0,13.04,9.63,5.672,5.672,0,0,0,4.719-1.153c6.093-5.8,9.031-12.89,8-21.625-1.829-15.522-11.06-26.108-22.808-36.2C83.826,11.538,81,19.917,80.283,29.02Z"/>
		<path class="petal" d="M63.913,37.254c1.081,8.2,3.967,15.565,9.849,21.519a23.04,23.04,0,0,0,14.757,6.709,5.671,5.671,0,0,0,4.376-2.109c4.754-6.944,6.154-14.486,3.331-22.816C91.21,25.753,79.98,17.318,66.39,9.888,63.743,19.417,62.719,28.2,63.913,37.254Z"/>
		<path class="petal" d="M49.611,48.711c2.762,7.8,7.117,14.4,14.108,19a23.04,23.04,0,0,0,15.83,3.494,5.671,5.671,0,0,0,3.841-2.973c3.206-7.78,3.008-15.449-1.485-23.01C73.921,31.786,61.183,25.87,46.345,21.429,45.737,31.3,46.561,40.1,49.611,48.711Z"/>
		<path class="petal" d="M38,62.891c4.323,7.052,9.955,12.605,17.75,15.653a23.04,23.04,0,0,0,16.21.126A5.671,5.671,0,0,0,75.1,74.963c1.519-8.277-.27-15.737-6.237-22.2-10.6-11.483-24.293-14.621-39.73-15.881C30.595,46.666,33.232,55.107,38,62.891Z"/>
		<path class="petal" d="M29.6,79.174c5.694,6,12.359,10.26,20.617,11.62A23.039,23.039,0,0,0,66.1,87.548a5.671,5.671,0,0,0,2.3-4.278c-0.235-8.412-3.536-15.337-10.716-20.416-12.759-9.028-26.8-9.251-42.164-7.274C18.979,64.844,23.313,72.552,29.6,79.174Z"/>
		<path class="petal" d="M24.764,96.849c6.817,4.684,14.222,7.467,22.582,7.08a23.036,23.036,0,0,0,14.86-6.478,5.671,5.671,0,0,0,1.36-4.663C61.588,84.609,56.92,78.522,48.84,75.046,34.483,68.868,20.7,71.57,6.086,76.7,11.4,85.041,17.238,91.679,24.764,96.849Z"/>
		<path class="petal" d="M23.709,115.144c7.642,3.164,15.463,4.346,23.561,2.23a23.043,23.043,0,0,0,13.189-9.426,5.671,5.671,0,0,0,.361-4.844c-3.636-7.589-9.468-12.573-18.094-14.293-15.328-3.058-28.248,2.45-41.477,10.5C8.178,106.373,15.273,111.651,23.709,115.144Z"/>
		<path class="petal" d="M26.481,133.257c8.133,1.506,16.029,1.037,23.509-2.717a23.041,23.041,0,0,0,10.941-11.962,5.67,5.67,0,0,0-.654-4.813c-5.135-6.667-11.876-10.33-20.67-10.219-15.629.2-27.121,8.27-38.387,18.9C9.465,127.907,17.5,131.6,26.481,133.257Z"/>
		<path class="petal" d="M32.958,150.4c8.268-.218,15.894-2.319,22.431-7.546A23.037,23.037,0,0,0,63.6,128.878a5.67,5.67,0,0,0-1.64-4.572c-6.409-5.454-13.764-7.635-22.343-5.7C24.374,122.049,14.811,132.336,6,145.075,15.2,148.7,23.83,150.64,32.958,150.4Z"/>
		<path class="petal" d="M42.857,165.82c8.042-1.933,15.065-5.573,20.372-12.045A23.039,23.039,0,0,0,68.358,138.4a5.672,5.672,0,0,0-2.555-4.131c-7.4-4-15.05-4.606-23.039-.928-14.2,6.536-21.413,18.586-27.381,32.878C25.137,167.853,33.979,167.953,42.857,165.82Z"/>
		<path class="petal" d="M55.747,178.845c7.465-3.562,13.577-8.583,17.422-16.017a23.039,23.039,0,0,0,1.82-16.108,5.671,5.671,0,0,0-3.358-3.51c-8.073-2.375-15.679-1.376-22.728,3.883-12.529,9.344-17.08,22.631-19.947,37.852C38.836,184.518,47.506,182.778,55.747,178.845Z"/>
		<path class="petal" d="M71.062,188.906c6.561-5.036,11.5-11.219,13.712-19.289a23.04,23.04,0,0,0-1.569-16.135,5.67,5.67,0,0,0-4.014-2.735c-8.39-.645-15.623,1.914-21.425,8.523-10.312,11.746-12,25.689-11.641,41.173C55.7,197.971,63.82,194.466,71.062,188.906Z"/>
		<path class="petal" d="M88.135,195.562c5.371-6.29,8.912-13.363,9.4-21.718a23.039,23.039,0,0,0-4.889-15.456,5.668,5.668,0,0,0-4.5-1.84c-8.341,1.113-14.883,5.119-19.184,12.791-7.644,13.633-6.4,27.622-2.826,42.693C74.994,207.623,82.207,202.507,88.135,195.562Z"/>
		<path class="petal" d="M106.219,198.524c3.945-7.27,5.939-14.924,4.68-23.2a23.038,23.038,0,0,0-8-14.1,5.674,5.674,0,0,0-4.78-.866c-7.927,2.823-13.494,8.1-16.106,16.5-4.643,14.924-.516,28.349,6.112,42.348C95.872,213.053,101.864,206.549,106.219,198.524Z"/>
		<path class="petal" d="M124.523,197.661c2.348-7.931,2.706-15.833-.245-23.665a23.042,23.042,0,0,0-10.753-12.131,5.671,5.671,0,0,0-4.855.147c-7.167,4.41-11.514,10.731-12.323,19.489-1.439,15.563,5.389,27.837,14.783,40.152C117.424,214.024,121.932,206.416,124.523,197.661Z"/>
		<path class="petal" d="M142.248,193.011c0.648-8.246-.645-16.049-5.16-23.1a23.038,23.038,0,0,0-13.04-9.631,5.67,5.67,0,0,0-4.719,1.154c-6.093,5.8-9.031,12.89-8,21.624,1.829,15.523,11.06,26.108,22.808,36.2C138.706,210.493,141.534,202.114,142.248,193.011Z"/>
		<path class="petal" d="M158.619,184.778c-1.081-8.2-3.968-15.565-9.849-21.519a23.043,23.043,0,0,0-14.758-6.709,5.669,5.669,0,0,0-4.375,2.109c-4.754,6.944-6.155,14.486-3.331,22.816,5.015,14.8,16.245,23.238,29.835,30.668C158.789,202.614,159.813,193.83,158.619,184.778Z"/>
		<path class="petal" d="M172.92,173.321c-2.762-7.8-7.117-14.4-14.108-19a23.04,23.04,0,0,0-15.83-3.494,5.668,5.668,0,0,0-3.841,2.972c-3.207,7.781-3.008,15.45,1.485,23.01,7.984,13.437,20.723,19.353,35.56,23.8C176.794,190.732,175.97,181.927,172.92,173.321Z"/>
		<path class="petal" d="M184.527,159.14c-4.323-7.051-9.956-12.6-17.751-15.652a23.039,23.039,0,0,0-16.21-.127,5.672,5.672,0,0,0-3.139,3.707c-1.519,8.277.27,15.737,6.237,22.2,10.6,11.483,24.293,14.622,39.73,15.881C191.936,175.366,189.3,166.925,184.527,159.14Z"/>
		<path class="petal" d="M192.931,142.857c-5.694-6-12.358-10.26-20.616-11.62a23.04,23.04,0,0,0-15.883,3.247,5.669,5.669,0,0,0-2.3,4.278c0.236,8.412,3.536,15.337,10.716,20.416,12.759,9.028,26.8,9.251,42.164,7.274C203.553,157.187,199.218,149.479,192.931,142.857Z"/>
		<path class="petal" d="M197.767,125.182c-6.817-4.684-14.222-7.467-22.582-7.08a23.039,23.039,0,0,0-14.86,6.478,5.671,5.671,0,0,0-1.361,4.663c1.979,8.179,6.648,14.267,14.727,17.742,14.357,6.178,28.14,3.477,42.755-1.651C211.135,136.99,205.293,130.352,197.767,125.182Z"/>
		<path class="petal" d="M198.822,106.888c-7.642-3.164-15.463-4.347-23.561-2.23a23.031,23.031,0,0,0-13.188,9.426,5.668,5.668,0,0,0-.361,4.844c3.636,7.588,9.468,12.573,18.093,14.292,15.328,3.058,28.248-2.45,41.477-10.5C214.354,115.659,207.259,110.38,198.822,106.888Z"/>
		<path class="petal" d="M196.05,88.774c-8.132-1.506-16.028-1.036-23.509,2.717A23.04,23.04,0,0,0,161.6,103.453a5.673,5.673,0,0,0,.654,4.814c5.135,6.666,11.876,10.329,20.67,10.218,15.629-.2,27.121-8.27,38.387-18.9C213.066,94.124,205.029,90.436,196.05,88.774Z"/>
		<path class="petal" d="M189.573,71.632c-8.268.218-15.894,2.319-22.43,7.546a23.039,23.039,0,0,0-8.215,13.975,5.673,5.673,0,0,0,1.64,4.572c6.409,5.454,13.764,7.635,22.343,5.7C198.157,99.982,207.72,89.7,216.53,76.956,207.33,73.328,198.7,71.391,189.573,71.632Z"/>
		<path class="petal" d="M179.674,56.212c-8.042,1.932-15.065,5.573-20.372,12.045a23.036,23.036,0,0,0-5.129,15.378,5.671,5.671,0,0,0,2.555,4.131c7.4,4,15.05,4.606,23.039.928,14.2-6.536,21.413-18.586,27.381-32.878C197.4,54.178,188.552,54.078,179.674,56.212Z"/>
		<path class="petal" d="M166.785,43.186c-7.465,3.562-13.577,8.583-17.423,16.017a23.039,23.039,0,0,0-1.82,16.108,5.672,5.672,0,0,0,3.358,3.51c8.073,2.376,15.679,1.376,22.729-3.883,12.528-9.345,17.08-22.632,19.947-37.853C183.7,37.513,175.025,39.254,166.785,43.186Z"/>
		<path class="petal" d="M151.469,33.126c-6.561,5.036-11.5,11.218-13.712,19.289a23.046,23.046,0,0,0,1.569,16.135,5.673,5.673,0,0,0,4.015,2.735c8.39,0.645,15.622-1.913,21.424-8.523,10.312-11.745,12-25.688,11.641-41.173C166.831,24.06,158.712,27.565,151.469,33.126Z"/>
		<path class="petal" d="M134.4,26.469c-5.371,6.29-8.912,13.363-9.4,21.718a23.041,23.041,0,0,0,4.889,15.456,5.671,5.671,0,0,0,4.5,1.84c8.341-1.113,14.883-5.12,19.185-12.791,7.644-13.633,6.4-27.622,2.826-42.693C147.537,14.408,140.325,19.524,134.4,26.469Z"/>
		<path class="petal" d="M116.312,23.507c-3.945,7.27-5.939,14.924-4.68,23.2a23.035,23.035,0,0,0,8,14.1,5.67,5.67,0,0,0,4.779.866c7.928-2.823,13.494-8.1,16.106-16.5,4.643-14.924.516-28.349-6.112-42.348C126.659,8.978,120.667,15.482,116.312,23.507Z"/>
		<path class="petal" d="M98.008,24.37C95.66,32.3,95.3,40.2,98.253,48.035a23.041,23.041,0,0,0,10.753,12.131,5.671,5.671,0,0,0,4.855-.147c7.167-4.41,11.515-10.731,12.323-19.489C127.623,24.967,120.8,12.694,111.4.379,105.108,8.007,100.6,15.615,98.008,24.37Z"/>
	</g>
</svg>
