<svg height="195" viewBox="0 0 195 195" width="195" xmlns="http://www.w3.org/2000/svg"><g fill="none"><path d="m0 0h195v195h-195z" fill="#12100e"/><path d="m46.5340803 65.2157554c.1627575-1.6080982-.4504803-3.1975244-1.6512605-4.2798354l-12.2315593-14.7348618v-2.2010582h37.9789916l29.3557423 64.380952 25.8085906-64.380952h36.205415v2.2010582l-10.457983 10.0270429c-.901593.6872466-1.348829 1.8167851-1.161998 2.9347443v73.6743096c-.186831 1.117959.260405 2.247497 1.161998 2.934744l10.213352 10.027043v2.201058h-51.372549v-2.201058l10.580299-10.271605c1.039682-1.039389 1.039682-1.345091 1.039682-2.934744v-59.5508528l-29.4169 74.7136978h-3.9752567l-34.2483661-74.7136978v50.0740738c-.2855504 2.105255.4136417 4.224786 1.8958917 5.747208l13.7605042 16.691358v2.201058h-39.0186741v-2.201058l13.7605042-16.691358c1.4714579-1.524946 2.1298796-3.658537 1.7735761-5.747208z" fill="#fff"/></g></svg>