<?xml version="1.0" encoding="UTF-8" standalone="no"?>
<!-- Generator: Adobe Illustrator 15.0.0, SVG Export Plug-In . SVG Version: 6.00 Build 0)  -->
<svg xmlns:dc="http://purl.org/dc/elements/1.1/" xmlns:cc="http://creativecommons.org/ns#" xmlns:rdf="http://www.w3.org/1999/02/22-rdf-syntax-ns#" xmlns:svg="http://www.w3.org/2000/svg" xmlns="http://www.w3.org/2000/svg" xmlns:sodipodi="http://sodipodi.sourceforge.net/DTD/sodipodi-0.dtd" xmlns:inkscape="http://www.inkscape.org/namespaces/inkscape" version="1.1" id="Layer_1" x="0px" y="0px" width="510.01672" height="104.31332" viewBox="0 0 510.01672 104.31332" xml:space="preserve">
<g id="g7" transform="matrix(3.9178712,0,0,3.9178712,-13.481395,-41.384474)">
	<path d="m 47.707,34.016 c -2.78,0 -5.006,-0.916 -6.679,-2.748 -1.673,-1.832 -2.509,-4.215 -2.509,-7.15 0,-3.153 0.852,-5.669 2.557,-7.547 1.704,-1.877 4.024,-2.816 6.959,-2.816 2.707,0 4.888,0.912 6.542,2.734 1.654,1.823 2.481,4.207 2.481,7.15 0,3.199 -0.848,5.728 -2.543,7.587 -1.695,1.859 -3.965,2.79 -6.808,2.79 z m 0.164,-18.183 c -2.06,0 -3.732,0.743 -5.018,2.229 -1.285,1.486 -1.928,3.437 -1.928,5.852 0,2.416 0.626,4.359 1.88,5.832 1.253,1.472 2.887,2.207 4.901,2.207 2.151,0 3.846,-0.701 5.086,-2.105 1.239,-1.402 1.859,-3.367 1.859,-5.892 0,-2.588 -0.602,-4.589 -1.805,-6.002 -1.202,-1.415 -2.861,-2.121 -4.975,-2.121 z" id="path9" inkscape:connector-curvature="0" style="fill:#0072c6"/>
	<path d="m 71.233,33.688 h -2.242 v -2.215 h -0.055 c -0.93,1.695 -2.37,2.543 -4.32,2.543 -3.336,0 -5.004,-1.986 -5.004,-5.961 v -8.367 h 2.229 v 8.011 c 0,2.953 1.13,4.43 3.391,4.43 1.094,0 1.994,-0.402 2.7,-1.209 0.706,-0.807 1.06,-1.861 1.06,-3.166 v -8.066 h 2.242 v 14 z" id="path11" inkscape:connector-curvature="0" style="fill:#0072c6"/>
	<path d="m 81.553,33.551 c -0.529,0.293 -1.226,0.438 -2.092,0.438 -2.452,0 -3.678,-1.367 -3.678,-4.102 v -8.285 h -2.406 v -1.914 h 2.406 V 16.27 l 2.242,-0.725 v 4.143 h 3.527 v 1.914 h -3.527 v 7.888 c 0,0.939 0.159,1.609 0.479,2.01 0.319,0.402 0.848,0.602 1.586,0.602 0.565,0 1.053,-0.154 1.463,-0.465 v 1.914 z" id="path13" inkscape:connector-curvature="0" style="fill:#0072c6"/>
</g>
<g id="g23">
	<path d="m 30.872825,40.726271 c -2.217515,0 -3.984475,1.042153 -5.289126,3.122543 -1.304651,2.08039 -1.958936,4.834653 -1.958936,8.26279 0,3.47907 0.654285,6.229416 1.958936,8.251037 1.304651,2.025539 3.016761,3.032432 5.132411,3.032432 2.182254,0 3.913953,-0.983385 5.191179,-2.950157 1.277226,-1.966771 1.919757,-4.697527 1.919757,-8.18835 0,-3.639703 -0.619023,-6.472324 -1.860989,-8.497863 -1.241965,-2.021622 -2.938403,-3.032432 -5.093232,-3.032432 z" id="path25" inkscape:connector-curvature="0" style="fill:#0072c6"/>
	<path d="m -2.008e-7,11.753613 0,79.826626 L 60.727003,104.31332 60.727003,-5.1439999e-7 -2.008e-7,11.753613 Z M 40.63616,65.162033 c -2.566206,3.377205 -5.912068,5.069726 -10.041504,5.069726 -4.023654,0 -7.298994,-1.637671 -9.833857,-4.909093 -2.530945,-3.27534 -3.800335,-7.537984 -3.800335,-12.795767 0,-5.551624 1.285062,-10.041504 3.859103,-13.469642 2.574042,-3.428137 5.98259,-5.144164 10.225644,-5.144164 4.007982,0 7.25198,1.63767 9.724157,4.920846 2.476094,3.283176 3.714141,7.608506 3.714141,12.979907 0.0039,5.520281 -1.281143,9.970982 -3.847349,13.348187 z" id="path27" inkscape:connector-curvature="0" style="fill:#0072c6"/>
	<path d="m 64.566517,22.116382 v 20.404273 l 7.130526,4.489881 c 0.188058,0.05485 0.595516,0.05877 0.783574,0 L 103.1693,26.320258 c 0,-2.44867 -2.28412,-4.203876 -3.573096,-4.203876 H 64.566517 z" id="path3" inkscape:connector-curvature="0" style="fill:#0072c6"/>
	<path d="m 64.566517,50.133079 6.507584,4.470291 c 0.916782,0.673874 2.021622,0 2.021622,0 -1.100922,0.673874 30.077497,-20.035993 30.077497,-20.035993 V 72.06924 c 0,4.082422 -2.61322,5.794531 -5.551623,5.794531 H 64.562599 V 50.133079 z" id="path5" inkscape:connector-curvature="0" style="fill:#0072c6"/>
</g>
<g id="g29" transform="matrix(3.9178712,0,0,3.9178712,-13.481395,-41.384474)">
	<path d="M 86.746,33.688 H 84.504 V 12.961 h 2.242 v 20.727 z" id="path31" inkscape:connector-curvature="0" style="fill:#0072c6"/>
	<path d="m 96.436,34.016 c -2.069,0 -3.721,-0.654 -4.956,-1.962 -1.235,-1.308 -1.853,-3.042 -1.853,-5.202 0,-2.352 0.643,-4.188 1.928,-5.51 1.285,-1.321 3.021,-1.982 5.208,-1.982 2.088,0 3.717,0.643 4.889,1.928 1.17,1.285 1.756,3.067 1.756,5.346 0,2.233 -0.631,4.021 -1.893,5.366 -1.263,1.344 -2.955,2.016 -5.079,2.016 z M 96.6,21.246 c -1.44,0 -2.579,0.49 -3.417,1.47 -0.839,0.98 -1.258,2.331 -1.258,4.054 0,1.659 0.424,2.967 1.271,3.924 0.847,0.957 1.982,1.436 3.404,1.436 1.449,0 2.564,-0.469 3.344,-1.408 0.779,-0.938 1.168,-2.273 1.168,-4.006 0,-1.75 -0.389,-3.099 -1.168,-4.047 -0.78,-0.949 -1.895,-1.423 -3.344,-1.423 z" id="path33" inkscape:connector-curvature="0" style="fill:#0072c6"/>
	<path d="m 112.143,34.016 c -2.069,0 -3.721,-0.654 -4.956,-1.962 -1.235,-1.308 -1.853,-3.042 -1.853,-5.202 0,-2.352 0.643,-4.188 1.928,-5.51 1.285,-1.321 3.021,-1.982 5.209,-1.982 2.087,0 3.717,0.643 4.888,1.928 1.171,1.285 1.757,3.067 1.757,5.346 0,2.233 -0.631,4.021 -1.894,5.366 -1.263,1.345 -2.956,2.016 -5.079,2.016 z m 0.164,-12.77 c -1.44,0 -2.58,0.49 -3.418,1.47 -0.839,0.98 -1.258,2.331 -1.258,4.054 0,1.659 0.424,2.967 1.271,3.924 0.847,0.957 1.982,1.436 3.404,1.436 1.449,0 2.563,-0.469 3.343,-1.408 0.779,-0.938 1.169,-2.273 1.169,-4.006 0,-1.75 -0.39,-3.099 -1.169,-4.047 -0.779,-0.949 -1.893,-1.423 -3.342,-1.423 z" id="path35" inkscape:connector-curvature="0" style="fill:#0072c6"/>
	<path d="m 133.618,33.688 h -3.145 l -6.18,-6.727 h -0.055 v 6.727 h -2.242 V 12.961 h 2.242 V 26.1 h 0.055 l 5.879,-6.412 h 2.939 l -6.494,6.754 7.001,7.246 z" id="path37" inkscape:connector-curvature="0" style="fill:#0072c6"/>
</g>
</svg>