<svg viewBox="0 0 512 512" xmlns="http://www.w3.org/2000/svg"><rect width="512" height="512" fill="#00ed64"/><path d="m290.747 102.24c-16.7892-20.0963-31.2483-40.5065-34.2018-44.7457-.3116-.3142-.7755-.3142-1.0871 0-2.9534 4.2392-17.4125 24.6493-34.2018 44.7457-144.109 185.419 22.6961 310.55 22.6961 310.55l1.3988.9422c1.2466 19.3114 4.3559 47.1026 4.3559 47.1026h12.437s3.1092-27.6354 4.3522-47.1026l1.3988-1.098c.1558.1558 166.961-124.975 22.8519-310.394zm-34.8214 307.883s-7.4651-6.4395-9.4836-9.7336v-.3153l9.0161-201.905c0-.628.9313-.628.9313 0l9.0161 201.905v.3153c-2.0185 3.2941-9.48 9.7336-9.48 9.7336z" fill="#001e2b"/></svg>