<?xml version="1.0" encoding="UTF-8" standalone="no"?>
<svg
   viewBox="0 0 512 512"
   xml:space="preserve"
   sodipodi:docname="mysql-ref.svg"
   xmlns:inkscape="http://www.inkscape.org/namespaces/inkscape"
   xmlns:sodipodi="http://sodipodi.sourceforge.net/DTD/sodipodi-0.dtd"
   xmlns="http://www.w3.org/2000/svg"
   xmlns:svg="http://www.w3.org/2000/svg"
   xmlns:rdf="http://www.w3.org/1999/02/22-rdf-syntax-ns#"
   xmlns:cc="http://creativecommons.org/ns#"
   xmlns:dc="http://purl.org/dc/elements/1.1/"><defs
     id="defs1105" /><sodipodi:namedview
     guidehiopacity="0.5"
     guidehicolor="#f05"
     guideopacity="0.5"
     guidecolor="#05f"
     units="px"
     inkscape:showpageshadow="false"
     showgrid="false"
     inkscape:document-rotation="0"
     inkscape:current-layer="g1109"
     inkscape:document-units="px"
     inkscape:cy="288.90363"
     inkscape:cx="245.97214"
     inkscape:zoom="0.98994949"
     inkscape:pageshadow="2"
     inkscape:pageopacity="0"
     borderopacity="1"
     bordercolor="#bbb"
     pagecolor="#fff"
     id="base"
     inkscape:pagecheckerboard="false"
     inkscape:deskcolor="#eee"
     borderlayer="true"
     inkscape:window-width="1920"
     inkscape:window-height="1059"
     inkscape:window-x="-8"
     inkscape:window-y="-8"
     inkscape:window-maximized="1" /><metadata
     id="metadata5"><rdf:RDF><cc:Work
         rdf:about=""><dc:format>image/svg+xml</dc:format><dc:type
           rdf:resource="http://purl.org/dc/dcmitype/StillImage" /></cc:Work></rdf:RDF></metadata><g
     inkscape:groupmode="layer"
     inkscape:label="Layer 1"
     id="g1109"><g
       id="g6824"
       transform="translate(-204.05081,619.22351)"><path
         d="M 0,0 V 512 H 512 V 0"
         fill="#222222"
         id="path6806" /><circle
         fill="#ff4433"
         r="256"
         cx="256"
         cy="256"
         id="circle6808" /><circle
         fill="#ffdd00"
         r="217.5"
         cx="256"
         cy="256"
         id="circle6810" /><circle
         fill="#55dd66"
         r="192"
         cx="256"
         cy="256"
         id="circle6812" /></g><g
       id="g10"
       transform="matrix(0.11051188,0,0,-0.11051188,33.16645,361.47747)"><path
         d="M 67.3828,181.719 H 195.805 v 507.109 l 198.8,-442.074 c 23.465,-53.512 55.571,-72.445 118.547,-72.445 62.977,0 93.844,18.933 117.309,72.445 L 829.262,688.828 V 181.719 H 957.684 V 688 c 0,49.398 -19.758,73.273 -60.508,85.617 -97.551,30.461 -162.996,4.117 -192.629,-61.742 L 509.445,275.566 320.52,711.875 C 292.121,777.734 225.438,804.078 127.891,773.617 87.1406,761.273 67.3828,737.398 67.3828,688 V 181.719"
         style="fill:#005c87;fill-opacity:1;fill-rule:nonzero;stroke:none"
         id="path12" /><path
         d="m 1064.47,594.488 h 128.37 V 315.102 c -1.2,-15.176 4.88,-50.801 75.21,-51.907 35.9,-0.562 277.01,0 279.27,0 V 595.84 h 128.66 c 0.61,0 -0.12,-453.637 -0.11,-455.567 C 1676.59,28.3906 1537.05,4.09375 1472.75,2.21094 h -405.5 V 88.6094 c 0.71,0 405.19,-0.0938 406.21,0.0117 82.65,8.7305 72.89,49.8089 72.88,63.6369 v 33.68 h -272.95 c -126.99,1.175 -207.86,56.597 -208.86,120.351 -0.09,5.91 2.74,285.402 -0.06,288.199"
         style="fill:#005c87;fill-opacity:1;fill-rule:nonzero;stroke:none"
         id="path14" /><path
         d="m 1774.96,181.719 h 369.21 c 43.21,0 85.2,9.054 118.54,24.695 55.56,25.52 82.73,60.098 82.73,105.375 v 93.848 c 0,37.047 -30.87,71.621 -91.38,94.672 -32.1,12.347 -71.61,18.933 -109.89,18.933 h -155.59 c -51.86,0 -76.56,15.641 -82.73,50.219 -1.24,4.113 -1.24,7.406 -1.24,11.523 v 58.446 c 0,3.297 0,6.59 1.24,10.703 6.17,26.344 19.76,33.754 65.44,37.867 3.71,0 8.65,0.828 12.35,0.828 h 366.74 v 85.613 h -360.56 c -51.87,0 -79.03,-3.293 -103.73,-10.699 C 1809.53,739.867 1776.2,702 1776.2,636.141 v -74.914 c 0,-57.625 65.44,-107.02 175.34,-118.543 12.34,-0.825 24.69,-1.649 37.04,-1.649 h 133.36 c 4.94,0 9.88,0 13.58,-0.824 40.75,-3.293 58.04,-10.699 70.39,-25.52 7.41,-7.406 9.88,-14.816 9.88,-23.05 v -74.914 c 0,-9.055 -6.18,-20.582 -18.53,-30.457 -11.11,-9.879 -29.63,-16.465 -54.33,-18.114 -4.94,0 -8.64,-0.82 -13.58,-0.82 h -354.39 v -85.617"
         style="fill:#e4830f;fill-opacity:1;fill-rule:nonzero;stroke:none"
         id="path16" /><path
         d="m 3146.56,330.723 c 0,-88.086 65.45,-137.481 197.57,-147.36 12.35,-0.824 24.7,-1.644 37.05,-1.644 h 334.63 v 85.617 h -337.1 c -75.33,0 -103.73,18.934 -103.73,64.207 V 774.441 H 3146.56 V 330.723"
         style="fill:#e4830f;fill-opacity:1;fill-rule:nonzero;stroke:none"
         id="path18" /><path
         d="m 2427.4,326.23 v 305.223 c 0,77.543 54.45,124.563 162.1,139.414 11.13,1.649 23.51,2.473 34.64,2.473 h 243.77 c 12.37,0 23.5,-0.824 35.88,-2.473 107.65,-14.851 162.09,-61.871 162.09,-139.414 V 326.23 c 0,-62.91 -23.12,-96.582 -76.4,-118.515 L 3115.97,93.5273 h -149.11 l -102.33,92.3827 -103.04,-6.519 h -137.35 c -23.51,0 -48.25,3.297 -75.48,10.722 C 2467,212.387 2427.4,255.285 2427.4,326.23 Z m 138.6,7.422 c 0,-4.125 1.24,-8.25 2.48,-13.199 7.43,-35.473 40.83,-55.269 91.56,-55.269 h 116.67 l -107.17,96.75 h 149.11 l 93.47,-84.383 c 17.22,9.183 28.56,23.226 32.52,41.25 1.24,4.125 1.24,8.25 1.24,12.375 v 292.851 c 0,3.301 0,7.426 -1.24,11.551 -7.43,32.996 -40.84,51.969 -90.33,51.969 h -194.27 c -56.91,0 -94.04,-24.746 -94.04,-63.52 V 333.652"
         style="fill:#e4830f;fill-opacity:1;fill-rule:nonzero;stroke:none"
         id="path20" /><path
         d="m 3828.79,916.457 c -78.93,2.152 -139.24,-5.191 -190.79,-26.937 -14.65,-6.18 -38.01,-6.332 -40.4,-24.692 8.06,-8.445 9.3,-21.047 15.71,-31.422 12.3,-19.929 33.08,-46.617 51.62,-60.609 20.27,-15.293 41.14,-31.652 62.86,-44.895 38.63,-23.562 81.77,-37.007 118.96,-60.605 21.93,-13.91 43.7,-31.438 65.09,-47.137 10.57,-7.754 17.68,-19.828 31.43,-24.691 0,0.75 0,1.496 0,2.246 -7.23,9.195 -9.09,21.832 -15.72,31.426 -9.72,9.722 -19.45,19.453 -29.17,29.179 -28.53,37.871 -64.75,71.133 -103.25,98.766 -30.71,22.039 -99.42,51.809 -112.24,87.539 -0.75,0.75 -1.5,1.5 -2.24,2.246 21.76,2.453 47.25,10.328 67.34,15.711 33.75,9.055 63.91,6.711 98.76,15.715 15.71,4.488 31.42,8.976 47.14,13.469 0,2.992 0,5.984 0,8.98 -17.62,18.078 -30.18,42.004 -49.39,58.359 -50.26,42.795 -105.12,85.555 -161.61,121.215 -31.33,19.77 -70.05,32.63 -103.25,49.38 -11.17,5.64 -30.78,8.56 -38.16,17.96 -17.45,22.24 -26.95,50.42 -40.4,76.32 -28.18,54.25 -55.85,113.51 -80.81,170.59 -17.02,38.93 -28.15,77.32 -49.38,112.23 -101.91,167.58 -211.63,268.72 -381.59,368.13 -36.14,21.14 -79.69,29.5 -125.69,40.41 -24.69,1.49 -49.39,2.99 -74.07,4.48 -15.08,6.31 -30.75,24.74 -44.9,33.68 -56.3,35.57 -200.72,112.93 -242.41,11.22 -26.32,-64.2 39.35,-126.85 62.84,-159.38 16.49,-22.82 37.6,-48.41 49.38,-74.07 7.75,-16.87 9.09,-33.78 15.72,-51.63 16.32,-43.96 30.52,-91.79 51.62,-132.43 10.67,-20.55 22.43,-42.22 35.92,-60.61 8.27,-11.28 22.44,-16.24 24.69,-33.67 -13.87,-19.39 -14.66,-49.5 -22.45,-74.07 -35.07,-110.61 -21.86,-248.1 29.18,-329.97 15.67,-25.13 52.55,-79.027 103.25,-58.359 44.35,18.079 34.45,74.059 47.14,123.459 2.88,11.2 1.11,19.43 6.73,26.93 0,-0.74 0,-1.49 0,-2.24 13.47,-26.93 26.94,-53.88 40.41,-80.81 29.91,-48.15 82.97,-98.475 127.94,-132.432 23.32,-17.614 41.68,-48.063 71.83,-58.368 0,0.754 0,1.5 0,2.246 -0.75,0 -1.5,0 -2.25,0 -5.84,9.11 -14.98,12.887 -22.44,20.204 -17.57,17.226 -37.1,38.64 -51.63,58.363 -40.9,55.527 -77.05,116.307 -109.98,179.567 -15.73,30.21 -29.39,63.54 -42.65,94.28 -5.11,11.86 -5.06,29.78 -15.71,35.91 -14.52,-22.51 -35.91,-40.74 -47.14,-67.34 -17.96,-42.51 -20.28,-94.37 -26.94,-148.14 -3.93,-1.42 -2.18,-0.44 -4.49,-2.25 -31.25,7.55 -42.25,39.73 -53.87,67.34 -29.38,69.83 -34.84,182.26 -8.97,262.63 6.69,20.79 36.91,86.29 24.69,105.5 -5.84,19.17 -25.12,30.25 -35.92,44.89 -13.34,18.11 -26.68,41.95 -35.91,62.86 -24.05,54.44 -35.29,115.56 -60.61,170.59 -12.1,26.3 -32.57,52.92 -49.38,76.32 -18.61,25.91 -39.44,44.98 -53.87,76.32 -5.13,11.14 -12.11,28.96 -4.49,40.4 2.42,7.72 5.84,10.95 13.47,13.47 13.02,10.04 49.28,-3.34 62.85,-8.98 35.99,-14.95 66.02,-29.19 96.52,-49.38 14.65,-9.71 29.44,-28.48 47.13,-33.67 6.74,0 13.47,0 20.21,0 31.59,-7.27 67,-2.26 96.51,-11.23 52.19,-15.85 98.94,-40.52 141.42,-67.34 129.38,-81.69 235.15,-197.97 307.51,-336.7 11.65,-22.33 16.67,-43.65 26.93,-67.34 20.69,-47.77 46.75,-96.93 67.34,-143.66 20.54,-46.6 40.56,-93.64 69.58,-132.43 15.27,-20.4 74.22,-31.33 101.01,-42.65 18.79,-7.94 49.55,-16.21 67.34,-26.94 33.98,-20.48 66.9,-44.89 98.76,-67.336 15.93,-11.222 64.91,-35.828 67.34,-56.117"
         style="fill:#005c87;fill-opacity:1;fill-rule:nonzero;stroke:none"
         id="path22" /><path
         d="m 2825.45,1771.68 c -16.45,0.29 -28.09,-1.8 -40.4,-4.49 0,-0.75 0,-1.5 0,-2.25 0.74,0 1.49,0 2.24,0 7.85,-16.13 21.72,-26.51 31.42,-40.4 7.49,-15.72 14.97,-31.43 22.45,-47.14 0.75,0.75 1.5,1.49 2.25,2.24 13.89,9.8 20.27,25.47 20.2,49.39 -5.58,5.86 -6.4,13.21 -11.23,20.2 -6.43,9.31 -18.83,14.61 -26.93,22.45"
         style="fill:#005c87;fill-opacity:1;fill-rule:evenodd;stroke:none"
         id="path24" /><path
         d="m 3776.09,269.766 c 0,-56.532 44.68,-94.641 94.64,-94.641 49.98,0 94.64,38.109 94.64,94.641 0,56.531 -44.66,94.64 -94.64,94.64 -49.96,0 -94.64,-38.109 -94.64,-94.64 z m 168.08,0 c 0,-42.907 -32.8,-74.953 -73.44,-74.953 -41.13,0 -73.44,32.046 -73.44,74.953 0,42.906 32.31,74.953 73.44,74.953 40.64,0 73.44,-32.047 73.44,-74.953 z m -47.94,-54 h 21.19 l -31.04,47.437 c 16.66,1.766 29.28,9.844 29.28,29.531 0,21.954 -13.88,31.032 -40.64,31.032 h -42.14 v -108 h 18.17 v 46.687 h 16.91 z m -45.18,61.828 v 31.031 H 3872 c 10.85,0 23.97,-2.016 23.97,-14.625 0,-15.141 -11.86,-16.406 -25.49,-16.406 h -19.43"
         style="fill:#e4830f;fill-opacity:1;fill-rule:evenodd;stroke:none"
         id="path26" /><g
         id="g28"
         transform="scale(10)"><text
           xml:space="preserve"
           transform="matrix(1,0,0,-1,5.08828,92.0281)"
           style="font-variant:normal;font-weight:500;font-size:29.384px;font-family:HelveticaNeue;-inkscape-font-specification:HelveticaNeue-MediumExt;writing-mode:lr-tb;fill:#989696;fill-opacity:1;fill-rule:nonzero;stroke:none"
           id="text32"><tspan
             x="0 8.1687517 24.506256 39.198257 45.721504 62.05901 78.396515 94.734016"
             y="0"
             sodipodi:role="line"
             id="tspan30">Includes</tspan></text></g></g></g><inkscape:templateinfo><inkscape:name>512 square</inkscape:name><inkscape:date>2022-12-04</inkscape:date></inkscape:templateinfo></svg>
