<?xml version="1.0" encoding="UTF-8"?>
<svg id="Layer_1" data-name="Layer 1" xmlns="http://www.w3.org/2000/svg" viewBox="0 0 150 150">
  <defs>
    <style>
      .cls-1 {
        fill: #fff;
      }

      .cls-2 {
        fill: #0082c9;
      }
    </style>
  </defs>
  <rect class="cls-2" width="150" height="150"/>
  <g>
    <path id="path1052" class="cls-1" d="M75.091,35.685c-12.438,0-22.981,8.433-26.248,19.857-2.84-6.06-8.994-10.305-16.082-10.305-9.748,0-17.761,8.013-17.761,17.761s8.013,17.765,17.761,17.765c7.088,0,13.242-4.248,16.082-10.309,3.268,11.426,13.81,19.861,26.248,19.861,12.346,0,22.835-8.308,26.186-19.605,2.892,5.924,8.97,10.053,15.958,10.053,9.748,0,17.765-8.017,17.765-17.765s-8.017-17.761-17.765-17.761c-6.988,0-13.065,4.127-15.958,10.05-3.352-11.296-13.84-19.601-26.186-19.601h0ZM75.091,46.11c9.39,0,16.89,7.497,16.89,16.887s-7.501,16.89-16.89,16.89-16.887-7.501-16.887-16.89,7.497-16.887,16.887-16.887ZM32.762,55.663c4.114,0,7.338,3.221,7.338,7.335s-3.225,7.338-7.338,7.338-7.335-3.225-7.335-7.338,3.221-7.335,7.335-7.335ZM117.234,55.663c4.114,0,7.338,3.221,7.338,7.335s-3.225,7.338-7.338,7.338-7.335-3.225-7.335-7.338,3.221-7.335,7.335-7.335Z"/>
    <path id="path1174" class="cls-1" d="M27.496,98.554c-.347,0-.497.198-.497.545v14.374c0,.347.15.542.497.542h.398c.347,0,.542-.196.542-.542v-11.936l7.847,12.177c.035.053.071.089.109.127.011.013.019.027.032.039.034.031.07.046.106.065.02.011.036.026.058.034.016.005.032.002.048.006.055.014.112.029.179.029h.395c.347,0,.497-.196.497-.542v-14.373c0-.347-.15-.545-.497-.545h-.395c-.347,0-.545.198-.545.545v11.937l-7.847-12.177c-.027-.041-.059-.067-.089-.099-.091-.128-.234-.205-.439-.205,0,0-.399,0-.399,0ZM121.712,98.752c-.347,0-.198.198-.198.545v4.907c0,.496.048.842.048.842h-.048s-.942-2.18-3.569-2.18c-2.874,0-4.907,2.28-4.808,5.65,0,3.37,1.833,5.7,4.758,5.7,2.825,0,3.766-2.281,3.766-2.281h.05s-.099.298-.099.694v.842c0,.347.198.497.545.497h.348c.347,0,.494-.199.494-.545v-14.126c0-.347-.545-.545-.892-.545h-.396ZM83.202,98.801c-.347,0-.147.199-.147.545v12.142c0,2.379,1.584,2.677,2.476,2.677.396,0,.545-.198.545-.545v-.348c0-.347-.199-.494-.446-.494-.496-.049-1.138-.199-1.138-1.586v-11.844c0-.347-.545-.545-.892-.545h-.398,0ZM65.411,100.09c-.347,0-.545.199-.545.545v9.416c0,2.577,1.438,4.015,3.817,4.015.446,0,.594-.147.594-.494v-.299c0-.396-.147-.496-.594-.545-.843-.049-2.38-.347-2.38-2.874v-5.453h2.23c.347,0,.545-.147.545-.494v-.149c0-.347-.199-.545-.545-.545h-2.23v-2.578c0-.347-.147-.545-.494-.545,0,0-.398,0-.398,0ZM45.671,102.866c-2.973,0-5.355,2.132-5.404,5.7,0,3.37,2.479,5.698,5.7,5.698,1.735,0,3.023-.743,3.617-1.189.248-.199.298-.446.149-.694l-.149-.246c-.149-.297-.395-.348-.692-.149-.496.396-1.49.991-2.876.991-2.23,0-4.163-1.586-4.213-4.362h7.88c.297,0,.545-.248.545-.545,0-3.122-1.634-5.204-4.558-5.204h0ZM76.462,102.866c-3.221,0-5.699,2.379-5.749,5.749,0,3.37,2.479,5.7,5.7,5.7,1.982,0,3.32-.943,3.865-1.389.248-.248.295-.445.147-.743l-.147-.198c-.199-.297-.397-.348-.694-.149-.496.446-1.536,1.141-3.072,1.141-2.379,0-4.263-1.785-4.263-4.362,0-2.626,1.885-4.41,4.263-4.41,1.289,0,2.229.644,2.725.991.297.199.544.199.743-.099l.149-.248c.248-.297.198-.544-.05-.743-.545-.446-1.734-1.24-3.617-1.24h0ZM93.214,102.866c-3.172,0-5.749,2.428-5.749,5.65,0,3.271,2.577,5.749,5.749,5.749s5.749-2.477,5.749-5.749c0-3.221-2.577-5.65-5.749-5.65ZM61.152,103.032c-.121.02-.238.101-.35.234l-2.006,2.389-1.499,1.789-2.274-2.707-1.232-1.471c-.112-.133-.238-.205-.369-.217-.131-.011-.268.039-.4.149l-.304.256c-.266.223-.252.47-.029.736l2.006,2.389,1.663,1.984-2.436,2.901s-.004.005-.005.006l-1.23,1.464c-.223.266-.199.546.067.769l.304.253c.266.223.508.167.731-.099l2.004-2.389,1.502-1.789,2.274,2.71s.004.004.005.005l1.228,1.466c.223.266.504.288.769.065l.304-.253c.266-.223.252-.47.029-.736l-2.006-2.392-1.663-1.982,2.436-2.903s.004-.004.005-.006l1.23-1.464c.223-.266.199-.546-.067-.769l-.304-.253c-.133-.112-.26-.154-.381-.135h-.002ZM101.888,103.114c-.347,0-.497.198-.497.545v6.393c0,2.825,2.081,4.213,4.658,4.213s4.658-1.388,4.658-4.213v-6.393c.049-.347-.147-.545-.494-.545h-.398c-.347,0-.545.199-.545.545v5.997c0,1.685-1.091,3.222-3.221,3.222-2.081,0-3.221-1.537-3.221-3.222v-5.997c0-.347-.199-.545-.545-.545h-.395ZM45.621,104.105c1.586,0,2.973,1.14,3.072,3.42h-6.838c.347-2.23,1.933-3.42,3.766-3.42ZM93.214,104.204c2.329,0,4.213,1.833,4.213,4.312,0,2.577-1.884,4.461-4.213,4.461s-4.214-1.933-4.263-4.461c0-2.429,1.934-4.312,4.263-4.312ZM118.044,104.204c2.329,0,3.47,2.132,3.47,4.362,0,3.122-1.687,4.41-3.52,4.41-2.032,0-3.418-1.735-3.467-4.41,0-2.776,1.585-4.362,3.518-4.362h0Z"/>
  </g>
</svg>