<?xml version="1.0" encoding="UTF-8" standalone="no"?>
<svg
   id="Art"
   viewBox="0 0 52.572116 59.762158"
   version="1.1"
   width="52.572117"
   height="59.762157"
   xmlns="http://www.w3.org/2000/svg"
   xmlns:svg="http://www.w3.org/2000/svg"
   xmlns:rdf="http://www.w3.org/1999/02/22-rdf-syntax-ns#"
   xmlns:cc="http://creativecommons.org/ns#"
   xmlns:dc="http://purl.org/dc/elements/1.1/">
  <defs
     id="defs1">
    <style
       id="style1">.cls-1{fill:#999;}.cls-2{fill:#009639;}.cls-3{fill:#fff;}</style>
  </defs>
  <title
     id="title1">NGINX-Part-of-F5-horiz-black-type-RGB</title>
  <path
     class="cls-2"
     d="m 0.40788011,44.82252 a 3.01888,3.01888 0 0 0 1.13415999,1.12547 l 23.2017699,13.39555 7.3e-4,-7.2e-4 a 3.04445,3.04445 0 0 0 3.08381,0 l 23.2025,-13.39555 a 3.04264,3.04264 0 0 0 1.54118,-2.66955 V 16.48661 l -7.2e-4,-7.2e-4 A 3.0436,3.0436 0 0 0 51.0294,13.81562 L 27.82691,0.42007961 v -7.4e-4 a 3.04048,3.04048 0 0 0 -3.08165,0 v 7.4e-4 L 1.5434901,13.81562 A 3.04231,3.04231 0 0 0 8.6011308e-4,16.48589 l -7.2e-4,7.2e-4 V 43.27772 A 3.02484,3.02484 0 0 0 0.40714011,44.82252"
     id="path8" />
  <path
     class="cls-3"
     d="m 18.8574,40.08056 a 2.98387,2.98387 0 0 1 -5.96774,0 l 7.3e-4,7.2e-4 0.0029,-20.483 a 3.11074,3.11074 0 0 1 3.388,-2.89913 5.30625,5.30625 0 0 1 4.06733,1.81856 l 0.90168,1.07912 12.46563,14.91794 V 19.6816 h -0.0014 a 2.98387,2.98387 0 1 1 5.96774,0 h -7.2e-4 l -0.003,20.48148 a 3.11118,3.11118 0 0 1 -3.388,2.89914 5.30274,5.30274 0 0 1 -4.06734,-1.81857 L 18.85595,25.24666 v 14.83462 z"
     id="path9" />
  <metadata
     id="metadata11">
    <rdf:RDF>
      <cc:Work
         rdf:about="">
        <dc:title>NGINX-Part-of-F5-horiz-black-type-RGB</dc:title>
      </cc:Work>
    </rdf:RDF>
  </metadata>
</svg>
