<svg id="Art" xmlns="http://www.w3.org/2000/svg" viewBox="0 0 150.88751 59.76215"><defs><style>.cls-1{fill:#999;}.cls-2{fill:#009639;}.cls-3{fill:#fff;}</style></defs><title>NGINX-Part-of-F5-horiz-black-type-RGB</title><path class="cls-1" d="M113.57248,49.53954H112.291V47.783h3.02683v-.78618h-3.86063v3.31954h2.07726c.74036,0,1.16751.34154,1.16751.9586v.67373c0,.693-.47448,1.0822-1.32877,1.0822-.81632,0-1.29111-.38917-1.29111-1.0822v-.6264h-.83349v.60741a2.15686,2.15686,0,0,0,4.27753,0V51.294a1.74591,1.74591,0,0,0-1.95368-1.75441" transform="translate(-7.19784 -0.35892)"/><polygon class="cls-1" points="103.306 47.424 103.306 46.638 99.218 46.638 99.218 53.326 100.052 53.326 100.052 50.631 102.974 50.631 102.974 49.835 100.052 49.835 100.052 47.424 103.306 47.424"/><path class="cls-1" d="M102.99981,47.14755h.41751v-.76748h-.51247a1.609,1.609,0,0,0-1.70648,1.82133v.693h-.5598v.75784h.5598v4.03216h.80516V49.65227h1.32818v-.75784h-1.32818v-.62671c0-.79762.3132-1.12017.99628-1.12017" transform="translate(-7.19784 -0.35892)"/><path class="cls-1" d="M92.47913,52.91694c-.65474,0-.97729-.30355-.97729-1.07225V49.65227h1.30948v-.75784H91.50184V47.4903h-.80516v1.40413h-.6451v.75784h.6451V52.025c0,1.14791.53988,1.65947,1.61183,1.65947h.58813v-.76749Z" transform="translate(-7.19784 -0.35892)"/><path class="cls-1" d="M89.14782,48.80882a2.02515,2.02515,0,0,0-1.47981.57788l-.161-.49227h-.55918v4.79h.80547V50.66815a1.13349,1.13349,0,0,1,1.26185-1.15846,1.9835,1.9835,0,0,1,.40786.04763v-.73885a2.71626,2.71626,0,0,0-.27522-.00965" transform="translate(-7.19784 -0.35892)"/><path class="cls-1" d="M97.91605,48.77083a1.82361,1.82361,0,0,0-2.03931,1.9823v1.06293a2.04463,2.04463,0,0,0,4.08789,0V50.75313A1.82636,1.82636,0,0,0,97.91605,48.77083Zm1.24347,2.99787c0,.84466-.37982,1.27154-1.24347,1.27154-.864,0-1.23413-.42688-1.23413-1.27154v-.96826c0-.84461.37982-1.26215,1.24347-1.26215.864,0,1.23413.41754,1.23413,1.26215Z" transform="translate(-7.19784 -0.35892)"/><path class="cls-1" d="M85.30335,48.89443l-.15133.48292a1.87318,1.87318,0,0,0-1.4997-.60651c-1.17684,0-1.86836.58752-1.86836,2.0203v.99658c0,1.42313.69152,2.02,1.86836,2.02a1.874,1.874,0,0,0,1.4997-.60621l.15133.48292h.55918v-4.79Zm-1.50874,4.1458c-.80667,0-1.20548-.39851-1.20548-1.30948v-.89228c0-.911.39881-1.30015,1.20548-1.30015a1.13083,1.13083,0,0,1,1.26246,1.14822v1.19583a1.13747,1.13747,0,0,1-1.26246,1.15786" transform="translate(-7.19784 -0.35892)"/><path class="cls-1" d="M79.03373,46.99682H76.41565v6.68761h.83381V51.25567h1.79361c1.30014,0,2.03929-.67283,2.03929-1.76407v-.7307c0-1.10089-.73915-1.76408-2.04863-1.76408M80.2582,49.4916c0,.63605-.37983.96825-1.17715.96825H77.24946V47.783H79.0907c.78767,0,1.1675.34184,1.1675.9779Z" transform="translate(-7.19784 -0.35892)"/><path class="cls-2" d="M7.60573,45.18144a3.01888,3.01888,0,0,0,1.13416,1.12547L31.94166,59.70246l.00073-.00072a3.04445,3.04445,0,0,0,3.08381,0L58.2287,46.30619a3.04264,3.04264,0,0,0,1.54118-2.66955V16.84553l-.00072-.00072a3.0436,3.0436,0,0,0-1.54191-2.67027L35.02476.779V.77826a3.04048,3.04048,0,0,0-3.08165,0V.779L8.74134,14.17454a3.04231,3.04231,0,0,0-1.54263,2.67027l-.00072.00072V43.63664a3.02484,3.02484,0,0,0,.407,1.5448" transform="translate(-7.19784 -0.35892)"/><path class="cls-3" d="M26.05525,40.43948a2.98387,2.98387,0,0,1-5.96774,0l.00073.00072.00289-20.483a3.11074,3.11074,0,0,1,3.388-2.89913,5.30625,5.30625,0,0,1,4.06733,1.81856l.90168,1.07912L40.91377,34.87369V20.04052h-.00145a2.98387,2.98387,0,1,1,5.96774,0h-.00072L46.87644,40.522a3.11118,3.11118,0,0,1-3.388,2.89914,5.30274,5.30274,0,0,1-4.06734-1.81857L26.0538,25.60558V40.4402Z" transform="translate(-7.19784 -0.35892)"/><polygon points="144.002 19.788 140.069 19.788 135.736 26.657 131.518 19.788 127.442 19.788 133.513 29.707 127.385 39.968 131.261 39.968 135.565 33.042 139.784 39.968 143.86 39.968 137.731 29.964 144.002 19.788"/><polygon points="122.36 19.788 122.36 33.527 114.436 19.788 111.158 19.788 111.158 39.968 114.436 39.968 114.436 26.315 122.36 39.968 125.667 39.968 125.667 19.788 122.36 19.788"/><rect x="104.95584" y="19.78766" width="3.50613" height="20.18067"/><path d="M109.45724,27.32946V26.1894c0-3.90495-2.87881-6.44192-7.92413-6.44192-5.01668,0-7.8955,2.537-7.8955,6.44192v8.09505c0,3.90524,2.90746,6.44192,7.92414,6.44192s7.89549-2.53668,7.89549-6.44192V29.55294h-8.03807v3.24929h4.53225v1.28266c0,2.10953-1.59616,3.39219-4.41831,3.39219-2.7932,0-4.38937-1.28266-4.38937-3.39219V26.389c0-2.10922,1.59617-3.39187,4.418-3.39187,2.79351,0,4.38967,1.28265,4.38967,3.39187v.94051Z" transform="translate(-7.19784 -0.35892)"/><polygon points="80.42 19.788 80.42 33.527 72.496 19.788 69.218 19.788 69.218 39.968 72.496 39.968 72.496 26.315 80.42 39.968 83.726 39.968 83.726 19.788 80.42 19.788"/><path class="cls-1" d="M155.31739,39.42287h.38127v-.8492h.3016a.86036.86036,0,0,1,.42362.07074.53054.53054,0,0,1,.20133.494v.17411l.00854.06491a.131.131,0,0,1,.00583.0272c.00195.0105.00272.01361.00855.01827h.35328l-.01282-.0241a.24768.24768,0,0,1-.0171-.11037c-.005-.061-.005-.1131-.005-.16129v-.1609a.61588.61588,0,0,0-.11816-.33657.5489.5489,0,0,0-.37621-.21143.92871.92871,0,0,0,.31365-.10183.47042.47042,0,0,0,.21064-.42751.53128.53128,0,0,0-.33346-.54838,1.65934,1.65934,0,0,0-.59114-.07734h-.75437Zm1.08434-1.16439a.98642.98642,0,0,1-.36262.04819h-.34045v-.78624h.32491a.95907.95907,0,0,1,.45822.08434.32713.32713,0,0,1,.14342.31519.33275.33275,0,0,1-.22348.33852m1.10726-1.29809a1.91563,1.91563,0,0,0-1.4003-.57248,1.96968,1.96968,0,0,0,0,3.93934,1.97318,1.97318,0,0,0,1.4003-3.36686m-.20015.19549a1.61325,1.61325,0,0,1,.49435,1.1982,1.69263,1.69263,0,0,1-2.8931,1.204,1.671,1.671,0,0,1-.492-1.204,1.69846,1.69846,0,0,1,1.69063-1.70111,1.6152,1.6152,0,0,1,1.20015.50291" transform="translate(-7.19784 -0.35892)"/></svg>