<svg viewBox="-16.5 0 289 289" xmlns="http://www.w3.org/2000/svg">
  <path d="M128 288.4638C124.0248 288.4638 120.3147 287.4037 116.8696 285.5487L81.6232 264.6128C76.323 261.6977 78.9731 260.6377 80.5631 260.1077 87.7184 257.7226 89.0435 257.1925 96.4638 252.9524 97.2588 252.4224 98.3188 252.6874 99.1139 253.2174L126.1449 269.383C127.205 269.913 128.53 269.913 129.3251 269.383L235.0642 208.1656C236.1242 207.6356 236.6542 206.5756 236.6542 205.2505L236.6542 83.0807C236.6542 81.7557 236.1242 80.6957 235.0642 80.1656L129.3251 19.2133C128.265 18.6832 126.94 18.6832 126.1449 19.2133L20.4058 80.1656C19.3458 80.6957 18.8157 82.0207 18.8157 83.0807L18.8157 205.2505C18.8157 206.3106 19.3458 207.6356 20.4058 208.1656L49.2919 224.8613C64.9275 232.8116 74.7329 223.5362 74.7329 214.2609L74.7329 93.6812C74.7329 92.0911 76.058 90.501 77.913 90.501L91.4286 90.501C93.0186 90.501 94.6087 91.8261 94.6087 93.6812L94.6087 214.2609C94.6087 235.1967 83.2133 247.3872 63.3375 247.3872 57.2422 247.3872 52.4721 247.3872 38.9565 240.7619L11.1304 224.8613C4.2402 220.8861 0 213.4658 0 205.5155L0 83.3458C0 75.3954 4.2402 67.9752 11.1304 64L116.8696 2.7826C123.4948-.9275 132.5052-.9275 139.1304 2.7826L244.8696 64C251.7598 67.9752 256 75.3954 256 83.3458L256 205.5155C256 213.4658 251.7598 220.8861 244.8696 224.8613L139.1304 286.0787C135.6853 287.6687 131.7101 288.4638 128 288.4638L128 288.4638ZM160.5963 204.4555C114.2195 204.4555 104.6791 183.2547 104.6791 165.234 104.6791 163.6439 106.0041 162.0538 107.8592 162.0538L121.6398 162.0538C123.2298 162.0538 124.5549 163.1139 124.5549 164.7039 126.6749 178.7495 132.7702 185.6398 160.8613 185.6398 183.1222 185.6398 192.6625 180.6046 192.6625 168.6791 192.6625 161.7888 190.0124 156.7536 155.2961 153.3085 126.4099 150.3934 108.3892 144.0331 108.3892 120.9772 108.3892 99.5114 126.4099 86.7909 156.6211 86.7909 190.5424 86.7909 207.2381 98.4513 209.3582 123.8923 209.3582 124.6874 209.0932 125.4824 208.5631 126.2774 208.0331 126.8075 207.2381 127.3375 206.4431 127.3375L192.6625 127.3375C191.3375 127.3375 190.0124 126.2774 189.7474 124.9524 186.5673 110.3768 178.352 105.6066 156.6211 105.6066 132.2402 105.6066 129.3251 114.087 129.3251 120.4472 129.3251 128.1325 132.7702 130.5176 165.6315 134.7578 198.2277 138.9979 213.5983 145.0932 213.5983 167.8841 213.3333 191.205 194.2526 204.4555 160.5963 204.4555L160.5963 204.4555Z" fill="#539E43"/>
</svg>