<svg xmlns="http://www.w3.org/2000/svg"
preserveAspectRatio="xMinYMin"

 viewBox="0 0 945.74936 1010.2747">
    <g transform="matrix(1.3333333,0,0,-1.3333333,-201.03519,1102.6785)">
        <path d="m 571.6514,461.5439 v -304.373 c 0,-33.729 -27.367,-52.197 -49.664,-52.197 -18.469,0 -34.377,10.81 -51.549,27.364 -17.203,16.557 -247.08,243.87 -247.08,243.87 v -263.603 c 0,-31.195 -14.642,-43.302 -38.824,-43.302 -24.215,0 -33.758,24.212 -33.758,42.68 v 360.371 c 0,35.641 31.843,50.931 50.96,50.931 19.088,0 29.929,-5.716 42.006,-16.553 12.105,-10.811 255.327,-256.597 255.327,-256.597 v 215.209 c 0,0 -267.404,21.652 -267.404,178.917 0,112.081 171.258,182.748 303.048,182.748 96.792,0 325.375,-33.756 325.375,-171.201 0,-164.367 -288.437,-194.264 -288.437,-194.264 m 1.294,259.127 v -116.53 c 0,0 81.477,11.489 81.477,59.238 0,47.748 -81.477,57.292 -81.477,57.292 m -71.343,-133.084 c 0,0 20.385,-6.98 40.121,-6.98 57.323,0 136.911,29.28 136.911,80.856 0,51.58 -105.689,73.849 -105.689,73.849 v 29.928 c 0,15.936 -19.117,31.841 -36.289,31.841 -17.202,0 -36.939,-14.639 -36.939,-33.107 0,-18.47 1.885,-176.387 1.885,-176.387"/>
    </g>
</svg>