<svg xmlns="http://www.w3.org/2000/svg" viewBox="0 0 400 400"><defs><style>.a{fill:none;}.b{fill:#00aeef;}.c{fill:#008ccf;}</style></defs><rect class="a" width="400" height="400"/><path class="b" d="M137.5,75a125,125,0,1,0,125,125A125,125,0,0,0,137.5,75Zm0,162.5A37.5,37.5,0,1,1,175,200,37.45,37.45,0,0,1,137.5,237.5Z"/><path class="c" d="M278,168.75c31.76,9.14,69.25,0,69.25,0-10.88,47.5-45.38,77.25-95.13,80.87A124.73,124.73,0,0,1,137.5,325L175,205.81C213.55,83.3,233.31,75,324.73,75H387.5C377,121.25,340.81,156.58,278,168.75Z"/></svg>