<svg viewBox="0 0 38 38" xmlns="http://www.w3.org/2000/svg">
  <path d="M34.6194245,8.17880011 C36.7508489,11.2495266 38,14.9788859 38,19 C38,23.0211141 36.7508489,26.7504734 34.6194245,29.8211999 L29.6976779,24.8994533 C30.6641742,23.1506053 31.2142857,21.1395454 31.2142857,19 C31.2142857,16.8604546 30.6641742,14.8493947 29.6976779,13.1005467 L34.6194245,8.17880011 Z M29.8211999,3.38057552 L24.8994533,8.30232215 C23.1506053,7.33582578 21.1395454,6.78571429 19,6.78571429 C12.2542363,6.78571429 6.78571429,12.2542363 6.78571429,19 C6.78571429,25.7457637 12.2542363,31.2142857 19,31.2142857 C21.1395454,31.2142857 23.1506053,30.6641742 24.8994533,29.6976779 L29.8211999,34.6194245 C26.7504734,36.7508489 23.0211141,38 19,38 C8.50658975,38 0,29.4934102 0,19 C0,8.50658975 8.50658975,0 19,0 C23.0211141,0 26.7504734,1.24915112 29.8211999,3.38057552 Z" fill="#7FADF2"></path>
  <path d="M34.6194245,8.17880011 C36.7508489,11.2495266 38,14.9788859 38,19 C38,23.0211141 36.7508489,26.7504734 34.6194245,29.8211999 L29.6976779,24.8994533 C30.6641742,23.1506053 31.2142857,21.1395454 31.2142857,19 C31.2142857,16.8604546 30.6641742,14.8493947 29.6976779,13.1005467 L34.6194245,8.17880011 Z" fill="#B8D3F4"></path>
</svg>