<svg xmlns="http://www.w3.org/2000/svg" viewBox="0 0 800 800">
	<circle cx="400" cy="400" r="400" fill="#11b0a3"/>
	<circle cx="573" cy="275" r="106" fill="#070"/>
	<path d="M153 345h256v77H153z" fill="#fff"/>
	<path d="M191 376h177v20H191z" fill="#ffba00"/>
	<path d="M28.7 507.6h735.7C706.5 748.5 539.5 771.1 409.2 792c-181.7-27.8-324-103.8-380.5-284.4z" fill="#8c5015"/>
	<path d="M607 490c9-29 66 4 161-112 29-7 15 79 8 111z" fill="#070"/>
	<path d="M259 197l19-7c-1 0-10-36 17-50l-10-18a55 55 0 0 0-29 45 95 95 0 0 0-49-10l2 20s39-3 50 20zM326 256l18 9c1-2 19-33 48-24l5-19c-21-7-39 0-52 11-6-24-26-41-27-42l-13 15c0 1 29 26 21 50z" fill="#000"/>
	<path d="M768.6 244.3a398.7 398.7 0 0 0-85.8-127.1A398.7 398.7 0 0 0 400 0a397.5 397.5 0 0 0-282.8 117.2A398.7 398.7 0 0 0 0 400a397.5 397.5 0 0 0 117.2 282.8A398.7 398.7 0 0 0 400 800a397.5 397.5 0 0 0 282.8-117.2A398.7 398.7 0 0 0 800 400c0-54-10.6-106.4-31.4-155.7zM30.3 487.6A380.4 380.4 0 0 1 400 20c197.2 0 359.7 151 378.2 343.4a69.2 69.2 0 0 0-56.6 57.7 71 71 0 0 0-53.8 37.2 48.7 48.7 0 0 0-66.1 29.1h-20.5V381.8a110.5 110.5 0 0 0-12-220.2 110.5 110.5 0 0 0-8.1 220.5v105.5H396.5v-47h72.3v-20h-40.5v-94.4H133.5v94.4h-32.1v20h64.2v47zm644 0h-50.6a28.5 28.5 0 0 1 42.4-6.9zM561.1 324.4V362a90.5 90.5 0 0 1 8-180.3 90.4 90.4 0 0 1 12 179.9v-29.2l56.4-56.3-14.2-14.2-42.1 42.1v-38H561v30l-37-37.1-14.3 14.2zm-407.5 96.2v-74.3h254.6v74.3zm222.8 20v47H185.7v-47zM400 780c-41.2 0-81-6.6-118.1-18.8l403.8-111A379.1 379.1 0 0 1 400 780zm307-156.4L250 749c-11.4-5-22.6-10.4-33.4-16.4L484 655l-5.5-19.3-285.3 82.8c-13.3-8.7-26-18.2-38.1-28.4l131.8-24.9-3.7-19.7-146.8 27.7a383.3 383.3 0 0 1-36-39.8l637.6-60c-9 17.5-19.4 34.2-31 50zm41-71.2L86.6 614.6a378.6 378.6 0 0 1-51-107h728.8c-4.5 15.4-10 30.3-16.4 44.7zm-69.7-64.7L682 476a51 51 0 0 1 48.6-35.4h10l.2-9.8a49.3 49.3 0 0 1 38.8-47.3 385.6 385.6 0 0 1-9.9 104z" fill="#000"/>
</svg>