<?xml version="1.0" encoding="UTF-8" standalone="no"?>
<svg
   width="43.868557"
   height="76.644196"
   version="1.1"
   viewBox="0 0 43.868468 76.643751"
   xml:space="preserve"
   id="svg16"
   xmlns="http://www.w3.org/2000/svg"
   xmlns:svg="http://www.w3.org/2000/svg"><defs
     id="defs16" /><g
     transform="matrix(0.9504,0,0,0.9504,9.504e-6,-8.258653)"
     id="g2"><path
       d="m 46.125,8.6895 c -9.983,0 -18.483,6.6097 -22.1,16.012 h 22.1 z"
       id="path1" /><path
       d="m 9.9473,16.898 c -0.31017,-0.01246 -0.62669,0.0049 -0.94531,0.05664 -2.543,0.416 -4.2676,2.8134 -3.8516,5.3574 1.411,8.626 7.0863,13.828 12.027,16.795 0.111,3.407 0.57366,6.7021 1.3477,9.8301 h -13.861 c -2.576,0 -4.6641,2.089 -4.6641,4.666 0,2.577 2.0881,4.666 4.6641,4.666 h 17.322 c 1.311,2.577 2.8565,4.956 4.6035,7.084 -6.1,4.571 -11.813,12.547 -14.584,16.744 -1.42,2.148 -0.83064,5.0419 1.3184,6.4629 0.792,0.523 1.6864,0.77344 2.5684,0.77344 1.514,0 2.9985,-0.7348 3.8965,-2.0918 4.624,-6.99 10.586,-13.597 13.746,-15.473 3.796,2.601 8.074,4.2618 12.623,4.7598 v -46.025 h -25.148 c -2.915,-1.974 -5.8924,-5.0593 -6.6504,-9.6973 -0.364,-2.2242 -2.2409,-3.821 -4.4121,-3.9082 z"
       fill="#f67909"
       id="path2" /></g></svg>
