<?xml version="1.0" encoding="UTF-8"?>
<!-- Generator: Adobe Illustrator 21.0.0, SVG Export Plug-In . SVG Version: 6.00 Build 0)  -->
<svg version="1.1" id="Layer_1" xmlns="http://www.w3.org/2000/svg" xmlns:xlink="http://www.w3.org/1999/xlink" x="0px" y="0px" viewBox="0 0 265 55" width="345px" height="71px" style="enable-background:new 0 0 265 55;" xml:space="preserve">
<style type="text/css">
	.st0{fill:#FFFFFF;}
	.st1{fill:#003366;}
	.st2{fill:#EA7E20;}
</style>
<g>
	<polygon id="path-1_4_" class="st0" points="4.2,5.1 51,5.1 51,48.3 4.2,48.3  "/>
</g>
<g id="Nav_3_" transform="translate(-112.000000, -72.000000)">
	<g id="Openvpn-Logo_3_" transform="translate(108.000000, 70.000000)">
		<g id="Page-1_3_" transform="translate(4.031008, 0.000000)">
			<path id="Fill-1_3_" class="st1" d="M34.9,30.4c0-4.1-3.3-7.4-7.4-7.4s-7.4,3.3-7.4,7.4c0,3.2,2,5.9,4.8,6.9L22,52.5h5.5H33     l-2.8-15.2C32.9,36.2,34.9,33.6,34.9,30.4"/>
			<g id="Group-5_3_" transform="translate(0.000000, 1.393200)">
				<g id="Clip-4_3_">
				</g>
				<path id="Fill-3_3_" class="st2" d="M51,28.9C51,16.1,40.5,5.7,27.6,5.7S4.2,16.1,4.2,28.9c0,8.5,4.6,15.9,11.5,19.9l1.5-9.9      c-2.2-2.4-3.6-5.7-3.6-9.2c0-7.6,6.2-13.8,13.9-13.8s13.9,6.2,13.9,13.8c0,3.6-1.4,6.8-3.6,9.3l1.5,9.9      C46.3,44.9,51,37.4,51,28.9"/>
			</g>
			<path id="Fill-6_3_" class="st2" d="M82.3,38.8c4.7,0,8.5-3.8,8.5-8.4S87,22,82.3,22s-8.5,3.8-8.5,8.4S77.6,38.8,82.3,38.8      M82.3,45.6c-8.5,0-15.4-6.8-15.4-15.3S73.8,15,82.3,15s15.4,6.8,15.4,15.3S90.8,45.6,82.3,45.6"/>
			<path id="Fill-8_3_" class="st2" d="M100.9,16v28.8c0,0.3,0.2,0.5,0.5,0.5h5.5c0.3,0,0.5-0.2,0.5-0.5V33.7h5.9     c0,0,8.2-0.4,8.2-9.2s-8.3-9.1-8.3-9.1h-11.8C101.1,15.4,100.9,15.6,100.9,16z M111.6,19.9c0,0,4.3-0.1,4.3,4.6     c0,4.6-4.3,4.6-4.3,4.6h-4.3v-8.9c0-0.4,0.3-0.3,0.3-0.3L111.6,19.9z"/>
			<path id="Fill-10_3_" class="st1" d="M205.7,16v28.8c0,0.3,0.2,0.5,0.5,0.5h5.5c0.3,0,0.5-0.2,0.5-0.5V33.7h5.9     c0,0,8.2-0.4,8.2-9.2s-8.3-9.1-8.3-9.1h-11.8C206,15.4,205.7,15.6,205.7,16z M216.4,19.9c0,0,4.3-0.1,4.3,4.6     c0,4.6-4.3,4.6-4.3,4.6h-4.3v-8.9c0-0.4,0.3-0.3,0.3-0.3L216.4,19.9z"/>
			<path id="Fill-12_3_" class="st2" d="M124.8,44.8c0,0.3,0.2,0.5,0.5,0.5h19.9c0.3,0,0.5-0.2,0.5-0.5v-4.2c0-0.3-0.2-0.5-0.5-0.5     h-13.4c-0.3,0-0.5-0.2-0.5-0.5v-6.7c0-0.3,0.2-0.5,0.5-0.5h8.9c0.3,0,0.5-0.2,0.5-0.5v-4.2c0-0.3-0.2-0.5-0.5-0.5h-8.9     c-0.3,0-0.5-0.2-0.5-0.5V21c0-0.3,0.2-0.5,0.5-0.5h13.4c0.3,0,0.5-0.2,0.5-0.5v-4.2c0-0.3-0.2-0.5-0.5-0.5h-19.8     c-0.3,0-0.5,0.2-0.5,0.5L124.8,44.8L124.8,44.8z"/>
			<path id="Fill-14_3_" class="st2" d="M170.8,15.4h-4.2c-0.3,0-0.5,0.2-0.5,0.5v17.9l-10.7-18.4h-5.2c-0.3,0-0.6,0.3-0.6,0.6v28.8     c0,0.3,0.2,0.5,0.5,0.5h4.2c0.3,0,0.5-0.2,0.5-0.5V24.1L167,45.2v0.1h3.7c0.3,0,0.5-0.2,0.5-0.5V15.9     C171.2,15.6,171,15.4,170.8,15.4"/>
			<path id="Fill-16_3_" class="st1" d="M251.6,15.4h-4.2c-0.3,0-0.5,0.2-0.5,0.5v17.9l-10.7-18.4H231c-0.4,0-0.6,0.3-0.6,0.6v28.7     c0,0.3,0.2,0.5,0.5,0.5h4.2c0.3,0,0.5-0.2,0.5-0.5V24.1l12.3,21.1v0.1h3.7c0.3,0,0.5-0.2,0.5-0.5V15.9     C252.1,15.6,251.8,15.4,251.6,15.4"/>
			<path id="Fill-18_3_" class="st1" d="M190.7,44.9l10.7-28.8c0.1-0.3-0.1-0.7-0.5-0.7h-4.8c-0.2,0-0.4,0.1-0.5,0.3l-7,18.9     l-7-18.9c-0.1-0.2-0.3-0.3-0.5-0.3h-4.8c-0.3,0-0.6,0.3-0.5,0.7l10.7,28.8c0.1,0.2,0.3,0.3,0.5,0.3h3.2     C190.4,45.2,190.6,45.1,190.7,44.9"/>
		</g>
	</g>
</g>
<g>
	<path class="st1" d="M260.5,16.5c0,1.4-1.1,2.6-2.6,2.6s-2.6-1.1-2.6-2.6c0-1.4,1.2-2.5,2.6-2.5C259.4,14,260.5,15.1,260.5,16.5z    M255.9,16.5c0,1.1,0.8,2,2,2c1.1,0,1.9-0.9,1.9-2s-0.8-2-1.9-2S255.9,15.4,255.9,16.5z M257.5,17.8h-0.6v-2.5c0.2,0,0.6-0.1,1-0.1   c0.5,0,0.7,0.1,0.9,0.2c0.1,0.1,0.2,0.3,0.2,0.6s-0.2,0.5-0.5,0.6l0,0c0.2,0.1,0.4,0.3,0.5,0.6c0.1,0.4,0.1,0.5,0.2,0.6h-0.6   c-0.1-0.1-0.1-0.3-0.2-0.6c0-0.3-0.2-0.4-0.5-0.4h-0.3v1H257.5z M257.5,16.4h0.3c0.3,0,0.6-0.1,0.6-0.4c0-0.2-0.2-0.4-0.5-0.4   c-0.2,0-0.3,0-0.3,0v0.8H257.5z"/>
</g>
</svg>