<svg width="304.11" height="80.645" version="1.1" viewBox="0 0 304.10937 80.644529" xml:space="preserve" xmlns="http://www.w3.org/2000/svg"><g transform="translate(0 -8.6895)"><g transform="matrix(.9504 0 0 .9504 4.5 2.931)"><path d="m46.125 8.6895c-9.983 0-18.483 6.6097-22.1 16.012h22.1z"/><path d="m9.9473 16.898c-0.31017-0.01246-0.62669 0.0049-0.94531 0.05664-2.543 0.416-4.2676 2.8134-3.8516 5.3574 1.411 8.626 7.0863 13.828 12.027 16.795 0.111 3.407 0.57366 6.7021 1.3477 9.8301h-13.861c-2.576 0-4.6641 2.089-4.6641 4.666s2.0881 4.666 4.6641 4.666h17.322c1.311 2.577 2.8565 4.956 4.6035 7.084-6.1 4.571-11.813 12.547-14.584 16.744-1.42 2.148-0.83064 5.0419 1.3184 6.4629 0.792 0.523 1.6864 0.77344 2.5684 0.77344 1.514 0 2.9985-0.7348 3.8965-2.0918 4.624-6.99 10.586-13.597 13.746-15.473 3.796 2.601 8.074 4.2618 12.623 4.7598v-46.025h-25.148c-2.915-1.974-5.8924-5.0593-6.6504-9.6973-0.364-2.2242-2.2409-3.821-4.4121-3.9082z" fill="#f67909"/></g><g stroke-width=".9504" style="font-feature-settings:normal;font-variant-caps:normal;font-variant-ligatures:normal;font-variant-numeric:normal" aria-label="openbugbounty"><path d="m73.597 46.939q0 4.054-2.079 6.4003-2.079 2.3463-5.5687 2.3463-3.5194 0-5.5984-2.3463-2.0641-2.3463-2.0641-6.4003 0-4.054 2.0641-6.4003 2.079-2.3611 5.5984-2.3611 3.4897 0 5.5687 2.3611 2.079 2.3463 2.079 6.4003zm-2.8809 0q0-3.2224-1.2622-4.7817-1.2622-1.5741-3.5046-1.5741-2.272 0-3.5343 1.5741-1.2474 1.5592-1.2474 4.7817 0 3.1185 1.2622 4.7371 1.2622 1.6038 3.5194 1.6038 2.2275 0 3.4897-1.589 1.2771-1.6038 1.2771-4.752z"/><path d="m92.531 46.731q0 2.0196-0.57915 3.6976-0.57915 1.6632-1.6335 2.8215-0.9801 1.0989-2.3166 1.7077-1.3216 0.594-2.8066 0.594-1.292 0-2.3463-0.28215-1.0395-0.28215-2.1235-0.87615v6.9498h-2.7918v-22.706h2.7918v1.7374q1.1137-0.93555 2.4948-1.5592 1.3959-0.63855 2.97-0.63855 2.9997 0 4.6629 2.272 1.678 2.2572 1.678 6.2815zm-2.8809 0.07425q0-2.9997-1.0246-4.4847-1.0246-1.485-3.1482-1.485-1.2028 0-2.4205 0.51975-1.2177 0.51975-2.3314 1.3662v9.4q1.188 0.5346 2.0344 0.72765 0.8613 0.19305 1.9453 0.19305 2.3314 0 3.6382-1.5741 1.3068-1.5741 1.3068-4.6629z"/><path d="m110.77 47.221h-12.222q0 1.5296 0.46035 2.673 0.46035 1.1286 1.2623 1.8562 0.7722 0.7128 1.8266 1.0692 1.0692 0.3564 2.3463 0.3564 1.6929 0 3.4006-0.66825 1.7226-0.6831 2.4502-1.3365h0.1485v3.0442q-1.4107 0.594-2.8809 0.99495t-3.0888 0.40095q-4.1283 0-6.4449-2.2275-2.3166-2.2423-2.3166-6.3558 0-4.0689 2.2126-6.4597 2.2275-2.3908 5.8509-2.3908 3.3561 0 5.1678 1.9602 1.8265 1.9602 1.8265 5.5687zm-2.7175-2.1384q-0.0148-2.1978-1.1138-3.4006-1.084-1.2028-3.3116-1.2028-2.2424 0-3.5788 1.3216-1.3217 1.3216-1.4999 3.2818z"/><path d="m128.87 55.225h-2.7918v-9.4446q0-1.1434-0.13365-2.1384-0.13365-1.0098-0.49005-1.5741-0.37125-0.6237-1.0692-0.9207-0.69795-0.31185-1.8117-0.31185-1.1434 0-2.3908 0.5643-1.2474 0.5643-2.3908 1.4404v12.385h-2.7918v-16.587h2.7918v1.8414q1.3068-1.084 2.7027-1.6929 1.3959-0.60885 2.866-0.60885 2.6878 0 4.0986 1.6186t1.4108 4.6629z"/><g fill="#f67909"><path d="m148.84 46.805q0 2.079-0.594 3.7422-0.57915 1.6632-1.5741 2.7918-1.0544 1.1731-2.3166 1.7671-1.2622 0.57915-2.777 0.57915-1.4108 0-2.4651-0.34155-1.0544-0.3267-2.079-0.891l-0.1782 0.7722h-2.6136v-23.107h2.7918v8.2566q1.1732-0.96525 2.4948-1.5741 1.3216-0.6237 2.97-0.6237 2.9403 0 4.6332 2.2572 1.7078 2.2572 1.7078 6.3706zm-2.8809 0.07425q0-2.97-0.9801-4.4995-0.9801-1.5444-3.163-1.5444-1.2177 0-2.4651 0.5346-1.2474 0.51975-2.3166 1.3514v9.504q1.188 0.5346 2.0344 0.7425 0.8613 0.2079 1.9454 0.2079 2.3166 0 3.6234-1.5147 1.3216-1.5295 1.3216-4.7817z"/><path d="m166.94 55.225h-2.7918v-1.8414q-1.4108 1.1137-2.7027 1.7077t-2.8512 0.594q-2.6136 0-4.0689-1.5889-1.4553-1.6038-1.4553-4.6926v-10.766h2.7918v9.4446q0 1.2622 0.1188 2.1681 0.1188 0.891 0.50489 1.5295 0.40095 0.6534 1.0395 0.9504t1.8562 0.297q1.084 0 2.3612-0.5643 1.292-0.5643 2.4057-1.4404v-12.385h2.7918z"/><path d="m185.89 53.339q0 4.2174-1.9156 6.1924-1.9156 1.975-5.8954 1.975-1.3216 0-2.5839-0.19305-1.2474-0.1782-2.4651-0.51975v-2.8512h0.1485q0.6831 0.2673 2.1681 0.6534 1.485 0.40095 2.97 0.40095 1.4256 0 2.3612-0.34155t1.4553-0.9504q0.51975-0.57915 0.7425-1.3959 0.22275-0.81675 0.22275-1.8266v-1.5147q-1.2622 1.0098-2.4206 1.5147-1.1434 0.49005-2.9254 0.49005-2.97 0-4.7223-2.1384-1.7374-2.1532-1.7374-6.0588 0-2.1384 0.594-3.6828 0.60885-1.5592 1.6484-2.6878 0.96525-1.0544 2.3463-1.6335 1.381-0.594 2.7472-0.594 1.4404 0 2.4057 0.297 0.9801 0.28215 2.0642 0.87615l0.1782-0.7128h2.6136zm-2.7918-2.673v-9.0436q-1.1138-0.5049-2.079-0.7128-0.9504-0.22275-1.9008-0.22275-2.3018 0-3.6234 1.5444t-1.3216 4.4847q0 2.7918 0.9801 4.2322 0.9801 1.4404 3.2522 1.4404 1.2177 0 2.4354-0.46035 1.2326-0.4752 2.2572-1.2622z"/></g><path d="m205.98 46.805q0 2.079-0.594 3.7422-0.57915 1.6632-1.5741 2.7918-1.0544 1.1731-2.3166 1.7671-1.2622 0.57915-2.777 0.57915-1.4108 0-2.4651-0.34155-1.0544-0.3267-2.079-0.891l-0.1782 0.7722h-2.6136v-23.107h2.7918v8.2566q1.1732-0.96525 2.4948-1.5741 1.3216-0.6237 2.97-0.6237 2.9403 0 4.6332 2.2572 1.7078 2.2572 1.7078 6.3706zm-2.8809 0.07425q0-2.97-0.9801-4.4995-0.9801-1.5444-3.163-1.5444-1.2177 0-2.4651 0.5346-1.2474 0.51975-2.3166 1.3514v9.504q1.188 0.5346 2.0344 0.7425 0.86129 0.2079 1.9453 0.2079 2.3166 0 3.6234-1.5147 1.3216-1.5295 1.3216-4.7817z"/><path d="m224.47 46.939q0 4.054-2.079 6.4003-2.079 2.3463-5.5688 2.3463-3.5194 0-5.5984-2.3463-2.0642-2.3463-2.0642-6.4003 0-4.054 2.0642-6.4003 2.079-2.3611 5.5984-2.3611 3.4898 0 5.5688 2.3611 2.079 2.3463 2.079 6.4003zm-2.8809 0q0-3.2224-1.2622-4.7817-1.2622-1.5741-3.5046-1.5741-2.272 0-3.5343 1.5741-1.2474 1.5592-1.2474 4.7817 0 3.1185 1.2622 4.7371 1.2622 1.6038 3.5194 1.6038 2.2275 0 3.4898-1.589 1.2771-1.6038 1.2771-4.752z"/><path d="m242.56 55.225h-2.7918v-1.8414q-1.4107 1.1137-2.7027 1.7077t-2.8512 0.594q-2.6136 0-4.0689-1.5889-1.4553-1.6038-1.4553-4.6926v-10.766h2.7918v9.4446q0 1.2622 0.1188 2.1681 0.1188 0.891 0.5049 1.5295 0.40095 0.6534 1.0395 0.9504t1.8562 0.297q1.084 0 2.3612-0.5643 1.292-0.5643 2.4057-1.4404v-12.385h2.7918z"/><path d="m261.92 55.225h-2.7918v-9.4446q0-1.1434-0.13364-2.1384-0.13365-1.0098-0.49005-1.5741-0.37125-0.6237-1.0692-0.9207-0.69795-0.31185-1.8117-0.31185-1.1434 0-2.3908 0.5643-1.2474 0.5643-2.3908 1.4404v12.385h-2.7918v-16.587h2.7918v1.8414q1.3068-1.084 2.7027-1.6929 1.3959-0.60885 2.866-0.60885 2.6878 0 4.0986 1.6186t1.4108 4.6629z"/><path d="m275.91 55.076q-0.78705 0.2079-1.7226 0.34155-0.9207 0.13365-1.6484 0.13365-2.5394 0-3.861-1.3662-1.3216-1.3662-1.3216-4.3807v-8.8209h-1.886v-2.3463h1.886v-4.7668h2.7918v4.7668h5.7618v2.3463h-5.7618v7.5586q0 1.3068 0.0594 2.0493 0.0594 0.72765 0.4158 1.3662 0.3267 0.594 0.891 0.87615 0.57915 0.2673 1.7523 0.2673 0.6831 0 1.4256-0.19305 0.7425-0.2079 1.0692-0.34155h0.1485z"/><path d="m293.53 38.637-9.6822 22.706h-2.9848l3.0888-6.9201-6.6082-15.786h3.0294l5.0936 12.296 5.1381-12.296z"/></g></g></svg>
