<?xml version="1.0" encoding="UTF-8" standalone="no"?>
<!-- Generator: Adobe Illustrator 21.0.0, SVG Export Plug-In . SVG Version: 6.00 Build 0)  -->

<svg
   version="1.1"
   id="Layer_1"
   x="0px"
   y="0px"
   viewBox="0 0 46.436123 45.4068"
   width="60.454575"
   height="58.616051"
   xml:space="preserve"
   xmlns="http://www.w3.org/2000/svg"
   xmlns:svg="http://www.w3.org/2000/svg"><defs
   id="defs2">
	

		
	
			
			
			
			
			
			
			
			
			
		</defs>
<style
   type="text/css"
   id="style1">
	.st0{fill:#FFFFFF;}
	.st1{fill:#003366;}
	.st2{fill:#EA7E20;}
</style>
<g
   id="g1"
   transform="translate(-4.3974428,-5.0932)">
	<polygon
   id="path-1_4_"
   class="st0"
   points="4.2,5.1 51,5.1 51,48.3 4.2,48.3 " />
</g>
<path
   id="Fill-1_3_"
   class="st1"
   d="m 30.533565,23.3068 c 0,-4.1 -3.3,-7.4 -7.4,-7.4 -4.1,0 -7.4,3.3 -7.4,7.4 0,3.2 2,5.9 4.8,6.9 l -2.9,15.2 h 5.5 5.5 l -2.8,-15.2 c 2.7,-1.1 4.7,-3.7 4.7,-6.9" /><g
   id="Group-5_3_"
   transform="translate(-4.3664348,-5.7)">
				<g
   id="Clip-4_3_">
				</g>
				<path
   id="Fill-3_3_"
   class="st2"
   d="M 51,28.9 C 51,16.1 40.5,5.7 27.6,5.7 14.7,5.7 4.2,16.1 4.2,28.9 c 0,8.5 4.6,15.9 11.5,19.9 l 1.5,-9.9 c -2.2,-2.4 -3.6,-5.7 -3.6,-9.2 0,-7.6 6.2,-13.8 13.9,-13.8 7.7,0 13.9,6.2 13.9,13.8 0,3.6 -1.4,6.8 -3.6,9.3 l 1.5,9.9 c 7,-4 11.7,-11.5 11.7,-20" />
			</g>

</svg>
