<svg version="1.1" id="Layer_1" xmlns="http://www.w3.org/2000/svg" xmlns:xlink="http://www.w3.org/1999/xlink" x="0px" y="0px"
	 viewBox="0 0 512 512">
<path fill="#F56C2D" d="M195.4,252c0.8-12,5.1-23.5,12.4-33c7.3-9.5,17.3-16.7,28.7-20.5c11.4-3.9,23.6-4.2,35.2-1.1
	c11.6,3.1,22,9.6,29.9,18.6s13,20.2,14.5,32.1c1.6,11.9-0.5,24-5.8,34.8c-5.3,10.8-13.7,19.7-24.1,25.7c-10.4,6-22.4,8.8-34.3,8
	c-8-0.5-15.7-2.6-22.9-6.1s-13.5-8.4-18.8-14.4c-5.2-6-9.3-13-11.8-20.5C195.9,267.9,194.9,259.9,195.4,252z M245.7,410.7
	c9.2,0.6,18.4,0.4,27.5-0.6c0.3,0,0.6,0,0.9,0.1c0.3,0.1,0.5,0.3,0.8,0.5c0.2,0.2,0.4,0.5,0.5,0.8c0.1,0.3,0.2,0.6,0.2,0.9
	c-2.4,16.2-8.7,31.6-18.3,44.9c-0.6,0.7-0.9,1.5-1,2.4c0,1.1,0.3,2.2,1.1,3.1c0.8,0.8,1.8,1.3,2.9,1.4c0.9,0,1.8-0.2,2.5-0.6
	C319,432.3,364.4,385,393.4,327.7c13-24.9,18.9-52.9,17.2-80.9c-1.7-28-11-55.1-26.9-78.3c-15.9-23.2-37.8-41.6-63.3-53.3
	c-25.5-11.7-53.8-16.2-81.7-13.1c-0.3,0-0.6,0-0.9-0.1c-0.3-0.1-0.6-0.3-0.8-0.5c-0.2-0.2-0.4-0.5-0.5-0.8c-0.1-0.3-0.2-0.6-0.1-0.9
	c2.4-16.2,8.7-31.7,18.3-45c0.5-0.6,0.8-1.3,0.9-2.1c0.1-0.8,0-1.6-0.3-2.3c-0.3-0.7-0.8-1.3-1.4-1.8c-0.6-0.5-1.4-0.7-2.2-0.8
	c-0.9,0-1.8,0.2-2.5,0.6C193,79.7,147.6,127,118.6,184.3c-11.9,22.8-17.9,48.3-17.4,74c0.4,25.7,7.3,51,19.9,73.4
	c12.6,22.4,30.6,41.4,52.4,55.1c21.8,13.7,46.6,21.8,72.3,23.5V410.7z"/>
</svg>
