<svg height="9.271281mm" viewBox="0 0 9.4160595 9.2712812" width="9.41606mm" xmlns="http://www.w3.org/2000/svg" xmlns:xlink="http://www.w3.org/1999/xlink"><clipPath id="a"><path d="m489.472 315.691h38.4v37.647h-38.4z"/></clipPath><g clip-path="url(#a)" transform="matrix(.35277777 0 0 -.35277777 -175.031913 122.899)"><path d="m0 0c-2.855-.532-4.784-1.263-7.567-2.359.819 1.607 2.379 5.699 3.136 8.402 1.049-2.098 2.323-4.159 4.431-6.043m-4.072 8.694c-.499 1.752-1.186 5.655-.075 6.92 2.178-1.244.828-4.196.075-6.92m1.279 6.2c-.287 1.016-.979 1.526-1.56 1.451-.712-.092-1.456-.507-1.752-1.169-.841-1.885.915-7.459 1.182-8.389-1.705-5.153-7.56-15.365-10.429-16.055-.054.677.3 2.623 4.085 5.059.195.203.417.466.522.625-3.189-1.554-7.342-4.061-4.847-5.933.141-.105.35-.202.578-.287 1.911-.708 4.571 1.606 7.255 6.842 2.961.973 5.347 1.716 8.709 2.213 3.697-2.498 6.162-3.01 7.843-2.373.463.174 1.206.757 1.407 1.535-1.362-1.676-4.554-.512-7.103 1.088 2.352.248 4.787.41 5.834.075 1.33-.425 1.295-1.078 1.269-1.163.11.357.256.944-.032 1.412-1.124 1.824-6.287.762-8.16.566-2.961 1.789-4.993 4.967-5.815 7.263.781 2.961 1.613 5.117 1.014 7.24" fill="#ed1c24" fill-rule="evenodd" transform="translate(512.5085 332.0229)"/></g></svg>