<svg xmlns="http://www.w3.org/2000/svg" width="42" height="42" viewBox="0 0 42 42" fill="none" class="photoshop-40-2025">
<path id="Vector" d="M34.4678 0H7.53225C3.3723 0 0 3.3723 0 7.53225V34.4678C0 38.6277 3.3723 42 7.53225 42H34.4678C38.6277 42 42 38.6277 42 34.4678V7.53225C42 3.3723 38.6277 0 34.4678 0Z" fill="#001E36"/>
<path id="Vector_2" d="M14.6661 11.1485C20.1565 11.1485 23.2484 13.7203 23.2484 18.0259C23.2484 23.0539 19.0584 25.0767 15.1284 25.0767H12.47V30.5093H7.09517V11.1485H14.6661ZM12.47 15.7431V20.4821H14.8395C16.4866 20.4821 17.6425 19.8175 17.6425 18.1415C17.6425 16.61 16.66 15.7431 14.9551 15.7431H12.47Z" fill="#31A8FF"/>
<path id="Vector_3" d="M24.3408 29.5557L24.3698 25.0767C25.9013 26.0881 28.0396 26.7238 29.5134 26.7238C30.5247 26.7238 30.9871 26.4348 30.9871 25.9147C30.9871 25.3368 30.3514 25.1056 29.1377 24.7299C26.797 24.0364 24.2253 23.0828 24.2253 20.0198C24.2253 16.8989 26.797 15.1652 30.5247 15.1652C32.2874 15.1652 33.7323 15.4252 35.0037 15.9743L34.9748 20.251C33.9634 19.6441 31.9696 19.0951 30.6692 19.0951C29.7156 19.0951 29.34 19.3841 29.34 19.8175C29.34 20.3376 29.8023 20.4821 31.1894 20.9156C33.8768 21.7247 36.1307 22.5916 36.1307 25.7413C36.1307 28.7465 33.6745 30.7693 29.8312 30.7693C27.8084 30.7693 25.9013 30.4226 24.3408 29.5557Z" fill="#31A8FF"/>
<defs>
<clipPath id="clip0_2136_8738">
<rect width="42" height="42" fill="white"/>
</clipPath>
</defs>
</svg>