<svg xmlns="http://www.w3.org/2000/svg" id="Photoshop_40" data-name="Photoshop 40" width="40" height="39" viewBox="0 0 40 39">
  <path id="Path_99550" data-name="Path 99550" d="M7.125,0H33a7.005,7.005,0,0,1,7,7.1V31.9A7.11,7.11,0,0,1,32.875,39H7.125A7.11,7.11,0,0,1,0,31.9V7.1A7.032,7.032,0,0,1,7.125,0Z" fill="#001e36"/>
  <path id="Path_99551" data-name="Path 99551" d="M7.2,25.375V8.25c0-.125,0-.25.125-.25h5.25a8.738,8.738,0,0,1,3.375.5A6.555,6.555,0,0,1,18.2,9.75a4.945,4.945,0,0,1,1.25,1.875,6.349,6.349,0,0,1,.375,2.125,6.1,6.1,0,0,1-1,3.5,5.926,5.926,0,0,1-2.625,2,11.784,11.784,0,0,1-3.75.625H10.825V25.25a.436.436,0,0,1-.125.25H7.45C7.325,25.625,7.2,25.5,7.2,25.375ZM10.825,11.25v5.625h1.5a9.649,9.649,0,0,0,1.875-.25,3.236,3.236,0,0,0,1.375-.875,2.444,2.444,0,0,0,.5-1.75,3.328,3.328,0,0,0-.375-1.5,4.313,4.313,0,0,0-1.125-1,5.182,5.182,0,0,0-2-.375H11.45A2.543,2.543,0,0,0,10.825,11.25Z" transform="translate(1.8 1.942)" fill="#31a8ff"/>
  <path id="Path_99552" data-name="Path 99552" d="M27.35,14.95a6.279,6.279,0,0,0-1.625-.625,9.649,9.649,0,0,0-1.875-.25,2.752,2.752,0,0,0-1,.125c-.25,0-.375.125-.5.375-.125.125-.125.25-.125.5a.459.459,0,0,0,.125.375,2.727,2.727,0,0,0,.625.5,4.44,4.44,0,0,0,1.125.5,9.369,9.369,0,0,1,2.5,1.25,7.163,7.163,0,0,1,1.375,1.375,3.993,3.993,0,0,1,.375,1.75,5.093,5.093,0,0,1-.625,2.25,5.535,5.535,0,0,1-1.875,1.5,7.564,7.564,0,0,1-3,.5,13.774,13.774,0,0,1-2.25-.25,9.207,9.207,0,0,1-1.75-.5c-.125,0-.25-.25-.25-.375V21.075l.125-.125h.125a10.814,10.814,0,0,0,2.125.875,9.715,9.715,0,0,0,2,.25,3.345,3.345,0,0,0,1.375-.25.844.844,0,0,0,.5-.75.687.687,0,0,0-.375-.625,4.954,4.954,0,0,0-1.625-.75,8.644,8.644,0,0,1-2.375-1.25,4.324,4.324,0,0,1-1.25-1.375,3.992,3.992,0,0,1-.375-1.75,3.777,3.777,0,0,1,.625-2,3.448,3.448,0,0,1,1.75-1.5,6.694,6.694,0,0,1,3-.625,12.127,12.127,0,0,1,2.125.125,6.593,6.593,0,0,1,1.5.375l.125.125v3l-.125.125Z" transform="translate(4.65 2.731)" fill="#31a8ff"/>
</svg>