<svg height="325.31201" viewBox="0 0 325.31332 325.31201" width="325.31332" xmlns="http://www.w3.org/2000/svg" xmlns:xlink="http://www.w3.org/1999/xlink"><clipPath id="a"><path d="m0 243.984h243.985v-243.984h-243.985z"/></clipPath><g clip-path="url(#a)" transform="matrix(1.3333333 0 0 -1.3333333 0 325.312)"><path d="m0 0c0-67.375-54.618-121.992-121.992-121.992s-121.992 54.617-121.992 121.992 54.618 121.992 121.992 121.992 121.992-54.617 121.992-121.992" fill="#fff" transform="translate(243.984 121.9921)"/><path d="m0 0c-67.374 0-121.992-54.618-121.992-121.992 0-51.681 32.155-95.863 77.535-113.638-1.066 9.652-2.029 24.496.424 35.033 2.216 9.52 14.304 60.638 14.304 60.638s-3.649 7.308-3.649 18.112c0 16.963 9.832 29.627 22.074 29.627 10.408 0 15.435-7.815 15.435-17.185 0-10.466-6.664-26.115-10.103-40.617-2.874-12.143 6.089-22.045 18.065-22.045 21.682 0 38.349 22.862 38.349 55.864 0 29.208-20.988 49.631-50.957 49.631-34.71 0-55.085-26.035-55.085-52.942 0-10.484 4.039-21.728 9.079-27.839.997-1.208 1.143-2.267.847-3.499-.927-3.854-2.985-12.14-3.389-13.835-.532-2.233-1.768-2.706-4.08-1.632-15.236 7.093-24.762 29.368-24.762 47.261 0 38.482 27.96 73.822 80.605 73.822 42.319 0 75.206-30.155 75.206-70.456 0-42.044-26.509-75.88-63.303-75.88-12.361 0-23.983 6.422-27.961 14.008 0 0-6.117-23.292-7.6-28.999-2.754-10.597-10.189-23.879-15.162-31.981 11.414-3.534 23.544-5.441 36.12-5.441 67.375 0 121.993 54.618 121.993 121.993 0 67.374-54.618 121.992-121.993 121.992" fill="#bd081c" transform="translate(121.9919 243.9842)"/></g></svg>