<?xml version="1.0" encoding="UTF-8" standalone="no"?>
<!-- Created with Inkscape (http://www.inkscape.org/) -->

<svg
   xmlns:dc="http://purl.org/dc/elements/1.1/"
   xmlns:cc="http://creativecommons.org/ns#"
   xmlns:rdf="http://www.w3.org/1999/02/22-rdf-syntax-ns#"
   xmlns:svg="http://www.w3.org/2000/svg"
   xmlns="http://www.w3.org/2000/svg"
   xmlns:sodipodi="http://sodipodi.sourceforge.net/DTD/sodipodi-0.dtd"
   xmlns:inkscape="http://www.inkscape.org/namespaces/inkscape"
   version="1.1"
   id="svg2"
   xml:space="preserve"
   width="325.31332"
   height="325.31201"
   viewBox="0 0 325.31332 325.31201"
   sodipodi:docname="pintrest.svg"
   inkscape:version="0.92.1 r15371"><metadata
     id="metadata8"><rdf:RDF><cc:Work
         rdf:about=""><dc:format>image/svg+xml</dc:format><dc:type
           rdf:resource="http://purl.org/dc/dcmitype/StillImage" /><dc:title></dc:title></cc:Work></rdf:RDF></metadata><defs
     id="defs6"><clipPath
       clipPathUnits="userSpaceOnUse"
       id="clipPath18"><path
         d="M 0,243.984 H 243.985 V 0 H 0 Z"
         id="path16"
         inkscape:connector-curvature="0" /></clipPath></defs><sodipodi:namedview
     pagecolor="#ffffff"
     bordercolor="#666666"
     borderopacity="1"
     objecttolerance="10"
     gridtolerance="10"
     guidetolerance="10"
     inkscape:pageopacity="0"
     inkscape:pageshadow="2"
     inkscape:window-width="640"
     inkscape:window-height="480"
     id="namedview4"
     showgrid="false"
     inkscape:zoom="0.72545738"
     inkscape:cx="162.65666"
     inkscape:cy="162.65601"
     inkscape:window-x="0"
     inkscape:window-y="0"
     inkscape:window-maximized="0"
     inkscape:current-layer="g10" /><g
     id="g10"
     inkscape:groupmode="layer"
     inkscape:label="badgeRGB"
     transform="matrix(1.3333333,0,0,-1.3333333,0,325.312)"><g
       id="g12"><g
         id="g14"
         clip-path="url(#clipPath18)"><g
           id="g20"
           transform="translate(243.984,121.9921)"><path
             d="m 0,0 c 0,-67.375 -54.618,-121.992 -121.992,-121.992 -67.374,0 -121.992,54.617 -121.992,121.992 0,67.375 54.618,121.992 121.992,121.992 C -54.618,121.992 0,67.375 0,0"
             style="fill:#ffffff;fill-opacity:1;fill-rule:nonzero;stroke:none"
             id="path22"
             inkscape:connector-curvature="0" /></g><g
           id="g24"
           transform="translate(121.9919,243.9842)"><path
             d="m 0,0 c -67.374,0 -121.992,-54.618 -121.992,-121.992 0,-51.681 32.155,-95.863 77.535,-113.638 -1.066,9.652 -2.029,24.496 0.424,35.033 2.216,9.52 14.304,60.638 14.304,60.638 0,0 -3.649,7.308 -3.649,18.112 0,16.963 9.832,29.627 22.074,29.627 10.408,0 15.435,-7.815 15.435,-17.185 0,-10.466 -6.664,-26.115 -10.103,-40.617 -2.874,-12.143 6.089,-22.045 18.065,-22.045 21.682,0 38.349,22.862 38.349,55.864 0,29.208 -20.988,49.631 -50.957,49.631 -34.71,0 -55.085,-26.035 -55.085,-52.942 0,-10.484 4.039,-21.728 9.079,-27.839 0.997,-1.208 1.143,-2.267 0.847,-3.499 -0.927,-3.854 -2.985,-12.14 -3.389,-13.835 -0.532,-2.233 -1.768,-2.706 -4.08,-1.632 -15.236,7.093 -24.762,29.368 -24.762,47.261 0,38.482 27.96,73.822 80.605,73.822 42.319,0 75.206,-30.155 75.206,-70.456 0,-42.044 -26.509,-75.88 -63.303,-75.88 -12.361,0 -23.983,6.422 -27.961,14.008 0,0 -6.117,-23.292 -7.6,-28.999 -2.754,-10.597 -10.189,-23.879 -15.162,-31.981 11.414,-3.534 23.544,-5.441 36.12,-5.441 67.375,0 121.993,54.618 121.993,121.993 C 121.993,-54.618 67.375,0 0,0"
             style="fill:#bd081c;fill-opacity:1;fill-rule:nonzero;stroke:none"
             id="path26"
             inkscape:connector-curvature="0" /></g></g></g></g></svg>