<?xml version="1.0" encoding="UTF-8" standalone="no"?>
<svg
   id="Layer_2"
   viewBox="0 0 45.359984 60.000032"
   version="1.1"
   width="45.359985"
   height="60.000031"
   xmlns:xlink="http://www.w3.org/1999/xlink"
   xmlns="http://www.w3.org/2000/svg"
   xmlns:svg="http://www.w3.org/2000/svg">
  <defs
     id="defs2">
    <style
       id="style1">.cls-1{fill:url(#New_Gradient_Swatch_1);}.cls-1,.cls-2,.cls-3{stroke-width:0px;}.cls-2{fill:url(#New_Gradient_Swatch_1-2);}.cls-3{fill:#1f2961;}</style>
    <linearGradient
       id="New_Gradient_Swatch_1"
       x1="14.84134"
       y1="22.54369"
       x2="27.473141"
       y2="44.649342"
       gradientUnits="userSpaceOnUse">
      <stop
         offset="0"
         stop-color="#909cf7"
         id="stop1" />
      <stop
         offset="1"
         stop-color="#4b38d8"
         id="stop2" />
    </linearGradient>
    <linearGradient
       id="New_Gradient_Swatch_1-2"
       x1="7.9837956"
       y1="-1.3582919"
       x2="21.000988"
       y2="21.421793"
       xlink:href="#New_Gradient_Swatch_1" />
    <linearGradient
       xlink:href="#New_Gradient_Swatch_1"
       id="linearGradient3"
       gradientUnits="userSpaceOnUse"
       x1="14.84134"
       y1="22.54369"
       x2="27.473141"
       y2="44.649342" />
  </defs>
  <g
     id="Plausible_-_Branding">
    <g
       id="Gradient_Logo_-_Purple_Gradient_on_White">
      <g
         id="Symbol_-_Purple_Gradient">
        <path
           class="cls-1"
           d="M 45.245606,22.602754 C 44.154504,33.058516 35.012857,40.830036 24.500319,40.830034 h -4.047804 v 9.570007 c 0,5.301929 -4.298063,9.599991 -9.599991,9.599991 H 3.3599854 C 1.5043167,60.000032 0,58.495715 0,56.640047 V 36.937532 l 5.0380685,-7.068634 c 0.9118097,-1.27931 2.587965,-1.7567 4.0369945,-1.149787 l 2.865714,1.200279 c 1.444482,0.605008 3.115378,0.12945 4.024797,-1.145509 l 6.717201,-9.417163 c 0.907115,-1.271729 2.574394,-1.745081 4.014428,-1.139726 l 5.519868,2.320419 c 1.443027,0.606613 3.113769,0.131956 4.022317,-1.142739 l 6.459415,-9.062576 c 2.024809,3.559796 3.014507,7.78877 2.546803,12.270658 z"
           id="path2"
           style="fill:url(#linearGradient3)" />
        <path
           class="cls-2"
           d="m 3.2920959,28.87263 c 0.82329,-1.155128 2.0209115,-2.043497 3.4138697,-2.311439 1.0861554,-0.208926 2.156905,-0.09928 3.1472499,0.315518 l 2.8649905,1.199951 c 0.1651,0.06915 0.338867,0.104187 0.516479,0.104187 0.436585,0 0.848816,-0.212463 1.102661,-0.568359 l 6.59421,-9.244793 c 0.82315,-1.154021 2.020407,-2.04101 3.412488,-2.308314 1.082137,-0.207789 2.146358,-0.0989 3.128251,0.313849 l 5.519836,2.320435 c 0.166565,0.07007 0.341797,0.105529 0.520691,0.105529 0.435181,0 0.845642,-0.211364 1.097962,-0.565368 l 6.91925,-9.7077641 C 37.827214,3.3644409 31.780217,0 24.945012,0 H 3.3599904 C 1.5043217,0 5e-6,1.5043167 5e-6,3.3599854 V 33.491638 Z"
           id="path3"
           style="fill:url(#New_Gradient_Swatch_1-2)" />
      </g>
    </g>
  </g>
</svg>
