<svg fill="none" height="32" viewBox="0 0 32 32" width="32" xmlns="http://www.w3.org/2000/svg"><path d="m18.0379.13033c-3.1388-.403077-6.3266.133689-9.16038 1.54242-2.83373 1.40873-5.18608 3.62614-6.75956 6.37182-1.573474 2.74573-2.297402 5.89633-2.0802323 9.05343.2171693 3.1571 1.3656823 6.179 3.3002923 8.6833 1.93461 2.5044 4.56843 4.3788 7.56838 5.3863 2.9999 1.0074 6.2312 1.1026 9.2853.2736 3.054-.8291 5.7937-2.5452 7.8724-4.9313 2.0787-2.3862 3.4031-5.3351 3.8058-8.474.5399-4.2086-.614-8.45933-3.208-11.81721-2.5939-3.35789-6.4154-5.547909-10.624-6.08836z" fill="#ff6c37"/><g fill="#fff"><path d="m11.5675 17.0112c.0062.0127.0167.0228.0295.0286.0128.0059.0273.0071.0409.0034l2.56-.552-1.0768-1.0912-1.5344 1.5344c-.0121.0082-.0207.0205-.0243.0347-.0035.0142-.0017.0292.0051.0421z"/><path d="m23.5547 6.01921c-.3567.00036-.7089.08074-1.0305.23521-.3215.15447-.6044.3791-.8277.65736-.2232.27825-.3813.60304-.4624.95045s-.0833.70859-.0064 1.05696.231.67505.4509.95599c.2199.28092.5.50902.8197.66732.3197.1584.6708.243 1.0275.2477s.71-.0707 1.0337-.2206l-1.6224-1.62239c-.0186-.01858-.0334-.04065-.0435-.06495-.01-.0243-.0152-.05035-.0152-.07665 0-.02631.0052-.05236.0152-.07666.0101-.0243.0249-.04637.0435-.06494l2.12-2.1184c-.4257-.34232-.9561-.52814-1.5024-.5264z"/><path d="m25.3483 6.8208-1.9872 1.9792 1.5584 1.5584c.1148-.0806.2219-.1717.32-.272.4271-.43.6757-1.00568.6959-1.61142.0202-.60575-.1896-1.1967-.5871-1.65418z"/><path d="m21.3723 10.4736h-.0352c-.0413-.0003-.0826.0034-.1232.0112h-.0144c-.0446.0096-.0884.0224-.1312.0384l-.0336.016c-.0322.0134-.0632.0295-.0928.048l-.0352.0224c-.0387.0267-.0751.0567-.1088.0896l-5.8928 5.8944.7296.7296 6.24-5.4768c.0353-.0309.0674-.0652.096-.1024l.0272-.0352c.0213-.0312.0406-.0638.0576-.0976.0096-.0192.0176-.0384.0256-.0576.0108-.0255.0198-.0517.0272-.0784 0-.0192.0112-.0384.016-.0576.0079-.0396.0132-.0797.016-.12v-.0528c0-.0288 0-.0576 0-.0864s0-.0384-.008-.0576c-.0296-.151-.1033-.2898-.2118-.3989s-.247-.1835-.3978-.2139h-.0304c-.0396-.0076-.0797-.0124-.12-.0144z"/><path d="m13.3963 15.1168 1.2096 1.2032 5.9088-5.9088c.1923-.188.4428-.3048.7104-.3312-1.0448-.8-2.184-.5904-7.8288 5.0368z"/><path d="m22.2075 12.0768-.072.0704-6.24 5.4752 1.0608 1.0592c2.6304-2.488 4.9648-4.8576 5.2512-6.6048z"/><path d="m6.64277 24.904c.00324.0113.0099.0214.01905.0288.00916.0075.02038.0119.03215.0128l2.71999.1872-1.5248-1.5248-1.23359 1.232c-.008.0083-.01345.0188-.01572.0301-.00226.0114-.00125.0231.00292.0339z"/><path d="m8.17394 23.3248 1.60799 1.608c.01909.0204.04463.0336.07231.0374s.05582-.0021.07969-.0166c.02493-.0124.04478-.033.05617-.0584.0114-.0254.0136-.054.00623-.0808l-.2704-1.1552c-.01751-.0749-.00955-.1535.02262-.2233.03216-.0698.0867-.1269.15498-.1623 2.81917-1.4128 5.09277-2.8672 6.76157-4.32l-1.12-1.12-2.4.5168z"/><path d="m15.2011 17.4944-.6016-.6016-.832.8304c-.006.0072-.0093.0163-.0093.0256 0 .0094.0033.0184.0093.0256.0039.0085.0107.0154.0193.0192.0085.0038.0181.0044.0271.0016z"/></g><path d="m25.4043 8.1104c-.0082-.02518-.0217-.04831-.0396-.06784-.0178-.01953-.0397-.03501-.0641-.04539-.0243-.01039-.0506-.01544-.0771-.01481-.0265.00062-.0525.00691-.0764.01843-.0238.01152-.0449.02801-.0619.04836-.0169.02035-.0293.04409-.0363.06963s-.0085.05229-.0043.07844.0139.0511.0285.07318c.0478.09622.0668.20422.0546.31097s-.0551.20768-.1234.29063c-.0224.0271-.0367.06001-.0411.09492-.0045.0349.0011.07035.016.10221s.0386.05883.0683.07775c.0296.01892.0641.02902.0992.02912.0272-.00029.054-.00645.0786-.01805.0246-.01159.0463-.02836.0638-.04915.1133-.13769.1844-.30513.2048-.48222s-.0107-.35632-.0896-.51618z" fill="#ff6c37"/></svg>