<svg xmlns="http://www.w3.org/2000/svg" xmlns:xlink="http://www.w3.org/1999/xlink" width="512" height="512"><path fill="#c7cac7" d="M430.966 307.345v148.3h25.678v-26.172H508V150.3H11.56v279.172h51.356v26.172h25.678v-148.3z"/><path fill="#556080" d="M499.44 307.345V150.3H3v157.034h419.407z"/><path fill="#7383bf" d="M62.915 307.345h393.73v148.3H62.915z"/><path d="M430.966 2v148.3H88.593V2zm0 305.345V508H88.593V307.345" fill="#edeada"/><g fill="#cec9ae"><use xlink:href="#B"/><use xlink:href="#B" y="43.621"/></g><circle fill="#a4e869" r="33.448" cy="228.828" cx="430.966"/><defs ><path id="B" d="M362.492 385.862H157.068c-4.733 0-8.56-3.9-8.56-8.724s3.826-8.724 8.56-8.724h205.424c4.733 0 8.56 3.9 8.56 8.724s-3.826 8.724-8.56 8.724z"/></defs></svg>