<?xml version="1.0" encoding="UTF-8" standalone="no"?>
<!-- Created with Inkscape (http://www.inkscape.org/) -->

<svg
   xmlns:dc="http://purl.org/dc/elements/1.1/"
   xmlns:cc="http://creativecommons.org/ns#"
   xmlns:rdf="http://www.w3.org/1999/02/22-rdf-syntax-ns#"
   xmlns:svg="http://www.w3.org/2000/svg"
   xmlns="http://www.w3.org/2000/svg"
   xmlns:sodipodi="http://sodipodi.sourceforge.net/DTD/sodipodi-0.dtd"
   xmlns:inkscape="http://www.inkscape.org/namespaces/inkscape"
   version="1.1"
   id="svg29"
   xml:space="preserve"
   width="38.400002"
   height="53.333332"
   viewBox="0 0 38.400002 53.333332"
   sodipodi:docname="reddit.svg"
   inkscape:version="0.92.1 r15371"><metadata
     id="metadata35"><rdf:RDF><cc:Work
         rdf:about=""><dc:format>image/svg+xml</dc:format><dc:type
           rdf:resource="http://purl.org/dc/dcmitype/StillImage" /><dc:title></dc:title></cc:Work></rdf:RDF></metadata><defs
     id="defs33" /><sodipodi:namedview
     pagecolor="#ffffff"
     bordercolor="#666666"
     borderopacity="1"
     objecttolerance="10"
     gridtolerance="10"
     guidetolerance="10"
     inkscape:pageopacity="0"
     inkscape:pageshadow="2"
     inkscape:window-width="1366"
     inkscape:window-height="739"
     id="namedview31"
     showgrid="false"
     inkscape:zoom="7.3981049"
     inkscape:cx="18.1282"
     inkscape:cy="18.682693"
     inkscape:window-x="0"
     inkscape:window-y="0"
     inkscape:window-maximized="1"
     inkscape:current-layer="g37" /><g
     id="g37"
     inkscape:groupmode="layer"
     inkscape:label="ink_ext_XXXXXX"
     transform="matrix(1.3333333,0,0,-1.3333333,0,53.333333)"><g
       id="g39"
       transform="scale(0.1)"><path
         d="m 282.492,281.926 c 0,15.023 -12.183,27.207 -27.207,27.207 -8.449,0 -16,-3.856 -20.988,-9.903 -22.504,15.805 -54.625,25.7 -90.285,25.7 -35.664,0 -67.7776,-9.891 -90.2776,-25.696 -4.9922,6.043 -12.5391,9.899 -20.9883,9.899 -15.0313,0 -27.20704,-12.184 -27.20704,-27.207 0,-11.297 6.88284,-20.988 16.68754,-25.102 -0.9453,-4.015 -1.4375,-8.129 -1.4375,-12.316 0,-30.793 26.5234,-57.543 65.4726,-71.055 -0.4375,-2.437 -0.8437,-4.91 -1.2109,-7.414 -17.9258,-6.898 -30.9102,-27.156 -30.9102,-51.078 0,-26.754 16.2383,-48.9258 37.4649,-52.9532 3.1015,-10.3359 6.9023,-19.6875 11.2615,-27.7734 -3.91,1.4726 -8.2654,2.2969 -12.8592,2.2969 -16.9101,0 -30.6015,-11.1094 -30.6015,-24.7969 0,-2.16409 0.4414,-4.21096 1.0859,-6.19534 H 226.719 c 0.621,1.98438 1.074,4.03125 1.074,6.19534 0,13.6875 -13.699,24.7969 -30.621,24.7969 -4.188,0 -8.18,-0.6836 -11.817,-1.918 4.278,7.9961 8.008,17.2148 11.063,27.3945 21.234,4.0195 37.473,26.1953 37.473,52.9532 0,23.926 -12.985,44.184 -30.914,51.078 -0.368,2.508 -0.77,4.981 -1.211,7.414 38.949,13.516 65.476,40.262 65.476,71.055 0,4.187 -0.492,8.301 -1.437,12.316 9.8,4.117 16.687,13.805 16.687,25.102"
         style="fill:#ffffff;fill-opacity:1;fill-rule:nonzero;stroke:none"
         id="path41"
         inkscape:connector-curvature="0" /><path
         d="m 241.637,351.57 c 11.859,0 21.457,9.602 21.457,21.446 0,11.843 -9.598,21.445 -21.457,21.445 -11.84,0 -21.438,-9.602 -21.438,-21.445 0,-11.844 9.598,-21.446 21.438,-21.446"
         style="fill:#ffffff;fill-opacity:1;fill-rule:nonzero;stroke:none"
         id="path43"
         inkscape:connector-curvature="0" /><path
         d="m 100.594,280.141 c -10.9885,0 -19.9338,-8.946 -19.9338,-19.938 0,-10.992 8.9453,-19.933 19.9338,-19.933 10.996,0 19.941,8.941 19.941,19.933 0,10.992 -8.945,19.938 -19.941,19.938"
         style="fill:#ef381f;fill-opacity:1;fill-rule:nonzero;stroke:none"
         id="path45"
         inkscape:connector-curvature="0" /><path
         d="m 187.414,280.152 c -10.996,0 -19.941,-8.949 -19.941,-19.949 0,-10.996 8.945,-19.941 19.941,-19.941 11.004,0 19.953,8.945 19.953,19.941 0,11 -8.949,19.949 -19.953,19.949"
         style="fill:#ef381f;fill-opacity:1;fill-rule:nonzero;stroke:none"
         id="path47"
         inkscape:connector-curvature="0" /><path
         d="m 144.012,189.148 c 21.465,0 36.777,4.715 46.492,14.418 2.164,2.161 2.168,5.668 0.008,7.832 -2.164,2.161 -5.668,2.165 -7.832,0.004 -7.535,-7.519 -20.289,-11.179 -38.668,-11.179 -18.383,0 -31.133,3.656 -38.653,11.175 -2.164,2.165 -5.6676,2.165 -7.8317,0 -2.164,-2.16 -2.164,-5.668 0,-7.832 9.7027,-9.703 25.0117,-14.418 46.4847,-14.418"
         style="fill:#100f0d;fill-opacity:1;fill-rule:nonzero;stroke:none"
         id="path49"
         inkscape:connector-curvature="0" /><path
         d="m 269.07,265.234 c -4.629,12.657 -13.496,24.403 -26.144,34.469 3.508,2.449 7.765,3.891 12.359,3.891 11.949,0 21.668,-9.723 21.668,-21.668 0,-6.715 -3.074,-12.715 -7.883,-16.692 z M 144.012,169.621 c -64.8948,0 -117.6839,33.594 -117.6839,74.887 0,41.289 52.7891,74.883 117.6839,74.883 64.894,0 117.691,-33.594 117.691,-74.883 0,-41.293 -52.797,-74.887 -117.691,-74.887 z m 84.34,-54.66 c 0,-19.9649 -9.895,-37.1133 -23.938,-44.3672 4.348,17.746 6.754,37.6092 6.754,58.3672 0,9.254 -0.469,18.246 -1.34,26.918 11.106,-8.469 18.524,-23.637 18.524,-40.918 z m -31.18,-83.9688 c 13.832,0 25.082,-8.6367 25.082,-19.2578 0,-0.2188 -0.008,-0.4375 -0.02,-0.6602 h -46.921 c 4.984,5.1485 9.574,11.5 13.683,18.8438 2.567,0.6836 5.313,1.0742 8.176,1.0742 z M 64.9648,11.0742 c -0.0117,0.2227 -0.0195,0.4414 -0.0195,0.6602 0,10.6211 11.2422,19.2578 25.0625,19.2578 3.2344,0 6.3242,-0.4727 9.168,-1.3359 4.0702,-7.2344 8.6092,-13.4961 13.5312,-18.5821 z m -5.289,103.8868 c 0,17.281 7.4219,32.445 18.5234,40.918 -0.8672,-8.676 -1.3359,-17.664 -1.3359,-26.918 0,-20.758 2.4062,-40.6212 6.75,-58.3633 -14.043,7.2539 -23.9375,24.3984 -23.9375,44.3633 z m 137.6212,51.215 c 1.808,-11.789 2.797,-24.301 2.797,-37.215 0,-54.6446 -17.746,-103.7891 -42.375,-117.8868 H 130.301 C 105.68,25.168 87.9375,74.3125 87.9375,128.961 c 0,12.91 0.9883,25.426 2.793,37.211 16.5195,-4.984 34.5975,-7.625 53.2815,-7.625 18.683,0 36.765,2.641 53.285,7.629 z M 11.0742,281.926 c 0,11.945 9.7227,21.668 21.6719,21.668 4.5898,0 8.8477,-1.442 12.3555,-3.887 -12.6485,-10.07 -21.5157,-21.812 -26.1407,-34.473 -4.8086,3.977 -7.8867,9.977 -7.8867,16.692 z m 230.5628,107 c 8.777,0 15.918,-7.137 15.918,-15.91 0,-8.77 -7.141,-15.907 -15.918,-15.907 -8.766,0 -15.899,7.137 -15.899,15.907 0,8.773 7.133,15.91 15.899,15.91 z m 46.394,-107 c 0,18.054 -14.691,32.742 -32.746,32.742 -8.332,0 -15.937,-3.137 -21.719,-8.281 -22.211,14.312 -50.937,22.679 -81.687,23.906 l 16.879,53.363 45.91,-10.804 c 0.09,-14.805 12.152,-26.821 26.969,-26.821 14.883,0 26.996,12.106 26.996,26.985 0,14.879 -12.113,26.984 -26.996,26.984 -11.078,0 -20.614,-6.715 -24.762,-16.289 l -50.578,11.902 c -2.82,0.664 -5.676,-0.957 -6.551,-3.718 l -19.449,-61.489 c -32.309,-0.605 -62.629,-9.062 -85.8322,-24.015 -5.7851,5.144 -13.3906,8.277 -21.7187,8.277 C 14.6875,314.668 0,299.98 0,281.926 0,269.988 6.42188,259.531 15.9883,253.813 15.5039,250.742 15.25,247.641 15.25,244.508 c 0,-23.414 13.7109,-45.258 38.6016,-61.504 7.9218,-5.172 16.6992,-9.563 26.1054,-13.152 -18.3593,-8.754 -31.3554,-30.059 -31.3554,-54.891 0,-28.0547 16.582,-51.5938 38.7461,-57.6329 1.7304,-5.3984 3.6523,-10.5429 5.7539,-15.3828 -1.0235,0.0742 -2.0508,0.125 -3.0938,0.125 -19.9258,0 -36.1367,-13.6094 -36.1367,-30.3359 0,-2.50393 0.4414,-5.08987 1.3555,-7.90237 C 55.9648,1.54688 58.0938,0 60.4922,0 H 226.723 c 2.422,0 4.562,1.57422 5.285,3.89063 0.902,2.89453 1.32,5.38671 1.32,7.84377 0,16.7265 -16.219,30.3359 -36.156,30.3359 -0.746,0 -1.484,-0.0195 -2.219,-0.0586 2.09,4.8242 4,9.9414 5.723,15.3164 22.168,6.0352 38.754,29.5782 38.754,57.6329 0,24.836 -12.996,46.141 -31.36,54.891 9.403,3.589 18.18,7.984 26.102,13.152 24.894,16.246 38.609,38.09 38.609,61.504 0,3.133 -0.254,6.234 -0.738,9.305 9.566,5.718 15.988,16.175 15.988,28.113"
         style="fill:#100f0d;fill-opacity:1;fill-rule:nonzero;stroke:none"
         id="path51"
         inkscape:connector-curvature="0" /></g></g></svg>