<svg xmlns="http://www.w3.org/2000/svg" width="816" height="1056"><defs><clipPath clipPathUnits="userSpaceOnUse" id="q"><path d="M250-453.24c29.43-29.18 67.37-46.42 81.93-31.73 14.55 14.69-.88 50.39-30.31 79.56s-66.9 47.36-81.45 32.67c-14.56-14.68.4-51.33 29.83-80.5z" clip-rule="evenodd"/></clipPath><clipPath clipPathUnits="userSpaceOnUse" id="a"><path d="M248.06-297.71l146.47-9.94 11.28-147.69-44.63 90.46-113.12 67.17z" clip-rule="evenodd"/></clipPath><clipPath clipPathUnits="userSpaceOnUse" id="c"><path d="M347.89-349.36l46.88 41.61-12.59-86.89-34.29 45.28z" clip-rule="evenodd"/></clipPath><clipPath clipPathUnits="userSpaceOnUse" id="E"><path d="M343.58-477.68l60.71 8.52c-3.24-13.73-13.19-22.59-30.15-25.36l-30.56 16.84z" clip-rule="evenodd"/></clipPath><clipPath clipPathUnits="userSpaceOnUse" id="e"><path d="M248.55-297.9l146.39-9.85-92.23-7.24-54.16 17.09z" clip-rule="evenodd"/></clipPath><clipPath clipPathUnits="userSpaceOnUse" id="C"><path d="M221.03-362.1l-4.33 51.56c8.17 11.16 19.41 12.13 31.2 11.26-8.53-21.23-25.57-63.68-26.87-62.82z" clip-rule="evenodd"/></clipPath><clipPath clipPathUnits="userSpaceOnUse" id="g"><path d="M221.02-362.52l27.66 64.64 23.04-75.48-50.7 10.84z" clip-rule="evenodd"/></clipPath><clipPath clipPathUnits="userSpaceOnUse" id="A"><path d="M271.51-373.63l30.56 58.96c18.07-9.8 32.22-21.74 45.18-34.53l-75.74-24.43z" clip-rule="evenodd"/></clipPath><clipPath clipPathUnits="userSpaceOnUse" id="i"><path d="M266.01-375.28l81.87 26.17-21.2-83.04-60.67 56.87z" clip-rule="evenodd"/></clipPath><clipPath clipPathUnits="userSpaceOnUse" id="y"><path d="M328.35-426.28c17.62 10.83 53.13 32.58 53.85 32.98 1.12.63 15.31-23.93 18.53-37.81l-72.38 4.83z" clip-rule="evenodd"/></clipPath><clipPath clipPathUnits="userSpaceOnUse" id="k"><path d="M327.68-426.19l73.32-4.79-57.35-46.84-15.97 51.63z" clip-rule="evenodd"/></clipPath><clipPath clipPathUnits="userSpaceOnUse" id="w"><path d="M401.12-430.9c7.8-23.54 9.6-57.31-27.18-63.58l-30.18 16.67 57.36 46.91z" clip-rule="evenodd"/></clipPath><clipPath clipPathUnits="userSpaceOnUse" id="m"><path d="M319.17-494.77l55.01.25-33.73 18.64-21.28-18.89z" clip-rule="evenodd"/></clipPath><clipPath clipPathUnits="userSpaceOnUse" id="u"><path d="M328.24-426.4l19.49 77.2c22.93-24.11 43.51-50.03 53.59-82.09l-73.08 4.89z" clip-rule="evenodd"/></clipPath><clipPath clipPathUnits="userSpaceOnUse" id="o"><path d="M210.38-393.67l-2.7 56.47 14.13-25.77-11.43-30.7z" clip-rule="evenodd"/></clipPath><clipPath clipPathUnits="userSpaceOnUse" id="s"><path d="M248.68-297.91l22.86-75.72 75.92 24.39c-27.45 25.74-57.98 47.5-98.78 51.33z" clip-rule="evenodd"/></clipPath><linearGradient x1="0" y1="0" x2="1" y2="0" gradientUnits="userSpaceOnUse" gradientTransform="scale(55.475) rotate(86.82 6.726 -.878)" spreadMethod="pad" id="j"><stop offset="0" stop-color="#fff"/><stop offset="0" stop-color="#fff"/><stop offset=".23" stop-color="#e4714e"/><stop offset=".56" stop-color="#be1a0d"/><stop offset=".99" stop-color="#a80d00"/><stop offset="1" stop-color="#a80d00"/></linearGradient><linearGradient x1="0" y1="0" x2="1" y2="0" gradientUnits="userSpaceOnUse" gradientTransform="rotate(-119.527 109.348 -251.127) scale(84.81561)" spreadMethod="pad" id="b"><stop offset="0" stop-color="#fb7655"/><stop offset="0" stop-color="#fb7655"/><stop offset=".41" stop-color="#e42b1e"/><stop offset=".99" stop-color="#900"/><stop offset="1" stop-color="#900"/></linearGradient><linearGradient x1="0" y1="0" x2="1" y2="0" gradientUnits="userSpaceOnUse" gradientTransform="rotate(84.296 316.673 -73.983) scale(32.8727)" spreadMethod="pad" id="p"><stop offset="0" stop-color="#fff"/><stop offset="0" stop-color="#fff"/><stop offset=".31" stop-color="#de4024"/><stop offset=".99" stop-color="#bf190b"/><stop offset="1" stop-color="#bf190b"/></linearGradient><linearGradient x1="0" y1="0" x2="1" y2="0" gradientUnits="userSpaceOnUse" gradientTransform="rotate(-166.136 133.667 -180.776) scale(47.642)" spreadMethod="pad" id="t"><stop offset="0" stop-color="#8c0c01"/><stop offset="0" stop-color="#8c0c01"/><stop offset=".54" stop-color="#990c00"/><stop offset=".99" stop-color="#a80d0e"/><stop offset="1" stop-color="#a80d0e"/></linearGradient><linearGradient x1="0" y1="0" x2="1" y2="0" gradientUnits="userSpaceOnUse" gradientTransform="matrix(39.69395 -19.84702 19.84702 39.69394 326.656 -483.748)" spreadMethod="pad" id="n"><stop offset="0" stop-color="#fff"/><stop offset="0" stop-color="#fff"/><stop offset=".54" stop-color="#c81f11"/><stop offset=".99" stop-color="#bf0905"/><stop offset="1" stop-color="#bf0905"/></linearGradient><linearGradient x1="0" y1="0" x2="1" y2="0" gradientUnits="userSpaceOnUse" gradientTransform="scale(-55.1837) rotate(41.869 -12.494 -5.706)" spreadMethod="pad" id="v"><stop offset="0" stop-color="#7e110b"/><stop offset="0" stop-color="#7e110b"/><stop offset=".99" stop-color="#9e0c00"/><stop offset="1" stop-color="#9e0c00"/></linearGradient><linearGradient x1="0" y1="0" x2="1" y2="0" gradientUnits="userSpaceOnUse" gradientTransform="scale(40.7497) rotate(76.936 11.608 -.285)" spreadMethod="pad" id="l"><stop offset="0" stop-color="#fff"/><stop offset="0" stop-color="#fff"/><stop offset=".18" stop-color="#e46342"/><stop offset=".4" stop-color="#c82410"/><stop offset=".99" stop-color="#a80d00"/><stop offset="1" stop-color="#a80d00"/></linearGradient><linearGradient x1="0" y1="0" x2="1" y2="0" gradientUnits="userSpaceOnUse" gradientTransform="rotate(-133.088 103.598 -310.74) scale(29.9655)" spreadMethod="pad" id="x"><stop offset="0" stop-color="#79130d"/><stop offset="0" stop-color="#79130d"/><stop offset=".99" stop-color="#9e120b"/><stop offset="1" stop-color="#9e120b"/></linearGradient><linearGradient x1="0" y1="0" x2="1" y2="0" gradientUnits="userSpaceOnUse" gradientTransform="rotate(-45.799 -308.112 -393.951) scale(220.27902)" spreadMethod="pad" id="r"><stop offset="0" stop-color="#bd0012"/><stop offset="0" stop-color="#bd0012"/><stop offset=".07" stop-color="#fff"/><stop offset=".17" stop-color="#fff"/><stop offset=".27" stop-color="#c82f1c"/><stop offset=".33" stop-color="#820c01"/><stop offset=".46" stop-color="#a31601"/><stop offset=".72" stop-color="#b31301"/><stop offset=".99" stop-color="#e82609"/><stop offset="1" stop-color="#e82609"/></linearGradient><linearGradient x1="0" y1="0" x2="1" y2="0" gradientUnits="userSpaceOnUse" gradientTransform="rotate(-146.136 149.27 -232.145) scale(64.87391)" spreadMethod="pad" id="d"><stop offset="0" stop-color="#871101"/><stop offset="0" stop-color="#871101"/><stop offset=".99" stop-color="#911209"/><stop offset="1" stop-color="#911209"/></linearGradient><linearGradient x1="0" y1="0" x2="1" y2="0" gradientUnits="userSpaceOnUse" gradientTransform="scale(54.9117) rotate(81.253 6.148 -.735)" spreadMethod="pad" id="h"><stop offset="0" stop-color="#fff"/><stop offset="0" stop-color="#fff"/><stop offset=".23" stop-color="#e57252"/><stop offset=".46" stop-color="#de3b20"/><stop offset=".99" stop-color="#a60003"/><stop offset="1" stop-color="#a60003"/></linearGradient><linearGradient x1="0" y1="0" x2="1" y2="0" gradientUnits="userSpaceOnUse" gradientTransform="scale(-59.0043) rotate(73.577 -5.362 -.13)" spreadMethod="pad" id="D"><stop offset="0" stop-color="#8b2114"/><stop offset="0" stop-color="#8b2114"/><stop offset=".43" stop-color="#9e100a"/><stop offset=".99" stop-color="#b3100c"/><stop offset="1" stop-color="#b3100c"/></linearGradient><linearGradient x1="0" y1="0" x2="1" y2="0" gradientUnits="userSpaceOnUse" gradientTransform="rotate(-146.136 137.496 -193.471) scale(64.87391)" spreadMethod="pad" id="f"><stop offset="0" stop-color="#871101"/><stop offset="0" stop-color="#871101"/><stop offset=".99" stop-color="#911209"/><stop offset="1" stop-color="#911209"/></linearGradient><linearGradient x1="0" y1="0" x2="1" y2="0" gradientUnits="userSpaceOnUse" gradientTransform="scale(40.8816) rotate(23.817 32.587 15.075)" spreadMethod="pad" id="F"><stop offset="0" stop-color="#b31000"/><stop offset="0" stop-color="#b31000"/><stop offset=".44" stop-color="#910f08"/><stop offset=".99" stop-color="#791c12"/><stop offset="1" stop-color="#791c12"/></linearGradient><radialGradient fx="0" fy="0" cx="0" cy="0" r="1" gradientUnits="userSpaceOnUse" gradientTransform="translate(281.77 -349.54) scale(66.9469)" spreadMethod="pad" id="B"><stop offset="0" stop-color="#a30c00"/><stop offset="0" stop-color="#a30c00"/><stop offset=".99" stop-color="#800e08"/><stop offset="1" stop-color="#800e08"/></radialGradient><radialGradient fx="0" fy="0" cx="0" cy="0" r="1" gradientUnits="userSpaceOnUse" gradientTransform="translate(351.51 -415.9) scale(50.36)" spreadMethod="pad" id="z"><stop offset="0" stop-color="#a80d00"/><stop offset="0" stop-color="#a80d00"/><stop offset=".99" stop-color="#7e0e08"/><stop offset="1" stop-color="#7e0e08"/></radialGradient></defs><g clip-path="url(#a)" transform="matrix(1.33333 0 0 1.33333 0 1056)"><path d="M248.06-297.71l146.47-9.94 11.28-147.69-44.63 90.46-113.12 67.17z" fill="url(#b)" fill-rule="evenodd"/></g><g clip-path="url(#c)" transform="matrix(1.33333 0 0 1.33333 0 1056)"><path d="M347.89-349.36l46.88 41.61-12.59-86.89-34.29 45.28z" fill="url(#d)" fill-rule="evenodd"/></g><g clip-path="url(#e)" transform="matrix(1.33333 0 0 1.33333 0 1056)"><path d="M248.55-297.9l146.39-9.85-92.23-7.24-54.16 17.09z" fill="url(#f)" fill-rule="evenodd"/></g><g clip-path="url(#g)" transform="matrix(1.33333 0 0 1.33333 0 1056)"><path d="M221.02-362.52l27.66 64.64 23.04-75.48-50.7 10.84z" fill="url(#h)" fill-rule="evenodd"/></g><g clip-path="url(#i)" transform="matrix(1.33333 0 0 1.33333 0 1056)"><path d="M266.01-375.28l81.87 26.17-21.2-83.04-60.67 56.87z" fill="url(#j)" fill-rule="evenodd"/></g><g clip-path="url(#k)" transform="matrix(1.33333 0 0 1.33333 0 1056)"><path d="M327.68-426.19l73.32-4.79-57.35-46.84-15.97 51.63z" fill="url(#l)" fill-rule="evenodd"/></g><g clip-path="url(#m)" transform="matrix(1.33333 0 0 1.33333 0 1056)"><path d="M319.17-494.77l55.01.25-33.73 18.64-21.28-18.89z" fill="url(#n)" fill-rule="evenodd"/></g><g clip-path="url(#o)" transform="matrix(1.33333 0 0 1.33333 0 1056)"><path d="M210.38-393.67l-2.7 56.47 14.13-25.77-11.43-30.7z" fill="url(#p)" fill-rule="evenodd"/></g><path d="M279.493 529.813l15.334 43.494 66.626-14.947 76.067-70.693 21.467-68.187-33.8-23.867-57.467 21.507c-18.107 16.84-53.24 50.16-54.506 50.787-1.254.64-23.201 42.12-33.72 61.906z" fill="#fff" fill-rule="evenodd"/><g clip-path="url(#q)" transform="matrix(1.33333 0 0 1.33333 0 1056)"><path d="M250-453.24c29.43-29.18 67.37-46.42 81.93-31.73 14.55 14.69-.88 50.39-30.31 79.56s-66.9 47.36-81.45 32.67c-14.56-14.68.4-51.33 29.83-80.5z" fill="url(#r)" fill-rule="evenodd"/></g><g clip-path="url(#s)" transform="matrix(1.33333 0 0 1.33333 0 1056)"><path d="M248.68-297.91l22.86-75.72 75.92 24.39c-27.45 25.74-57.98 47.5-98.78 51.33z" fill="url(#t)" fill-rule="evenodd"/></g><g clip-path="url(#u)" transform="matrix(1.33333 0 0 1.33333 0 1056)"><path d="M328.24-426.4l19.49 77.2c22.93-24.11 43.51-50.03 53.59-82.09l-73.08 4.89z" fill="url(#v)" fill-rule="evenodd"/></g><g clip-path="url(#w)" transform="matrix(1.33333 0 0 1.33333 0 1056)"><path d="M401.12-430.9c7.8-23.54 9.6-57.31-27.18-63.58l-30.18 16.67 57.36 46.91z" fill="url(#x)" fill-rule="evenodd"/></g><path d="M276.907 605.947c1.44 51.8 38.813 52.573 54.733 53.026l-36.773-85.88-17.96 32.854z" fill="#9e1209" fill-rule="evenodd"/><g clip-path="url(#y)" transform="matrix(1.33333 0 0 1.33333 0 1056)"><path d="M328.35-426.28c17.62 10.83 53.13 32.58 53.85 32.98 1.12.63 15.31-23.93 18.53-37.81l-72.38 4.83z" fill="url(#z)" fill-rule="evenodd"/></g><g clip-path="url(#A)" transform="matrix(1.33333 0 0 1.33333 0 1056)"><path d="M271.51-373.63l30.56 58.96c18.07-9.8 32.22-21.74 45.18-34.53l-75.74-24.43z" fill="url(#B)" fill-rule="evenodd"/></g><g clip-path="url(#C)" transform="matrix(1.33333 0 0 1.33333 0 1056)"><path d="M221.03-362.1l-4.33 51.56c8.17 11.16 19.41 12.13 31.2 11.26-8.53-21.23-25.57-63.68-26.87-62.82z" fill="url(#D)" fill-rule="evenodd"/></g><g clip-path="url(#E)" transform="matrix(1.33333 0 0 1.33333 0 1056)"><path d="M343.58-477.68l60.71 8.52c-3.24-13.73-13.19-22.59-30.15-25.36l-30.56 16.84z" fill="url(#F)" fill-rule="evenodd"/></g></svg>