<?xml version="1.0" encoding="utf-8"?>
<!-- Generator: Adobe Illustrator 21.1.0, SVG Export Plug-In . SVG Version: 6.00 Build 0)  -->
<svg version="1.1" id="Livello_1" xmlns="http://www.w3.org/2000/svg" xmlns:xlink="http://www.w3.org/1999/xlink" x="0px" y="0px"
	 viewBox="0 0 4838 1606.3" style="enable-background:new 0 0 4838 1606.3;" xml:space="preserve">
<style type="text/css">
	.st0{fill:#034EA2;}
	.st1{fill:#FFFFFF;}
</style>
<g>
	<g>
		<g>
			<path class="st0" d="M4835,382.5c65.9,377.7-962.3,872.3-2296.8,1104.7C1203.9,1719.6,68.8,1601.7,3,1223.8
				C-62.8,846.1,965.7,351.6,2300,119.3C3634.4-113.3,4769.3,4.7,4835,382.5z"/>
		</g>
		<g>
			<g>
				<polygon class="st1" points="3579.1,943.1 3572.3,550.4 3696.1,550.4 3696.1,1045.4 3518.1,1045.4 3394.5,639.2 3391.8,639.2 
					3398.7,1045.4 3275.6,1045.4 3275.6,550.4 3461.4,550.4 3576.4,943.1 				"/>
				<polygon class="st1" points="1328.1,596.8 1259.6,1050.6 1124.5,1050.6 1217.2,550.4 1439.7,550.4 1532.1,1050.6 1397.5,1050.6 
					1330.9,596.8 				"/>
				<polygon class="st1" points="1911.4,932.8 1973.2,550.4 2177.2,550.4 2188,1050.6 2063,1050.6 2059.7,600.9 2057.1,600.9 
					1973.5,1050.6 1846.6,1050.6 1762.9,600.9 1760.2,600.9 1757.1,1050.6 1631.8,1050.6 1642.9,550.4 1847,550.4 1908.7,932.8 				
					"/>
				<path class="st1" d="M913.9,909.5c4.9,12.1,3.4,27.7,1.1,37.1c-4.2,16.6-15.5,33.6-48.7,33.6c-31.4,0-50.4-18-50.4-45.4v-48.4
					H681.7l-0.1,38.7c0,111.5,87.8,145.2,181.9,145.2c90.5,0,165-30.9,176.8-114.3c6.1-43.2,1.5-71.5-0.5-82.2
					c-21.1-104.7-211-136-225.1-194.5c-2.4-10-1.7-20.7-0.5-26.4c3.5-15.9,14.4-33.5,45.7-33.5c29.2,0,46.5,18.1,46.5,45.4
					c0,9.2,0,30.9,0,30.9h124.7v-35.1c0-109-97.8-126-168.6-126c-89,0-161.7,29.4-175,110.8c-3.6,22.5-4.1,42.5,1.1,67.6
					C710.5,815.1,888.1,844.7,913.9,909.5z"/>
				<path class="st1" d="M2540.4,908.6c4.9,12,3.3,27.2,1.1,36.6c-4.1,16.6-15.3,33.3-48.3,33.3c-30.9,0-49.8-18-49.8-44.8l-0.1-48
					h-132.8l-0.2,38.2c0,110.4,87,143.7,180.1,143.7c89.5,0,163.3-30.5,175-113.1c6.1-42.9,1.8-70.8-0.4-81.3
					c-21-103.7-208.9-134.7-222.9-192.7c-2.4-10-1.7-20.5-0.5-25.9c3.6-16.1,14.3-33.2,45.3-33.2c29,0,45.9,17.6,45.9,44.8
					c0,9.1,0,30.6,0,30.6h123.8V662c0-107.8-97-124.7-167.2-124.7c-88,0-160.1,29-173.1,109.9c-3.6,22.2-4,41.8,1.2,66.8
					C2339,815.1,2514.9,844.5,2540.4,908.6z"/>
				<path class="st1" d="M2960.5,975.8c34.7,0,45.5-24,47.9-36.3c1-5.4,1.3-12.6,1.2-19.1V550.2h126.5V909
					c0.3,9.2-0.6,28.1-1.1,32.8c-8.9,93.4-82.7,123.7-174.6,123.7c-92,0-165.9-30.3-174.7-123.7c-0.4-4.7-1.3-23.7-1.1-32.8V550.2
					h126.4v370.1c0,6.5,0.2,13.8,1.2,19.1C2915,951.7,2925.5,975.8,2960.5,975.8z"/>
				<path class="st1" d="M4004,970.5c36.2,0,48.9-22.9,51.2-36.2c0.9-5.7,1.2-12.7,1.1-19v-72.6H4005v-73h177.4v134.3
					c-0.1,9.4-0.3,16.3-1.8,33c-8.3,91-87.3,123.5-175.9,123.5c-88.8,0-167.6-32.5-176.1-123.5c-1.4-16.7-1.6-23.6-1.8-33l0.1-210.6
					c0-8.9,1.1-24.6,2.1-33c11.1-93.5,86.9-123.6,175.7-123.6c88.7,0,166.4,29.9,175.6,123.6c1.6,15.9,1.1,33,1.1,33v16.7h-126.1
					v-28c0.1,0.1-0.2-11.9-1.6-19c-2.1-11.1-11.7-36.5-49.9-36.5c-36.5,0-47.1,24-49.8,36.5c-1.5,6.6-2.1,15.5-2.1,23.6v228.8
					c-0.1,6.3,0.3,13.3,1.3,19C3955.2,947.6,3967.8,970.5,4004,970.5z"/>
			</g>
		</g>
	</g>
</g>
</svg>
