<svg xmlns="http://www.w3.org/2000/svg" viewBox="0 0 493 493">
  <path fill="#7882FF" d="M0 0h493v493H0"/>
  <path fill="#FFF" d="M405.809 202.141c24.491 87.923-27.006 179.111-114.929 203.604-87.923 24.493-179.111-27.006-203.604-114.929-24.493-87.921 27.005-179.112 114.929-203.603 87.922-24.494 179.111 27.004 203.604 114.928"/>
  <path fill="#4D5CC1" d="M357.075 362.537c-41.828 0-92.698-10.676-143.441-29.893-50.744-19.217-95.837-45.093-127.111-72.852-50.745-45.091-47.605-80.01-41.199-96.84 6.406-16.831 27.256-45.091 95.082-45.091 41.827 0 92.696 10.675 143.44 29.892 50.746 19.219 95.837 45.094 127.112 72.851 50.743 45.093 47.604 80.011 41.198 96.842-6.279 16.829-27.13 45.091-95.081 45.091m-216.543-192.3c-31.401 0-44.841 7.787-46.222 11.305-1.382 3.517 3.643 18.338 27.13 39.19 26.251 23.234 66.696 46.345 110.908 63.051 44.212 16.832 89.807 26.502 124.852 26.502 31.4 0 44.841-7.787 46.222-11.304 1.382-3.516-3.644-18.337-27.006-39.189-26.251-23.236-66.695-46.347-110.907-63.051-44.464-16.832-89.933-26.504-124.977-26.504Z"/>
  <path fill="#FFF" d="m94.31 182.044 308.859 117.313c10.301-30.395 11.934-64.058 2.64-97.216-24.493-87.924-115.557-139.422-203.604-114.928-50.494 14.067-88.93 50.116-107.895 94.831"/>
</svg>