<?xml version="1.0" encoding="UTF-8" standalone="no"?>
<svg
   width="33.923"
   height="21.1446"
   viewBox="0 0 33.923 21.1446"
   fill="none"
   version="1.1"
   id="svg11"
   xmlns="http://www.w3.org/2000/svg"
   xmlns:svg="http://www.w3.org/2000/svg">
  <g
     clip-path="url(#clip0_2241_824)"
     id="g11">
    <path
       d="m 12.4771,21.1446 c -1.2308,0 -2.4493,-0.2457 -3.58394,-0.7229 C 7.75856,19.9444 6.73071,19.2454 5.86992,18.3656 L 0,12.4011 3.51628,8.82812 9.39566,14.7926 c 0.40239,0.4087 0.88204,0.7332 1.41114,0.9548 0.529,0.2215 1.0968,0.3356 1.6703,0.3356 0.5736,0 1.1414,-0.1141 1.6704,-0.3356 0.529,-0.2216 1.0087,-0.5461 1.4111,-0.9548 l 4.6506,-4.7357 c 0.1584,-0.16144 0.3474,-0.28972 0.5559,-0.37728 0.2086,-0.08757 0.4325,-0.13267 0.6587,-0.13267 0.2262,0 0.4501,0.0451 0.6587,0.13267 0.2085,0.08756 0.3975,0.21584 0.5559,0.37728 l 2.3064,2.3442 -5.8605,5.9739 c -0.8616,0.8773 -1.8901,1.5735 -3.0248,2.0475 -1.1346,0.474 -2.3527,0.7163 -3.5824,0.7126 z"
       fill="#0d1421"
       id="path10" />
    <path
       d="M 30.3973,12.3447 24.5179,6.37076 C 24.1178,5.95811 23.6388,5.63004 23.1095,5.40599 22.5802,5.18195 22.0112,5.06651 21.4364,5.06651 c -0.5748,0 -1.1437,0.11544 -1.673,0.33948 -0.5294,0.22405 -1.0083,0.55212 -1.4084,0.96477 l -4.6506,4.73564 c -0.1584,0.1615 -0.3474,0.2897 -0.556,0.3773 -0.2085,0.0876 -0.4324,0.1327 -0.6586,0.1327 -0.2262,0 -0.4502,-0.0451 -0.6587,-0.1327 -0.2086,-0.0876 -0.3976,-0.2158 -0.556,-0.3773 L 8.96875,8.76221 14.8387,2.77886 C 15.6986,1.89919 16.7256,1.20023 17.8594,0.723024 18.9933,0.245821 20.211,0 21.4412,0 c 1.2301,0 2.4479,0.245821 3.5817,0.723024 1.1338,0.477206 2.1608,1.176166 3.0207,2.055836 l 5.8794,5.9739 z"
       fill="#0d1421"
       id="path11" />
  </g>
  <defs
     id="defs11">
    <clipPath
       id="clip0_2241_824">
      <rect
         width="155"
         height="21.145"
         fill="#ffffff"
         id="rect11"
         x="0"
         y="0" />
    </clipPath>
  </defs>
</svg>
