<svg height="447" viewBox="0 0 494 447" width="494" xmlns="http://www.w3.org/2000/svg"><g fill="none" fill-rule="evenodd"><path d="m247 0 247 287-107 145-140 15-140-15-107-145z" fill="#ffae00" transform="matrix(-1 0 0 -1 494 447)"/><path d="m247 0 247 287h-494z" fill="#ec6c00" transform="matrix(-1 0 0 -1 494 447)"/><path d="m147 0 147 287h-294z" fill="#ffae00" transform="matrix(-1 0 0 -1 394 447)"/><path d="m147 160 147-160h-294z" fill="#ffefb4" transform="matrix(-1 0 0 -1 394 160)"/><path d="m0 145 55-73 52-72h-101z" fill="#ffae00" transform="matrix(-1 0 0 -1 107 160)"/><path d="m0 145 55-73 52-72h-101z" fill="#ffae00" transform="matrix(1 0 0 -1 387 160)"/><g fill="#fed305"><path d="m140 145 7-145-147 160z" transform="matrix(-1 0 0 -1 247 160)"/><path d="m140 145 7-145-147 160z" transform="matrix(1 0 0 -1 247 160)"/></g></g></svg>