<svg height="403mm" viewBox="0 0 400 403" width="400mm" xmlns="http://www.w3.org/2000/svg" xmlns:xlink="http://www.w3.org/1999/xlink"><clipPath id="a"><path d="m0 0h1224v792h-1224z"/></clipPath><g clip-path="url(#a)" transform="matrix(6.6222973 0 0 -6.6222973 -4442.0344 2474.195)"><path d="m0 0c.281 1.611.428 3.269.428 4.963 0 15.778-12.72 28.571-28.41 28.571-1.684 0-3.332-.146-4.934-.429-2.467 1.422-5.327 2.231-8.375 2.231-9.329 0-16.891-7.607-16.891-16.989 0-3.064.805-5.941 2.22-8.423-.283-1.61-.428-3.268-.428-4.961 0-15.779 12.72-28.574 28.408-28.574 1.685 0 3.333.148 4.936.431 2.468-1.422 5.327-2.232 8.373-2.232 9.329 0 16.893 7.606 16.893 16.99 0 3.064-.808 5.94-2.22 8.422m-27.865-13.313c-10.094 0-14.705 5.138-14.705 8.913 0 1.936 1.516 3.268 3.455 3.268 4.318 0 3.194-6.478 11.25-6.478 4.123 0 6.538 2.481 6.538 4.808 0 1.401-.803 2.958-3.518 3.639l-8.975 2.275c-7.227 1.837-8.494 5.859-8.494 9.586 0 7.742 7.076 10.54 13.821 10.54 6.209 0 13.591-3.426 13.591-8.072 0-1.99-1.669-3.073-3.609-3.073-3.686 0-3.072 5.184-10.495 5.184-3.686 0-5.629-1.725-5.629-4.15 0-2.418 2.851-3.239 5.377-3.823l6.642-1.498c7.277-1.644 9.223-5.91 9.223-9.973 0-6.291-4.872-11.146-14.472-11.146" fill="#0078d7" transform="translate(728.9514 338.1728)"/></g></svg>