<?xml version="1.0" encoding="UTF-8"?>
<svg id="_2025_SNAP_Ghost_Positive_RGB" data-name="2025_SNAP_Ghost_Positive_RGB" xmlns="http://www.w3.org/2000/svg" viewBox="0 0 621.730199999999968 615.234600000000682">
  <defs>
    <style>
      .cls-1 {
        fill: #fff;
      }
      svg{background:#FFFC00;}
    </style>
  </defs>
  <g id="_2025_SNAP_Ghost_Positive_RGB-2" data-name="2025_SNAP_Ghost_Positive_RGB">
    <path id="Ghost_Wht_Fill" data-name="Ghost Wht Fill" class="cls-1" d="M444.820190696022109,390.563473020370111c-13.450063085439979,7.454034898468308-22.270002714169095,6.577021400584272-29.330055976559379,10.960990258021411-5.949946678800188,3.726986931678766-2.42992980568124,11.838003755905447-6.619990118140777,14.906971164953575-5.289912997539432,3.507016394663879-20.949935351640306-.218993975253397-41.019866484999511,6.357050863569384-16.540026572380157,5.480952892336063-27.119974637680571,21.044967018158786-57.110064295500706,21.044967018158786-29.999977345678417,0-40.139862266720229-15.564014125822723-57.119951983358987-21.044967018158786-20.069931133361024-6.576044838822781-35.729953487460079-2.630002896779843-41.019866484999511-6.357050863569384-4.190060312450441-2.84997343379473-.880004218281101-11.179984233274809-6.619990118140777-14.906971164953575-6.830072967301021-4.383968857437139-15.870105203270214-3.726986931678766-29.330055976559379-10.960990258021411-8.599969091710591-4.602962832690537-3.749997168210029-7.67199127684944-.880004218270187-8.987969287001761,48.739953428639637-23.455975939685231,56.460040372299773-59.626969133161765,56.899981446329548-62.257948591703098,1.099974755299627-3.2880224194123,0-7.015009351091066-2.650022412910403-9.207024297364114-3.53002663119878-3.068967409048128-18.959946619999755-12.494985681665639-23.369977469470541-15.563953090711948-7.059931192168733-4.8229944048162-10.150016749328643-9.865043819996572-7.939935410449834-15.78398466283943,1.539915829331221-3.727047966787723,5.510005604770413-6.138056888314168,9.699943847021132-5.700007902698417,1.320067362519694,0,2.650022412899489.218993975253397,3.969967705210365.438964512268285,7.720086943660135,1.753050434004763,15.220081280080194,5.480037365683529,19.62999005932943,6.576044838820962.440063144249507.218993975253397,1.099974755299627.218993975253397,1.540037899549134.218993975253397,2.430051875900972,0,3.089963486940178-1.096007473137433,3.089963486940178-3.726010369917276-1.099974755288713-13.373036776420122-1.099974755288713-26.964029931223195-.439941074029775-40.335968075661185.439941074029775-15.126026175315928,6.60998036007004-29.814003365017015,16.979967646420846-40.993987598290914,31.530005487149538-31.567969325677041,82.919981328719587-31.786963300928619,114.669957352889469-.43902554737906l.449950832100512.43902554737906c10.359977528280069,11.179984233273899,16.319933965149175,25.647990885960098,16.979967646419027,40.993987598290914.880004218281101,13.371938144437991.660033681260757,26.962931299241063-.439941074029775,40.335968075661185-.220092607240076,2.849973433793821.659911611041025,3.726010369917276,3.079953728869441,3.726010369917276.660033681269852,0,1.109984513370364,0,1.550047657619871-.218993975253397,4.409908779251055-1.096007473137433,11.909903115671113-4.8229944048162,19.619980301260512-6.576044838820962,1.329955050379795-.219970537014888,2.649900342690671-.438964512268285,3.749997168210029-.438964512268285,4.189938242239805-.438048985615751,7.939935410460748,1.972959935910694,9.709953605080955,5.700007902698417,2.199949510590159,6.13799585320703-.890013976350019,10.96099025802323-7.940057480671385,15.78398466283943-4.189938242239805,2.84899687203324-19.629867989109698,12.49498568166382-23.159894620299383,15.563953090711948-2.64001265485058,2.192014946273048-3.749997168210029,5.700007902700236-2.64001265485058,9.207024297364114.439941074029775,2.630979458541333,8.150018259620992,38.801972652017866,56.889971688271544,62.257948591703098,2.869992949928928,1.534971985405718,7.719964873438585,4.385006454311224-.880004218281101,8.987969287001761Z"/>
    <path id="Ghost_Blk_Outline" data-name="Ghost Blk Outline" d="M466.870100802962043,378.945500836588508c-1.979978973578909-5.041988380067778-5.949946678789274-9.426994834379002-11.019889139319275-11.61900978065205-.890013976350019-.437987950504976-1.770018194640215-.877013497884036-2.430051875900972-1.315001448389012-1.319945292319971-.657958487521682-2.869992949928928-1.315978010152321-4.410030849479881-2.192014946274867-13.669911552238773-6.795954340726894-25.359966201120187-16.879931100864269-34.399998437080285-29.155922807276511-2.209959268659077-3.288998981171972-4.189938242239805-6.79601537583585-5.959956436869106-10.304008332263038-.660033681269852-1.315001448389012-.660033681269852-2.850034468905505-.219970537020345-4.165035917294517.439941074029775-.876952462773261,1.109984513370364-1.533995423642409,1.989988731649646-1.972959935910694,2.420042117830235-1.754026995768072,5.069942460520906-3.288022419410481,6.829950897081289-4.603023867801312,3.090085557169004-1.972959935910694,5.739985899859676-3.726986931678766,7.280023799408809-4.8229944048162,5.290035067750068-3.507992956425369,9.700065917229949-8.110955789115906,13.009999941190472-13.591969716562744,3.749997168210029-7.015009351091066,4.190060312459536-15.345020150569326,1.329955050379795-22.798017452165368-4.189938242239805-10.523002307516435-14.559925528588792-17.537950623497636-26.02988757023013-17.098986111228442-2.420042117830235,0-5.070064530749733.218993975253397-7.489984578349322.876036936122546l-1.990110801871197.438964512268285c.220092607230981-7.452997301596042,0-14.906971164953575-.659911611048301-22.14097449129622-.880004218281101-18.853013106995604-8.37999855470116-37.047945656249794-21.170027958860373-50.858970383176711-6.179926973900365-6.794977778964494-13.449941015231161-12.713979656918127-21.609969032921072-17.317980086480929-30.660011026939173-16.659960563848472-67.930002413950206-16.659960563848472-98.579881612609825,0-8.160028017678997,4.604000429562802-15.44005181708053,10.302970735391682-21.609969032899244,17.317980086480929-12.350088330149447,14.030018702179404-19.850082666569506,32.005957276181107-20.730086884850607,50.858970383176711-.669921369109943,7.452997301596042-.890013976350019,14.906971164953575-.669921369109943,22.14097449129622l-1.979978973580728-.438964512268285c-2.430051875899153-.657042960869148-5.070064530738819-.876036936122546-7.49999433641824-.876036936122546-11.47008411186107-.438964512269195-21.830061640141139,6.356989828458609-26.019999882380944,17.098986111228442-2.869992949928928,7.452997301596042-2.430051875899153,15.783008101074302,1.319945292310877,22.798017452165368,3.089963486940178,5.481013927446838,7.499994336420059,10.304008332263038,13.009999941188653,13.591969716562744,1.550047657619871,1.096007473137433,4.190060312461355,2.630002896779843,7.280023799410628,4.8229944048162,1.760008436560383,1.096007473137433,4.189938242239805,2.630002896779843,6.619990118129863,4.384029892547915.880004218281101.657958487521682,1.540037899550953,1.315001448390831,2.199949510599254,2.191953911164092.660033681260757,1.315001448389012.440063144251326,2.850034468905505-.219970537018526,4.165035917294517-1.540037899550953,3.507992956427188-3.530026631189685,7.015009351091066-5.729976141790758,10.083976760137375-9.040032235960098,12.276968268175551-20.509994277610531,21.921980516044641-33.739964755810433,28.717995891880491-7.499994336420059,4.164974882185561-15.440051817089625,6.575983803712006-18.749985841050147,15.563953090713767-2.430051875899153,7.454034898466489-.440063144249507,15.783984662837611,5.510005604770413,21.045028053269561,2.42992980568124,2.411985483287935,5.079952218589824,4.38494541919863,7.939935410460748,6.137995853205211,6.180049044100087,3.288998981173791,12.790029404170127,5.919001877951814,19.629990059320335,7.891961813864327,1.320067362528789.439025547377241,2.869992949928928.877013497884036,3.969967705228555,1.754026995768072,2.210081338880627,1.972959935910694,1.980101043791365,5.041988380067778,5.070064530740638,9.425957237504917,1.549925587389225,2.192991508036357,3.530026631189685,4.385006454311224,5.739985899850581,5.919001877953633,6.60998036007004,3.726986931678766,14.109974696490099,5.481013927446838,21.609969032910158,5.041988380069597,8.160028017678997,0,16.099963428139745,1.096007473135614,23.819928301569234,3.507992956425369,4.190060312459536,1.754026995768072,8.379998554699341,3.726010369917276,12.120108035060184,6.356989828458609,30.439918419710011,20.826034078016164,70.579902756640877,20.826034078016164,101.009811418280151,0,3.749997168210029-2.41094788641567,7.720086943660135-4.602962832690537,11.91002518589994-6.356989828458609,7.71996487342949-2.411985483289754,15.8799928911194-3.507992956425369,23.810040613720048-3.507992956425369,7.499994336420059.439025547377241,14.999988672840118-1.315001448390831,21.619978790969981-5.041988380069597,2.640012654848761-1.972959935910694,5.069942460519087-4.383968857437139,6.60998036007004-7.234003326342645,2.209959268659077-3.726986931678766,2.209959268659077-6.356989828458609,4.189938242239805-8.110955789115906,1.109984513370364-.658019522632458,2.430051875899153-1.315001448390831,3.749997168210029-1.754026995768072,7.060053262390284-1.753965960659116,13.680043380529241-4.383968857438958,19.850082666569506-7.891961813864327,3.089963486940178-1.753050434006582,5.949946678800188-3.946041942042939,8.37987648447961-6.356989828458609,6.180049044100087-5.480037365685348,7.940057480660471-13.371999179549675,5.510005604770413-20.60600250589232ZM444.820190696022109,390.563473020370111c-13.450063085439979,7.454034898468308-22.270002714169095,6.577021400584272-29.330055976559379,10.960990258021411-5.949946678800188,3.726986931678766-2.42992980568124,11.838003755905447-6.619990118140777,14.906971164953575-5.289912997539432,3.507016394663879-20.949935351640306-.218993975253397-41.019866484999511,6.357050863569384-16.540026572380157,5.480952892336063-27.119974637680571,21.044967018158786-57.110064295500706,21.044967018158786-29.999977345678417,0-40.139862266720229-15.564014125822723-57.119951983358987-21.044967018158786-20.069931133361024-6.576044838822781-35.729953487460079-2.630002896779843-41.019866484999511-6.357050863569384-4.190060312450441-2.84997343379473-.880004218281101-11.179984233274809-6.619990118140777-14.906971164953575-6.830072967301021-4.383968857437139-15.870105203270214-3.726986931678766-29.330055976559379-10.960990258021411-8.599969091710591-4.602962832690537-3.749997168210029-7.67199127684944-.880004218270187-8.987969287001761,48.739953428639637-23.455975939685231,56.460040372299773-59.626969133161765,56.899981446329548-62.257948591703098,1.099974755299627-3.2880224194123,0-7.015009351091066-2.650022412910403-9.207024297364114-3.53002663119878-3.068967409048128-18.959946619999755-12.494985681665639-23.369977469470541-15.563953090711948-7.059931192168733-4.8229944048162-10.150016749328643-9.865043819996572-7.939935410449834-15.78398466283943,1.539915829331221-3.727047966787723,5.510005604770413-6.138056888314168,9.699943847021132-5.700007902698417,1.320067362519694,0,2.650022412899489.218993975253397,3.969967705210365.438964512268285,7.720086943660135,1.753050434004763,15.220081280080194,5.480037365683529,19.62999005932943,6.576044838820962.440063144249507.218993975253397,1.099974755299627.218993975253397,1.540037899549134.218993975253397,2.430051875900972,0,3.089963486940178-1.096007473137433,3.089963486940178-3.726010369917276-1.099974755288713-13.373036776420122-1.099974755288713-26.964029931223195-.439941074029775-40.335968075661185.439941074029775-15.126026175315928,6.60998036007004-29.814003365017015,16.979967646420846-40.993987598290914,31.530005487149538-31.567969325677041,82.919981328719587-31.786963300928619,114.669957352889469-.43902554737906l.449950832100512.43902554737906c10.359977528280069,11.179984233273899,16.319933965149175,25.647990885960098,16.979967646419027,40.993987598290914.880004218281101,13.371938144437991.660033681260757,26.962931299241063-.439941074029775,40.335968075661185-.220092607240076,2.849973433793821.659911611041025,3.726010369917276,3.079953728869441,3.726010369917276.660033681269852,0,1.109984513370364,0,1.550047657619871-.218993975253397,4.409908779251055-1.096007473137433,11.909903115671113-4.8229944048162,19.619980301260512-6.576044838820962,1.329955050379795-.219970537014888,2.649900342690671-.438964512268285,3.749997168210029-.438964512268285,4.189938242239805-.438048985615751,7.939935410460748,1.972959935910694,9.709953605080955,5.700007902698417,2.199949510590159,6.13799585320703-.890013976350019,10.96099025802323-7.940057480671385,15.78398466283943-4.189938242239805,2.84899687203324-19.629867989109698,12.49498568166382-23.159894620299383,15.563953090711948-2.64001265485058,2.192014946273048-3.749997168210029,5.700007902700236-2.64001265485058,9.207024297364114.439941074029775,2.630979458541333,8.150018259620992,38.801972652017866,56.889971688271544,62.257948591703098,2.869992949928928,1.534971985405718,7.719964873438585,4.385006454311224-.880004218281101,8.987969287001761Z"/>
  </g>
</svg>