<?xml version="1.0" encoding="UTF-8" standalone="no"?>
<!-- Created with Inkscape (http://www.inkscape.org/) -->

<svg
   xmlns:dc="http://purl.org/dc/elements/1.1/"
   xmlns:cc="http://creativecommons.org/ns#"
   xmlns:rdf="http://www.w3.org/1999/02/22-rdf-syntax-ns#"
   xmlns:svg="http://www.w3.org/2000/svg"
   xmlns="http://www.w3.org/2000/svg"
   xmlns:sodipodi="http://sodipodi.sourceforge.net/DTD/sodipodi-0.dtd"
   xmlns:inkscape="http://www.inkscape.org/namespaces/inkscape"
   version="1.1"
   id="svg2"
   xml:space="preserve"
   width="576"
   height="576"
   viewBox="0 0 576 576"
   sodipodi:docname="snapchat.svg"
   inkscape:version="0.92.1 r15371"><metadata
     id="metadata8"><rdf:RDF><cc:Work
         rdf:about=""><dc:format>image/svg+xml</dc:format><dc:type
           rdf:resource="http://purl.org/dc/dcmitype/StillImage" /><dc:title></dc:title></cc:Work></rdf:RDF></metadata><defs
     id="defs6" /><sodipodi:namedview
     pagecolor="#ffffff"
     bordercolor="#666666"
     borderopacity="1"
     objecttolerance="10"
     gridtolerance="10"
     guidetolerance="10"
     inkscape:pageopacity="0"
     inkscape:pageshadow="2"
     inkscape:window-width="640"
     inkscape:window-height="480"
     id="namedview4"
     showgrid="false"
     inkscape:zoom="0.40972222"
     inkscape:cx="288"
     inkscape:cy="288"
     inkscape:window-x="0"
     inkscape:window-y="0"
     inkscape:window-maximized="0"
     inkscape:current-layer="g10" /><g
     id="g10"
     inkscape:groupmode="layer"
     inkscape:label="ink_ext_XXXXXX"
     transform="matrix(1.3333333,0,0,-1.3333333,0,576)"><g
       id="g12"
       transform="scale(0.1)"><path
         d="m 3631.66,4320.03 c 380.11,0 688.34,-308.19 688.34,-688.42 V 688.352 C 4320,308.219 4011.77,0 3631.66,0 H 688.387 C 308.227,0 0,308.219 0,688.352 V 3631.61 c 0,380.23 308.227,688.42 688.387,688.42 H 3631.66"
         style="fill:#f0ee12;fill-opacity:1;fill-rule:nonzero;stroke:none"
         id="path14"
         inkscape:connector-curvature="0" /><path
         d="m 2175.86,674.781 c -8.15,0 -16.17,0.231 -24.18,0.61 h -0.02 c -5.1,-0.391 -10.45,-0.61 -15.79,-0.61 -187.48,0 -307.82,85.059 -424.18,167.328 -80.35,56.782 -156.17,110.371 -245.51,125.25 -43.59,7.219 -86.98,10.879 -128.92,10.879 -75.54,0 -135.13,-11.66 -178.64,-20.168 -26.44,-5.172 -49.25,-9.621 -66.58,-9.621 -18.11,0 -37.74,3.922 -46.26,33.063 -7.42,25.248 -12.78,49.698 -17.93,73.348 -13.29,60.88 -22.73,98.31 -48.241,102.23 -297.359,45.93 -382.468,108.56 -401.441,153 -2.688,6.35 -4.215,12.72 -4.582,19.02 -0.961,17.07 11.133,32.15 28,34.9 457.114,75.28 662.094,542.47 670.604,562.31 0.23,0.55 0.48,1.08 0.73,1.63 27.98,56.69 33.46,105.91 16.34,146.25 -31.37,73.93 -133.68,106.42 -201.4,127.9 -16.57,5.24 -32.28,10.2 -44.67,15.1 -135.139,53.42 -146.385,108.26 -141.077,136.21 9.059,47.62 72.703,80.81 124.177,80.81 14.11,0 26.54,-2.5 36.99,-7.38 60.79,-28.48 115.58,-42.91 162.85,-42.91 65.32,0 93.83,27.45 97.32,31.05 -1.66,30.94 -3.72,63.25 -5.83,96.59 -13.61,216.12 -30.48,484.65 37.89,637.93 204.92,459.47 639.47,495.16 767.77,495.16 3.29,0 56.25,0.57 56.25,0.57 l 7.6,0.03 c 128.6,0 564.1,-35.76 769.13,-495.48 68.39,-153.36 51.47,-422.13 37.84,-638.08 l -0.57,-9.39 c -1.89,-30.07 -3.71,-59.3 -5.24,-87.28 3.27,-3.33 29.49,-28.58 88.71,-30.85 h 0.07 c 45,1.72 96.72,16.07 153.48,42.66 16.64,7.77 35.11,9.41 47.69,9.41 19.21,0 38.68,-3.72 54.85,-10.47 l 0.98,-0.4 c 45.91,-16.27 75.99,-48.45 76.63,-82.07 0.6,-31.67 -23.57,-79.27 -142.15,-126.11 -12.29,-4.83 -28,-9.82 -44.63,-15.1 -67.8,-21.51 -170.07,-53.97 -201.42,-127.89 -17.14,-40.32 -11.65,-89.5 16.32,-146.23 0.25,-0.55 0.53,-1.08 0.74,-1.66 8.51,-19.82 213.31,-486.88 670.63,-562.24 16.88,-2.79 28.94,-17.85 28.01,-34.93 -0.38,-6.41 -1.94,-12.86 -4.67,-19.13 -18.87,-44.12 -103.91,-106.67 -401.37,-152.63 -24.3,-3.73 -33.72,-35.4 -48.22,-101.8 -5.27,-24.17 -10.61,-47.9 -17.96,-72.871 -6.34,-21.66 -19.84,-31.801 -42.55,-31.801 h -3.7 c -15.75,0 -38.16,2.82 -66.56,8.402 -50.36,9.852 -106.82,18.918 -178.66,18.918 -41.95,0 -85.36,-3.66 -128.98,-10.879 -89.24,-14.879 -165.01,-68.371 -245.21,-125.058 -116.6,-82.461 -236.92,-167.52 -424.46,-167.52"
         style="fill:#ffffff;fill-opacity:1;fill-rule:nonzero;stroke:none"
         id="path16"
         inkscape:connector-curvature="0" /><path
         d="M 2187.13,3678.75 H 2187 c -2.79,0 -5.41,0 -7.9,-0.05 v 0 c 0,0 -51.8,-0.52 -55.92,-0.52 -133.31,0 -585.13,-37.13 -798.29,-515.05 -71.69,-160.78 -54.5,-433.85 -40.72,-653.28 1.62,-25.88 3.35,-52.74 4.83,-78.69 -11.03,-6.11 -31.17,-13.71 -62.87,-13.71 -42.31,0 -92.32,13.36 -148.62,39.75 -14.95,7 -32.18,10.5 -51.22,10.5 -65.938,0 -144.81,-43.38 -157.087,-108.04 -8.855,-46.56 11.977,-114.48 161.657,-173.6 13.51,-5.34 29.75,-10.48 46.9,-15.9 61.83,-19.64 155.3,-49.3 180.67,-109.05 13.13,-30.95 7.89,-70.79 -15.55,-118.37 -0.51,-1.08 -1.03,-2.14 -1.49,-3.25 -8.23,-19.14 -206.05,-470.1 -645.242,-542.4 -33.773,-5.57 -57.91,-35.7 -56.035,-69.87 0.582,-10.16 2.989,-20.28 7.149,-30.1 32.961,-77.06 172.027,-133.53 425.199,-172.82 8.461,-11.45 17.25,-51.87 22.641,-76.51 5.288,-24.3 10.748,-49.36 18.528,-75.802 7.63,-25.988 27.45,-57.058 78.41,-57.058 20.58,0 44.87,4.75 72.98,10.269 42.18,8.242 99.94,19.52 172.24,19.52 40.1,0 81.66,-3.481 123.51,-10.418 81.69,-13.61 151.11,-62.68 231.48,-119.492 115.11,-81.391 245.47,-173.528 443.62,-173.528 5.44,0 10.92,0.16 16.33,0.559 6.43,-0.281 14.78,-0.559 23.66,-0.559 198.21,0 328.55,92.149 443.58,173.5 80.55,56.891 149.92,105.938 231.61,119.52 41.78,6.937 83.35,10.418 123.46,10.418 68.98,0 123.56,-8.77 172.24,-18.278 30.5,-5.972 55.05,-9.011 72.98,-9.011 l 1.88,-0.032 h 1.82 c 37.64,0 64.19,19.891 74.73,55.981 7.63,25.902 13.1,50.311 18.51,75.031 5.36,24.56 14.13,64.81 22.56,76.18 253.24,39.32 392.27,95.7 425.16,172.43 4.23,9.82 6.66,20.02 7.24,30.27 1.9,34.19 -22.25,64.28 -56,69.83 -439.4,72.42 -637.05,523.28 -645.26,542.4 -0.47,1.1 -0.97,2.2 -1.51,3.26 -23.46,47.57 -28.65,87.38 -15.53,118.33 25.35,59.75 118.78,89.41 180.62,109.01 17.3,5.49 33.56,10.67 46.93,15.94 109.54,43.26 164.49,96.39 163.33,157.91 -0.95,48.32 -38.58,91.43 -98.4,112.8 l -0.18,0.06 c -20.12,8.35 -44,12.91 -67.39,12.91 -15.99,0 -39.71,-2.18 -61.87,-12.54 -52.1,-24.42 -98.93,-37.69 -139.3,-39.5 -26.77,1.25 -44.29,8 -54.28,13.5 1.27,22.27 2.69,45.19 4.2,69.14 l 0.56,9.31 c 13.86,219.58 31.06,492.89 -40.7,653.78 -213.25,478.13 -666.03,515.32 -799.72,515.32 z m 0,-67 c 121.73,-0.02 540.97,-32.68 738.55,-475.62 65.03,-145.82 48.4,-410.04 35.01,-622.32 -2.12,-33.66 -4.18,-66.28 -5.85,-97.49 l -0.73,-13.38 8.97,-9.97 c 3.58,-4.03 37.42,-39.36 112.61,-42.28 l 1.26,-0.03 1.23,0.03 c 49.71,1.87 105.74,17.29 166.6,45.81 8.93,4.2 20.85,6.24 33.46,6.24 14.4,0 29.66,-2.7 42.26,-8.01 l 1.89,-0.76 c 31.88,-11.17 54.44,-32.27 54.82,-51.31 0.19,-10.83 -7.91,-49.63 -120.97,-94.28 -11.04,-4.38 -25.61,-8.99 -42.46,-14.31 -73.57,-23.39 -184.72,-58.62 -222.14,-146.73 -21.08,-49.73 -15.34,-108.32 17.12,-174.19 13.37,-31.16 223.33,-504.27 695.97,-582.14 -0.13,-2.19 -0.66,-4.68 -1.94,-7.57 -8.03,-18.87 -58.95,-84.01 -375.74,-132.91 -49.59,-7.65 -61.75,-63.18 -75.85,-127.81 -5.03,-23.1 -10.25,-46.41 -17.36,-70.56 -2.15,-7.301 -2.56,-7.73 -10.41,-7.73 -1.07,0 -2.29,0 -3.7,0 v 0 c -14.05,0 -35.41,2.922 -60.14,7.761 -44.9,8.779 -106.47,19.539 -185.08,19.539 -43.87,0 -89.11,-3.81 -134.44,-11.33 -96.94,-16.138 -175.81,-71.92 -259.34,-130.92 -112.12,-79.289 -228.01,-161.21 -404.87,-161.21 -7.67,0 -15.24,0.25 -22.8,0.609 l -1.99,0.101 -2.01,-0.179 c -4.34,-0.36 -8.71,-0.531 -13.19,-0.531 -176.82,0 -292.76,81.921 -404.86,161.179 -83.5,59.031 -162.39,114.813 -259.31,130.951 -45.35,7.52 -90.56,11.33 -134.44,11.33 -78.59,0 -140.16,-11.968 -185.09,-20.761 -24.72,-4.86 -46.11,-9.008 -60.13,-9.008 -11.46,0 -11.7,0.66 -14.12,8.937 -7.1,24.172 -12.31,48.102 -17.35,71.182 -14.11,64.62 -26.32,120.49 -75.851,128.13 -316.817,48.92 -367.707,114.22 -375.75,133.05 -1.278,2.92 -1.809,5.47 -1.922,7.69 472.603,77.87 682.563,550.92 695.933,582.17 32.46,65.9 38.23,124.45 17.13,174.15 -37.39,88.14 -148.55,123.41 -222.13,146.8 -16.86,5.3 -31.42,9.93 -42.47,14.31 -95.522,37.72 -124.865,75.72 -120.471,98.76 5.059,26.56 51.09,53.56 91.251,53.56 9.04,0 16.93,-1.44 22.79,-4.2 65.25,-30.53 124.85,-46.07 177.05,-46.07 82.16,0 118.73,38.23 122.61,42.56 l 8.91,9.95 -0.73,13.34 c -1.67,31.15 -3.72,63.76 -5.85,97.4 -13.37,212.28 -30,476.32 35.04,622.17 196.81,441.32 614,475.32 737.17,475.32 3.04,0 56.57,0.53 56.57,0.53 2.3,0.03 4.71,0.05 7.28,0.05"
         style="fill:#11100e;fill-opacity:1;fill-rule:nonzero;stroke:none"
         id="path18"
         inkscape:connector-curvature="0" /></g></g></svg>