<svg width="300" height="70" viewBox="0 0 300 70" fill="none" xmlns="http://www.w3.org/2000/svg">
<rect width="300" height="70" fill="white"/>
<path d="M74.1538 35.7619C72.9518 35.2345 72.0073 34.4862 71.3204 33.5295C70.7193 32.6709 70.3759 31.7019 70.3023 30.5857C70.29 30.3526 70.4863 30.1441 70.7316 30.1441H72.3139C73.2461 30.1441 74.1661 30.6225 74.5709 31.4688C74.7671 31.8613 75.0247 32.217 75.3681 32.536C76.0428 33.1615 76.9873 33.4682 78.2138 33.4682C79.4404 33.4682 80.4708 33.1615 81.17 32.5482C81.8814 31.9349 82.2371 31.1499 82.2371 30.1809C82.2371 29.4327 82.0163 28.8194 81.5747 28.341C81.1331 27.8749 80.5934 27.5069 79.9311 27.2493C79.281 26.9917 78.3733 26.7096 77.208 26.4152C75.7484 26.0227 74.5586 25.6425 73.6509 25.2377C72.7432 24.8452 71.9582 24.2196 71.3204 23.3855C70.6703 22.5515 70.3514 21.4353 70.3514 20.0369C70.3514 18.749 70.6703 17.6205 71.3204 16.6638C71.9705 15.7071 72.8659 14.9588 74.0189 14.4437C75.1719 13.9285 76.5211 13.6709 78.0421 13.6709C80.2132 13.6709 81.9795 14.2106 83.3656 15.3023C84.629 16.2958 85.3772 17.6205 85.6102 19.2887C85.647 19.534 85.4385 19.7548 85.1932 19.7548H81.9672C81.7587 19.7548 81.5993 19.5954 81.5502 19.3991C81.4153 18.7367 81.0473 18.1602 80.4463 17.6696C79.7348 17.0931 78.8026 16.7987 77.6496 16.7987C76.5947 16.7987 75.7361 17.0686 75.0738 17.6083C74.4114 18.148 74.0802 18.9207 74.0802 19.9265C74.0802 20.6134 74.2887 21.1777 74.7058 21.6192C75.1228 22.0608 75.6503 22.4043 76.3004 22.6619C76.9382 22.9194 77.8213 23.2016 78.9375 23.4959C80.4217 23.9007 81.6238 24.3055 82.556 24.7225C83.4882 25.1396 84.2855 25.7529 84.9356 26.5992C85.5857 27.4456 85.9169 28.5741 85.9169 29.9969C85.9169 31.1376 85.6102 32.2048 84.9969 33.2106C84.3836 34.2164 83.5005 35.026 82.3229 35.6393C81.1577 36.2526 79.7716 36.5592 78.1893 36.5592C76.6929 36.5592 75.3313 36.3016 74.1415 35.7742L74.1538 35.7619Z" fill="#290042"/>
<path d="M93.0072 35.4804C91.6579 34.7199 90.5908 33.6405 89.818 32.2667C89.0453 30.8807 88.665 29.2738 88.665 27.4585C88.665 25.6431 89.0575 24.0608 89.8548 22.6625C90.6521 21.2641 91.7315 20.197 93.1053 19.4488C94.4791 18.7006 96.0123 18.3203 97.7051 18.3203C99.3978 18.3203 100.931 18.7006 102.305 19.4488C103.679 20.197 104.758 21.2764 105.555 22.6625C106.353 24.0608 106.745 25.6554 106.745 27.4585C106.745 29.2616 106.34 30.8561 105.518 32.2545C104.709 33.6528 103.593 34.7322 102.182 35.4927C100.772 36.2532 99.226 36.6334 97.5333 36.6334C95.8406 36.6334 94.3442 36.2532 92.9949 35.4927L93.0072 35.4804ZM100.195 32.7574C101.017 32.3035 101.691 31.6289 102.207 30.7335C102.722 29.8381 102.979 28.7341 102.979 27.4462C102.979 26.1583 102.734 25.0666 102.243 24.1834C101.753 23.288 101.09 22.6257 100.281 22.1718C99.4714 21.718 98.5882 21.4972 97.6437 21.4972C96.6992 21.4972 95.8284 21.718 95.0188 22.1718C94.2093 22.6257 93.5714 23.288 93.1053 24.1834C92.6269 25.0789 92.3939 26.1583 92.3939 27.4462C92.3939 29.3597 92.8845 30.8316 93.8535 31.8742C94.8348 32.9168 96.0614 33.432 97.5333 33.432C98.4778 33.432 99.361 33.2112 100.183 32.7574H100.195Z" fill="#290042"/>
<path d="M130.454 22.6507C131.19 21.277 132.208 20.2098 133.484 19.4493C134.76 18.6888 136.17 18.3086 137.716 18.3086C139.114 18.3086 140.329 18.5784 141.371 19.1304C142.414 19.6824 143.248 20.357 143.861 21.1788V21.1175C143.861 19.7314 144.99 18.603 146.376 18.603H147.148C147.381 18.603 147.565 18.787 147.565 19.02V35.9103C147.565 36.1433 147.381 36.3273 147.148 36.3273H144.29C144.057 36.3273 143.873 36.1433 143.873 35.9103V33.6901C143.248 34.5242 142.401 35.2234 141.334 35.7876C140.255 36.3396 139.041 36.6217 137.667 36.6217C136.146 36.6217 134.747 36.2292 133.484 35.4442C132.221 34.6591 131.215 33.5675 130.479 32.1569C129.743 30.7463 129.375 29.164 129.375 27.3731C129.375 25.5823 129.743 24.0123 130.479 22.6385L130.454 22.6507ZM143.101 24.2576C142.598 23.3622 141.935 22.6753 141.126 22.1969C140.316 21.7308 139.433 21.4855 138.489 21.4855C137.544 21.4855 136.661 21.7185 135.851 22.1724C135.042 22.6385 134.38 23.3131 133.877 24.1963C133.374 25.0917 133.116 26.1465 133.116 27.3609C133.116 28.5752 133.374 29.6546 133.877 30.5746C134.38 31.4945 135.042 32.2059 135.876 32.6843C136.698 33.1627 137.581 33.408 138.501 33.408C139.421 33.408 140.329 33.1749 141.138 32.6966C141.948 32.2305 142.61 31.5313 143.113 30.6236C143.616 29.7159 143.873 28.6488 143.873 27.4222C143.873 26.1956 143.616 25.1407 143.113 24.2331L143.101 24.2576Z" fill="#290042"/>
<path d="M158.434 19.0685C159.219 18.627 160.127 18.3816 161.169 18.3203C161.402 18.3203 161.611 18.5043 161.611 18.7374V22.0982H160.679C159.244 22.0982 158.152 22.4662 157.416 23.1899C156.68 23.9136 156.312 25.1893 156.312 26.9924V35.9097C156.312 36.1428 156.128 36.3268 155.895 36.3268H153.062C152.829 36.3268 152.645 36.1428 152.645 35.9097V19.0195C152.645 18.7864 152.829 18.6024 153.062 18.6024H153.798C155.184 18.6024 156.312 19.7309 156.312 21.117V21.1783C156.852 20.2829 157.563 19.5714 158.446 19.0685H158.434Z" fill="#290042"/>
<path d="M125.156 21.7553C124.531 20.6146 123.672 19.756 122.568 19.1795C121.464 18.603 120.213 18.3086 118.815 18.3086C118.692 18.3086 118.57 18.3086 118.447 18.3209C118.435 18.3209 118.422 18.3209 118.41 18.3209C118.349 18.3209 118.3 18.3331 118.238 18.3331C118.091 18.3331 117.956 18.3577 117.821 18.3699C117.723 18.3822 117.613 18.3945 117.515 18.419C117.343 18.4558 117.171 18.4803 117 18.5294C116.975 18.5294 116.938 18.5416 116.914 18.5539C116.472 18.6766 116.055 18.8483 115.675 19.0568C114.779 19.5597 114.068 20.2589 113.541 21.1666V21.1052C113.541 19.7192 112.412 18.5907 111.026 18.5907H110.29C110.057 18.5907 109.873 18.7747 109.873 19.0078V35.898C109.873 36.131 110.057 36.315 110.29 36.315H113.124C113.357 36.315 113.541 36.131 113.541 35.898V26.9806C113.541 26.9806 113.541 26.9438 113.541 26.9316V26.4041C113.541 24.8218 113.945 23.5952 114.743 22.7489C115.552 21.9025 116.632 21.4732 118.005 21.4732C119.379 21.4732 120.459 21.9025 121.256 22.7489C122.053 23.5952 122.446 24.8096 122.446 26.4041V35.898C122.446 36.131 122.63 36.315 122.863 36.315H125.659C125.892 36.315 126.076 36.131 126.076 35.898V25.8522C126.076 24.2453 125.77 22.8715 125.144 21.7308L125.156 21.7553Z" fill="#290042"/>
<path d="M183.088 40.0932L179.433 36.1313C178.464 36.4134 177.409 36.5483 176.244 36.5483C174.159 36.5483 172.245 36.0577 170.503 35.0887C168.749 34.1074 167.376 32.7459 166.357 31.0041C165.339 29.2501 164.824 27.2875 164.824 25.1042C164.824 22.9208 165.339 20.9583 166.357 19.2165C167.376 17.4748 168.762 16.1255 170.503 15.1442C172.257 14.1629 174.171 13.6846 176.244 13.6846C178.317 13.6846 180.267 14.1752 182.021 15.1442C183.775 16.1255 185.149 17.4748 186.155 19.2165C187.161 20.9583 187.663 22.9208 187.663 25.1042C187.663 27.1649 187.222 29.0293 186.326 30.6852C185.431 32.3534 184.204 33.6781 182.647 34.6962L184.143 36.3398C185.124 37.407 184.989 39.0874 183.861 39.9951L183.665 40.1545C183.493 40.2895 183.248 40.2772 183.101 40.1177L183.088 40.0932ZM169.559 29.4586C170.209 30.7097 171.117 31.6788 172.282 32.3534C173.435 33.028 174.76 33.3715 176.244 33.3715C177.728 33.3715 179.04 33.028 180.206 32.3534C181.371 31.6788 182.266 30.7097 182.929 29.4586C183.579 28.2075 183.91 26.7478 183.91 25.1042C183.91 23.4605 183.579 22.0009 182.929 20.762C182.279 19.5232 181.371 18.5664 180.206 17.8918C179.053 17.2294 177.728 16.8983 176.244 16.8983C174.76 16.8983 173.447 17.2294 172.282 17.8918C171.129 18.5542 170.221 19.5109 169.559 20.762C168.897 22.0132 168.578 23.4483 168.578 25.1042C168.578 26.7601 168.909 28.2075 169.559 29.4586Z" fill="#126ED3"/>
<path d="M207.571 21.1053V35.9104C207.571 36.1434 207.387 36.3274 207.154 36.3274H204.32C204.087 36.3274 203.903 36.1434 203.903 35.9104V34.2422C203.327 34.9659 202.566 35.5424 201.634 35.9594C200.702 36.3765 199.708 36.585 198.653 36.585C197.255 36.585 196.016 36.2906 194.9 35.7141C193.796 35.1376 192.925 34.279 192.287 33.1383C191.649 31.9975 191.343 30.6237 191.343 29.0169V19.0079C191.343 18.7748 191.527 18.5908 191.76 18.5908H192.471C193.857 18.5908 194.986 19.7193 194.986 21.1053V28.4772C194.986 30.0595 195.378 31.2861 196.176 32.1325C196.973 32.9788 198.052 33.4081 199.426 33.4081C200.8 33.4081 201.892 32.9788 202.689 32.1325C203.498 31.2861 203.891 30.0718 203.891 28.4772V19.0201C203.891 18.7871 204.075 18.6031 204.308 18.6031H205.044C206.43 18.6031 207.558 19.7316 207.558 21.1176L207.571 21.1053Z" fill="#126ED3"/>
<path d="M217.923 19.1303C219.003 18.5784 220.217 18.3085 221.542 18.3085C223.112 18.3085 224.523 18.6888 225.786 19.437C227.049 20.1852 228.055 21.2524 228.779 22.6384C229.503 24.0245 229.871 25.6068 229.871 27.3853C229.871 29.1639 229.503 30.7585 228.779 32.1691C228.055 33.5797 227.049 34.6713 225.774 35.4563C224.498 36.2414 223.087 36.6339 221.542 36.6339C220.168 36.6339 218.954 36.364 217.887 35.8243C216.82 35.2846 215.985 34.5977 215.36 33.7636V35.9225C215.36 36.1555 215.176 36.3395 214.943 36.3395H212.109C211.876 36.3395 211.692 36.1555 211.692 35.9225V12.9483C211.692 12.7152 211.876 12.5312 212.109 12.5312H212.845C214.231 12.5312 215.36 13.6597 215.36 15.0458V21.2524C215.985 20.3937 216.832 19.6946 217.923 19.1426V19.1303ZM225.381 24.2085C224.878 23.313 224.216 22.6384 223.382 22.1846C222.56 21.7185 221.665 21.4977 220.72 21.4977C219.776 21.4977 218.929 21.7307 218.095 22.2091C217.273 22.6875 216.599 23.3621 216.096 24.2698C215.593 25.1652 215.335 26.2323 215.335 27.4589C215.335 28.6855 215.593 29.7527 216.096 30.6604C216.599 31.568 217.261 32.2672 218.095 32.7333C218.917 33.2117 219.8 33.4447 220.72 33.4447C221.64 33.4447 222.548 33.1994 223.382 32.721C224.204 32.2427 224.878 31.5312 225.381 30.6113C225.884 29.6913 226.142 28.6119 226.142 27.3976C226.142 26.1833 225.884 25.1161 225.381 24.233V24.2085Z" fill="#126ED3"/>
<path d="M249.485 28.8322H236.311C236.422 30.2428 236.949 31.3836 237.893 32.2422C238.838 33.1008 239.991 33.5301 241.365 33.5301C243.254 33.5301 244.603 32.7819 245.437 31.2732C245.511 31.1382 245.646 31.0524 245.793 31.0524H249.509C248.97 32.6838 248.001 34.0208 246.602 35.0634C245.204 36.106 243.45 36.6211 241.377 36.6211C239.684 36.6211 238.163 36.2409 236.826 35.4804C235.489 34.7199 234.434 33.6405 233.674 32.2667C232.913 30.8929 232.533 29.2738 232.533 27.4585C232.533 25.6431 232.901 24.0363 233.637 22.6502C234.373 21.2641 235.416 20.197 236.765 19.4488C238.102 18.7006 239.647 18.3203 241.377 18.3203C243.106 18.3203 244.542 18.6883 245.854 19.412C247.167 20.1357 248.185 21.166 248.908 22.4907C249.632 23.8155 250 25.3242 250 27.0414C250 27.5566 249.975 28.0472 249.926 28.4765C249.902 28.6851 249.718 28.8322 249.509 28.8322H249.485ZM246.148 25.8761C246.124 24.5269 245.646 23.4475 244.701 22.6257C243.757 21.8161 242.591 21.3991 241.193 21.3991C239.93 21.3991 238.85 21.8038 237.943 22.6011C237.047 23.4107 236.507 24.4901 236.336 25.8639H246.148V25.8761Z" fill="#126ED3"/>
<path d="M73.5169 57.9277C72.7932 57.621 72.2289 57.1794 71.8119 56.6275C71.3948 56.0755 71.1618 55.4377 71.125 54.714H73.1612C73.2225 55.3028 73.4923 55.7934 73.9952 56.1614C74.4981 56.5416 75.1482 56.7256 75.9578 56.7256C76.706 56.7256 77.2948 56.5662 77.7364 56.2227C78.1779 55.8793 78.3865 55.4745 78.3865 54.9716C78.3865 54.4687 78.1534 54.0639 77.6996 53.8186C77.2457 53.5733 76.522 53.3157 75.553 53.0703C74.6699 52.8373 73.9584 52.6042 73.4065 52.3712C72.8545 52.1381 72.3761 51.7824 71.9836 51.3163C71.5911 50.8502 71.3826 50.2369 71.3826 49.4642C71.3826 48.8631 71.5666 48.2989 71.9223 47.796C72.278 47.2931 72.7932 46.8883 73.4555 46.5939C74.1179 46.2995 74.8784 46.1523 75.7247 46.1523C77.0372 46.1523 78.0921 46.4835 78.9016 47.1459C79.7112 47.8082 80.1405 48.7159 80.2018 49.8689H78.2393C78.1902 49.2434 77.9449 48.7527 77.491 48.3725C77.0372 47.9922 76.4239 47.8082 75.6634 47.8082C74.952 47.8082 74.4 47.9554 73.9707 48.2621C73.5537 48.5687 73.3451 48.9612 73.3451 49.4519C73.3451 49.8444 73.4678 50.1633 73.7254 50.4086C73.983 50.6662 74.2896 50.8625 74.6821 51.0097C75.0624 51.1569 75.5898 51.3286 76.2767 51.5248C77.1231 51.7579 77.8222 51.9787 78.3497 52.1995C78.8771 52.4203 79.3432 52.7637 79.7234 53.2053C80.1037 53.6591 80.2999 54.2356 80.3122 54.9593C80.3122 55.6094 80.1282 56.1859 79.7725 56.7133C79.4168 57.2285 78.9016 57.6456 78.2515 57.9399C77.5892 58.2343 76.8409 58.3815 75.9946 58.3815C75.0869 58.3815 74.2651 58.2221 73.5537 57.9154L73.5169 57.9277Z" fill="#126ED3"/>
<path d="M94.0253 53.0101H84.556C84.6296 54.1754 85.0221 55.0953 85.7581 55.7454C86.494 56.3955 87.3649 56.7267 88.4075 56.7267C89.2539 56.7267 89.9653 56.5304 90.5418 56.1257C91.106 55.7332 91.5108 55.2057 91.7439 54.5311H93.8659C93.547 55.6718 92.9091 56.5918 91.9646 57.3155C91.0079 58.0269 89.8304 58.3826 88.4198 58.3826C87.2913 58.3826 86.2855 58.125 85.4023 57.6221C84.5192 57.1192 83.82 56.3955 83.3171 55.4756C82.8142 54.5434 82.5566 53.464 82.5566 52.2374C82.5566 51.0108 82.802 49.9314 83.2926 49.0114C83.7832 48.0915 84.4701 47.38 85.3533 46.8771C86.2364 46.3742 87.2545 46.1289 88.4198 46.1289C89.585 46.1289 90.5418 46.3742 91.4004 46.8649C92.2713 47.3555 92.9337 48.0301 93.3998 48.8887C93.8659 49.7474 94.0989 50.7164 94.0989 51.7958C94.0989 52.176 94.0744 52.5685 94.0376 52.9856L94.0253 53.0101ZM91.5599 49.4775C91.2287 48.9378 90.7748 48.5208 90.2106 48.2387C89.6464 47.9565 89.0085 47.8216 88.3216 47.8216C87.3281 47.8216 86.4817 48.1405 85.7826 48.7784C85.0834 49.4162 84.6787 50.2871 84.5805 51.4155H92.0628C92.0628 50.6673 91.891 50.0172 91.5599 49.4775Z" fill="#126ED3"/>
<path d="M100.355 46.6931C100.993 46.3129 101.778 46.1289 102.698 46.1289V48.1651H102.183C99.9747 48.1651 98.8708 49.3671 98.8708 51.759V58.2109H96.9082V46.3497H98.8708V48.2755C99.2142 47.6008 99.7049 47.0734 100.355 46.6931Z" fill="#126ED3"/>
<path d="M110.193 56.3832L113.873 46.3496H115.97L111.321 58.2108H109.028L104.379 46.3496H106.501L110.205 56.3832H110.193Z" fill="#126ED3"/>
<path d="M128.887 53.0101H119.417C119.491 54.1754 119.883 55.0953 120.619 55.7454C121.355 56.3955 122.226 56.7267 123.269 56.7267C124.115 56.7267 124.827 56.5304 125.403 56.1257C125.967 55.7332 126.372 55.2057 126.605 54.5311H128.727C128.408 55.6718 127.77 56.5918 126.826 57.3155C125.869 58.0269 124.692 58.3826 123.281 58.3826C122.153 58.3826 121.147 58.125 120.264 57.6221C119.381 57.1192 118.681 56.3955 118.178 55.4756C117.676 54.5434 117.418 53.464 117.418 52.2374C117.418 51.0108 117.663 49.9314 118.154 49.0114C118.645 48.0915 119.331 47.38 120.215 46.8771C121.098 46.3742 122.116 46.1289 123.281 46.1289C124.446 46.1289 125.403 46.3742 126.262 46.8649C127.133 47.3555 127.795 48.0301 128.261 48.8887C128.727 49.7474 128.96 50.7164 128.96 51.7958C128.96 52.176 128.936 52.5685 128.899 52.9856L128.887 53.0101ZM126.421 49.4775C126.09 48.9378 125.636 48.5208 125.072 48.2387C124.508 47.9565 123.87 47.8216 123.183 47.8216C122.189 47.8216 121.343 48.1405 120.644 48.7784C119.945 49.4162 119.54 50.2871 119.442 51.4155H126.924C126.924 50.6673 126.752 50.0172 126.421 49.4775Z" fill="#126ED3"/>
<path d="M135.203 46.6931C135.84 46.3129 136.625 46.1289 137.545 46.1289V48.1651H137.03C134.822 48.1651 133.718 49.3671 133.718 51.759V58.2109H131.756V46.3497H133.718V48.2755C134.062 47.6008 134.552 47.0734 135.203 46.6931Z" fill="#126ED3"/>
<path d="M58.0742 37.2969C57.0562 37.2969 56.2343 36.4751 56.2343 35.4571C56.2343 21.7928 45.1214 10.6798 31.4571 10.6798C30.439 10.6798 29.6172 9.85797 29.6172 8.83989C29.6172 7.82182 30.439 7 31.4571 7C47.1453 7 59.9141 19.7689 59.9141 35.4571C59.9141 36.4751 59.0923 37.2969 58.0742 37.2969Z" fill="#126ED3"/>
<path d="M31.4571 63.9132C15.7689 63.9132 3 51.1443 3 35.4561C3 34.438 3.82182 33.6162 4.83989 33.6162C5.85797 33.6162 6.67979 34.438 6.67979 35.4561C6.67979 49.1204 17.7928 60.2334 31.4571 60.2334C32.4751 60.2334 33.2969 61.0552 33.2969 62.0733C33.2969 63.0913 32.4751 63.9132 31.4571 63.9132Z" fill="#126ED3"/>
<path d="M39.4422 37.2968C38.4242 37.2968 37.6023 36.475 37.6023 35.4569C37.6023 32.0715 34.8425 29.3116 31.4571 29.3116C30.439 29.3116 29.6172 28.4898 29.6172 27.4717C29.6172 26.4537 30.439 25.6318 31.4571 25.6318C36.8786 25.6318 41.2821 30.0353 41.2821 35.4569C41.2821 36.475 40.4603 37.2968 39.4422 37.2968Z" fill="#126ED3"/>
<path d="M31.4569 45.2811C26.0353 45.2811 21.6318 40.8777 21.6318 35.4561C21.6318 34.438 22.4537 33.6162 23.4717 33.6162C24.4898 33.6162 25.3116 34.438 25.3116 35.4561C25.3116 38.8415 28.0715 41.6014 31.4569 41.6014C32.475 41.6014 33.2968 42.4232 33.2968 43.4413C33.2968 44.4593 32.475 45.2811 31.4569 45.2811Z" fill="#126ED3"/>
<path d="M48.7521 37.2961C47.734 37.2961 46.9122 36.4743 46.9122 35.4562C46.9122 26.9314 39.9819 20.0011 31.4571 20.0011C30.439 20.0011 29.6172 19.1793 29.6172 18.1612C29.6172 17.1431 30.439 16.3213 31.4571 16.3213C42.0058 16.3213 50.592 24.9075 50.592 35.4562C50.592 36.4743 49.7702 37.2961 48.7521 37.2961Z" fill="#126ED3"/>
<path d="M31.4562 54.591C20.9075 54.591 12.3213 46.0048 12.3213 35.4561C12.3213 34.438 13.1431 33.6162 14.1612 33.6162C15.1793 33.6162 16.0011 34.438 16.0011 35.4561C16.0011 43.981 22.9314 50.9112 31.4562 50.9112C32.4743 50.9112 33.2961 51.733 33.2961 52.7511C33.2961 53.7692 32.4743 54.591 31.4562 54.591Z" fill="#126ED3"/>
</svg>
