<?xml version="1.0" encoding="UTF-8" standalone="no"?>
<svg
   width="56.914101"
   height="56.9132"
   viewBox="0 0 56.914101 56.9132"
   fill="none"
   version="1.1"
   id="svg21"
   xmlns="http://www.w3.org/2000/svg"
   xmlns:svg="http://www.w3.org/2000/svg">
  <defs
     id="defs21" />
  <path
     d="m 55.0742,30.2969 c -1.018,0 -1.8399,-0.8218 -1.8399,-1.8398 0,-13.6643 -11.1129,-24.7773 -24.7772,-24.7773 -1.0181,0 -1.8399,-0.82183 -1.8399,-1.83991 C 26.6172,0.82182 27.439,0 28.4571,0 c 15.6882,0 28.457,12.7689 28.457,28.4571 0,1.018 -0.8218,1.8398 -1.8399,1.8398 z"
     fill="#126ed3"
     id="path16" />
  <path
     d="M 28.4571,56.9132 C 12.7689,56.9132 0,44.1443 0,28.4561 0,27.438 0.82182,26.6162 1.83989,26.6162 c 1.01808,0 1.8399,0.8218 1.8399,1.8399 0,13.6643 11.11301,24.7773 24.77731,24.7773 1.018,0 1.8398,0.8218 1.8398,1.8399 0,1.018 -0.8218,1.8399 -1.8398,1.8399 z"
     fill="#126ed3"
     id="path17" />
  <path
     d="m 36.4422,30.2968 c -1.018,0 -1.8399,-0.8218 -1.8399,-1.8399 0,-3.3854 -2.7598,-6.1453 -6.1452,-6.1453 -1.0181,0 -1.8399,-0.8218 -1.8399,-1.8399 0,-1.018 0.8218,-1.8399 1.8399,-1.8399 5.4215,0 9.825,4.4035 9.825,9.8251 0,1.0181 -0.8218,1.8399 -1.8399,1.8399 z"
     fill="#126ed3"
     id="path18" />
  <path
     d="m 28.4569,38.2811 c -5.4216,0 -9.8251,-4.4034 -9.8251,-9.825 0,-1.0181 0.8219,-1.8399 1.8399,-1.8399 1.0181,0 1.8399,0.8218 1.8399,1.8399 0,3.3854 2.7599,6.1453 6.1453,6.1453 1.0181,0 1.8399,0.8218 1.8399,1.8399 0,1.018 -0.8218,1.8398 -1.8399,1.8398 z"
     fill="#126ed3"
     id="path19" />
  <path
     d="m 45.7521,30.2961 c -1.0181,0 -1.8399,-0.8218 -1.8399,-1.8399 0,-8.5248 -6.9303,-15.4551 -15.4551,-15.4551 -1.0181,0 -1.8399,-0.8218 -1.8399,-1.8399 0,-1.0181 0.8218,-1.8399 1.8399,-1.8399 10.5487,0 19.1349,8.5862 19.1349,19.1349 0,1.0181 -0.8218,1.8399 -1.8399,1.8399 z"
     fill="#126ed3"
     id="path20" />
  <path
     d="m 28.4562,47.591 c -10.5487,0 -19.1349,-8.5862 -19.1349,-19.1349 0,-1.0181 0.8218,-1.8399 1.8399,-1.8399 1.0181,0 1.8399,0.8218 1.8399,1.8399 0,8.5249 6.9303,15.4551 15.4551,15.4551 1.0181,0 1.8399,0.8218 1.8399,1.8399 0,1.0181 -0.8218,1.8399 -1.8399,1.8399 z"
     fill="#126ed3"
     id="path21" />
</svg>
