<?xml version="1.0" encoding="UTF-8" standalone="no"?>
<!-- Created with Inkscape (http://www.inkscape.org/) -->

<svg
   width="40.016987mm"
   height="44.755501mm"
   viewBox="0 0 40.016988 44.755501"
   version="1.1"
   id="svg470"
   xmlns="http://www.w3.org/2000/svg"
   xmlns:svg="http://www.w3.org/2000/svg">
  <defs
     id="defs467">
    <clipPath
       clipPathUnits="userSpaceOnUse"
       id="clipPath41">
      <path
         d="m 994.055,997.609 c 6.725,-11.629 35.115,-61.371 40.815,-77.398 6.42,-18.121 7.77,-23.313 7.77,-23.313 0,0 -15.57,80.114 -41.12,126.862 5.6,18.9 12.29,39.79 19.86,62.12 8.85,-15.53 28.96,-51.2 36.23,-68.1 0.27,3.19 0.54,6.38 0.82,9.54 -6.44,24.75 -16.22,57.15 -28.74,82.54 32.14,167.25 135.59,386.25 247.04,504.48 H 509.602 c -37.883,0 -68.711,-30.82 -68.711,-68.71 V 731.789 c 173.738,66.68 383.23,127.633 563.529,125.02 -6.693,25.812 -14.315,49.152 -22.318,62.679 -4.122,6.981 0.449,35.653 11.953,78.121 z"
         id="path39" />
    </clipPath>
    <linearGradient
       x1="0"
       y1="0"
       x2="1"
       y2="0"
       gradientUnits="userSpaceOnUse"
       gradientTransform="matrix(-4.02e-5,-918.907,-918.907,4.02e-5,858.809,1614.34)"
       spreadMethod="pad"
       id="linearGradient51">
      <stop
         style="stop-opacity:1;stop-color:#97d9f6"
         offset="0"
         id="stop43" />
      <stop
         style="stop-opacity:1;stop-color:#0f80cc"
         offset="0.66199914"
         id="stop45" />
      <stop
         style="stop-opacity:1;stop-color:#0f80cc"
         offset="0.920245"
         id="stop47" />
      <stop
         style="stop-opacity:1;stop-color:#0f80cc"
         offset="1"
         id="stop49" />
    </linearGradient>
  </defs>
  <g
     id="g337"
     transform="translate(-0.805946,-0.69891942)">
    <g
       id="g465"
       transform="translate(-56.57816,-61.353828)">
      <path
         d="m 79.198545,96.729705 c -0.02011,-0.25467 -0.0321,-0.420158 -0.0321,-0.420158 0,0 -0.77223,-5.206224 -1.691499,-6.759822 -0.145415,-0.246275 0.01584,-1.257759 0.421676,-2.755936 0.237243,0.410245 1.238779,2.165033 1.439862,2.73043 0.226484,0.639268 0.274109,0.822431 0.274109,0.822431 0,0 -0.549275,-2.826244 -1.450623,-4.47541 0.197556,-0.66675 0.433564,-1.403703 0.700617,-2.191456 0.341489,0.599017 1.158875,2.049286 1.338792,2.552348 0.03634,0.103364 0.06703,0.191205 0.09454,0.271639 0.0088,-0.04833 0.01764,-0.09666 0.02646,-0.144992 -0.206375,-0.875595 -0.611716,-2.399242 -1.166636,-3.524956 1.231195,-6.408209 5.430309,-14.973654 9.735256,-18.795296 H 60.806192 c -1.88214,0 -3.422086,1.540228 -3.422086,3.422298 v 30.970081 c 0,1.881964 1.539946,3.421944 3.422086,3.421944 h 18.49607 c -0.13335,-1.61438 -0.1778,-3.40046 -0.103717,-5.123145"
         style="fill:#0f80cc;fill-opacity:1;fill-rule:nonzero;stroke:none;stroke-width:0.0352778"
         id="path21" />
      <g
         id="g37"
         clip-path="url(#clipPath41)"
         transform="matrix(0.03527778,0,0,-0.03527778,42.828565,121.98722)">
        <path
           d="m 994.055,997.609 c 6.725,-11.629 35.115,-61.371 40.815,-77.398 6.42,-18.121 7.77,-23.313 7.77,-23.313 0,0 -15.57,80.114 -41.12,126.862 5.6,18.9 12.29,39.79 19.86,62.12 8.85,-15.53 28.96,-51.2 36.23,-68.1 0.27,3.19 0.54,6.38 0.82,9.54 -6.44,24.75 -16.22,57.15 -28.74,82.54 32.14,167.25 135.59,386.25 247.04,504.48 H 509.602 c -37.883,0 -68.711,-30.82 -68.711,-68.71 V 731.789 c 173.738,66.68 383.23,127.633 563.529,125.02 -6.693,25.812 -14.315,49.152 -22.318,62.679 -4.122,6.981 0.449,35.653 11.953,78.121"
           style="fill:url(#linearGradient51);fill-opacity:1;fill-rule:nonzero;stroke:none"
           id="path53" />
      </g>
      <path
         d="m 95.439377,63.024997 c -1.923345,-1.715206 -4.252031,-1.026231 -6.550379,1.01353 -0.341136,0.303037 -0.681566,0.639234 -1.020233,0.998362 -3.931709,4.170892 -7.581195,11.896725 -8.715023,17.796934 0.441678,0.895703 0.786695,2.038703 1.013884,2.911828 0.05821,0.224014 0.110772,0.43427 0.152752,0.613128 0.09984,0.423298 0.153459,0.697794 0.153459,0.697794 0,0 -0.03528,-0.133385 -0.179917,-0.552802 -0.02752,-0.08043 -0.05821,-0.168275 -0.09454,-0.271639 -0.01552,-0.04269 -0.03704,-0.09454 -0.06068,-0.149931 -0.25647,-0.596194 -0.965906,-1.854553 -1.278114,-2.402417 -0.267053,0.787753 -0.503061,1.524706 -0.700617,2.191456 0.901348,1.649166 1.450623,4.47541 1.450623,4.47541 0,0 -0.04762,-0.183163 -0.274109,-0.822431 -0.201083,-0.565397 -1.202619,-2.320185 -1.439862,-2.73043 -0.405836,1.498177 -0.567091,2.509661 -0.421676,2.755936 0.282328,0.477202 0.551216,1.300586 0.78733,2.211176 0.5334,2.051367 0.904169,4.548646 0.904169,4.548646 0,0 0.01199,0.165488 0.0321,0.420158 -0.07408,1.722685 -0.02963,3.508765 0.103717,5.123145 0.176741,2.13706 0.509411,3.97288 0.93345,4.9554 l 0.287866,-0.15695 c -0.622652,-1.93573 -0.875594,-4.47255 -0.764822,-7.39814 0.16757,-4.471846 1.196623,-9.86469 3.098095,-15.485534 3.212395,-8.485012 7.669389,-15.292918 11.748559,-18.544118 -3.717925,3.357739 -8.749948,14.22647 -10.256309,18.251312 -1.686631,4.50709 -2.881842,8.736578 -3.602214,12.788831 1.242836,-3.798959 5.261328,-5.431932 5.261328,-5.431932 0,0 1.97097,-2.430745 4.274256,-5.903454 -1.379714,0.314678 -3.645253,0.853369 -4.404078,1.172281 -1.119364,0.469547 -1.420989,0.629708 -1.420989,0.629708 0,0 3.62585,-2.208036 6.736645,-3.207809 4.278136,-6.738056 8.939042,-16.310328 4.245328,-20.497448"
         style="fill:#003b57;fill-opacity:1;fill-rule:nonzero;stroke:none;stroke-width:0.0352778"
         id="path55" />
    </g>
  </g>
</svg>
