<?xml version="1.0" encoding="UTF-8" standalone="no"?>
<!-- Created with Inkscape (http://www.inkscape.org/) -->

<svg
   width="103.73447mm"
   height="46.723713mm"
   viewBox="0 0 103.73447 46.723713"
   version="1.1"
   id="svg470"
   xmlns="http://www.w3.org/2000/svg"
   xmlns:svg="http://www.w3.org/2000/svg">
  <defs
     id="defs467">
    <clipPath
       clipPathUnits="userSpaceOnUse"
       id="clipPath41">
      <path
         d="m 994.055,997.609 c 6.725,-11.629 35.115,-61.371 40.815,-77.398 6.42,-18.121 7.77,-23.313 7.77,-23.313 0,0 -15.57,80.114 -41.12,126.862 5.6,18.9 12.29,39.79 19.86,62.12 8.85,-15.53 28.96,-51.2 36.23,-68.1 0.27,3.19 0.54,6.38 0.82,9.54 -6.44,24.75 -16.22,57.15 -28.74,82.54 32.14,167.25 135.59,386.25 247.04,504.48 H 509.602 c -37.883,0 -68.711,-30.82 -68.711,-68.71 V 731.789 c 173.738,66.68 383.23,127.633 563.529,125.02 -6.693,25.812 -14.315,49.152 -22.318,62.679 -4.122,6.981 0.449,35.653 11.953,78.121 z"
         id="path39" />
    </clipPath>
    <linearGradient
       x1="0"
       y1="0"
       x2="1"
       y2="0"
       gradientUnits="userSpaceOnUse"
       gradientTransform="matrix(-4.02e-5,-918.907,-918.907,4.02e-5,858.809,1614.34)"
       spreadMethod="pad"
       id="linearGradient51">
      <stop
         style="stop-opacity:1;stop-color:#97d9f6"
         offset="0"
         id="stop43" />
      <stop
         style="stop-opacity:1;stop-color:#0f80cc"
         offset="0.66199914"
         id="stop45" />
      <stop
         style="stop-opacity:1;stop-color:#0f80cc"
         offset="0.920245"
         id="stop47" />
      <stop
         style="stop-opacity:1;stop-color:#0f80cc"
         offset="1"
         id="stop49" />
    </linearGradient>
  </defs>
  <g
     id="g337">
    <rect
       style="fill:#ffffff;stroke:#ffffff;stroke-width:0.239562;stroke-linecap:round;stroke-linejoin:round"
       id="rect366"
       width="103.4949"
       height="46.48415"
       x="0.119781"
       y="0.119781"
       ry="0" />
    <g
       id="g465"
       transform="translate(-56.57816,-61.353828)">
      <path
         d="m 79.198545,96.729705 c -0.02011,-0.25467 -0.0321,-0.420158 -0.0321,-0.420158 0,0 -0.77223,-5.206224 -1.691499,-6.759822 -0.145415,-0.246275 0.01584,-1.257759 0.421676,-2.755936 0.237243,0.410245 1.238779,2.165033 1.439862,2.73043 0.226484,0.639268 0.274109,0.822431 0.274109,0.822431 0,0 -0.549275,-2.826244 -1.450623,-4.47541 0.197556,-0.66675 0.433564,-1.403703 0.700617,-2.191456 0.341489,0.599017 1.158875,2.049286 1.338792,2.552348 0.03634,0.103364 0.06703,0.191205 0.09454,0.271639 0.0088,-0.04833 0.01764,-0.09666 0.02646,-0.144992 -0.206375,-0.875595 -0.611716,-2.399242 -1.166636,-3.524956 1.231195,-6.408209 5.430309,-14.973654 9.735256,-18.795296 H 60.806192 c -1.88214,0 -3.422086,1.540228 -3.422086,3.422298 v 30.970081 c 0,1.881964 1.539946,3.421944 3.422086,3.421944 h 18.49607 c -0.13335,-1.61438 -0.1778,-3.40046 -0.103717,-5.123145"
         style="fill:#0f80cc;fill-opacity:1;fill-rule:nonzero;stroke:none;stroke-width:0.0352778"
         id="path21" />
      <path
         d="m 99.934471,84.584659 h 0.474839 v 3.954957 h -0.503061 c -0.115005,-1.093188 -0.510469,-1.946593 -1.186392,-2.560426 -0.676627,-0.612775 -1.526822,-0.920045 -2.5527,-0.920045 -0.911578,0 -1.64465,0.230364 -2.200628,0.690387 -0.555977,0.459669 -0.833966,1.073467 -0.833966,1.840759 0,0.709401 0.230011,1.356536 0.690386,1.940948 0.459669,0.585258 1.457325,1.337134 2.991556,2.258907 1.782939,1.063978 2.981325,1.992912 3.594805,2.789414 0.61348,0.795549 0.92004,1.706421 0.92004,2.732229 0,1.322916 -0.46813,2.454275 -1.405815,3.393691 -0.939094,0.93983 -2.069042,1.40945 -3.389489,1.40945 -0.766233,0 -1.742369,-0.21096 -2.929467,-0.63334 -0.487891,-0.17237 -0.799394,-0.25781 -0.933097,-0.25781 -0.277989,0 -0.492831,0.21523 -0.646289,0.64699 h -0.503414 v -4.558981 h 0.503414 c 0.0092,1.256206 0.418747,2.262752 1.227314,3.020521 0.808567,0.75667 1.753306,1.13524 2.834217,1.13524 1.024819,0 1.844322,-0.27231 2.462389,-0.81979 0.617008,-0.54723 0.925689,-1.276066 0.925689,-2.188068 0,-0.681143 -0.254,-1.333394 -0.760942,-1.956823 -0.506589,-0.623958 -1.567392,-1.427621 -3.180292,-2.412259 -1.31445,-0.812765 -2.192161,-1.452422 -2.63278,-1.923027 -0.44062,-0.470182 -0.766234,-0.985591 -0.976842,-1.547284 -0.210608,-0.560564 -0.316089,-1.177537 -0.316089,-1.848485 0,-1.294659 0.424744,-2.345302 1.273175,-3.151399 0.848431,-0.805392 1.953331,-1.208264 3.314347,-1.208264 0.747889,0 1.563159,0.148519 2.445103,0.445558 0.411692,0.134409 0.699559,0.201436 0.862189,0.201436 0.135114,0 0.225778,-0.02858 0.27305,-0.08608 0.04868,-0.05786 0.1016,-0.186973 0.15875,-0.388409"
         style="fill:#003b57;fill-opacity:1;fill-rule:nonzero;stroke:none;stroke-width:0.0352778"
         id="path23" />
      <path
         d="m 119.14851,93.38576 c 0,-2.579547 -0.59019,-4.611476 -1.76953,-6.097835 -1.17969,-1.48583 -2.70369,-2.22878 -4.57412,-2.22878 -1.98437,0 -3.56799,0.746125 -4.75191,2.235977 -1.18463,1.491438 -1.77553,3.482834 -1.77553,5.975562 0,2.42577 0.58702,4.398857 1.76106,5.918271 1.17511,1.519415 2.70616,2.278595 4.59458,2.278595 1.96568,0 3.5426,-0.73562 4.7311,-2.207334 1.18851,-1.472177 1.78435,-3.430094 1.78435,-5.874456 z m 2.93265,12.9716 0.18662,0.46041 c -0.82409,0.37402 -1.7586,0.56085 -2.80353,0.56085 -0.86289,0 -1.66405,-0.11314 -2.40206,-0.33789 -0.73731,-0.22571 -1.43122,-0.57051 -2.07751,-1.03572 -0.647,-0.46496 -1.43616,-1.23941 -2.36608,-2.32198 -0.82515,-0.95928 -1.45768,-1.55445 -1.8983,-1.78404 -1.92723,-0.39232 -3.58246,-1.40973 -4.96852,-3.048067 -1.38536,-1.639323 -2.07822,-3.509716 -2.07822,-5.609167 0,-1.5627 0.39794,-3.033889 1.19345,-4.414556 0.79587,-1.380772 1.87466,-2.461718 3.23709,-3.242416 1.36031,-0.782108 2.87055,-1.172633 4.52896,-1.172633 2.56011,0 4.71699,0.851253 6.47206,2.55263 1.75366,1.7012 2.63067,3.79416 2.63067,6.276975 0,2.09102 -0.67522,3.951923 -2.02706,5.586695 -1.3522,1.635479 -3.08293,2.658779 -5.19148,3.070539 0.20179,0.16151 0.56233,0.5697 1.0795,1.22234 1.10031,1.36204 2.02071,2.28604 2.75837,2.76998 0.73871,0.48274 1.47214,0.72542 2.20133,0.72542 0.53728,0 1.04634,-0.0868 1.52471,-0.25937"
         style="fill:#003b57;fill-opacity:1;fill-rule:nonzero;stroke:none;stroke-width:0.0352778"
         id="path25" />
      <path
         d="m 134.47177,99.116318 -0.28116,2.694482 h -11.00385 l 0.0233,-0.53619 c 0.59654,-0.061 1.01458,-0.21413 1.25835,-0.45861 0.24342,-0.24624 0.36654,-0.81111 0.37571,-1.699682 l 0.0127,-11.904593 c -0.004,-0.621877 -0.0346,-1.050502 -0.0861,-1.284393 -0.13828,-0.653698 -0.75565,-0.980017 -1.85984,-0.980017 l -0.0236,-0.535164 h 5.74393 l 0.0219,0.535164 c -0.61242,0.04163 -1.03152,0.206728 -1.26612,0.496711 -0.23212,0.291042 -0.34713,0.880533 -0.34678,1.767699 l -0.0441,12.029053 c 0.002,0.204646 0.0191,0.391901 0.0572,0.565538 0.1845,0.877674 0.88053,1.315474 2.08774,1.315474 h 1.03681 c 1.34161,0 2.27259,-0.15088 2.79788,-0.45226 0.52388,-0.29919 0.8569,-0.818023 1.00048,-1.553212 h 0.49565"
         style="fill:#003b57;fill-opacity:1;fill-rule:nonzero;stroke:none;stroke-width:0.0352778"
         id="path27" />
      <path
         d="m 138.12055,87.618936 c 0.25965,0 0.49883,0.09095 0.71967,0.273685 0.21837,0.182034 0.36054,0.407071 0.41522,0.674829 0.0533,0.25975 0.009,0.48507 -0.133,0.676769 -0.14217,0.191523 -0.34114,0.28702 -0.60078,0.28702 -0.26846,0 -0.51858,-0.0955 -0.75001,-0.28702 -0.23283,-0.191699 -0.37535,-0.417019 -0.42827,-0.676769 -0.0547,-0.267758 -0.0106,-0.492795 0.14605,-0.674829 0.15311,-0.182738 0.36266,-0.273685 0.63112,-0.273685 z m 1.75754,4.127783 -0.0176,7.535404 c 0.003,0.526662 0.03,0.900957 0.0769,1.122117 0.0607,0.30688 0.19685,0.5147 0.40111,0.6248 0.20778,0.11081 0.67133,0.1662 1.39065,0.1662 l 0.0166,0.50299 h -5.17702 l 0.0123,-0.50299 c 0.70979,0 1.14582,-0.0656 1.31198,-0.1947 0.16475,-0.12887 0.24941,-0.56307 0.25859,-1.301433 l 0.0325,-5.335094 c -0.006,-0.291042 -0.0243,-0.518548 -0.0586,-0.683613 -0.1016,-0.493219 -0.42686,-0.740587 -0.97367,-0.740587 l -1.12324,0.143616 -0.005,-0.589527 3.26319,-0.747183 h 0.59161"
         style="fill:#003b57;fill-opacity:1;fill-rule:nonzero;stroke:none;stroke-width:0.0352778"
         id="path29" />
      <path
         d="m 148.56207,92.004952 0.0247,0.805074 h -2.70545 l -0.0194,6.728955 c 0,0.183409 0.0109,0.341065 0.0423,0.476109 0.11465,0.55605 0.41945,0.83467 0.90946,0.83467 0.79728,0 1.70709,-0.52239 2.73967,-1.567637 l 0.43427,0.366148 c -1.43016,1.587219 -2.79682,2.380119 -4.10033,2.380119 -0.901,0 -1.43828,-0.41229 -1.6129,-1.23677 -0.072,-0.34438 -0.10795,-1.025556 -0.11077,-2.041838 l 0.037,-5.939756 h -1.76954 l -0.0205,-0.502708 c 1.51836,-0.153105 2.50472,-1.106981 2.96087,-2.861769 h 0.51752 l -0.005,2.559403 h 2.67758"
         style="fill:#003b57;fill-opacity:1;fill-rule:nonzero;stroke:none;stroke-width:0.0352778"
         id="path31" />
      <path
         d="m 152.6931,96.836244 c 2.82998,-0.546417 4.09434,-1.527845 3.79906,-2.9464 -0.0603,-0.288819 -0.24483,-0.55245 -0.54716,-0.791527 -0.30656,-0.239925 -0.61418,-0.359975 -0.92921,-0.359975 -0.71932,0 -1.3081,0.424462 -1.76178,1.272505 -0.4572,0.848854 -0.6417,1.791017 -0.56091,2.825397 z m -0.0162,0.533436 c 0.024,0.248708 0.0575,0.48394 0.10442,0.704179 0.36089,1.725437 1.3328,2.588371 2.91395,2.588371 1.15005,0 2.67264,-0.694412 3.42829,-2.08471 l 0.38312,0.395217 c -0.47378,1.071703 -0.9899,1.848523 -1.54658,2.331513 -0.55527,0.48327 -1.87678,0.72414 -2.82434,0.72414 -1.01776,0 -1.86161,-0.28497 -2.53259,-0.85548 -0.67204,-0.57076 -1.11407,-1.378306 -1.33456,-2.423128 -0.37465,-1.783751 -0.0843,-3.405012 0.86854,-4.868334 0.95779,-1.460853 2.19145,-2.19329 3.70593,-2.19329 0.59584,0 1.66511,0.152118 2.07574,0.453637 0.40535,0.30166 0.66393,0.707072 0.77118,1.214614 0.18027,0.85411 -0.78352,1.660948 -1.74484,2.423689 -0.96203,0.762318 -2.38725,1.291767 -4.26826,1.589582"
         style="fill:#003b57;fill-opacity:1;fill-rule:nonzero;stroke:none;stroke-width:0.0352778"
         id="path33" />
      <g
         id="g37"
         clip-path="url(#clipPath41)"
         transform="matrix(0.03527778,0,0,-0.03527778,42.828565,121.98722)">
        <path
           d="m 994.055,997.609 c 6.725,-11.629 35.115,-61.371 40.815,-77.398 6.42,-18.121 7.77,-23.313 7.77,-23.313 0,0 -15.57,80.114 -41.12,126.862 5.6,18.9 12.29,39.79 19.86,62.12 8.85,-15.53 28.96,-51.2 36.23,-68.1 0.27,3.19 0.54,6.38 0.82,9.54 -6.44,24.75 -16.22,57.15 -28.74,82.54 32.14,167.25 135.59,386.25 247.04,504.48 H 509.602 c -37.883,0 -68.711,-30.82 -68.711,-68.71 V 731.789 c 173.738,66.68 383.23,127.633 563.529,125.02 -6.693,25.812 -14.315,49.152 -22.318,62.679 -4.122,6.981 0.449,35.653 11.953,78.121"
           style="fill:url(#linearGradient51);fill-opacity:1;fill-rule:nonzero;stroke:none"
           id="path53" />
      </g>
      <path
         d="m 95.439377,63.024997 c -1.923345,-1.715206 -4.252031,-1.026231 -6.550379,1.01353 -0.341136,0.303037 -0.681566,0.639234 -1.020233,0.998362 -3.931709,4.170892 -7.581195,11.896725 -8.715023,17.796934 0.441678,0.895703 0.786695,2.038703 1.013884,2.911828 0.05821,0.224014 0.110772,0.43427 0.152752,0.613128 0.09984,0.423298 0.153459,0.697794 0.153459,0.697794 0,0 -0.03528,-0.133385 -0.179917,-0.552802 -0.02752,-0.08043 -0.05821,-0.168275 -0.09454,-0.271639 -0.01552,-0.04269 -0.03704,-0.09454 -0.06068,-0.149931 -0.25647,-0.596194 -0.965906,-1.854553 -1.278114,-2.402417 -0.267053,0.787753 -0.503061,1.524706 -0.700617,2.191456 0.901348,1.649166 1.450623,4.47541 1.450623,4.47541 0,0 -0.04762,-0.183163 -0.274109,-0.822431 -0.201083,-0.565397 -1.202619,-2.320185 -1.439862,-2.73043 -0.405836,1.498177 -0.567091,2.509661 -0.421676,2.755936 0.282328,0.477202 0.551216,1.300586 0.78733,2.211176 0.5334,2.051367 0.904169,4.548646 0.904169,4.548646 0,0 0.01199,0.165488 0.0321,0.420158 -0.07408,1.722685 -0.02963,3.508765 0.103717,5.123145 0.176741,2.13706 0.509411,3.97288 0.93345,4.9554 l 0.287866,-0.15695 c -0.622652,-1.93573 -0.875594,-4.47255 -0.764822,-7.39814 0.16757,-4.471846 1.196623,-9.86469 3.098095,-15.485534 3.212395,-8.485012 7.669389,-15.292918 11.748559,-18.544118 -3.717925,3.357739 -8.749948,14.22647 -10.256309,18.251312 -1.686631,4.50709 -2.881842,8.736578 -3.602214,12.788831 1.242836,-3.798959 5.261328,-5.431932 5.261328,-5.431932 0,0 1.97097,-2.430745 4.274256,-5.903454 -1.379714,0.314678 -3.645253,0.853369 -4.404078,1.172281 -1.119364,0.469547 -1.420989,0.629708 -1.420989,0.629708 0,0 3.62585,-2.208036 6.736645,-3.207809 4.278136,-6.738056 8.939042,-16.310328 4.245328,-20.497448"
         style="fill:#003b57;fill-opacity:1;fill-rule:nonzero;stroke:none;stroke-width:0.0352778"
         id="path55" />
    </g>
  </g>
</svg>
