<?xml version="1.0" encoding="UTF-8" standalone="no"?>
<!-- Created with Inkscape (http://www.inkscape.org/) -->

<svg
   xmlns:dc="http://purl.org/dc/elements/1.1/"
   xmlns:cc="http://creativecommons.org/ns#"
   xmlns:rdf="http://www.w3.org/1999/02/22-rdf-syntax-ns#"
   xmlns:svg="http://www.w3.org/2000/svg"
   xmlns="http://www.w3.org/2000/svg"
   xmlns:sodipodi="http://sodipodi.sourceforge.net/DTD/sodipodi-0.dtd"
   xmlns:inkscape="http://www.inkscape.org/namespaces/inkscape"
   version="1.1"
   id="svg2"
   xml:space="preserve"
   width="512"
   height="512.88849"
   viewBox="0 0 512 512.88849"
   sodipodi:docname="steam.svg"
   inkscape:version="0.92.1 r15371"><metadata
     id="metadata8"><rdf:RDF><cc:Work
         rdf:about=""><dc:format>image/svg+xml</dc:format><dc:type
           rdf:resource="http://purl.org/dc/dcmitype/StillImage" /><dc:title></dc:title></cc:Work></rdf:RDF></metadata><defs
     id="defs6"><clipPath
       clipPathUnits="userSpaceOnUse"
       id="clipPath18"><path
         d="M 0,612 H 792 V 0 H 0 Z"
         id="path16"
         inkscape:connector-curvature="0" /></clipPath></defs><sodipodi:namedview
     pagecolor="#ffffff"
     bordercolor="#666666"
     borderopacity="1"
     objecttolerance="10"
     gridtolerance="10"
     guidetolerance="10"
     inkscape:pageopacity="0"
     inkscape:pageshadow="2"
     inkscape:window-width="1366"
     inkscape:window-height="739"
     id="namedview4"
     showgrid="false"
     fit-margin-top="0"
     fit-margin-left="0"
     fit-margin-right="0"
     fit-margin-bottom="0"
     inkscape:zoom="0.81802549"
     inkscape:cx="488.46542"
     inkscape:cy="320.96865"
     inkscape:window-x="0"
     inkscape:window-y="0"
     inkscape:window-maximized="1"
     inkscape:current-layer="g10" /><g
     id="g10"
     inkscape:groupmode="layer"
     inkscape:label="Steam_Logo_Lockups"
     transform="matrix(1.3333333,0,0,-1.3333333,3.4250666e-6,512.88845)"><g
       id="g64"
       transform="matrix(4.2173704,0,0,4.2173704,191.66683,384.66635)"><path
         d="m 0,0 c -23.956,0 -43.582,-18.472 -45.447,-41.947 l 24.443,-10.106 c 2.071,1.416 4.573,2.244 7.265,2.244 0.241,0 0.481,-0.006 0.719,-0.02 l 10.871,15.756 c 0,0.075 -0.002,0.148 -0.002,0.223 0,9.483 7.715,17.199 17.199,17.199 9.483,0 17.199,-7.716 17.199,-17.199 0,-9.484 -7.716,-17.2 -17.199,-17.2 -0.131,0 -0.26,0.003 -0.39,0.006 L -0.845,-62.106 c 0.008,-0.202 0.015,-0.407 0.015,-0.611 0,-7.119 -5.791,-12.91 -12.909,-12.91 -6.249,0 -11.473,4.461 -12.657,10.367 l -17.481,7.227 c 5.413,-19.143 23,-33.177 43.877,-33.177 25.187,0 45.605,20.419 45.605,45.605 C 45.605,-20.418 25.187,0 0,0"
         style="fill:#231f20;fill-opacity:1;fill-rule:nonzero;stroke:none"
         id="path66"
         inkscape:connector-curvature="0" /></g><g
       id="g68"
       transform="matrix(4.2173704,0,0,4.2173704,120.52823,92.83107)"><path
         d="m 0,0 -5.602,2.314 c 0.993,-2.067 2.711,-3.797 4.991,-4.748 4.929,-2.054 10.613,0.286 12.668,5.218 0.994,2.388 1.001,5.021 0.015,7.413 C 11.087,12.59 9.228,14.456 6.84,15.452 4.47,16.438 1.931,16.401 -0.3,15.56 L 5.487,13.167 C 9.123,11.651 10.842,7.476 9.327,3.84 7.813,0.204 3.636,-1.516 0,0"
         style="fill:#231f20;fill-opacity:1;fill-rule:nonzero;stroke:none"
         id="path70"
         inkscape:connector-curvature="0" /></g><g
       id="g72"
       transform="matrix(4.2173704,0,0,4.2173704,218.90345,241.99018)"><path
         d="m 0,0 c 0,4.755 3.855,8.608 8.609,8.608 4.755,0 8.609,-3.853 8.609,-8.608 0,-4.755 -3.854,-8.608 -8.609,-8.608 C 3.855,-8.608 0,-4.755 0,0 m 20.05,-0.02 c 0,6.319 -5.141,11.461 -11.46,11.461 -6.319,0 -11.46,-5.142 -11.46,-11.461 0,-6.319 5.141,-11.459 11.46,-11.459 6.319,0 11.46,5.14 11.46,11.459"
         style="fill:#231f20;fill-opacity:1;fill-rule:nonzero;stroke:none"
         id="path74"
         inkscape:connector-curvature="0" /></g></g></svg>