<svg height="512.88849" viewBox="0 0 512 512.88849" width="512" xmlns="http://www.w3.org/2000/svg"><g fill="#231f20"><path d="m0 0c-23.956 0-43.582-18.472-45.447-41.947l24.443-10.106c2.071 1.416 4.573 2.244 7.265 2.244.241 0 .481-.006.719-.02l10.871 15.756c0 .075-.002.148-.002.223 0 9.483 7.715 17.199 17.199 17.199 9.483 0 17.199-7.716 17.199-17.199 0-9.484-7.716-17.2-17.199-17.2-.131 0-.26.003-.39.006l-15.503-11.062c.008-.202.015-.407.015-.611 0-7.119-5.791-12.91-12.909-12.91-6.249 0-11.473 4.461-12.657 10.367l-17.481 7.227c5.413-19.143 23-33.177 43.877-33.177 25.187 0 45.605 20.419 45.605 45.605 0 25.187-20.418 45.605-45.605 45.605" transform="matrix(5.62316039275 0 0 -5.62316039275 255.55576994444 -.00000384446)"/><path d="m0 0-5.602 2.314c.993-2.067 2.711-3.797 4.991-4.748 4.929-2.054 10.613.286 12.668 5.218.994 2.388 1.001 5.021.015 7.413-.985 2.393-2.844 4.259-5.232 5.255-2.37.986-4.909.949-7.14.108l5.787-2.393c3.636-1.516 5.355-5.691 3.84-9.327-1.514-3.636-5.691-5.356-9.327-3.84" transform="matrix(5.62316039275 0 0 -5.62316039275 160.70430564906 389.11369309437)"/><path d="m0 0c0 4.755 3.855 8.608 8.609 8.608 4.755 0 8.609-3.853 8.609-8.608s-3.854-8.608-8.609-8.608c-4.754 0-8.609 3.853-8.609 8.608m20.05-.02c0 6.319-5.141 11.461-11.46 11.461s-11.46-5.142-11.46-11.461 5.141-11.459 11.46-11.459 11.46 5.14 11.46 11.459" transform="matrix(5.62316039275 0 0 -5.62316039275 291.87126236989 190.23488473301)"/></g></svg>