<svg xmlns="http://www.w3.org/2000/svg" viewBox="0 0 512 512">
  <rect fill="#fff" width="512" height="512"/>
  <circle cx="256" cy="256" r="192"/>
  <path fill="#fff" d="m339.9466 135.0376c-19.5038.6676-36.529 11.4345-49.2064 26.2925-14.0365 16.313-23.3622 35.642-30.0962 55.3922-12.0303-9.8665-21.3046-22.6328-40.6167-28.1857-14.9232-4.2896-30.5926-2.5231-45.0057 8.213-6.8197 5.0976-11.527 12.797-13.7626 20.0583-5.7926 18.8224 6.087 35.5907 11.4825 41.5989l11.8009 12.6361c2.4273 2.482 8.2918 8.9456 5.4229 18.2096-3.0812 10.0891-15.2381 16.604-27.7032 12.7731-5.5701-1.7083-13.5674-5.8542-11.7735-11.6844.736-2.393 2.4478-4.1938 3.3687-6.2342.8353-1.7836 1.2427-3.1051 1.4995-3.9028 2.2767-7.4256-.8388-17.0969-8.7985-19.5584-7.4325-2.2801-15.0327-.4724-17.9804 9.0894-3.3448 10.8662 1.859 30.589 29.7196 39.1682 32.6433 10.048 60.2438-7.7337 64.1638-30.9005 2.4684-14.5122-4.0911-25.3065-16.094-39.1682l-9.7879-10.8285c-5.9227-5.9192-7.9563-16.0117-1.8247-23.7659 5.1764-6.5457 12.5438-9.3324 24.6186-6.0527 17.6312 4.7792 25.4813 17.0114 38.5866 26.8779-5.4023 17.7577-8.9457 35.577-12.1433 51.5544l-1.9651 11.9172c-9.3668 49.134-16.5219 76.1215-35.1117 91.6128-3.7453 2.6669-9.0997 6.6518-17.1656 6.9394-4.2383.1267-5.6043-2.7867-5.6625-4.0603-.0924-2.9613 2.4067-4.3273 4.0671-5.6556 2.4889-1.3557 6.2445-3.6049 5.9843-10.8046-.267-8.504-7.3161-15.8816-17.4977-15.5461-7.631.2568-19.2573 7.4324-18.8191 20.5786.4485 13.581 13.1018 23.7522 32.1846 23.1086 10.1987-.3492 32.9788-4.4916 55.4201-31.1709 26.1249-30.589 33.4342-65.6456 38.9324-91.3081l6.1384-33.8824c3.3961.4074 7.049.6847 11.0135.7806 32.5372.6881 48.8058-16.1589 49.0523-28.4219.1678-7.4187-4.8614-14.7279-11.9105-14.5533-5.036.1404-11.3661 3.4988-12.8793 10.4656-1.4927 6.8299 10.3493 13.0024 1.0955 19.0107-6.5732 4.252-18.3535 7.2441-34.9508 4.8169l3.0161-16.6793c6.1589-31.6263 13.7557-70.5241 42.575-71.4758 2.1055-.0993 9.781.089 9.9625 5.1763.0479 1.6878-.3732 2.1328-2.3588 6.0151-2.0267 3.0264-2.7868 5.6145-2.6875 8.5724.2739 8.0658 6.4123 13.379 15.3066 13.0709 11.8899-.3971 15.2997-11.9685 15.1046-17.9152-.4998-13.985-15.2313-22.8176-34.7146-22.174z"/>
</svg>