<?xml version="1.0" encoding="UTF-8" standalone="no"?>
<svg
   version="1.1"
   viewBox="0 0 612.55304 600.01154"
   id="svg12"
   width="612.55304"
   height="600.01154"
   xmlns="http://www.w3.org/2000/svg"
   xmlns:svg="http://www.w3.org/2000/svg">
  <defs
     id="defs1">
    <style
       id="style1">
      .cls-1, .cls-2 {
        fill: #fff;
      }

      .cls-2 {
        fill-rule: evenodd;
      }

      .cls-3 {
        fill: #1c80be;
      }
    </style>
  </defs>
  <!-- Generator: Adobe Illustrator 28.7.4, SVG Export Plug-In . SVG Version: 1.2.0 Build 166)  -->
  <g
     id="g12"
     transform="translate(-1596.5,-27.681923)">
    <g
       id="Layer_1">
      <g
         id="Layer_1-2"
         data-name="Layer_1">
        <g
           id="g2">
          <path
             class="cls-3"
             d="m 1597.4,347.8 c 1,-9.5 -1,-20.6 1,-32.1 3,-18.6 13.5,-33.1 30.1,-41.1 4,-2 6,-4 7,-9.5 7,-40.1 23.6,-77.2 47.7,-110.4 3,-4 5,-6 1,-11.5 -4,-6 -1,-12.5 3,-17.6 34.1,-38.1 74.2,-66.2 121.9,-81.8 114.4,-36.1 214.7,-11.5 301.5,73.2 8,8 18.6,15.5 8,29.1 -2,2 1,4 3,6 24.6,34.1 41.1,72.2 48.7,113.4 1,4 4,6 7,8 20.6,10.5 31.1,28.1 31.1,51.7 0,23.6 2,41.1 -1,61.7 -5,30.1 -35.1,50.7 -64.2,44.1 -8,-2 -11.5,-8 -11.5,-16.6 0,-34.1 1,-68.2 0,-102.3 -3,-91.8 -43.1,-161 -122.9,-205.2 -131.4,-72.2 -302,9.5 -330.6,159 -5,25.6 -4,52.7 -4,78.3 0,25.6 0,48.7 -1,73.2 0,8 -5,13.5 -14.5,13.5 -37.6,2 -62.2,-21.6 -62.2,-59.7 1,-6 1,-13.5 1,-23.6"
             id="path1" />
          <path
             class="cls-3"
             d="m 1857.7,468.2 c 13.5,-5 23.6,-14.5 26.6,-30.1 3,-15.6 -14.5,-37.1 -38.1,-59.7 -24.6,-23.6 -56.7,-48.7 -74.2,-57.7 -25.6,-15.5 -49.7,-2 -54.7,28.1 -6,33.1 0,64.2 17.6,91.8 12.5,19.6 30.1,28.1 51.7,30.1 12,-0.5 60.7,2 71.2,-2.5 m 110.2,9.5 c 15.5,2 30.1,5 45.6,6 20.6,1 36.1,-5 47.7,-17.6 14.5,-15.5 21.6,-35.1 20.6,-55.7 -1,-21.6 -18.6,-34.1 -42.1,-30.1 -21.6,3 -40.1,12.5 -59.7,19.6 -17.6,7 -33.1,15.5 -45.6,26.6 -17.6,16.6 -8,39.1 19.6,47.7 3.5,1.5 8.5,2.5 14,3.5 m 164,-18.5 c -3,-3 -8,-1 -10.5,3 -9.5,30.1 -53.7,130.9 -204.2,141.5 -177.6,12.5 94.8,50.7 172.6,-7 26.6,-20.6 56.7,-41.1 55.7,-100.3 0,-11.5 -5.5,-31.1 -13.5,-37.1"
             id="path2" />
        </g>
      </g>
    </g>
  </g>
</svg>
