<svg id="LOGOS" xmlns="http://www.w3.org/2000/svg" viewBox="0 0 374 117"><defs><style>.cls-1{fill:#7b42bc;fill-rule:evenodd;}</style></defs><path d="M128.88,45.4H117.63V38.68h30.12V45.4H136.5V79h-7.62Z"/><path d="M155.71,73.53a30.77,30.77,0,0,0,9-1.39l1.15,5.56A31.65,31.65,0,0,1,155,79.58c-9.25,0-12.46-4.3-12.46-11.38V60.4c0-6.23,2.78-11.49,12.22-11.49s11.56,5.5,11.56,11.85v6.3H150v1.51C150,72.14,151.23,73.53,155.71,73.53ZM150,61.13h9.38V59.67c0-2.78-.85-4.71-4.48-4.71s-4.9,1.93-4.9,4.71Z"/><path d="M186.08,55.68a56.66,56.66,0,0,0-7.81,4.3V79h-7.38V49.51h6.23l.49,3.27a32.66,32.66,0,0,1,7.74-3.87Z"/><path d="M204.1,55.68a57.14,57.14,0,0,0-7.8,4.3V79h-7.38V49.51h6.23l.48,3.27a32.75,32.75,0,0,1,7.75-3.87Z"/><path d="M228.78,79h-6.05l-.54-2a16.15,16.15,0,0,1-8.77,2.6c-5.39,0-7.69-3.69-7.69-8.77,0-6,2.61-8.29,8.59-8.29h7.08V59.43c0-3.26-.9-4.41-5.62-4.41a41.47,41.47,0,0,0-8.17.9l-.91-5.62a38.32,38.32,0,0,1,10.1-1.39c9.26,0,12,3.26,12,10.64ZM221.4,67.84H216c-2.42,0-3.09.67-3.09,2.91,0,2,.67,3,3,3a11.68,11.68,0,0,0,5.56-1.51Z"/><path d="M251.47,42.8a21.16,21.16,0,0,0-4.24-.49c-2.9,0-3.32,1.27-3.32,3.51v3.69h7.5L251,55.38h-7.07V79h-7.38V55.38h-4.72V49.51h4.72V45.4c0-6.11,2.84-9.14,9.37-9.14a23.5,23.5,0,0,1,6.35.85Z"/><path d="M265.86,79.58C255.76,79.58,253,74,253,68V60.52c0-6.05,2.72-11.61,12.82-11.61s12.83,5.56,12.83,11.61V68C278.69,74,276,79.58,265.86,79.58Zm0-24.38c-3.93,0-5.44,1.75-5.44,5.08V68.2c0,3.33,1.51,5.09,5.44,5.09s5.45-1.76,5.45-5.09V60.28C271.31,57,269.8,55.2,265.86,55.2Z"/><path d="M297.68,55.68a57.14,57.14,0,0,0-7.8,4.3V79H282.5V49.51h6.23l.48,3.27A32.94,32.94,0,0,1,297,48.91Z"/><path d="M318,79V58.4c0-1.57-.67-2.36-2.36-2.36s-5,1.09-7.68,2.49V79h-7.39V49.51h5.63l.73,2.48a29.59,29.59,0,0,1,11.79-3.08c2.85,0,4.6,1.15,5.57,3.14a29,29,0,0,1,11.86-3.14c4.9,0,6.65,3.44,6.65,8.71V79h-7.38V58.4c0-1.57-.67-2.36-2.36-2.36a19.42,19.42,0,0,0-7.68,2.49V79Z"/><polygon class="cls-1" points="51.62 31.49 70.72 42.52 70.72 64.58 51.62 53.55 51.62 31.49"/><polygon class="cls-1" points="72.81 42.52 72.81 64.58 91.92 53.55 91.92 31.49 72.81 42.52"/><polygon class="cls-1" points="30.42 19.18 30.42 41.24 49.52 52.27 49.52 30.21 30.42 19.18"/><polygon class="cls-1" points="51.62 78.03 70.72 89.06 70.72 67.14 70.72 67 51.62 55.97 51.62 78.03"/></svg>