<?xml version="1.0" encoding="UTF-8"?>
<svg width="1024px" height="1024px" viewBox="0 0 1024 1024" version="1.1" xmlns="http://www.w3.org/2000/svg" xmlns:xlink="http://www.w3.org/1999/xlink">
    <!-- Generator: Sketch 57.1 (83088) - https://sketch.com -->
    <title>Neutral</title>
    <desc>Created with Sketch.</desc>
    <g id="Neutral" stroke="none" stroke-width="1" fill="none" fill-rule="evenodd">
        <rect id="BG" fill="#323232" x="0" y="0" width="1024" height="1024" rx="50"></rect>
        <path d="M367.823341,688.794165 L203,730 L238.224857,589.100571 C203.339171,543.145294 183,487.912708 183,428.5 C183,268.613565 330.298317,139 512,139 C693.701683,139 841,268.613565 841,428.5 C841,588.386435 693.701683,718 512,718 C460.286942,718 411.36054,707.501361 367.823341,688.794165 L367.823341,688.794165 Z M418.666667,404.468085 L415,404.468085 C406.715729,404.468085 400,411.183814 400,419.468085 L400,551 C400,559.284271 406.715729,566 415,566 L609,566 C617.284271,566 624,559.284271 624,551 L624,419.468085 C624,411.183814 617.284271,404.468085 609,404.468085 L605.333333,404.468085 L605.333333,367.191489 C605.333333,315.770225 563.57607,274 511.956264,274 C460.42393,274 418.666667,315.770225 418.666667,367.191489 L418.666667,404.468085 Z M568,404.468085 L456,404.468085 L456,367.19804 C456,336.345281 481.054358,311.276596 511.973758,311.276596 C542.945642,311.276596 568,336.345281 568,367.19804 C568,387.805849 568,400.229197 568,404.468085 Z" id="Shape" fill="#FFFFFF"></path>
        <path d="M567.95122,847.990162 C567.95122,878.939861 542.907774,904 511.949379,904 C481.043446,904 456,878.939861 456,847.990162 C456,817.099491 481.043446,792 511.949379,792 C542.907774,792 567.95122,817.099491 567.95122,847.990162 Z M366,847.990162 C366,878.939861 340.956554,904 309.99816,904 C279.092226,904 254.04878,878.939861 254.04878,847.990162 C254.04878,817.099491 279.092226,792 309.99816,792 C340.956554,792 366,817.099491 366,847.990162 Z M769.902439,847.990162 C769.902439,878.939861 744.858993,904 713.900599,904 C682.994665,904 657.95122,878.939861 657.95122,847.990162 C657.95122,817.099491 682.994665,792 713.900599,792 C744.858993,792 769.902439,817.099491 769.902439,847.990162 Z" id="Dots" fill="#05A63F"></path>
    </g>
</svg>