<?xml version="1.0" encoding="UTF-8" standalone="no"?>
<svg
   fill="none"
   preserveAspectRatio="xMinYMin"
   viewBox="0 0 22.667 29.118656"
   version="1.1"
   id="svg13"
   width="22.667"
   height="29.118656"
   xmlns="http://www.w3.org/2000/svg"
   xmlns:svg="http://www.w3.org/2000/svg">
  <defs
     id="defs13" />
  <path
     d="m 5.363,29.118657 c 1.052,0 1.904,-0.8525 1.904,-1.9043 0,-1.0517 -0.852,-1.9043 -1.904,-1.9043 -1.052,0 -1.904,0.8526 -1.904,1.9043 0,1.0518 0.852,1.9043 1.904,1.9043 z"
     id="path2"
     style="fill:#000000" />
  <path
     d="m 11.585,29.118657 c 1.052,0 1.905,-0.8525 1.905,-1.9043 0,-1.0517 -0.853,-1.9043 -1.905,-1.9043 -1.051,0 -1.904,0.8526 -1.904,1.9043 0,1.0518 0.853,1.9043 1.904,1.9043 z"
     id="path3"
     style="fill:#000000" />
  <path
     d="m 17.802,29.118657 c 1.051,0 1.904,-0.8525 1.904,-1.9043 0,-1.0517 -0.853,-1.9043 -1.904,-1.9043 -1.052,0 -1.905,0.8526 -1.905,1.9043 0,1.0518 0.853,1.9043 1.905,1.9043 z"
     id="path4"
     style="fill:#000000" />
  <path
     clip-rule="evenodd"
     d="M 11.331,0 C 5.083,0 0,5.082397 0,11.330357 c 0,2.4775 0.803,4.7766 2.159,6.6427 l -1.413,4.2099 4.356,-1.3948 c 1.79,1.1846 3.929,1.8725 6.235,1.8725 6.248,0 11.33,-5.0824 11.33,-11.3303 C 22.667,5.082397 17.585,0 11.337,0 Z"
     fill-rule="evenodd"
     id="path12"
     style="fill:#000000" />
  <path
     d="m 14.693,10.113857 h -0.101 v -1.52219 c 0,-1.79604 -1.465,-3.26089 -3.261,-3.26089 -1.796,0 -3.261,1.46485 -3.261,3.26089 v 1.52219 H 7.968 c -0.567,0 -1.026,0.4585 -1.026,1.0254 v 4.1143 c 0,0.5668 0.459,1.0254 1.026,1.0254 h 6.719 c 0.567,0 1.026,-0.4586 1.026,-1.0254 v -4.1143 c 0,-0.5669 -0.459,-1.0254 -1.026,-1.0254 z M 9.407,8.591667 c 0,-1.06361 0.866,-1.92341 1.924,-1.92341 1.057,0 1.923,0.86617 1.923,1.92341 v 1.52219 H 9.407 Z"
     fill="#ffffff"
     id="path13" />
</svg>
