<?xml version="1.0" encoding="iso-8859-1"?>
<!-- Generator: Adobe Illustrator 19.0.0, SVG Export Plug-In . SVG Version: 6.00 Build 0)  -->
<svg version="1.1" id="Capa_1" xmlns="http://www.w3.org/2000/svg" xmlns:xlink="http://www.w3.org/1999/xlink" x="0px" y="0px"
	 viewBox="0 0 512.014 512.014" style="enable-background:new 0 0 512.014 512.014;" xml:space="preserve">
<path style="fill:#FF5722;" d="M101.999,458.181c-56.384-57.152-49.696-150.88,18.048-253.6
	c12.32-18.688,25.088-35.648,39.776-52.96l12.224-14.368l1.216,12.832c1.856,20.096,4.576,31.104,10.752,43.68
	c3.872,7.904,10.24,16.384,13.024,18.848c2.112,1.888,1.12,2.976,11.808-2.464c70.368-38.4,77.632-101.088,73.664-154.976
	c-1.376-15.808-4.864-33.44-9.184-46.4c-1.664-4.992-2.624-8.928-2.112-8.768c0.512,0.16,9.28,8.448,19.488,18.432
	c97.6,95.264,150.4,195.008,157.248,297.088c2.144,116.992-64.544,179.36-161.6,192.608
	C203.535,520.901,146.319,501.637,101.999,458.181L101.999,458.181z"/>
<g>
</g>
<g>
</g>
<g>
</g>
<g>
</g>
<g>
</g>
<g>
</g>
<g>
</g>
<g>
</g>
<g>
</g>
<g>
</g>
<g>
</g>
<g>
</g>
<g>
</g>
<g>
</g>
<g>
</g>
</svg>
