<svg enable-background="new 0 0 90 109" height="109" viewBox="-1 -1 92 111" width="90" xmlns="http://www.w3.org/2000/svg"><path d="m71.574 41.851c0-4.685.074-10.553-.033-15.237-.047-2.018-.268-4.076-.746-6.034-3.421-13.999-16.972-22.705-31.201-20.13-12.596 2.279-21.973 13.518-21.973 26.336v13.865 1.17c-.475 0-.794-.001-1.116 0h-11.482c-2.773 0-5.023 2.249-5.023 5.023v56.875c0 2.773 2.25 5.023 5.023 5.023h79.451c2.775 0 5.024-2.25 5.024-5.023v-56.875c0-2.774-2.249-5.023-5.024-5.023zm-19.467 53.267h-14.775c-2.322 0-4.203-1.914-4.203-4.274 0-.063.007-.127.009-.19-.005 0-.006-1.021-.008-2.041-.001-1.129.511-4.289 2.061-6.574 1.641-2.418 3.855-3.99 6.257-4.697-3.166-1.291-5.396-4.398-5.396-8.025 0-4.789 3.88-8.668 8.667-8.668 4.789 0 8.667 3.879 8.667 8.668 0 3.719-2.344 6.891-5.637 8.12 2.332.753 4.537 2.313 6.273 4.707 1.621 2.235 2.285 5.343 2.285 6.47v2.043c-.006.062 0 .125 0 .189.001 2.358-1.88 4.272-4.2 4.272m9.672-62.014c-1.562 4.611-4.52 8.305-7.61 11.912-2.386 2.783-5.19 5.125-8.176 7.247-.144.103-.298.188-.685.427 1.781-3.076 3.217-5.998 3.633-9.404-4.234 1.002-8.227.564-12.093-1.14-6.862-3.023-10.963-9.618-10.263-17.063.573-6.127 3.94-10.543 9.321-13.395 8.667-4.593 19.734-1.655 24.689 6.516 2.887 4.758 2.932 9.741 1.184 14.9" fill="none" stroke="#c4d2df"/></svg>