<svg height="63.040001" viewBox="0 0 62.999998 63.040003" width="63" xmlns="http://www.w3.org/2000/svg" xmlns:xlink="http://www.w3.org/1999/xlink"><linearGradient id="a" gradientTransform="matrix(1 0 0 -1 0 -6348.42)" gradientUnits="userSpaceOnUse" x1="31.52" x2="31.52" y1="-6412.98" y2="-6349.9302"><stop offset=".18" stop-color="#0052cc"/><stop offset="1" stop-color="#2684ff"/></linearGradient><path d="m55.16 1.51h-47.28a7.88 7.88 0 0 0 -7.88 7.88v47.28a7.88 7.88 0 0 0 7.88 7.88h47.28a7.88 7.88 0 0 0 7.84-7.88v-47.28a7.88 7.88 0 0 0 -7.84-7.88zm-27.74 47.75a3.78 3.78 0 0 1 -3.78 3.74h-11.64a3.78 3.78 0 0 1 -3.8-3.74v-35.77a3.78 3.78 0 0 1 3.8-3.78h11.64a3.78 3.78 0 0 1 3.78 3.78zm27.43-15.76a3.78 3.78 0 0 1 -3.78 3.78h-11.67a3.78 3.78 0 0 1 -3.78-3.78v-20a3.78 3.78 0 0 1 3.78-3.79h11.67a3.78 3.78 0 0 1 3.78 3.78z" fill="url(#a)" transform="translate(0 -1.51)"/></svg>