<?xml version="1.0" encoding="UTF-8" standalone="no"?>
<svg
   width="75"
   height="75"
   viewBox="0 0 75 75"
   fill="none"
   version="1.1"
   id="svg18"
   xmlns="http://www.w3.org/2000/svg"
   xmlns:svg="http://www.w3.org/2000/svg">
  <defs
     id="defs18" />
  <path
     d="M 0,18.75 C 0,8.39466 8.39466,0 18.75,0 h 37.5 C 66.6053,0 75,8.39466 75,18.75 v 37.5 C 75,66.6053 66.6053,75 56.25,75 H 18.75 C 8.39466,75 0,66.6053 0,56.25 Z"
     fill="#1558bc"
     id="path16" />
  <path
     d="m 30.2274,56.25 c 1.4582,0 2.6416,-1.1516 2.6416,-2.5752 V 21.3252 c 0,-1.4216 -1.1813,-2.5752 -2.6416,-2.5752 H 19.0478 c -1.4582,0 -2.6416,1.1516 -2.6416,2.5752 v 32.3496 c 0,1.4216 1.1814,2.5752 2.6416,2.5752 z"
     fill="#ffffff"
     id="path17" />
  <path
     d="m 55.9522,41.3988 c 1.4582,0 2.6416,-1.1517 2.6416,-2.5752 V 21.3252 c 0,-1.4216 -1.1814,-2.5752 -2.6416,-2.5752 H 44.7726 c -1.4582,0 -2.6416,1.1516 -2.6416,2.5752 v 17.4984 c 0,1.4215 1.1813,2.5752 2.6416,2.5752 z"
     fill="#ffffff"
     id="path18" />
</svg>
