<?xml version="1.0" encoding="UTF-8" standalone="no"?>
<svg xmlns:rdf="http://www.w3.org/1999/02/22-rdf-syntax-ns#" xmlns="http://www.w3.org/2000/svg" xml:space="preserve" height="117.54" viewBox="0 0 170.16601 117.53906" width="170.17" version="1.1" xmlns:cc="http://creativecommons.org/ns#" xmlns:dc="http://purl.org/dc/elements/1.1/"><g transform="matrix(1.25 0 0 -1.25 -409.71 563.11)"><g transform="translate(.68386 .51290)"><path d="m89.344 1.1445c-14.668 0-27.919 3.6934-38.371 10.523l-17.58 0.01563s4.1479 5.5373 5.4941 11.121c-3.425 4.6575-5.4805 10.386-5.4805 16.6 0 15.479 12.601 28.053 28.086 28.053 8.8462 0 16.736-4.1049 21.889-10.514l5.9727 8.9277 6.0312-9.0039c2.7088 3.45 6.2016 6.2373 10.307 8.1211 6.8188 3.1338 14.446 3.4402 21.482 0.84766 14.529-5.3625 21.98-21.544 16.615-36.059-0.94875-2.57-2.2511-4.9105-3.8086-6.998 1.3238-5.6188 5.5215-11.229 5.5215-11.229l-18.734-0.01367c-10.51-6.7886-23.28-10.392-37.426-10.392zm-57.832 81.868c-1.2312 0-2.2305 1.0049-2.2305 2.2324s0.99922 2.2266 2.2305 2.2266c1.2275 0 2.2285-0.99906 2.2285-2.2266s-1.001-2.2324-2.2285-2.2324zm-23.059 1.988l-0.26172 0.09375-3.377 1.1582v4.4102h-3.7461v2.959h3.6367v9.4902c0 4.5212 1.5405 6.3633 5.3105 6.3633 0.9625 0 1.8788-0.12289 2.7988-0.36914l0.14258-0.041-0.03711-3.0605-0.26562 0.0859c-0.73625 0.26625-1.3184 0.39258-1.7734 0.39258-1.765 0-2.4277-1.0002-2.4277-3.6914v-9.1699h4.3262v-2.959h-4.3262v-5.6621zm38.176 5.2285c-2.57 0-4.7345 1.2275-6.1758 3.4375v-3.0039h-3.4277v26.021h3.748v-10.092c1.3538 1.8412 3.2966 2.8476 5.7129 2.8476 4.74 0 7.7969-3.8856 7.7969-9.8906 0-5.575-3.0705-9.3203-7.6543-9.3203zm-21.729 0.10742c-2.1738 0-3.9259 1.1749-5.0234 3.3262v-3h-3.4258v18.486h3.748v-9.2773c0-3.8962 1.6345-6.0332 4.5957-6.0332 0.42625 0 0.84656 0.06453 1.3516 0.20703l0.24219 0.07031 0.12109-3.6504-1.6094-0.12891zm4.7422 0.32617v18.486h3.75v-18.486h-0.19922-3.5508zm16.086 2.668c2.8975 0 4.6328 2.4048 4.6328 6.4336 0 4.1037-1.8329 6.6445-4.7754 6.6445-2.9675 0-4.8125-2.5288-4.8125-6.6113 0-3.9262 1.9451-6.4668 4.9551-6.4668z" transform="matrix(.8 0 0 -.8 326.92 449.8)" fill="#000a12"/><path d="m420.16 440.63c-2.354-0.071-4.738-0.499-7.071-1.356-5.631-2.084-10.111-6.229-12.622-11.682-1.134-2.46-1.775-5.061-1.98-7.678-0.834 11.472-10.302 20.573-21.93 20.803 6.433 2.751 13.822 4.248 21.833 4.248 8.063 0 15.344-1.454 21.77-4.335" fill="#fcc40f"/><path d="m61.492 16.992c-12.358 0-22.414 10.051-22.414 22.412 0 12.348 10.057 22.4 22.414 22.4 12.351 0 22.404-10.053 22.404-22.4 0-12.361-10.053-22.412-22.404-22.412zm54.389 0.09961c-2.5582 0.0052-5.1575 0.45129-7.6934 1.3867-5.62 2.0725-10.091 6.2115-12.596 11.646-2.5 5.4362-2.7339 11.523-0.66016 17.137v0.0039c2.0675 5.6112 6.1992 10.083 11.637 12.586 5.4412 2.5113 11.531 2.7523 17.145 0.68359 11.592-4.2925 17.539-17.212 13.264-28.793-3.3447-9.0596-11.959-14.669-21.096-14.65z" transform="matrix(.8 0 0 -.8 326.92 449.8)" fill="#fff"/><path d="m61.143 25.291c-7.655 0-13.879 6.2213-13.879 13.861 0 7.6438 6.2239 13.869 13.879 13.869 7.635 0 13.85-6.2254 13.85-13.869 0-7.64-6.2146-13.861-13.85-13.861zm56.246 0c-7.6475 0-13.869 6.2213-13.869 13.861 0 7.6438 6.2216 13.869 13.869 13.869 7.6425 0 13.859-6.2254 13.859-13.869 0-7.64-6.2169-13.861-13.859-13.861z" transform="matrix(.8 0 0 -.8 326.92 449.8)" fill="#000a12"/><path d="m61.143 30.066c-5.0225 0-9.1074 4.0772-9.1074 9.0859 0 5.0112 4.0849 9.0977 9.1074 9.0977 5 0 9.0723-4.0864 9.0723-9.0977 0-5.0088-4.0723-9.0859-9.0723-9.0859zm56.246 0c-5.0125 0-9.0918 4.0772-9.0918 9.0859 0 5.0112 4.0793 9.0977 9.0918 9.0977 5.0088 0 9.082-4.0864 9.082-9.0977 0-5.0088-4.0733-9.0859-9.082-9.0859z" transform="matrix(.8 0 0 -.8 326.92 449.8)" fill="#fff"/><path d="m379.55 418.48c0-2.056-1.674-3.735-3.732-3.735-2.066 0-3.734 1.679-3.734 3.735 0 2.062 1.668 3.732 3.734 3.732 2.058 0 3.732-1.67 3.732-3.732" fill="#ef6a45"/><path d="m117.39 34.486c-2.585 0-4.6621 2.0885-4.6621 4.666 0 2.57 2.0771 4.668 4.6621 4.668 2.5762 0 4.6602-2.098 4.6602-4.668 0-2.5775-2.0839-4.666-4.6602-4.666zm-29.291 47.354v11.334c-1.3812-1.9238-3.3032-2.9453-5.7832-2.9453-4.5775 0-7.6523 3.7774-7.6523 9.3887 0 5.7825 3.1127 9.8223 7.584 9.8223 2.6462 0 4.7056-1.1724 6.1406-3.4512v3.1602h3.4629v-27.309h-3.752zm28.195 1.1719c-1.2312 0-2.2285 1.0049-2.2285 2.2324s0.99727 2.2266 2.2285 2.2266c1.2275 0 2.2285-0.99906 2.2285-2.2266s-1.001-2.2324-2.2285-2.2324zm-51.059 7.2168c-2.2862 0-4.293 0.43352-6.1367 1.3223l-0.11523 0.05273 0.04297 3.2012 0.29102-0.16602c1.7638-0.98625 3.4274-1.4902 4.9512-1.4902 2.7125 0 4.2656 1.5572 4.2656 4.2734v0.15625h-2.1426c-6.1675 0-9.5684 2.2355-9.5684 6.293 0 3.2562 2.4522 5.5312 5.9609 5.5312 2.5812 0 4.5807-1.0138 6.002-2.9238v2.6699h3.3906v-11.191c0-5.1238-2.3314-7.7285-6.9414-7.7285zm81.273 0c-5.635 0-9.1367 3.7084-9.1367 9.6797 0 5.9675 3.5017 9.6738 9.1367 9.6738 5.6588 0 9.1758-3.7063 9.1758-9.6738 0-5.9712-3.517-9.6797-9.1758-9.6797zm21.113 0.10742c-2.165 0-3.9222 1.1749-5.0234 3.3262v-3h-3.4219v18.486h3.748v-9.2773c0-3.8962 1.6307-6.0332 4.5957-6.0332 0.4275 0 0.84391 0.06453 1.3477 0.20703l0.24219 0.07031 0.125-3.6504-1.6133-0.12891zm-38.26 0.11328c-4.0638 0-6.7949 1.9869-6.7949 4.9531 0 2.6025 1.7884 3.9763 5.0859 5.5801 2.0775 1.0262 3.1699 1.6264 3.1699 3.0664 0 1.475-1.3407 2.4336-3.4082 2.4336-1.4725 0-3.0983-0.41883-4.707-1.2051l-0.27539-0.13867-0.12305 3.2598 0.13086 0.0527c1.5375 0.60875 3.1613 0.91797 4.8301 0.91797 4.5862 0 7.5488-2.1891 7.5488-5.5703 0-2.8225-1.8788-4.2487-5.125-5.7637-2.38-1.1138-3.3789-1.7751-3.3789-2.9551 0-1.1225 1.1105-1.8535 2.8242-1.8535 1.55 0 3.0648 0.34219 4.4961 1.0234l0.26367 0.125 0.16992-3.1875-0.14453-0.05664c-1.5625-0.45125-3.09-0.68164-4.5625-0.68164zm-35.219 0.21289 9.0605 18.486 9.3125-18.486h-3.918l-5.3164 10.67-4.9121-10.67h-4.2266zm20.279 0v18.486h3.752v-18.486h-0.20313-3.5488zm32.123 2.5254c3.165 0 5.207 2.6236 5.207 6.6836 0 4.035-2.042 6.6426-5.207 6.6426-3.1125 0-5.2051-2.6688-5.2051-6.6426 0-3.9925 2.0926-6.6836 5.2051-6.6836zm-63.396 0.03906c3.1025 0 4.9492 2.4656 4.9492 6.6094 0 3.9463-1.9134 6.5039-4.8809 6.5039-2.8525 0-4.627-2.4952-4.627-6.5039 0-4.015 1.7886-6.6094 4.5586-6.6094zm-16.543 6.9922h1.9277v1.1309c0 3.1862-1.916 5.2402-4.8848 5.2402-1.81 0-3.0781-1.1929-3.0781-2.9004 0-2.2375 2.1439-3.4707 6.0352-3.4707z" transform="matrix(.8 0 0 -.8 326.92 449.8)" fill="#00b087"/></g></g></svg>
