<svg xmlns="http://www.w3.org/2000/svg" width="100%" height="100%" viewBox="0 0 201 88"><g id="TuneIn-Marquee-Page-1" stroke="none" stroke-width="1" fill="none" fill-rule="evenodd"><g id="TuneIn-Marquee" fill="#1c203c"><path d="M180.681313,20.8 C180.681313,20.359 180.321313,20 179.882313,20 L175.882313,20 C175.442313,20 175.082313,20.359 175.082313,20.8 L175.082313,35.837 C175.082313,36.077 174.802312,36.157 174.722313,35.917 L169.243313,20.72 C169.123312,20.359 168.843312,20 168.243313,20 L163.484313,20 C163.045313,20 162.684313,20.359 162.684313,20.8 L162.684313,47.195 C162.684313,47.635 163.045313,47.995 163.484313,47.995 L167.483313,47.995 C167.924313,47.995 168.283312,47.635 168.283312,47.195 L168.283312,33.357 C168.283312,33.117 168.563312,33.038 168.643313,33.277 L174.083313,47.315 C174.202313,47.635 174.482313,47.995 175.162313,47.995 L179.882313,47.995 C180.321313,47.995 180.681313,47.635 180.681313,47.195 L180.681313,20.8 Z M158.242312,43.395 C158.242312,42.956 157.883313,42.596 157.442313,42.596 L154.043313,42.596 C153.803313,42.596 153.643313,42.437 153.643313,42.196 L153.643313,25.799 C153.643313,25.559 153.803313,25.398 154.043313,25.398 L157.043313,25.398 C157.482313,25.398 157.842312,25.039 157.842312,24.599 L157.842312,20.8 C157.842312,20.359 157.482313,20 157.043313,20 L144.645313,20 C144.205312,20 143.844313,20.359 143.844313,20.8 L143.844313,24.599 C143.844313,25.039 144.205312,25.398 144.645313,25.398 L147.644313,25.398 C147.884312,25.398 148.044313,25.559 148.044313,25.799 L148.044313,42.196 C148.044313,42.437 147.884312,42.596 147.644313,42.596 L144.245313,42.596 C143.805313,42.596 143.445312,42.956 143.445312,43.395 L143.445312,47.195 C143.445312,47.635 143.805313,47.995 144.245313,47.995 L157.442313,47.995 C157.883313,47.995 158.242312,47.635 158.242312,47.195 L158.242312,43.395 Z M122.445312,26 L6.9453125,26 C6.6693125,26 6.4453125,26.225 6.4453125,26.5 L6.4453125,81.5 C6.4453125,81.776 6.6693125,82 6.9453125,82 L121.945312,82 C122.221312,82 122.445312,81.776 122.445312,81.5 L122.445312,26 Z M200.445312,3 L200.445312,65 C200.445312,66.657 199.101313,68 197.445312,68 L128.445312,68 L128.445312,85 C128.445312,86.657 127.102313,88 125.445312,88 L3.4453125,88 C1.7883125,88 0.4453125,86.657 0.4453125,85 L0.4453125,23 C0.4453125,21.344 1.7883125,20 3.4453125,20 L122.445312,20 L122.445312,3 C122.445312,1.343 123.789312,0 125.445312,0 L197.445312,0 C199.101313,0 200.445312,1.343 200.445312,3 Z M104.720312,62.396 L95.2423125,62.396 C95.0023125,62.396 94.8413125,62.236 94.8413125,61.996 L94.8413125,57.197 C94.8413125,56.957 95.0023125,56.797 95.2423125,56.797 L104.240313,56.797 C104.680312,56.797 105.040312,56.438 105.040312,55.997 L105.040312,51.998 C105.040312,51.558 104.680312,51.198 104.240313,51.198 L95.2423125,51.198 C95.0023125,51.198 94.8413125,51.038 94.8413125,50.798 L94.8413125,45.999 C94.8413125,45.759 95.0023125,45.599 95.2423125,45.599 L104.560312,45.599 C105.000312,45.599 105.360312,45.239 105.360312,44.799 L105.360312,40.8 C105.360312,40.359 105.000312,40 104.560312,40 L90.0433125,40 C89.6033125,40 89.2433125,40.359 89.2433125,40.8 L89.2433125,67.195 C89.2433125,67.635 89.6033125,67.995 90.0433125,67.995 L104.720312,67.995 C105.160312,67.995 105.520313,67.635 105.520313,67.195 L105.520313,63.196 C105.520313,62.756 105.160312,62.396 104.720312,62.396 Z M84.0013125,40 L80.0013125,40 C79.5613125,40 79.2013125,40.359 79.2013125,40.8 L79.2013125,55.837 C79.2013125,56.077 78.9223125,56.157 78.8413125,55.917 L73.3623125,40.72 C73.2423125,40.359 72.9633125,40 72.3623125,40 L67.6033125,40 C67.1643125,40 66.8033125,40.359 66.8033125,40.8 L66.8033125,67.195 C66.8033125,67.635 67.1643125,67.995 67.6033125,67.995 L71.6023125,67.995 C72.0433125,67.995 72.4023125,67.635 72.4023125,67.195 L72.4023125,53.357 C72.4023125,53.117 72.6823125,53.038 72.7623125,53.277 L78.2023125,67.315 C78.3213125,67.635 78.6013125,67.995 79.2813125,67.995 L84.0013125,67.995 C84.4403125,67.995 84.8003125,67.635 84.8003125,67.195 L84.8003125,40.8 C84.8003125,40.359 84.4403125,40 84.0013125,40 Z M61.4413125,40 L57.4023125,40 C56.9623125,40 56.6023125,40.359 56.6023125,40.8 L56.6023125,59.597 C56.6023125,61.356 55.1633125,62.796 52.7223125,62.796 C50.3633125,62.796 48.9243125,61.356 48.9243125,59.597 L48.9243125,40.8 C48.9243125,40.359 48.5633125,40 48.1243125,40 L44.0853125,40 C43.6443125,40 43.2843125,40.359 43.2843125,40.8 L43.2843125,59.597 C43.2843125,64.436 47.2843125,68.435 52.7223125,68.435 C58.2423125,68.435 62.2413125,64.436 62.2413125,59.597 L62.2413125,40.8 C62.2413125,40.359 61.8823125,40 61.4413125,40 Z M39.4423125,40.8 L39.4423125,44.799 C39.4423125,45.239 39.0823125,45.599 38.6423125,45.599 L33.6433125,45.599 C33.4033125,45.599 33.2433125,45.759 33.2433125,45.999 L33.2433125,67.195 C33.2433125,67.635 32.8823125,67.995 32.4433125,67.995 L28.4443125,67.995 C28.0043125,67.995 27.6443125,67.635 27.6443125,67.195 L27.6443125,45.999 C27.6443125,45.759 27.4843125,45.599 27.2443125,45.599 L22.2453125,45.599 C21.8043125,45.599 21.4453125,45.239 21.4453125,44.799 L21.4453125,40.8 C21.4453125,40.359 21.8043125,40 22.2453125,40 L38.6423125,40 C39.0823125,40 39.4423125,40.359 39.4423125,40.8 L39.4423125,40.8 Z" id="TuneIn_Marquee"></path></g></g></svg>