<svg xmlns="http://www.w3.org/2000/svg" xml:space="preserve" viewBox="0 0 500 500" aria-label="TutaLogo"><g fill="#850122"><path d="M86 120.9 5.2 40.6c-1-.9-2.2-.8-2.3-.8-1.6 0-2.9 1.3-2.9 2.9v353.7c0 1.6 1.3 2.9 2.9 2.9 1.2 0 2.3-.8 2.7-1.9.1-.1.1-.3.2-.5 0-.1.2-.8.2-.9l81.5-267.6c1-3 1-5-1.5-7.5M498.8 88.5 414.3 3c-3.7-3.6-4-3-8-3H41.8c-1.6 0-2.9 1.3-2.9 2.9 0 .1-.1 1.3.9 2.4l.1.1L125 91.5c2 2 4 2.5 7 2.5h365.3c2.5 0 3.8-3.2 1.5-5.5M499.9 146.5 392.4 495.6c-.4 1.1-.7 1.9-.9 2.5-.4 1-1.2 1.7-2.3 1.9H29.7c-1.6 0-2.9-1.3-2.9-2.9 0-.4.2-1.1.2-1.1l107.2-350.6c.1-.5.3-1.1.5-1.6.4-1.1 1.4-1.9 2.6-1.9h359c2.9 0 4.2 1.8 3.6 4.6"></path></g></svg>