<?xml version="1.0" encoding="UTF-8" standalone="no"?>
<svg
   xmlns:dc="http://purl.org/dc/elements/1.1/"
   xmlns:cc="http://creativecommons.org/ns#"
   xmlns:rdf="http://www.w3.org/1999/02/22-rdf-syntax-ns#"
   xmlns:svg="http://www.w3.org/2000/svg"
   xmlns="http://www.w3.org/2000/svg"
   xmlns:xlink="http://www.w3.org/1999/xlink"
   xmlns:sodipodi="http://sodipodi.sourceforge.net/DTD/sodipodi-0.dtd"
   xmlns:inkscape="http://www.inkscape.org/namespaces/inkscape"
   viewBox="0 0 299.99999 300"
   id="svg2"
   version="1.1"
   inkscape:version="0.91 r13725"
   sodipodi:docname="logo-favicon.svg"
   width="300"
   height="300">
  <metadata
     id="metadata38">
    <rdf:RDF>
      <cc:Work
         rdf:about="">
        <dc:format>image/svg+xml</dc:format>
        <dc:type
           rdf:resource="http://purl.org/dc/dcmitype/StillImage" />
        <dc:title></dc:title>
      </cc:Work>
    </rdf:RDF>
  </metadata>
  <defs
     id="defs36" />
  <sodipodi:namedview
     pagecolor="#ffffff"
     bordercolor="#666666"
     borderopacity="1"
     objecttolerance="10"
     gridtolerance="10"
     guidetolerance="10"
     inkscape:pageopacity="0"
     inkscape:pageshadow="2"
     inkscape:window-width="1920"
     inkscape:window-height="1016"
     id="namedview34"
     showgrid="false"
     fit-margin-top="0"
     fit-margin-left="0"
     fit-margin-right="0"
     fit-margin-bottom="0"
     inkscape:zoom="1.94375"
     inkscape:cx="85.34246"
     inkscape:cy="137.85229"
     inkscape:window-x="0"
     inkscape:window-y="27"
     inkscape:window-maximized="1"
     inkscape:current-layer="svg2" />
  <g
     id="g24"
     style="fill:#a01e20"
     transform="matrix(1.1676711,0,0,1.1676711,-154.89644,-248.22722)">
    <defs
       id="defs26">
      <path
         d="m 155.503,222.799 c -12.64,0 -22.875,10.246 -22.875,22.872 l 0,211.23 c 0,0.801 0.046,1.608 0.123,2.388 8.5,-3.167 17.524,-6.629 27.054,-10.436 66.336,-26.48 120.569,-48.994 120.618,-74.415 0,-0.814 -0.056,-1.636 -0.172,-2.458 -3.43,-25.098 -63.407,-32.879 -63.324,-44.381 0.007,-0.611 0.18,-1.25 0.548,-1.889 7.205,-12.619 35.743,-12.015 46.253,-12.907 10.519,-0.913 35.206,-0.724 36.399,-8.244 0.035,-0.232 0.057,-0.463 0.057,-0.695 0.028,-6.987 -16.977,-9.726 -16.977,-9.726 0,0 20.635,3.083 20.579,11.11 0,0.393 -0.048,0.8 -0.158,1.214 -2.222,8.624 -20.379,10.246 -32.386,10.835 -11.356,0.569 -28.648,1.861 -28.707,7.408 -0.007,0.323 0.049,0.66 0.165,1.004 2.71,8.11 66.09,12.015 106.64,33.061 23.335,12.099 34.94,32.422 40.263,53.418 l 0,-166.52 c 0,-12.626 -10.243,-22.872 -22.869,-22.872 l -211.231,0 z"
         id="a"
         inkscape:connector-curvature="0" />
    </defs>
    <clipPath
       id="b">
      <use
         height="800"
         width="1280"
         overflow="visible"
         xlink:href="#a"
         id="use30"
         style="overflow:visible"
         x="0"
         y="0" />
    </clipPath>
    <path
       clip-path="url(#b)"
       d="m 132.627,222.799 256.975,0 0,236.49 -256.975,0 z"
       id="path32"
       inkscape:connector-curvature="0" />
  </g>
</svg>
