<svg viewBox="0 0 400 400" xmlns="http://www.w3.org/2000/svg"><path d="m0 0h400v400h-400z" fill="none"/><path d="m153.62 301.59c94.34 0 145.94-78.16 145.94-145.94 0-2.22 0-4.43-.15-6.63a104.36 104.36 0 0 0 25.59-26.55 102.38 102.38 0 0 1 -29.46 8.07 51.47 51.47 0 0 0 22.55-28.37 102.79 102.79 0 0 1 -32.57 12.45 51.34 51.34 0 0 0 -87.41 46.78 145.62 145.62 0 0 1 -105.71-53.59 51.33 51.33 0 0 0 15.88 68.47 50.91 50.91 0 0 1 -23.28-6.42v.65a51.31 51.31 0 0 0 41.15 50.28 51.21 51.21 0 0 1 -23.16.88 51.35 51.35 0 0 0 47.92 35.62 102.92 102.92 0 0 1 -63.7 22 104.41 104.41 0 0 1 -12.21-.74 145.21 145.21 0 0 0 78.62 23" fill="#1da1f2"/></svg>