<?xml version="1.0" encoding="utf-8"?>
<!-- Generator: Adobe Illustrator 23.0.3, SVG Export Plug-In . SVG Version: 6.00 Build 0)  -->
<svg version="1.1"
	 id="logosvg" inkscape:version="0.91 r13725" sodipodi:docname="Zeichnung.svg" xmlns:cc="http://creativecommons.org/ns#" xmlns:dc="http://purl.org/dc/elements/1.1/" xmlns:inkscape="http://www.inkscape.org/namespaces/inkscape" xmlns:rdf="http://www.w3.org/1999/02/22-rdf-syntax-ns#" xmlns:sodipodi="http://sodipodi.sourceforge.net/DTD/sodipodi-0.dtd" xmlns:svg="http://www.w3.org/2000/svg"
	 xmlns="http://www.w3.org/2000/svg" xmlns:xlink="http://www.w3.org/1999/xlink" x="0px" y="0px" viewBox="0 0 426.4 348.3"
	 style="enable-background:new 0 0 426.4 348.3;" xml:space="preserve">
<style type="text/css">
	.st0{fill:#000105;}
</style>
<path id="logosvg_1_" transform="matrix(0.50225316,0,0,0.50225316,270.90047,-90.115393)" inkscape:groupmode="layer" inkscape:label="Ebene 1" class="st0" d="
	M70.4,522.6C35.5,601.7-36.2,643.1-112.8,642.1c-146.9-7.3-189.7-177-91.5-238.2l4.3,4.3c-1.7,2.2-7.4,6.8-16.6,24.8
	c-10.7,21.8-14,43.6-12.7,57.2c7.6,118.6,173.6,142.7,230.7,25.5c72.7-160.8-120.1-324.2-291.3-199.3l-4-4
	c45-70.7,133-102.3,217.1-81.2C51.9,263.4,120.9,397.4,70.4,522.6z M-67,520c-11.9,17.1-31.7,28.3-54.1,28.3
	c-36.4,0-65.9-29.5-65.9-65.9c0-34.8,26.9-63.3,61.1-65.7v0c21.3-0.9,41.1,10.6,50.5,29.3c10.2,20.1,6.4,44.9-9.4,61.6
	C-78.8,511.8-72.9,515.9-67,520L-67,520z M-296.8,476.5c-3.2,26.2-1.2,34.3-1.2,37.4l-5.8,2.1c-2.2-4.3-7.8-19.5-10.2-39.8
	c-6.3-77.8,46.7-147.9,127.4-160.9c74-10.9,144.8,35.1,161.3,99.4l-5.8,2.1c-1.7-1.9-4.8-7.1-16-18.5
	C-136.4,308.7-276.7,349.8-296.8,476.5z M126.4,433.4c-5.3-257.1-346.7-352.9-478.2-112c5.8,4.2,13.8,9.9,19.7,14.1
	c-10.1,21.2-16.8,42.7-20.5,64.2c-2.6,14.1-3.9,28.6-3.9,43.4c0,133.4,108.1,241.6,241.6,241.6c133.4,0,241.5-108.1,241.5-241.6
	C126.7,439.8,126.6,436.6,126.4,433.4 M259,758h-38.5v109.4h-29.9V758h-38.7v-28.3H259V758z M76,758v31.9h58.4v22.8H76v54.7H46.1
	V729.7h94.2V758H76z M3.6,798.5c0-24.8-15.7-42.9-39.7-42.9c-14,0-24.4,5.3-30.7,12.2l4.7,4.7c-7.3,6.1-13.8,14.6-13.8,29.7
	c0,20.8,14.8,39.1,39.7,39.1C-12.1,841.4,3.6,823.3,3.6,798.5L3.6,798.5z M33.9,798.5c0,40.5-29.1,71.2-70,71.2
	c-41.9,0-70-30.1-70-66.5c0-23.6,9.2-40.7,22.8-51.9l-4.7-4.7c10.4-10.8,29.5-19.3,51.9-19.3C4.8,727.3,33.9,758.4,33.9,798.5
	L33.9,798.5z M-150.2,785.3c23.6,8.3,35.8,18.9,35.8,40.1c0,28.5-21.8,44.3-47.6,44.3c-23.8,0-42.1-10.6-49.8-30.3l23.8-17.7
	c4.3,12.4,15.5,20.1,26.7,20.1c9.8,0,16.9-5.3,16.9-14.2c0-8.3-5.3-13.4-25-20.5c-21.2-7.7-37-18.3-37-41.1
	c0-22,18.3-38.7,44.8-38.7c21,0,37.4,8.5,45,25.2l-23.8,16.5c-4.5-10.2-11.6-15.9-22.4-15.9c-9,0-15.7,4.9-15.7,12
	C-178.3,773.1-170.9,778-150.2,785.3L-150.2,785.3z M-252.4,729.7h29.9v137.7h-29.9V729.7z M-313.9,841c12.8,0,20.1-5.9,20.1-17.3
	c0-11.4-7.3-17.3-20.1-17.3h-16.5V841L-313.9,841z M-330.4,756v29.1h15.7c9.2,0,15.5-5.3,15.5-14.6c0-9.2-6.3-14.6-15.5-14.6H-330.4
	z M-263.9,826.4c0,23.8-18.7,40.9-48.8,40.9h-47.6V729.7h45.8c26.5,0,44.1,12.8,44.1,33.2c0,15.5-7.3,25-18.1,29.5
	C-274,797.9-263.9,807.9-263.9,826.4z M-375.1,729.7v82.6c0,32.8-20.1,57.4-56.8,57.4s-56.8-24.6-56.8-57.4v-82.6h29.9v80.2
	c0,20.1,9.4,31.5,26.9,31.5c17.5,0,26.9-11.4,26.9-31.5v-80.2H-375.1"/>
</svg>
