<svg xmlns="http://www.w3.org/2000/svg" viewBox="0 0 159.2 172">
  <path fill="#ADB2B5" d="M124.7 141.6c-2.3-2.9-5.5-4.4-9.3-4.4H103v29.6h12.3c3.9 0 7-1.5 9.3-4.4 2.4-3 3.6-6.5 3.6-10.4.1-4-1.1-7.4-3.5-10.4zm-3.2 10.3c0 5.4-2.4 8.1-7.1 8.1h-4.6v-16h4.6c4.7 0 7.1 2.6 7.1 7.9z"/>
  <path fill="#BC4041" d="M159.2 128.6h-3.5v-90h-28.2v31L88 0h39.5v30.9h28.2V0h3.5zM59.8 84.7c0 3.9-1.4 7.2-4.3 10-2.8 2.8-6.1 4.1-10 4.1-3.8 0-7.1-1.3-10-4.1-2.8-2.7-4.1-6.1-4.1-10V0h28.3v84.7zm67.7 43.9H51.4c12.2-2.6 21.6-7.9 28-15.8 5.7-7 8.5-15.1 8.5-24.4V59l39.6 69.6zm-87.6 0H0V0h3.3v88.5c0 9.3 2.8 17.4 8.5 24.4 6.5 7.8 15.8 13.1 28.1 15.7z"/>
  <path fill="#ADB2B5" d="M32.8 137.2h6.8v7.4h-6.8z"/>
  <path fill="#ADB2B5" d="M39.6 166.8h-6.8l-10.4-15.5v6c0 2.8-1.2 5.1-3.5 7.1-2.2 1.9-4.7 2.8-7.4 2.8-2.8 0-5.3-.9-7.6-2.8-2.2-2-3.3-4.4-3.3-7.1v-20.1h6.8v19.1c0 2.8 1.3 4.1 4.1 4.1 2.7 0 4.1-1.3 4.1-4.1v-19.1h6.8l10.4 15.5V146h6.8v20.8zm57.6-25.7c-3-3-6.5-4.6-10.6-4.6-4.2 0-7.9 1.5-10.9 4.6-3 3-4.4 6.6-4.4 10.8 0 4.2 1.5 7.9 4.4 10.9 3 3 6.7 4.4 10.9 4.4 4.1 0 7.6-1.5 10.6-4.4 3-3 4.6-6.7 4.6-10.9-.1-4.2-1.6-7.8-4.6-10.8zm-4.8 16.8c-1.7 1.7-3.6 2.5-5.9 2.5-2.3 0-4.4-.8-6-2.5-1.7-1.7-2.5-3.7-2.5-6 0-2.2.8-4.2 2.5-5.9 1.7-1.8 3.7-2.7 6-2.7 2.2 0 4.2.9 5.9 2.7 1.7 1.7 2.5 3.6 2.5 5.9 0 2.3-.8 4.4-2.5 6zm-22-1.9c-2.2 7.5-7.2 11.2-14.9 11.2-4.1 0-7.7-1.5-10.8-4.4-3-3-4.4-6.7-4.4-10.9s1.5-7.8 4.4-10.8c3-3 6.6-4.6 10.8-4.6 8 0 13 3.9 14.9 11.7h-7c-1.7-3.2-4.4-4.9-7.9-4.9-2.2 0-4.2.9-5.9 2.7-1.7 1.7-2.5 3.6-2.5 5.9 0 2.3.8 4.4 2.5 6 1.7 1.7 3.6 2.5 5.9 2.5 3.5 0 6-1.5 7.6-4.4h7.3zm73.9 4.4c-1.9 0-3.8-.7-5.5-2.2l20.4-9.7c-1.7-8-6.6-12-14.9-12-4.2 0-7.9 1.5-10.9 4.6-3 3-4.4 6.6-4.4 10.8 0 4.2 1.5 7.9 4.4 10.9 3 3 6.7 4.4 10.9 4.4 7.9 0 12.9-3.7 14.9-11.2h-7.3c-1.7 3-4.2 4.4-7.6 4.4zm-8.5-8.2c0-5.9 2.8-8.9 8.5-8.9 2 0 3.8.8 5.5 2.2l-14 6.7z"/>
</svg>
