<svg xmlns="http://www.w3.org/2000/svg" aria-label="Unreal Engine" role="img" viewBox="0 0 512 512">
  <path d="m0 0H512V512H0" fill="#fff"/>
  <path d="M256 24c128 0 232 104 232 232S384 488 256 488 24 384 24 256 128 24 256 24m0-24C114.6 0 0 114.6 0 256s114.6 256 256 256 256-114.6 256-256S397.4 0 256 0z"/>
  <path d="M238.3 102.7s-57.6 16.3-109.3 71.3S78 267.7 78 297.5c11.4-19.5 81.8-126.9 98.2-75.7v122.1s-1 16.5-26.2 10c7.5 14.2 46.2 49 116.1 56 16-16 36.8-39.1 36.8-39.1l34.8 29.6s62.5-40.9 87-100c-22.8 15-50.7 50-65.1 25.6V178.4s37.2-56 43-58.7c-14.8 2.7-66.7 20-94 55.3-7.8-8.5-29.3-8.7-29.3-8.7s17 14 17.2 26.8v131.8c-11.6 11.9-23.9 18.1-32 18.1-18.7 0-24-6.5-29.1-13V173.3s-9.2 7.7-16.5-4.8-15.8-28.9 17.7-56z"/>
</svg>
