<svg height="512" width="512" xmlns="http://www.w3.org/2000/svg"><g transform="translate(253.95276 -640.18109)"><path d="m-253.95276 640.18109h512v512h-512z" fill="#ffce0d"/><path d="m128.0981 1072.5463c37.69433 15.9104 92.56787-21.0937 89.24755-61.7312l-113.65858-164.32136-39.137998-21.4097-87.620764-94.07087-1.576539-6.90068-5.985014-1.72072-.846951-6.87284c-15.871309 1.52995-26.383855 8.80128-33.032408 22.84802l6.25226 3.13407.219351 5.70874 5.900787 3.90965 58.5522426 114.17713 8.0274694 42.92838z" fill="#734019"/><path d="m-215.08239 1010.9521c-2.13234 40.8589 51.33775 79.8635 88.41951 62.9115l115.831771-162.79682 6.8120658-44.08802 58.6360152-114.40517 5.952208-3.83091-.418838-6.21335 6.174344-3.1354c-6.840022-14.40324-17.254997-21.81365-32.725928-23.28488l-.819188 6.94565-5.293323 2.14909-1.668094 6.87911-87.434828 93.91449-37.633939 22.1579z" fill="#e17e24"/></g></svg>