<svg xmlns="http://www.w3.org/2000/svg" width="120" height="60"><path d="M76.082 21.118c-4.79.023-8.692 3.96-8.67 8.862s3.963 8.802 8.753 8.78 8.693-3.96 8.67-8.86-3.963-8.803-8.755-8.78zm.066 14.047c-1.358.008-2.663-.525-3.628-1.48s-1.5-2.256-1.515-3.614.525-2.663 1.48-3.628 2.256-1.5 3.614-1.515 2.663.525 3.628 1.48 1.5 2.256 1.515 3.614c.014 2.725-2.37 5.13-5.094 5.144zm19.34-9.892c-2.505.012-4.456 2.09-4.444 4.595l.04 8.385-3.812.018-.077-16.663 3.812-.018.013 2.613s1.62-2.62 4.888-2.635l1.09-.006.018 3.702zM57.462 21.75l2.886 11.422 2.996-11.45 3.812-.017L62.44 38.4l-3.702.017-2.994-11.638-2.886 11.665-3.703.017-4.978-16.64 3.702-.017 3.32 11.42 2.67-11.448zm50.675 7.386c2.605-1.536 4.445-4.377 4.43-7.644l-3.812.018c.014 2.832-2.264 5.13-4.986 5.14l-.545.002-.06-13.177-3.812.018.117 24.72 3.81-.017-.036-7.84.435-.002c.436-.002.873.214.984.54l5.37 7.27 4.465-.02z" fill="#4b4b4b"/><path d="M35.353 21.31c-4.137.02-7.283 2.757-8.46 7.118-1.975-3.04-3.516-6.517-4.4-9.453l-4.355.02.054 11.543a4.14 4.14 0 0 1-4.119 4.158 4.14 4.14 0 0 1-4.158-4.119L9.86 19.034l-4.357.02.054 11.543c.023 4.79 3.85 8.586 8.534 8.563s8.478-3.852 8.456-8.643l-.01-1.96c.878 1.737 1.976 3.583 3.183 5.212l-2.663 12.753 4.464-.02 1.92-9.266c1.747 1.082 3.7 1.725 5.996 1.714 4.792-.023 8.695-3.96 8.67-8.97a8.74 8.74 0 0 0-8.753-8.671zm.062 13.177c-1.742.008-3.487-.746-4.908-1.938l.427-1.743v-.1c.32-1.854 1.282-5.016 4.55-5.03A4.37 4.37 0 0 1 39.861 30c-.098 2.505-2.157 4.475-4.445 4.486z" fill="#6fda44"/></svg>