<svg height="160" viewBox="0 0 160 160" width="160" xmlns="http://www.w3.org/2000/svg"><g transform="matrix(.13333333 0 0 -.13333333 0 160)"><path d="m0 0h1200v1200h-1200z" fill="#53bded"/><path d="m1016.76 806.5c-3.86-84.406-62.807-199.969-176.854-346.676-117.902-153.195-217.664-229.82-299.238-229.82-50.566 0-93.34 46.633-128.285 139.961-23.332 85.547-46.641 171.09-69.985 256.64-25.957 93.274-53.777 139.969-83.554 139.969-6.492 0-29.192-13.652-68.063-40.836l-40.781 52.543c42.797 37.594 85.008 75.188 126.539 112.84 57.082 49.301 99.961 75.246 128.52 77.863 67.464 6.489 109.007-39.636 124.593-138.367 16.852-106.535 28.524-172.789 35.063-198.715 19.476-88.394 40.887-132.547 64.254-132.547 18.129 0 45.41 28.668 81.773 86.028 36.293 57.316 55.746 100.937 58.371 130.918 5.192 49.476-14.273 74.269-58.371 74.269-20.765 0-42.176-4.777-64.195-14.218 42.633 139.574 124.055 207.359 244.23 203.492 89.11-2.614 131.133-60.395 125.983-173.344" fill="#fff"/></g></svg>