<?xml version="1.0" encoding="UTF-8" standalone="no"?>
<!-- Created with Inkscape (http://www.inkscape.org/) -->

<svg
   xmlns:dc="http://purl.org/dc/elements/1.1/"
   xmlns:cc="http://creativecommons.org/ns#"
   xmlns:rdf="http://www.w3.org/1999/02/22-rdf-syntax-ns#"
   xmlns:svg="http://www.w3.org/2000/svg"
   xmlns="http://www.w3.org/2000/svg"
   xmlns:sodipodi="http://sodipodi.sourceforge.net/DTD/sodipodi-0.dtd"
   xmlns:inkscape="http://www.inkscape.org/namespaces/inkscape"
   version="1.1"
   id="svg2"
   xml:space="preserve"
   width="160"
   height="160"
   viewBox="0 0 160 160"
   sodipodi:docname="vimeo.svg"
   inkscape:version="0.92.1 r15371"><metadata
     id="metadata8"><rdf:RDF><cc:Work
         rdf:about=""><dc:format>image/svg+xml</dc:format><dc:type
           rdf:resource="http://purl.org/dc/dcmitype/StillImage" /><dc:title></dc:title></cc:Work></rdf:RDF></metadata><defs
     id="defs6" /><sodipodi:namedview
     pagecolor="#ffffff"
     bordercolor="#666666"
     borderopacity="1"
     objecttolerance="10"
     gridtolerance="10"
     guidetolerance="10"
     inkscape:pageopacity="0"
     inkscape:pageshadow="2"
     inkscape:window-width="640"
     inkscape:window-height="480"
     id="namedview4"
     showgrid="false"
     inkscape:zoom="1.475"
     inkscape:cx="80"
     inkscape:cy="80"
     inkscape:window-x="0"
     inkscape:window-y="0"
     inkscape:window-maximized="0"
     inkscape:current-layer="g10" /><g
     id="g10"
     inkscape:groupmode="layer"
     inkscape:label="ink_ext_XXXXXX"
     transform="matrix(1.3333333,0,0,-1.3333333,0,160)"><g
       id="g12"
       transform="scale(0.1)"><path
         d="M 0,0 H 1200 V 1200 H 0 Z"
         style="fill:#53bded;fill-opacity:1;fill-rule:nonzero;stroke:none"
         id="path14"
         inkscape:connector-curvature="0" /><path
         d="M 1016.76,806.5 C 1012.9,722.094 953.953,606.531 839.906,459.824 722.004,306.629 622.242,230.004 540.668,230.004 c -50.566,0 -93.34,46.633 -128.285,139.961 -23.332,85.547 -46.641,171.09 -69.985,256.64 -25.957,93.274 -53.777,139.969 -83.554,139.969 -6.492,0 -29.192,-13.652 -68.063,-40.836 L 150,778.281 c 42.797,37.594 85.008,75.188 126.539,112.84 57.082,49.301 99.961,75.246 128.52,77.863 67.464,6.489 109.007,-39.636 124.593,-138.367 16.852,-106.535 28.524,-172.789 35.063,-198.715 19.476,-88.394 40.887,-132.547 64.254,-132.547 18.129,0 45.41,28.668 81.773,86.028 36.293,57.316 55.746,100.937 58.371,130.918 5.192,49.476 -14.273,74.269 -58.371,74.269 -20.765,0 -42.176,-4.777 -64.195,-14.218 42.633,139.574 124.055,207.359 244.23,203.492 89.11,-2.614 131.133,-60.395 125.983,-173.344"
         style="fill:#ffffff;fill-opacity:1;fill-rule:nonzero;stroke:none"
         id="path16"
         inkscape:connector-curvature="0" /></g></g></svg>