<?xml version="1.0" encoding="UTF-8" standalone="no"?>
<!-- Created with Inkscape (http://www.inkscape.org/) -->

<svg
   xmlns:dc="http://purl.org/dc/elements/1.1/"
   xmlns:cc="http://creativecommons.org/ns#"
   xmlns:rdf="http://www.w3.org/1999/02/22-rdf-syntax-ns#"
   xmlns:svg="http://www.w3.org/2000/svg"
   xmlns="http://www.w3.org/2000/svg"
   xmlns:sodipodi="http://sodipodi.sourceforge.net/DTD/sodipodi-0.dtd"
   xmlns:inkscape="http://www.inkscape.org/namespaces/inkscape"
   version="1.1"
   id="svg4626"
   xml:space="preserve"
   width="1363.5468"
   height="424"
   viewBox="0 0 1363.5468 424"
   sodipodi:docname="vivino.svg"
   inkscape:version="0.92.2 (5c3e80d, 2017-08-06)"><metadata
     id="metadata4632"><rdf:RDF><cc:Work
         rdf:about=""><dc:format>image/svg+xml</dc:format><dc:type
           rdf:resource="http://purl.org/dc/dcmitype/StillImage" /><dc:title></dc:title></cc:Work></rdf:RDF></metadata><defs
     id="defs4630" /><sodipodi:namedview
     pagecolor="#ffffff"
     bordercolor="#666666"
     borderopacity="1"
     objecttolerance="10"
     gridtolerance="10"
     guidetolerance="10"
     inkscape:pageopacity="0"
     inkscape:pageshadow="2"
     inkscape:window-width="1366"
     inkscape:window-height="739"
     id="namedview4628"
     showgrid="false"
     inkscape:zoom="0.26475073"
     inkscape:cx="681.77338"
     inkscape:cy="212"
     inkscape:window-x="0"
     inkscape:window-y="0"
     inkscape:window-maximized="1"
     inkscape:current-layer="g4634" /><g
     id="g4634"
     inkscape:groupmode="layer"
     inkscape:label="ink_ext_XXXXXX"
     transform="matrix(1.3333333,0,0,-1.3333333,0,424)"><g
       id="g4636"
       transform="scale(0.1)"><path
         d="m 1263.24,3180 c 15.05,-6.22 29.95,-12.86 45.19,-18.59 118.64,-44.63 189.15,-164.71 167.43,-285.48 -23.28,-129.5 -130.28,-221.31 -257.69,-221.13 -127.16,0.2 -234.486,92.18 -258.092,221.21 -21.89,119.65 49.512,240.72 168.082,285.32 15.21,5.72 30.06,12.42 45.08,18.67 30,0 60,0 90,0"
         style="fill:#a91b2a;fill-opacity:1;fill-rule:nonzero;stroke:none"
         id="path4638"
         inkscape:connector-curvature="0" /><path
         d="M 863.238,0 C 849.504,5.19922 835.887,10.7305 822.016,15.5313 701.688,57.1797 627.59,177.352 645.664,301.762 663.941,427.559 772.816,522.5 901.883,525.172 1023.55,527.691 1138.75,435.449 1161.34,317.441 1185.86,189.332 1118.51,67.1016 997.539,19.6992 982.508,13.8086 967.992,6.60156 953.238,0 c -30,0 -60,0 -90,0"
         style="fill:#a91b2a;fill-opacity:1;fill-rule:nonzero;stroke:none"
         id="path4640"
         inkscape:connector-curvature="0" /><path
         d="m 8183.54,684.441 c 0,106.93 0.16,211.528 -0.04,316.129 -0.31,156.65 -0.29,313.31 -1.52,469.95 -1.14,144.21 -78.96,235.09 -216.13,254.73 -125.02,17.9 -239.92,-56.73 -275.51,-186.33 -16.12,-58.72 -25.55,-121 -26.5,-181.85 -3.2,-204.93 -1.22,-409.941 -1.23,-614.922 0,-18.097 0.01,-36.199 0.01,-57.957 -112.53,0 -221.58,0 -333.89,0 0,440.029 0,880.349 0,1325.989 73.55,0 143.35,2.88 212.59,-2.03 17.23,-1.22 35.91,-25.29 48.39,-42.8 68.34,-95.86 52.85,-78.83 135.86,-30.15 167.16,98.04 343.16,115.12 521.27,33.44 157.08,-72.04 249.54,-199.22 253.84,-371.51 7.43,-298.11 2.44,-596.54 2.51,-894.841 0,-4.789 -1.84,-9.57 -3.54,-17.848 -102.21,0 -204.74,0 -316.11,0"
         style="fill:#a91b2a;fill-opacity:1;fill-rule:nonzero;stroke:none"
         id="path4642"
         inkscape:connector-curvature="0" /><path
         d="m 9915.41,1337.42 c 0.33,218.69 -165.17,392.45 -374.36,393.04 -209.08,0.6 -378.46,-173.78 -378.71,-389.87 -0.24,-211.54 169.64,-387.602 375.54,-389.192 205.78,-1.597 377.2,173.682 377.53,386.022 z M 9538.44,677.109 c -380.27,0.379 -685.56,299.813 -685.73,672.581 -0.17,371.75 306.26,670.47 687.48,670.19 380.33,-0.28 688.41,-301.85 686.41,-671.94 -2,-372.92 -307.99,-671.21 -688.16,-670.831"
         style="fill:#a91b2a;fill-opacity:1;fill-rule:nonzero;stroke:none"
         id="path4644"
         inkscape:connector-curvature="0" /><path
         d="m 2753.37,2009.78 c 106.29,0 206.17,1.64 305.88,-1.87 14.13,-0.5 32.96,-23.7 40.18,-40.45 97.31,-226.09 192.84,-452.95 289.24,-679.43 7.23,-16.98 17.71,-32.56 32.81,-59.88 14.88,28.37 24.81,44.64 32.29,61.97 96.87,224.47 194.04,448.82 289.32,673.98 14.1,33.33 30.39,48.53 68.84,47.28 93.05,-3.03 186.26,-0.99 287.2,-0.99 -7.31,-19.8 -12.09,-34.71 -18.21,-49.04 -175.68,-411.45 -352.14,-822.57 -526.23,-1234.678 -15.93,-37.711 -35.31,-49.801 -73.9,-46.863 -51.21,3.91 -114.5,-14.887 -150.92,9.05 -36.37,23.911 -46.86,88.121 -67.22,135.313 C 3101.22,1198.3 2940.13,1572.58 2779,1946.85 c -7.81,18.14 -14.92,36.57 -25.63,62.93"
         style="fill:#a91b2a;fill-opacity:1;fill-rule:nonzero;stroke:none"
         id="path4646"
         inkscape:connector-curvature="0" /><path
         d="m 4952.92,2009.1 c 105.27,0 203.54,1.58 301.64,-1.72 14.62,-0.49 34.85,-21.2 41.73,-37.18 96,-223.05 189.88,-447.02 285.13,-670.39 8.67,-20.33 23.2,-38.16 35.01,-57.15 13.41,19.04 30.58,36.44 39.65,57.35 96.05,221.23 191.79,442.61 284.9,665.08 14.84,35.45 32.98,46.29 69.87,45.26 92.76,-2.59 185.65,-0.85 284.91,-0.85 -8.02,-21.46 -13.09,-36.78 -19.38,-51.59 -174.29,-410.27 -349.13,-820.31 -522.29,-1231.058 -14.29,-33.883 -30.2,-49.954 -68.7,-46.821 -52.83,4.301 -118.06,-15.48 -155.87,9.09 -37.66,24.461 -49.17,90.457 -70.14,139.109 -161.93,375.77 -323.38,751.75 -484.93,1127.69 -6.47,15.07 -12.33,30.4 -21.53,53.18"
         style="fill:#a91b2a;fill-opacity:1;fill-rule:nonzero;stroke:none"
         id="path4648"
         inkscape:connector-curvature="0" /><path
         d="m 4363.75,2006.98 c 110.94,0 215.24,0 322.47,0 0,-442.04 0,-881.15 0,-1323.191 -108.23,0 -213.8,0 -322.47,0 0,441.811 0,880.771 0,1323.191"
         style="fill:#a91b2a;fill-opacity:1;fill-rule:nonzero;stroke:none"
         id="path4650"
         inkscape:connector-curvature="0" /><path
         d="m 6568.33,2007.44 c 108.37,0 212.86,0 320.67,0 0,-440.91 0,-879.8 0,-1322.639 -105.03,0 -210.75,0 -320.67,0 0,438.279 0,878.349 0,1322.639"
         style="fill:#a91b2a;fill-opacity:1;fill-rule:nonzero;stroke:none"
         id="path4652"
         inkscape:connector-curvature="0" /><path
         d="m 1275.28,1328.44 c 3.16,142.72 124.58,260.38 265.68,257.48 143.11,-2.95 260.92,-123.06 259.25,-264.31 -1.71,-144.54 -124.56,-263.26 -268.54,-259.52 -143.2,3.73 -259.54,124.59 -256.39,266.35"
         style="fill:#a91b2a;fill-opacity:1;fill-rule:nonzero;stroke:none"
         id="path4654"
         inkscape:connector-curvature="0" /><path
         d="M 522.465,1321.96 C 521.754,1179.35 402.965,1061.55 260.352,1062.02 116.863,1062.5 -0.1875,1179.91 0,1323.17 c 0.191406,145.99 120.258,265.46 264.109,262.8 143,-2.65 259.071,-121.26 258.356,-264.01"
         style="fill:#a91b2a;fill-opacity:1;fill-rule:nonzero;stroke:none"
         id="path4656"
         inkscape:connector-curvature="0" /><path
         d="M 1223.71,530.148 C 1079.35,531 963.902,647.398 964.477,791.531 c 0.578,145.129 119.933,261.119 266.743,259.249 141.58,-1.81 255.91,-117.178 256.92,-259.249 1.03,-145.679 -116.89,-262.242 -264.43,-261.383"
         style="fill:#a91b2a;fill-opacity:1;fill-rule:nonzero;stroke:none"
         id="path4658"
         inkscape:connector-curvature="0" /><path
         d="m 633.992,2393.6 c -0.758,145.72 117.77,265.11 262.465,264.4 143.393,-0.71 259.693,-117.79 259.873,-261.62 0.18,-143.35 -116.14,-260.87 -259.635,-262.33 -141.445,-1.43 -261.965,117.64 -262.703,259.55"
         style="fill:#a91b2a;fill-opacity:1;fill-rule:nonzero;stroke:none"
         id="path4660"
         inkscape:connector-curvature="0" /><path
         d="m 579.539,1581.22 c -143.773,-0.34 -261.922,115.77 -263.004,258.48 -1.094,144.34 118.258,262.44 264.422,261.64 143.629,-0.78 261.152,-118.39 260.34,-260.53 -0.817,-143.32 -117.719,-259.26 -261.758,-259.59"
         style="fill:#a91b2a;fill-opacity:1;fill-rule:nonzero;stroke:none"
         id="path4662"
         inkscape:connector-curvature="0" /><path
         d="m 1165.65,1321.68 c -1.01,-143.28 -118.85,-260.17 -261.763,-259.66 -145.145,0.52 -261.453,119.77 -259.883,266.45 1.519,142.39 122.652,260.45 264.176,257.49 143.77,-3.01 258.48,-120.76 257.47,-264.28"
         style="fill:#a91b2a;fill-opacity:1;fill-rule:nonzero;stroke:none"
         id="path4664"
         inkscape:connector-curvature="0" /><path
         d="m 1483.58,1840.29 c -0.47,-144.21 -115.97,-259.07 -260.53,-259.08 -144.69,-0.01 -260.448,114.97 -260.722,258.97 -0.277,147.2 115.632,262.26 263.082,261.16 144.99,-1.07 258.63,-115.99 258.17,-261.05"
         style="fill:#a91b2a;fill-opacity:1;fill-rule:nonzero;stroke:none"
         id="path4666"
         inkscape:connector-curvature="0" /><path
         d="M 843.121,788.082 C 842.34,643.449 727.098,529.809 581.555,530.16 434.59,530.512 320.055,647.25 321.746,794.969 323.387,938.582 440.652,1052.15 585.93,1050.82 730.07,1049.5 843.906,933.211 843.121,788.082"
         style="fill:#a91b2a;fill-opacity:1;fill-rule:nonzero;stroke:none"
         id="path4668"
         inkscape:connector-curvature="0" /></g></g></svg>