<?xml version="1.0" encoding="UTF-8" standalone="no"?>
<!-- Created with Inkscape (http://www.inkscape.org/) -->

<svg
   version="1.1"
   id="svg4626"
   xml:space="preserve"
   width="240.03036"
   height="424"
   viewBox="0 0 240.03037 424"
   xmlns="http://www.w3.org/2000/svg"
   xmlns:svg="http://www.w3.org/2000/svg"
   xmlns:rdf="http://www.w3.org/1999/02/22-rdf-syntax-ns#"
   xmlns:cc="http://creativecommons.org/ns#"
   xmlns:dc="http://purl.org/dc/elements/1.1/"><metadata
     id="metadata4632"><rdf:RDF><cc:Work
         rdf:about=""><dc:format>image/svg+xml</dc:format><dc:type
           rdf:resource="http://purl.org/dc/dcmitype/StillImage" /></cc:Work></rdf:RDF></metadata><defs
     id="defs4630" /><g
     id="g4634"
     transform="matrix(1.3333333,0,0,-1.3333333,2.999327e-5,423.99999)"><g
       id="g4636"
       transform="scale(0.1)"><path
         d="m 1263.24,3180 c 15.05,-6.22 29.95,-12.86 45.19,-18.59 118.64,-44.63 189.15,-164.71 167.43,-285.48 -23.28,-129.5 -130.28,-221.31 -257.69,-221.13 -127.16,0.2 -234.486,92.18 -258.092,221.21 -21.89,119.65 49.512,240.72 168.082,285.32 15.21,5.72 30.06,12.42 45.08,18.67 30,0 60,0 90,0"
         style="fill:#a91b2a;fill-opacity:1;fill-rule:nonzero;stroke:none"
         id="path4638" /><path
         d="M 863.238,0 C 849.504,5.19922 835.887,10.7305 822.016,15.5313 701.688,57.1797 627.59,177.352 645.664,301.762 663.941,427.559 772.816,522.5 901.883,525.172 1023.55,527.691 1138.75,435.449 1161.34,317.441 1185.86,189.332 1118.51,67.1016 997.539,19.6992 982.508,13.8086 967.992,6.60156 953.238,0 c -30,0 -60,0 -90,0"
         style="fill:#a91b2a;fill-opacity:1;fill-rule:nonzero;stroke:none"
         id="path4640" /><path
         d="m 1275.28,1328.44 c 3.16,142.72 124.58,260.38 265.68,257.48 143.11,-2.95 260.92,-123.06 259.25,-264.31 -1.71,-144.54 -124.56,-263.26 -268.54,-259.52 -143.2,3.73 -259.54,124.59 -256.39,266.35"
         style="fill:#a91b2a;fill-opacity:1;fill-rule:nonzero;stroke:none"
         id="path4654" /><path
         d="M 522.465,1321.96 C 521.754,1179.35 402.965,1061.55 260.352,1062.02 116.863,1062.5 -0.1875,1179.91 0,1323.17 c 0.191406,145.99 120.258,265.46 264.109,262.8 143,-2.65 259.071,-121.26 258.356,-264.01"
         style="fill:#a91b2a;fill-opacity:1;fill-rule:nonzero;stroke:none"
         id="path4656" /><path
         d="M 1223.71,530.148 C 1079.35,531 963.902,647.398 964.477,791.531 c 0.578,145.129 119.933,261.119 266.743,259.249 141.58,-1.81 255.91,-117.178 256.92,-259.249 1.03,-145.679 -116.89,-262.242 -264.43,-261.383"
         style="fill:#a91b2a;fill-opacity:1;fill-rule:nonzero;stroke:none"
         id="path4658" /><path
         d="m 633.992,2393.6 c -0.758,145.72 117.77,265.11 262.465,264.4 143.393,-0.71 259.693,-117.79 259.873,-261.62 0.18,-143.35 -116.14,-260.87 -259.635,-262.33 -141.445,-1.43 -261.965,117.64 -262.703,259.55"
         style="fill:#a91b2a;fill-opacity:1;fill-rule:nonzero;stroke:none"
         id="path4660" /><path
         d="m 579.539,1581.22 c -143.773,-0.34 -261.922,115.77 -263.004,258.48 -1.094,144.34 118.258,262.44 264.422,261.64 143.629,-0.78 261.152,-118.39 260.34,-260.53 -0.817,-143.32 -117.719,-259.26 -261.758,-259.59"
         style="fill:#a91b2a;fill-opacity:1;fill-rule:nonzero;stroke:none"
         id="path4662" /><path
         d="m 1165.65,1321.68 c -1.01,-143.28 -118.85,-260.17 -261.763,-259.66 -145.145,0.52 -261.453,119.77 -259.883,266.45 1.519,142.39 122.652,260.45 264.176,257.49 143.77,-3.01 258.48,-120.76 257.47,-264.28"
         style="fill:#a91b2a;fill-opacity:1;fill-rule:nonzero;stroke:none"
         id="path4664" /><path
         d="m 1483.58,1840.29 c -0.47,-144.21 -115.97,-259.07 -260.53,-259.08 -144.69,-0.01 -260.448,114.97 -260.722,258.97 -0.277,147.2 115.632,262.26 263.082,261.16 144.99,-1.07 258.63,-115.99 258.17,-261.05"
         style="fill:#a91b2a;fill-opacity:1;fill-rule:nonzero;stroke:none"
         id="path4666" /><path
         d="M 843.121,788.082 C 842.34,643.449 727.098,529.809 581.555,530.16 434.59,530.512 320.055,647.25 321.746,794.969 323.387,938.582 440.652,1052.15 585.93,1050.82 730.07,1049.5 843.906,933.211 843.121,788.082"
         style="fill:#a91b2a;fill-opacity:1;fill-rule:nonzero;stroke:none"
         id="path4668" /></g></g></svg>
