<svg width="48" height="48" viewBox="0 0 48 48" fill="none" xmlns="http://www.w3.org/2000/svg">
<path d="M6.38002 10.3415C8.3647 9.50226 10.6572 10.4245 11.4998 12.4023L20.3462 33.1638C21.1892 35.1416 20.2631 37.4249 18.278 38.2641C16.2929 39.1038 14.0004 38.1811 13.1582 36.2037L4.31144 15.4419C3.46877 13.4645 4.39495 11.1811 6.38002 10.3415Z" fill="#4285F4"/>
<path d="M18.9616 10.3415C20.9462 9.50226 23.2387 10.4245 24.0814 12.4023L32.9277 33.1638C33.7708 35.1416 32.8446 37.4249 30.8595 38.2641C28.8745 39.1038 26.582 38.1811 25.7397 36.2037L16.893 15.4419C16.0503 13.4645 16.9765 11.1807 18.9616 10.3415Z" fill="#FABD05"/>
<path d="M39.8787 18.2115C42.1549 18.2115 44.0002 16.3733 44.0002 14.1057C44.0002 11.8382 42.1549 10 39.8787 10C37.6025 10 35.7573 11.8382 35.7573 14.1057C35.7573 16.3733 37.6025 18.2115 39.8787 18.2115Z" fill="#EA4336"/>
<path d="M35.974 27.288C38.2502 27.288 40.0954 25.4498 40.0954 23.1822C40.0954 20.9147 38.2502 19.0765 35.974 19.0765C33.6978 19.0765 31.8525 20.9147 31.8525 23.1822C31.8525 25.4498 33.6978 27.288 35.974 27.288Z" fill="#34A853"/>
</svg>
