<svg height="50.59927mm" viewBox="0 0 50.598915 50.59927" width="50.598915mm" xmlns="http://www.w3.org/2000/svg" xmlns:xlink="http://www.w3.org/1999/xlink"><clipPath id="a"><path d="m255.338 282.431c-16.177 0-29.413-13.238-29.413-29.419v-84.599c0-16.178 13.236-29.413 29.413-29.413h84.602c16.095 0 29.28 13.1 29.415 29.166v85.094c-.135 16.068-13.32 29.171-29.415 29.171z"/></clipPath><linearGradient id="b" gradientTransform="matrix(0 143.00507 -143.00507 0 297.63998 139.26192)" gradientUnits="userSpaceOnUse" spreadMethod="pad" x1="0" x2="1" y1="0" y2="0"><stop offset="0" stop-color="#00b70c"/><stop offset=".00164835" stop-color="#00b70c"/><stop offset=".94889914" stop-color="#00d50c"/><stop offset=".951703" stop-color="#00d50c"/><stop offset="1" stop-color="#00d50c"/></linearGradient><clipPath id="c"><path d="m225.925 139h143.429v143.43h-143.429z"/></clipPath><g clip-path="url(#a)" transform="matrix(.35277777 0 0 -.35277777 -79.701318 99.63538)"><path d="m255.338 282.431c-16.177 0-29.413-13.238-29.413-29.419v-84.599c0-16.178 13.236-29.413 29.413-29.413h84.602c16.095 0 29.28 13.1 29.415 29.166v85.094c-.135 16.068-13.32 29.171-29.415 29.171z" fill="url(#b)"/></g><g clip-path="url(#c)" fill="#fff" transform="matrix(.35277777 0 0 -.35277777 -79.701318 99.63538)"><path d="m0 0c7.385 5.352 12.105 13.271 12.105 22.066 0 16.124-15.686 29.194-35.033 29.194-19.348 0-35.033-13.07-35.033-29.194 0-16.123 15.685-29.193 35.033-29.193 3.997 0 7.857.571 11.435 1.6.325.1.671.154 1.03.154.672 0 1.284-.205 1.86-.539l7.669-4.427c.215-.124.421-.218.675-.218.646 0 1.167.523 1.167 1.169 0 .287-.114.577-.188.853-.044.165-.989 3.688-1.578 5.889-.067.247-.122.485-.122.744 0 .784.386 1.478.98 1.902m-34.607 26.737c-2.578 0-4.67 2.091-4.67 4.672 0 2.579 2.092 4.671 4.67 4.671 2.582 0 4.672-2.092 4.672-4.671 0-2.581-2.09-4.672-4.672-4.672m23.356 0c-2.579 0-4.671 2.091-4.671 4.672 0 2.579 2.092 4.671 4.671 4.671 2.581 0 4.671-2.092 4.671-4.671 0-2.581-2.09-4.672-4.671-4.672" transform="translate(343.6903 174.8701)"/><path d="m0 0c-23.218 0-42.04-15.686-42.04-35.034 0-10.556 5.663-20.057 14.526-26.479.712-.508 1.177-1.341 1.177-2.284 0-.309-.067-.595-.148-.892-.707-2.64-1.841-6.868-1.894-7.066-.088-.331-.225-.678-.225-1.024 0-.775.626-1.402 1.401-1.402.304 0 .553.114.809.262l9.204 5.313c.692.4 1.425.646 2.232.646.43 0 .844-.065 1.236-.185 4.293-1.234 8.925-1.921 13.722-1.921.775 0 1.544.02 2.309.055-.913 2.733-1.412 5.611-1.412 8.586 0 17.645 17.165 31.951 38.341 31.951.767 0 1.526-.024 2.283-.062-3.166 16.737-20.548 29.536-41.521 29.536m-14.014-29.428c-3.095 0-5.604 2.509-5.604 5.605s2.509 5.606 5.604 5.606c3.097 0 5.606-2.51 5.606-5.606s-2.509-5.605-5.606-5.605m28.027 0c-3.096 0-5.605 2.509-5.605 5.605s2.509 5.606 5.605 5.606 5.606-2.51 5.606-5.606-2.51-5.605-5.606-5.605" transform="translate(281.5243 258.3613)"/></g></svg>