<?xml version="1.0" encoding="UTF-8" standalone="no"?>
<!-- Created with Inkscape (http://www.inkscape.org/) -->

<svg
   xmlns:dc="http://purl.org/dc/elements/1.1/"
   xmlns:cc="http://creativecommons.org/ns#"
   xmlns:rdf="http://www.w3.org/1999/02/22-rdf-syntax-ns#"
   xmlns:svg="http://www.w3.org/2000/svg"
   xmlns="http://www.w3.org/2000/svg"
   xmlns:sodipodi="http://sodipodi.sourceforge.net/DTD/sodipodi-0.dtd"
   xmlns:inkscape="http://www.inkscape.org/namespaces/inkscape"
   width="50.598915mm"
   height="50.59927mm"
   viewBox="0 0 50.598915 50.59927"
   version="1.1"
   id="svg3816"
   inkscape:version="0.92.1 r15371"
   sodipodi:docname="wechat.svg">
  <defs
     id="defs3810">
    <clipPath
       clipPathUnits="userSpaceOnUse"
       id="clipPath104">
      <path
         d="m 255.338,282.431 c -16.177,0 -29.413,-13.238 -29.413,-29.419 v 0 -84.599 c 0,-16.178 13.236,-29.413 29.413,-29.413 v 0 h 84.602 c 16.095,0 29.28,13.1 29.415,29.166 v 0 85.094 c -0.135,16.068 -13.32,29.171 -29.415,29.171 v 0 z"
         id="path102"
         inkscape:connector-curvature="0" />
    </clipPath>
    <linearGradient
       x1="0"
       y1="0"
       x2="1"
       y2="0"
       gradientUnits="userSpaceOnUse"
       gradientTransform="matrix(0,143.00507,-143.00507,0,297.63998,139.26192)"
       spreadMethod="pad"
       id="linearGradient120">
      <stop
         style="stop-opacity:1;stop-color:#00b70c"
         offset="0"
         id="stop110" />
      <stop
         style="stop-opacity:1;stop-color:#00b70c"
         offset="0.00164835"
         id="stop112" />
      <stop
         style="stop-opacity:1;stop-color:#00d50c"
         offset="0.94889914"
         id="stop114" />
      <stop
         style="stop-opacity:1;stop-color:#00d50c"
         offset="0.951703"
         id="stop116" />
      <stop
         style="stop-opacity:1;stop-color:#00d50c"
         offset="1"
         id="stop118" />
    </linearGradient>
    <clipPath
       clipPathUnits="userSpaceOnUse"
       id="clipPath130">
      <path
         d="M 225.925,139 H 369.354 V 282.43 H 225.925 Z"
         id="path128"
         inkscape:connector-curvature="0" />
    </clipPath>
  </defs>
  <sodipodi:namedview
     id="base"
     pagecolor="#ffffff"
     bordercolor="#666666"
     borderopacity="1.0"
     inkscape:pageopacity="0.0"
     inkscape:pageshadow="2"
     inkscape:zoom="0.35"
     inkscape:cx="1314.2857"
     inkscape:cy="560"
     inkscape:document-units="mm"
     inkscape:current-layer="layer1"
     showgrid="false"
     fit-margin-top="0"
     fit-margin-left="0"
     fit-margin-right="0"
     fit-margin-bottom="0"
     inkscape:window-width="1366"
     inkscape:window-height="739"
     inkscape:window-x="0"
     inkscape:window-y="0"
     inkscape:window-maximized="1" />
  <metadata
     id="metadata3813">
    <rdf:RDF>
      <cc:Work
         rdf:about="">
        <dc:format>image/svg+xml</dc:format>
        <dc:type
           rdf:resource="http://purl.org/dc/dcmitype/StillImage" />
        <dc:title></dc:title>
      </cc:Work>
    </rdf:RDF>
  </metadata>
  <g
     inkscape:label="Layer 1"
     inkscape:groupmode="layer"
     id="layer1"
     transform="translate(3.1275e-7,-246.40073)">
    <g
       transform="matrix(0.35277777,0,0,-0.35277777,-79.701318,346.03611)"
       id="g98">
      <g
         id="g100"
         clip-path="url(#clipPath104)">
        <g
           id="g106">
          <g
             id="g108">
            <path
               d="m 255.338,282.431 c -16.177,0 -29.413,-13.238 -29.413,-29.419 v 0 -84.599 c 0,-16.178 13.236,-29.413 29.413,-29.413 v 0 h 84.602 c 16.095,0 29.28,13.1 29.415,29.166 v 0 85.094 c -0.135,16.068 -13.32,29.171 -29.415,29.171 v 0 z"
               style="fill:url(#linearGradient120);stroke:none"
               id="path122"
               inkscape:connector-curvature="0" />
          </g>
        </g>
      </g>
    </g>
    <g
       transform="matrix(0.35277777,0,0,-0.35277777,-79.701318,346.03611)"
       id="g124">
      <g
         id="g126"
         clip-path="url(#clipPath130)">
        <g
           id="g132"
           transform="translate(343.6903,174.8701)">
          <path
             d="m 0,0 c 7.385,5.352 12.105,13.271 12.105,22.066 0,16.124 -15.686,29.194 -35.033,29.194 -19.348,0 -35.033,-13.07 -35.033,-29.194 0,-16.123 15.685,-29.193 35.033,-29.193 3.997,0 7.857,0.571 11.435,1.6 0.325,0.1 0.671,0.154 1.03,0.154 0.672,0 1.284,-0.205 1.86,-0.539 l 7.669,-4.427 c 0.215,-0.124 0.421,-0.218 0.675,-0.218 0.646,0 1.167,0.523 1.167,1.169 0,0.287 -0.114,0.577 -0.188,0.853 -0.044,0.165 -0.989,3.688 -1.578,5.889 -0.067,0.247 -0.122,0.485 -0.122,0.744 0,0.784 0.386,1.478 0.98,1.902 m -34.607,26.737 c -2.578,0 -4.67,2.091 -4.67,4.672 0,2.579 2.092,4.671 4.67,4.671 2.582,0 4.672,-2.092 4.672,-4.671 0,-2.581 -2.09,-4.672 -4.672,-4.672 m 23.356,0 c -2.579,0 -4.671,2.091 -4.671,4.672 0,2.579 2.092,4.671 4.671,4.671 2.581,0 4.671,-2.092 4.671,-4.671 0,-2.581 -2.09,-4.672 -4.671,-4.672"
             style="fill:#ffffff;fill-opacity:1;fill-rule:nonzero;stroke:none"
             id="path134"
             inkscape:connector-curvature="0" />
        </g>
        <g
           id="g136"
           transform="translate(281.5243,258.3613)">
          <path
             d="m 0,0 c -23.218,0 -42.04,-15.686 -42.04,-35.034 0,-10.556 5.663,-20.057 14.526,-26.479 0.712,-0.508 1.177,-1.341 1.177,-2.284 0,-0.309 -0.067,-0.595 -0.148,-0.892 -0.707,-2.64 -1.841,-6.868 -1.894,-7.066 -0.088,-0.331 -0.225,-0.678 -0.225,-1.024 0,-0.775 0.626,-1.402 1.401,-1.402 0.304,0 0.553,0.114 0.809,0.262 l 9.204,5.313 c 0.692,0.4 1.425,0.646 2.232,0.646 0.43,0 0.844,-0.065 1.236,-0.185 4.293,-1.234 8.925,-1.921 13.722,-1.921 0.775,0 1.544,0.02 2.309,0.055 -0.913,2.733 -1.412,5.611 -1.412,8.586 0,17.645 17.165,31.951 38.341,31.951 0.767,0 1.526,-0.024 2.283,-0.062 C 38.355,-12.799 20.973,0 0,0 m -14.014,-29.428 c -3.095,0 -5.604,2.509 -5.604,5.605 0,3.096 2.509,5.606 5.604,5.606 3.097,0 5.606,-2.51 5.606,-5.606 0,-3.096 -2.509,-5.605 -5.606,-5.605 m 28.027,0 c -3.096,0 -5.605,2.509 -5.605,5.605 0,3.096 2.509,5.606 5.605,5.606 3.096,0 5.606,-2.51 5.606,-5.606 0,-3.096 -2.51,-5.605 -5.606,-5.605"
             style="fill:#ffffff;fill-opacity:1;fill-rule:nonzero;stroke:none"
             id="path138"
             inkscape:connector-curvature="0" />
        </g>
      </g>
    </g>
  </g>
</svg>
