<svg height="1422.48" viewBox="0 0 1706.9867 1422.48" width="1706.9867" xmlns="http://www.w3.org/2000/svg" xmlns:xlink="http://www.w3.org/1999/xlink"><clipPath id="a"><path d="m0 1066.861h1280.244v-1066.861h-1280.244z"/></clipPath><clipPath id="b"><path d="m0 1066.861h1280.244v-1066.861h-1280.244z"/></clipPath><g transform="matrix(1.3333333 0 0 -1.3333333 0 1422.48)"><g clip-path="url(#a)"><path d="m0 0h-1240.524c-10.968 0-19.86 8.892-19.86 19.86v1027.142c0 10.968 8.892 19.859 19.86 19.859h1240.524c10.968 0 19.86-8.891 19.86-19.859v-1027.142c0-10.968-8.892-19.86-19.86-19.86" fill="#25d366" transform="translate(1260.3838)"/></g><g clip-path="url(#b)"><path d="m0 0c-5.211 2.608-30.831 15.213-35.608 16.954-4.776 1.739-8.25 2.607-11.724-2.608-3.474-5.216-13.461-16.955-16.501-20.433-3.039-3.477-6.079-3.914-11.29-1.304-5.211 2.608-22.002 8.11-41.906 25.865-15.491 13.818-25.95 30.882-28.989 36.099-3.04 5.217-.325 8.037 2.284 10.635 2.345 2.335 5.212 6.087 7.817 9.13 2.606 3.042 3.474 5.217 5.211 8.693 1.737 3.479.869 6.521-.435 9.129-1.302 2.608-11.724 28.259-16.066 38.694-4.23 10.16-8.526 8.784-11.725 8.945-3.036.151-6.514.183-9.987.183-3.474 0-9.12-1.304-13.897-6.52-4.776-5.217-18.238-17.825-18.238-43.473 0-25.651 18.672-50.429 21.278-53.907 2.606-3.479 36.745-56.113 89.021-78.685 12.432-5.37 22.139-8.576 29.707-10.977 12.483-3.967 23.843-3.407 32.822-2.065 10.012 1.495 30.831 12.605 35.174 24.777 4.342 12.175 4.342 22.608 3.039 24.781-1.302 2.174-4.776 3.478-9.987 6.087m-95.082-129.825h-.07c-31.105.012-61.613 8.369-88.227 24.162l-6.33 3.757-65.606-17.21 17.511 63.966-4.121 6.559c-17.352 27.598-26.517 59.496-26.503 92.25.038 95.573 77.8 173.329 173.415 173.329 46.3-.016 89.822-18.07 122.551-50.836 32.727-32.764 50.74-76.316 50.722-122.633-.039-95.581-77.8-173.344-173.342-173.344m147.528 320.874c-39.375 39.421-91.739 61.14-147.53 61.163-114.953 0-208.511-93.552-208.557-208.54-.015-36.758 9.588-72.635 27.839-104.264l-29.587-108.071 110.558 29.001c30.462-16.615 64.759-25.373 99.664-25.384h.085.001c114.941 0 208.507 93.561 208.554 208.551.021 55.726-21.652 108.124-61.027 147.544" fill="#fff" fill-rule="evenodd" transform="translate(736.1802 489.2339)"/></g></g></svg>