<svg xmlns="http://www.w3.org/2000/svg" viewBox="0 0 360 362">
  <path fill="#25d366" d="M307.546 52.5655C273.709 18.685 228.706.0172 180.756 0 81.951 0 1.5385 80.404 1.5041 179.235c-.0172 31.594 8.2424 62.432 23.9278 89.609L0 361.736l95.0236-24.925c26.1794 14.285 55.6594 21.805 85.6554 21.814h.077c98.788 0 179.21-80.413 179.244-179.244.017-47.898-18.608-92.9263-52.454-126.8069v-.0086zM180.756 328.354h-.06c-26.73-.008-52.952-7.194-75.831-20.765l-5.4408-3.231-56.3902 14.791 15.0494-54.981-3.5411-5.638c-14.9119-23.721-22.7933-51.139-22.7761-79.286.0344-82.1404 66.8672-148.9733 149.0508-148.9733 39.793.0172 77.198 15.5308 105.328 43.6958 28.131 28.1565 43.61 65.5955 43.593 105.3975-.035 82.149-66.867 148.982-148.982 148.982v.008zm81.719-111.577c-4.478-2.243-26.497-13.073-30.606-14.568-4.108-1.496-7.09-2.243-10.073 2.243-2.982 4.487-11.568 14.577-14.181 17.559-2.613 2.991-5.226 3.361-9.704 1.117-4.477-2.243-18.908-6.97-36.02-22.226-13.313-11.878-22.304-26.54-24.916-31.027-2.613-4.486-.275-6.91 1.959-9.136 2.011-2.011 4.478-5.234 6.721-7.847 2.244-2.613 2.983-4.486 4.478-7.469 1.496-2.991.748-5.603-.369-7.847-1.118-2.243-10.073-24.289-13.812-33.253-3.636-8.7321-7.331-7.546-10.073-7.6921-2.613-.129-5.595-.1547-8.586-.1547s-7.839 1.1173-11.947 5.6038c-4.108 4.486-15.6769 15.324-15.6769 37.361s16.0469 43.344 18.2899 46.335 31.585 48.225 76.51 67.632c10.684 4.615 19.029 7.374 25.535 9.437 10.727 3.412 20.49 2.931 28.208 1.779 8.604-1.289 26.498-10.838 30.228-21.298s3.73-19.433 2.613-21.298-4.108-2.991-8.586-5.234l.008-.017z"/>
</svg>