<svg xmlns="http://www.w3.org/2000/svg" viewBox="0 0 275.4 226.2">
  <path d="M275.4 141.2c0 46.9-37.9 84.9-84.8 85-19 0-37.5-6.4-52.4-18.3-15 11.9-33.6 18.4-52.8 18.4-46.9 0-85.4-38.1-85.4-85V7.5h16.2v133.6c.1 38.1 31.1 68.9 69.2 68.8 14.7 0 29-4.8 40.8-13.5-13.4-15.3-20.8-35-20.9-55.3V31.8c.3-17.9 15.1-32.1 33-31.8 17.4.3 31.5 14.4 31.8 31.8v109.3c.1 20.3-7.2 39.9-20.4 55.3 30.4 22.6 73.4 16.3 96-14.1 8.8-11.9 13.6-26.3 13.5-41.2V7.5h16.2v133.7zM153.9 31.8c0-8.9-7.2-16.2-16.2-16.2-8.9 0-16.2 7.2-16.2 16.2v109.3c0 16.2 5.8 31.9 16.2 44.3 10.5-12.4 16.2-28.1 16.2-44.3V31.8z"/>
</svg>
