<?xml version="1.0" encoding="UTF-8" standalone="no"?>
<!-- Created with Inkscape (http://www.inkscape.org/) -->

<svg
   xmlns:dc="http://purl.org/dc/elements/1.1/"
   xmlns:cc="http://creativecommons.org/ns#"
   xmlns:rdf="http://www.w3.org/1999/02/22-rdf-syntax-ns#"
   xmlns:svg="http://www.w3.org/2000/svg"
   xmlns="http://www.w3.org/2000/svg"
   xmlns:sodipodi="http://sodipodi.sourceforge.net/DTD/sodipodi-0.dtd"
   xmlns:inkscape="http://www.inkscape.org/namespaces/inkscape"
   version="1.1"
   id="svg29"
   xml:space="preserve"
   width="336"
   height="336"
   viewBox="0 0 336 336"
   sodipodi:docname="wordpress.svg"
   inkscape:version="0.92.1 r15371"><metadata
     id="metadata35"><rdf:RDF><cc:Work
         rdf:about=""><dc:format>image/svg+xml</dc:format><dc:type
           rdf:resource="http://purl.org/dc/dcmitype/StillImage" /><dc:title></dc:title></cc:Work></rdf:RDF></metadata><defs
     id="defs33"><clipPath
       clipPathUnits="userSpaceOnUse"
       id="clipPath45"><path
         d="M 0,252 H 252 V 0 H 0 Z"
         id="path43"
         inkscape:connector-curvature="0" /></clipPath></defs><sodipodi:namedview
     pagecolor="#ffffff"
     bordercolor="#666666"
     borderopacity="1"
     objecttolerance="10"
     gridtolerance="10"
     guidetolerance="10"
     inkscape:pageopacity="0"
     inkscape:pageshadow="2"
     inkscape:window-width="1366"
     inkscape:window-height="739"
     id="namedview31"
     showgrid="false"
     inkscape:zoom="1.6607143"
     inkscape:cx="168"
     inkscape:cy="168"
     inkscape:window-x="0"
     inkscape:window-y="0"
     inkscape:window-maximized="1"
     inkscape:current-layer="g37" /><g
     id="g37"
     inkscape:groupmode="layer"
     inkscape:label="wordpress-logo-notext-cmyk"
     transform="matrix(1.3333333,0,0,-1.3333333,0,336)"><g
       id="g39"><g
         id="g41"
         clip-path="url(#clipPath45)"><g
           id="g47"
           transform="translate(41.647,125.3931)"><path
             d="M 0,0 C 0,-33.629 19.542,-62.695 47.886,-76.464 L 7.357,34.578 C 2.643,24.012 0,12.318 0,0"
             style="fill:#3f3c3c;fill-opacity:1;fill-rule:nonzero;stroke:none"
             id="path49"
             inkscape:connector-curvature="0" /></g><g
           id="g51"
           transform="translate(183.9648,129.6782)"><path
             d="m 0,0 c 0,10.504 -3.773,17.773 -7.005,23.432 -4.306,7.002 -8.346,12.925 -8.346,19.927 0,7.809 5.922,15.079 14.268,15.079 0.377,0 0.734,-0.045 1.101,-0.068 -15.116,13.85 -35.255,22.307 -57.374,22.307 -29.684,0 -55.796,-15.231 -70.988,-38.295 1.995,-0.064 3.874,-0.103 5.468,-0.103 8.885,0 22.644,1.08 22.644,1.08 4.578,0.268 5.119,-6.46 0.544,-7.002 0,0 -4.605,-0.538 -9.724,-0.807 l 30.938,-92.032 18.596,55.763 -13.236,36.269 c -4.578,0.269 -8.912,0.807 -8.912,0.807 -4.579,0.271 -4.042,7.27 0.539,7.002 0,0 14.029,-1.08 22.377,-1.08 8.883,0 22.645,1.08 22.645,1.08 4.58,0.268 5.12,-6.46 0.542,-7.002 0,0 -4.609,-0.538 -9.723,-0.807 l 30.705,-91.331 8.476,28.315 C -2.797,-15.709 0,-7.271 0,0"
             style="fill:#3f3c3c;fill-opacity:1;fill-rule:nonzero;stroke:none"
             id="path53"
             inkscape:connector-curvature="0" /></g><g
           id="g55"
           transform="translate(128.1006,117.9609)"><path
             d="m 0,0 -25.495,-74.074 c 7.614,-2.239 15.664,-3.462 24.003,-3.462 9.894,0 19.384,1.708 28.215,4.816 -0.226,0.365 -0.437,0.751 -0.609,1.171 z"
             style="fill:#3f3c3c;fill-opacity:1;fill-rule:nonzero;stroke:none"
             id="path57"
             inkscape:connector-curvature="0" /></g><g
           id="g59"
           transform="translate(201.1641,166.1533)"><path
             d="m 0,0 c 0.365,-2.706 0.571,-5.609 0.571,-8.737 0,-8.618 -1.614,-18.31 -6.461,-30.431 l -25.95,-75.03 C -6.581,-99.471 10.406,-72.105 10.406,-40.76 10.406,-25.988 6.632,-12.101 0,0"
             style="fill:#3f3c3c;fill-opacity:1;fill-rule:nonzero;stroke:none"
             id="path61"
             inkscape:connector-curvature="0" /></g><g
           id="g63"
           transform="translate(126.6089,30.8896)"><path
             d="M 0,0 C -52.106,0 -94.499,42.396 -94.499,94.503 -94.499,146.609 -52.106,189 0,189 52.106,189 94.5,146.609 94.5,94.503 94.5,42.396 52.106,0 0,0 m 0,193.542 c -54.612,0 -99.041,-44.428 -99.041,-99.039 0,-54.614 44.429,-99.044 99.041,-99.044 54.612,0 99.043,44.43 99.043,99.044 0,54.611 -44.431,99.039 -99.043,99.039"
             style="fill:#3f3c3c;fill-opacity:1;fill-rule:nonzero;stroke:none"
             id="path65"
             inkscape:connector-curvature="0" /></g></g></g></g></svg>