<svg height="336" viewBox="0 0 336 336" width="336" xmlns="http://www.w3.org/2000/svg" xmlns:xlink="http://www.w3.org/1999/xlink"><clipPath id="a"><path d="m0 252h252v-252h-252z"/></clipPath><g clip-path="url(#a)" fill="#3f3c3c" transform="matrix(1.3333333 0 0 -1.3333333 0 336)"><path d="m0 0c0-33.629 19.542-62.695 47.886-76.464l-40.529 111.042c-4.714-10.566-7.357-22.26-7.357-34.578" transform="translate(41.647 125.3931)"/><path d="m0 0c0 10.504-3.773 17.773-7.005 23.432-4.306 7.002-8.346 12.925-8.346 19.927 0 7.809 5.922 15.079 14.268 15.079.377 0 .734-.045 1.101-.068-15.116 13.85-35.255 22.307-57.374 22.307-29.684 0-55.796-15.231-70.988-38.295 1.995-.064 3.874-.103 5.468-.103 8.885 0 22.644 1.08 22.644 1.08 4.578.268 5.119-6.46.544-7.002 0 0-4.605-.538-9.724-.807l30.938-92.032 18.596 55.763-13.236 36.269c-4.578.269-8.912.807-8.912.807-4.579.271-4.042 7.27.539 7.002 0 0 14.029-1.08 22.377-1.08 8.883 0 22.645 1.08 22.645 1.08 4.58.268 5.12-6.46.542-7.002 0 0-4.609-.538-9.723-.807l30.705-91.331 8.476 28.315c3.668 11.757 6.465 20.195 6.465 27.466" transform="translate(183.9648 129.6782)"/><path d="m0 0-25.495-74.074c7.614-2.239 15.664-3.462 24.003-3.462 9.894 0 19.384 1.708 28.215 4.816-.226.365-.437.751-.609 1.171z" transform="translate(128.1006 117.9609)"/><path d="m0 0c.365-2.706.571-5.609.571-8.737 0-8.618-1.614-18.31-6.461-30.431l-25.95-75.03c25.259 14.727 42.246 42.093 42.246 73.438 0 14.772-3.774 28.659-10.406 40.76" transform="translate(201.1641 166.1533)"/><path d="m0 0c-52.106 0-94.499 42.396-94.499 94.503 0 52.106 42.393 94.497 94.499 94.497s94.5-42.391 94.5-94.497c0-52.107-42.394-94.503-94.5-94.503m0 193.542c-54.612 0-99.041-44.428-99.041-99.039 0-54.614 44.429-99.044 99.041-99.044s99.043 44.43 99.043 99.044c0 54.611-44.431 99.039-99.043 99.039" transform="translate(126.6089 30.8896)"/></g></svg>