<svg xmlns="http://www.w3.org/2000/svg" viewBox="0 0 114.69 25.28"><title>workato</title><path fill="#27989F" d="M12 14.3q-.72 2.76-1.58 5.49-.8 2.53-1.68 5H5.57q-.72-1.66-1.34-3.36-.71-1.89-1.41-4t-1.41-4.51Q.71 10.55.03 8.09h4.1q.29 1.34.67 2.9t.8 3.17q.42 1.62.86 3.15t.9 2.82q1-3.06 1.82-6.18.42-1.57.78-3.06t.66-2.8h3Q14.21 11 15 14q.4 1.58.86 3.14t.94 3q.42-1.28.86-2.82t.88-3.15q.43-1.62.82-3.17t.67-2.9h4q-.66 2.42-1.38 4.83t-1.41 4.51q-.7 2.15-1.41 4-.63 1.7-1.38 3.36H15.3q-.88-2.51-1.71-5-.9-2.73-1.59-5.5zm28 5.76a8 8 0 0 1-1.63 2.78 7.34 7.34 0 0 1-2.54 1.79 8.21 8.21 0 0 1-3.28.64 8.09 8.09 0 0 1-3.26-.64 7.37 7.37 0 0 1-2.53-1.79 8.21 8.21 0 0 1-1.65-2.78 10.53 10.53 0 0 1-.59-3.62 10.39 10.39 0 0 1 .59-3.6 8.11 8.11 0 0 1 1.66-2.77 7.35 7.35 0 0 1 2.54-1.78 8.2 8.2 0 0 1 3.23-.62 8.32 8.32 0 0 1 3.25.62 7.16 7.16 0 0 1 2.54 1.78 8.23 8.23 0 0 1 1.65 2.77 10.39 10.39 0 0 1 .59 3.6 10.8 10.8 0 0 1-.57 3.62zm-3.39-3.62a6.53 6.53 0 0 0-1.07-4 3.8 3.8 0 0 0-6 0 6.53 6.53 0 0 0-1.07 4 6.66 6.66 0 0 0 1.07 4 3.78 3.78 0 0 0 6 0 6.66 6.66 0 0 0 1.05-3.99zm16.3-4.86a12.21 12.21 0 0 0-1.33-.34 9.77 9.77 0 0 0-2-.18 7.81 7.81 0 0 0-1.36.13 8.11 8.11 0 0 0-1 .22v13.41h-3.87V8.9a21.3 21.3 0 0 1 2.8-.78 17.48 17.48 0 0 1 3.73-.37h.9c.34 0 .68.07 1 .13s.67.12 1 .19.58.14.77.21zm6 3L60.5 13q.82-.87 1.63-1.76l1.52-1.7q.72-.82 1.23-1.42h4.58q-1.67 1.87-3.38 3.71t-3.57 3.74a22.17 22.17 0 0 1 2 1.94q1.08 1.16 2 2.42t1.86 2.56a26.18 26.18 0 0 1 1.44 2.37h-4.48q-.62-1.07-1.33-2.08t-1.62-2.11q-.84-1-1.76-1.94a15.05 15.05 0 0 0-1.76-1.55v7.68h-3.87V.64L58.86 0zm18.45 7.49a14.41 14.41 0 0 0 2.72-.19v-4.29a7.53 7.53 0 0 0-.93-.19 8.65 8.65 0 0 0-1.34-.1 8.93 8.93 0 0 0-1.3.1 4 4 0 0 0-1.18.35 2.13 2.13 0 0 0-.85.72 2 2 0 0 0-.32 1.17 2 2 0 0 0 .86 1.9 4.46 4.46 0 0 0 2.36.57zm-.32-14.43a9.47 9.47 0 0 1 3.23.48 5.16 5.16 0 0 1 2.1 1.34 5 5 0 0 1 1.12 2.1 10.26 10.26 0 0 1 .34 2.7V24.4q-.9.19-2.7.46a27.65 27.65 0 0 1-4.08.27 12.24 12.24 0 0 1-2.75-.29 5.78 5.78 0 0 1-2.13-.93 4.38 4.38 0 0 1-1.38-1.66 5.78 5.78 0 0 1-.5-2.53 4.89 4.89 0 0 1 .56-2.43 4.6 4.6 0 0 1 1.52-1.62 6.57 6.57 0 0 1 2.22-.9 12.52 12.52 0 0 1 2.64-.27 11.92 11.92 0 0 1 2.85.35v-.64a5 5 0 0 0-.16-1.28 2.65 2.65 0 0 0-.56-1.07 2.62 2.62 0 0 0-1.06-.72 4.58 4.58 0 0 0-1.65-.26 14.63 14.63 0 0 0-2.46.19 10.78 10.78 0 0 0-1.82.45l-.48-3.14a15.35 15.35 0 0 1 2.14-.51 16.88 16.88 0 0 1 3.03-.19zm10.13-4L91.04 3v5.06h6v3.23h-6v6.82a5 5 0 0 0 .64 2.88 2.53 2.53 0 0 0 2.18.86 7.11 7.11 0 0 0 1.87-.22 12.82 12.82 0 0 0 1.3-.42l.64 3.07a14.43 14.43 0 0 1-1.76.59 9.56 9.56 0 0 1-2.56.3 8.1 8.1 0 0 1-3-.48 4.41 4.41 0 0 1-1.9-1.39 5.51 5.51 0 0 1-1-2.21 13.71 13.71 0 0 1-.29-3zm27.5 12.77a10.8 10.8 0 0 1-.58 3.62 8 8 0 0 1-1.63 2.78 7.34 7.34 0 0 1-2.54 1.79 8.21 8.21 0 0 1-3.28.64 8.09 8.09 0 0 1-3.26-.64 7.38 7.38 0 0 1-2.53-1.79 8.21 8.21 0 0 1-1.65-2.78 10.53 10.53 0 0 1-.59-3.62 10.39 10.39 0 0 1 .59-3.6 8.11 8.11 0 0 1 1.66-2.77 7.35 7.35 0 0 1 2.54-1.78 8.2 8.2 0 0 1 3.23-.62 8.32 8.32 0 0 1 3.25.62 7.16 7.16 0 0 1 2.54 1.78 8.23 8.23 0 0 1 1.65 2.77 10.39 10.39 0 0 1 .59 3.6zm-4 0a6.53 6.53 0 0 0-1.07-4 3.8 3.8 0 0 0-6 0 6.53 6.53 0 0 0-1.07 4 6.66 6.66 0 0 0 1.07 4 3.78 3.78 0 0 0 6 0 6.66 6.66 0 0 0 1.12-3.96z"/></svg>
