<svg viewBox="0 0 136 81" xmlns="http://www.w3.org/2000/svg" class="w-logo__w"><path d="M132.7 8.225c4.801 7.77 2.49 18.055-5.245 22.905-5.152 3.237-11.352 3.192-16.358.618l-.003.004-.08-.035-.084-.036c-.457-.193-.935-.34-1.77-.467-.908-.139-1.934-.04-3.078.293l-.056.017c-.557.2-1.108.469-1.636.81-3.3 2.09-4.335 6.468-2.329 9.78l7.664 12.406c4.801 7.77 2.49 18.055-5.246 22.905-7.69 4.85-17.87 2.515-22.672-5.3l-7.513-12.17c-2.089-3.369-6.49-4.402-9.78-2.29a7.184 7.184 0 0 0-3.333 5.99v.072c0 5.57-2.713 11.004-7.736 14.148-7.69 4.85-17.87 2.515-22.672-5.3L2.5 26.855C-2.301 19.084.01 8.8 7.745 3.948c7.691-4.85 17.871-2.515 22.672 5.3l7.558 12.216c2.068 3.335 6.402 4.38 9.68 2.353l.1-.063c2.09-1.302 3.245-3.548 3.334-5.838-.089-5.66 2.667-11.183 7.735-14.372 7.69-4.85 17.871-2.515 22.672 5.3l7.602 12.305c2.09 3.369 6.49 4.402 9.78 2.291.775-.492 1.495-1.34 2.16-2.545-.259.49-.236.442.07-.148.458-.883.753-1.583.885-2.097.128-.498.221-.98.28-1.444.602-6.362 2.75-11.095 7.755-14.282 7.69-4.85 17.871-2.515 22.672 5.3z" fill="" fill-rule="evenodd"></path></svg>