<?xml version="1.0" encoding="UTF-8"?>
<svg id="Layer_1" xmlns="http://www.w3.org/2000/svg" version="1.1" viewBox="0 0 360 360">
  <!-- Generator: Adobe Illustrator 29.7.1, SVG Export Plug-In . SVG Version: 2.1.1 Build 8)  -->
  <defs>
    <style>
      .st0 {
        fill: #107c10;
      }
    </style>
  </defs>
  <path class="st0" d="M180,144.4c.2,0,.5.2.6.3,53.8,40.9,146,142.2,117.9,170.8-31.7,27.7-73.1,44.5-118.5,44.5s-86.8-16.8-118.5-44.5c-28.1-28.6,64.1-129.9,117.9-170.8.1-.1.4-.3.6-.3"/>
  <path class="st0" d="M273.8,26.3C246.2,10,216.3,0,180,0s-66.2,10-93.8,26.3c-.3.2-.5.6-.3.9.1.3.5.4.9.3,34.9-7.5,87.8,22.6,92.8,25.6.1,0,.2.1.4.1s.3,0,.4-.1c5-3,58-33.1,92.8-25.6.4,0,.7,0,.9-.3.2-.3,0-.7-.3-.9"/>
  <path class="st0" d="M54,51.6c-.3.2-.6.4-.8.6C20.4,84.9,0,130,0,180s13.7,78.8,36.8,109.1c.2.3.6.5,1,.3.3-.2.3-.6.2-.9-13.7-42.4,56.4-145.3,92.7-188.4.1-.1.2-.3.2-.5s-.1-.4-.3-.6C75.7,44.3,57,50.1,54,51.6"/>
  <path class="st0" d="M229.4,98.9c-.2.1-.3.3-.3.6s.1.4.2.5c36.2,43.1,106.4,146,92.7,188.4-.1.3-.1.7.2.9.3.2.7,0,1-.3,23.1-30.3,36.8-68,36.8-109.1s-20.4-95.1-53.2-127.7c-.2-.2-.5-.5-.8-.6-3-1.6-21.7-7.4-76.6,47.3"/>
</svg>