<svg xmlns="http://www.w3.org/2000/svg" viewBox="0 0 512 512">
	<rect width="512" height="512" fill="#fff"/>
  <linearGradient id="a" x1="-1073.2" x2="-1073.2" y1="126.85" y2="0" gradientTransform="translate(1338.389 163.698)" gradientUnits="userSpaceOnUse">
    <stop offset=".011" stop-color="#1b3967"/>
    <stop offset=".467" stop-color="#13b5ea"/>
    <stop offset=".995" stop-color="#002b5c"/>
  </linearGradient>
  <linearGradient id="b" x1="-1073.2" x2="-1073.2" y1="126.85" y2="0" gradientTransform="matrix(-1 0 0 1 -853.003 163.697)" gradientUnits="userSpaceOnUse">
    <stop offset=".011" stop-color="#1b3967"/>
    <stop offset=".467" stop-color="#13b5ea"/>
    <stop offset=".995" stop-color="#002b5c"/>
  </linearGradient>
  <path fill="url(#a)" d="M293.59 177.887c.077 1.313-1.787.968-1.787 2.293 0 38.55-46.558 97.366-91.688 108.73v1.639c59.953-5.52 128.56-67.8 130.07-126.85l-36.599 14.189z" transform="translate(-347.32 -299.943) scale(2.486)"/>
  <path fill="#e96d1f" d="M337.468 154.075c.19 3.264.299 6.538.299 9.837 0 95.838-76.318 224.975-188.506 253.224v4.074c146.783-6.936 263.044-156.677 263.044-271.47 0-5.905-.319-11.757-.923-17.542l-73.909 21.872z"/>
  <path fill="#d9541e" d="m412.093 130.833-18.936 6.767c.102 2.392.164 5.604.164 8.017 0 102.47-92.655 244.136-216.958 266.3-8.067 2.705-18.74 5.164-27.177 7.287v4.072c162.222-13.822 276.195-178.659 262.92-292.453z"/>
  <path fill="url(#b)" d="M191.796 177.886c-.077 1.313 1.787.968 1.787 2.293 0 38.55 46.558 97.366 91.688 108.73v1.639c-59.953-5.52-128.56-67.8-130.07-126.85l36.599 14.189z" transform="translate(-347.32 -299.943) scale(2.486)"/>
  <path fill="#a0ce67" d="M174.56 154.072a170.046 170.046 0 0 0-.297 9.837c0 95.838 76.317 224.976 188.505 253.224v4.075C215.985 414.272 99.725 264.53 99.725 149.737c0-5.905.318-11.757.922-17.542l73.909 21.872z"/>
  <path fill="#439639" d="m99.936 130.83 18.936 6.768a209.42 209.42 0 0 0-.164 8.017c0 102.47 92.656 244.135 216.958 266.3 8.067 2.705 18.74 5.164 27.177 7.287v4.072C200.62 409.452 86.648 244.614 99.923 130.82z"/>
</svg>