<?xml version="1.0" encoding="UTF-8" standalone="no"?>
<!-- Created with Inkscape (http://www.inkscape.org/) -->

<svg
   xmlns:dc="http://purl.org/dc/elements/1.1/"
   xmlns:cc="http://creativecommons.org/ns#"
   xmlns:rdf="http://www.w3.org/1999/02/22-rdf-syntax-ns#"
   xmlns:svg="http://www.w3.org/2000/svg"
   xmlns="http://www.w3.org/2000/svg"
   xmlns:sodipodi="http://sodipodi.sourceforge.net/DTD/sodipodi-0.dtd"
   xmlns:inkscape="http://www.inkscape.org/namespaces/inkscape"
   width="33.82262mm"
   height="28.696722mm"
   viewBox="0 0 33.82262 28.696722"
   version="1.1"
   id="svg217"
   inkscape:version="0.92.1 r15371"
   sodipodi:docname="yammer.svg">
  <defs
     id="defs211">
    <clipPath
       clipPathUnits="userSpaceOnUse"
       id="clipPath145">
      <path
         d="M 0,0 H 1080 V 648 H 0 Z"
         id="path143"
         inkscape:connector-curvature="0" />
    </clipPath>
  </defs>
  <sodipodi:namedview
     id="base"
     pagecolor="#ffffff"
     bordercolor="#666666"
     borderopacity="1.0"
     inkscape:pageopacity="0.0"
     inkscape:pageshadow="2"
     inkscape:zoom="0.35"
     inkscape:cx="400"
     inkscape:cy="288.82749"
     inkscape:document-units="mm"
     inkscape:current-layer="layer1"
     showgrid="false"
     fit-margin-top="0"
     fit-margin-left="0"
     fit-margin-right="0"
     fit-margin-bottom="0"
     inkscape:window-width="1366"
     inkscape:window-height="739"
     inkscape:window-x="0"
     inkscape:window-y="0"
     inkscape:window-maximized="1" />
  <metadata
     id="metadata214">
    <rdf:RDF>
      <cc:Work
         rdf:about="">
        <dc:format>image/svg+xml</dc:format>
        <dc:type
           rdf:resource="http://purl.org/dc/dcmitype/StillImage" />
        <dc:title></dc:title>
      </cc:Work>
    </rdf:RDF>
  </metadata>
  <g
     inkscape:label="Layer 1"
     inkscape:groupmode="layer"
     id="layer1"
     transform="translate(0,-268.30327)">
    <g
       id="g147"
       transform="matrix(0.35277777,0,0,-0.35277777,29.29999,274.89216)">
      <path
         d="M 0,0 C 1.931,1.544 2.422,4.328 1.062,6.451 -0.141,8.319 -2.393,9.092 -4.423,8.503 -4.6,8.412 -4.784,8.313 -4.981,8.207 -8.211,6.427 -30.046,-8.872 -27.581,-10.599 -25.133,-12.31 -10.202,-5.591 0,0 m 0,-46.005 c -10.202,5.589 -25.133,12.309 -27.581,10.597 -2.465,-1.725 19.37,-17.027 22.6,-18.804 0.197,-0.107 0.381,-0.205 0.558,-0.299 2.03,-0.591 4.282,0.186 5.485,2.053 1.36,2.125 0.869,4.909 -1.062,6.453 m 8.988,28.032 c -0.201,0.01 -0.412,0.012 -0.632,0.012 -3.686,-0.007 -30.191,-2.914 -28.861,-5.615 1.325,-2.673 17.646,-3.97 29.278,-3.975 2.438,0.423 4.204,2.626 4.036,5.145 -0.157,2.211 -1.761,3.978 -3.821,4.433"
         style="fill:#0055b5;fill-opacity:1;fill-rule:nonzero;stroke:none"
         id="path149"
         inkscape:connector-curvature="0" />
    </g>
    <g
       id="g151"
       transform="matrix(0.35277777,0,0,-0.35277777,7.7169746,289.34225)">
      <path
         d="m 0,0 c -3.036,-8.572 -5.846,-12.586 -12.302,-12.586 -0.624,0 -2.796,0.128 -2.936,0.141 -2.083,0.107 -4.028,-1.248 -4.589,-3.342 -0.644,-2.379 0.753,-4.83 3.119,-5.508 1.711,-0.301 3.468,-0.412 5.044,-0.412 11.9,0 15.834,6.851 19.763,16.853 l 23.216,57.915 c 0.837,2.624 -0.621,5.429 -3.229,6.264 -2.563,0.815 -5.277,-0.54 -6.195,-3.03 L 5.578,13.18 H 5.322 l -17.16,43.439 c -1.161,2.455 -4.033,3.653 -6.624,2.682 -2.658,-0.997 -4.023,-3.905 -3.15,-6.579 z"
         style="fill:#0055b5;fill-opacity:1;fill-rule:nonzero;stroke:none"
         id="path153"
         inkscape:connector-curvature="0" />
    </g>
  </g>
</svg>
