<svg height="28.696722mm" viewBox="0 0 33.82262 28.696722" width="33.82262mm" xmlns="http://www.w3.org/2000/svg"><g fill="#0055b5"><path d="m0 0c1.931 1.544 2.422 4.328 1.062 6.451-1.203 1.868-3.455 2.641-5.485 2.052-.177-.091-.361-.19-.558-.296-3.23-1.78-25.065-17.079-22.6-18.806 2.448-1.711 17.379 5.008 27.581 10.599m0-46.005c-10.202 5.589-25.133 12.309-27.581 10.597-2.465-1.725 19.37-17.027 22.6-18.804.197-.107.381-.205.558-.299 2.03-.591 4.282.186 5.485 2.053 1.36 2.125.869 4.909-1.062 6.453m8.988 28.032c-.201.01-.412.012-.632.012-3.686-.007-30.191-2.914-28.861-5.615 1.325-2.673 17.646-3.97 29.278-3.975 2.438.423 4.204 2.626 4.036 5.145-.157 2.211-1.761 3.978-3.821 4.433" transform="matrix(.35277777 0 0 -.35277777 29.29999 6.58889)"/><path d="m0 0c-3.036-8.572-5.846-12.586-12.302-12.586-.624 0-2.796.128-2.936.141-2.083.107-4.028-1.248-4.589-3.342-.644-2.379.753-4.83 3.119-5.508 1.711-.301 3.468-.412 5.044-.412 11.9 0 15.834 6.851 19.763 16.853l23.216 57.915c.837 2.624-.621 5.429-3.229 6.264-2.563.815-5.277-.54-6.195-3.03l-16.313-43.115h-.256l-17.16 43.439c-1.161 2.455-4.033 3.653-6.624 2.682-2.658-.997-4.023-3.905-3.15-6.579z" transform="matrix(.35277777 0 0 -.35277777 7.716975 21.03898)"/></g></svg>