<svg height="113.38667" viewBox="0 0 161.98 113.38667" width="161.98" xmlns="http://www.w3.org/2000/svg"><path d="m0 0c-1.397 5.227-5.514 9.343-10.741 10.74-9.474 2.539-47.463 2.539-47.463 2.539s-37.989 0-47.463-2.539c-5.227-1.397-9.344-5.513-10.741-10.74-2.538-9.474-2.538-29.241-2.538-29.241s0-19.767 2.538-29.24c1.397-5.227 5.514-9.344 10.741-10.741 9.474-2.539 47.463-2.539 47.463-2.539s37.989 0 47.463 2.539c5.227 1.397 9.344 5.514 10.741 10.741 2.539 9.473 2.539 29.24 2.539 29.24s0 19.767-2.539 29.241" fill="#f00" transform="matrix(1.3333333 0 0 -1.3333333 158.5946627018 17.7053370587)"/><path d="m0 0 31.562 18.223-31.562 18.223z" fill="#fff" transform="matrix(1.3333333 0 0 -1.3333333 64.79119838022 80.99053547657)"/></svg>