<svg viewBox="0 0 512 512" xmlns="http://www.w3.org/2000/svg">
<rect fill="#f90" height="512" rx="15%" width="512"/>
<path d="m293 184-32 3c-18 2-35 5-49 12a72 72 0 0 0 -46 70c0 44 28 66 64 66 12 0 22-1 31-4 14-4 26-12 40-27 8 11 10 16 24 28 4 2 8 2 11-1l33-28c3-3 2-7 0-11-8-10-16-19-16-40v-67c0-28 2-54-19-73-17-16-44-22-64-22h-9c-38 2-79 18-88 65-1 6 3 9 6 9l42 6c5-1 7-5 8-9 3-16 17-24 32-26h3c8 0 18 4 23 12 6 8 6 20 6 31zm0 43c0 17 0 31-9 46-5 10-14 17-23 19l-6 1c-17 0-26-13-26-32 0-23 14-35 32-40 9-2 20-3 32-3zm137 177c18-15 26-43 26-58v-2l-2-7c-3-4-30-8-53-2-6 2-12 5-17 9-4 3-4 6 0 6l17-2c14-1 31-2 35 4 5 6-7 36-12 49-2 5 2 6 6 3zm-372-58a291 291 0 0 0 360 26c7-5 0-13-7-10l-10 4a390 390 0 0 1 -339-26c-5-3-8 3-4 6z" fill="#fff"/>
</svg>
