<svg xmlns="http://www.w3.org/2000/svg" version="1.1" viewBox="0 0 512 512">
<rect height="100%" width="100%" rx="15%" ry="15%" style="fill:#171515;" />
<path d="M112 239c-1 0 7 16 7 16 17 30 49 48 102 53-8 6-17 17-18 30-10 6-29 8-44 3-21-7-29-48-61-42-7 1-6 6 0 10 10 6 19 14 26 30 5 13 17 35 53 35 14 0 24-2 24-2 0 0 0 32 0 45 0 14-20 18-20 25 0 3 7 3 12 3 10 0 32-9 32-23 0-12 0-52 1-59 0-15 8-20 8-20 0 0 1 82-2 92-4 13-10 11-10 17 0 9 26 2 35-17 7-15 4-95 3-94l7 0c0 0 0 37 1 53 0 17-1 39 9 50 7 7 29 19 29 8 0-6-12-12-12-29v-79c10 0 8 26 8 26l1 48c0 0-2 18 19 25 8 3 24 3 25-1 1-4-20-11-20-25 0-8 0-13 0-49 0-36-5-49-22-60 53-5 86-18 102-53 1 0 7-16 6-16 4-13 6-28 6-46 0-50-24-67-29-76 7-38-1-55-5-60-14-5-48 12-66 24-30-9-94-8-118 2-44-31-67-26-67-26 0 0-15 27-4 66-15 18-25 31-26 65 0 19 2 36 8 51z" style="fill:#ffffff"/>
</svg>
