<svg xmlns="http://www.w3.org/2000/svg" version="1.1" viewBox="0 0 512 512">
<rect height="100%" width="100%" rx="15%" ry="15%" fill="#d0422a"/>
<g fill="#fff">
<path d="M267 284l-19-14c-6-5-14-11-14-23 0-11 8-18 15-25 22-17 44-36 44-74 0-40-25-61-37-71h32l34-21H219c-28 0-68 7-98 31a94 94 0 0 0-33 70c0 41 31 82 86 82l17-1c-3 6-6 11-6 20 0 16 9 26 16 36-23 1-67 4-99 24a75 75 0 0 0-40 63c0 39 36 75 111 75 90 0 137-50 137-99 0-36-20-53-43-73zm-69-60c-44 0-65-58-65-92 0-14 3-28 12-39 8-11 23-17 36-17 43 0 66 58 66 96 0 9-1 26-13 38-9 8-23 14-36 14zm1 210c-56 0-92-27-92-64s34-49 45-53c22-8 50-9 55-9l12 1c39 28 57 42 57 69 0 32-27 56-77 56zM398 302v-52h52v-26h-52v-53h-26v53h-52v26h52v52z"/>
</g>
</svg>
