<?xml version="1.0" encoding="UTF-8"?>
<svg aria-label="HERE" version="1.1" viewBox="0 0 90 82" xmlns="http://www.w3.org/2000/svg">
<path d="m26.95 66.453-11 11-11-11h22z" fill="#65c1c2"/>
<path d="m43.05 41.453c-2.3-2.7-2.2-4.2-0.8-5.6 1.7-1.7 3.5-1 5.5 0.9l-4.7 4.7zm23.6-30c1.7-1.7 3.5-1 5.5 0.9l-4.7 4.7c-2.4-2.7-2.3-4.1-0.8-5.6zm14.2 4.8c-2.1 3.2-5.9 8.4-9.8 4.5l9.9-9.9c-0.9-0.9-1.5-1.7-2.1-2.2-5.3-5.3-11.3-5.4-16-0.7-3.1 3.1-4 6.7-3.1 10.1l-3.1-3.5c-0.8 0.4-4.6 3.8-1.8 8.8l-3.5-2.9-4.7 4.7 6.4 6.4c-4.9-3.9-10.2-3.5-14.4 0.7-4.5 4.5-4.2 10-0.8 14.5l-0.7-0.7c-4.5-4.5-9.4-2.9-11.8-0.5-1.9 1.9-3 4.4-2.5 6.2l-9.7-9.7-5.2 5.2 19.2 19.2h10.3l-6.9-6.9c-3.6-3.7-3.7-5.6-1.9-7.4 1.7-1.7 3.7-0.6 7.2 2.8l6.8 6.8 5.1-5.1-6.5-6.5c4.7 3.5 10.3 3.7 15.3-1.3l0.1-0.1c3.1-2.8 4-5.6 4-5.6l-3.9-2.6c-2.1 3.2-5.8 8.4-9.7 4.5l9.9-9.9 6.2 6.2 5.4-5.4-7.7-7.7c-3.6-3.6-1.5-7 0-8.3 0.7 1.5 1.7 2.9 3 4.2 5 5 11.4 6 17.1 0.4l0.1-0.1c3.1-2.8 4-5.6 4-5.6l-4.2-2.6z" fill="#393e47"/>
</svg>
