<svg viewBox="0 0 512 512" xmlns="http://www.w3.org/2000/svg">
<rect height="512" rx="15%" width="512"/>
<path fill="#fff" d="m256 152c-52-1-100 43-103 95a103 103 0 0 0 200 43 104 104 0 0 0 -97-138zm0 169c-40 2-74-40-65-79 7-40 54-65 91-48 36 14 52 63 31 95a66 66 0 0 1 -57 32zm131-171c1 20-27 31-41 16-14-14-3-41 17-40 13 0 24 11 24 24z"/>
<path fill="#fff" d="m424 89c-25-27-64-35-100-33-54 0-109-1-164 1-43 2-85 31-98 73-10 32-5 66-6 98 0 42-1 84 1 126 3 46 37 87 81 98 30 7 62 3 92 4 42 0 83 1 124-1 44-3 85-33 96-76 9-32 5-64 6-97 0-41 1-83-1-125-2-25-13-50-31-68zm-3 250c1 35-23 70-57 77-28 5-56 2-83 3-40-1-80 1-120-1-32-2-61-26-66-58-4-28-1-57-2-86 1-38-1-76 1-114 2-32 26-60 58-65 29-4 59-1 88-2 38 0 76-1 113 1 33 2 62 29 66 62 3 30 1 61 2 92z"/>
</svg>
