<svg role="img" aria-label="Kickstarter" viewBox="0 0 512 512" xmlns="http://www.w3.org/2000/svg">
<rect fill="#fff" height="512" rx="15%" width="512"/>
<defs>
<clipPath id="a">
<path d="M1226.4 862.8l154 153a405.2 405.2 0 0 1 0 575 411.8 411.8 0 0 1-578.9 0l-56-55.7A409 409 0 0 1 409 1710c-225.8 0-409-182-409-406.3v-881C0 198.5 183.2 16.6 409 16.6a409 409 0 0 1 336.5 174.9l56-55.7a411.8 411.8 0 0 1 578.9 0 405.2 405.2 0 0 1 0 575z"/>
</clipPath>
<clipPath id="b">
<path d="M0 0h1500v1710H0z"/>
</clipPath>
</defs>
<g clip-path="url(#a)" transform="matrix(.25981 0 0 -.25981 61 480.3)">
<g clip-path="url(#b)">
<path d="M0 0h1650v1860H0z" fill="#034752"/>
</g>
</g>
</svg>
