<svg xmlns="http://www.w3.org/2000/svg" version="1.1" viewBox="0 0 512 512">
<rect height="100%" width="100%" rx="15%" ry="15%" fill="#fff"/>
<g fill="#134563">
<path d="M370.4 229.6h-24v-51.2A90.8 90.8 0 0 0 256 88a90.8 90.8 0 0 0-90.4 90.4v51.2h-24v-51.2a114.4 114.4 0 1 1 228.8 0v51.2"/>
<path d="M358.4 447.2H153.6a39 39 0 0 1-38.4-38.4V255.2a39 39 0 0 1 38.4-38.4h204.8a39 39 0 0 1 38.4 38.4v153.6a38.4 38.4 0 0 1-38.4 38.4zM153.6 242.4c-7.2 0-12.8 5.6-12.8 12.8v153.6c0 7.2 5.6 12.8 12.8 12.8h204.8c7.2 0 12.8-5.6 12.8-12.8V255.2c0-7.2-5.6-12.8-12.8-12.8H153.6z"/>
<path d="M281.6 293.6a25.3 25.3 0 0 1-25.6 25.6 25.3 25.3 0 0 1-25.6-25.6A25.3 25.3 0 0 1 256 268c14.4 0 25.6 12 25.6 25.6"/>
<path d="M262.4 293.6h-12.8l-12.8 76.8h38.4l-12.8-76.8"/>
</g>
</svg>
