<svg viewBox="0 0 512 512" xmlns="http://www.w3.org/2000/svg">
<rect fill="#168de2" height="512" rx="15%" width="512"/>
<path d="m325 254c-2-44-35-71-75-71h-1c-46 0-71 36-71 77 0 46 30 75 71 75 45 0 74-33 76-72zm-76-110c31 0 59 13 80 34v1c0-11 7-18 17-18h2c15 0 18 14 18 18v158c-1 10 11 16 17 9 26-26 56-134-15-196-67-59-156-49-204-16-50 35-83 112-51 184 34 79 132 103 190 79 30-12 43 28 13 41-47 20-176 18-236-86-40-71-38-194 70-259 82-49 191-35 256 33 69 72 65 206-2 258-30 24-75 1-75-34v-11c-21 21-49 33-80 33-60 0-113-53-113-113 0-61 53-115 113-115" fill="#fff"/>
</svg>
