<svg viewBox="0 0 512 512" xmlns="http://www.w3.org/2000/svg">
<rect fill="#f00" height="512" rx="15%" width="512"/>
<path d="m58 438c-16-49 67-105 116-119 19-35 37-74 49-107-27-43-32-96-23-125 8-25 34.1-43 56-22 13 12 16 39 13 79-1 16-6 38-16 64l70 86c41-4 109 1 129 35 6 10 5 21 0 30-12 20-35 22-57 19-24-3-51-23-83-57-41 3-81 9-120 20-16 30-50 88-77 105-18 11-48 19-57-8zm94-81c-29 13-58 41-67 59-10 22 10 13 16 8 19-15 42-51 51-66zm197-37c20 19 37 29 51 32 21 4 45-7 13-20-13-5-33-10-64-12zm-107-83c-9 23-20 48-33 72 24-6 58-13 81-13-16-19-32-39-48-59zm-16-142c-7 20-4 53 9 83 8-23 13-76 1-94-3-5-10 9-10 11z" fill="#fff"/>
</svg>
