<svg viewBox="0 0 512 512" xmlns="http://www.w3.org/2000/svg">
<rect fill="#fff" height="512" rx="15%" width="512"/>
<path d="m86 456c-13 0-23-7-28-18-7-18 4-43 30-69 21-20 50-37 86-50 19-35 37-74 49-107-27-43-32-96-23-125 7-19 17-26 25-29 11-4 23-1 31 7 12 13 16 39 13 79-1 16-6 38-16 64l1 2 20 25 49 59 15-1c60 0 100 13 114 36 5 10 5 21 0 30-7 13-23 20-42 20l-15-1c-24-4-51-23-83-57a613 613 0 0 0 -120 20c-16 29-51 88-77 105-9 7-19 10-29 10zm66-99c-18 9-33 19-45 31-24 23-25 37-24 40l3 1c4 0 10-2 15-5 11-8 31-33 51-67zm197-37c20 19 37 29 51 32l10 1c10 0 17-4 19-7v-4c-5-7-27-20-80-22zm-107-83c-9 23-20 48-33 72 31-8 58-11 74-13h7a1722 1722 0 0 1 -48-59zm-7-154h-1c-3 1-6 6-8 12-7 20-4 53 9 83 4-14 7-26 7-36 4-44-4-56-6-58z" fill="#f00"/>
</svg>
