<svg viewBox="0 0 512 512" xmlns="http://www.w3.org/2000/svg">
<rect fill="#0f0" height="512" rx="15%" width="512"/>
<g fill="#fff">
<path d="m425 347c-12-10-26-19-39-27-27-18-50-19-69 8-11 16-27 18-43 11-45-21-79-50-98-95-9-19-9-37 12-50 10-7 22-16 21-32-2-21-52-91-73-98-9-3-16-3-25 0-48 16-67 54-49 99a526 526 0 0 0 292 289l20 6c31 0 67-29 79-58 10-28-12-40-28-53zm-153-270c99 15 145 62 157 161 2 9-3 23 12 23 13 0 10-13 10-22 2-93-81-179-176-182-7 1-22-5-24 10 0 10 12 9 21 10z"/>
<path d="m291 105c-8-2-22-6-25 7s12 12 21 15c62 13 83 35 93 95 2 8-1 22 14 20 11-1 7-13 8-20 0-59-50-111-111-117z"/>
<path d="m297 152c-6 0-13 1-16 7-3 10 4 13 12 15 25 4 38 19 41 42 0 7 5 12 12 12 9-2 11-9 9-16 0-28-31-60-58-60z"/>
</g>
</svg>
