<svg viewBox="0 0 512 512" xmlns="http://www.w3.org/2000/svg">
<rect fill="#ff4500" height="512" rx="15%" width="512"/>
<path d="m456 252a44 44 0 0 0 -44-45c-12 0-22 4-30 12a216 216 0 0 0 -111-36l19-66 60 12c2 21 19 36 40 36 22 0 40-18 40-40a40 40 0 0 0 -40-40h-1a40 40 0 0 0 -35 22l-80-16-27 91h-2c-45 2-85 16-115 37a43 43 0 0 0 -30-12c-24 0-44 20-44 45 0 17 10 32 24 40l-1 13c0 67 79 122 177 122s177-55 177-122l-1-14a45 45 0 0 0 24-39zm-369 18c-6-5-10-11-10-19 0-12 10-22 22-22 5 0 10 1 13 4a88 88 0 0 0 -25 36zm288-145c0-8 6-15 15-15 8 0 14 7 14 15s-6 15-15 15c-8 0-14-7-14-15zm-206 160a28 28 0 1 1 57 0 28 28 0 0 1 -57 0zm87 99a102 102 0 0 1 -69-26l11-11c1 0 22 21 58 22 36-1 57-22 57-22l12 11c-1 1-27 26-69 26zm59-71a28 28 0 1 1 0-56 28 28 0 0 1  0 56zm110-43a89 89 0 0 0 -25-37c3-3 8-5 13-5a23 23 0 0 1 22 23c0 8-3 15-9 19z" fill="#fff"/>
</svg>
