<svg version="1.1" viewBox="0 0 512 512">
<rect ry="15%" rx="15%" width="100%" height="100%" fill="#006492"/>
<path d="M442 298c2-13 4-26 4-40A188 188 0 0 0 226 73 109 109 0 0 0 74 220a188 188 0 0 0 219 223 109 109 0 0 0 160-96c0-17-4-34-11-49zm-88 50c-8 12-21 22-38 29-16 7-36 10-59 10-27 0-49-4-67-14-13-7-23-16-31-27-8-12-12-23-12-34 0-7 3-13 8-18s12-7 19-7 12 2 17 5c4 4 8 10 11 17l11 19c4 5 9 9 16 12 6 3 16 5 27 5 16 0 28-4 38-10 9-6 14-14 14-24 0-7-3-13-8-17-5-5-11-9-20-11l-34-9c-20-4-36-9-49-15-14-6-25-13-33-23-8-11-12-23-12-38 0-14 4-27 13-38 8-11 21-20 36-26 16-5 35-8 56-8 16 0 31 2 44 6 12 3 22 9 31 15 8 6 14 13 18 21 4 7 6 14 6 21s-3 13-8 18c-5 6-12 8-19 8s-13-1-16-5c-4-3-8-8-12-15-4-9-10-16-17-21-6-4-16-7-31-7-13 0-24 3-33 8-7 5-11 11-11 18 0 5 1 8 4 11 2 3 6 6 11 9l15 6 26 6 41 11c13 4 24 9 33 15 9 5 16 13 21 22s7 20 7 33c0 16-4 30-13 42z" fill="#fff"/>
</svg>
