<svg xmlns="http://www.w3.org/2000/svg" version="1.1" viewBox="0 0 512 512">
<rect height="100%" width="100%" rx="15%" ry="15%" fill="#0077b5"/>
<g fill="#fff">
<path d="M450 274c-15 29-47 38-79 55v63c0 9-11 61-55 61s-58-26-58-36v-59l-13-4v63c0 10-16 25-38 25-21 0-63-30-63-50v-69s-57-22-71-39c-13-16-20-23-16-32 4-10 47 26 72 32s69 9 88 9c18-1 29 6 39 16l2 2v-8c0-9 24-12 38-12h63c7 0 65-19 78-34 14-15 27-11 13 17zm-133-4a44 44 0 1 0 0-88 44 44 0 0 0 0 88zm-117 0a44 44 0 1 0 0-88 44 44 0 0 0 0 88z"/>
<path d="M123 59c-28 0-50 23-50 50v167h24V109c0-14 11-26 26-26h266c15 0 26 12 26 26v169h24V109c0-27-22-50-50-50z" color="#000"/>
</g>
</svg>
