<svg viewBox="0 0 512 512" xmlns="http://www.w3.org/2000/svg">
<rect fill="#fffc00" height="512" rx="15%" width="512"/>
<path d="m254 68c-24 0-49 6-68 22a112 112 0 0 0 -34 44c-7 18-6 36-5 54 0 12 2 24 0 35v1a48 48 0 0 1 -17 0l-13-4c-5-1-10 0-13 3h-1c-3 2-7 5-7 11v1l5 7 4 3v1c9 6 19 8 27 11h1c5 3 10 7 12 12 1 7-2 14-5 21-10 19-24 36-41 48a99 99 0 0 1 -31 14c-2 1-7 1-11 6v1c-1 4 0 7 2 9l4 4c9 5 19 7 28 9l18 5 2 5 4 17c0 1 2 3 4 3h7c15-3 30-5 44-2 14 4 27 14 41 23 10 6 21 12 33 12a223 223 0 0 0 29-1c7 0 15-3 22-7 15-9 28-19 43-26l17-2a221 221 0 0 1 37 2l4-2 2-3v-1-1c2-7 4-14 7-18l8-2c11-1 20-5 29-8 4-2 9-3 12-8 3-4 2-10-2-12h-1c-5-4-10-4-13-5a122 122 0 0 1 -70-70c-1-5-1-10 1-13v-1c4-5 11-8 18-11a69 69 0 0 0 24-13l4-4a10 10 0 0 0 0-8 20 20 0 0 0 -8-9c-5-2-10-2-15-1l-13 4h-15v-4l1-27c0-15 1-30-1-45-5-25-21-47-42-61-14-11-32-17-50-19z" fill="#fff"/>
</svg>
