<svg viewBox="0 0 512 512" xmlns="http://www.w3.org/2000/svg">
<rect fill="#f50" height="100%" rx="15%" width="100%"/>
<path d="m56 296.1a44 44 0 0 0 15.9 33.9v-67.5a44 44 0 0 0 -15.9 33.5m32.6-42.6v85.2c4 1.1 8.2 1.7 12.5 1.7h4.3v-88.3a50.2 50.2 0 0 0 -16.8 1.5m37 5.5a40 40 0 0 0 -3.4-2v83.4h16.7v-111.6a68.9 68.9 0 0 0 -13.2 30.2m30-45.9v127.3h16.8v-135.6c-6 2-11.6 4.9-16.8 8.3m33.6-11.7v139h16.7v-138.4a71.8 71.8 0 0 0 -16.7-.5m42.8 9.8a71.6 71.6 0 0 0 -17.7-7.5v136.7h25.2v-139.4a86 86 0 0 0 -7.5 10m15.9-18.4v147.7h159.3v-.1c33.6-2.2 48.7-23 48.7-48.4a47.4 47.4 0 0 0 -66.4-44.5 84.9 84.9 0 0 0 -85-75.8c-21.8 0-41.6 8-56.6 21" fill="#fff"/>
</svg>
