<svg xmlns="http://www.w3.org/2000/svg" version="1.1" viewBox="0 0 512 512">
<rect height="100%" width="100%" rx="15%" ry="15%" fill="#80b819"/>
<path d="M127 408a170 170 0 0 1 271-11A199 199 0 0 0 256 56a200 200 0 0 0-129 352zm236-92c-3 6-8 8-14 5a208 208 0 0 0-177 1c-3 1-10 2-13-6-3-9 2-13 5-15a230 230 0 0 1 193 0c5 2 9 9 6 15zm17-51c-2 3-5 5-9 5l-3-1a263 263 0 0 0-216 1c-4 0-8-2-10-5l-2-7c0-3 2-6 4-8a285 285 0 0 1 234 0c3 2 4 5 4 8l-2 7zm-250-81a351 351 0 0 1 262 0 17 17 0 0 1-12 31 318 318 0 0 0-238 0h-4a17 17 0 0 1-8-31zm137 217c-34 0-64 16-83 41a199 199 0 0 0 160-7c-19-21-47-34-77-34z" fill="#fff"/>
</svg>
