<svg viewBox="0 0 512 512" xmlns="http://www.w3.org/2000/svg">
<rect fill="#2b2e34" height="512" rx="15%" width="512"/>
<path d="m426 205a37 37 0 1 1 -74 0 37 37 0 0 1  74 0zm-15 62-45 39 1 9a59 59 0 0 1 -117 13l-110-38a52 52 0 1 1 19-53l107 37c10-11 25-18 41-18l16-48v-3a67 67 0 1 1 88 62zm-270-36a37 37 0 0 0 -69 18 36 36 0 0 0  48 35l-18-6c-14-8-19-25-11-39 7-14 25-19 38-12zm196-26a52 52 0 1 0 104 0 52 52 0 0 0 -104 0zm1 115a39 39 0 0 0 -48-38l22 7c14 8 19 25 12 39-8 14-25 19-39 12l-24-8a39 39 0 0 0 77-12z" fill="#fff" fill-rule="evenodd"/>
</svg>
