<svg viewBox="0 0 512 512" xmlns="http://www.w3.org/2000/svg" fill="#000">
<rect height="512" rx="15%" width="512" fill="#fff"/>
<path d="m473.8 16v14.8h14.8v-14.8zm0 29.5v14.8h14.8v-14.8zm-44.3 14.8v14.8h14.8v-14.8z" fill="#fdb511"/>
<circle cx="236" cy="280" r="210" fill="#fdb511"/>
<circle cx="236" cy="280" r="140" fill="#fff"/>
<path d="m296.6 178.5c-38.6 48.2-48.3 69.3-63.6 108.3-17.4-35.2-38.2-59.6-74.2-75.7-6.8-1.7-10.2-2.8-14.8 3.7-4.6 6.4-1.8 12.2 3.7 19.1 14.4 17.9 30.6 34.5 41.8 54.8 13.2 23.8 29.6 63 35.1 73.2 4.4 8.1 15 11.7 19.1 11.7 21.8-2.6 21.8-13.7 25.9-32.9 6.7-31.5 15.5-64 56.5-103.1v-59.1z"/>
<path d="m459.1 30.8v14.8h14.8v-14.8zm0 14.8h-29.5v14.8h29.5zm-29.5 14.8h-14.8v29.4h14.8zm0 29.5v14.8h14.8v-14.9zm14.8 0h14.8v-14.8h-14.8zm-14.8 14.8h-14.8v14.8h-14.8v-14.8h-29.5v14.8h-14.8v14.8h14.8v14.8h-14.8v-14.8h-14.8v14.8h-14.8v14.8h-14.8v59.1h29.5v-15h14.8v-14.8h14.8v-14.8h-14.8v-14.8h14.8v14.8h14.8v-14.8h14.8v-14.8h14.8v-14.8h14.8zm-29.5 0h14.7v-14.9h-14.8zm0-14.8v-14.8h-14.9v14.7z"/>
</svg>