<svg viewBox="0 0 512 512" xmlns="http://www.w3.org/2000/svg" fill="#fff">
<rect fill="#414141" height="512" rx="15%" width="512"/>
<path d="m355 210v-56c-1-8-1-15-3-22a99 99 0 0 0 -196 23v55h-46c-10 0-18 8-18 18v210c0 10 8 18 18 18h292c10 0 19-8 19-18v-210c0-10-9-18-19-18zm-72 196h-54c-9 0-16-7-16-16v-1-7c0-4 2-16 8-24 6-9 14-15 23-18a32 32 0 1 1 23 1 46 46 0 0 1  32 41v8c0 9-7 16-16 16m36-228c-6 17-17 30-28 44-9 10-19 18-30 26l-3 2c7-11 12-22 14-35-16 4-31 2-45-4a62 62 0 0 1 -3-112c31-17 72-6 90 24 11 17 11 36 5 55"/>
</svg>
