<svg xmlns="http://www.w3.org/2000/svg" viewBox="0 0 512 512">
<rect fill="#3e3f60" height="512" rx="15%" width="512"/>
<path d="M357.757 423.475c-12.703 13.567-42.142 22.777-68.506 23.211h-2.893c-88.582 0-107.817-65.114-107.817-103.121v-105.6h-34.89a7.315 7.315 0 0 1-7.316-7.316v-49.865a12.424 12.424 0 0 1 8.276-11.702c45.467-16.016 59.726-55.694 61.836-85.855.572-8.059 4.788-11.965 11.783-11.965h52.02a7.315 7.315 0 0 1 7.316 7.316v84.452h60.875a7.317 7.317 0 0 1 7.322 7.293v59.926a7.317 7.317 0 0 1-7.322 7.31h-61.156v97.661c0 24.52 16.16 31.287 26.14 31.287 9.574-.229 19-3.146 23.725-5.045 3.506-1.407 6.59-2.34 9.346-1.647 2.569.64 4.256 2.46 5.395 5.778l16.134 47.13c1.312 3.775 2.437 7.865-.268 10.752z" fill="#fff"/>
</svg>