<svg viewBox="0 0 512 512" xmlns="http://www.w3.org/2000/svg" fill="#fff">
<rect width="512" height="512" rx="15%" fill="#E95420"/>
<circle cx="256" cy="256" r="170"/>
<circle cx="256" cy="256" r="100" fill="#E95420"/>
<circle cx="60" cy="256" r="60" fill="#E95420"/>
<circle cx="60" cy="256" r="45"/>
<circle cx="60" cy="256" r="60" transform="rotate(120 256 256)" fill="#E95420"/>
<circle cx="60" cy="256" r="45" transform="rotate(120 256 256)"/>
<circle cx="60" cy="256" r="60" transform="rotate(240 256 256)" fill="#E95420"/>
<circle cx="60" cy="256" r="45" transform="rotate(240 256 256)"/>
<rect x="245" y="80" height="80" width="22" transform="rotate(90 256 256)" fill="#E95420"/>
<rect x="245" y="80" height="80" width="22" transform="rotate(210 256 256)" fill="#E95420"/>
<rect x="245" y="80" height="80" width="22" transform="rotate(330 256 256)" fill="#E95420"/>
</svg>
