<svg viewBox="0 0 512 512" xmlns="http://www.w3.org/2000/svg">
<rect fill="#4c75a3" height="512" rx="15%" width="512"/>
<path d="m251.7 369.1h23.7c6.2-.7 14.1-3.3 14.6-15.2 0 0-.6-32.3 14-37.1 14.6-4.3 33.5 31 53.6 45 15.2 10.3 26.8 7.9 26.8 7.9l53.6-.6s27.4-1.8 14.6-23.7c-1.2-1.8-7.9-16.4-40.2-45.7-33.5-31-28.6-26.2 11.6-79.7 24.3-32.9 34.7-53 31-61.5-4.3-7-20.7-6.1-20.7-6.1l-60.3.6c-6.5 0-9.9.9-12.8 7.3 0 0-9.7 25.6-22.5 46.9-26.8 45.7-37.1 48.1-42 45-9.7-6.1-7.3-26.2-7.3-40.2 0-44.4 6.7-62.7-12.8-67.6-6.7-1.2-11.6-2.4-28.6-2.4-21.3 0-39.6 0-49.9 4.9-6.7 3.7-11.6 11-8.5 11.6 3.7.6 12.8 2.4 17.7 8.5 6.1 8.5 6.1 27.4 6.1 27.4s3.7 51.7-8.5 58.4c-7.9 4.3-18.9-4.9-43.2-45.7-12.2-21.3-21.3-45-21.3-45-2.8-6.6-7-8.8-14-10.3l-57.2.6c-6.8.4-16.2 1.2-12.2 14 0 0 45 104.7 95.6 157.7 46.3 48.1 99.2 45 99.2 45" fill="#fff"/>
</svg>
