<svg viewBox="0 0 512 512" xmlns="http://www.w3.org/2000/svg">
<rect fill="#4c75a3" height="100%" rx="15%" width="100%"/>
<path  d="m 251.71789,369.14192 h 23.74073 c 0,0 7.30484,-0.60873 10.95726,-4.86989 3.65242,-3.65242 3.65242,-10.34854 3.65242,-10.34854 0,0 -0.60873,-32.26306 14.00095,-37.13295 14.60968,-4.26117 33.48052,31.04559 53.56884,45.04654 15.21842,10.34853 26.78442,7.91358 26.78442,7.91358 l 53.56884,-0.60874 c 0,0 27.39316,-1.82621 14.60968,-23.74074 -1.21747,-1.82621 -7.91358,-16.4359 -40.17663,-45.65528 -33.48052,-31.04559 -28.61063,-26.17569 11.566,-79.74456 24.34947,-32.8718 34.69801,-52.96013 31.04559,-61.48244 -2.43496,-8.52233 -20.69706,-6.08738 -20.69706,-6.08738 l -60.26495,0.60874 c 0,0 -4.26115,-0.60874 -7.91358,1.21747 -3.04368,1.82622 -4.86989,6.08738 -4.86989,6.08738 0,0 -9.73979,25.56696 -22.52326,46.87275 -26.78442,45.65528 -37.13295,48.09023 -42.00284,45.04655 -9.73979,-6.08737 -7.30484,-26.17569 -7.30484,-40.17665 0,-44.43781 6.6961,-62.69992 -12.78348,-67.56982 -6.6961,-1.21747 -11.56599,-2.43494 -28.61063,-2.43494 -21.30578,0 -39.56789,0 -49.91641,4.86989 -6.69611,3.65242 -11.566,10.95727 -8.52232,11.56601 3.65242,0.60874 12.78347,2.43495 17.65337,8.52231 6.08737,8.52232 6.08737,27.39317 6.08737,27.39317 0,0 3.65242,51.74266 -8.52232,58.43876 -7.91358,4.26116 -18.87084,-4.86989 -43.22031,-45.65528 -12.17474,-21.30579 -21.30579,-45.04654 -21.30579,-45.04654 0,0 -1.82621,-4.26116 -4.86989,-6.6961 -3.65243,-2.43496 -9.13106,-3.65244 -9.13106,-3.65244 l -57.221257,0.60874 c 0,0 -8.52231,0 -11.566,3.65243 -3.04368,3.65242 -0.60873,10.34853 -0.60873,10.34853 0,0 45.046517,104.70278 95.571677,157.6629 46.26399,48.09023 99.2241,45.04654 99.2241,45.04654" fill="#fff"/>
</svg>
