<svg viewBox="0 0 512 512" xmlns="http://www.w3.org/2000/svg">
<rect fill="#282828" height="512" rx="15%" width="512"/>
<path d="m456 117h-83l-6 1v8l4 2 3 1h8c8 1 11 3 14 6s4 9 1 16l-73 191-2-1-47-104 1-3 38-78 11-19c4-6 6-7 17-8 2 0 3-1 3-3v-8l-1-1h-66v11l2 1h3c9 1 13 3 14 5 2 3 3 5-2 17l-29 64-27-59c-8-19-11-25 2-26l4-1c3 0 2-1 2-3v-9h-71v9c0 2 2 3 5 3 13 2 12 3 24 30l8 16 27 59 8 20-40 87h-2s-62-144-80-192l-3-11c0-5 4-8 12-8l12-1c3 0 7-1 7-3v-8l-4-1h-91l-3 1v8c0 2 2 3 5 3 10 1 16 2 19 5s6 10 11 21c22 60 70 166 94 227 6 16 15 19 25-1 11-21 32-69 48-104l44 104c7 17 16 19 25 1l90-226c3-8 7-15 12-19 5-5 13-7 24-8 2 0 3-1 3-3z" fill="#fff"/>
</svg>
