<svg xmlns="http://www.w3.org/2000/svg" version="1.1" viewBox="0 0 512 512">
<rect height="100%" width="100%" rx="15%" ry="15%" fill="#fff"/>
<path d="M432.48 297.45c0 55.15-44.37 100.02-99.51 100.02a100.1 100.1 0 0 1-59.55-19.67 122.7 122.7 0 0 0 29.64-80.35l.04-159.16a47.13 47.13 0 0 0-47.06-47.07 47.12 47.12 0 0 0-47.06 47.07l-.04 159.15c0 30.69 11.8 58.73 30.38 80.36a100.05 100.05 0 0 1-59.54 19.67c-55.15 0-100.25-44.87-100.25-100.03V103.3H56v194.16C56 365.57 111.9 421 180.03 421a123.5 123.5 0 0 0 76.71-26.7c21.06 16.66 47.22 26.7 76.1 26.7C400.96 421 456 365.57 456 297.45V103.29h-23.53v194.16zM256 361.77a99.57 99.57 0 0 1-23.53-64.32l.04-159.16a23.55 23.55 0 0 1 23.53-23.53 23.56 23.56 0 0 1 23.53 23.53l-.04 159.15A99.52 99.52 0 0 1 256 361.77z"/>
</svg>
