<svg viewBox="0 0 512 512" xmlns="http://www.w3.org/2000/svg">
<rect fill="#21759b" height="512" rx="15%" width="512"/>
<path d="m56 256c-1-110 91-201 201-200 109 1 199 91 199 200a200 200 0 0 1 -400 0zm120 161h1v-1l-2-6-81-222-2-3c-2 0-2 2-3 3a177 177 0 0 0 87 229zm170-54 1-3 27-90c6-21 4-42-6-62l-12-21c-4-8-9-16-11-25-3-19 9-36 28-39l3-1-2-2c-41-34-87-48-140-43a175 175 0 0 0 -126 76l-1 3c1 2 2 1 3 1h11l43-2c5 0 8 3 9 7 0 4-3 7-8 8l-13 1c-6 1-6 1-4 7l61 182 2 4 2-3 36-109 1-6-26-71c-1-3-3-3-5-4l-16-1c-4-1-6-4-6-8 1-4 3-6 7-7h3c20 2 40 3 59 2l34-2c5 0 7 3 8 7 0 4-2 7-7 8l-14 1c-6 1-6 1-4 7l60 180zm-86-90c-3 2-3 4-3 5l-14 39-36 106c-1 4-2 6 3 7 34 9 68 8 101-3 3-1 4-2 3-6l-49-133zm87 137c25-6 67-58 80-98 15-48 11-94-12-140l-1 2c3 23-1 45-9 67l-56 163z" fill="#fff"/>
</svg>
