<svg xmlns="http://www.w3.org/2000/svg" version="1.1" viewBox="0 0 512 512">
<rect height="100%" width="100%" rx="15%" ry="15%" fill="#cd201f"/>
<path d="M371 349h-22v-13c0-6 5-10 11-10h1c6 0 11 4 11 10l-1 13zm-82-28c-6 0-10 4-10 9v62c0 4 4 8 10 8s10-4 10-8v-62c0-5-4-9-10-9zm134-34v118c0 28-25 51-55 51H144c-30 0-55-23-55-51V287c0-29 25-52 55-52h224c30 0 55 23 55 52zM159 417V293h28v-18h-74v18h23v124h23zm83-105h-23v82c-2 5-10 11-14 1v-83h-23v86c1 6 1 13 6 17 11 8 31-1 36-11v13h18V312zm74 76v-56c0-21-16-33-37-16v-41h-23v141h19l2-9c24 23 39 7 39-19zm73-8h-18v12c0 6-4 10-9 10h-3c-6 0-10-4-10-10v-25h40v-15l-1-28c-3-20-31-23-45-13-4 3-8 7-10 13s-3 14-3 23v33c0 55 67 47 59 0zm-89-179l5 8 10 2 9-3 6-8v9h26V99h-21v86a8 8 0 0 1-17 0V99h-21v93l3 9zm-79-62c0-10 1-18 3-24s5-11 10-15c4-3 10-5 17-5 6 0 11 1 15 4 5 2 8 5 10 9 3 3 4 7 5 11l1 18v28l-1 22c-1 5-2 9-5 14-2 4-6 7-10 9s-9 3-14 3c-6 0-11-1-15-3s-7-4-9-8c-3-3-4-7-5-12l-2-21v-30zm21 44c0 6 4 11 10 11s10-5 10-11v-58c0-7-4-12-10-12s-10 5-10 12v58zm-72 30h25v-85l28-72h-26l-16 54-15-54h-27l31 72v85z" fill="#fff"/>
</svg>
