<svg xmlns="http://www.w3.org/2000/svg" xmlns:xlink="http://www.w3.org/1999/xlink"
aria-label="1Password" role="img"
viewBox="0 0 512 512"
fill="#fff" stroke-width="7"><rect
width="512" height="512"/><circle cx="256" cy="256" r="192" fill="#f7f7f7" stroke="#707070"/><path fill="#e5e5e5" d="m147 377a165 165 0 11219-1 155 155 0 10-219 1m297-121a1 1 0 01-376-11 1 .96 0 00376 3"/><path fill="#218ef7" stroke="#1769b8" d="m256 112a144 144 0 101 0zm0 30a114 114 0 11-1 0z"/><circle cx="256" cy="256" r="57"/><circle cx="256" cy="256" r="47" fill="#dedede" stroke="#c7c7c7"/><g stroke="#000"><use stroke="#fff" stroke-width="20" xlink:href="#a"/><path id="a" fill="#0a2d4d" d="m232 186q0-7 4-7h39q5 0 5 7v75q0 4-6 8-7 7 0 14 6 5 6 9v34q0 7-6 7h-36q-6 0-6-7v-74q0-4 6-8 8-8 0-15-6-4-6-8z"/></g></svg>