<svg xmlns="http://www.w3.org/2000/svg"
aria-label="Acast" role="img"
viewBox="0 0 512 512"><rect
width="512" height="512"
rx="15%"
fill="#fff"/><path d="M256 64c98 0 179 73 191 168L295 444A192 192 0 0 1 64 256c0 -106 86 -192 192 -192z"/><path fill="#fff" d="M264 138c-70 0 -109 29 -109 59 0 24 18 39 47 39 27 0 45 -10 45 -24l-1 -7c-1 -1 -1 -4 -1 -7 0 -3 1 -14 18 -14 19 0 19 16 19 24v42h-4c-93 2 -141 25 -141 68 0 35 31 58 79 58 28 0 56 -14 68 -33L377 209c0 -34 -37 -71 -113 -71zm16 167c0 12 -10 22 -23 22 -13 0 -21 -7 -21 -20 0 -15 10 -30 40 -33h5z"/></svg>
