<svg xmlns="http://www.w3.org/2000/svg"
aria-label="Adyen" role="img"
viewBox="0 0 512 512"><path
d="m0 0H512V512H0"
fill="#fff"/><path fill="#00d16a" d="M74 223.9h53.5c6 0 10.7 4.8 10.7 10.7V288H84.7c-6 0-10.7-4.8-10.7-10.7v-26.8h26.8V272h10.7v-32.2H74zm299.8 0V288h26.7v-48h10.7v48.2H438v-53.5c0-6-4.8-10.7-10.7-10.7zm-149.9 91h53.5c6 0 10.7-4.8 10.7-10.7v-80.3h-26.7V272h-10.8v-48.2H224v53.5c0 6 4.8 10.7 10.7 10.7h26.8v10.7H224zM363 288.1h-53.5c-5.9 0-10.7-4.8-10.7-10.7V224h53.6c5.9 0 10.7 4.8 10.7 10.7v26.8h-26.8V240h-10.7v32.2H363zm-149.8-91v91h-53.6c-5.9 0-10.7-4.8-10.7-10.7v-42.8c0-6 4.8-10.7 10.7-10.7h16.1V272h10.7v-75z" /></svg>