<svg stroke-linejoin="round" viewBox="0 0 512 512" xmlns="http://www.w3.org/2000/svg" aria-label="Airbandb" role="img"><rect fill="#ff5a5f" height="512" rx="15%" width="512"/><path d="M256 83.7c-28.9.1-40.5 23.9-40.5 23.9a3058 3058 0 0 0-101.2 203.2s-27.5 49.8 13.8 84.5c38.4 32.3 83 13.4 127.5-38.7 34.3-40 49.8-73.2 48.3-100.6-1.3-23.9-15.8-43.7-47.9-43.7-47.3-.2-48.3 44.6-48.5 43.7 0 46.6 42.8 93.5 56 108.6 13.3 15.1 70.8 73.4 121.5 30 40-34.1 13.1-83.8 13.1-83.8-30.6-67.6-51-111.5-99.9-203.2 0 0-10.6-24-42.2-24z" fill="none" stroke="#fff" stroke-width="23"/></svg>