<svg xmlns="http://www.w3.org/2000/svg"
aria-label="Alpine Linux" role="img"
viewBox="0 0 512 512"><path
d="m0 0H512V512H0"
fill="#fff"/><path fill="#0d597f"
d="M174.37 285.55c8.69 6.05 19 11.16 29.13 11.29V256.38Zm94.27-64.74 24.97 24.7 5.34-5.33a6328.44 6328.44 0 0053.48 53.3c1.6 1.56 15.67 10.45 41.9-7.8-32.09-31.44-95.37-95.2-95.37-95.2ZM114.61 285.53c26.21 18.25 40.26 9.38 41.86 7.8l66.7-65.98s43.95 43.91 65.65 66.13c1.54 1.57 15.63 10.47 41.9-7.81L223.45 177.91ZM352.02 89.7 448 256 352.02 422.3H159.98L64 256 159.98 89.7Z"/></svg>