<svg
xmlns="http://www.w3.org/2000/svg"
aria-label="Amazon Alexa" role="img"
viewBox="0 0 512 512"><rect
width="512" height="512"
rx="15%"
fill="#fff"/><path fill="#00caff" d="M255.996 64.006c-105.983 0-191.9 85.961-191.9 191.998 0 97.357 72.43 177.776 166.315 190.294V407.61c0-10.91-6.877-20.712-17.213-24.183-54.17-18.207-92.922-70.008-91.495-130.663 1.738-73.84 61.858-131.897 135.679-131.153 73.55.744 132.946 60.629 132.946 134.393 0 1.681-.04 3.354-.103 5.018-.015.373-.027.749-.041 1.123a140.921 140.921 0 0 1-.287 4.622c-.035.488-.085.975-.13 1.462a125.672 125.672 0 0 1-.325 3.196 129.588 129.588 0 0 1-.46 3.598c-.074.545-.148 1.092-.23 1.634C372.303 385.048 231.2 445.968 230.425 446.302a193.764 193.764 0 0 0 25.57 1.698c105.985 0 191.902-85.96 191.902-191.996S361.981 64.006 255.996 64.006"/></svg>
