<svg xmlns="http://www.w3.org/2000/svg"
aria-label="Amber Framework" role="img"
viewBox="0 0 512 512"><rect
width="512" height="512"
rx="15%"
fill="#fff"/><path fill="#f3c095" d="M87 161l169-95-125 206-44 79z"/><path fill="#fffefc" d="M256 446L87 351l44-79L256 66l169 95v190z"/><path fill="#e67e25" d="M425 161l-54 42 54 148V161zm-54 42l-240 69 185 86 55-155zm-240 69l-44 79 169 95-125-174z"/><g fill-opacity=".9"><path fill="#e57d25" d="M256 446L131 272l185 86z"/><path fill="#e67e26" d="M316 358l55-155 54 148z"/></g><g fill-opacity=".8"><path fill="#e68025" d="M131 272L256 66l115 137z"/><path fill="#e47e27" d="M87 351V161l44 111z"/><path fill="#e68025" d="M256 446l60-88 109-7z"/></g><path fill="#e67e24" d="M371 203L256 66l169 95z"/></svg>
