<svg xmlns="http://www.w3.org/2000/svg" width="512" height="512"><defs><clipPath id="A"><path d="M0 0h512v512H0z"/></clipPath></defs><g clip-path="url(#A)"><circle vector-effect="non-scaling-stroke" cx="256.071" cy="256.071" r="247.929" fill="#6abf69"/><circle vector-effect="non-scaling-stroke" cx="256.071" cy="256.071" r="180.046" fill="#fc0"/><path d="M256.077 125.066c-58.353.044-109.642 38.676-125.792 94.75h251.5c-16.14-56.044-67.387-94.67-125.7-94.75zm-.237 151.867c-13.742 0-24.883 11.14-24.883 24.883.012 9.464 5.392 18.102 13.88 22.287l-9.137 20.132-10.875 24.188c-.446 1.207 1.335 1.28 31.035 1.28h31.508l-4.77-10.43-15.994-35.042c8.623-4.137 14.113-12.85 14.12-22.415 0-13.742-11.14-24.883-24.884-24.883z" fill="#6abf69" fill-rule="evenodd"/></g></svg>