<svg fill="#a4c639" stroke-linecap="round" viewBox="0 0 512 512" xmlns="http://www.w3.org/2000/svg" aria-label="Android" role="img"><rect fill="#fff" height="512" rx="15%" width="512"/><g stroke="#a4c639"><path d="m107 212v106m299-106v106m-107 66v56m-85-56v56" stroke-width="58"/><path d="m203 88-17-32m123 32 18-32" stroke-width="8"/></g><path d="m257 76c-76 0-115 60-115 105h229c0-47-42-104-114-105zm-115 115v164c0 16 13 29 28 29h172c16 0 29-13 29-29v-164z"/><circle cx="204" cy="130" fill="#fff" r="9"/><circle cx="309" cy="130" fill="#fff" r="9"/></svg>
