<svg xmlns="http://www.w3.org/2000/svg" fill="#a4c639" aria-label="Android" role="img" viewBox="0 0 512 512"><rect width="512" height="512" fill="#fff" rx="15%"/><path d="M87 174c-16 0-29 13-29 29v121c0 16 13 29 29 29s29-13 29-29V203c0-16-13-29-29-29zm339 0c-17 0-30 13-30 29v121c0 16 13 29 30 29 16 0 29-13 29-29V203c0-16-13-29-29-29zM208 312c-16 0-29 13-29 29v121c0 16 13 29 29 29s29-13 29-29V341c0-16-13-29-29-29zm97 0c-17 0-30 13-30 29v121c0 16 13 29 30 29 16 0 29-13 29-29V341c0-16-13-29-29-29z"/><path d="M176 21l-2 1c-2 1-3 3-2 5l21 37c-40 21-66 60-66 104h259c0-44-27-83-66-104l20-37c1-2 1-4-1-5l-2-1-4 2-21 38a138 138 0 0 0-112 0l-21-38-3-2zm-49 158v187c0 18 14 32 31 32h196c18 0 32-14 32-32V179z"/><circle cx="196.5" cy="110" r="11" fill="#fff"/><circle cx="316.5" cy="110" r="11" fill="#fff"/></svg>