<svg xmlns="http://www.w3.org/2000/svg"
aria-label="Android" role="img"
viewBox="0 0 512 512"><rect
width="512" height="512"
rx="15%"
fill="#fff"/><path d="m338.1555 305.70985a14.86683 14.86683 0 1 1 14.8641-14.86963 14.88644 14.88644 0 0 1 -14.8641 14.86963m-164.311 0a14.86683 14.86683 0 1 1 14.864-14.86963 14.883638 14.883638 0 0 1 -14.864 14.86963m169.642-89.54555 29.7085-51.45542a6.1820238 6.1820238 0 1 0 -10.704-6.18821l-30.0839 52.10534c-23.0047-10.49951-48.8417-16.34595-76.4099-16.34595s-53.4024 5.85485-76.4072 16.34595l-30.081-52.10534a6.1811349 6.1811349 0 1 0 -10.7068 6.1798l29.7113 51.46383c-51.0156 27.7475-85.9094 79.39341-91.0135 140.41269h357c-5.1097-61.01928-40.0007-112.66519-91.0135-140.41269" fill="#3ddc84"/></svg>