<svg viewBox="0 0 512 512" xmlns="http://www.w3.org/2000/svg" aria-label="Apple" role="img"><rect height="512" rx="15%" width="512"/><path d="m419 349c-12 28-29 52-50 73a54 54 0 0 1 -36 16c-9 0-20-3-33-8a91 91 0 0 0 -72 0c-13 5-23 8-32 8-12 1-24-5-36-16-46-44-72-105-73-169 0-27 5-51 18-70 18-31 50-50 86-51 9 0 22 3 38 9s25 9 30 9c4 0 15-4 33-10 18-7 34-10 46-9 34 3 59 16 77 41a85 85 0 0 0 -45 76 85 85 0 0 0 55 82zm-78-305c0 20-7 39-22 56-18 21-40 33-63 31v-8a93 93 0 0 1 84-87z" fill="#fff"/></svg>