<svg xmlns="http://www.w3.org/2000/svg" fill="#fff" aria-label="Apple" role="img" viewBox="0 0 512 512"><rect width="512" height="512" fill="#000" rx="15%"/><path d="M244.7 128.8c10.4 0 44.1-6.6 70.3-44.8 22.4-33.1 19.9-70 19.9-70s-38.8-2.8-72.8 39.4c-24.6 30.9-22.7 75-22.7 75s1.9.3 5.4.3z"/><path d="M439.2 371.1c1.9-5.4 3.2-8.5 3.2-8.5h-.3c-.3 0-.3 0-.6-.3-1.9-.6-6.3-2.5-12-6a106.2 106.2 0 0 1-38.4-38.8c-7.2-12.6-12.3-28.4-13.6-47.9-.6-9.8.3-19.2 2.2-27.7v-.3c.6-2.8 1.3-5.4 2.2-8.2 10.1-32.8 33.7-54.2 43.2-61.5 2.5-1.9 3.8-2.8 3.8-2.8s-30.3-47-87.3-47c-49.2 0-67.4 22.1-93.6 22.1-32.1 0-37.2-20.5-84.8-20.5-24.6 0-58.9 9.5-84.5 42.5C58.5 192 51 222.6 47.8 245c-1.9 15.1-2.5 31.5-.6 49.8 0 1.3.3 2.5.3 4.1 1.9 18.3 6.6 37.8 13.2 57.4 0 .3.3.9.6 1.3.6 2.2 1.6 4.7 2.5 6.9.3.9.9 2.2 1.3 3.2.3.9.6 2.2 1.3 3.2 6.3 16.4 13.6 32.1 22.1 47 24.6 43.5 56.4 76.3 86.3 76.3 34 0 44.8-22.1 78.8-21.7 43.2.3 55.1 27.7 91.4 20.5 24.3-4.7 53.3-39.1 71.9-71.9.6-1.3 1.3-2.2 1.9-3.2 8.8-18.9 16.4-36.6 20.5-46.6z"/></svg>