<svg xmlns="http://www.w3.org/2000/svg" aria-label="Apple" role="img" viewBox="0 0 512 512"><rect width="512" height="512" fill="#666" rx="15%"/><path d="M400 352c-11 26-28 49-47 68-9 10-22 15-35 16-7 0-18-3-31-8-21-9-46-9-67 0-13 5-22 8-31 8-11 1-22-5-34-16-43-41-68-99-69-159 0-26 5-48 17-66 18-29 48-47 81-48 9 0 22 3 37 8 14 6 23 9 28 9 4 0 14-4 31-10s33-9 43-8c33 3 56 15 73 38a80 80 0 0 0-42 73c-1 33 19 64 52 77zM326 64c0 19-7 36-20 53-18 19-38 31-60 29v-8c3-43 36-78 79-82z" fill="#fff"/></svg>
