<svg xmlns="http://www.w3.org/2000/svg"
aria-label="appwrite" role="img" 
viewBox="0 0 512 512">
<path d="m0 0H512V512H0" fill="#fff"/>
  <g id="logo" transform="translate(86 106) matrix(3 0 0 3 0 0)">
   <path d="m111.1 73.47V97.96H48.87c-18.13 0-33.96-9.85-42.43-24.49-1.23-2.13-2.31-4.36-3.21-6.68C1.45 62.25.34 57.38-0 52.29V45.67c.07-1.13.19-2.26.34-3.37.31-2.28.78-4.51 1.39-6.68C7.55 15.06 26.45 0 48.87 0S90.19 15.06 96.01 35.62H69.4c-4.37-6.7-11.93-11.13-20.53-11.13S32.71 28.92 28.34 35.62c-1.33 2.04-2.36 4.29-3.04 6.68-.6 2.13-.92 4.37-.92 6.68 0 7.02 2.95 13.35 7.69 17.81 4.38 4.15 10.29 6.68 16.8 6.68H111.1z" fill="#FD366E"/>
   <path d="M111.1 42.3H72.44c.6 2.13.92 4.37.92 6.68 0 7.02-2.95 13.35-7.68 17.81H111.1V42.3Z" fill="#FD366E"/>
  </g>
</svg>