<svg xmlns="http://www.w3.org/2000/svg"
aria-label="Atom" role="img"
viewBox="0 0 512 512" ><rect
width="512" height="512"
rx="15%" 
fill="#fff"/><g style="fill:none;stroke:#66595c;stroke-width:14;stroke-linecap:round"><path d="M367.5 166.3c6-31.2 2.7-54.8-11.8-64.2-4.8-3.2-10.6-4.5-17.2-4.3-35 1.3-92 49.8-138.2 121.2-55 84.6-74.5 169.4-43.6 189.5 14.6 9.5 38 2.7 64.4-16"/><path d="M395.6 304.7c26-10 42-24 43-39.8 2-36.7-78-70.8-178.8-76-9.4-.4-18.7-.7-27.8-.7-87.8.2-156.3 24.3-158 57.7-.8 15.8 13.6 31.2 38.4 44"/><path d="M231.2 111.5c-17.8-14.8-34.5-22.8-48-21.8-3.6.3-7 1.2-10 2.8-33 16.7-22.4 103.2 23.4 193C242.5 375.5 306.2 434.8 339 418c31.5-16 23-96.6-18.3-182.7"/></g><circle cx="258" cy="255" r="23" fill="#66595c"/></svg>