<svg xmlns="http://www.w3.org/2000/svg" aria-label="auth0" role="img" viewBox="0 0 5120 5120" ><path d="M2218 765c-252 35-561 114-816 210-176 66-223 93-267 153-65 87-65 92-65 639 0 541 0 541 58 561 22 7 56 5 129-8 148-27 261-64 391-130 363-185 640-532 741-927 26-100 64-408 56-450-12-64-49-72-227-48zm473 11c-13 16-21 41-21 63 0 68 39 346 60 426 126 476 474 853 928 1005 48 16 137 38 197 49 99 17 113 18 141 5 17-8 36-26 43-40 8-18 11-169 11-513 0-532-2-557-58-631-58-77-90-96-272-164-261-98-574-178-823-211-165-21-181-20-206 11zM1110 2573c-36 18-37 70-5 213 60 267 174 497 383 774 96 127 324 366 473 496 115 100 349 277 396 299 31 15 36 15 58 1 14-9 28-28 31-41 9-35-12-367-31-495-93-625-397-1008-940-1183-88-28-301-78-333-77-4 0-18 6-32 13zm2730 12c-217 45-406 120-560 220-92 60-272 237-329 325-170 262-259 592-278 1029l-6 159 27 27c35 35 46 31 181-66 170-122 305-238 481-413 293-293 475-555 588-849 71-181 114-409 84-435-27-22-72-22-188 3"/></svg>
