<svg xmlns="http://www.w3.org/2000/svg"
aria-label="Behance" role="img"
viewBox="0 0 512 512"><rect
width="512" height="512"
rx="15%"
fill="#4175fa"/><path d="m346.12 211.86c-73.376 0-73.471 73.1-73.471 73.476 0 0-5.027 73.191 73.471 73.191 0 0 65.465 3.722 65.465-50.938h-33.615s1.114 20.578-30.731 20.578c0 0-33.616 2.237-33.616-33.244h99.081s10.896-83.063-66.584-83.063zm-32.873 57.454s4.099-29.427 33.62-29.427c29.613 0 29.146 29.427 29.146 29.427h-62.766zm-83.987-18.807s29.146-2.142 29.146-36.41c0-34.173-23.838-50.938-54.103-50.938h-99.551v191.36h99.542s60.81 1.866 60.81-56.521c5e-3 0 2.613-47.491-35.844-47.491zm-80.645-53.361h55.684s13.504 0 13.504 19.926-7.916 22.815-16.95 22.815h-52.238v-42.741zm52.894 123.39h-52.894v-51.218h55.684s20.211-.186 20.116 26.352c0 22.353-14.99 24.68-22.906 24.866zm103.45-146.1v23.562h78.969v-23.562h-78.969z" fill="#fff"/></svg>