<svg xmlns="http://www.w3.org/2000/svg" fill="#205081" aria-label="Bitbucket" role="img" viewBox="0 0 512 512"><rect width="512" height="512" fill="#fff" rx="15%"/><path d="M256 33C142 33 48 64 48 102c0 10 24 155 35 212 4 27 71 63 173 63s167-37 173-63c11-57 35-202 35-212-2-39-94-69-208-69zm0 298c-37 0-65-29-65-65 0-37 29-65 65-65 37 0 65 29 65 65 0 35-29 65-65 65zm0-208c-73 0-133-12-133-29 0-16 59-29 133-29 73 0 133 12 133 29 0 16-59 29-133 29z"/><path d="M405 369c-4 0-6 2-6 2s-51 41-143 41-143-41-143-40c0 0-4-2-6-2-4 0-8 2-8 8v2c8 43 14 73 14 77 6 31 68 55 141 55s135-24 141-55c0-4 6-35 14-78v-2c2-4 0-8-4-8z"/><circle cx="256" cy="263" r="33"/></svg>