<svg xmlns="http://www.w3.org/2000/svg" fill="#fff" aria-label="Bitcoin" role="img" viewBox="0 0 512 512"><rect width="512" height="512" fill="#f7931a" rx="15%"/><path d="M369 220c5-35-21-53-56-65l11-46-28-7-11 45-23-6 12-45-29-7-11 46-18-4-39-10-7 30 20 5c12 3 14 11 13 17l-13 52 3 1-3-1-18 74c-2 4-5 9-13 7l-20-5-14 32 36 9 20 5-11 47 28 7 11-46 22 5-11 46 28 7 12-46c48 9 84 5 99-38 12-35-1-55-26-68 18-4 32-17 36-41zm-64 90c-9 34-68 16-87 11l16-62c19 5 80 14 71 51zm8-91c-8 32-56 16-72 12l14-56c16 4 67 11 58 44z"/></svg>