<svg xmlns="http://www.w3.org/2000/svg"
aria-label="Blender" role="img"
viewBox="0 0 512 512"><rect
width="512" height="512"
rx="15%"
fill="#fff"/><path d="m273 269c1-13 7-25 17-33s22-13 36-13 27 5 36 13c10 8 16 20 17 33s-5 27-14 36c-10 10-24 15-39 15s-29-6-39-15-15-22-14-36z" fill="#0e548b"/><path d="m187 296c0 5 2 15 4 23 5 17 14 32 27 46s28 25 46 33c19 8 39 13 60 13s42-4 60-13c18-8 34-20 46-34 13-13 21-29 27-46 3-8 4-17 5-25s1-17-1-25c-2-17-8-32-17-46-8-13-18-25-31-34l-124-95c-8-6-22-6-31 0s-10 17-2 23l52 42h-158c-13 0-25 8-28 20-3 11 6 20 20 20h80l-143 109s-1 0-1 1c-13 11-18 27-9 39 8 11 27 11 41 0l78-64s-1 8-1 14zm198 30c-14 15-37 25-61 25-25 0-47-9-63-25-8-8-13-17-18-27-4-10-5-20-4-30s4-20 8-28c5-8 11-16 19-22 15-13 36-20 56-20 21 0 41 7 56 20 8 6 14 14 19 22s8 18 8 28c1 11-1 20-4 30-4 10-9 19-16 27z" fill="#f4792b"/></svg>