<svg xmlns="http://www.w3.org/2000/svg" aria-label="brave" role="img" viewBox="0 0 512 512">
<path fill="#f56f37" d="M183 57L329 57L365 101L389 97L417 123L416 146C416 146 433.5 174.5 440 185C444 191.5 447 198 447 201C447 204.5 446.5 205.5 442 219L397 362C397 362 392 378.5 380 389C369 399 271 463 271 463C271 463 261 469 256 469C251 469 241 463 241 463C241 463 143 399 132 389C120 378.5 115 362 115 362L70 219C65.5 205.5 65 204.5 65 201C65 198 68 191.5 72 185L96 146L95 123L123 97L147 101Z"/>
<path fill="#ffffff" d="M256 255C256 255 270 255.5 286 250C288.5 249 289.5 249 289 245C288.5 241 280 203.5 278 196C276.5 189.5 278 187 284 185C287.5 184 304.5 176.5 314 175C330 172.5 349 176.5 355 177C355 177 304.5 196.5 298 199C290 203 284.5 211 291 226C298 242 300.5 247.5 301 250C301.5 253 300 255.5 296 259C292 262.5 266 285.5 264 288C262 290.5 260.5 293 264 297C266 299.5 277.5 311 291 320C301.5 327 313.5 333.5 322 335C329.5 337.5 331.5 335 336 332C341 329 362 313.5 352 290C351 287.5 348.5 280.5 347 276C345.5 271.5 346.5 269 349 267C356 262 399 221.5 402 217C406 213 405 203 402 198C399 192 366 142 354.5 131C352.5 129 348.5 129.5 343 131C310 140.5 311.5 144.5 294 139C284.5 136 267 131 256 130C245 131 227.5 136 218 139C200.5 144.5 202 140.5 169 131C163.5 129.5 159.5 129 157.5 131C146 142 113 192 110 198C107 203 106 213 110 217C113 221.5 156 262 163 267C166.5 269 166.5 271.5 165 276C150 313.5 171 329 176 332C180.5 335 182.5 337.5 190 335C198.5 333.5 210.5 327 221 320C234.5 311 246 299.5 248 297C251.5 293 250 290.5 248 288C246 285.5 220 262.5 216 259C212 255.5 210.5 253 211 250C211.5 247.5 214 242 221 226C227.5 211 222 203 214 199C207.5 196.5 157 177 157 177C163 176.5 182 172.5 198 175C207.5 176.5 224.5 184 228 185C234 187 235.5 189.5 234 196C232 203.5 223.5 249 223 245C222.5 249 223.5 249 226 250C242 255.5 256 255 256 255Z"/>
<path fill="#ffffff" d="M256 321C261 321 287.5 330.5 314 345C319 347.5 316.5 350.5 310 355C305.5 358 299 364 296 366C293.5 368 266 390.5 263 393C259 396.5 253 396.5 249 393C246 390.5 218.5 368 216 366C213 364 206.5 358 202 355C195.5 350.5 193 347.5 198 345C224.5 330.5 251 321 256 321Z"/>
</svg>