<svg xmlns="http://www.w3.org/2000/svg"
aria-label="Buffer" role="img"
viewBox="0 0 512 512"><rect
width="512" height="512"
rx="15%"
fill="#000"/><path d="M84 166c-5-2-5-7 0-9l162-75c5-3 15-3 20 0l162 75c5 2 5 7 0 9l-162 75c-5 3-15 3-20 0L84 166zm0 85c-5 3-5 7 0 10l162 75c5 2 15 2 20 0l162-75c5-3 5-7 0-10l-32-14c-6-3-15-3-21 0l-109 50c-5 3-15 3-20 0l-109-50c-6-3-15-3-21 0l-32 14zm0 95c-5 2-5 7 0 9l162 75c5 3 15 3 20 0l162-75c5-2 5-7 0-9l-32-15c-6-3-15-3-21 0l-109 50c-5 3-15 3-20 0l-109-50c-6-3-15-3-21 0l-32 15z" fill-rule="evenodd" fill="#fff"/></svg>