<svg xmlns="http://www.w3.org/2000/svg"
aria-label="Bugcrowd" role="img"
viewBox="0 0 512 512"><rect
width="512" height="512"
rx="15%"
fill="#fff"/><path fill="#f26922"
d="m38.5 260.4 107.1 185.1h219.5l109.1-185.1L365.1 66.5H145.6zm178.7-115.7c7.6 4.7 8.1 8.3 8.1 47v31.2l6.8-6.2c3.8-3.4 11.1-8.1 16.3-10.7c8.4-3.9 11.6-4.4 26.6-4.2c18.2 0 28.5 3 41.6 12.2c13.5 9.5 25.7 31.1 29.1 51.2c7.3 44.7-9.2 83.6-42.2 99.3c-10.9 5.1-12.7 5.4-30.2 5.4c-16.5 0-19.8-.5-28.1-4.4c-5.1-2.4-12.2-7.2-15.6-10.4l-6.5-5.9v18.1h-38.6V273c0-51.9-.5-94.9-1.2-95.5c-.6-.7-5.2-1.7-10-2.2l-8.8-.9V158.6c-.2-11.1.5-16.2 1.8-17c1.2-.7 11.9-1 23.7-.9c18.5.4 22.2.9 27.2 4zM258 236.4c-22.3 5.2-33.9 22.7-33.5 50.9c.2 28 14.6 47.6 36 49.1c13.8 1 22.5-1.9 31.3-10.7c18.4-18 19-59.2 1.4-77.9c-8.9-9.3-23.7-14.1-35.2-11.4z"/></svg>