<svg
xmlns="http://www.w3.org/2000/svg"
aria-label="CC Zero" role="img"
viewBox="0 0 512 512">
<circle cx="256" cy="256" r="217" fill="#fff" stroke-width="40" stroke="#000"/>
<path d="M256 130.8c-71.8 0-89.9 67.8-89.9 125.2 0 57.5 18 125.2 89.9 125.2 71.8 0 89.9-67.7 89.9-125.2 0-57.4-18.1-125.2-89.9-125.2zm0 47.2c3 0 5.6.5 8 1 5.2 4.5 7.8 10.7 2.8 19.3L219 286.2c-1.5-11.2-1.7-22-1.7-30.2 0-25.3 1.8-78 38.7-78zm35.8 40.5c2.5 13.5 2.9 27.6 2.9 37.5 0 25.3-1.8 78-38.7 78a33.3 33.3 0 0 1-11.7-2.1c-8.2-3.5-13.4-9.9-6-21z"/>
</svg>
