<svg
xmlns="http://www.w3.org/2000/svg"
aria-label="CC-BY" role="img"
viewBox="0 0 512 512">
<circle cx="256" cy="256" r="217" fill="#fff" stroke-width="40" stroke="#000"/>
<path d="m 314.64343,202.01582 v 88.93711 H 289.79406 V 396.58996 H 222.20593 V 290.95973 h -24.84937 v -88.94391 c 0,-3.88781 1.35937,-7.1843 4.07133,-9.90305 2.72554,-2.71195 6.02883,-4.07812 9.90304,-4.07812 h 89.33813 c 3.62273,0 6.86484,1.35937 9.70594,4.07812 2.83429,2.71875 4.26843,6.02204 4.26843,9.90305 z m -88.95069,-55.92469 c 0,-20.445 10.09336,-30.68109 30.30047,-30.68109 20.20711,0 30.29367,10.2225 30.29367,30.68109 0,20.19352 -10.10015,30.29368 -30.29367,30.29368 -20.19352,0 -30.30047,-10.10016 -30.30047,-30.29368 z"/>
</svg>
