<svg
xmlns="http://www.w3.org/2000/svg"
aria-label="CC-NC" role="img"
viewBox="0 0 512 512">
<circle cx="256" cy="256" r="217" fill="#fff" stroke-width="40" stroke="#000"/>
<path d="M432.4 354.6L339 312.9a63.8 63.8 0 0 1-23.6 38.3 81.3 81.3 0 0 1-44.5 17v38.1h-28.8v-38a115.5 115.5 0 0 1-75.2-29.7l34-34.5a79.2 79.2 0 0 0 55.3 22.5 40 40 0 0 0 22-5.7c6-4 9.1-10.3 9.1-19 0-6.2-2.2-11.2-6.8-15.1l-23.8-10.3-29.2-13.2-39.4-17.3-126.7-56.6 22.3-43.8 94.6 42.5a58.1 58.1 0 0 1 23.6-31.3c12-7.9 25.8-12.4 40.2-13v-38.1h28.8v38.1c22.7 1.2 43.3 8.8 62 23L300.5 200a73.3 73.3 0 0 0-42.5-14.6c-7.7 0-14.6 1.5-20.6 4.4-6.1 3-9 8-9 15.1 0 2 .6 4.1 2.2 6.2l31.3 14.1 21.7 9.8 39.9 17.7 127 56.6z"/>
</svg>
