<?xml version="1.0" encoding="utf-8"?>
<!-- Generator: Adobe Illustrator 13.0.2, SVG Export Plug-In . SVG Version: 6.00 Build 14948)  -->
<!DOCTYPE svg PUBLIC "-//W3C//DTD SVG 1.1//EN" "http://www.w3.org/Graphics/SVG/1.1/DTD/svg11.dtd">
<svg version="1.1" id="Layer_1" xmlns="http://www.w3.org/2000/svg" xmlns:xlink="http://www.w3.org/1999/xlink" x="0px" y="0px"
	 width="64px" height="64px" viewBox="0 0 64 64" enable-background="new 0 0 64 64" xml:space="preserve">
<g>
	<circle fill="#FFFFFF" cx="32.485" cy="31.496" r="28.44"/>
	<path d="M54.708,9.279C48.512,3.093,40.932,0,31.958,0C23.095,0,15.592,3.093,9.453,9.279C3.15,15.68,0,23.253,0,32
		c0,8.746,3.15,16.268,9.453,22.561C15.752,60.854,23.255,64,31.958,64c8.812,0,16.449-3.173,22.909-9.52
		C60.956,48.454,64,40.959,64,32C64,23.04,60.902,15.466,54.708,9.279z M50.701,50.32c-5.287,5.227-11.508,7.839-18.661,7.839
		c-7.156,0-13.324-2.587-18.503-7.761C8.357,45.227,5.768,39.093,5.768,32c0-2.728,0.391-5.318,1.164-7.777l16.383,7.295H19.71
		v4.981h7.496l0.733,1.521v2.414H19.71v4.98h8.229v7.234h7.963v-7.234h8.281v-4.604l10.448,4.653
		C53.561,47.202,52.252,48.822,50.701,50.32z M43.337,40.434h-7.433V38.02l0.375-0.728L43.337,40.434z M44.184,33.809v-2.291h-4.979
		l8.125-14.969h-8.492l-5.595,12.388l-2.969-1.322l-5.113-11.066H16.67l3.524,6.578L9.628,18.422
		c1.098-1.741,2.424-3.403,3.988-4.983c5.02-5.12,11.16-7.68,18.424-7.68c7.26,0,13.429,2.56,18.502,7.68
		C55.668,18.506,58.23,24.692,58.23,32c0,2.707-0.342,5.241-1.021,7.607L44.184,33.809z"/>
</g>
</svg>
