<svg
xmlns="http://www.w3.org/2000/svg"
aria-label="CC NC EU" role="img"
viewBox="0 0 512 512">
<circle cx="256" cy="256" r="217" fill="#fff" stroke-width="40" stroke="#000"/>
<path d="M65 190.2l65.2 28.9h-4.7v29.2h23l-.4 19.3h-22.6V297h26.7a116 116 0 0 0 23 53.5c23.1 30.4 60.1 46.9 100.5 46.9 26.3 0 50.2-7.8 64.2-15.7l-10-45.6c-8.6 4.5-27.9 10.7-46.8 10.7-20.6 0-40-6.2-53.1-21a65 65 0 0 1-13.6-28.8H306L433 353l18-45.1-135-59.7h3.7V219h-69.6l-28.4-12.6a56.3 56.3 0 0 1 8.7-14.2 62.6 62.6 0 0 1 50.7-22.2c18 0 35 5.3 45.6 9.9l11.5-47a156.2 156.2 0 0 0-61.7-12.3c-38.7 0-71.6 15.6-95 42-5.3 6-9.8 12.7-13.9 19.9l-80.8-35.8z"/>
</svg>
