<svg
xmlns="http://www.w3.org/2000/svg"
aria-label="CC" role="img"
viewBox="0 0 512 512">
<circle cx="256" cy="256" r="217" fill="#fff" stroke-width="40" stroke="#000"/>
<path d="M253.7 219.9L224.5 235c-3-6.4-6.9-11-11.4-13.6a25.8 25.8 0 0 0-12.6-3.9c-19.5 0-29.2 12.9-29.2 38.5 0 11.6 2.5 21 7.4 28 5 7 12.2 10.4 21.8 10.4 12.7 0 21.6-6.2 26.8-18.6l26.8 13.6a63.9 63.9 0 0 1-57.1 34.2c-19.5 0-35.1-6-47-17.9-12-11.9-17.9-28.5-17.9-49.7 0-20.7 6-37.1 18-49.3a61.5 61.5 0 0 1 45.7-18.3c27 0 46.2 10.5 57.9 31.5zm125.4 0L350.4 235c-3.1-6.4-7-11-11.5-13.6a26.4 26.4 0 0 0-13-3.9c-19.4 0-29.1 12.9-29.1 38.5 0 11.6 2.4 21 7.4 28 4.9 7 12.1 10.4 21.7 10.4 12.7 0 21.6-6.2 26.8-18.6l27.2 13.6c-6 10.6-14 19-24 25a62.8 62.8 0 0 1-33 9.2c-19.8 0-35.5-6-47.3-17.9-11.8-11.9-17.6-28.5-17.6-49.7 0-20.7 6-37.1 18-49.3a61.5 61.5 0 0 1 45.6-18.3c27 0 46.1 10.5 57.5 31.5z"/>
</svg>
