<svg xmlns="http://www.w3.org/2000/svg"
aria-label="ClickHouse" role="img"
viewBox="0 0 512 512"><path
d="m0 0H512V512H0"
fill="#faff69"/><path
d="M100 94c0-2.2 1.8-4 4-4h29c2.2 0 4 1.8 4 4v324c0 2.2-1.8 4-4 4h-29c-2.2 0-4-1.8-4-4zm73.65 0c0-2.2 1.8-4 4-4h29c2.2 0 4 1.8 4 4v324c0 2.2-1.8 4-4 4h-29c-2.2 0-4-1.8-4-4zm73.65 0c0-2.2 1.8-4 4-4h29c2.2 0 4 1.8 4 4v324c0 2.2-1.8 4-4 4h-29c-2.2 0-4-1.8-4-4zm73.65 0c0-2.2 1.8-4 4-4h29c2.2 0 4 1.8 4 4v324c0 2.2-1.8 4-4 4h-29c-2.2 0-4-1.8-4-4zm73.65 129c0-2.2 1.8-4 4-4h29c2.2 0 4 1.8 4 4v66c0 2.2-1.8 4-4 4h-29c-2.2 0-4-1.8-4-4"
fill="#1e1e1e"/></svg>