<svg xmlns="http://www.w3.org/2000/svg"
aria-label="Clojure" role="img"
viewBox="0 0 512 512"><rect
width="512" height="512"
rx="15%"
fill="#fff"/><path d="M48 107a256 256 0 0 1 464 149c0 135-142 116-142 116a163 163 0 0 0-179-265c-79-45-143 0-143 0" fill="#466acd"/><path d="M465 404a256 256 0 0 1-464-149c0-135 142-116 142-116a163 163 0 0 0 179 265c79 45 143 0 143 0" fill="#53a526"/><path d="M213 128a135 135 0 0 1 123 237c-37 3-68-108-73-125s-19-79-50-112" fill="#71aefd"/><path d="M176 365a135 135 0 0 1 2-220c36 19 59 90 59 90 0 0-54 102-61 130m33 18c0 0 38 18 89 2-30-25-48-111-53-123-7 14-43 87-36 121" fill="#81d837"/></svg>