<svg xmlns="http://www.w3.org/2000/svg" aria-label="cloudflare" role="img" viewBox="0 0 512 512"><rect width="512" height="512" fill="#fff" rx="15%"/><path fill="#f4811f" d="M347 319c3-10 2-20-3-26s-12-10-21-11l-174-2-3-1v-3c1-2 2-3 4-3l175-2c21-1 43-18 51-38l9-26v-3a113 113 0 0 0-218-12c-10-7-22-11-35-10a52 52 0 0 0-45 64 73 73 0 0 0-70 84c0 2 2 3 3 3h320c2 0 4-1 4-3z"/><path fill="#faad3f" d="M401 207h-5l-3 2-7 24c-3 10-2 20 3 26s12 10 21 11l37 2 3 1v3c-1 2-2 3-4 3l-38 2c-21 1-42 18-50 38l-2 9c-1 1 0 3 2 3h131c2 0 3-1 3-3 2-8 4-17 4-26 0-52-43-95-95-95"/></svg>