<svg xmlns="http://www.w3.org/2000/svg"
aria-label="Codeforces" role="img"
viewBox="0 0 512 512"><path
d="M0 0h512v512H0z"
fill="#fff"/><path fill="#b91d25" d="M435 230c14 0 26 12 26 26v128c0 14-12 26-26 26h-51c-14 0-26-12-26-26V256c0-14 12-26 26-26h51z"/><path fill="#1789ca" d="M282 102c13 0 25 12 25 26v256c0 14-12 26-25 26h-52c-13 0-25-12-25-26V128c0-14 12-26 25-26h52z"/><path fill="#f7c847" d="M128 179c14 0 26 12 26 26v179c0 14-12 26-26 26H77c-14 0-26-12-26-26V205c0-14 12-26 26-26h51z"/></svg>