<svg xmlns="http://www.w3.org/2000/svg"
aria-label="Codeberg" role="img"
viewBox="0 0 512 512" ><rect
width="512" height="512"
rx="15%" 
fill="#fff"/><defs><linearGradient id="A" x1="259.8" x2="383.13" y1="161.4" y2="407.84" gradientUnits="userSpaceOnUse"><stop stop-color="#fff" stop-opacity="0" offset="0"/><stop stop-color="#71c2ff" offset=".5"/><stop stop-color="#39aaff" offset="1"/></linearGradient></defs><path d="m259.8 161.4c-0.4 0-1.1 0-1.3 0.4l-0.4 1.1 73.9 277.3a192 192 0 0 0 86.8-74.4l-157.7-203.7a1.8 1.8 0 0 0-1.3-0.7z" fill="url(#A)" opacity=".5" paint-order="stroke markers fill"/><path d="m255.3 71.8a192 192 0 0 0-162 294l160.1-207c0.5-0.6 1.5-1 2.6-1s2 0.4 2.6 1l160 207a192 192 0 0 0 29.4-102c0-106-86-192-192-192a192 192 0 0 0-0.7 0z" fill="#2185d0" paint-order="stroke markers fill"/></svg>
