<svg xmlns="http://www.w3.org/2000/svg" aria-label="coinpot" role="img" viewBox="0 0 512 512"><rect width="512" height="512" fill="#e0e0e0" rx="15%"/><defs><g id="c"><path fill="#ffd54e" d="M0 0h84v13Q42 18 0 13"/><ellipse cx="42" fill="#c6a900" rx="42" ry="3"/></g></defs><g transform="translate(78,255)"><g id="s"><use href="#c"/><use y="18" href="#c"/><use y="36" href="#c"/><use y="54" href="#c"/><use y="72" href="#c"/></g></g><use x="174" y="202" href="#s"/><use x="174" y="256" href="#s"/><use x="269" y="173" href="#s"/><use x="269" y="245" href="#s"/><path fill="#e0e0e0" d="M62 328C152 366 261 332 385 233v150H62"/><path fill="#03a9f3" d="M62 335C152 373 261 339 385 240l-13-10l77-28l-17 73l-13-11C203 413 132 367 62 335"/></svg>