<svg xmlns="http://www.w3.org/2000/svg"
aria-label="coinpot" role="img"
viewBox="0 0 512 512"><path
d="m0 0H512V512H0"
fill="#e0e0e0"/><defs><g id="c"><path d="M0 13q42 5 84 0V0H0" fill="#ffd54e"/><ellipse cx="42" rx="42" ry="3" fill="#c6a900"/></g></defs><g transform="translate(78,255)"><g id="s"><use href="#c"/><use y="18" href="#c"/><use y="36" href="#c"/><use y="54" href="#c"/><use y="72" href="#c"/></g></g><use x="174" y="202" href="#s"/><use x="174" y="256" href="#s"/><use x="269" y="173" href="#s"/><use x="269" y="245" href="#s"/><path d="M62 328c90 38 199 4 323-95v150H62" fill="#e0e0e0"/><path d="M62 335c90 38 199 4 323-95l-13-10 77-28-17 73-13-11C203 413 132 367 62 335" fill="#03a9f3"/></svg>