<svg xmlns="http://www.w3.org/2000/svg"
aria-label="Google CoLaboratory" role="img"
viewBox="0 0 512 512"><rect
width="512" height="512"
rx="15%"
fill="#fff"/><path fill="#ffc107" d="m46.7 151.5a147.8 147.8 90 000 208.9L97 310.1a76.6 76.6 90 01-.1-108.3zm368.4 50.3A76.6 76.6 90 01306.7 310.2L256 360.5a147.8 147.8 90 00209.3-209z"></path><path fill="#ffd836" d="m96.9 201.8a76.6 76.6 90 01108.4 0l36.5-62.5A147.8 147.8 90 0046.7 151.5zm108.3 108.4a76.6 76.6 90 01-108.4 0l-50.1 50.3a147.8 147.8 90 00195.2 12zm101.1-.1a76.6 76.6 90 11108.4-108.4l50.6-50.2A147.8 147.8 90 00256 360.4z"></path></svg>