<svg xmlns="http://www.w3.org/2000/svg"
aria-label="C++" role="img"
viewBox="0 0 512 512"><rect
width="512" height="512"
rx="15%"
fill="#fff"/><path fill="#004482" d="M270.3 445l141.1-81.4c4.1-2.3 7.8-6.4 10.4-11l-166.3-96-166.3 96c2.7 4.6 6.4 8.7 10.4 11L240.8 445c8.1 4.7 21.4 4.7 29.5 0z"/><path fill="#659AD2" d="M421.8 160.5c-2.7-4.6-6.4-8.7-10.4-11L270.3 68c-8.1-4.7-21.4-4.7-29.6 0l-141 81.5c-8.1 4.7-14.8 16.2-14.8 25.6V338c0 4.7 1.7 9.9 4.3 14.6l166.3-96 166.3-96.1z"/><path fill="#FFF" d="M255.5 370.3c-62.7 0-113.7-51-113.7-113.7s51-113.7 113.7-113.7c40.5 0 78.2 21.8 98.5 56.8l-49.2 28.4c-10.2-17.5-29-28.3-49.3-28.3-31.4 0-56.9 25.5-56.9 56.9s25.5 56.9 56.9 56.9c20.2 0 39.1-10.9 49.3-28.5l49.2 28.4c-20.2 35-58 56.8-98.5 56.8z"/><path fill="#00599C" d="M421.8 352.6c2.7-4.6 4.3-9.9 4.3-14.6V175.2c0-4.7-1.7-10-4.3-14.7l-166.3 96.1 166.3 96z"/><path fill="#FFF" d="M369.3 250.2h-12.6v-12.7H344v12.7h-12.6v12.6H344v12.7h12.7v-12.7h12.6v-12.6zm47.4 0H404v-12.7h-12.6v12.7h-12.6v12.6h12.6v12.7H404v-12.7h12.7v-12.6z"/></svg>