<svg xmlns="http://www.w3.org/2000/svg"
aria-label="Dart" role="img"
fill-rule="evenodd"
viewBox="0 0 512 512"><rect
width="512" height="512"
rx="15%"
fill="#fff"/><path d="m93.6 294.2c-10-13.3-9.5-27.5-.8-42.3l51.3-107.2 8.1 208.6z" fill="#01579b"/><path d="m365.2 363.9-200.9 1.6 59.7 60.3 141.1.4z" fill="#40c4ff"/><path d="m297.6 99c-14.2-15.4-31.6-17.1-52.1-5.7l-101.4 51.4v184.5c-.5 9.2 2.6 18.8 8.1 24.2l12.3 12.2h200.7l61 .3v-138.8z" fill="#2cb7f6"/><path d="m426.1 225.9-72.4-70.9c-7.5-7.1-15.5-10.4-24-10.3h-185.6l221.1 220.9h60.9z" fill="#01579b"/></svg>