<svg xmlns="http://www.w3.org/2000/svg"
aria-label="Dart" role="img"
viewBox="0 0 512 512" fill-rule="evenodd"><path
d="m0 0H512V512H0"
fill="#fff"/><path fill="#01579b" d="M93.6 294.2c-10-13.3-9.5-27.5-.8-42.3l51.3-107.2 8.1 208.6z"/><path fill="#40c4ff" d="m365.2 363.9-200.9 1.6 59.7 60.3 141.1.4z"/><path fill="#2cb7f6" d="M297.6 99c-14.2-15.4-31.6-17.1-52.1-5.7l-101.4 51.4v184.5c-.5 9.2 2.6 18.8 8.1 24.2l12.3 12.2h200.7L353 155.44z"/><path fill="#01579b" d="M426.1 365.6H365.2L144.1 144.7H329.7c8.5-.1 16.5 3.2 24 10.3l72.4 70.9Z"/></svg>