<svg xmlns="http://www.w3.org/2000/svg"
aria-label="Dart" role="img"
fill-rule="evenodd"
viewBox="0 0 512 512"><rect
width="512" height="512"
rx="15%"
fill="#fff"/><path d="M93.603 294.205c-9.963-13.304-9.494-27.478-.793-42.338l51.301-107.176 8.062 208.645z" fill="#01579b"/><path d="m365.201 363.854-200.855 1.619 59.748 60.268 141.072.431z" fill="#40c4ff"/><path d="M297.603 98.976c-14.19-15.367-31.593-17.058-52.07-5.665l-101.421 51.38v184.508c-.502 9.23 2.603 18.752 8.083 24.175l12.276 12.226 200.695.024 60.96.257.022-138.828z" fill="#2cb7f6"/><path d="M426.147 225.899l-72.421-70.908c-7.457-7.128-15.48-10.418-24.005-10.3h-185.61L365.2 365.6l60.948-.001z" fill="#01579b"/></svg>