<svg
xmlns="http://www.w3.org/2000/svg"
aria-label="debian" role="img"
viewBox="0 0 512 512"><rect
width="512" height="512"
rx="15%"
fill="#fff"/><path d="M161 92c-16 17-27 32-40 49-18 32-27 59-26 92-.2 22-1 45 4 67 13 57 51 110 103 139 21 10 59 22 79 16-25-4-42-14-61-29-6 8-11-7-17-10-21-10-27-32-40-48-6-10-22-31-11-25-38-60-30-112-12-167 9-15 22-28 38-38 46-26.82 87-44 137-28 24 9 42 30 53 53 23 52-7 117-56 135-45 6-78-24-81-64-1-50 60-70 91-44 2-12-24-28-49-24-78 18-74 114-12 142 46 16 75-4 117-22 16-26 27-50 31-79-6-25-41-88-3-36 3 8 4 17 8 25 2 2 2-6 1-8-1-5-9-30-5-25C379 53 235 46 161 92z" fill="#A80030"/></svg>
