<svg xmlns="http://www.w3.org/2000/svg"
aria-label="Deezer" role="img"
fill="none" stroke-width="20"
viewBox="0 0 512 512"><path
d="m0 0H512V512H0"
fill="#231f20"/><path stroke="#f1796e" d="M78 241h64m-64 26h64"/><path stroke="#ec2529" d="M142 345H78m64-26H78m64-26H78"/><path stroke="#f6dd05" d="M148 293h64m-64 26h64m-64 26h64"/><path stroke="#e78dcc" d="M218 241h64m-64 26h64m-64-52h64m-64-26h64"/><path stroke="#d81996" d="M218 293h64m-64 26h64m-64 26h64"/><path stroke="#d6e465" d="M288 241h64m-64 26h64"/><path stroke="#adda1a" d="M288 293h64m-64 26h64m-64 26h64"/><path stroke="#b0d8e6" d="M358 241h64m-64 26h64m-64-52h64m-64-26h64m-64-26h64"/><path stroke="#56bbe9" d="M358 293h64m-64 26h64m-64 26h64"/></svg>