<svg xmlns="http://www.w3.org/2000/svg" fill="none" viewBox="0 0 580 113"><defs/><path fill="#fff" d="M335.461 95c-10.77 0-19.63-6.49-19.79-17.89h51a42.175 42.175 0 001-9.18c0-20.59-14.09-33.73-34.83-33.73-22.17 0-37.37 17.26-37.37 38.63 0 23.75 16.47 39.59 39.74 39.59 17.58 0 29.77-8.87 35-23.44l-17.33-6.77c-2.38 8.52-8.24 12.79-17.42 12.79zm-2.69-44.49c9 0 15.2 4.91 15.2 12.51l-.16.63h-32.14c1.9-8.23 8.87-13.14 17.1-13.14zM437.73 52.41V35.78h-65.39V53.2h39.9l-41.17 40.22v17.41h67.77V92.62H396.4l41.33-40.21zM559.86 60.01a26.71 26.71 0 01-.25 3.77h19.21c.467-2.442.691-4.924.67-7.41 0-12.83-8.07-22.17-21.53-22.17-8.71 0-14.88 4.28-18.05 11.24v-9.65h-20.26v75h20.26V62.54c0-7.6 4.12-11.87 10.45-11.87 5.7 0 9.5 3.8 9.5 9.34zM194.999 47.03c-4.6-7.76-13.15-12.83-23.75-12.83-20.59 0-35.63 15.84-35.63 39.43 0 23.27 14.89 38.79 36.1 38.79 10.61 0 19.16-4.6 24.07-12.35v10.76h19.47V0h-20.26v47.03zm-19.17 48.18c-11.24 0-20-8.23-20-21.53 0-13.46 8.71-22 20-22 10.92 0 19.95 8.55 19.95 22 0 13.25-9.03 21.53-19.95 21.53zM479.81 95c-10.77 0-19.63-6.49-19.79-17.89h51a42.113 42.113 0 001-9.18c0-20.59-14.09-33.73-34.83-33.73-22.17 0-37.37 17.26-37.37 38.63 0 23.75 16.47 39.59 39.74 39.59 17.58 0 29.77-8.87 35-23.44l-17.34-6.77C494.85 90.73 489 95 479.81 95zm-2.69-44.49c9 0 15.2 4.91 15.2 12.51l-.16.63H460c1.92-8.23 8.88-13.14 17.12-13.14zM260.63 95c-10.77 0-19.63-6.49-19.79-17.89h51c.657-3.015.975-6.094.95-9.18 0-20.59-14.09-33.73-34.83-33.73-22.17 0-37.37 17.26-37.37 38.63 0 23.75 16.47 39.59 39.74 39.59 17.58 0 29.77-8.87 35-23.44l-17.28-6.77C275.67 90.73 269.81 95 260.63 95zm-2.69-44.49c9 0 15.2 4.91 15.2 12.51l-.16.63h-32.14c1.9-8.23 8.87-13.14 17.1-13.14z"/><path fill="#29AB70" d="M115.35 35.73H90.52v14.49h24.83V35.73z"/><path fill="url(#paint0_linear)" d="M115.35 55.91H90.52V70.4h24.83V55.91z"/><path fill="url(#paint1_linear)" d="M115.35 76.08H90.52v14.49h24.83V76.08z"/><path fill="url(#paint2_linear)" d="M25.34 96.26H.51v14.49h24.83V96.26z"/><path fill="url(#paint3_linear)" d="M55.34 96.26H30.51v14.49h24.83V96.26z"/><path fill="url(#paint4_linear)" d="M85.35 96.26H60.52v14.49h24.83V96.26z"/><path fill="url(#paint5_linear)" d="M115.35 96.26H90.52v14.49h24.83V96.26z"/><path fill="url(#paint6_linear)" d="M85.35 76.08H60.52v14.49h24.83V76.08z"/><path fill="url(#paint7_linear)" d="M55.34 76.08H30.51v14.49h24.83V76.08z"/><path fill="url(#paint8_linear)" d="M55.34 55.91H30.51V70.4h24.83V55.91z"/><path fill="#000" d="M335.461 95c-10.77 0-19.63-6.49-19.79-17.89h51a42.175 42.175 0 001-9.18c0-20.59-14.09-33.73-34.83-33.73-22.17 0-37.37 17.26-37.37 38.63 0 23.75 16.47 39.59 39.74 39.59 17.58 0 29.77-8.87 35-23.44l-17.33-6.77c-2.38 8.52-8.24 12.79-17.42 12.79zm-2.69-44.49c9 0 15.2 4.91 15.2 12.51l-.16.63h-32.14c1.9-8.23 8.87-13.14 17.1-13.14zM437.73 52.41V35.78h-65.39V53.2h39.9l-41.17 40.22v17.41h67.77V92.62H396.4l41.33-40.21zM559.86 60.01a26.71 26.71 0 01-.25 3.77h19.21c.467-2.442.691-4.924.67-7.41 0-12.83-8.07-22.17-21.53-22.17-8.71 0-14.88 4.28-18.05 11.24v-9.65h-20.26v75h20.26V62.54c0-7.6 4.12-11.87 10.45-11.87 5.7 0 9.5 3.8 9.5 9.34zM194.999 47.03c-4.6-7.76-13.15-12.83-23.75-12.83-20.59 0-35.63 15.84-35.63 39.43 0 23.27 14.89 38.79 36.1 38.79 10.61 0 19.16-4.6 24.07-12.35v10.76h19.47V0h-20.26v47.03zm-19.17 48.18c-11.24 0-20-8.23-20-21.53 0-13.46 8.71-22 20-22 10.92 0 19.95 8.55 19.95 22 0 13.25-9.03 21.53-19.95 21.53zM479.81 95c-10.77 0-19.63-6.49-19.79-17.89h51a42.113 42.113 0 001-9.18c0-20.59-14.09-33.73-34.83-33.73-22.17 0-37.37 17.26-37.37 38.63 0 23.75 16.47 39.59 39.74 39.59 17.58 0 29.77-8.87 35-23.44l-17.34-6.77C494.85 90.73 489 95 479.81 95zm-2.69-44.49c9 0 15.2 4.91 15.2 12.51l-.16.63H460c1.92-8.23 8.88-13.14 17.12-13.14zM260.63 95c-10.77 0-19.63-6.49-19.79-17.89h51c.657-3.015.975-6.094.95-9.18 0-20.59-14.09-33.73-34.83-33.73-22.17 0-37.37 17.26-37.37 38.63 0 23.75 16.47 39.59 39.74 39.59 17.58 0 29.77-8.87 35-23.44l-17.28-6.77C275.67 90.73 269.81 95 260.63 95zm-2.69-44.49c9 0 15.2 4.91 15.2 12.51l-.16.63h-32.14c1.9-8.23 8.87-13.14 17.1-13.14z"/><defs><linearGradient id="paint0_linear" x1="104.55" x2="101.32" y1="72.3" y2="54" gradientUnits="userSpaceOnUse"><stop stop-color="#2C8C9D"/><stop offset=".04" stop-color="#298E9A"/><stop offset=".39" stop-color="#129C83"/><stop offset=".72" stop-color="#05A475"/><stop offset="1" stop-color="#00A770"/></linearGradient><linearGradient id="paint1_linear" x1="90.15" x2="115.72" y1="89.84" y2="76.81" gradientUnits="userSpaceOnUse"><stop stop-color="#2839BA"/><stop offset="1" stop-color="#148CB3"/></linearGradient><linearGradient id="paint2_linear" x1=".51" x2="25.34" y1="103.5" y2="103.5" gradientUnits="userSpaceOnUse"><stop stop-color="#F6A500"/><stop offset="1" stop-color="#F29100"/></linearGradient><linearGradient id="paint3_linear" x1="30.51" x2="55.34" y1="103.5" y2="103.5" gradientUnits="userSpaceOnUse"><stop stop-color="#F29100"/><stop offset="1" stop-color="#D12F5F"/></linearGradient><linearGradient id="paint4_linear" x1="60.52" x2="85.35" y1="103.5" y2="103.5" gradientUnits="userSpaceOnUse"><stop stop-color="#B4197C"/><stop offset="1" stop-color="#472EAD"/></linearGradient><linearGradient id="paint5_linear" x1="90.519" x2="115.35" y1="103.5" y2="103.5" gradientUnits="userSpaceOnUse"><stop stop-color="#2839BA"/><stop offset="1" stop-color="#3072B7"/></linearGradient><linearGradient id="paint6_linear" x1="59.539" x2="86.32" y1="87.24" y2="79.41" gradientUnits="userSpaceOnUse"><stop stop-color="#B4197C"/><stop offset="1" stop-color="#373AAC"/></linearGradient><linearGradient id="paint7_linear" x1="29.64" x2="56.22" y1="78.49" y2="88.16" gradientUnits="userSpaceOnUse"><stop stop-color="#FFCB00"/><stop offset="1" stop-color="#D12F5F"/></linearGradient><linearGradient id="paint8_linear" x1="32.61" x2="53.24" y1="53.63" y2="72.67" gradientUnits="userSpaceOnUse"><stop stop-color="#FFCF00"/><stop offset="1" stop-color="#ED743B"/></linearGradient></defs></svg>