<svg xmlns="http://www.w3.org/2000/svg"
aria-label="Deezer" role="img"
viewBox="0 0 512 512"
stroke-width="20"><path
d="m0 0H512V512H0"
fill="#231f20"/><path stroke="#f1796e" d="M78 241h64m0 26h-64"/><path stroke="#ec2529" d="M142 293H78m0 26h64m0 26H78"/><path stroke="#f6dd05" d="M148 293h64m0 26h-64m0 26h64"/><path stroke="#e78dcc" d="M218 189h64m0 26h-64m0 26h64m0 26h-64"/><path stroke="#d81996" d="M218 293h64m0 26h-64m0 26h64"/><path stroke="#d6e465" d="M288 241h64m0 26h-64"/><path stroke="#adda1a" d="M288 293h64m0 26h-64m0 26h64"/><path stroke="#b0d8e6" d="M358 163h64m0 26h-64m0 26h64m0 26h-64m0 26h64"/><path stroke="#56bbe9" d="M358 293h64m0 26h-64m0 26h64"/></svg>