<svg xmlns="http://www.w3.org/2000/svg"
aria-label="Dingux" role="img"
viewBox="0 0 512 512"><rect
width="512" height="512"
rx="15%"/><path fill="#fff" d="M197 56c-17-1-39 5-56 15-28 16-43 45-41 63 2 12 13 27 29 38 10 6 18 12 31 12 32-1 57-34 63-56 7-21 11-54-1-66-6-4-14-6-25-6zm133 11c-18 0-42 4-56 12-28 17-37 41-35 59 1 11 10 23 24 35 10 9 18 18 31 17 28-5 53-41 58-59 6-15 17-45 8-56-3-5-14-8-30-8zm95 79c-17 0-43 7-60 19-26 17-41 34-39 56 0 11 9 24 22 36 10 10 25 14 35 13 31-3 51-36 59-54 5-18 9-53 1-65-4-3-10-5-18-5zm-286 54c-9 0-20 1-30 6-27 15-49 38-48 74a223 223 0 0 0 125 164c28 11 73 24 108-10 34-33 27-59 16-88-10-27-1-43 4-69 7-41-27-62-57-67-29-5-54 9-67 4-9-4-27-14-51-14zm283 79c-16 0-36 4-51 13-25 13-44 39-38 60 3 12 9 22 22 35 11 7 22 11 34 11 33 1 54-30 58-52 3-20 8-50-1-62-4-4-14-5-24-5z"/></svg>