<svg xmlns="http://www.w3.org/2000/svg" fill="#066da5" aria-label="Docker" role="img" viewBox="0 0 512 512"><rect width="512" height="512" fill="#fff" rx="15%"/><path d="M288 242h49v-45h-50zm-59 0h49v-45h-49zm-59 0h50v-45h-50zm-59 0h50v-45h-50zm-59 0h50v-45H53zm59-54h50v-45h-50zm59 0h50v-45h-50zm59 0h49v-45h-49zm0-54h49V89h-49zm257 82c-11-7-36-10-55-6-3-18-13-34-31-48l-10-7-7 11c-9 13-14 32-12 50 1 6 3 17 9 27-6 4-19 8-36 8H17l-1 4c-3 18-3 75 33 118 28 33 70 50 124 50 118 0 205-54 246-153 16 0 51 0 68-34l5-9 2-4"/></svg>