<svg xmlns="http://www.w3.org/2000/svg"
aria-label="Dovecot" role="img"
viewBox="0 0 512 512"><path
d="m0 0H512V512H0"
fill="#fff"/><path
fill="#4b9bd7"
d="m198 182-100 76c-2 1.6-1.6 4.8.4 6.3l4 3c2 1.6 4.8 1.4 6.6 0l50-38c2.8-2.1 6.6-2.1 9.3 0L201 255c2.8 2.1 6 2.1 9 0l43.5-33.3c2.8-2.1 2.8-6.4.2-8.4l-41-32c-3.6-2.8-9.4-3.4-14 0m115.4 0-100 77c-2 1.6-2 4.6 0 6.1l4 3c1.9 1.5 4.6 1.5 6.5 0L282 223.3c2.8-2.1 6.6-2.1 9.3 0l56 42.8c2.8 2.1 6.6 2.1 9.3 0l35.8-27.4c2.8-2 2.8-6.3 0-8.4l-64.2-49c-3.6-2.8-9.4-3.4-14 0"/></svg>