<svg xmlns="http://www.w3.org/2000/svg"
aria-label="Downpour Logo" role="img"
viewBox="0 0 512 512"><path
d="M0 0h512v512H0"
fill="#fff"/><path d="M265 97s3-23-9-23c-13 0-9 23-9 23-97-1-179 63-178 152 0 4 3 8 7 8 10 0 25-25 61-26 24 0 30 16 38 16 12 0 38-20 72-20v175c0 21 12 36 26 36 13 0 27-11 27-27 0-8 2-24-8-24-9 0-9 12-9 20 0 5-3 14-8 14-7 0-10-10-10-16V226c43 0 60 22 71 22 6 0 17-16 42-16 30 0 49 25 57 25 5 0 8-5 8-9 0-80-69-151-178-151zm113 294c26 0 39-21 39-41 0-29-18-45-41-84-25 38-40 52-40 85 0 19 15 41 42 40zm-235 2c27 0 40-22 40-42 0-29-16-46-40-85-24 38-41 53-41 86 0 19 15 41 41 41zm-1-18c-11 0-23-8-23-26s17-48 23-48c7 0 24 29 24 49 0 16-12 25-24 25zm234 0c-11-1-23-8-23-27 0-18 17-48 23-48 7 0 24 30 24 50 0 15-12 25-24 25zM166 221c-22-10-48-9-78 8 15-80 84-109 130-113-30 28-50 61-52 105Zm90-108c43 24 70 59 73 111-55-23-103-19-146 1 2-47 24-85 73-112zm90 108c26-12 52-7 78 9-14-55-44-101-130-114 29 27 50 60 52 105z" style="fill:#363a7f;fill-rule:evenodd"/></svg>