<svg xmlns="http://www.w3.org/2000/svg"
aria-label="Dribble" role="img"
viewBox="0 0 512 512"><rect
width="512" height="512"
rx="15%"
fill="#fff"/><circle cx="256" cy="256" r="192" fill="#c32361"/><path d="M383 153a163 163 0 0 1 37 102c-6-1-60-13-114-6l-15-32c61-25 88-60 92-64zm-18-19c-3 4-28 37-86 59a885 885 0 0 0-62-96c57-14 113 5 148 37zm-179-26a1035 1035 0 0 1 61 94c-77 21-144 20-152 20a165 165 0 0 1 91-114zM92 251c7 0 87 1 168-23l14 28c-72 21-116 72-140 110a164 164 0 0 1-42-115zm63 135c3-6 38-72 130-103 18 42 33 108 35 124-36 17-104 25-165-21zm192 6c-1-10-10-58-31-117 51-8 96 5 102 7a163 163 0 0 1-71 110z" fill="#ea4c89"/></svg>