<svg xmlns="http://www.w3.org/2000/svg" aria-label="dribbble" viewBox="0 0 512 512"><path fill="#EA4C89" d="M13 13.2a41 41 0 0 1 1.4 5c-2.3.8-4.7.4-6.5-1a9 9 0 0 1 5.1-4zm-.5-1.3l-.5-1c-1.8.6-4 1-6.6 1v.1c0 1.6.6 3 1.5 4.2 1.5-2.1 3.3-3.6 5.6-4.3zM9 6.1c-1.7.9-3 2.4-3.4 4.3a20 20 0 0 0 5.8-.7A30 30 0 0 0 9 6.1zm7 .7a6.6 6.6 0 0 0-5.6-1.2 31 31 0 0 1 2.3 3.6A8 8 0 0 0 16 6.8zM24 5v14a5 5 0 0 1-5 5H5a5 5 0 0 1-5-5V5a5 5 0 0 1 5-5h14a5 5 0 0 1 5 5zm-4 7a8 8 0 1 0-16 0 8 8 0 0 0 16 0zm-6.7-1.5l.6 1c1.4-.2 3-.2 4.7.1 0-1.5-.7-2.8-1.6-3.9-.9 1.2-2.1 2-3.7 2.8zm1 2.4c.6 1.5 1 3 1.4 4.6 1.5-1 2.5-2.6 2.8-4.5-1.5-.2-2.9-.3-4.1-.1z"/></svg>
