<svg viewBox="0 0 512 512" xmlns="http://www.w3.org/2000/svg"><rect fill="#fff" height="512" rx="15%" width="512"/><circle cx="256" cy="256" fill="#c32361" r="192"/><path d="m382.82 152.5a163.25 163.25 0 0 1 37.07 102c-5.41-1-59.56-12.08-114.12-5.21-1.25-2.71-10.62-24.57-14.37-32.28 60.39-24.52 87.88-59.93 91.42-64.51zm-18.12-19c-2.92 4.16-27.7 37.28-86 59.14a885.36 885.36 0 0 0 -61.22-96c56.83-13.21 112.4 5.05 147.22 36.91zm-178.46-25.77a1034.86 1034.86 0 0 1 60.76 94.75c-76.63 20.41-144.31 20-151.6 20a164.76 164.76 0 0 1 90.84-114.75zm-94.34 143.48c7.08.21 86.63 1.25 168.47-23.32 4.79 9.16 9.16 18.53 13.33 27.9-71.94 21.49-115.94 72.53-139.73 110a163.66 163.66 0 0 1 -42.07-114.58zm63.51 134.32c2.92-6 37.58-71.45 129.74-102.53 17.56 42 32.76 108.36 35 124-36.31 16.76-103.75 24.68-164.73-21.47zm192 6.46c-1.67-10-10.41-57.89-31.86-116.82 51.44-8.12 96.42 5.21 102 7.08a162.59 162.59 0 0 1 -70.13 109.75z" fill="#ea4c89"/></svg>