<svg xmlns="http://www.w3.org/2000/svg"
aria-label="Drupal" role="img"
viewBox="0 0 512 512"><path
d="m0 0H512V512H0"
fill="#fff"/><path fill="#009cde"
d="M309.45 158.62c-23.84-23.84-46.71-46.59-53.45-72.35-6.74 25.64-29.61 48.4-53.45 72.35-35.87 35.75-76.44 76.32-76.44 137.23 0 71.74 58.14 129.88 129.89 129.88s130-58.14 130-129.89c0-60.91-40.8-101.48-76.55-137.23m-128.2 167.45c-7.95-.24-37.32-50.92 17.21-104.85l36.11 39.36c1.2 1.2 1.2 3.13 0 4.33-10.34 10.34-45.63 46.21-50.08 58.63-.96 2.65-2.41 2.53-3.25 2.53m30.1 22.15c0-11.31 4.45-21.43 11.07-29.49 8.07-9.87 33.59-37.56 33.59-37.56s25.04 28.17 33.47 37.44c7.34 8.06 11.31 18.66 11.19 29.61a44.66 44.66 0 01-89.32 0m124.65-22.02c-5.3.24-5.78-2.53-9.75-8.31-8.55-12.64-82.95-90.4-96.91-105.45-12.28-13.24-1.68-22.51 3.13-27.45 6-6 24-23.98 24-23.98s53 49.98 75.48 84.98c21 30 17 73.62 4 80"/></svg>