<svg xmlns="http://www.w3.org/2000/svg" xmlns:xlink="http://www.w3.org/1999/xlink"
aria-label="DuckDuckGo" role="img"
viewBox="0 0 512 512" fill="#fff"><rect
width="512" height="512"
rx="15%"/><g transform="matrix(2 0 0 2 256 256)"><circle r="108" fill="#d53"/><circle r="96" fill="none" stroke="#fff" stroke-width="7"/><path d="M-32-55C-62-48-51-6-51-6l19 93 7 3M-39-73h-8l11 4s-11 0-11 7c24-1 35 5 35 5" fill="#ddd"/><path d="M25 95S1 57 1 32c0-47 31-7 31-44S1-58 1-58c-15-19-44-15-44-15l7 4s-7 2-9 4 19-3 28 5c-37 3-31 33-31 33l21 120"/><path d="M25-1l38-10c34 5-29 24-33 23C0 7 9 32 45 24s9 20-24 9C-26 20-1-3 25-1" fill="#fc0"/><path d="M15 78l2-3c22 8 23 11 22-9s0-20-23-3c0-5-13-3-15 0-21-9-23-12-22 2 2 29 1 24 21 14" fill="#6b5"/><path d="M-1 67v12c1 2 17 2 17-2s-8 3-13 1-2-13-2-13" fill="#4a4"/><path d="M9-32c1-6 11-7 14-1-4-2-10-2-14 1m-32 0c-5-6-18-1-15 7 1-4 8-10 15-7m-2 26c-9 0-9-13 0-13s9 13 0 13m3-11c-2 0-2 3 0 3s2-2 0-2m42 6c-7 0-8-11 0-11s7 11 0 11m3-9c-2 0-2 3 0 3s1-3-1-3" fill="#148"/></g></svg>