<svg xmlns="http://www.w3.org/2000/svg"
aria-label="DuckDuckGo" role="img"
viewBox="-128 -128 256 256" fill="#fff"><path
d="m-128-128H128V128H-128"/><circle r="108" fill="#d53"/><circle r="96" fill="none" stroke="#fff" stroke-width="7"/><path d="M-12-57s-11-6-35-5c0-7 11-7 11-7l-11-4h8M-25 90-32 87-51-6S-62-48-32-55" fill="#ddd"/><path d="M-27 93-48-27s-6-30 31-33c-9-8-30-3-28-5s9-4 9-4l-7-4s29-4 44 15c0 0 31 9 31 46S1-15 1 32C1 57 25 95 25 95"/><path d="M25-1l38-10c34 5-29 24-33 23C0 7 9 32 45 24s9 20-24 9C-26 20-1-3 25-1" fill="#fc0"/><path d="M15 78l2-3c22 8 23 11 22-9s0-20-23-3c0-5-13-3-15 0-21-9-23-12-22 2 2 29 1 24 21 14" fill="#6b5"/><path d="M1 65S-2 76 3 78s13-5 13-1S0 81-1 79V67" fill="#4a4"/><path d="M14-16a6 6 0 110 1m6-3a2 2 0 100-1m-52 6a7 7 0 110 1m8-3a2 2 0 100-1M9-32c4-3 10-3 14-1-3-6-13-5-14 1m-32 0c-7-3-14 3-15 7-3-8 10-13 15-7" fill="#148"/></svg>