<svg xmlns="http://www.w3.org/2000/svg"
aria-label="Elementary OS" role="img"
viewBox="0 0 512 512"><rect
width="512" height="512"
rx="15%" fill="#fff"/><path d="M252 64a188 188 0 100 376 188 188 0 000-376zm0 16c78 0 146 53 165 126a279 279 0 01-120 126c-18 8-38 12-56 11-16 0-30-4-42-11 33-18 64-44 88-72 17-19 31-40 36-65 3-13 3-26 2-38-3-11-9-24-17-32-8-10-20-16-32-19-11-4-24-4-37-1-23 4-44 18-63 35-29 31-49 74-44 118a123 123 0 0029 71c-18 6-36 11-55 13A172 172 0 01252 80zm1 35c12 0 24 4 34 11 8 7 15 15 18 27 4 9 6 21 4 32-2 21-14 40-26 59a253 253 0 01-100 77c-8-7-14-14-19-24a99 99 0 01-11-60c1-21 8-41 18-59 11-21 26-42 47-53 12-7 23-10 35-10zm170 115l1 22a172 172 0 01-305 109c20-4 39-11 57-18a123 123 0 00111 14c28-10 52-27 73-46 25-24 46-52 63-81z"/></svg>