<svg xmlns="http://www.w3.org/2000/svg" aria-label="elementaryos" viewBox="0 0 512 512"><rect width="512" height="512" rx="15%" fill="#fff"/><svg version="1" viewBox="0 0 360 360" xmlns="http://www.w3.org/2000/svg" aria-label="elementaryos"><path d="M180 46a134 134 0 1 0 0 268 134 134 0 0 0 0-268zm0 11c56 0 104 38 118 90a199 199 0 0 1-86 90c-13 6-27 9-40 8-11 0-21-3-30-8 24-13 46-31 63-51 12-14 22-29 26-47 2-9 2-18 1-27-2-8-6-17-12-23-6-7-14-11-23-13-8-3-17-3-26-1-17 3-32 13-45 25-21 22-35 53-32 84a88 88 0 0 0 21 51c-13 4-26 8-39 9-12-18-19-40-19-64 0-68 55-123 123-123zm1 25c8 0 17 3 24 8 6 5 11 11 13 19 3 7 4 15 3 23-2 15-10 29-19 42a181 181 0 0 1-71 55c-6-5-10-10-14-17-7-13-10-28-8-43 1-15 6-29 13-42 8-15 19-30 34-38 8-5 16-7 25-7zm121 82l1 16a123 123 0 0 1-218 78c14-3 28-8 41-13a88 88 0 0 0 79 10c20-7 37-19 52-33 18-17 33-37 45-58z"/></svg></svg>