<svg xmlns="http://www.w3.org/2000/svg"
aria-label="Endeavour OS" role="img"
viewBox="0 0 512 512"><rect
width="512" height="512"
rx="15%"
fill="#fff"/><path d="M285.01 111.36c31.02 44.69 161.53 217.54 72.62 253.57-41.53 19.47-230.76-11.43-228.04-6.38l-24.37 41.01s145.92 6.7 258.59-8.8c160.85-22.03-33.12-232.09-78.73-279.2z" fill="#7f7fff"/><path d="M285.01 111.36C274.7 112.81 85.47 350.38 85.47 350.38s13.65 3.95 44.66 8.52c10.05-7.97 151.35-250.8 155.43-247.33-.08-.1-.2-.13-.36-.11z" fill="#ff7f7f"/><path d="M285.01 111.36C278.5 110.28 129.6 358.7 129.6 358.7s135.06 14.55 190.71 13.58c156.78-2.7 1.2-212-35.02-261.18a.3.3 0 0 0-.17-.09z" fill="#7f3fbf"/></svg>