<svg xmlns="http://www.w3.org/2000/svg"
aria-label="Espressif" role="img"
viewBox="0 0 512 512"><path
d="m0 0H512V512H0"
fill="#ff3034"/><path fill="#fff" d="M126 120.53a1 1 0 00266.53 266.52 1 1 0 1110.87 10.87A1 1 0 01115.14 109.66 1 1 0 01126 120.53m52.5 240.22a26 26 0 100 1M409 334A273 273 0 00177.5 102.5 150 150 0 00139 130v26a216 216 0 01217 216h26a111 111 0 0027-39M240 83l-4 12a298 298 0 01181 180l11-4A172 172 0 00240 83zm5 342a118 118 0 00-95-171 1 1 0 013-21 140 140 0 01120 177l31 9 26.5-10a195 195 0 00-163-230 1 1 0 10-18 131.5 63 63 0 0142 95.5l21 14z"/></svg>