<svg xmlns="http://www.w3.org/2000/svg"
aria-label="Espressif" role="img"
viewBox="0 0 512 512"><rect
width="512" height="512"
rx="15%"
fill="#ff3034"/><path fill="#fff" d="M126 120.53a188.46 188.46 0 0 0 266.53 266.52 7.69 7.69 0 1 1 10.87 10.87 203.83 203.83 0 0 1-288.26-288.26A7.69 7.69 0 0 1 126 120.53zm52.5 240.22a26 26 0 1 0 0 1M409 334a273 273 0 0 0-231.5-231.5A150 150 0 0 0 139 130v26a216 216 0 0 1 217 216h26a111 111 0 0 0 27-39M240 83l-4 12a298 298 0 0 1 181 180l11-4A172 172 0 0 0 240 83zm5 342a118 118 0 0 0-95-171 10.61 10.61 0 0 1 3-21 140 140 0 0 1 120 177l31 9 26.5-10a195 195 0 0 0-163-230 66.6 66.6 0 1 0-18 131.5 63 63 0 0 1 42 95.5l21 14z"/></svg>