<svg xmlns="http://www.w3.org/2000/svg"
aria-label="Etsy" role="img"
viewBox="0 0 512 512"
fill="#fff"><rect
width="512" height="512"
rx="15%"
fill="#fff"/><path fill="#f2521b" d="M218 137c0-4 2-6 8-6h94c17 0 25 14 31 40l5 20h16c2-59 5-86 5-86s-40 5-64 5H194l-64-2v17l22 4c16 2 19 6 20 20 0 0 1 41 1 108s-1 108-1 108c0 12-5 17-20 19l-22 4v17l64-2h107c24 0 81 2 81 2 1-14 10-82 11-89h-16l-16 36c-13 29-31 30-52 30h-61c-20 0-30-8-30-25v-93s46 0 60 1c12 .8 18 4 22 20l5 22h18l-1-53 2-54h-18l-6 24c-4 16-6 18-22 20-20 2-60 1-60 1V135"/></svg>