<svg xmlns="http://www.w3.org/2000/svg"
aria-label="Flatpak SVG Icon" role="img"
viewBox="0 0 512 512">
<path d="m0 0H512V512H0" fill="#fff"/>
<path fill="currentColor" d="M256 0c-11.861 0-23.701 3.072-34.347 9.216l-162.197 93.653a68.693 68.693 0 0 0-34.347 59.477v187.307c0 24.555 13.056 47.19 34.347 59.477l162.197 93.653a68.693 68.693 0 0 0 68.693 0l162.197-93.653a68.693 68.693 0 0 0 34.347-59.477V162.347a68.693 68.693 0 0 0-34.347-59.477L289.92-9.216A68.267 68.267 0 0 0 256 0zM256 50.304c3.2 0 6.379.832 9.195 2.453l162.219 93.653c2.816 1.643 5.12 3.989 6.72 6.741L256 256v205.696a18.347 18.347 0 0 1-9.195-2.475l-162.219-93.653a18.56 18.56 0 0 1-9.195-15.915V162.347c0-3.264.875-6.443 2.475-9.173L256 256z"/>
</svg>