<svg xmlns="http://www.w3.org/2000/svg"
aria-label="Figma" role="img"
viewBox="0 0 512 512"><path
d="M0 0H512V512H0"
fill="#fff"/><path fill="#0acf83" d="M196 436c33.12 0 60-26.88 60-60v-60H196c-33.12 0-60 26.88-60 60s26.88 60 60 60z"/><path fill="#a259ff" d="M136 256c0-33.12 26.88-60 60-60h60v120h-60c-33.12 0-60-26.88-60-60z"/><path fill="#f24e1e" d="M136 136c0-33.12 26.88-60 60-60h60v120h-60c-33.12 0-60-26.88-60-60z"/><path fill="#ff7262" d="M256 76h60c33.12 0 60 26.88 60 60s-26.88 60-60 60h-60V76z"/><path fill="#1abcfe" d="M376 256c0 33.12-26.88 60-60 60s-60-26.88-60-60 26.88-60 60-60 60 26.88 60 60z"/></svg>