<svg width="500" height="500" viewBox="0 0 500 500" fill="none" xmlns="http://www.w3.org/2000/svg">
<path d="M249.819 82.022C188.891 82.03 139.454 131.443 139.274 192.511C139.466 192.503 139.658 192.497 139.849 192.49C202.846 191.931 250.118 248.593 251.069 294.264C249.708 247.746 299.875 193.308 360.366 192.539C360.202 131.458 310.758 82.0279 249.818 82.022H249.819ZM360.366 192.539L360.376 192.839C283.823 196.305 250.515 260.843 250.832 294.035C251.44 357.583 217.596 413.514 134.414 413.863L361.771 413.013C422.832 413.014 472.331 364.506 472.331 303.304C472.33 242.102 422.831 192.489 361.771 192.49C361.303 192.503 360.835 192.52 360.367 192.539L360.366 192.539ZM250.74 294.038C249.164 250.294 208.438 193.247 139.259 192.839L139.274 192.511C78.4479 192.828 29.3017 242.335 29.2896 303.304C29.289 364.506 78.2359 414.074 133.815 413.844C232.42 413.436 252.317 337.782 250.74 294.038Z" stroke="#F2F3F5" stroke-width="35"/>
</svg>
