<svg width="512" height="512" viewBox="0 0 512 512" fill="none" xmlns="http://www.w3.org/2000/svg">
<rect width="512" height="512" rx="40" fill="#7EC4E7"/>
<path d="M254.822 86C192.432 86.0082 141.808 136.606 141.624 199.141C141.82 199.133 142.017 199.126 142.213 199.119C206.721 198.547 255.128 256.569 256.102 303.336C254.708 255.701 306.079 199.957 368.022 199.169C367.854 136.622 317.223 86.0061 254.821 86H254.822ZM368.022 199.169L368.033 199.476C289.642 203.026 255.534 269.113 255.859 303.101C256.482 368.175 221.825 425.447 136.647 425.805L369.461 424.935C431.987 424.935 482.675 375.264 482.674 312.592C482.673 249.922 431.986 199.118 369.461 199.119C368.981 199.132 368.502 199.149 368.023 199.169H368.022ZM255.765 303.104C254.151 258.31 212.448 199.894 141.608 199.476L141.624 199.141C79.3381 199.465 29.0124 250.16 29 312.592C28.9994 375.264 79.1211 426.02 136.034 425.785C237.005 425.367 257.38 347.898 255.765 303.104Z" stroke="#F2F3F5" stroke-width="35"/>
</svg>
