<svg width="512" height="512" fill="none" xmlns="http://www.w3.org/2000/svg"><rect width="512" height="512" rx="40" fill="#7EC4E7"/><path d="M255.105 106c-55.008.007-99.643 44.619-99.805 99.756.173-.008.346-.014.519-.02 56.876-.504 99.556 50.653 100.415 91.887-1.229-41.999 44.064-91.148 98.679-91.843-.149-55.147-44.789-99.775-99.809-99.78h.001Zm99.808 99.78.009.271c-69.116 3.13-99.189 61.398-98.902 91.365.549 57.375-30.008 107.871-105.108 108.187l205.269-.767c55.129 0 99.82-43.795 99.819-99.052-.001-55.255-44.691-100.049-99.819-100.048-.423.012-.845.027-1.268.044Zm-98.976 91.639c-1.423-39.495-38.193-91-100.651-91.368l.014-.295c-54.917.285-99.29 44.982-99.3 100.028 0 55.257 44.191 100.008 94.371 99.801 89.025-.368 106.99-68.672 105.566-108.166Z" stroke="#F2F3F5" stroke-width="35"/></svg>