<svg xmlns="http://www.w3.org/2000/svg" aria-label="Firebase" role="img" viewBox="0 0 512 512"><path fill="#fff" d="M0 0h512v512H0"/><path fill="#ff9100" d="M238 383c12 5 25 8 38 8 18 1 36-3 51-11-19-7-36-18-50-31-9 15-23 27-40 34"/><path fill="#ffc400" d="M277 349c-33-30-53-75-51-123l1-5c-6-1-12-2-18-3-9 0-18 1-26 3-9 16-14 33-15 52-2 49 28 92 71 109 16-7 30-19 40-34"/><path fill="#ff9100" d="M277 349c8-12 12-27 13-42 1-41-26-76-64-86v5c-2 48 18 93 51 123"/><path fill="#dd2c00" d="M286 107c-22 17-39 40-49 66-6 15-10 31-11 48 38 10 66 45 64 86-1 15-5 27-13 42 15 14 32 24 50 32 37-17 64-55 66-99 1-29-10-54-26-76-16-23-81-99-81-99"/></svg>