<svg xmlns="http://www.w3.org/2000/svg"
aria-label="Firefox" role="img"
viewBox="0 0 512 512"><path
d="m0 0H512V512H0"
fill="#fff"/><linearGradient id="a" x1=".7" x2=".3" y2=".8"><stop offset=".3" stop-color="#fd5"/><stop offset=".6" stop-color="#f85"/><stop offset="1" stop-color="#d06"/></linearGradient><radialGradient id="b" cx=".4" cy=".7"><stop offset=".4" stop-color="#74d"/><stop offset="1" stop-color="#a2d"/></radialGradient><linearGradient id="c" x1=".8" y1=".2" x2=".4" y2=".8"><stop offset=".2" stop-color="#fd5"/><stop offset="1" stop-color="#f33"/></linearGradient><g transform="scale(4)"><path d="M64 53S56 27 80 14c6 12 23 28 26 37 0-6-5-15-5-15A51 48 0 1114 68S38 35 47 33c-2 7 1 16 1 16" fill="url(#a)"/><circle cx="64" cy="67" r="26" fill="url(#b)"/><path d="M21 45l43 12c-6 11-16 3-23 14a22 22 0 1034-20s33 3 17 42H28m36 25h1" fill="url(#a)"/><path d="M35 43c16 0 12 7 29 14-18 6-23-9-38 0 5 9 12 8 12 8 1 43 72 29 67-17A50 46.6 47 0117 81c-9-18-1-40 16-51" fill="url(#c)"/></g></svg>