<svg xmlns="http://www.w3.org/2000/svg"
aria-label="Firebase" role="img"
viewBox="0 0 512 512"><path
d="m0 0H512V512H0"
fill="#fff"/><path fill="#ff9100" d="M200.9 422.7a139 139 0 0 0 112.3-2.8 201 201 0 0 1-62.8-39.4 105 105 0 0 1-49.5 42.2"/><path fill="#ffc400" d="M250.4 380.5a200 200 0 0 1-64.2-153.9l.3-6a107 107 0 0 0-55.8.7 141.4 141.4 0 0 0 70.2 201.4 105 105 0 0 0 49.5-42.2"/><path fill="#ff9100" d="M250.4 380.5a107 107 0 0 0-63.9-159.8l-.3 5.9a200 200 0 0 0 64.2 153.9"/><path fill="#dd2c00" d="M261.1 77.4a202 202 0 0 0-74.6 143.3 107 107 0 0 1 63.9 159.8c18.1 17 39.3 30 62.7 39.5 46.8-21.6 80-68.5 82-123.6 1.3-36-12.6-67.8-32.1-94.8-20.6-28.4-102-124.2-102-124.2"/></svg>