<svg xmlns="http://www.w3.org/2000/svg"
     aria-label="flask" role="img"
     viewBox="0 0 512 512">
    <path
            d="m0 0H512V512H0"
            fill="#fff"/>
    <g transform="translate(104 108)">
        <path fill="#5aacd3"
              d="M300 30v240a30 30 0 0 1-30 30H30a30 30 0 0 1-30-30V30A30 30 0 0 1 30 0h240a30 30 0 0 1 30 30"/>
        <path fill="#0b3f47"
              d="M300 239.2V270a30 30 0 0 0 0 1-3.3-43q0-1.7-.5-2.1zM66.9 127.9q1.2 1 3.3.3l.5-.2 1.3 5z"/>
        <path fill="#fff"
              d="M140.8 81.6c0-1.5-.2-2-1-2.5q-1.2-.7-3 0l-73.7 31.6q-1.6.8-2.6 2.4-.9 1.7-.2 3l6.1 11.3.1.1q1.3 1.6 3.7.7l.5-.2c1.9 8 5 18.1 9.3 25.3l64.1-28.7c-.9-8.3-3.4-32.3-3.3-43m5.1 52.5-61.8 27.6q5.4 10.6 13.6 21.3l54.4-27.8a209 209 0 0 1-6.2-21.1m93.2 65.9-4.3-6.7q-1.2-1.1-2.6-.6l-5.6 2.1q-1-1.1-2.6-.6l-5.5 2.1q-.8.4-.6 1.3l.3 1.7a59.5 59.5 0 0 1-62.2-35.5l-52.1 26.5a94 94 0 0 0 36.3 25.4c20.7 7.7 47 8.5 80.2-4.9l.2 1c.2 1 1.4 2.1 3.2  3.3-2.2 1.2-5.2"/>
    </g>
</svg>