<svg xmlns="http://www.w3.org/2000/svg"
aria-label="Floatplane" role="img"
viewBox="0 0 512 512"><rect
width="512" height="512"
fill="#0085ff"
rx="15%"/><g fill="#fff"><path d="m349.3 369a146.1 146.1 0 0 1 -206-206l-13.4-17a167.5 167.5 0 0 0 236.5 236.5z"/><path d="m209 118.6a148 148 0 0 1 46-7.3 146 146 0 0 1 146 146 148 148 0 0 1 -7.3 46l16.5 16.5a167.5 167.5 0 0 0 -218-218z"/><path d="m228.7 169-91-94-14.2 22a5.8 5.8 0 0 0 .5 6.7l79 101.3z"/><path d="m264.8 206.4-8.4-8.8 2.2-9a25.8 25.8 0 0 0 1-9 35.2 35.2 0 0 0 -4-10l-79.8 85.6s5.4 5.3 13.2-1c3.5-2.7 17.3-14 32-26.2l13.5 17.3z"/><path d="m199 293.2-36.6-27.5-6.7 11a3.2 3.2 0 0 0 .5 4l31 33.4z"/><path d="m219.7 314c13-10 31-23.7 47-36l18 14.2 29.7-36-10-9.5 3.2-11.3c1.6-5.7 2.2-10.2 1.7-13a48 48 0 0 0 -5.3-14.3l-117.7 117.7s3.7 3 11.3 0l33.2 30.7a3.6 3.6 0 0 0 4 .5l11.3-6.7z"/><path d="m342.7 283 2.2-9a19 19 0 0 0 1-7.3 37.5 37.5 0 0 0 -3.2-10l-85.6 79.8s5.3 5.4 13.4 0c4-2.7 20.8-14.5 37.7-26.6l100.5 78.2a5.8 5.8 0 0 0 6.7.5l22-14.2z"/></g></svg>