<svg xmlns="http://www.w3.org/2000/svg"
aria-label="freeCodeCamp" role="img"
viewBox="0 0 512 512"><rect
width="512" height="512"
rx="15%"
fill="#fff"/><path d="M376.8 128.6c-2.2 0-3.3 3.3-3.3 4.5 0 3.3 4.4 7.7 11 15.5 29 27.8 44.6 62.3 44.6 103.5 0 45.6-16.7 83.5-46.7 111.3-5.6 5.5-9 10-9 14.4l3.4 4.5a8.9 8.9 0 005.6 3.3c6.6 0 16.7-7.8 28.9-24.5 24.5-30 35.6-63.4 36.7-109 0-45.6-13.3-76.8-42.3-109-10-11.2-17.8-16.7-23.3-16.7-2 .1-4 .9-5.6 2.2zm-87.9 131.3c-11.1-2.2 33.4-55.6-46.7-119 0 0 11 33.3-42.3 107.9-52.3 74.5 23.4 118 23.4 118s-35.7-19 6.6-86.9c6.7-11.1 16.7-22.2 29-49 0 0 11 15.6 5.5 48-8.9 50 35.6 36.6 36.7 36.6 15.6 17.8-13.3 51.2-14.4 52.3s81.2-51.2 22.2-128c-4.4 4.5-10 23.4-21.1 20zM135.3 128.6a6.7 6.7 0 012.3 4.5c0 3.3-3.4 7.7-11.2 15.5A137.7 137.7 0 0083 252.1c0 45.6 15.6 82.3 45.7 111.3 6.6 5.5 8.9 11.1 8.9 13.3l-2.3 5.6a8.9 8.9 0 01-5.5 3.3c-7.8 0-16.7-8.9-30-24.5a164.7 164.7 0 01-35.7-109c0-45.6 13.4-76.8 41.2-109 11.1-11.2 19-16.7 24.5-16.7 2 .1 4 .9 5.5 2.2z" fill="#0a0a23"/></svg>