<svg xmlns="http://www.w3.org/2000/svg"
aria-label="Ghost" role="img"
viewBox="0 0 512 512">
  <path fill="#fff" d="M0 0h512v512H0z"/>
  <path fill="#15171A" d="M256 42.7c-117.4 0-213.3 95.9-213.3 213.3S138.6 469.3 256 469.3 469.3 373.4 469.3 256 373.4 42.7 256 42.7zm5.5 31.2c45.3.1 93.8 36.8 108 54.2l4.5 5.5c30 36.4 65.3 79.1 65.3 126.8 0 67.7-54.4 105.8-112.3 136.7-26.1 14-54.4 27.5-86.6 27.5-82.9 0-152.6-65.1-152.6-148 0-12.9 3.1-26 6.2-39.2 2.2-9.4 4.4-18.9 5.5-28.3 10-82.8 54.1-123.9 153.7-135.1 1.7-.2 3.2-.2 4.3-.1z"/>
</svg>