<svg xmlns="http://www.w3.org/2000/svg" aria-label="git" role="img" viewBox="0 0 512 512"><g transform="matrix(2,0,0,2.0000384,-0.0013929,-5.0001063e-8)"><path d="M251,117 139,5c-6,-6 -17,-6 -23,0L93,28 122,57c7,-2 15,-1 20,5 5,5 7,13 5,20l28,28c7,-2 15,-1 20,5 8,8 8,20 0,28 -8,8 -20,8 -28,0 -6,-6 -7,-14 -4,-21l-26,-26 -0.003,70c2,1 4,2 5,4 8,8 8,20 0,28 -8,8 -20,8 -28,0 -8,-8 -8,-20 0,-28 2,-2 4,-3 6,-4V94c-2,-1 -5,-2 -6,-4 -6,-6 -7,-14 -4,-21L81,39 5,116c-6,6 -6,17 0,23L117,251c6,6 17,6 23,0L251,140c6,-6 6,-17 0,-23" style="fill:#de4c36"/></g></svg>