<?xml version="1.0" encoding="UTF-8" standalone="no"?>
<svg xmlns="http://www.w3.org/2000/svg" aria-label="git" role="img" viewBox="-3 -2 512 512"><g><path d="M498,232 276,9c-12,-12 -34,-12 -46,0L184,55 242,113c14,-4 30,-2 40,10 10,10 14,26 10,40l56,56c14,-4 30,-2 40,10 16,16 16,40 0,56 -16,16 -40,16 -56,0 -12,-12 -14,-28 -8,-42l-52,-52 0,139c4,2 8,4 10,8 16,16 16,40 0,56 -16,16 -40,16 -56,0 -16,-16 -16,-40 0,-56 4,-4 8,-6 12,-8V186c-4,-2 -10,-4 -12,-8 -12,-12 -14,-28 -8,-42L160,77 9,230c-12,12 -12,34 0,46L232,498c12,12 34,12 46,0L498,278c12,-12 12,-34 0,-46" style="fill:#de4c36;stroke-width:2"/></g></svg>