<svg xmlns="http://www.w3.org/2000/svg" aria-label="git" role="img" viewBox="-3 -2 512 512"><g><path d="M438,240 270,71c-9,-9 -26,-9 -35,0l-35,35 44,44c11,-3 23,-2 30,8 8,8 11,20 8,30l42,42c11,-3 23,-2 30,8 12,12 12,30 0,42 -12,12 -30,12 -42,0 -9,-9 -11,-21 -6,-32L267,209v105c3,2 6,3 8,6 12,12 12,30 0,42 -12,12 -30,12 -42,0 -12,-12 -12,-30 0,-42 3,-3 6,-5 9,-6v-109c-3,-2 -8,-3 -9,-6 -9,-9 -11,-21 -6,-32l-44,-45 -114,116c-9,9 -9,26 0,35L236,442c9,9 26,9 35,0L438,275c9,-9 9,-26 0,-35" style="fill:#de4c36"/></g></svg>