<svg xmlns="http://www.w3.org/2000/svg"
aria-label="gitBook" role="img"
viewBox="0 0 65000 65000"><path
d="m0 0H512V512H0"
fill="#fff"/> <path d="M27396 34220c3129 1806 4694 2709 6412 2711s3284-899 6417-2699l19967-11477a2906 2906 0 00 0-5036L40218 6236c-3129-1799-4693-2698-6410-2697s-3280 901-6408 2702l-17170 9888-250 145A19278 19278 0 00 440 32772v578a19280 19280 0 00 9520 16487l250 145 10756 6210c6267 3620 9401 5428 12842 5430s6576-1807 12846-5420l11354-6546c3139-1810 4709-2715 5570-4206s863-3304 863-6927v-7000a2770 2770 0 00-4152-2402L37007 42502c-1562 898-2343 1347-3200 1347s-1638-450-3201-1348l-15758-9045c-790-453-1184-680-1501-721a1607 1607 0 00-1693 986c-121 296-118 751-113 1661 4 670 5 1005 68 1313a3220 3220 0 00 1033 1780c237 206 527 373 1107 708l16848 9724c1567 903 2350 1355 3210 1356s1644-452 3210-1355l20650-11905c536-309 804-463 1005-347s200 425 200 1043v3175c0 906 0 1360-214 1732s-608 600-1393 1052l-17032 9820c-3136 1810-4703 2712-6424 2711s-3288-903-6422-2713L11450 44270l-100-58a10942 10942 0 01-5422-9394v-3030a5990 5990 0 01 2985-5182 5274 5274 0 01 5283-5l13200 7618" fill="#181c1f"/></svg>
