<svg xmlns="http://www.w3.org/2000/svg"
aria-label="Gitea" role="img"
viewBox="0 0 512 512"><rect
width="512" height="512"
rx="15%"
fill="#fff"/><path fill="none" stroke="#428F29" stroke-miterlimit="15.1" stroke-width="3.8" d="M209 8c-34 0-63-2-119-5L63 2C36 2 0 21 2 69c3 75 71 82 99 83 3 14 35 62 59 65h104c63-5 109-213 75-214-58 3-92 5-121 5M70 28c3 39 10 61 22 96-32-5-59-15-64-54-3-21 7-42 42-42z"/><path fill="#609926" d="M339 3c-58 3-92 5-121 5v65l-9-4V8c-34 0-63-2-119-5L63 2C36 2 0 21 2 69c3 75 71 82 99 83 3 14 35 62 59 65h104c63-5 109-213 75-214zM28 70c-3-21 7-42 42-42 3 39 10 61 22 96-32-5-59-15-64-54zm236 48l-29 60c-3 7-13 10-20 7l-60-29c-8-4-11-13-8-21l30-60c3-8 13-11 20-7l11 5-8 16a10 10 0 00-7 16l-14 27a10 10 0 00-9 14 10 10 0 1016-11l13-27a10 10 0 008-2l1 1c10 5 16 7 17 11 2 4-3 13-11 29v1a10 10 0 103 19 10 10 0 004-16c10-20 14-29 11-36-2-6-9-9-21-15l-1-1a10 10 0 00-3-7l8-16 42 21c8 4 11 13 7 21z"/></svg>
