<svg xmlns="http://www.w3.org/2000/svg"
aria-label="Gitea" role="img"
viewBox="0 0 512 512"><rect
width="512" height="512"
rx="15%"
fill="#fff"/><path fill="#609926" d="M418.773 149.5c-58 3-92 5-121 5v65l-9-4v-61c-34 0-63-2-119-5l-27-1c-27 0-63 19-61 67 3 75 71 82 99 83 3 14 35 62 59 65h104c63-5 109-213 75-214zm-311 67c-3-21 7-42 42-42 3 39 10 61 22 96-32-5-59-15-64-54zm236 48l-29 60c-3 7-13 10-20 7l-60-29c-8-4-11-13-8-21l30-60c3-8 13-11 20-7l11 5-8 16c-5.497.533-9.521 5.421-8.989 10.918a9.994 9.994 0 001.989 5.082l-14 27c-5.522.091-9.925 4.641-9.834 10.163.022 1.321.305 2.626.834 3.837 1.946 5.169 7.714 7.781 12.883 5.834s7.781-7.714 5.834-12.883a10 10 0 00-2.717-3.952l13-27c2.83.515 5.745-.214 8-2l1 1c10 5 16 7 17 11 2 4-3 13-11 29v1c-5.483-.666-10.467 3.239-11.132 8.722s3.239 10.467 8.722 11.132a10.009 10.009 0 005.41-.854c5.176-1.926 7.81-7.684 5.884-12.86a9.99 9.99 0 00-1.884-3.14c10-20 14-29 11-36-2-6-9-9-21-15l-1-1a10.001 10.001 0 00-3-7l8-16 42 21c8 4.001 11 13.001 7 21.001z"/></svg>