<svg xmlns="http://www.w3.org/2000/svg"
aria-label="Gitpod" role="img"
viewBox="0 0 512 512"><rect
width="512" height="512"
rx="15%"
fill="#fff"/><defs><linearGradient id="a" x1="27" y1="6" x2="8" y2="35" gradientUnits="userSpaceOnUse"><stop offset="0" stop-color="#FFB45B"/><stop offset="1" stop-color="#FF8A00"/></linearGradient></defs><path fill-rule="evenodd" clip-rule="evenodd" d="M21.4 2c1 1.9.4 4.3-1.5 5.4L8.3 14.1c-.3.2-.5.5-.5.9v10.5c0 .4.2.7.5.9l9.2 5.3c.3.2.7.2 1 0l9.2-5.3c.3-.2.5-.5.5-.9V19l-8.3 4.7c-1.9 1.1-4.3.4-5.3-1.5-1.1-1.9-.4-4.3 1.5-5.4L28 10.1c3.5-2.1 8 .5 8 4.7v11.56c0 2.64-1.4 5.24-3.8 6.54L21.7 39c-2.3 1.3-5.1 1.3-7.4 0L3.7 32.9C1.4 31.5 0 29 0 26.3V14.2C0 11.5 1.4 9 3.7 7.6L16 .5C18-.6 20.3.1 21.4 2Z" fill="url(#a)" transform="matrix(9.6 0 0 9.6 83 64)"/></svg>