<svg xmlns="http://www.w3.org/2000/svg" viewBox="0 0 512 512">
  <defs>
    <linearGradient id="a" x1="257.35" x2="257.35" y1="440.43" y2="306.13" gradientTransform="matrix(1 0 0 -1 0 511.89)" gradientUnits="userSpaceOnUse">
      <stop offset="0" stop-color="#e559ff"/>
      <stop offset="1" stop-color="#924dff"/>
    </linearGradient>
    <linearGradient id="b" x1="167.57" x2="360" y1="364.52" y2="236.07" gradientTransform="matrix(1 0 0 -1 0 511.89)" gradientUnits="userSpaceOnUse">
      <stop offset=".1" stop-color="#f1a5ff"/>
      <stop offset=".89" stop-color="#ff686c"/>
    </linearGradient>
    <linearGradient id="c" x1="257.03" x2="257.03" y1="267.67" y2="171.33" gradientTransform="matrix(1 0 0 -1 0 511.89)" gradientUnits="userSpaceOnUse">
      <stop offset="0" stop-color="#6f3cff"/>
      <stop offset="1" stop-color="#3633ff"/>
    </linearGradient>
    <linearGradient id="d" x1="234.34" x2="325.75" y1="184.4" y2="74.79" gradientTransform="matrix(1 0 0 -1 0 511.89)" gradientUnits="userSpaceOnUse">
      <stop offset="0" stop-color="#f1a5ff"/>
      <stop offset=".99" stop-color="#ff686c"/>
    </linearGradient>
  </defs>
  <rect width="512" height="512" fill="#fff" rx="76.8"/>
  <path fill="url(#a)" d="M490.62 148.32c3.72-14.55 2.08-29.69 0-30.73-5.49-3.42-66.65 27.17-80.31 24.49-33.25-6.08-27.16-9.5-71.4-19.74-17.67-4-15-2.08-19-4.75-6.83-2.67-12.18-8.17-15.59-14.25C296.16 91.17 207.83 72 201.59 72c-12.17 0-35.33 31.32-35.33 31.32s-8.9 0-35.33 1.33-49.58 12.92-81.65 37.41c-31.91 24.65-27.16 49-27.16 49s26.88 8.77 29.09 14.26h257.12v-13.65l114.45-.6h63c-2.53-10.09-6.54-19.15-.45-29.24a50.93 50.93 0 005.29-13.51z"/>
  <path fill="url(#b)" d="M485.28 214.23a29 29 0 001.93-7.42 38.74 38.74 0 00-1.48-15.59h-63a7.13 7.13 0 01-3.56 0H308.48v14.25H51.21a1.34 1.34 0 01.15.74 1.35 1.35 0 01-.15.75c-1.93 5.19-25.68 10.83-25.68 10.83 14.55 18.41 55.82 35.63 74.52 39.49l107 .59v-13.65h166.6v5.19c19.59-5.94 31.62-10.83 37.41-11.87 10.83-2.68 76.89 28.5 80.31 21.08a4.3 4.3 0 00.29-1.34l.15-1c-.15-8.2-13.95-22.9-6.53-42.05z"/>
  <path fill="url(#c)" d="M244.5 340.12v14.25H50.62a3.26 3.26 0 00-.45-2.68c-1.63-1.93-6.08-4.3-13.8-7.27-7-2.82-14.85-5.64-14.85-5.64s-4.9-24.49 27.17-49a183.63 183.63 0 0148.54-29.38c2.23-.89 4.31-1.78 6.53-2.53-1-.14-2.37-.29-3.71-.59l107 .59v-13.65h166.6v5.19a540.27 540.27 0 01-58.49 14c2.08.74 3.41 2.08 4.75 2.67 3.86 2.52 1.63.89 16 4a28.54 28.54 0 013 .74c44.24 10.24 38.15 13.66 71.4 19.74 13.66 2.68 74.82-27.91 80.31-24.49 2.68 1.34 4.76 27.17-5.49 44.24-6.08 10.24-1.93 19.59.6 30h-61.46z"/>
  <path fill="url(#d)" d="M491.37 401.72c-2.38-8.46-12.77-22-6.09-39.19 3.27-8.31 2.23-15.59.59-22.41H244.5v14.25h-194c-1.93 5.19-25.68 10.83-25.68 10.83 16.33 20.34 68 40.08 80.31 40.08a148 148 0 0038.75-2.67h2.67l-.74.74s12.17 28.51 38.74 34c12.92 3.41 26.57 3.41 40.08 1.34 4.75 0 9.5 0 14.25-1.34.75-7.42-.74-14.25-3.41-21.08 19 .74 37.41 0 58.49-1.34 70.66-10.24 106.14-26.57 117-29.24s76.89 28.5 80.31 21.08c.73-1.49.54-3.12.1-5.05z"/>
  <path fill="#fff" d="M124.84 166a21.91 21.91 0 01-22 22c-5.19 0-10.09-1.18-13.8-4.3a23.55 23.55 0 01-8.17-17.81c0-6.24 2.82-11.29 7-15.29s9.06-6.69 15-6.69A22.24 22.24 0 01124.84 166z"/>
  <path fill="#020202" d="M115.34 165.84a17.23 17.23 0 01-17.07 17.36 19.55 19.55 0 01-11.87-4.15c-3.57-3.27-5.05-8-5.05-13.21 0-4.31 2.08-8 4.6-11 3.12-3.71 7.13-6.38 12.32-6.38a17.23 17.23 0 0117.07 17.38z"/>
  <circle cx="90.11" cy="172.37" r="5.49" fill="#fff"/>
  <path fill="#fff" d="M124.84 315.32a21.91 21.91 0 01-22 22c-5.19 0-10.09-1.18-13.8-4.3a23.55 23.55 0 01-8.17-17.81c0-6.24 2.82-11.29 7-15.29s9.06-6.68 15-6.68a22 22 0 0121.97 22.08z"/>
  <path fill="#020202" d="M115.2 315a17.24 17.24 0 01-17.08 17.4 19.56 19.56 0 01-11.87-4.16c-3.71-3.12-5-7.87-5-13.21 0-4.31 2.08-8 4.6-11 3.12-3.71 7.13-6.38 12.32-6.38A17.24 17.24 0 01115.2 315z"/>
  <circle cx="90.11" cy="321.56" r="5.49" fill="#fff"/>
  <path fill="#f1a5ff" d="M424.42 180.53c-1.93-1.19-48.7-28.2-113-40.52-63.84-12.33-116.83-12-117.28-12a6 6 0 00-5.94 5.94 5.75 5.75 0 003 5.05 79.55 79.55 0 018.17 26.27c1.63 12.92-.15 27.17-1.78 33.11-.6 2.37-1.34 4.75-2.08 7.12h10.83c.45-1.48.89-3 1.19-4.45a110.06 110.06 0 001.93-37 92.58 92.58 0 00-6.53-23.9 673.41 673.41 0 01106.14 11.73c62.2 12 108.81 38.9 109.26 39.19a5.17 5.17 0 003 .74 6 6 0 005.19-3 6.1 6.1 0 00-2.1-8.28z"/>
  <path fill="#974dff" d="M189 223c-.59 1.33-1 2.67-1.48 3.71a5.16 5.16 0 003 6.68 4.34 4.34 0 001.93.3 5.29 5.29 0 004.9-3.27c.44-1 .89-2.23 1.48-3.56 2.23-5.35 5.2-12.92 7.87-21.68h-10.9c-2.52 7.27-5.04 13.36-6.8 17.82z"/>
  <path fill="#f1a5ff" d="M184.52 173c-.59-11.43-5.94-26-13.51-36.81a5.23 5.23 0 00-8.61 5.93c6.39 9.36 11.14 22.12 11.73 31.62.74 11.88-2.38 21.83-6.09 31.92h11.14c3.41-9.99 6.08-20.53 5.34-32.66z"/>
  <path fill="#974dff" d="M169.68 215.42a4.46 4.46 0 001.93.29 5.3 5.3 0 004.9-3.26c.89-2.23 1.78-4.6 2.67-7H168a21 21 0 00-1.18 3.27 5.13 5.13 0 002.86 6.7z"/>
  <path fill="#f1a5ff" d="M424.27 330.76c-1.93-1.18-49.44-27.76-113.71-40.23-63.84-12.32-116.83-12-117.28-12a6 6 0 00-5.94 5.94 5.75 5.75 0 003 5 80.9 80.9 0 018.17 26.28c1.63 12.91-.15 27.17-1.79 33.1-.44 1.93-1 3.72-1.48 5.5h10.84a21 21 0 00.74-2.82 110.06 110.06 0 001.93-37 92.58 92.58 0 00-6.53-23.9 673.53 673.53 0 01106.14 11.73c62.2 12 109.7 38.6 110.15 38.89a5.17 5.17 0 003 .75 6 6 0 005.19-3c1.43-3 .54-6.75-2.43-8.24z"/>
  <path fill="#373fff" d="M188.08 373.67c-.59 1.33-1 2.67-1.48 3.71a5.16 5.16 0 003 6.68 4.46 4.46 0 001.93.29 5.28 5.28 0 004.9-3.26c.44-1 .89-2.23 1.48-3.57a239.82 239.82 0 008.32-23.15h-10.87c-2.53 7.72-5.36 14.4-7.28 19.3z"/>
  <path fill="#f1a5ff" d="M183.78 323.64c-.59-11.43-5.94-26-13.51-36.82a5.23 5.23 0 00-8.61 5.94c6.38 9.35 11.13 22.12 11.73 31.62.59 11.13-2.08 20.78-5.49 30.14h11c3.1-9.52 5.47-19.45 4.88-30.88z"/>
  <path fill="#373fff" d="M168.93 366a4.5 4.5 0 001.93.29 5.29 5.29 0 004.9-3.26c1-2.82 2.23-5.79 3.27-8.76H168c-.59 1.63-1.18 3.26-1.93 4.9a5.09 5.09 0 002.86 6.83z"/>
</svg>
