<svg xmlns="http://www.w3.org/2000/svg" viewBox="0 0 512 512"><rect width="512" height="512" rx="76.8" style="fill:#fff"/><path d="M428.68,306.41c-2.85-9.5-3.8-7.6,1.9-20.91a45.2,45.2,0,0,0,3.68-18,4.43,4.43,0,0,0-4.48-4.4,4.24,4.24,0,0,0-1.75.38c-8.73,3.79-25.38,11-33.56,14.4-11.41,4.75-23.76,6.65-38,1.9s-34.93-15.45-53.94-19.73c-12.72-2.86-20.87-5.36-34.12-6.8,2.37-.23,17.49-3.18,32.7-7.7a467.44,467.44,0,0,0,44-16.14c17.1-7.61,28.51-5.71,40.85-1,7.48,2.88,21.88,9.57,32.12,14.42,4.11,1.94,10.09-1.86,8.12-5.95-3.64-7.51-4.59-20.35.16-28.9,5.4-9.72,4.28-11.87,1.43-21.37s-3.8-7.6,1.89-20.91a45,45,0,0,0,3.64-15.71,5.77,5.77,0,0,0-8-5.5c-9,3.93-24.09,10.42-31.74,13.61-11.4,4.75-23.76,6.65-38,1.9l-58-19.35a5.57,5.57,0,0,1-2.83-2.08c-2.51-3.55-9.31-12.42-16.11-14.69-8.55-2.85-39.91-12.33-51.31-14.25s-19-4.75-24.72,1.9c-4.21,4.93-10.9,12.89-14.12,16.73a5.77,5.77,0,0,1-4.69,2c-9.34-.43-40.33-.44-70.53,15.45-26.81,14.12-33.62,36.08-35.35,46.45a5.68,5.68,0,0,0,4.66,6.52h.09c8,1.27,22,4.3,21.82,9.75-.14,4.19-6.85,7.23-12.85,9.11a5.75,5.75,0,0,0-2,9.8c9.1,7.95,27.69,20.07,59.05,25.83a133.18,133.18,0,0,0-34.45,12.25C86.18,280.21,80,303.41,78.59,313.2a4.51,4.51,0,0,0,3.76,5.13h0c7.66,1.16,23.15,4.2,23,9.93-.15,4.67-8.45,7.9-14.8,9.7a4.45,4.45,0,0,0-1.86,7.55c10,9.31,34.59,26.82,81.55,30.27,7.2.53,15,.74,23,.73,6.83,9,19.14,21.62,37.15,25.82,13.63,3.19,22.06,2.47,27,1.05a5.39,5.39,0,0,0,3-8L247.23,374c11.12-.92,19-1.78,20.6-1.95a5,5,0,0,0,.56-.11c4.4-1.1,61.22-15.43,77.66-22.74,17.11-7.6,28.51-5.7,40.87-1,8,3.09,24.12,10.61,34.38,15.49,3.35,1.58,7.4-1.43,6.26-4.94-2.63-8.16-3.57-23.36-.25-31C431.72,317.6,431.53,315.91,428.68,306.41Z" transform="translate(0 0)" style="fill:#333"/><ellipse cx="133.81" cy="301.72" rx="11.05" ry="12.36" style="fill:#fff"/><ellipse cx="133.93" cy="184.29" rx="11.05" ry="12.36" style="fill:#fff"/><path d="M188.07,310.36c-.91,12.93-2,17.53-6.28,27.33a7,7,0,0,1-6.36,4.11,6.78,6.78,0,0,1-2.8-.6,7,7,0,0,1-3.58-9.05c3-7.55,4.34-11,5.17-22.78.56-8.11-4-14.85-7.4-19.22a6.94,6.94,0,0,1,10.87-8.63l.19.23C187.12,293.39,188.51,303.73,188.07,310.36Z" transform="translate(0 0)" style="fill:#fff"/><path d="M188.19,188.5c-.91,12.94-2,17.53-6.28,27.33a6.93,6.93,0,0,1-6.36,4.11,6.78,6.78,0,0,1-2.8-.6,7,7,0,0,1-3.58-9c3-7.56,4.34-11,5.17-22.78.56-8.12-4-14.86-7.4-19.22a6.95,6.95,0,0,1,10.87-8.64l.18.23C187.23,171.54,188.63,181.88,188.19,188.5Z" transform="translate(0 0)" style="fill:#fff"/><path d="M214.13,152.9h0a449.27,449.27,0,0,1,57.42,5.79c27.49,4.82,59.19,15.23,62.7,16.4a6.47,6.47,0,0,1-2,12.6,6.37,6.37,0,0,1-2-.34c-.34-.1-33.64-11.15-60.84-15.92A437.19,437.19,0,0,0,214,165.82a6.46,6.46,0,1,1,.14-12.92Z" transform="translate(0 0)" style="fill:#fff"/><path d="M214.16,268.34h0a449.31,449.31,0,0,1,57.41,5.8c27.49,4.82,59.2,15.23,62.71,16.39a6.47,6.47,0,0,1-2,12.61,6.37,6.37,0,0,1-2-.34c-.34-.11-33.63-11.16-60.84-15.92A435.36,435.36,0,0,0,214,281.27a6.47,6.47,0,0,1,.15-12.93Z" transform="translate(0 0)" style="fill:#fff"/></svg>