<svg xmlns="http://www.w3.org/2000/svg"
aria-label="Glitch" role="img"
viewBox="0 0 512 512"><rect
width="512" height="512"
rx="15%"
fill="#fff"/><mask id="a"><path fill="#fff" d="M238 381c12 41-57 16-70-10-24 1-39 5-66-10-58-31-8-16-10-31-4-4-24-10-22-10-4-27 45-57 64-63-11-1-56-20-60-32 5-1 23-6 18-10-4-5-24-11-22-10-5-28 48-59 65-64 37-10 46 2 53-12 22-26 24-15 54-10 36 7 44 14 60 28 87 21 54 29 126 1 18-8 6 24 0 43 9 27-4 44 6 59 5 10-1 9-14 5-64-26-53-8-120 7 95 26 61 25 132 1 17-3-10 44-1 57-4 53 13 54-2 53-15-3-49-18-56-17-5 2-97 31-135 25"/></mask><g mask="url(#a)"><path d="M0 0h512v512H0" fill="#f87"/><path d="M0 112h462l1 94H294v10H0m0 114h245v-8h217v-61H346v-14H215v11L0 257" fill="#31f"/></g><g id="b"><circle r="17" cy="185" cx="134" fill="#fff"/><path d="M121 193a14 14 0 111 1 5 5 0 10-1-1"/><path stroke-width="8" stroke-linejoin="round" stroke-linecap="round" stroke="#c5f" fill="none" d="M381 200c-67-42-176-39-176-39s15 34-2 72M183 165s18 33 3 55"/></g><use y="116" href="#b"/></svg>
