<svg xmlns="http://www.w3.org/2000/svg" role="img" aria-label="Gmail" viewBox="0 0 512 512"><rect width="512" height="512" rx="15%" fill="#fff"/><rect width="360.041" height="267.049" x="75.777" y="122.563" ry="25.32" fill="#d54c3f"/><path fill="#eaeaea" d="M124.5 123.83h274.5v265.8H124.5z"/><path d="M233.36 304.9l-108.87 84.681.00-192.5 108.8 107.8" fill="#e3e3e3"/><path d="M317.3 389.6L92.2 164.5l307.6-7.3-.9 232z" opacity=".1"/><path d="M98.4 122.66L260.7 242.7l149.4-120z" fill="#efefef"/><path d="M426 163a22 22 0 1 0-26-37L258 231l-.015-.015-.0L115 126a22 22 0 0 0-25 36l-.6-.4 169 123m169-123l-169 123" fill="#de5145"/></svg>