<svg xmlns="http://www.w3.org/2000/svg"
aria-label="Gmail" role="img"
viewBox="0 0 512 512"><rect
width="512" height="512"
rx="15%"
fill="#fff"/><rect width="362" height="272" x="75" y="120" fill="#f2f2f2" rx="8%"/><path fill="#d54c3f" d="M120 392H97c-12 0-22-10-22-23V143h45z"/><path fill="#b63524" d="M392 392h23c12 0 22-10 22-23V143h-45z"/><path fill-opacity=".05" d="M256 286L120 392V187z"/><path fill-opacity=".08" d="M82 159l235 233h75V159z"/><path stroke-linecap="round" fill="none" stroke="#de5145" stroke-width="45" d="M97 143l159 115 159-115"/><path fill="#f2f2f2" d="M415 120c-5 0-10 2-13 4L256 230 110 124c-3-2-8-4-13-4z"/></svg>