<svg viewBox="0 0 512 512" xmlns="http://www.w3.org/2000/svg"><rect fill="#fff" height="512" rx="15%" width="512"/><rect fill="#f2f2f2" height="272" rx="8%" width="362" x="75" y="120"/><path d="m120 392h-23c-12 0-22-10-22-23v-226h45z" fill="#d54c3f"/><path d="m392 392h23c12 0 22-10 22-23v-226h-45z" fill="#b63524"/><path d="m256 286-136 106v-205z" fill-opacity=".05"/><path d="m82 159 235 233h75v-233z" fill-opacity=".08"/><path d="m97 143 159 115 159-115" fill="none" stroke="#de5145" stroke-linecap="round" stroke-width="45"/><path d="m415 120c-5 0-10 2-13 4l-146 106-146-106c-3-2-8-4-13-4z" fill="#f2f2f2"/></svg>