<svg xmlns="http://www.w3.org/2000/svg" role="img" aria-label="Gmail" viewBox="0 0 512 512"><rect width="512" height="512" rx="15%" fill="#fff"/><rect width="360.041" height="267.049" x="75.777" y="122.563" ry="25.32" fill="#d54c3f"/><path fill="#eaeaea" d="M124.491 123.83h274.441v265.779H124.491z"/><path d="M233.36 304.911l-108.87 84.681.008-192.512 108.84 107.802" overflow="scroll" fill="#e3e3e3"/><path d="M317.327 389.636L92.17 164.55l307.687-7.305-.925 232.364z" overflow="scroll" opacity=".09"/><path d="M98.427 122.66L260.8 242.7l149.4-120.0z" fill="#efefef"/><path d="M426.7 162.9a22 22 0 1 0-25.5-36.5L258.1 230.5l-.015.1-.02-.007L115 126.405a22.3 22 0 0 0-25.5 36.5l-.593-.4 169.2 123.2m169.22-123.2l-170 124" fill="#de5145"/></svg>