<svg xmlns="http://www.w3.org/2000/svg"
aria-label="Godot" role="img"
viewBox="0 0 512 512"><path
d="m0 0H512V512H0"
fill="#fff"/><g id="a"><path d="m257 435c-83 0-168-23-169-87V218Q77 205 64 184q13-22 34-45 18 9 34 20 19-17 36-27-3-18-3-42Q189 79 217 73q10 17 19 37 9-2 21-2v135a12 11 0 00-13 11v35a12 11 0 0013 11m-90-79a38 37 0 101 0" fill="#478cbf"/><circle cx="171" cy="261" r="25" fill="#414042"/><path d="m87 326 63 6 2 33 66 5 5-32h35" fill="none" stroke="#fff" stroke-linejoin="round" stroke-width="13"/></g><use href="#a" x="-512" transform="scale(-1,1)"/></svg>