<svg xmlns="http://www.w3.org/2000/svg"
aria-label="Godot" role="img"
viewBox="0 0 512 512"><rect
width="512" height="512"
rx="15%"
fill="#fff"/><path d="m220.6 91.9a200 200 0 00-46.4 15.9 210 210 0 002.9 38.2 160 160 0 00-33 24.2 210 210 0 00-30.9-18 200 200 0 00-31.2 40.9 210 210 0 0021.3 30.4v117c0 53.7 68.1 79.5 152.7 79.8s152.8-26.1 152.8-79.8v-117a210 210 0 0021.2-30.4 200 200 0 00-31.2-40.9 210 210 0 00-30.9 18 160 160 0 00-33-24.2 210 210 0 002.9-38.2 200 200 0 00-46.4-15.9 210 210 0 00-17.2 33.5 150 160 0 00-36.4 0 210 210 0 00-17.2-33.5z" fill="#478cbf"/><path d="m176 227a1 1 0 000 68.1 1 1 0 000-68.1zm160 0a1 1 0 000 68.1 1 1 0 000-68.1zm-91.1 61.3a1 1 0 0022 0v-31.4a1 1 0 00-22 0z" fill="#fff"/><path d="m179 240a1 1 0 000 45.2 1 1 0 000-45.2m154 0a1 1 0 000 45.2 1 1 0 000-45.2z" fill="#414042"/><path d="m103 322h.7l55.9 5.6 2 30.2 60.2 4.3 4.2-28.6 59.6-.1 4.2 28.6 60.2-4.2 2.1-30.2 55.8-5.6h.6" fill="none" stroke="#fff" stroke-linejoin="round" stroke-width="12.4"/></svg>