<svg xmlns="http://www.w3.org/2000/svg" aria-label="Gojek" role="img" viewBox="0 0 512 512">
<rect width="512" height="512" rx="15%" fill="#fff"/>
<path d="m191.87 261.35c0-35.274 28.703-63.879 64.135-63.879 35.42 0 64.135 28.593 64.135 63.879 0 35.298-28.703 63.891-64.123 63.891-35.432 0-64.147-28.605-64.147-63.879" fill="#00AA13"/>
<path d="m255.99 91.016c-94.438 0-170.99 76.264-170.99 170.35 0 70.621 42.81 130.91 104.97 157.14a32.037 32.037 0 0 0 43.811-23.17 31.915 31.915 0 0 0-19.054-35.75v-0.01221c-38.523-16.086-65.601-53.985-65.601-98.212 0-58.81 47.842-106.48 106.88-106.48s106.9 47.671 106.9 106.48c0 44.214-27.078 82.126-65.613 98.2v0.02443a31.915 31.915 0 0 0 12.348 61.387 33.185 33.185 0 0 0 12.385-2.4794c62.156-26.235 104.98-86.535 104.98-157.14 0-94.096-76.569-170.36-171.01-170.36" fill="#00AA13"/>
</svg>