<?xml version="1.0" encoding="UTF-8" standalone="no"?>
<svg
   xmlns:dc="http://purl.org/dc/elements/1.1/"
   xmlns:cc="http://creativecommons.org/ns#"
   xmlns:rdf="http://www.w3.org/1999/02/22-rdf-syntax-ns#"
   xmlns:svg="http://www.w3.org/2000/svg"
   xmlns="http://www.w3.org/2000/svg"
   xmlns:sodipodi="http://sodipodi.sourceforge.net/DTD/sodipodi-0.dtd"
   xmlns:inkscape="http://www.inkscape.org/namespaces/inkscape"
   aria-label="Gojek"
   role="img"
   viewBox="0 0 512 512"
   version="1.1"
   id="svg8"
   sodipodi:docname="gojek.svg"
   inkscape:version="0.92.4 5da689c313, 2019-01-14">
  <metadata
     id="metadata14">
    <rdf:RDF>
      <cc:Work
         rdf:about="">
        <dc:format>image/svg+xml</dc:format>
        <dc:type
           rdf:resource="http://purl.org/dc/dcmitype/StillImage" />
      </cc:Work>
    </rdf:RDF>
  </metadata>
  <defs
     id="defs12" />
  <sodipodi:namedview
     pagecolor="#ffffff"
     bordercolor="#666666"
     borderopacity="1"
     objecttolerance="10"
     gridtolerance="10"
     guidetolerance="10"
     inkscape:pageopacity="0"
     inkscape:pageshadow="2"
     inkscape:window-width="1634"
     inkscape:window-height="995"
     id="namedview10"
     showgrid="false"
     inkscape:zoom="0.4609375"
     inkscape:cx="256"
     inkscape:cy="256"
     inkscape:window-x="46"
     inkscape:window-y="27"
     inkscape:window-maximized="1"
     inkscape:current-layer="svg8" />
  <rect
     width="512"
     height="512"
     fill="#fff"
     rx="15%"
     id="rect2" />
  <circle
     cx="255.22571"
     cy="260.7359"
     r="64"
     id="circle4"
     style="fill:#00aa13" />
  <path
     d="m 255.2257,90.735903 a 171,171 0 0 0 -66,327.999997 32,32 0 0 0 44,-24 32,32 0 0 0 -19,-35 106,106 0 0 1 41,-205 107,107 0 0 1 41,205 32,32 0 0 0 13,61 33,33 0 0 0 12,-3 170,170 0 0 0 -66,-326.999997"
     id="path6"
     inkscape:connector-curvature="0"
     style="fill:#00aa13" />
</svg>
