<svg xmlns="http://www.w3.org/2000/svg" aria-label="Google Calendar" role="img" viewBox="0 0 512 512"><rect width="512" height="512" fill="#fff" rx="15%"/><path fill="#4285f4" d="M100 340h74V174H340v-74H137Q100 100 100 135"/><path fill="#1967d2" d="M338 100v76h74v-41q0-35-35-35"/><path fill="#fbbc04" d="M338 174h74V338h-74"/><path fill="#188038" d="M100 338v39q0 35 35 35h41v-74"/><path fill="#34a853" d="M174 338H338v74H174"/><path fill="#ea4335" d="M338 412v-74h74"/><path fill="none" stroke="#4285f4" stroke-linejoin="bevel" stroke-width="15" d="M204 229a25 22 1 1 1 25 27h-9h9a25 22 1 1 1-25 27M270 231l27-19h4v-7V308"/></svg>