<svg xmlns="http://www.w3.org/2000/svg" width="512" height="512" viewBox="0 0 480 480"><path fill="#fff" d="M0 0h480v480H0z"/><path d="M320.177 292.129a581919.97 581919.97 0 0 0 78.245-40.099c8.845-4.532 18.112-16.1 0-25.345-5.822-2.978-37.542-19.172-78.295-39.987l-56.051 52.879z" fill="#ffe300"/><path d="M264.073 239.577L84.8 408.698c4.05.481 8.918-.522 14.52-3.393l220.857-113.18z" fill="#ff4e54"/><path d="M264.073 239.577l56.05-52.88L99.32 73.915c-4.794-2.45-10.02-3.304-14.647-2.34z" fill="#00f085"/><path d="M264.073 239.577l-179.404-168c-7.41 1.547-13.483 7.551-13.483 19.62v297.345c0 11.365 4.778 19.36 13.612 20.156z" fill="#00e0ff"/></svg>