<svg xmlns="http://www.w3.org/2000/svg" aria-label="Google TV" viewBox="0 0 512 512"><path fill="#fff" d="M0 0h512v512H0z"/><path fill="#4285f4" d="M349 170H200c-13 0-23 10-23 23v24h181c13 0 23 10 23 23v-38c0-18-14-32-32-32z"/><path fill="#34a853" d="M162 170c-18 0-32 14-32 32v81c0 13 10 23 23 23h24V193c0-13 10-23 23-23h-38z"/><path fill="#fbbc04" d="M162 353h149c13 0 23-10 23-23v-24H153c-13 0-23-10-23-23v38c0 18 14 32 32 32z"/><path fill="#ea4335" d="M349 353c18 0 32-14 32-32v-81c0-13-10-23-23-23h-24v113c0 13-10 23-23 23h38z"/></svg>