<svg xmlns="http://www.w3.org/2000/svg"
aria-label="google meet" role="img"
viewBox="0 0 512 512"><rect
width="512" height="512"
rx="15%"
fill="white"/><path d="M76 106h360v300h-360z" fill="transparent" stroke="white"/><path d="M166 106v90h-90" fill="#ea4335"/><path d="M166 106v90h120v60l90-73v-47q0-30-30-30" fill="#ffba00"/><path d="M286 256l90-73v146" fill="#00832d"/>
<path d="M376 183l42-34c9-7 18-7 18 7v200c0 14-9 14-18 7l-42-34" fill="#00ac47"/>
<path d="M166 406v-90h120v-60l90 73v47q0 30-30 30" fill="#00ac47"/><path d="M76 316v60q0 30 30 30h60v-90" fill="#0066da"/><path d="M76 196h90v120h-90" fill="#2684fc"/></svg>
