<svg xmlns="http://www.w3.org/2000/svg" role="img" aria-label="Google Play" viewBox="0 0 512 512"><rect width="512" height="512" rx="15%" fill="#fff"/><path d="M320 292a5820 5819 0 0 0 78-40c9-4.532 18-16.1 0-25.345-5.822-2-37.542-19-78.295-40l-56 52z" fill="#ffe300"/><path d="M264.073 239.577L84.8 408.698c4.05.481 8.918-.522 14.52-3.393l220.857-113.18z" fill="#ff4e54"/><path d="M264.073 239.577l56.05-52.88L99.32 73.915c-4.794-2.45-10.02-3.304-14.647-2.34z" fill="#00f085"/><path d="M264.073 239.6l-179.404-168c-7.41 1.5-13.5 7.551-13.4 19.62v297.345c0 11.365 4.7 19.36 13.612 20.156z" fill="#00e0ff"/></svg>