<svg xmlns="http://www.w3.org/2000/svg"
aria-label="Google Wallet" role="img"
viewBox="0 0 512 512"><path
d="m0 0H512V512H0"
fill="#fff"/><path id="a" d="M413 217c0 6-3 10-8 10h-296c-5 0-9-5-9-10V165c0-30 22-55 50-55H363c28 0 50 25 50 55v52"/><use href="#a" fill="#34a853"/><use href="#a" transform="translate(0,56)" fill="#fbbc04"/><use href="#a" transform="translate(0,112)" fill="#ea4335"/><path d="M299 283c23 6 48 0 66-15l48-38v117c0 30-22 55-50 55H149c-28 0-50-25-50-55V233l200 51" fill="#4285f4"/></svg>