<svg xmlns="http://www.w3.org/2000/svg"
aria-label="Google Find Hub" role="img"
viewBox="0 0 512 512">
<rect width="512" height="512" fill="#fff"/>
<g transform="translate(32,32) scale(0.624)">
<path d="M372 0c-7 0-12 5-12 12v92c141 0 256 114 256 256h92c5 0 12-5 12-12C720 161 559 0 372 0Z" fill="#ea4335"/><path d="M348 720c6 0 12-6 12-12v-92a256 256 0 0 1-256-256H12c-6 0-12 4-12 12 0 187 161 348 348 348z" fill="#fbbc04"/><path d="M360 616V468c-60 0-108-49-108-108H104c0 141 114 256 256 256z" fill="#137333"/><path d="M616 360H468c0 59-49 108-108 108v148c141 0 256-115 256-256z" fill="#34a853"/><path d="M360 104v148c59 0 108 48 108 108h148c0-142-115-256-256-256z" fill="#1a73e8"/><path d="M360 104a256 256 0 0 0-256 256h148c0-60 48-108 108-108z" fill="#4285f4"/></g></svg>