<svg xmlns="http://www.w3.org/2000/svg"
aria-label="Google Wallet" role="img"
viewBox="0 0 512 512"><path
d="m0 0H512V512H0"
fill="#fff"/><path id="a" d="M446 195c0 7-4 12-10 12H75c-6 0-11-6-11-12V131c0-37 27-67 61-67H385c34 0 61 30 61 67v64"/><use href="#a" fill="#34a853"/><use href="#a" transform="translate(0,56)" fill="#fbbc04"/><use href="#a" transform="translate(0,112)" fill="#ea4335"/><path d="M307 276c28 7 58 0 81-18l58-47v143c0 37-27 67-61 67H125c-34 0-61-30-61-67V214l243 62" fill="#4285f4"/></svg>