<svg xmlns="http://www.w3.org/2000/svg" role="img" aria-label="Google Play" viewBox="0 0 512 512"><rect width="512" height="512" fill="#000" rx="15%"/><path d="M370 308a5820 5819 0 0 0 78-40c9-5 18-16 0-25-6-2-38-19-79-40l-56 52z" fill="#ffe300"/><path d="M314 255L135 425c4 .5 9-.5 14.5-3.4l220.9-113.2z" fill="#ff4e54"/><path d="M313.9 255.2L369 203 149.3 90a21.8 21.8 0 0 0-14.5-2z" fill="#00f085"/><path d="M314 255L135 88c-7.4 1.5-13.5 7.6-13.4 19.6V405c0 11.3 4.7 19.3 13.6 20.1z" fill="#00e0ff"/></svg>