<svg xmlns="http://www.w3.org/2000/svg" aria-label="gradle" role="img" viewBox="0 0 512 512"><g transform="matrix(2.0078125,0,0,1.9974507,-1.834,-0.58098612)"><path d="m106,46h72l36,63h42C246,47 193,0 129,0c-16,0 -32,3 -46,9L106,46" style="fill:#006533"/><path d="m216,147 -38,66H81L33,129 71,63 50,28C20,51 1,87 1,128c0,71 57,128 128,128 65,0 118,-48 127,-110h-40" style="fill:#82b816"/><path d="m175,128c0,25 -20,46 -46,46 -25,0 -46,-20 -46,-46 0,-25 20,-46 46,-46 25,0 46,20 46,46" style="fill:#006532"/></g></svg>
