<svg xmlns="http://www.w3.org/2000/svg" width="601" height="167" fill="none" viewBox="0 0 601 167"><g clip-path="url(#a)"><path fill="#fff" d="M323.83 121.1v36.19a48 48 0 0 1-14.5 7.34 57 57 0 0 1-16.5 2.3 55 55 0 0 1-19.82-3.39 44 44 0 0 1-15.1-9.55c-4.2-4.1-7.5-9.02-9.68-14.47a49 49 0 0 1-3.4-18.37 51 51 0 0 1 3.27-18.53 40.7 40.7 0 0 1 23.85-23.86 53 53 0 0 1 19.32-3.35q5.13-.03 10.17.86a53 53 0 0 1 8.8 2.38q3.88 1.45 7.4 3.69a45 45 0 0 1 6.2 4.85l-4.78 7.55a4.5 4.5 0 0 1-2.9 2.18 5.2 5.2 0 0 1-3.9-.88l-4-2.37a27 27 0 0 0-4.53-2.04 39.67 39.67 0 0 0-12.84-1.97c-4.1-.06-8.17.7-11.97 2.22a25 25 0 0 0-9.13 6.39 28 28 0 0 0-5.8 9.96 39 39 0 0 0-2.06 12.97c-.08 4.66.67 9.3 2.2 13.7a29 29 0 0 0 6.18 10.22 26 26 0 0 0 9.55 6.28 37 37 0 0 0 21.4 1.14q3.95-1.06 7.63-2.83v-16.1H297.6c-.95.07-1.9-.26-2.6-.92a3 3 0 0 1-.9-2.2v-9.4zm27.17-7.6c1.7-3.45 4.1-6.5 7.05-8.95a15 15 0 0 1 9.65-3.25c2.5-.13 4.97.54 7.06 1.92l-.99 11.44c-.12.6-.43 1.16-.88 1.59a2.6 2.6 0 0 1-1.58.46q-1.38-.04-2.75-.3-1.77-.32-3.58-.32-2.32-.04-4.52.73-1.96.75-3.55 2.15-1.65 1.48-2.78 3.37a32 32 0 0 0-2.25 4.52v39.1H336.8v-63.49h8.95a5 5 0 0 1 3.3.83c.74.83 1.18 1.9 1.25 3zm29.47-2.18a37.6 37.6 0 0 1 26.38-10.02c3.41-.06 6.8.56 9.96 1.82a21 21 0 0 1 7.42 5.19 22 22 0 0 1 4.62 7.78 30 30 0 0 1 1.58 9.91v39.95h-6.95a7 7 0 0 1-3.32-.64 4.5 4.5 0 0 1-1.87-2.6l-1.35-4.6a53 53 0 0 1-4.72 3.82 26.83 26.83 0 0 1-9.94 4.46q-3.08.6-6.22.57a25 25 0 0 1-7.42-1.06 16 16 0 0 1-5.89-3.27 14.5 14.5 0 0 1-3.84-5.37 19 19 0 0 1-1.35-7.5q0-2.46.8-4.8c.57-1.66 1.45-3.2 2.6-4.53a21 21 0 0 1 4.75-4.08 29 29 0 0 1 7.13-3.34 61 61 0 0 1 9.89-2.34q6.45-.97 12.97-1.06v-3.74c.27-3.37-.7-6.73-2.73-9.44a10 10 0 0 0-7.78-3.06c-2.09-.06-4.18.23-6.17.85q-2.24.77-4.28 1.95l-3.38 1.94c-1.02.6-2.19.9-3.37.89a4.4 4.4 0 0 1-2.72-.83 7 7 0 0 1-1.8-1.98zm35.02 27.52q-5.62.21-11.16 1.17-3.77.58-7.23 2.13a9.3 9.3 0 0 0-3.9 3.03 7.5 7.5 0 0 0 1.23 9.52 10.2 10.2 0 0 0 6.2 1.74c2.8.07 5.6-.52 8.14-1.71a25 25 0 0 0 6.72-5.19zm84.4-64.86v91.97h-9.34a3.6 3.6 0 0 1-3.85-2.77l-1.3-6.12a32 32 0 0 1-8.81 7.1 24 24 0 0 1-11.6 2.6c-6.7.1-13.04-3.05-17-8.46a30 30 0 0 1-4.82-10.04 51 51 0 0 1-1.71-13.85c-.03-4.45.61-8.88 1.92-13.13a32 32 0 0 1 5.53-10.38 25 25 0 0 1 19.85-9.57c3.11-.09 6.21.48 9.1 1.66 2.5 1.1 4.78 2.63 6.74 4.51V74.01zm-15.2 44.7a15.4 15.4 0 0 0-5.66-4.46 17 17 0 0 0-6.6-1.3c-2.15-.03-4.28.42-6.25 1.3a12.6 12.6 0 0 0-4.85 3.95c-1.44 2-2.47 4.26-3.03 6.66a39 39 0 0 0-1.04 9.58q-.09 4.76.88 9.41c.47 2.26 1.35 4.4 2.6 6.33a10 10 0 0 0 4.1 3.53c1.69.73 3.52 1.1 5.37 1.07 2.83.1 5.64-.6 8.12-1.98a24 24 0 0 0 6.35-5.63zm45.83-44.67v91.94h-15.28V74.01zm27.06 62.1q.25 4.37 1.74 8.47c.78 2.18 2 4.19 3.58 5.88a14 14 0 0 0 5.19 3.46c2.17.79 4.46 1.18 6.77 1.14a21 21 0 0 0 6.4-.86 30 30 0 0 0 4.7-1.92c1.35-.7 2.6-1.35 3.53-1.92a6 6 0 0 1 2.93-.86 3.1 3.1 0 0 1 2.86 1.43l4.49 5.66a25 25 0 0 1-5.68 4.98 32 32 0 0 1-6.6 3.22q-3.41 1.2-7 1.7-3.42.5-6.87.5c-4.21.05-8.4-.7-12.33-2.2a28 28 0 0 1-9.9-6.49 31 31 0 0 1-6.62-10.64c-1.7-4.71-2.51-9.7-2.42-14.7-.02-4.17.69-8.31 2.1-12.23a29 29 0 0 1 6.05-9.96 29 29 0 0 1 9.57-6.72 32 32 0 0 1 12.8-2.6c3.77-.04 7.53.61 11.07 1.93a24 24 0 0 1 8.72 5.6 25.5 25.5 0 0 1 5.73 9.03 34 34 0 0 1 2.08 12.22 10 10 0 0 1-.75 4.67 3.1 3.1 0 0 1-2.86 1.2zm29.14-9.2c0-1.9-.3-3.8-.86-5.6a13 13 0 0 0-2.6-4.6 11.5 11.5 0 0 0-4.22-3.14 15 15 0 0 0-5.97-1.14 14.2 14.2 0 0 0-10.38 3.76 18.5 18.5 0 0 0-4.85 10.72zM212.95 11.3a35.6 35.6 0 0 0-49.5-.84 3.4 3.4 0 0 0-.08 4.88l4.5 4.49a3.4 3.4 0 0 0 4.43.31 20.42 20.42 0 0 1 26.67 30.77C170.77 79.28 132.9.04 47.27 40.8a11.6 11.6 0 0 0-5.18 16.32l14.68 25.4a11.65 11.65 0 0 0 15.75 4.33l.36-.2-.28.2 6.5-3.66c7.27-4.5 14.14-9.6 20.53-15.28a3.55 3.55 0 0 1 4.67-.15 3.35 3.35 0 0 1 0 5.19q-10.03 9.02-21.46 16.18l-.23.13-6.51 3.64A18.65 18.65 0 0 1 50.93 86l-13.9-23.98C10.36 80.86-5.83 117.15 2.86 163.07a3.4 3.4 0 0 0 3.35 2.75H22a3.37 3.37 0 0 0 3.47-2.95 23.2 23.2 0 0 1 46 0 3.4 3.4 0 0 0 3.3 2.95h15.4a3.4 3.4 0 0 0 3.38-2.95 23.17 23.17 0 0 1 45.97 0 3.4 3.4 0 0 0 3.35 2.95h15.23a3.37 3.37 0 0 0 3.37-3.32c.36-21.48 6.15-46.15 22.67-58.5 57.05-42.75 42.03-79.41 28.8-92.7m-58.3 64.65-10.9-5.48a6.85 6.85 0 1 1 10.9 5.5z"/></g><defs><clipPath id="a"><path fill="#fff" d="M.5.87h600v166.12H.5z"/></clipPath></defs></svg>