<svg xmlns="http://www.w3.org/2000/svg" aria-label="gradle" role="img" viewBox="0 0 512 512"><path d="m433,136a59,59 0 0 0 -82,-1 6,6 0 0 0 0,9l7,8a6,6 0 0 0 8,1 34,34 0 0 1 44,51C364,248 301,117 161,185a19,19 0 0 0 -9,27l24,42a19,19 0 0 0 26,7h1v0l11,-6a247,248 0 0 0 34,-25 6,6 0 0 1 8,0v0a6,6 0 0 1 0,9 253,254 0 0 1 -36,27v0l-11,6a30,30 0 0 1 -14,4 31,31 0 0 1 -27,-15l-24,-40c-43,31 -70,90 -56,166a6,6 0 0 0 6,5h26a6,6 0 0 0 6,-5 38,38 0 0 1 76,0 6,6 0 0 0 6,5h25a6,6 0 0 0 6,-5 38,38 0 0 1 76,0 6,6 0 0 0 6,5h25a6,6 0 0 0 6,-6c1,-36 10,-76 37,-96 94,-70 69,-131 47,-153zm-96,107 -18,-9v0a12,12 0 1 1 18,9z" style="fill:#02303a;stroke-width:5"/></svg>