<svg xmlns="http://www.w3.org/2000/svg"
aria-label="Grafana" role="img"
viewBox="0 0 512 512"><rect
width="512" height="512"
rx="15%"/><linearGradient id="a" x1="9%" y1="30%" x2="9%" y2="99%"><stop stop-color="#F05A28" offset="0"/><stop offset="1" stop-color="#FBCA0A"/></linearGradient><path fill="url(#a)" d="M390 146c5-22-7-40-7-40-20-2-34 6-38 10-13-6-26-9-39-11-9-29-35-41-35-41a78 78 0 00-34 45c-16 5-31 12-43 21-24-10-53-9-77 2-3 43 16 70 20 74-5 14-9 29-10 42-37 19-48 56-48 56 16 17 43 38 67 38 7 12 15 22 24 32-11 32 1 58 1 58 35 2 57-15 62-18 19 5 37 9 56 8 11 14 27 23 45 26 11-16 21-33 21-49 14-10 26-23 35-37 22 2 39-14 39-14-3-14-10-30-22-38 3-23-2-46-13-65-19-30-51-47-85-47-23 0-44 11-58 27a71 71 0 00-15 65c5 19 21 35 38 39s34 2 43-7c3-3-1-8-5-6-7 3-14 4-22 3-59-9-45-86 10-89 11-2 26 3 35 7 32 21 39 52 26 84a92 92 0 01-76 51c-18 0-35-5-49-12-34-20-56-53-58-92-3-76 41-110 90-121 29-6 61-3 87 10 36 18 61 52 72 91 1 4 6 4 6-1 0-38-17-75-43-101z"/></svg>