<svg xmlns="http://www.w3.org/2000/svg" aria-label="graphql" role="img" viewBox="0 0 512 512">
  <!-- White background -->
  <path d="M0 0H512V512H0" fill="#fff"/>
  
  <!-- GraphQL logo paths, slightly increased height -->
  <g transform="translate(56, 36) scale(0.85, 0.9)">
    <path fill="#e8457c" d="M256,370.661L149,309.32V202.68L256,141.339L363,202.68v106.64L256,370.661z M166,297.18l90,52.159L346,297.18V212.82L256,160.661L166,212.82V297.18z"/>
    <circle cx="256" cy="156" r="22" fill="#e8457c"/>
    <circle cx="256" cy="356" r="22" fill="#e8457c"/>
    <circle cx="144" cy="297" r="22" fill="#e8457c"/>
    <circle cx="368" cy="297" r="22" fill="#e8457c"/>
    <circle cx="144" cy="215" r="22" fill="#e8457c"/>
    <circle cx="368" cy="215" r="22" fill="#e8457c"/>
    <path fill="#e8457c" d="M378.72,304.5H133.28L256,140.478L378.72,304.5z M146.72,292.5h218.56L256,158.522L146.72,292.5z"/>
  </g>
</svg>






