<svg xmlns="http://www.w3.org/2000/svg" viewBox="0 0 400 400" width="200" height="200" aria-label="GraphQL" role="img">
  
  <circle fill="#E10098" cx="57.5" cy="282.5" r="32.5"/>
  <circle fill="#E10098" cx="57.5" cy="117.5" r="32.5"/>
  <circle fill="#E10098" cx="200" cy="32.5" r="32.5"/>
  <circle fill="#E10098" cx="342.5" cy="117.5" r="32.5"/>
  <circle fill="#E10098" cx="342.5" cy="282.5" r="32.5"/>
  <circle fill="#E10098" cx="200" cy="367.5" r="32.5"/>

  <!-- Pink Lines -->
  <path fill="#E10098" d="M72.6 269.1L181.5 326.4l-12.2 21.2-108.9-57.3zM81.4 130.9l11.2 19.3L301 55.5l-11.2-19.3zM189.6 60.2l122.5 211.6-21.1 12.3L168.5 72.5zM341.5 140.2v119.6h24.5V140.2zM189.6 339.8L67.1 128.2l21.1-12.3 122.5 211.6zM75.5 140.2v119.6H51V140.2zM81.4 269.1L292.9 60.2l12.2 21.2L93.6 290.3zM309.7 322.9L72.5 148.7l12.2-21.2L321.9 301.7z"/>
</svg>