<svg xmlns="http://www.w3.org/2000/svg"
aria-label="..." role="img"
viewBox="0 0 512 512"><path
d="m0 0H512V512H0"
fill="#fff"/> 
     <g fill="#e10098" stroke="#e10098" stroke-width="12">
    <circle cx="200" cy="42.7" r="42.7"/>
    <circle cx="200" cy="357.3" r="42.7"/>
    <circle cx="48.8" cy="119.4" r="42.7"/>
    <circle cx="351.2" cy="119.4" r="42.7"/>
    <circle cx="48.8" cy="280.6" r="42.7"/>
    <circle cx="351.2" cy="280.6" r="42.7"/>
  </g>
  <g stroke="#e10098" stroke-width="12">
    <line x1="200" y1="42.7" x2="20.8" y2="319.4"/>
    <line x1="200" y1="42.7" x2="335.2" y2="290.4"/>
    <line x1="48.8" y1="119.4" x2="48.8" y2="280.6"/>
    <line x1="351.2" y1="119.4" x2="351.2" y2="280.6"/>
    <line x1="48.8" y1="280.6" x2="200" y2="357.3"/>
    <line x1="351.2" y1="280.6" x2="20" y2="285.3"/>
  </g>
  <polygon fill="none" stroke="#e10098" stroke-width="12" points="200,42.7 351.2,119.4 351.2,280.6 200,357.3 48.8,280.6 48.8,119.4"/>
  <text x="50%" y="90%" font-size="60" text-anchor="middle" fill="#e10098" font-family="Arial">GraphQL</text>

</svg>