<svg xmlns="http://www.w3.org/2000/svg"
aria-label="Grok" role="img"
viewBox="0 0 512 512"><path
d="m0 0H512V512H0"
fill="#fff"/><path d="M213 308L338 213C345 209 353 210 356 218C372 256 365 302 334 333C304 365 261 372 222 356L180 376C241 419 315 409 361 361C398 323 409 272 398 225L399 225C383 157 403 130 442 74C443 72 444 71 445 70L393 123V123L213 308 M188 332C144 288 151 222 189 183C216 155 262 143 301 160L344 140C336 135 326 128 315 124C264 103 203 113 162 156C122 197 110 260 131 313C147 354 121 382 94 411C85 421 76 431 68 442L188 332"/></svg>