<svg xmlns="http://www.w3.org/2000/svg"
aria-label="Homekit" role="img"
viewBox="0 0 512 512"><rect
width="512" height="512"
rx="15%"
fill="#fff"/><path d="M118 406a11 11 0 01-5 0 13 13 0 010-5V218c0-6-5-11-11-11H82L256 69l104 82c8 5 18 0 18-9v-25h15v55a11 11 0 004 8l34 27h-21c-6 0-11 5-11 11v183a13 13 0 010 4 11 11 0 01-5 1zM241 83l-114 90c-7 5-14 14-14 29v177c0 15 9 25 24 25h238c15 0 24-10 24-25V202c0-15-7-24-14-29L271 83c-10-6-22-6-30 0zm-67 261V217c0-4 1-5 2-6l80-63 80 63c1 1 2 1 2 6v127zm82-189c-6 0-9 1-14 5l-58 45c-9 7-9 15-9 20v97c0 12 8 20 19 20h124c11 0 19-8 19-20v-97c0-5 0-13-9-20l-58-46c-5-3-9-4-14-4zm-28 134v-49l28-21 28 21v48zm28-66c-4 0-6 2-10 5l-11 9a15 15 0 00-6 11v26c0 8 6 13 13 13h28c7 0 13-6 13-13v-26a15 15 0 00-6-11l-10-9-11-5" stroke="#000" stroke-width="22" stroke-linejoin="round"/></svg>