<?xml version="1.0" encoding="UTF-8"?>
<svg version="1.1" xmlns="http://www.w3.org/2000/svg" width="512" height="512">
<path d="M0 0 C168.96 0 337.92 0 512 0 C512 168.96 512 337.92 512 512 C343.04 512 174.08 512 0 512 C0 343.04 0 174.08 0 0 Z " fill="#E34F26" transform="translate(0,0)"/>
<path d="M0 0 C168.96 0 337.92 0 512 0 C512 168.96 512 337.92 512 512 C343.04 512 174.08 512 0 512 C0 343.04 0 174.08 0 0 Z M31 9 C31.62449858 24.64080187 31.62449858 24.64080187 34 40 C34.25006601 42.36775666 34.46063502 44.73977439 34.6484375 47.11328125 C34.70531738 47.82169662 34.76219727 48.530112 34.82080078 49.25999451 C34.94383161 50.79938655 35.06524814 52.33890827 35.1852417 53.87854004 C35.37883428 56.36168089 35.57695727 58.84442919 35.77587891 61.32714844 C36.44220733 69.68348418 37.08132214 78.04143567 37.6875 86.40234375 C39.0826004 105.51280743 40.82014897 124.56014616 42.82843018 143.61642456 C44.53297711 159.81854644 45.95900736 176.0218926 47.09960938 192.2734375 C47.15445496 193.04145187 47.20930054 193.80946625 47.26580811 194.60075378 C47.41104022 196.64804673 47.55094971 198.69571533 47.69042969 200.7434082 C47.93592711 203.3259714 48.36276709 205.51130431 49 208 C49.1792704 209.95145124 49.31768137 211.90681647 49.4296875 213.86328125 C49.50316406 215.06404297 49.57664062 216.26480469 49.65234375 217.50195312 C49.79461296 219.93675344 49.93538707 222.37164188 50.07421875 224.80664062 C50.8555444 237.49987168 52.13904576 250.14355636 53.38941002 262.7974329 C54.63004775 275.36135418 55.81517536 287.93071112 57 300.5 C57.06467342 301.18588573 57.12934685 301.87177147 57.19598007 302.57844162 C59.50549579 327.09398769 61.76076628 351.62152361 63.25927734 376.20263672 C63.3018718 376.88680161 63.34446625 377.57096649 63.38835144 378.27586365 C63.50401593 380.15237517 63.61485129 382.02918258 63.7253418 383.90600586 C63.90390427 386.83255251 63.90390427 386.83255251 64.48999023 388.95581055 C65.26711256 392.07062398 65.41403518 395.23758398 65.6484375 398.4296875 C65.76621249 399.94946782 65.88405386 401.46924299 66.00195312 402.98901367 C66.06261963 403.78649017 66.12328613 404.58396667 66.18579102 405.40560913 C66.50543543 409.57732962 66.84264028 413.74762364 67.1796875 417.91796875 C67.24786682 418.76166519 67.31604614 419.60536163 67.3862915 420.47462463 C68.05455929 428.71582034 68.74209481 436.95403192 69.5 445.1875 C69.60618652 446.4564209 69.71237305 447.7253418 69.82177734 449.03271484 C69.93215332 450.19109863 70.0425293 451.34948242 70.15625 452.54296875 C70.24712891 453.55383545 70.33800781 454.56470215 70.43164062 455.60620117 C70.79762976 458.3572122 70.79762976 458.3572122 74 460 C75.9121666 460.51589402 77.84298428 460.96408795 79.78125 461.37109375 C87.10825658 462.98836171 94.29250423 464.98282108 101.5 467.0625 C103.35238281 467.5894043 103.35238281 467.5894043 105.2421875 468.12695312 C110.2680618 469.56875763 115.14927219 471.04741955 120 473 C122.49726815 473.61869256 124.98821934 474.19875548 127.5 474.75 C141.89580861 478.02957912 155.99911362 482.38001182 170.1171875 486.67700195 C178.25987528 489.12855531 186.47763496 491.28352373 194.69775391 493.45800781 C201.74701671 495.34102289 208.6057961 497.48414233 215.49609375 499.8828125 C220.20216913 501.3833003 224.96686135 502.47480403 229.78710938 503.54052734 C235.32237854 504.77921568 240.63352656 506.43546127 245.97265625 508.36328125 C253.11740684 509.86598363 259.98004246 507.27336114 266.75 505.125 C273.12654642 503.1235288 279.50830284 501.3500337 286 499.75927734 C290.7485233 498.55746196 295.43217518 497.15106486 300.125 495.75 C310.21730812 492.76490575 320.3538109 489.98043346 330.53369141 487.30957031 C331.56800293 487.0359668 332.60231445 486.76236328 333.66796875 486.48046875 C334.57828857 486.24223389 335.4886084 486.00399902 336.42651367 485.75854492 C339.03071112 484.99094778 341.48888373 484.02769611 344 483 C345.658679 482.55259317 347.32653931 482.13848194 349 481.75 C354.60501416 480.38458851 360.145247 478.84681505 365.6875 477.25 C373.61584253 474.96629264 381.55290858 472.71762218 389.5 470.5 C397.50354565 468.26248944 405.50564128 466.020145 413.5 463.75 C414.32951172 463.51603516 415.15902344 463.28207031 416.01367188 463.04101562 C421.39523921 461.50781807 426.70594333 459.81212334 432 458 C432.08040527 457.08524902 432.16081055 456.17049805 432.24365234 455.22802734 C432.96362844 447.04125208 433.68591091 438.85468588 434.41104126 430.66836548 C434.81472716 426.10739659 435.21376047 421.54605269 435.609375 416.984375 C435.78113079 415.03123951 435.95299573 413.07811362 436.125 411.125 C436.20024902 410.24247559 436.27549805 409.35995117 436.35302734 408.45068359 C436.42473145 407.64453613 436.49643555 406.83838867 436.5703125 406.0078125 C436.65949951 404.98131592 436.65949951 404.98131592 436.75048828 403.93408203 C437 402 437 402 437.49560547 400.20043945 C438.21251047 397.07291534 438.32050598 393.98740177 438.5 390.78515625 C438.54060547 390.09240097 438.58121094 389.39964569 438.62304688 388.68589783 C438.75230036 386.47828864 438.87670736 384.2704496 439 382.0625 C439.16261743 379.15730157 439.32997314 376.25242933 439.5 373.34765625 C439.5721875 372.05867432 439.644375 370.76969238 439.71875 369.44165039 C439.95643769 366.5330711 440.39622725 363.84640054 441 361 C441.12402816 359.6587058 441.21894261 358.31432457 441.28125 356.96875 C441.31863281 356.24042969 441.35601562 355.51210938 441.39453125 354.76171875 C441.44673828 353.64216797 441.44673828 353.64216797 441.5 352.5 C441.71538056 347.88128354 442.08376516 343.53754397 443 339 C443.15495025 336.49784046 443.27611113 334.00423192 443.375 331.5 C443.75594667 323.50677403 444.51599956 315.57985476 445.375 307.625 C446.5956445 296.2807623 447.63470231 284.93382414 448.5625 273.5625 C448.62514038 272.79730042 448.68778076 272.03210083 448.75231934 271.24371338 C448.99800225 268.24250763 449.24338299 265.24127755 449.48806763 262.23999023 C450.01183635 255.82471136 450.55508913 249.41136043 451.125 243 C451.23823608 241.6843103 451.23823608 241.6843103 451.35375977 240.34204102 C451.88857529 234.40359896 451.88857529 234.40359896 452.49560547 232.20483398 C453.21147501 229.0755901 453.32042281 225.98888554 453.5 222.78515625 C453.54060547 222.09240097 453.58121094 221.39964569 453.62304688 220.68589783 C453.75230036 218.47828864 453.87670736 216.2704496 454 214.0625 C454.16261743 211.15730157 454.32997314 208.25242933 454.5 205.34765625 C454.5721875 204.05867432 454.644375 202.76969238 454.71875 201.44165039 C454.95629912 198.5347668 455.3876384 195.84341766 456 193 C456.1546199 190.68929146 456.27471563 188.37620359 456.375 186.0625 C456.77916748 178.22320862 457.5105032 170.43270553 458.3125 162.625 C461.69327349 129.60850998 464.60071892 96.55782804 467.19854736 63.47125244 C467.60548615 58.28877084 468.01498023 53.10650432 468.427948 47.92449951 C468.62075727 45.49104761 468.80961002 43.05731008 468.99829102 40.62353516 C469.11584807 39.14353878 469.23359491 37.66355746 469.3515625 36.18359375 C469.45291504 34.88993896 469.55426758 33.59628418 469.65869141 32.26342773 C470 29 470 29 471 25 C471 19.72 471 14.44 471 9 C325.8 9 180.6 9 31 9 Z " fill="#FEFEFE" transform="translate(0,0)"/>
<path d="M0 0 C91.08 0 182.16 0 276 0 C276 19.46162791 276 19.46162791 274.5625 29.25 C273.40237971 37.50961243 272.64179836 45.65662128 272 54 C202.37 54 132.74 54 61 54 C62.2979366 67.68734363 62.2979366 67.68734363 63.6328125 81.37109375 C63.79701779 83.05988196 63.96108938 84.74868317 64.125 86.4375 C64.21136719 87.27474609 64.29773438 88.11199219 64.38671875 88.97460938 C65.09507807 96.41238225 65 103.41607617 65 111 C131.66 111 198.32 111 267 111 C265.87947333 123.32579338 265.87947333 123.32579338 265.38330078 128.62841797 C265.27282913 129.81086594 265.16235748 130.9933139 265.04853821 132.21159363 C264.93197372 133.45918961 264.81540924 134.70678558 264.6953125 135.9921875 C261.96116894 165.31531317 259.26047334 194.63584828 257 224 C256.48191917 230.70854835 255.9611911 237.41688728 255.4375 244.125 C255.37473877 244.93095612 255.31197754 245.73691223 255.24731445 246.56729126 C254.34909542 258.06610935 253.34872375 269.54378178 252 281 C243.78936151 283.87315565 235.69432183 286.4114976 227.1796875 288.25390625 C223.89381231 289.02491628 220.71615712 289.97807957 217.5 291 C213.39461896 292.3018251 209.33580866 293.41176272 205.125 294.3125 C198.88899929 295.68653405 192.84490925 297.53913444 186.75 299.4375 C179.22056015 301.78060084 171.72228833 303.88313565 164.02075195 305.57299805 C157.75848496 306.97431795 151.74576249 308.95255656 145.68359375 311.046875 C137.23300981 313.23345239 130.80995683 311.35725365 122.6875 308.8125 C120.5605556 308.16709256 118.43294052 307.52389153 116.3046875 306.8828125 C115.24862305 306.56344727 114.19255859 306.24408203 113.10449219 305.91503906 C107.76405909 304.34096363 102.37543414 302.95955794 96.97729492 301.59887695 C93.18334436 300.62985559 89.62609799 299.46126337 86 298 C84.00815056 297.50745027 82.00703071 297.05149403 80 296.625 C75.42186323 295.60419923 70.96983831 294.421235 66.5 293 C62.39461896 291.6981749 58.33580866 290.58823728 54.125 289.6875 C43.91413563 287.44085741 33.97229102 284.11450381 24 281 C23.06826378 268.64176239 22.14180083 256.28313554 21.21862793 243.92425537 C21.00066387 241.00887953 20.78212133 238.09354751 20.56347656 235.17822266 C20.21116321 230.47760845 19.86129094 225.77681792 19.51309204 221.07589722 C19.37989763 219.28248398 19.24593169 217.48912787 19.11117554 215.6958313 C18.92229279 213.18018315 18.73620622 210.66434256 18.55078125 208.1484375 C18.49467682 207.40946732 18.43857239 206.67049713 18.38076782 205.90913391 C18.08938843 201.91116803 18 198.02039588 18 194 C36.15 194 54.3 194 73 194 C74.73906194 208.78202645 76.24882009 223.15373444 76 238 C77.61455078 238.36351562 77.61455078 238.36351562 79.26171875 238.734375 C85.99321931 240.27151982 92.67394194 241.81479351 99.25 243.9375 C105.94164289 246.08051981 112.73761626 247.6690985 119.57910156 249.24975586 C120.43729492 249.44835205 121.29548828 249.64694824 122.1796875 249.8515625 C123.42830566 250.13821777 123.42830566 250.13821777 124.70214844 250.43066406 C126.66106871 250.9160234 128.58983439 251.52050257 130.5078125 252.1484375 C138.79740603 254.16983726 145.8546209 252.85237688 153.8125 250.1875 C155.57973866 249.62578044 157.34797063 249.06717624 159.1171875 248.51171875 C160.38320801 248.11218994 160.38320801 248.11218994 161.67480469 247.70458984 C164.56943201 246.82744847 167.48127827 246.13678405 170.4375 245.5 C177.39444912 243.99751753 184.19396777 241.98587338 191.01928711 239.98046875 C191.89335205 239.72523438 192.76741699 239.47 193.66796875 239.20703125 C194.84782349 238.85862183 194.84782349 238.85862183 196.05151367 238.50317383 C198 238 198 238 200 238 C199.98332275 237.33097656 199.96664551 236.66195312 199.94946289 235.97265625 C199.83706774 227.6512266 200.43814932 219.48841175 201.22680664 211.21533203 C201.43976814 208.97615169 201.64331439 206.73625211 201.84570312 204.49609375 C202.88614032 193.25370698 202.88614032 193.25370698 204 189 C204.20128738 186.18477228 204.3700333 183.3808519 204.5 180.5625 C204.56947512 179.0636386 204.64230823 177.5649285 204.71875 176.06640625 C204.74904297 175.40584229 204.77933594 174.74527832 204.81054688 174.06469727 C205.02875298 171.68664435 205.53166623 169.34166886 206 167 C142.97 167 79.94 167 15 167 C13.83819017 158.86733118 12.72253572 150.96307017 12.125 142.8125 C11.50374292 134.84803689 10.81341067 126.89380905 10.0546875 118.94140625 C9.92701744 117.60174301 9.92701744 117.60174301 9.79676819 116.23501587 C9.62060031 114.38726662 9.44441703 112.53951884 9.26821899 110.69177246 C7.86473949 95.95276252 6.61493107 81.23406412 5.71875 66.45507812 C5.20106015 58.2310753 4.41544663 50.06341459 3.5 41.875 C1.99450132 27.94913722 0.99795776 13.97140869 0 0 Z " fill="#FEFEFE" transform="translate(113,101)"/>
<path d="M0 0 C59.4 0 118.8 0 180 0 C178.515 15.84 178.515 15.84 177 32 C176.56527887 38.95686796 176.56527887 38.95686796 176.2109375 45.91796875 C176 49 176 49 175.51806641 51.23339844 C174.8857593 54.61007333 174.69210358 57.91744959 174.5 61.34765625 C174.45939453 62.04136826 174.41878906 62.73508026 174.37695312 63.44981384 C174.20430715 66.39992267 174.03976015 69.35046716 173.875 72.30102539 C173.75310081 74.46259323 173.62668293 76.62386433 173.5 78.78515625 C173.4278125 80.07301025 173.355625 81.36086426 173.28125 82.68774414 C173 86 173 86 172.51721191 87.84034729 C171.87623764 90.51677795 171.66411125 93.12296617 171.44335938 95.86669922 C171.34655884 97.04827606 171.2497583 98.22985291 171.15002441 99.44723511 C171.04895386 100.7201944 170.9478833 101.99315369 170.84375 103.3046875 C170.67996396 105.30915839 170.5161752 107.31362905 170.35222626 109.31808662 C170.06538197 112.83683464 169.7830166 116.35594246 169.5 119.875 C169.16229897 124.06633164 168.82350249 128.25756815 168.4810791 132.44851685 C168.26824115 135.05710148 168.05778536 137.66588182 167.84997559 140.27487183 C167.75317505 141.46275299 167.65637451 142.65063416 167.55664062 143.87451172 C167.47305298 144.91501678 167.38946533 145.95552185 167.30334473 147.02755737 C166.99507878 150.04822256 166.50927201 153.00755588 166 156 C165.84991737 158.20677056 165.72788018 160.41552568 165.625 162.625 C165.21910315 170.17974376 164.40857589 177.67086016 163.5625 185.1875 C162.51209271 194.61790708 161.66158636 204.03039669 161.0625 213.5 C160.29306801 225.49920169 159.28879528 237.46483938 158.1875 249.4375 C158.10415405 250.34471802 158.02080811 251.25193604 157.93493652 252.18664551 C156.9703287 262.66406033 155.98709231 273.13973789 155.00596619 283.61561584 C154.5516283 288.47111247 154.09888491 293.32675737 153.64614868 298.18240356 C153.32053863 301.66404553 152.99183134 305.14538497 152.6628418 308.62670898 C151.69144216 318.97655487 150.79347134 329.31232669 150.19946289 339.69091797 C149.92755937 344.20178742 149.51580974 348.69179372 149.0625 353.1875 C148.88923919 354.95572096 148.71606497 356.72395042 148.54296875 358.4921875 C148.45450684 359.38647461 148.36604492 360.28076172 148.27490234 361.20214844 C147.7965005 366.07114057 147.33690475 370.94192023 146.875 375.8125 C146.70580996 377.58985144 146.53654687 379.36719593 146.3671875 381.14453125 C146.24601563 382.41683594 146.12484375 383.68914062 146 385 C140.01805157 387.09501127 134.04077521 388.79534495 127.875 390.25 C120.41119558 392.05840767 113.0786258 394.14432507 105.75 396.4375 C96.62696076 399.28903218 87.45223881 401.73997252 78.15527344 403.95874023 C72.99582218 405.19972778 67.98217692 406.60807619 62.96582031 408.33935547 C60.44516394 409.1864613 57.90032655 409.82926631 55.3125 410.4375 C50.84080942 411.52275146 46.41952918 412.71848272 42 414 C37.58047082 415.28151728 33.15919058 416.47724854 28.6875 417.5625 C25.26175711 418.39749662 21.94666004 419.31937313 18.625 420.5 C12.54956713 422.47041066 6.24519599 423.66174372 0 425 C0 406.19 0 387.38 0 368 C19.98772034 361.68808831 19.98772034 361.68808831 29.58081055 359.54077148 C35.50656013 358.20974267 41.2689291 356.43823638 47.0625 354.625 C56.24837914 351.75161502 65.48229162 349.27550281 74.84399414 347.04150391 C79.99576582 345.80224002 85.00318722 344.3978746 90.01220703 342.66943359 C92.64348345 341.78329261 95.30287323 341.09305164 98 340.4375 C99.50820313 340.07011719 99.50820313 340.07011719 101.046875 339.6953125 C105.02365884 338.7589798 109.00711655 337.86512475 113 337 C112.98404785 336.29472168 112.9680957 335.58944336 112.95166016 334.86279297 C112.8511716 326.85633438 113.48879304 319.07606996 114.375 311.125 C115.47272424 300.77805136 116.36462734 290.45053456 117 280.0625 C117.7038159 268.69191381 118.68168584 257.37302 119.82421875 246.03857422 C120.75913519 236.69992763 121.56316148 227.35620808 122.3140564 218.00106812 C125.34689802 180.26550991 125.34689802 180.26550991 128 167 C61.34 167 -5.32 167 -74 167 C-75.58174451 148.01906583 -77.09403962 129.0251679 -78 110 C-8.37 110 61.26 110 133 110 C133 105.71 133 101.42 133 97 C133.41359705 93.05652116 133.87124089 89.16903976 134.4375 85.25 C135.83344862 75.47168051 136.415898 65.92973397 137 56 C91.79 56 46.58 56 0 56 C0 37.52 0 19.04 0 0 Z " fill="#EE652A" transform="translate(252,45)"/>
<path d="M0 0 C91.08 0 182.16 0 276 0 C276 19.46162791 276 19.46162791 274.5625 29.25 C273.40237971 37.50961243 272.64179836 45.65662128 272 54 C202.37 54 132.74 54 61 54 C62.2979366 67.68734363 62.2979366 67.68734363 63.6328125 81.37109375 C63.79701779 83.05988196 63.96108938 84.74868317 64.125 86.4375 C64.21136719 87.27474609 64.29773438 88.11199219 64.38671875 88.97460938 C65.09507807 96.41238225 65 103.41607617 65 111 C89.09 111 113.18 111 138 111 C138 129.15 138 147.3 138 166 C160.44 166 182.88 166 206 166 C206 166.33 206 166.66 206 167 C142.97 167 79.94 167 15 167 C13.83819017 158.86733118 12.72253572 150.96307017 12.125 142.8125 C11.50374292 134.84803689 10.81341067 126.89380905 10.0546875 118.94140625 C9.92701744 117.60174301 9.92701744 117.60174301 9.79676819 116.23501587 C9.62060031 114.38726662 9.44441703 112.53951884 9.26821899 110.69177246 C7.86473949 95.95276252 6.61493107 81.23406412 5.71875 66.45507812 C5.20106015 58.2310753 4.41544663 50.06341459 3.5 41.875 C1.99450132 27.94913722 0.99795776 13.97140869 0 0 Z " fill="#EBEAE9" transform="translate(113,101)"/>
<path d="M0 0 C18.15 0 36.3 0 55 0 C56.73906194 14.78202645 58.24882009 29.15373444 58 44 C59.07636719 44.24234375 60.15273437 44.4846875 61.26171875 44.734375 C67.99321931 46.27151982 74.67394194 47.81479351 81.25 49.9375 C88.63104734 52.29572142 96.14869336 54.00389872 103.69140625 55.75390625 C109.4748146 57.1114539 115.23676988 58.55919247 121 60 C120.67 79.14 120.34 98.28 120 118 C115.9625592 117.3270932 112.27352532 116.60999406 108.359375 115.546875 C107.29807373 115.25997803 106.23677246 114.97308105 105.14331055 114.67749023 C104.02351807 114.37141846 102.90372559 114.06534668 101.75 113.75 C100.58702393 113.43426025 99.42404785 113.11852051 98.22583008 112.79321289 C94.8161635 111.86595881 91.40779582 110.93410349 88 110 C86.69651611 109.64301025 86.69651611 109.64301025 85.36669922 109.27880859 C78.54355392 107.40603964 71.7294496 105.50483953 64.93359375 103.53515625 C56.3627641 101.0546069 47.79786052 98.66194469 39.125 96.5625 C27.94112364 93.85170164 16.97583556 90.44600607 6 87 C5.06826378 74.64176239 4.14180083 62.28313554 3.21862793 49.92425537 C3.00066387 47.00887953 2.78212133 44.09354751 2.56347656 41.17822266 C2.21116321 36.47760845 1.86129094 31.77681792 1.51309204 27.07589722 C1.37989763 25.28248398 1.24593169 23.48912787 1.11117554 21.6958313 C0.92229279 19.18018315 0.73620622 16.66434256 0.55078125 14.1484375 C0.49467682 13.40946732 0.43857239 12.67049713 0.38076782 11.90913391 C0.08938843 7.91116803 0 4.02039588 0 0 Z " fill="#EAEAEA" transform="translate(131,295)"/>
<path d="M0 0 C45.54 0 91.08 0 138 0 C138 19.46162791 138 19.46162791 136.5625 29.25 C135.40237971 37.50961243 134.64179836 45.65662128 134 54 C89.78 54 45.56 54 0 54 C0 36.18 0 18.36 0 0 Z " fill="#FEFEFE" transform="translate(251,101)"/>
<path d="M0 0 C22.11 0 44.22 0 67 0 C66 22 66 22 65 26 C64.81046881 27.52496459 64.65259619 29.05405671 64.51928711 30.58496094 C64.39927589 31.93590851 64.39927589 31.93590851 64.27684021 33.31414795 C64.15333946 34.75966034 64.15333946 34.75966034 64.02734375 36.234375 C63.8962899 37.72411835 63.8962899 37.72411835 63.7625885 39.24395752 C63.48455442 42.41238396 63.21097246 45.5811769 62.9375 48.75 C62.7496423 50.89976524 62.56149473 53.04950517 62.37304688 55.19921875 C61.91200215 60.46585691 61.45461099 65.7328028 61 71 C58.63655056 71.80426083 56.27183762 72.60441627 53.90625 73.40234375 C52.9147998 73.74042053 52.9147998 73.74042053 51.90332031 74.08532715 C46.76829343 75.81224804 41.60673751 77.10294206 36.3125 78.2578125 C26.66586033 80.41920582 17.18712654 83.16201921 7.8046875 86.265625 C5 87 5 87 0 87 C0 58.29 0 29.58 0 0 Z " fill="#EF652A" transform="translate(252,268)"/>
<path d="M0 0 C25.74 0 51.48 0 78 0 C78 18.81 78 37.62 78 57 C53.58 57 29.16 57 4 57 C2.41825549 38.01906583 0.90596038 19.0251679 0 0 Z " fill="#E34F26" transform="translate(174,155)"/>
</svg>
