<svg xmlns="http://www.w3.org/2000/svg" width="512" height="512" xmlns:v="https://vecta.io/nano"><path d="M0 0h512v512H0V0z" fill="#e34f26"/><path d="M0 0h512v512H0V0zm31 9c.624 15.641.624 15.641 3 31l.648 7.113.172 2.147.364 4.619.591 7.449 1.912 25.075c1.395 19.11 3.133 38.158 5.141 57.214 1.705 16.202 3.131 32.405 4.271 48.657l.166 2.327.425 6.143c.245 2.583.672 4.768 1.31 7.257.179 1.951.318 3.907.43 5.863l.223 3.639.422 7.305c.781 12.693 2.065 25.337 3.315 37.991L57 300.5l.196 2.078 6.063 73.624.129 2.073.337 5.63c.179 2.927.179 2.927.765 5.05.777 3.115.924 6.282 1.158 9.474l.354 4.559.184 2.417.994 12.512.207 2.557 2.114 24.713.322 3.845.334 3.51.275 3.063c.366 2.751.366 2.751 3.568 4.394 1.912.516 3.843.964 5.781 1.371 7.327 1.617 14.511 3.612 21.719 5.691l3.742 1.064c5.026 1.442 9.907 2.92 14.758 4.873l7.5 1.75c14.396 3.28 28.499 7.63 42.617 11.927 8.143 2.452 16.36 4.607 24.581 6.781 7.049 1.883 13.908 4.026 20.798 6.425 4.706 1.5 9.471 2.592 14.291 3.658 5.535 1.239 10.846 2.895 16.186 4.823 7.145 1.503 14.007-1.09 20.777-3.238a312.16 312.16 0 0 1 19.25-5.366c4.749-1.202 9.432-2.608 14.125-4.009 10.092-2.985 20.229-5.77 30.409-8.44l3.134-.829 2.759-.722c2.604-.768 5.062-1.731 7.573-2.759a146.04 146.04 0 0 1 5-1.25c5.605-1.365 11.145-2.903 16.688-4.5l23.813-6.75 24-6.75 2.514-.709c5.382-1.533 10.692-3.229 15.986-5.041l.244-2.772 2.167-24.56 1.198-13.684.516-5.859.228-2.674.217-2.443.18-2.074c.25-1.934.25-1.934.745-3.734.717-3.128.825-6.213 1.004-9.415l.123-2.099.377-6.623.5-8.715.219-3.906c.238-2.909.677-5.595 1.281-8.442.124-1.341.219-2.686.281-4.031l.113-2.207.105-2.262c.215-4.619.584-8.962 1.5-13.5l.375-7.5c.381-7.993 1.141-15.92 2-23.875l3.188-34.062.19-2.319.736-9.004 1.637-19.24.229-2.658c.535-5.938.535-5.938 1.142-8.137.716-3.129.825-6.216 1.004-9.42l.123-2.099.377-6.623.5-8.715.219-3.906c.238-2.907.669-5.598 1.281-8.442l.375-6.937c.404-7.839 1.136-15.63 1.938-23.437l8.886-99.154 1.229-15.547.57-7.301.353-4.44.307-3.92C470 29 470 29 471 25V9H31zm82 92h276c0 19.462 0 19.462-1.437 29.25-1.16 8.26-1.921 16.407-2.562 24.75H174l2.633 27.371.492 5.066.262 2.537c.708 7.438.613 14.441.613 22.025h202l-1.617 17.628-.335 3.583-.353 3.781L370 325l-1.562 20.125-.19 2.442c-.898 11.499-1.899 22.976-3.247 34.433-8.211 2.873-16.306 5.411-24.82 7.254-3.286.771-6.464 1.724-9.68 2.746-4.105 1.302-8.164 2.412-12.375 3.313-6.236 1.374-12.28 3.227-18.375 5.125-7.529 2.343-15.028 4.446-22.729 6.135-6.262 1.401-12.275 3.38-18.337 5.474-8.451 2.187-14.874.31-22.996-2.234l-6.383-1.93-3.2-.968c-5.34-1.574-10.729-2.955-16.127-4.316-3.794-.969-7.351-2.138-10.977-3.599a186.36 186.36 0 0 0-6-1.375c-4.578-1.021-9.03-2.204-13.5-3.625-4.105-1.302-8.164-2.412-12.375-3.312-10.211-2.247-20.153-5.573-30.125-8.687l-2.781-37.076-.655-8.746-1.05-14.102-.402-5.38-.56-7.547-.17-2.239c-.291-3.998-.381-7.889-.381-11.909h55c1.739 14.782 3.249 29.154 3 44l3.262.734c6.732 1.537 13.412 3.08 19.988 5.203 6.692 2.143 13.488 3.732 20.329 5.312l2.601.602 2.522.579c1.959.485 3.888 1.09 5.806 1.718 8.29 2.021 15.347.704 23.305-1.961l5.305-1.676 2.558-.807c2.895-.877 5.806-1.568 8.763-2.205 6.957-1.502 13.756-3.514 20.582-5.52l2.649-.773 2.384-.704C311 339 311 339 313 339l-.051-2.027c-.112-8.321.489-16.484 1.277-24.757l.619-6.719c1.04-11.242 1.04-11.242 2.154-15.496l.5-8.437.219-4.496.092-2.002c.218-2.378.721-4.723 1.189-7.065H128c-1.162-8.133-2.277-16.037-2.875-24.187l-2.07-23.871-.258-2.706-.529-5.543-3.549-44.237c-.518-8.224-1.303-16.392-2.219-24.58-1.505-13.926-2.502-27.904-3.5-41.875z" fill="#fefefe"/><path d="M252 45h180l-3 32-.789 13.918C428 94 428 94 427.518 96.233c-.632 3.377-.826 6.684-1.018 10.114l-.123 2.102-.502 8.851-.375 6.484-.219 3.903C425 131 425 131 424.517 132.84c-.641 2.676-.853 5.283-1.074 8.026l-.293 3.581-.306 3.857-.492 6.013-.852 10.557-1.019 12.574-.631 7.826-.293 3.6-.253 3.153c-.308 3.021-.794 5.98-1.303 8.972l-.375 6.625c-.406 7.555-1.216 15.046-2.062 22.563-1.05 9.43-1.901 18.843-2.5 28.313-.769 11.999-1.774 23.965-2.875 35.938l-.253 2.749-2.929 31.429-1.36 14.567-.983 10.444-2.463 31.064c-.272 4.511-.684 9.001-1.137 13.497l-.52 5.305-.268 2.71-1.4 14.61-.508 5.332L398 430c-5.982 2.095-11.959 3.795-18.125 5.25-7.464 1.808-14.796 3.894-22.125 6.188-9.123 2.852-18.298 5.302-27.595 7.521-5.159 1.241-10.173 2.649-15.189 4.381-2.521.847-5.065 1.49-7.653 2.098-4.472 1.085-8.893 2.281-13.312 3.563s-8.841 2.477-13.312 3.563c-3.426.835-6.741 1.757-10.062 2.938-6.075 1.97-12.38 3.162-18.625 4.5v-57c19.988-6.312 19.988-6.312 29.581-8.459 5.926-1.331 11.688-3.103 17.482-4.916 9.186-2.873 18.42-5.349 27.781-7.583 5.152-1.239 10.159-2.644 15.168-4.372 2.631-.886 5.291-1.576 7.988-2.232l3.047-.742L365 382l-.048-2.137c-.1-8.006.537-15.787 1.423-23.738 1.098-10.347 1.99-20.674 2.625-31.062.704-11.371 1.682-22.689 2.824-34.024l2.49-28.038c3.033-37.736 3.033-37.736 5.686-51.001H178l-4-57h211v-13c.414-3.943.871-7.831 1.438-11.75 1.396-9.778 1.978-19.32 2.563-29.25H252V45z" fill="#ee652a"/><path d="M113 101h276c0 19.462 0 19.462-1.437 29.25-1.16 8.26-1.921 16.407-2.562 24.75H174l2.633 27.371.492 5.066.262 2.537c.708 7.438.613 14.441.613 22.025h73v55h68v1H128c-1.162-8.133-2.277-16.037-2.875-24.187l-2.07-23.871-.258-2.706-.529-5.543-3.549-44.237c-.518-8.224-1.303-16.392-2.219-24.58-1.505-13.926-2.502-27.904-3.5-41.875z" fill="#ebeae9"/><path d="M131 295h55c1.739 14.782 3.249 29.154 3 44l3.262.734c6.732 1.537 13.412 3.08 19.988 5.203 7.381 2.358 14.899 4.066 22.441 5.816L252 355l-1 58c-4.037-.673-7.726-1.39-11.641-2.453l-3.216-.869-3.393-.927-3.524-.957L219 405l-2.633-.721-20.433-5.744c-8.571-2.481-17.136-4.873-25.809-6.973-11.184-2.711-22.149-6.116-33.125-9.562l-2.781-37.076-.655-8.746-1.05-14.102-.402-5.38-.56-7.547-.17-2.239c-.291-3.998-.381-7.889-.381-11.909z" fill="#eaeaea"/><path d="M251 101h138c0 19.462 0 19.462-1.437 29.25-1.16 8.26-1.921 16.407-2.562 24.75H251v-54z" fill="#fefefe"/><path d="M252 268h67c-1 22-1 22-2 26a125.32 125.32 0 0 0-.481 4.585l-.242 2.729-.249 2.92-.265 3.01-.825 9.506-.564 6.449L313 339l-7.094 2.402-2.003.683c-5.135 1.727-10.297 3.018-15.591 4.172-9.647 2.161-19.125 4.904-28.508 8.008C257 355 257 355 252 355v-87z" fill="#ef652a"/><path d="M174 155h78v57h-74l-4-57z" fill="#e34f26"/></svg>