<svg xmlns="http://www.w3.org/2000/svg"
aria-label="Humble Bundle" role="img"
viewBox="0 0 512 512"><rect
width="512" height="512"
rx="15%"
fill="#fff"/><path d="M330.1 278.1c5.3 3 20.1 11 19.9 62.5q0 44.1-30.1 65.9c-20.1 14.4-49.4 21.7-87.6 21.7q-62.6 0-95.7-24.3-35.1-26.1-35.3-92.2c0-33.5 10.1-60.1 30.2-80 29.8-28.2 81.6-46.9 82.5-47.2q56.1-21.6 72.3-50.6a39.4 39.4 0 0 0 5.5-20.1c0-7-1.8-12.3-5.5-15.8s-4.3-5.6-1.7-6.1c5.1.8 22 18 18.7 38.4a124.3 124.3 0 0 1-14 41.5c-6.3 11.3-16.9 25.1-31.9 41.2-18.2 18.6-36.1 43.1-38.7 46.8-22 29.9-14.1 54.4-14.1 54.4 2.6 8 9.9 14.5 22.2 19.6-3.2-2.6-12.1-14.9-12.4-35.3 0-8.5 4.6-19.7 16.7-33.4 6.5-8.5 27.8-23.4 27.5-23.4zM235.3 114q0 18.6 17.4 35.7l-20.8 11.5a102.7 102.7 0 0 1-8.5-41.7c0-16.2 12.2-25 15.5-26.6s4.9-1.6 4.9-.2-.9 3-2.6 4.7c-3.7 3.7-5.6 9.2-5.9 16.6zm-14.9 54l-39.6 15.3L49 114.4c-5.2-2.6-12.5-10.1-4.9-22.3s15.5-7.9 19-6.2zm65.9 34.4l178.5 92.3c7.2 4 8.3 10.3 3 20.4s-12.4 10.6-17 8.5l-184.9-96.1z" fill="#cc2929"/></svg>