<svg xmlns="http://www.w3.org/2000/svg" fill="#fff" aria-label="IBM" role="img" viewBox="0 0 512 512"><rect width="512" height="512" rx="15%"/><path fill="#1f70c1" d="M54 174h404v12H54zM54 196h404v11H54zM54 305h404v11H54zM54 326h404v12H54zM77 283h124v11H77zM234 283h202v11H234zM77 240h359v11H77zM77 218h124v11H77zM234 218h202v11H234zM77 261h359v11H77z"/><path d="M402 245l-34 94h34z"/><path d="M335 245v94h34zM341 173l28 76 26-76zM111 215h56v81h-56z"/><path d="M133 173v166h11V173zM230 174c34 0 62 49 17 82 44 32 18 82-17 82v3 h49v-36l22-10V218l-22-10V172h-49z"/></svg>