<svg
xmlns="http://www.w3.org/2000/svg"
aria-label="iheartradio" role="img"
viewBox="0 0 512 512"><rect
width="512" height="512"
rx="15%"
fill="#fff"/>path d="M345 0c-37 0-70 20-89 48a107 107 0 00-196 59c0 37 24 64 49 89l96 92c6 4 14 1 14-6v-72a37 37 0 1174 0v72c1 7 9 10 14 5l97-91c24-25 48-52 48-89C452 48 404 0 345 0zM159 189a7 7 0 01-10 1c-32-29-48-58-48-88 0-26 16-55 36-68 4-3 8-1 11 2 2 3 1 8-3 10a71 71 0 00-29 56c0 26 14 51 43 77 3 2 3 7 0 10zm48-27a8 8 0 01-10 3 71 71 0 01-37-60c1-22 13-42 33-53 3-2 8 0 10 3s0 8-4 10c-14 8-24 23-24 40 0 18 12 37 29 47 4 2 5 6 3 10zm49-19a32 32 0 110-65 32 32 0 010 65zm60 21l-4 1c-3 0-5-1-7-3-2-4 0-9 3-11 17-9 29-28 29-46 0-17-9-32-24-40-4-2-5-6-3-10s6-5 10-3c19 11 32 31 32 53 0 24-15 47-36 60zm96-62c0 30-17 59-48 88l-5 1c-2 1-4 0-6-2-3-3-2-8 1-10 28-26 43-52 43-77 0-21-13-46-30-56-3-2-4-7-2-10s7-4 10-2c21 13 37 42 37 68z" fill="#c6002b"/><path d="M98 316h25v35h33v-35h26v93h-26v-35h-33v35H98v-93zm91 57c0-21 15-37 36-37 25 0 36 18 36 39v5h-48c2 8 8 12 15 12 6 0 11-3 16-8l14 12c-7 8-17 14-31 14-22 0-38-15-38-37zm48-6c0-8-5-13-12-13s-12 5-12 13h24zm108-30h25v15c4-10 11-16 23-16v26h-2c-13 0-21 8-21 24v23h-25v-72zm63 49v-29h-8v-20h8v-18h25v18h17v20h-17v24c0 6 3 8 7 8 3 0 7-1 10-3v20c-5 2-11 4-18 4-15 0-24-7-24-24zM73 310c-7 0-13 6-13 13s6 13 13 13 13-6 13-13-6-13-13-13zm1 33h-1c-8 0-14 5-14 13v53h28v-53c0-8-6-13-14-13zm261 30c0-22-15-37-38-37-14 0-24 5-31 14l14 12c5-5 10-8 16-8 8 0 13 4 15 12h-16c-21 1-32 8-32 23 0 14 10 21 27 21 10 0 17-3 22-8v7h23v-36zm-37 21c-6 1-10-3-10-8 0-4 3-6 9-6h15c0 4-2 14-14 14z" fill="#101820"/><path d="M58 431c0-2 2-5 5-5h1c2 0 3 1 4 3l31 46 31-46c1-2 2-3 4-3h1c3 0 5 3 5 5v77c0 3-2 5-5 5s-5-2-5-5v-64l-27 41-4 2-4-2-28-40v63c0 3-2 5-4 5-3 0-5-2-5-5v-77zm106 77v-76c0-3 2-5 5-5h53c3 0 5 2 5 4 0 3-2 5-5 5h-48v29h43c2 0 4 2 4 4s-2 4-4 4h-43v30h49c2 0 4 2 4 5 0 2-2 4-4 4h-54c-3 0-5-2-5-5m112-3c22 0 36-15 36-34s-14-34-36-34h-20v68h20zm-30-72c0-3 2-5 5-5h25c27 0 46 18 46 42v1c0 24-19 42-46 42h-25c-3 0-5-2-5-4v-76zm97-1c0-3 2-5 5-5 2 0 5 2 5 5v77c0 3-3 5-5 5-3 0-5-2-5-5v-77zm90 50l-20-44-20 44h40zm-61 25l35-76c1-3 3-4 6-4h1c2 0 4 1 6 4l34 76 1 2c0 3-2 5-5 5-2 0-4-2-5-4l-9-19h-46l-9 20c-1 2-3 3-5 3s-4-2-4-5v-2" fill="#919395"/></svg>