<?xml version="1.0" encoding="utf-8"?>
<!-- Generator: Adobe Illustrator 23.1.1, SVG Export Plug-In . SVG Version: 6.00 Build 0)  -->
<svg version="1.1" id="Layer_1" xmlns="http://www.w3.org/2000/svg" xmlns:xlink="http://www.w3.org/1999/xlink" x="0px" y="0px"
	 viewBox="0 0 512 512" style="enable-background:new 0 0 512 512;" xml:space="preserve">
<style type="text/css">
	.st0{fill:#C6002B;}
	.st1{fill:#101820;}
	.st2{fill:#919395;}
</style>
<g>
	<g>
		<g>
			<g>
				<path class="st0" d="M345.4,0c-37,0-70.1,19.6-89.2,48.2C237.1,19.6,204,0,167,0C108,0,60.3,47.8,60.3,106.7
					c0,37.4,23.7,64.4,48.4,89.3l96.8,91.5c5.1,4.8,13.4,1.2,13.4-5.8v-71.3c0-20.6,16.7-37.3,37.3-37.4c20.6,0,37.3,16.8,37.3,37.4
					v71.3c0,7,8.3,10.6,13.4,5.8l96.8-91.5c24.8-25,48.4-51.9,48.4-89.3C452.2,47.8,404.4,0,345.4,0z M159.3,189.1
					c-1.5,1.7-3.5,2.5-5.5,2.5c-1.7,0-3.5-0.6-4.9-1.9c-31.9-28.3-48-57.7-48-87.6v-0.4c0-25.7,15.7-54.9,36.5-68
					c3.5-2.2,8-1.1,10.2,2.3c2.2,3.5,1.1,8-2.3,10.2c-16.6,10.4-29.6,34.8-29.6,55.4v0.4c0,25.5,14.5,51.3,43.1,76.6
					C161.8,181.3,162,186,159.3,189.1z M206.9,161.6c-1.4,2.4-3.9,3.8-6.5,3.8c-1.2,0-2.5-0.3-3.6-0.9
					c-21.6-12.1-36.2-35.9-36.3-59.2V105c0.1-22.2,12.3-42.4,32-52.7c3.6-1.9,8.1-0.5,10,3.1c1.9,3.6,0.5,8.1-3.1,10
					c-14.8,7.8-24,23-24.1,39.7c0,18.2,11.6,36.8,28.7,46.4C207.6,153.5,208.9,158,206.9,161.6z M256.2,142.7
					c-17.7,0-32.1-14.4-32.1-32.1c0-17.7,14.4-32.1,32.1-32.1c17.7,0,32.1,14.4,32.1,32.1C288.3,128.3,274,142.7,256.2,142.7z
					 M315.6,164.5c-1.1,0.6-2.4,0.9-3.6,0.9c-2.6,0-5.1-1.4-6.5-3.8c-2-3.6-0.7-8.1,2.8-10.1c17.1-9.6,28.6-28.2,28.7-46.4
					c0-16.7-9.3-31.9-24.1-39.7c-3.6-1.9-5-6.4-3.1-10c1.9-3.6,6.4-5,10-3.1c19.7,10.3,31.9,30.5,32,52.7v0.2
					C351.8,128.6,337.2,152.3,315.6,164.5z M411.6,102c0,29.9-16.2,59.4-48,87.6c-1.4,1.2-3.2,1.9-4.9,1.9c-2,0-4.1-0.8-5.5-2.5
					c-2.7-3.1-2.4-7.7,0.6-10.4c28.6-25.3,43.1-51.1,43.1-76.6v-0.4c0-20.7-13-45.1-29.6-55.4c-3.5-2.2-4.5-6.7-2.3-10.2
					c2.2-3.5,6.7-4.5,10.2-2.3c20.8,13,36.5,42.3,36.5,68V102z"/>
			</g>
		</g>
		<g>
			<path class="st1" d="M97.6,316.3h25.6v34.5H156v-34.5h25.6v92.3H156v-35.1h-32.8v35.1H97.6V316.3z"/>
			<path class="st1" d="M188.9,373.3V373c0-20.8,14.9-37.3,36-37.3c24.6,0,36,18.1,36,39c0,1.6,0,3.4-0.1,5.1H213
				c2,7.8,7.6,11.7,15.4,11.7c5.9,0,10.7-2.2,15.8-7.3l13.8,11.5c-6.9,8.7-16.7,14.5-31,14.5C204.7,410.3,188.9,395.4,188.9,373.3z
				 M237.4,366.7c0-7.6-5.5-12.6-12.4-12.6c-6.6,0-11.8,5.1-12.4,12.6H237.4z"/>
			<path class="st1" d="M345.1,337.3h25v14.4c4.1-9.8,10.7-16.1,22.5-15.6v26.4h-2.1c-13,0-20.4,7.5-20.4,24v22.1h-25V337.3z"/>
			<path class="st1" d="M408.3,386.4v-29h-8.4v-20.2h8.4v-18.1h25v18.1H450v20.2h-16.6v24.1c0,5,2.2,7.1,6.8,7.1
				c3.3,0,6.5-0.9,9.5-2.4v19.6c-4.5,2.5-10.4,4.1-17.4,4.1C417.3,410,408.3,403.4,408.3,386.4z"/>
			<path class="st1" d="M73,309.7c-7.3,0-13.3,6-13.3,13.3s6,13.3,13.3,13.3c7.3,0,13.3-6,13.3-13.3S80.4,309.7,73,309.7z"/>
			<g>
				<path class="st1" d="M73.5,342.5h-0.9c-7.2,0-13.1,5.9-13.1,13.1v53h27.1v-53C86.6,348.4,80.7,342.5,73.5,342.5z"/>
			</g>
			<path class="st1" d="M335.4,372.7c0-22.1-15.8-37-38.2-37c-14.2,0-24.1,5.8-31,14.5l13.8,11.5c5.1-5,9.9-7.3,15.8-7.3
				c7.7,0,13.3,3.9,15.3,11.5l0,0.5l-16.5,0.1c-20.5,0.3-31.2,7.9-31.2,22.4c0,13.9,9.9,21.4,27,21.4c9.3,0,16.4-3.6,21.2-8.6v6.9
				h23.7v-34.9c0-0.2,0-0.4,0-0.7V372.7z M298,394.3c-6.5,0.3-10.3-3.5-10.3-8c0-4.3,3.4-6.6,9.7-6.6h14.3v0.8
				C311.6,383.5,310.4,393.8,298,394.3z"/>
		</g>
	</g>
	<g>
		<path class="st2" d="M58,431.2c0-2.6,2.2-4.8,4.8-4.8h1.1c2.1,0,3.5,1.1,4.5,2.6L99,475l30.6-46c1-1.6,2.6-2.6,4.5-2.6h1.1
			c2.6,0,4.8,2.2,4.8,4.8v77c0,2.7-2.2,4.9-4.8,4.9c-2.7,0-4.9-2.3-4.9-4.9v-63.9l-27.4,40.3c-1.1,1.6-2.3,2.5-4,2.5
			c-1.7,0-3.1-0.9-4.2-2.5l-27.3-40.1v63.8c0,2.7-2.1,4.8-4.8,4.8c-2.6,0-4.6-2.1-4.6-4.8V431.2z"/>
		<path class="st2" d="M164.2,507.5v-75.9c0-2.7,2.2-4.9,4.8-4.9h53.2c2.5,0,4.4,2,4.4,4.4c0,2.5-2,4.4-4.4,4.4h-48.3v29.2h42.8
			c2.4,0,4.4,2.1,4.4,4.4c0,2.4-2,4.4-4.4,4.4h-42.8v30h48.9c2.4,0,4.4,2,4.4,4.4c0,2.5-2,4.4-4.4,4.4H169
			C166.4,512.4,164.2,510.2,164.2,507.5"/>
		<path class="st2" d="M276,503.5c21.7,0,35.5-14.7,35.5-33.6v-0.2c0-19-13.8-33.9-35.5-33.9h-20.1v67.8H276z M246.2,431.6
			c0-2.7,2.2-4.9,4.8-4.9h25c26.9,0,45.5,18.5,45.5,42.6v0.3c0,24.1-18.6,42.8-45.5,42.8h-25c-2.6,0-4.8-2.2-4.8-4.9V431.6z"/>
		<path class="st2" d="M342.8,431c0-2.7,2.2-4.9,4.8-4.9c2.7,0,4.9,2.2,4.9,4.9v77.1c0,2.7-2.2,4.9-4.9,4.9c-2.6,0-4.8-2.2-4.8-4.9
			V431z"/>
		<path class="st2" d="M432.9,481l-19.7-43.8L393.5,481H432.9z M372.3,506l34.7-76c1.2-2.7,3.1-4.3,6.1-4.3h0.5c2.9,0,4.9,1.6,6,4.3
			l34.7,75.8c0.4,0.9,0.6,1.7,0.6,2.5c0,2.6-2.1,4.6-4.7,4.6c-2.3,0-3.9-1.6-4.8-3.5l-8.9-19.7h-47l-8.9,19.9
			c-0.9,2.1-2.4,3.3-4.6,3.3c-2.4,0-4.4-2-4.4-4.4C371.7,507.9,371.8,507,372.3,506"/>
	</g>
</g>
</svg>
