<svg
xmlns="http://www.w3.org/2000/svg"
xmlns:xlink="http://www.w3.org/1999/xlink"
aria-label="iHeartRadio" role="img"
viewBox="0 0 512 512"><rect
width="512" height="512"
rx="15%"
fill="#fff"/><defs><path id="h" fill="#c6002b" d="M147.446 301.306c-32.256 -28.612 -48.617 -58.386 -48.617 -86.688 0 -28.302 15.895 -57.921 36.908 -71.103 10.256 -4.438 14.619 8.22 7.986 12.639 -16.748 10.545 -29.93 35.125 -29.93 58.697 0 23.572 14.655 49.625 43.577 75.212 7.013 8.654 -3.752 16.467 -9.925 11.243zm48.539 -25.51c-21.866 -12.251 -36.598 -36.288 -36.598 -59.394 0 -23.106 12.484 -43.654 32.334 -54.044 10.529 -3.699 13.951 9.34 6.978 13.182 -14.965 7.831 -24.347 23.339 -24.347 40.165 0.078 18.377 11.708 37.218 28.999 46.911 8.721 7.131 -0.567 16.705 -7.366 13.182zM256 253.852c-17.911 0 -32.489 -14.5 -32.489 -32.411 0 -17.911 14.577 -32.489 32.489 -32.489v-30.705c-19.385 -28.922 -52.804 -48.772 -90.255 -48.772 -59.627 0 -107.933 48.306 -107.933 107.934 0 37.839 23.959 65.132 49.004 90.332l97.854 92.581c6.264 3.883 13.466 1.294 13.569 -5.815v-72.111c0 -20.858 16.903 -37.761 37.761 -37.761z"/></defs>
<use xlink:href="#h" /><use xlink:href="#h" transform="translate(512 0) scale(-1,1)"/></svg>
