<svg
xmlns="http://www.w3.org/2000/svg"
aria-label="iHeartRadio" role="img"
viewBox="0 0 512 512"><rect
width="512" height="512"
rx="15%"
fill="#fff"/>
<path id="h" fill="#c6002b" d="m 147.44619,301.30555 c -32.25598,-28.61168 -48.616594,-58.38644 -48.616594,-86.68796 0,-28.30153 15.895374,-57.92121 36.908294,-71.10275 10.25637,-4.43819 14.61899,8.21958 7.98646,12.63877 -16.7483,10.54522 -29.92984,35.12491 -29.92984,58.69659 0,23.57168 14.65477,49.6246 43.5766,75.21228 7.01283,8.65379 -3.75172,16.46725 -9.92492,11.24307 z m 48.53906,-25.51014 c -21.86584,-12.25107 -36.59814,-36.28799 -36.59816,-59.39444 -2e-5,-23.10645 12.48371,-43.65414 32.33355,-54.04429 10.52903,-3.69925 13.95119,9.33973 6.97846,13.18154 -14.96492,7.83138 -24.34707,23.33906 -24.34707,40.1649 0.0775,18.37661 11.7083,37.21845 28.99937,46.91076 8.72096,7.13095 -0.56682,16.70507 -7.36615,13.18153 z M 256,253.85203 c -17.91138,0 -32.4886,-14.49968 -32.4886,-32.41106 0,-17.91138 14.57722,-32.48861 32.4886,-32.48861 v -30.70522 c -19.38461,-28.92183 -52.80367,-48.77167 -90.25474,-48.77167 -59.62705,0 -107.933495,48.30644 -107.933495,107.9335 0,37.83875 23.959376,65.13228 49.004285,90.33227 l 97.85351,92.58089 c 6.26419,3.88297 13.46551,1.29432 13.56922,-5.81538 v -72.11074 c 0,-20.85784 16.90338,-37.76122 37.76122,-37.76122 z" />
<use xlink:href="#h" transform="translate(512 0) scale(-1,1)"/>
</svg>
