<svg
xmlns="http://www.w3.org/2000/svg" xmlns:xlink="http://www.w3.org/1999/xlink"
aria-label="iHeartRadio" role="img"
viewBox="0 0 512 512"><rect
width="512" height="512"
fill="#fff"
rx="15%"/><defs><path id="a" fill="#c6002b" d="M147.45 301.31c-32.26 -28.61 -48.62 -58.39 -48.62 -86.69 0 -28.3 15.9 -57.92 36.91 -71.1 10.26 -4.44 14.62 8.22 7.99 12.64 -16.75 10.55 -29.93 35.12 -29.93 58.7 0 23.57 14.65 49.62 43.58 75.21 7.01 8.65 -3.75 16.47 -9.92 11.24zm48.54 -25.51c-21.87 -12.25 -36.6 -36.29 -36.6 -59.39 0 -23.11 12.48 -43.65 32.33 -54.04 10.53 -3.7 13.95 9.34 6.98 13.18 -14.96 7.83 -24.35 23.34 -24.35 40.16 0.08 18.38 11.71 37.22 29 46.91 8.72 7.13 -0.57 16.71 -7.37 13.18zM256 253.85c-17.91 0 -32.49 -14.5 -32.49 -32.41 0 -17.91 14.58 -32.49 32.49 -32.49v-30.71c-19.38 -28.92 -52.8 -48.77 -90.25 -48.77 -59.63 0 -107.93 48.31 -107.93 107.93 0 37.84 23.96 65.13 49 90.33l97.85 92.58c6.26 3.88 13.47 1.29 13.57 -5.82v-72.11c0 -20.86 16.9 -37.76 37.76 -37.76z"/></defs><use xlink:href="#a"/><use transform="matrix(-1 0 0 1 512 0)" xlink:href="#a"/>
</svg>
