<svg xmlns="http://www.w3.org/2000/svg"
aria-label="Inkscape" role="img"
viewBox="0 0 512 512"><path
d="m0 0H512V512H0"
fill="#fff"/><path d="M223.7 95.2 94.6 227.4c-43.7 54 30 47.7 61 63.3 11.4 11.3-43 20-32 31.6 11.3 11.5 68 22 79.5 33.7s-23 23.8-11.8 35.3c11.3 11.5 37.4.6 42.3 27.2 3.5 19 47 8.2 68.3-7.4 11.3-11.5-21.6-10.4-10.3-22 28-28.6 54-10.4 63.7-39 4.8-14-41-22-30-33.4 32.5-19 145-31.3 91.4-84.5L283 95.2a43 43 0 00-59.3 0M372 350c0 6.5 48.3 10.8 48.3-1.6-7-20-42.6-18.5-48.3 1.6m-217.7 34.8c11.5 10 29.2-2.4 34.5-16.2-11-15-52.6.5-34.5 16.2M366 363.5c-15 13 2 26.6 16.2 18 3.3-3 0-14.8-16.2-18"/><path fill="#fff" d="M192.8 298c4 2 56 12.7 68.4 14.8 4.5 1 1.3 5.5-4.8 8.6-14 3.6-80.4-23.4-63.6-23.4m82.4-193.4 51.2 52c4.8 5 4.7 14.5 2 17.3L303 153.4l-5 30-21-11.2-34 21.5-11.2-45.2-18.3 31.5h-28c-11.3 0-12.7-14.4-2.3-24.7 18-19.5 38.7-39.3 50-50.8a30 30 0 0142 0"/></svg>