<svg xmlns="http://www.w3.org/2000/svg"
aria-label="Intel" role="img"
viewBox="0 0 512 512"><rect
width="512" height="512"
rx="15%"
fill="#fff"/><g fill="#0071c5"><path d="M169 235v68h-21v-86h45c18 0 25 14 25 26v60h-22v-60c0-5-2-8-9-8zm147-1c-7 0-13 4-15 9l-2 9h33c0-9-4-18-16-18m-17 33c0 11 7 19 19 19 10 0 14-3 20-8l14 12c-9 10-21 15-34 14-21 0-40-11-40-44 0-29 16-44 39-44 24 0 37 18 37 43v8zm-40 36c-17 0-25-13-25-25v-84h22v23h16v18h-16v42c0 4 2 8 7 8h9v18zm-130-98h-22v-20h22zm0 98c-17-1-22-11-22-22v-64h22zm259-1c-16-2-22-12-22-23v-98h22zm77-107c-20-95-207-101-328-28v7c121-61 292-61 307 29 5 28-11 59-41 77v23c35-14 72-56 62-108M245 365c-83 7-170-5-182-70-5-32 9-66 28-87v-12c-34 31-54 70-42 115 13 59 87 92 202 82 44-4 103-19 144-41v-33c-37 22-99 41-150 46"/><path d="M409 194v-8h3c1 0 4 0 4 2s-2 2-2 3l2 3h-2c-1-3-3-3-4-3v3zm1-5h2s2 1 2-1l-2-1h-2z"/><circle cx="412" cy="190" r="8" fill="none" stroke="#0071c5" stroke-width="2"/></g></svg>