<svg xmlns="http://www.w3.org/2000/svg"
aria-label="Intercom" role="img"
viewBox="0 0 512 512"><rect
width="512" height="512"
rx="15%"
fill="#0E24D1"/><path fill="#fff" d="M365 272a10 10 0 01-11 10 10 10 0 01-10-10v-91a10 10 0 0110-10c3 0 6 1 8 3s3 4 3 7v91zm-4 63c-1 2-39 33-108 33s-106-31-108-33a10 10 0 1113-15c1 1 34 28 95 28s95-28 95-28a10 10 0 0114 1 10 10 0 01-1 14zM142 181a10 10 0 0110-10 10 10 0 0110 10v91a10 10 0 01-10 10 10 10 0 01-10-10v-91zm50-20a10 10 0 0111-10 10 10 0 0110 10v135a10 10 0 01-11 10 10 10 0 01-10-10V161zm51-5a10 10 0 0110-10 10 10 0 0111 10v146a10 10 0 01-11 11 10 10 0 01-10-11V156zm51 5a10 10 0 0110-10 10 10 0 0110 10v135a10 10 0 01-10 10 10 10 0 01-10-10V161zm73-56H139a38 38 0 00-35 24c-2 4-3 9-3 14v228a38 38 0 0024 35c4 2 9 3 14 3h228a38 38 0 0035-24c2-4 3-9 3-14V143a38 38 0 00-23-35l-15-3"/></svg>