<svg xmlns="http://www.w3.org/2000/svg" aria-label="Intel" role="img" viewBox="0 0 512 512"><rect width="512" height="512" fill="#fff" rx="15%"/><path fill="#0071c5" d="M157 232v77h-24v-97h51c21 0 29 15 29 29v68h-25v-68c0-6-3-9-10-9h-21zm168-1c-8 0-15 4-17 10-2 3-3 6-3 10h38c0-10-5-20-18-20m-20 37c0 13 8 22 22 22 11 0 16-3 23-9l15 14a49 49 0 0 1-38 16c-24 0-46-13-46-51 0-32 19-50 45-50 27 0 42 21 42 49v9h-63m-45 41c-20 0-29-14-29-28v-96h25v27h18v20h-18v48c0 5 2 9 8 9h10v20h-14M111 198H86v-23h25zm0 112c-19-2-25-13-25-26v-72h25v98zm296-2c-19-2-25-13-25-26V171h25zm87-121C471 78 258 71 121 154v9c137-70 332-70 349 32 6 33-12 68-46 88v26c40-15 82-63 70-122M244 380c-95 8-194-5-208-80-6-36 10-75 32-99v-13c-39 35-61 79-48 131 15 67 100 105 230 93 51-5 118-22 165-47v-37c-43 25-113 46-171 52m192-201c0-1-1-2-3-2h-1v4h1c2 0 3-1 3-2zm2 8h-2l-3-4h-1v4h-3v-11l1-1h3c3 0 5 1 5 4 0 2-1 3-2 3l2 5m-4-14c-5 0-8 4-8 8a8 8 0 1 0 8-8m0 18a10 10 0 1 1 0-20c5 0 10 5 10 10 0 6-5 10-10 10"/></svg>