<svg xmlns="http://www.w3.org/2000/svg"
aria-label="Java" role="img"
viewBox="0 0 512 512" fill="none"><rect
width="512" height="512"
rx="15%"
fill="#fff"/><path d="M274 235c18 21-5 40-5 40s47-24 25-54-35-42 48-90C342 130 211 163 274 235M294 53s40 40-38 100c-62 49-14 77 0 109-36-33-63-61-45-88C238 134 310 115 294 53" fill="#f8981d"/><path d="M206 347s-15 8 10 11 46 3 79-3a137 137 0 0 0 21 10C242 397 147 364 206 347m-9-42s-16 12 9 15 58 4 102-5a45 45 0 0 0 16 10C233 351 132 327 197 305m175 73s11 9-12 16c-43 13-179 17-217 1-14-6 15-17 33-17-17-10-98 21-42 30C287 432 412 396 372 378M213 262s-69 16-25 22c19 3 57 2 92-1s57-8 57-8a122 122 0 0 0-17 9c-70 18-206 10-167-9S213 262 213 262m124 69c73-37 39-80 7-66 36-30 101 36-9 68v-2M220 432c69 4 174-2 176-35 0 0-5 12-57 22s-131 10-174 3C166 422 175 429 220 432" fill="#5382a1"/></svg>