<svg xmlns="http://www.w3.org/2000/svg"
aria-label="Java" role="img"
viewBox="0 0 512 512" fill="none"><path
d="m0 0H512V512H0"
fill="#fff"/><path d="M274 235c18 21-5 40-5 40s47-24 25-54-35-42 48-90c0-1-131 32-68 104M294 53s40 40-38 100c-62 49-14 77 0 109-36-33-63-61-45-88 27-40 99-59 83-121" fill="#f8981d"/><path d="M206 347s-15 8 10 11 46 3 79-3a137 137 0 0021 10c-74 32-169-1-110-18m-9-42s-16 12 9 15 58 4 102-5a45 45 0 0016 10c-91 26-192 2-127-20m175 73s11 9-12 16c-43 13-179 17-217 1-14-6 15-17 33-17-17-10-98 21-42 30 153 24 278-12 238-30M213 262s-69 16-25 22c19 3 57 2 92-1s57-8 57-8a122 122 0 00-17 9c-70 18-206 10-167-9s60-13 60-13m124 69c73-37 39-80 7-66 36-30 101 36-9 68zM220 432c69 4 174-2 176-35 0 0-5 12-57 22s-131 10-174 3c1 0 10 7 55 10" fill="#5382a1"/></svg>