<svg xmlns="http://www.w3.org/2000/svg"
aria-label="JSON Feed" role="img"
viewBox="0 0 512 512"><rect
width="512" height="512"
rx="15%"
fill="#8be028"></rect><g fill="#fff"><ellipse cx="386.526988" cy="125.49998" rx="27.5" ry="27.499987"/><ellipse cx="326.526988" cy="185.49998" rx="27.5" ry="27.499987"/><ellipse cx="266.526988" cy="245.49998" rx="27.5" ry="27.499987"/></g><path d="m118.02699 96s-53.453132 42.00586-52.453132 87.00586c.55892 25.15107 22.453132 44.99414 39.453132 63.99414s41 32 46 59c2.9642 16.00667-10 22-19 35-10.69448 15.44759 7 32 7 32s16.55241 17.69448 32 7c13-9 18.99333-21.9642 35-19 27 5 40 29 59 46s38.84307 38.89422 63.99414 39.45312c45 1 87.00586-52.45312 87.00586-52.45312l-29-29s-23 27-43 27c-45.54726-8.62286-61.09453-59.51652-100-77-29-12-45.70462 12.59847-53 6-6.59847-7.29538 18-24 6-53-17.48348-38.90547-68.37714-54.45274-77-100 0-20 27-43 27-43z" fill="#497715"/></svg>