<svg xmlns="http://www.w3.org/2000/svg"
aria-label="JSON-LD" role="img"
viewBox="0 0 512 512"><rect
width="512" height="512"
rx="15%"
fill="#fff"/><g font-size="314"><text x="22" y="350">{</text><text x="340" y="350">}</text></g><path d="m328 291-4-2h1s-9-4-10-33 9-34 9-34h-1c7-4 13-9 17-17 11-20 3-44-17-55s-44-3-55 17c-4 8-6 17-4 25v-1s2 11-22 26c-25 15-36 8-36 8v1l-2-1c-20-11-44-3-55 17s-3 44 17 55c15 8 32 6 44-4v1s9-7 35 7c21 11 24 22 24 26-1 15 7 30 21 37 20 11 44 3 55-17s3-44-17-55zm-46 5c-3 1-13 2-32-8-21-11-25-21-25-24v-10s-2-9 23-25c22-14 32-11 34-10l4 2 8 3c3 3 9 11 9 32 0 22-6 30-9 33l-10 6z" fill="#0c479c"/><path d="M280 163c-12 13-12 32-1 43-6-5-6-17 1-27 0-1 3-3 6-2h2c5 0 8-4 8-9l-2-5c11-7 23-8 29-3-12-11-31-9-43 4zM160 282zm1-43c-12 13-12 32-1 43-6-5-6-17 1-27 0-1 3-3 6-2h2c5 0 8-4 8-9l-2-5c11-7 23-8 29-3-12-11-31-9-43 4zm125 108zm1-43c-12 13-12 32-1 43-6-5-6-17 1-27 0-1 3-3 6-2h2c5 0 8-4 8-9l-2-5c11-7 23-8 29-3-12-11-31-9-43 4z" fill="#fff"/></svg>