<svg xmlns="http://www.w3.org/2000/svg"
aria-label="..." role="img"
viewBox="0 0 512 512"><rect
width="512" height="512"
rx="15%"
fill="#fff"/><g transform="scale(5.5,5.5) translate(-40,-30)"><path fill="#20BEFF" d="M106,103c-0.06,0.3-0.3,0.4-0.8,0.4h-8c-0.5,0-0.9-0.2-1.3-0.6L82.746,86.028l-3.655,3.477v13c0,0.6-0.3,0.9-0.9,0.9h-6.152c-0.6,0-0.9-0.3-0.9-0.9V44c0-0.6,0.3-0.9,0.9-0.9h6.1c0.6,0,0.9,0.3,0.9,0.9v36l15.692-15.87c0.416-0.415,0.832-0.624,1.248-0.624h8.204c0.356,0,0.593,0.149,0.713,0.445c0.119,0.4,0.1,0.6-0.1,0.8L88,81,21.5C106,102,106,103,106,103"/></g></svg>
