<svg xmlns="http://www.w3.org/2000/svg"
aria-label="KeePassXC" role="img"
viewBox="0 0 512 512"
fill="#fff"><defs><radialGradient
id="g"
fy="0"><stop
offset="0"
stop-color="#2e6b26"/><stop
offset="1"
stop-color="#6ab536"/></radialGradient></defs><path
d="m0 0H512V512H0"/><path
fill="#333"
d="M0 255.5a255 255 0 110 1"/><path
fill="url(#g)"
d="M40 254a215 215 0 110 2"
/><path d="M255.5 21.5a235 235 0 101 0M226.6 224.8h15v148h-15M154.4 86.3a198 198 0 10203.1.1A102 102 0 01300.3 200.2L297.7 244l31.5 31.5-31.5 31.6 20.8 20.8-20.8 20.9 2.7 38.9L256 432l-44.3-44.2V200.2A102 102 0 01154.6 86.4m65.6-24.5a36.7 36.7 0 1071.6-.1 198 198 0 00-71.6.1"
fill-rule="evenodd"/></svg>