<svg xmlns="http://www.w3.org/2000/svg" aria-label="Kickstarter" role="img" viewBox="0 0 512 512"><rect width="512" height="512" fill="#fff" rx="15%"/><defs><clipPath id="a"><path d="M1226.4 862.8l154 153a405.2 405.2 0 0 1 0 575 411.8 411.8 0 0 1-578.9 0l-56-55.7A409 409 0 0 1 409 1710c-225.8 0-409-182-409-406.3v-881C0 198.5 183.2 16.6 409 16.6a409 409 0 0 1 336.5 174.9l56-55.7a411.8 411.8 0 0 1 578.9 0 405.2 405.2 0 0 1 0 575z"/></clipPath><clipPath id="b"><path d="M0 0h1500v1710H0z"/></clipPath></defs><g clip-path="url(#a)" transform="matrix(.25981 0 0 -.25981 61 480.3)"><g clip-path="url(#b)"><path fill="#034752" d="M0 0h1650v1860H0z"/></g></g></svg>