<svg
xmlns="http://www.w3.org/2000/svg"
aria-label="Ko-Fi" role="img"
viewBox="0 0 512 512">
<rect
width="512" height="512"
rx="15%"
fill="#579fbf"/><path d="M400 287c-17 2-31 1-31 1V183h33s36 10 36 49c0 35-18 49-38 55m90-73c-14-75-89-84-89-84H65c-11 0-12 14-12 14s-2 135-1 217c3 44 48 49 48 49l219-1c45-8 49-47 49-68 80 4 136-52 122-127" fill="#fff"/><path d="M208 352c3 1 6-1 6-1s50-46 73-73c20-24 22-64-13-79s-64 18-64 18c-25-27-62-26-80-8s-11 51 2 68c12 17 66 65 74 73l2 2" fill="#ff5f5f"/></svg>