<svg xmlns="http://www.w3.org/2000/svg"
aria-label="Ko-fi" role="img"
viewBox="0 0 512 512"><path
d="m0 0H512V512H0"
fill="#fff"/><path d="M66 213.4c0-54.7 32.9-84.3 71.6-89.2 29.2-3.7 65.4-4.1 108.2-4.1 66.7 0 83.9.8 108.6 3.3 58 5.7 91.7 41.5 91.7 92.9v6.6c0 47.7-35 86.8-82.3 90.9-3.7 12.3-9.5 24.7-17.3 37-18.1 27.9-54.3 63.3-120.9 63.3H212.4c-54.3 0-96.2-23.4-121.3-66.2C68.9 310.5 66 268.9 66 213.4" fill="#202020"/><path d="M97 214c0 53 3 87 21 119 20 37 56 51 96 51h13c53 0 79-26 94-49 7-12 13-24 16-40l2-10h15c33 0 61-27 61-61v-6c0-38-24-58-65-63-23-2-37-3-104-3-45 0-77 0-101 4-34 5-48 24-48 59" fill="#fff"/><path fill="#202020" d="M339 242c0 5 4 9 10 9 21 0 32-12 32-32s-12-32-32-32c-7 0-10 4-10 9v46Z"/><path fill="#ff5a16" d="M137 240c0 24 14 45 31 62 12 11 30 23 42 30 4 2 7 3 12 3s9-1 12-3c12-7 30-19 42-30 18-16 31-37 31-62 0-26-20-50-48-50-17 0-28 9-37 21-8-12-20-21-37-21-29 0-48 23-48 50"/></svg>