<svg xmlns="http://www.w3.org/2000/svg" role="img" aria-label="Laravel" viewBox="0 0 512 512"><rect width="512" height="512" fill="#fff" rx="15%"/><path fill="#fb503b" d="M469.8 246.3c-3-3.2-42.3-52.6-49.3-61s-10.3-7-14.6-6.2l-60 10s-10 4-6 9l43 61-130.6 31L149 116.5c-4-6-5-8.3-14.3-7.8-9.4.4-81.4 6.4-86.5 6.8S37.4 118 42.6 130c5 12 87 188.4 89.2 193.5s8.2 13.4 22 10c14.3-3.3 63.6-16.2 90.5-23.2 14.2 25.8 43.3 78 48.6 85.5 7 10 12 8.2 23 5 8-2.7 134-48 140-50.3 5.2-2.3 9-4 5-9.7l-53.6-72c12-3 54-14.3 58.7-15.6 5.3-1.3 6-4 3-7zm-237.2 48.5L154 313.5s-3.8.4-4.2-1-87-179.5-88-181.7-1.2-4 0-4 69-6 71.3-6.2 2.8.4 3 2l98 168c1.8 3 .8 4-1 4.2zm206 38.6c1.3 1.8 2.4 3-1.2 4.3-3.7 1.3-123.7 41.8-126 42.8s-4.2 1.3-7.2-3-42-72-42-72l127.2-33c3.2-1 4.2-1.7 6.2 1.5s42 57.6 43 59.4zM447 243l-49.6 12.3L359 203c-1-1.6-2-3 .7-3.5l48-8.6c2-1 3.7-1 6 2l36.8 46.3s-.8 2.5-3.7 3z"/></svg>
