<svg xmlns="http://www.w3.org/2000/svg"
aria-label="Laravel" role="img"
viewBox="0 0 512 512"><rect
width="512" height="512"
rx="15%"
fill="#fff"/><path d="m437 248-42-52c-6-7-8-6-12-5l-51 8c-5 1-8 3-5 7l37 52-111 27-88-147c-3-5-4-7-12-7l-73 6c-4 0-9 2-5 13l76 163c2 4 7 12 19 9l76-20 41 72c6 9 10 7 20 5l118-43c5-2 8-3 5-8l-45-61 49-13c5-1 5-4 2-6zm-201 41-66 16-4-1a35200 25200 0 0 0 -74-157l60-6a630446 630446 0 0 0 84 147zm175 33c1 1 2 2-1 3l-107 36c-2 1-4 1-6-2l-36-61 108-28c3-1 3-1 5 1zm6-77-41 10-33-44c-1-1-2-2 1-3l40-7c2 0 4-1 6 2l31 39c1 2-1 3-4 3z" fill="#fb503b"/></svg>