<svg xmlns="http://www.w3.org/2000/svg" viewBox="0 0 512 512" aria-label="LeetCode Logo">
  <rect width="100%" height="100%" fill="#fff"/>
  <path d="M469 307c0-17-12-30-27-30H228c-15 0-27 13-27 30s12 28 27 28h214c15 0 27-13 27-28Z" fill="#b3b1b0"/>
  <path d="m75 388 91 92c22 21 49 32 81 32s60-11 82-32l55-53c11-11 11-30 0-43a32 32 0 0 0-43 0l-55 55a51 51 0 0 1-39 15c-14 0-29-4-38-15l-92-91a56 56 0 0 1-15-41c0-15 5-28 15-38l92-98c9-11 21-13 38-13 18 0 28 4 39 13l57 55c11 11 28 11 41 0 11-11 11-30 0-43l-55-53c-15-14-32-23-52-28l52-53c10-11 10-30 0-40-11-11-30-9-41 0L75 222c-22 21-32 51-32 85 0 30 10 60 32 81Z" fill="#e7a41f"/>
  <path d="M173 486c-4-1-8-3-11-6l-85-85a126 126 0 0 1 2-180L284 11c15-13 32-15 45 0 12 10 10 30 0 42l-52 49-4 7-55 55-9 7-90 91a62 62 0 0 0 0 88l86 85 4 4c11 7 11 26 4 37-6 8-17 15-30 15-4 0-6 0-10-5Z" fill="#070706"/>
</svg>
