<svg xmlns="http://www.w3.org/2000/svg"
aria-label="LeetCode Logo" role="img"
viewBox="0 0 512 512"><path d="M0 0h512v512H0"
fill="#fff"/><path d="M412 289c0-12-8-21-19-21H243c-10 0-19 9-19 21s9 19 19 19h150c11 0 19-9 19-19Z" fill="#b3b1b0"/><path d="m136 345 64 64c15 14 34 22 57 22s42-8 57-22l39-37c7-8 7-21 0-30a22 22 0 00-31 0l-38 38a36 36 0 01-27 11c-10 0-21-3-27-11l-63-62a39 39 0 01-13-29c-1-11 3-23 13-33l64-69c6-7 15-9 27-9s19 3 27 9l40 39c8 8 19 8 29 0 7-8 7-21 0-30l-39-37a80 80 0 00-36-20l39-41c7-8 7-21 1-28-9-10-22-8-33 4L136 229a80 80 0 00-22 60c0 21 7 42 22 56Z" fill="#e7a41f"/><path d="M136 345l0 0c-15-14-22-35-22-56L114 289C113 265 119 248 136 229l13-13L286 74c11-12 24-14 33-4 6 7 6 20-1 28l-39 41 0 0-48 48 0 0-64 69a43 43 0 000 62l60 59 3 3C236 388 235 395 230 405c-7 10-15 18-30 4Z" fill="#070706"/></svg>