<svg xmlns="http://www.w3.org/2000/svg" aria-label="LeetCode" role="img" viewBox="0 0 24 24">
  <path fill="#B3B1B0" d="m22 14-1-1H11l-2 1 2 2h10l1-2z"/>
  <path fill="#9C9A99" d="M22 14H9l2 2h10l1-2z"/>
  <path fill="#C98F1B" d="m5 14 1 2 4 4v2l-1 1H8l4 1 3-1 3-3v-2h-2l-3 3h-3l-5-5v-2z"/>
  <path fill="#060605" d="M5 14H2l2 4 4 4a2 2 0 0 0 0 1h1l1-1v-2l-4-4-1-2z"/>
  <path fill="#E7A41F" d="m3 18 5 5 4 1 3-1 3-3v-2h-2l-3 3h-3l-5-5v-4l5-4 2-1 1 1 3 3h2V9l-3-3-2-1 2-3V0h-1L3 10l-1 4 1 4z"/>
  <path fill="#070706" d="M8 23v-1l-4-4a6 6 0 0 1 0-8l9-10h2v2l-2 3-3 3-4 4c-2 1-2 3 0 4l4 4v2l-1 1H8z"/>
  <path fill="#EAB03C" d="m13 5-3 3-4 4-1 2v-2l5-4 2-1 1 1 3 3h2V9l-3-3-2-1zm1-5z"/>
  <path fill="#272726" d="M14 0h-1L4 10l-1 1-1 3h3l1-2 4-4 3-3 2-3V0h-1z"/>
</svg>