<svg height="512" viewBox="0 0 38.1 38.1" width="512" aria-label="Lobste.rs" role="img" xmlns="http://www.w3.org/2000/svg"><rect fill="#ac130c" height="38.1" rx="15%" width="38.1"/><path d="m31.325 31.854h-22.964v-1.748c.733-.022 1.333-.088 1.8-.2.966-.248 1.6-.807 1.777-1.699.09-.49.169-1.122.169-1.9v-14.868c-.007-1.078-.015-2.163-.707-3-.223-.289-.65-.478-1.072-.567-.4-.11-1.187-.188-1.854-.233v-1.563h12.697v1.563c-.756.022-1.749.089-2.216.2-.444.111-.788.311-1.033.6-.713.961-.531 2.237-.53 3.233v13.642c0 .934.02 1.7.197 2.3.574 1.424 1.589 1.764 2.866 1.987 1.735-.015 3.28.03 4.833-.251 1.607-.33 2.948-1.406 3.6-2.725.356-.733.785-2.457.785-3.35h1.655z" fill="#fff"/></svg>
