<svg  
  xmlns="http://www.w3.org/2000/svg"
  aria-label="logitech-logo" role="img"
  viewBox="0 0 512 512">
    <rect
      width="512" height="512"
      rx="15%"
      fill="#fff"/>
    <g fill="#00a7e0" transform="scale(2.5) translate(40 35)">
        <path d="M19.08 18.97C29.93 7.54 45.55.9 61.31.95c0 8.03.01 16.07 0 24.1-10.65.1-21.21 5.22-27.43 13.94-7.85 10.55-8.65 25.73-1.93 37.04 5.83 10.4 17.51 16.86 29.36 16.92.01 8.03.01 16.07 0 24.1-13.89.01-27.7-5.07-38.18-14.19C10.75 92.29 3.14 76.31 2.99 60 2.63 44.9 8.6 29.83 19.08 18.97zM62.06 48.56H114c0 17.36.01 34.72-.01 52.07-7.97-.01-15.95-.01-23.92 0-.02-9.35 0-18.71-.01-28.06-9.33-.01-18.66-.01-27.99 0-.02-8-.01-16.01-.01-24.01z"/>
    </g>
</svg>