<svg xmlns="http://www.w3.org/2000/svg"
aria-label="Lucky Framework" role="img"
viewBox="0 0 512 512"><rect
width="512" height="512"
rx="15%"
fill="#fff"/><rect fill="#fff" height="512" rx="15%" width="512"/><path d="m0 0h512v512h-512z" fill="none"/><path d="m193.609 427c27.383-95 102.383-230 148.383-270l47.15 83.116c28.475 50.683 40.293 79.929 41.85 86.884 9.22 50.237-23.782 96.812-60 100z" fill="#9cfd65"/><path d="m140.992 427c11.39-88.95 105-255 175-310l26 40c-56 65-116 170-148.383 270z" fill="#34db96"/><path d="m81.762 325.006c7.33-32.517 121.848-208.006 121.848-208.006 30-45 80-45 112.383 0-75 85-140 210-175 310-39.434-5-70.44-53.765-59.23-101.994z" fill="#1b92b1"/></svg>