<svg xmlns="http://www.w3.org/2000/svg" aria-label="Mail" role="img" viewBox="0 0 512 512"><rect width="512" height="512" fill="#168de2" rx="15%"/><path fill="#fff" d="M250 183c-48 0-72 36-72 77 0 46 30 75 71 75 45 0 76-33 76-78 0-46-35-74-75-74zm-1-39c31 0 59 13 80 34 0-23 37-23 37 1v158c-1 10 11 16 17 9 26-26 56-134-15-196-67-59-156-49-204-16-50 35-83 112-51 184 34 79 132 103 190 79 30-12 43 28 13 41-47 20-176 18-236-86-40-71-38-194 70-259 82-49 191-35 256 33 69 72 65 206-2 258-30 24-75 1-75-34v-11c-21 21-49 33-80 33-60 0-113-53-113-113 0-61 53-115 113-115"/></svg>