<svg xmlns="http://www.w3.org/2000/svg" aria-label="markdown" role="img" viewBox="-13 -109 512 512"><g transform="scale(1.9)"><path d="M238,158L18,158C8,158 0,149 0,139L0,18C0,8 8,0 18,0L238,0C248,0 256,8 256,18L256,139C256,149 248,158 238,158L238,158ZM18,12C15,12 12,15 12,18L12,139C12,143 15,146 18,146L238,146C241,146 244,143 244,139L244,18C244,15 241,12 238,12C238,12 18,12 18,12L18,12ZM37,121L37,37L61,37L86,67L110,37L135,37L135,121L110,121L110,73L86,103L61,73L61,121L37,121L37,121ZM191,121L154,80L179,80L179,37L203,37L203,80L228,80L191,121L191,121Z" fill="#000000"/></g></svg>