<svg xmlns="http://www.w3.org/2000/svg"
aria-label="mastercard" role="img"
viewBox="0 0 512 512"><path
d="M0 0h512v512H0"
fill="#fff"/><path d="M310 161.8H202.7v189.4h107.5V161.8h-.2Z" fill="#FF5A00"/><path d="M209.8 256.5a120 120 0 0 1 46.7-94.7c-20.8-16-47-25.8-75.7-25.8A121.6 121.6 0 0 0 58 256.5C58 323 113 377 180.8 377c28.6 0 54.9-9.7 75.7-25.8a119.5 119.5 0 0 1-46.7-94.7Z" fill="#EB001B"/><path d="M455 256.5c0 66.6-55 120.5-122.8 120.5-28.6 0-54.9-9.7-75.7-25.8a119 119 0 0 0 34.3-147.5 120 120 0 0 0-34.3-41.9c20.8-16 47-25.8 75.7-25.8C400 136 455 190.2 455 256.5Z" fill="#F79E1B"/></svg>