<svg xmlns="http://www.w3.org/2000/svg" viewBox="0 0 512 512" aria-label="Mastodon" role="img"><rect fill="#fff" height="512" rx="15%" width="512"/><path d="M424 294c-6 26-47 55-94 61-24 3-48 5-74 4-42-2-75-10-75-10l1 12c5 41 41 44 75 45s64-8 64-8l2 30s-24 13-67 16c-23 1-53-1-86-10-74-19-87-98-89-177v-65c0-81 53-105 53-105 27-13 73-18 121-18h2c48 0 94 5 121 18 0 0 53 24 53 105 0 0 1 60-7 102" fill="#3088d4"/><path d="M368 198v99h-39v-96c0-20-8-30-25-30-19 0-29 12-29 36v52h-38v-52c0-24-10-36-29-36-17 0-25 10-25 30v96h-39v-99c0-20 5-36 15-48 11-12 25-18 42-18 20 0 35 8 45 23l10 17 10-17c10-15 25-23 45-23 17 0 31 6 42 18 10 12 15 28 15 48" fill="#fff"/></svg>