<svg xmlns="http://www.w3.org/2000/svg" xml:space="preserve" viewBox="0 0 520 520"><path d="M13.7 11.9v496.2h35.7V520H0V0h49.4v11.9H13.7zM166.3 169.2v25.1h.7c6.7-9.6 14.8-17 24.2-22.2a75.4 75.4 0 0 1 64.6-1.1c9.7 4.5 17 12.6 22.1 24 5.5-8.1 13-15.3 22.4-21.5a59.5 59.5 0 0 1 33.5-9.3 99 99 0 0 1 27.3 3.6 54.4 54.4 0 0 1 21.5 11.5 53 53 0 0 1 14 20.6c3.3 8.5 5 18.7 5 30.7v124.1h-50.9V249.6c0-6.2-.2-12.1-.7-17.6a38 38 0 0 0-3.9-14.3 24 24 0 0 0-9.5-9.7 34.4 34.4 0 0 0-17-3.6 33 33 0 0 0-17.4 4.1 29.9 29.9 0 0 0-10.4 10.8 42 42 0 0 0-5 15.1c-.8 5.6-1.3 11.3-1.3 17v103.3h-50.9v-104c0-5.5-.1-10.9-.4-16.3a45 45 0 0 0-3.1-14.9 22.8 22.8 0 0 0-9-10.9 34.3 34.3 0 0 0-18.5-4.1 36.6 36.6 0 0 0-21 7.7c-3.7 3-6.9 7.3-9.5 12.9a53 53 0 0 0-3.9 22.1v107.6h-50.9V169.2h48zM506.3 508.1V11.9h-35.7V0H520v520h-49.4v-11.9h35.7z"/></svg>