<svg xmlns="http://www.w3.org/2000/svg"
aria-label="matrix" role="img"
viewBox="0 0 512 512"><rect
width="512" height="512"
rx="15%"
fill="#fff"/><g transform="matrix(.52038 0 0 .52038 122.52 122.52)"><path d="m25 23v466h34v11h-46v-489h46v11zm143 148v24h0.7c6-9 14-16 23-21s19-7 31-7c11 0 21 2 30 6s16 12 21 23c5-8 12-14 21-20s19-9 31-9c9 0 18 1 26 3s15 6 20 11 10 11 13 19 5 18 5 29v117h-48v-99c0-6-0.2-11-0.7-17s-2-10-4-13c-2-4-5-7-9-9s-9-3-16-3-12 1-16 4-7 6-10 10c-2 4-4 9-5 14-0.8 5-1 11-1 16v97h-48v-98c0-5-0.09-10-0.4-15-0.2-5-1-10-3-14s-5-8-8-10-10-4-17-4c-2 0-5 0.5-9 2s-7 3-11 6-6 7-9 12-4 12-4 21v101h-48v-174zm320 319v-466h-34v-11h46v489h-46v-11z"/></g></svg>

