<svg xmlns="http://www.w3.org/2000/svg"
aria-label="mdBook" role="img"
viewBox="0 0 2000 1840"><path
d="m0 0H512V512H0"
fill="#fff"/> <path d="m1900 370-10 70-360 1180-40 50-70 20H310c-90 0-150-30-170-80v-60l50-10h1040c70 0 130-20 150-50s60-80 90-180l330-1090c20-50 10-110-20-150s-80-70-140-70H730l-60 10-60-10-40 20-30 20-30 40-20 40-10 50c0 20-20 20-20 30l-20 30-30 30-10 20v30l10 30-30 120c-10 50-40 80-60 100l-20 20-30 40v70l-30 110-50 110c0 10 0 20-20 30s-10 30-20 30l10 40c10 20 0 30-10 30l-30 110-60 110-20 30-20 30-10 30 10 20v70l-10 30c-10 50-10 100 10 150 20 60 60 120 110 160s120 60 180 60h1110c50 0 100-10 150-50s70-80 90-130l330-1080c20-60 10-110-20-160-20-20-40-40-80-50zM600 1230l140-430h110c30 0 280-20 250 180s-190 250-370 250H600zm190-60c40 0 180-30 220-170S890 860 890 860h-90l-100 310h90zm-40-480 140-430h100l10 340 230-340h100l-140 430h-70l130-360-250 360h-60l-10-350-110 350h-70"/></svg>
