<svg xmlns="http://www.w3.org/2000/svg"
aria-label="Meetup" role="img"
viewBox="0 0 512 512"><rect
width="512" height="512"
rx="15%"
fill="#ed1c40"/><path d="m335 138c6 1 21-16 54-7 57 17 11 98 4 113-10 19-53 101-13 109 18 4 46 0 42 26-3 27-65 13-77 7-52-22-39-77-14-118 10-21 45-70 23-78-14-5-29 34-34 45-6 12-44 86-52 98-20 32-57 16-49-11 11-35 56-116 29-120-14-2-21 14-25 23-8 16-38 102-53 134-19 40-99 23-85-37 5-23 34-113 40-129 12-30 24-69 70-70 13 0 33 15 47 20 14 4 24-24 50-26 32-2 31 20 43 21z" fill="#fff"/></svg>