<svg xmlns="http://www.w3.org/2000/svg" aria-label="Messenger" viewBox="0 0 512 512" role="img"><rect width="512" height="512" fill="#fff" rx="15%"/><g transform="translate(68.684 73.967) scale(.36585)"><linearGradient id="a" x1="512" x2="512" y1="11.5" y2="1005.5" gradientUnits="userSpaceOnUse"><stop offset="0" stop-color="#00B2FF"/><stop offset="1" stop-color="#006AFF"/></linearGradient><path fill="url(#a)" d="M512 11.5c-280 0-497 205.1-497 482.1 0 144.9 59.4 270.1 156.1 356.6 8.1 7.3 13 17.4 13.4 28.3l2.7 88.4c.9 28.2 30 46.5 55.8 35.2l98.6-43.5c8.4-3.7 17.7-4.4 26.5-2 45.3 12.5 93.6 19.1 143.9 19.1 280 0 497-205.1 497-482.1S792 11.5 512 11.5z"/><path fill="#fff" d="M213.6 634.6l146-231.6c23.2-36.8 73-46 107.8-19.9l116.1 87.1c10.7 8 25.3 7.9 35.9-.1l156.8-119c20.9-15.9 48.3 9.2 34.2 31.4L664.5 614c-23.2 36.8-73 46-107.8 19.9l-116.1-87.1c-10.7-8-25.3-7.9-35.9.1L247.8 666c-20.9 15.9-48.3-9.2-34.2-31.4z"/></g></svg>
