<svg xmlns="http://www.w3.org/2000/svg"
aria-label="custom-shape" role="img"
viewBox="0 0 512 512">
  <path d="M0 0H512V512H0" fill="#fff"/>
  <g transform="translate(120,190) scale(3)">
    <polygon fill="#5aa854" points="14 1 2 8 2 22 14 29 14 1"/>
    <polygon fill="#eb743b" points="15 1 27 8 27 22 15 29 15 1"/>
    <path fill="#5aa854" d="M37.74,5.24l4.94,13.31,4.9-13.31h6.5V25H49.14V21l.51-10.39L44.31,25H41L35.71,10.67,36.22,21v4H31.28V5.24Z"/>
    <path fill="#eb743b" d="M57.45,25V5.24h7.64a11,11,0,0,1,6.07,1.4,4.58,4.58,0,0,1,2.12,4.07,4.49,4.49,0,0,1-.77,2.62A4.37,4.37,0,0,1,70.3,15a4.38,4.38,0,0,1,2.54,1.61,4.44,4.44,0,0,1,.88,2.74,4.81,4.81,0,0,1-2,4.3A10.46,10.46,0,0,1,65.83,25Zm4.92-11.54h3q3,0,3-2.07a1.93,1.93,0,0,0-.72-1.7,3.89,3.89,0,0,0-2.19-.5H62.37Zm0,3.35v4.24h3.46A3.78,3.78,0,0,0,68,20.49,1.76,1.76,0,0,0,68.82,19c0-1.42-.86-2.15-2.59-2.19Z"/>
  </g>
</svg>