<?xml version="1.0" encoding="utf-8"?>
<!-- Generator: Adobe Illustrator 23.0.3, SVG Export Plug-In . SVG Version: 6.00 Build 0)  -->
<svg version="1.1" id="Layer_2" xmlns="http://www.w3.org/2000/svg" xmlns:xlink="http://www.w3.org/1999/xlink" x="0px" y="0px"
	 viewBox="0 0 256 256" style="enable-background:new 0 0 256 256;" xml:space="preserve">
<style type="text/css">
	.st0{fill:url(#SVGID_1_);}
	.st1{opacity:0.35;fill:url(#SVGID_2_);}
	.st2{fill:url(#SVGID_3_);}
	.st3{opacity:0.41;fill:url(#SVGID_4_);}
	.st4{fill:url(#SVGID_5_);}
	.st5{fill:url(#SVGID_6_);}
</style>
<g>
	<linearGradient id="SVGID_1_" gradientUnits="userSpaceOnUse" x1="58.70317" y1="177.0506" x2="237.03833" y2="177.0506">
		<stop  offset="0" style="stop-color:#0C59A4"/>
		<stop  offset="1" style="stop-color:#114A8B"/>
	</linearGradient>
	<path class="st0" d="M231.05063,190.53383c-3.36511,1.7643-6.88057,3.34212-10.53322,4.71422
		c-10.9814,4.12509-23.10857,6.46361-35.89987,6.46361c-47.32103,0-88.54315-32.55214-88.54315-74.32233
		c0-11.74553,6.79524-21.9262,16.42522-27.28892c-42.79503,1.79418-53.79643,46.40015-53.79643,72.5307
		c0,73.87267,68.08929,81.36969,82.76053,81.36969c7.90663,0,19.84055-2.30283,27.03084-4.55843
		c0.43819-0.1458,0.8745-0.29285,1.31079-0.44318c27.75917-9.57338,51.18808-28.407,66.58849-52.81979
		C238.60222,192.67783,234.71828,188.61076,231.05063,190.53383z"/>
	
		<radialGradient id="SVGID_2_" cx="157.20409" cy="178.38393" r="95.38397" gradientTransform="matrix(1 0 0 0.95107 0 8.72752)" gradientUnits="userSpaceOnUse">
		<stop  offset="0.71659" style="stop-color:#000000;stop-opacity:0"/>
		<stop  offset="0.9459" style="stop-color:#000000;stop-opacity:0.53"/>
		<stop  offset="1" style="stop-color:#000000"/>
	</radialGradient>
	<path class="st1" d="M231.05063,190.53383c-3.36511,1.7643-6.88057,3.34212-10.53322,4.71422
		c-10.9814,4.12509-23.10857,6.46361-35.89987,6.46361c-47.32103,0-88.54315-32.55214-88.54315-74.32233
		c0-11.74553,6.79524-21.9262,16.42522-27.28892c-42.79503,1.79418-53.79643,46.40015-53.79643,72.5307
		c0,73.87267,68.08929,81.36969,82.76053,81.36969c7.90663,0,19.84055-2.30283,27.03084-4.55843
		c0.43819-0.1458,0.8745-0.29285,1.31079-0.44318c27.75917-9.57338,51.18808-28.407,66.58849-52.81979
		C238.60222,192.67783,234.71828,188.61076,231.05063,190.53383z"/>
	<linearGradient id="SVGID_3_" gradientUnits="userSpaceOnUse" x1="152.72325" y1="99.68379" x2="41.32796" y2="221.01947">
		<stop  offset="0" style="stop-color:#1B9DE2"/>
		<stop  offset="0.16164" style="stop-color:#1595DF"/>
		<stop  offset="0.66749" style="stop-color:#0680D7"/>
		<stop  offset="1" style="stop-color:#0078D4"/>
	</linearGradient>
	<path class="st2" d="M105.71111,241.41368c-8.89436-5.51344-16.6154-12.78334-22.73532-21.37531
		c-9.46996-13.29582-15.13148-29.65065-15.13148-47.40726c0-26.13057,12.16756-49.27501,30.9232-63.9391
		c4.25966-3.33038,9.71381-6.68943,13.73222-8.59164c3.1206-1.47721,8.45725-4.1373,15.5456-4.0368
		c11.7515,0.1666,20.63087,6.15771,25.68491,12.9623c3.88332,5.22806,6.27814,11.66906,6.35823,18.66107
		c0.00261-0.21021,24.46405-79.60429-80.04925-79.60429C36.14627,48.08265,0,89.75206,0,126.29791
		c0,23.18193,5.37933,41.68987,12.11456,56.03313c15.00061,31.94922,42.81795,56.67767,76.84572,67.57275
		C101.28346,253.84949,114.41078,256,128.04533,256c14.14047,0,27.73074-2.3259,40.44916-6.55762
		c-7.19037,2.25562-14.81308,3.48982-22.7197,3.48982C131.10367,252.93221,117.4294,248.67738,105.71111,241.41368z"/>
	
		<radialGradient id="SVGID_4_" cx="71.30408" cy="198.66367" r="143.23575" gradientTransform="matrix(0.14843 -0.98892 0.79688 0.1196 -97.5899 245.41753)" gradientUnits="userSpaceOnUse">
		<stop  offset="0.76293" style="stop-color:#000000;stop-opacity:0"/>
		<stop  offset="0.9459" style="stop-color:#000000;stop-opacity:0.5"/>
		<stop  offset="1" style="stop-color:#000000"/>
	</radialGradient>
	<path class="st3" d="M105.71111,241.41368c-8.89436-5.51344-16.6154-12.78334-22.73532-21.37531
		c-9.46996-13.29582-15.13148-29.65065-15.13148-47.40726c0-26.13057,12.16756-49.27501,30.9232-63.9391
		c4.25966-3.33038,9.71381-6.68943,13.73222-8.59164c3.1206-1.47721,8.45725-4.1373,15.5456-4.0368
		c11.7515,0.1666,20.63087,6.15771,25.68491,12.9623c3.88332,5.22806,6.27814,11.66906,6.35823,18.66107
		c0.00261-0.21021,24.46405-79.60429-80.04925-79.60429C36.14627,48.08265,0,89.75206,0,126.29791
		c0,23.18193,5.37933,41.68987,12.11456,56.03313c15.00061,31.94922,42.81795,56.67767,76.84572,67.57275
		C101.28346,253.84949,114.41078,256,128.04533,256c14.14047,0,27.73074-2.3259,40.44916-6.55762
		c-7.19037,2.25562-14.81308,3.48982-22.7197,3.48982C131.10367,252.93221,117.4294,248.67738,105.71111,241.41368z"/>
	
		<radialGradient id="SVGID_5_" cx="25.23376" cy="46.80529" r="202.43143" gradientTransform="matrix(-0.03715 0.99931 -2.12836 -0.07913 125.79001 25.29274)" gradientUnits="userSpaceOnUse">
		<stop  offset="0" style="stop-color:#35C1F1"/>
		<stop  offset="0.11079" style="stop-color:#34C1ED"/>
		<stop  offset="0.23164" style="stop-color:#2FC2DF"/>
		<stop  offset="0.31446" style="stop-color:#2BC3D2"/>
		<stop  offset="0.67338" style="stop-color:#36C752"/>
	</radialGradient>
	<path class="st4" d="M152.31433,148.8575c-0.81059,1.04924-3.3038,2.49771-3.3038,5.66376
		c0,2.60432,1.70044,5.11723,4.72195,7.22598c14.38045,10.03624,41.48578,8.68372,41.55806,8.6834
		c11.19022-0.03873,21.25658-3.11595,30.27335-8.3873c4.1021-2.39879,7.8988-5.24759,11.32176-8.5002
		c11.74759-11.16289,18.90974-26.89409,19.10855-44.37267c0.25494-22.4157-7.96001-37.31779-11.33673-43.91641
		C223.46466,23.83595,177.71796,0,127.97791,0C57.86351,0,0.94677,56.34609,0.00589,126.20016
		c0.47532-36.54277,36.79375-66.05154,79.9659-66.05154c3.50045,0,23.4619,0.34137,42.00535,10.07347
		c16.33434,8.5727,24.89824,18.93159,30.85034,29.20773c6.18011,10.66985,7.27951,24.14606,7.27951,29.51893
		S157.39832,142.27678,152.31433,148.8575z"/>
	
		<radialGradient id="SVGID_6_" cx="242.46877" cy="77.57553" r="97.33792" gradientTransform="matrix(0.28109 0.95968 -0.78353 0.22949 235.09682 -172.92052)" gradientUnits="userSpaceOnUse">
		<stop  offset="0" style="stop-color:#66EB6E"/>
		<stop  offset="1" style="stop-color:#66EB6E;stop-opacity:0"/>
	</radialGradient>
	<path class="st5" d="M152.31433,148.8575c-0.81059,1.04924-3.3038,2.49771-3.3038,5.66376
		c0,2.60432,1.70044,5.11723,4.72195,7.22598c14.38045,10.03624,41.48578,8.68372,41.55806,8.6834
		c11.19022-0.03873,21.25658-3.11595,30.27335-8.3873c4.1021-2.39879,7.8988-5.24759,11.32176-8.5002
		c11.74759-11.16289,18.90974-26.89409,19.10855-44.37267c0.25494-22.4157-7.96001-37.31779-11.33673-43.91641
		C223.46466,23.83595,177.71796,0,127.97791,0C57.86351,0,0.94677,56.34609,0.00589,126.20016
		c0.47532-36.54277,36.79375-66.05154,79.9659-66.05154c3.50045,0,23.4619,0.34137,42.00535,10.07347
		c16.33434,8.5727,24.89824,18.93159,30.85034,29.20773c6.18011,10.66985,7.27951,24.14606,7.27951,29.51893
		S157.39832,142.27678,152.31433,148.8575z"/>
</g>
</svg>
