<svg xmlns="http://www.w3.org/2000/svg"
aria-label="Microsoft OWA" role="img"
viewBox="0 0 512 512">
<rect width="512" height="512" rx="15%" fill="#fff"/>
<path d="M296 96l-186.3 36v245L296 416V96zm11.8 67.8v62.6l21.9 13.8c.6.2 1.8.2 2.4 0l94.1-63.5c0-7.5-7-12.9-11-12.9H307.9zM205 200c12.3 0 22.2 5 29.8 15.1a64.4 64.4 0 0 1 11.4 39.8c0 17-4 30.6-11.8 41a37 37 0 0 1-30.8 15.5c-12.3 0-22.4-5-30.2-15a62.4 62.4 0 0 1-11.6-39.3c0-17 4-30.8 11.8-41.3A37.3 37.3 0 0 1 205 200zm221.3 2s-95.7 63.6-92.3 61.5c0 0-3.4 2-6.2 0l-20-13.7v85h101.4c9 0 17-5.2 17-17.7V202zm-221.8 19c-6.8 0-12.3 3.1-16.3 9.5s-6 14.8-6 25.4c0 10.6 2 19 6 25.3 4 6.2 9.3 9.3 15.8 9.3 6.7 0 12-3 15.9-9 4-6.1 5.9-14.5 5.9-25.2a50 50 0 0 0-5.7-26c-3.8-6.3-9-9.4-15.6-9.4z" fill="#0072c6"/>
</svg>
