<?xml version="1.0" encoding="UTF-8"?>
<svg viewBox="0 0 512 512" xmlns="http://www.w3.org/2000/svg">
<rect width="512" height="512" rx="15%" fill="#1a1a1a" aria-label="Misskey"/>
<path transform="translate(-92.13 -30.27) scale(10.687)" d="M27.6 34.59c-1.68 0-3.12-1-3.8-2.18-.36-.51-1.08-.7-1.09 0v3.22c0 1.29-.47 2.4-1.41 3.34a4.56 4.56 0 0 1-3.35 1.38c-1.29 0-2.4-.46-3.35-1.38a4.65 4.65 0 0 1-1.37-3.34V17.95c0-1 .28-1.9.85-2.7a4.6 4.6 0 0 1 3.87-2.02c1.45 0 2.66.56 3.63 1.7l4.83 5.6c.11.08.43.7 1.18.7.76 0 1.12-.62 1.23-.7l4.79-5.6a4.7 4.7 0 0 1 5.28-1.42c.92.32 1.66.9 2.22 1.74.6.8.9 1.7.9 2.7v17.68c0 1.29-.48 2.4-1.42 3.34a4.56 4.56 0 0 1-3.35 1.38 4.65 4.65 0 0 1-4.72-4.73v-3.2c-.08-.89-.86-.33-1.13 0a4.21 4.21 0 0 1-3.8 2.17zm20.2-13.21c-1.12 0-2.1-.39-2.9-1.17-.78-.8-1.17-1.77-1.17-2.9s.4-2.09 1.17-2.87c.8-.8 1.78-1.21 2.9-1.21s2.1.4 2.91 1.21c.8.78 1.21 1.74 1.21 2.87a4.03 4.03 0 0 1-4.12 4.08zm.05.8c1.13 0 2.08.41 2.86 1.22.8.8 1.21 1.77 1.21 2.9v9.97c0 1.13-.4 2.1-1.2 2.9a3.9 3.9 0 0 1-2.87 1.18 4.03 4.03 0 0 1-4.12-4.08V26.3c0-1.13.4-2.1 1.21-2.9.8-.8 1.78-1.21 2.9-1.21z" fill="#8cc709" word-spacing="0"/>
</svg>
