<svg xmlns="http://www.w3.org/2000/svg"
aria-label="Misskey" role="img"
viewBox="0 0 512 512"><rect
width="512" height="512"
rx="15%"
fill="#fff"/>
<path d="M203 339c-18 0-34-10-41-23-4-5-11-7-11 0v35c0 13-5 25-15 35a49 49 0 0 1-36 15c-14 0-26-5-36-15a50 50 0 0 1-15-35V162c0-11 3-21 9-29a49 49 0 0 1 42-22c15 0 28 6 38 18l52 60c1 1 5 8 13 8s12-7 13-8l51-60a50 50 0 0 1 56-15c10 4 18 10 24 19 7 8 10 18 10 29v189c0 13-5 25-15 35a49 49 0 0 1-36 15 50 50 0 0 1-51-51v-34c0-9-9-3-12 0a45 45 0 0 1-40 23zm216-141a43 43 0 0 1-44-43c0-12 4-23 13-31 8-8 19-13 31-13s22 4 31 13c8 8 13 19 13 31a43 43 0 0 1-44 43zm0 9c12 0 22 4 31 13 8 8 13 19 13 31v106c0 12-5 23-13 31a42 42 0 0 1-31 13 43 43 0 0 1-44-44V251c0-12 4-23 13-31 9-9 19-13 31-13z" fill="#8cc709"/></svg>
