<svg xmlns="http://www.w3.org/2000/svg"
aria-label="mkDocs" role="img"
viewBox="0 0 512 512"><path
d="m0 0H512V512H0"
fill="#fff"/> <g transform="scale(0.24) translate(-400, -400)"> <path d="M1370 790c40-10 80 0 120 20l500 190a3530 3530 0 01-80 310l160 20 30 30c-50 40-100 70-150 80-330 80-650 70-960-20l-90-60c20-30 40-40 80-40a1640 1640 0 01 180-10 10670 10670 0 01 110-440c30-40 60-60 100-80" fill="#241b19"/> <path d="M1380 820c180 50 360 120 550 200l-90 60a16390 16390 0 01-520-220c10-20 30-30 60-40" fill="#f9f6f4"/> <path d="M1300 900c10-10 20 0 30 20l-140 520a50 50 0 01-40-10l150-530" fill="#db5227"/> <path d="m1360 920 30 10a16400 16400 0 00-140 500l-30 20a11910 11910 0 01 140-530" fill="#d65027"/> <path d="M1410 950a1870 1870 0 01 250 90v50a4350 4350 0 00-50 250 320 320 0 00 80 0 790 790 0 00 40 110c-150 20-300 20-450 10l130-510" fill="#ec5729"/> <path d="m1930 1050 20 10-100 340-20 40-10-20 110-370" fill="#c84c26"/> <path d="m1700 1060 100 40 10 20-80 260-30-80a290 290 0 00-70 10 3540 3540 0 00 70-250" fill="#fbf9f8"/> <path d="m1870 1090 10 10-90 350-30-10a3560 3560 0 01 110-350" fill="#d04e26"/> <path d="M1360 1670c90-20 140 10 170 100-30 90-90 130-180 100-10-70-10-140 10-200" fill="#272a2e"/> <path d="M940 1670h30a1340 1340 0 00 70 90l60-80c10-20 20-20 40-10v200h-40l-10-110c-30 70-70 70-110 10l-10 100h-30c-20-70-20-140 0-200" fill="#282b2f"/> <path d="M1180 1670c10-10 20 0 30 10l10 60 70-70 20 10v40l-50 50 50 60v40c-40-10-70-30-90-60l-10 60h-40c-10-70-10-140 10-200" fill="#2a2d31"/> <path d="M1600 1670c100-10 140 40 120 150-40 60-100 70-160 30-40-80-30-140 40-180" fill="#282b2f"/> <path d="M1820 1670c30-10 70 0 100 30l-10 20h-70c-20-10-30 0-40 20-20 70 10 100 90 80 10-10 20 0 30 20-50 40-100 50-150 10-40-80-30-140 50-180" fill="#292c30"/> <path d="M1980 1670c30-10 50 0 80 20v30l-70 10a380 380 0 00 80 50c10 80-30 110-110 80-30-20-30-40 0-50l70 20v-30c-100-20-120-60-50-130" fill="#2b2e32"/> <path d="M1400 1720c80 0 90 30 50 100a130 130 0 01-50 10v-110" fill="#f6f6f6"/> <path d="M1610 1720c80 0 90 30 50 100-70 10-90-20-70-80l20-20" fill="#f2f2f2"/> </g> </svg>
