<svg xmlns="http://www.w3.org/2000/svg" role="img" aria-label="NetBSD" viewBox="0 0 512 512"><path xmlns="http://www.w3.org/2000/svg" d="m0 0H512V512H0" fill="#fff"/><path d="m95.83281 130.32576s-1.331028-3.09613-5.084657-1.02412c-3.121027 1.73142-1.497985 4.92836-1.497985 4.92836l154.172582 326.00481s4.49225 8.87099 14.13082 3.9672c9.63541-4.90329 4.77979-12.58044 4.77979-12.58044z" fill="#777"/><path d="m425.88513 121.82725c-55.61227-26.690927-105.92737-13.94426-162.20244 2.89646-56.65259 16.94487-107.04474 26.11602-163.65396 3.01908 6.16736 11.01965 9.25438 16.52837 15.42508 27.53931 5.66494 10.12895 11.33745 20.25685 17.00459 30.3815 6.16939 11.01744 9.25348 16.52186 15.42401 27.53711 45.07211 12.7391 82.39865-3.7817 122.45135-23.80529 48.09664-24.03099 91.5405-45.65036 146.49316-33.12394-46.44007-23.25535-88.53989-17.49163-137.09859-4.31756 47.54117-24.20234 92.30092-43.02614 146.15688-30.12659" fill="#f26711"/></svg>
