<svg xmlns="http://www.w3.org/2000/svg"
aria-label="NGINX" role="img"
viewBox="0 0 512 512"><rect
width="512" height="512"
rx="15%"
fill="#fff"/><path fill="#009639" d="M84.7 353.5c1.8 3.2 4.4 5.5 7.5 7.3l152.5 88c6.4 3.7 14.1 3.7 20.2 0l152.5-88c6.4-3.5 10.2-10.3 10.2-17.6V167.3c0-7.3-3.8-14-10.2-17.6L264.9 61.8c-6.3-3.8-14-3.8-20.2 0L92.2 149.7C85.7 153.3 82 160 82 167.3v176.1c0 3.6.7 6.9 2.7 10.1"/><path fill="#FFF" d="M205.9 322.4c0 10.9-8.7 19.6-19.6 19.6-10.9 0-19.6-8.7-19.6-19.6V187.9c0-10.5 9.3-19 22.2-19 9.3 0 20.2 3.8 26.7 11.9l6 7.1 82 98.1v-97.7c0-10.9 8.7-19.6 19.6-19.6 10.9 0 19.6 8.7 19.6 19.6v134.5c0 10.5-9.3 19-22.2 19-9.3 0-20.2-3.7-26.7-11.9l-88-104.9v97.4Z"/></svg>