<svg xmlns="http://www.w3.org/2000/svg" aria-label="NHS" role="img" viewBox="0 0 512 512"><rect fill="#e8edee" width="512" height="512" rx="80"/><path fill="#005eb8" d="M78,185H434V327H78Z"/><g fill="#fff"><polygon points="112.8 198 151.8 198 174.9 278.3 175.8 278.3 191.7 198 221 198 196.2 314 158 314 134.1 233.7 133.2 233.7 117.3 314 88 314 112.8 198"/><polygon points="232.2 198 264.3 198 255.3 241.7 291 241.7 300.8 198 332 198 307.9 314 276.7 314 286.5 264 250 264 239.3 314 209 314 232.2 198"/><path d="M413.9,224.4a61.24,61.24,0,0,0-25.7-5.4c-12.4,0-22.2,1.8-22.2,11.6,0,16,45.2,10.7,45.2,45.4,0,32-29.2,40-56.7,40a115.85,115.85,0,0,1-35.5-6.2l7.1-24c6.2,3.5,18.6,6.2,28.4,6.2s24.8-1.8,24.8-13.4c0-18.7-45.2-11.5-45.2-44.5,0-30.2,25.7-39.1,51.4-39.1,14.2,0,27.5,1.8,35.5,5.3"/></g></svg>