<svg xmlns="http://www.w3.org/2000/svg"
aria-label="NixOS" role="img"
viewBox="0 0 512 512"><rect
width="512" height="512"
rx="15%"
fill="#fff"/><g fill-rule="evenodd"><path d="m177 260 99 171h-45l-27-45-26 45h-23l-11-20 38-65-27-46zm115-75H95l22-40 53 1-26-46 11-20h23l37 65 54 1zm8 137 98-171 23 39-26 46h53l11 19-12 20h-75l-27 47z" fill="#5277c3"/><path d="m213 190-99 171-23-39 27-46H65l-11-20 11-20h75l28-46zm8 136h197l-22 40h-53l26 45-11 20h-23l-38-65h-54zm114-75L237 81l45-1 26 46 27-46h22l12 20-38 65 27 47z" fill="#7ebae4"/></g></svg>