<svg xmlns="http://www.w3.org/2000/svg" 
aria-label="nobara" role="img" 
viewBox="0 0 512 512"><path 
d="M0 0H512V512H0" 
fill="#fff"/><path d="M125.5 83.9c-23.13 1.86-43.08 18.78-48.87 41.46-2.04 8.04-1.77 279.84-1.77 279.84 7.77 50.85 73.53 67.44 102 24.75 29.22-43.74 97.2-26.49 101.31 25.71.21 2.67.24-66.63.24-66.63-5.76-26.73-25.05-44.25-54.12-46.26-20.19-1.56-32.91-11.49-37.05-28.92-1.86-7.89-1.38-50.37.72-60.09 17.31-76.08 123.09-77.82 143.46-3.66.57 2.49.69 2.7 2.25 3.12 13.83 3.81 54.18 15.51 54.18 15.69-2.22 1.02-44.19 12.84-53.91 15.63v120.69c9.78 63.87 97.65 65.61 110.58 3.12 1.29-7.53.78-154.29-.6-163.74C427.96 117.68 286.63 45.2 174.31 104.48c-12.09-14.34-29.31-22.26-48.84-20.58" fill="#000"/><path d="M250.24 238.58c-31.89 7.32-39.75 49.86-12.45 67.5 27.48 17.76 62.76-5.61 57.15-37.86-3.51-20.19-24.66-34.23-44.67-29.64" fill="#000"/></svg>