<svg xmlns="http://www.w3.org/2000/svg"
aria-label="Node.js" role="img"
viewBox="0 0 512 512"><path
d="m0 0H512V512H0"
fill="#fff"/><path fill="#539E43" d="m275 63q-19-12-38 0L95 145q-16 9-16 27v169q0 18 15 27l39 22c32 18 77 12 77-37V188q0-6-6-6h-16q-6 0-6 6v165c0 18-19 24-35 15l-40-23q-2-1-2-4V172q0-3 2-4l146-84q3-2 6 0l145 84q2 1 2 4v168q0 4-2 5l-145 84q-3 2-6 0l-37-22q-2-1-4 0-9 6-22 10-6 2 2 6l49 29q16 8 32 0l146-85q14-9 14-27V174q0-20-16-29M229 281q-5 0-5 5 0 54 79 54c55 0 75-28 71-58s-33-34-69-39-47-7-47-18 4-22 39-22 41 13 44 25q1 5 5 5h18c4 0 5-2 4-9s-3-47-71-47-68 40-68 49 0 36 56 42 63 11 60 27-24 21-60 18-32-27-34-30q-1-2-4-2"/></svg>