<svg xmlns="http://www.w3.org/2000/svg" aria-label="nordic logo" role="img" viewBox="0 0 512 512" width="512" height="512" fill="#fff"><path fill="#fff" d="M0 0h512v512H0z"/><path fill="#00ABD1" d="M379.38 1.814c2.608-.135 5.147.295 7.716.768l1.027.174c5.341 1.065 10.118 4.046 14.76 7.109l1.494.973q2.332 1.524 4.658 3.061l1.509.995q4.523 2.987 9.033 5.996 3.736 2.489 7.474 4.97l1.499.994c4.248 2.818 8.509 5.613 12.77 8.406 4.139 2.713 8.266 5.447 12.39 8.189 3.683 2.446 7.374 4.873 11.068 7.294 4.709 3.086 9.413 6.179 14.099 9.308a429 429 0 0 0 7.704 5.03c5.522 3.54 10.526 6.904 14.857 12.224l.901 1.036c3.443 4.189 5.637 9.263 7.072 14.709l.309 1.162c1.748 7.162 1.331 14.76 1.324 22.121l.002 3.741q.002 5.126 0 10.253-.002 5.534.002 11.069.003 10.212 0 20.424l-.001 18.877v1.266l.001 5.088q.001 23.861-.003 47.722-.003 21.175 0 42.351.005 23.808.003 47.618l-.001 5.082v1.264q-.001 9.426.001 18.852.002 10.728-.001 21.457-.003 5.47 0 10.94.001 5.015-.002 10.03-.002 1.807.001 3.614c.005 5.547-.026 11.081-.282 16.622l-.056 1.244c-.409 7.764-2.658 14.586-7.763 19.904a68 68 0 0 1-2.911 2.102l-.861.592q-1.375.943-2.757 1.876l-.916.623a1367 1367 0 0 1-5.725 3.869q-2.655 1.788-5.309 3.578l-1.072.723a1866 1866 0 0 0-9.325 6.344 2897 2897 0 0 1-15.518 10.525c-4.042 2.726-8.078 5.46-12.103 8.219a833 833 0 0 1-24.679 16.244 544 544 0 0 0-10.725 6.997 828 828 0 0 1-12.775 8.355l-1.558 1.004c-5.64 3.595-11.016 6.937-17.652 5.124-4.08-1.501-7.65-3.652-11.329-6.128l-1.856-1.228q-2.34-1.55-4.673-3.112-1.987-1.326-3.978-2.645-2.199-1.457-4.395-2.918a1207 1207 0 0 0-11.526-7.556 3610 3610 0 0 1-18.535-12.112q-4.071-2.674-8.144-5.346-4.88-3.2-9.757-6.406a3237 3237 0 0 0-16.03-10.473 1553 1553 0 0 1-14.169-9.29l-1.481-.981a448 448 0 0 1-7.044-4.754l-1.325-.903a182 182 0 0 1-2.436-1.689l-1.09-.739-.939-.653c-1.715-.68-3.046-.047-4.635.806l-1.194.78-1.366.884-1.465.965-1.544 1.006c-4.61 3.009-9.199 6.06-13.786 9.114-4.821 3.207-9.663 6.372-14.503 9.543q-4.089 2.681-8.176 5.364l-3.265 2.142-1.632 1.072-32.643 21.421-3.261 2.14a12772 12772 0 0 1-11.49 7.535l-1.621 1.061a965 965 0 0 0-8.186 5.423l-1.638 1.097q-1.53 1.024-3.055 2.056c-5.043 3.376-9.153 5.551-15.067 5.643l-1.033.05c-6.033.082-11.225-3.017-16.261-6.476l-2.577-1.731c-1.415-.953-2.824-1.915-4.234-2.875q-1.438-.967-2.878-1.932a2116 2116 0 0 1-5.416-3.642c-4.414-2.973-8.85-5.904-13.284-8.84q-3.775-2.502-7.549-5.008-4.475-2.97-8.951-5.937A7201 7201 0 0 1 52.3 463.118a7626 7626 0 0 0-21.44-14.243 3156 3156 0 0 1-6.039-4.01 775 775 0 0 0-6.03-3.967l-2.94-1.935-1.342-.863c-6.32-4.183-11.038-9.595-12.998-17.782-.65-3.61-.83-7.08-.822-10.748l-.003-1.599q-.002-2.657 0-5.313l-.003-3.844q-.004-5.286-.003-10.572 0-5.114-.004-10.229-.007-11.754-.007-23.508 0-9.08-.002-18.159l-.002-5.228v-1.313Q.66 311.524.66 293.243v-12.587q0-21.819-.01-43.638a97932 97932 0 0 1-.012-49.038v-6.533q0-10.354-.007-20.708-.006-10.413-.001-20.825.002-5.639-.003-11.276-.005-5.166.001-10.332 0-1.864-.003-3.729C.593 99.58 2.096 86.621 11.541 75.237c5.493-5.9 12.65-9.752 19.16-13.97 2.583-1.679 5.15-3.388 7.717-5.097a2516 2516 0 0 1 14.206-9.365c4.14-2.714 8.269-5.449 12.394-8.192 3.648-2.424 7.307-4.824 10.97-7.22 4.488-2.937 8.952-5.915 13.402-8.925C123.173-.357 123.173-.357 136.602 3.515c4.93 1.638 9.355 4.676 13.804 7.527l2.747 1.74a899 899 0 0 1 7.227 4.66q2.064 1.342 4.131 2.68a1775 1775 0 0 1 19.071 12.501 1891 1891 0 0 0 11.017 7.266q7.034 4.61 14.042 9.271c3.682 2.446 7.373 4.874 11.068 7.294a2282 2282 0 0 1 12.555 8.283q3.012 2.001 6.026 3.999l.863.572q2.693 1.786 5.39 3.565l2.554 1.691 1.572 1.035 1.386.916c.426.26.853.52 1.292.79l1.242.778c1.83.525 2.565-.159 4.166-1.243l1.71-1.136 1.827-1.256 1.904-1.274a624 624 0 0 0 3.875-2.613c2.133-1.45 4.28-2.874 6.428-4.295q1.457-.964 2.912-1.933c3.848-2.561 7.717-5.082 11.592-7.593q7.322-4.746 14.597-9.587a2745 2745 0 0 1 15.894-10.468q4.09-2.681 8.177-5.364l3.265-2.143 1.632-1.07 4.896-3.214 1.633-1.072 3.253-2.133q4.17-2.734 8.33-5.484 4.806-3.176 9.634-6.305l1.285-.836c6.407-4.134 12.383-6.576 19.781-7.25"/><path fill="#70D1E4" d="M3.264 89.872c3.76 2.027 7.353 4.269 10.925 6.686a798 798 0 0 0 9.885 6.56l1.683 1.103 3.423 2.242q4.118 2.699 8.233 5.402l3.265 2.142L216.947 229.68l1.632 1.071 3.262 2.141q4.098 2.69 8.198 5.377c5.249 3.44 10.492 6.889 15.721 10.369 4.358 2.899 8.734 5.761 13.12 8.604q7.323 4.746 14.597 9.587c5.285 3.515 10.59 6.992 15.895 10.468q4.089 2.681 8.176 5.364l3.265 2.142 97.927 64.263 1.632 1.072 3.262 2.14q4.098 2.69 8.198 5.377a2714 2714 0 0 1 15.721 10.369c4.358 2.899 8.734 5.761 13.12 8.604q7.322 4.747 14.597 9.587c5.285 3.516 10.59 6.992 15.895 10.468q4.089 2.681 8.177 5.365l3.254 2.135 6.627 4.351q10.109 6.643 20.25 13.221c-.835 3.043-1.927 5.395-3.515 7.997l-.604 1.02c-1.492 2.243-3.194 3.617-5.305 5.065l-.864.595a519 519 0 0 1-2.769 1.889l-.917.624a1435 1435 0 0 1-5.724 3.868q-2.655 1.788-5.309 3.578l-1.072.723a1866 1866 0 0 0-9.325 6.344 2878 2878 0 0 1-15.518 10.525c-4.042 2.726-8.078 5.46-12.103 8.219a833 833 0 0 1-24.679 16.244 544 544 0 0 0-10.725 6.997 828 828 0 0 1-12.775 8.355l-1.558 1.004c-5.64 3.595-11.016 6.937-17.652 5.124-4.08-1.501-7.65-3.652-11.329-6.128l-1.856-1.228a1024 1024 0 0 1-4.673-3.112q-1.987-1.326-3.978-2.645-2.199-1.457-4.395-2.918a1207 1207 0 0 0-11.526-7.556 3610 3610 0 0 1-18.535-12.112q-4.071-2.674-8.144-5.346-4.88-3.2-9.757-6.406a3237 3237 0 0 0-16.03-10.473 1553 1553 0 0 1-14.169-9.29l-1.482-.981a448 448 0 0 1-7.043-4.754l-1.325-.903a182 182 0 0 1-2.436-1.689l-1.09-.739-.939-.653c-1.715-.68-3.046-.047-4.635.806l-1.194.78-1.366.884-1.465.965-1.544 1.006c-4.61 3.009-9.199 6.06-13.786 9.114-4.821 3.207-9.663 6.372-14.503 9.543q-4.089 2.681-8.177 5.364l-3.264 2.142-1.632 1.072-32.643 21.421-3.261 2.14q-4.099 2.69-8.199 5.377l-3.291 2.158-1.621 1.061a950 950 0 0 0-8.186 5.423l-1.638 1.097q-1.53 1.024-3.055 2.056c-5.043 3.376-9.153 5.551-15.067 5.643l-1.034.05c-6.032.082-11.224-3.017-16.26-6.476l-2.577-1.731c-1.415-.953-2.824-1.915-4.234-2.875q-1.438-.967-2.878-1.932a2116 2116 0 0 1-5.416-3.642c-4.414-2.973-8.85-5.904-13.284-8.84q-3.775-2.502-7.55-5.008-4.474-2.97-8.95-5.937A7201 7201 0 0 1 52.3 463.118a7626 7626 0 0 0-21.44-14.243 3156 3156 0 0 1-6.039-4.01 776 776 0 0 0-6.03-3.967l-2.94-1.935-1.342-.863c-6.32-4.183-11.038-9.595-12.999-17.782-.648-3.61-.83-7.08-.821-10.748l-.003-1.599q-.002-2.657 0-5.313l-.003-3.844q-.004-5.286-.003-10.572 0-5.114-.004-10.229-.006-11.754-.007-23.508 0-9.08-.002-18.159l-.002-5.228v-1.313a134458 134458 0 0 1-.005-44.941v-4.208q0-21.819-.01-43.638a97920 97920 0 0 1-.012-55.571q0-10.354-.007-20.708-.006-10.413-.002-20.825.004-5.639-.002-11.276-.005-5.166 0-10.332.002-1.864-.002-3.729C.59 97.755.59 97.755 3.265 89.872"/><path fill="#00BEDA" d="M131.825 348.638c3.952 2.248 7.765 4.513 11.551 7.069l3.17 2.12 1.659 1.108c2.898 1.923 5.814 3.809 8.73 5.697 4.366 2.83 8.72 5.681 13.057 8.569 4.316 2.874 8.649 5.714 12.994 8.533 7.269 4.715 14.517 9.47 21.762 14.233l4.854 3.189 1.622 1.065c4.311 2.829 8.633 5.636 12.957 8.44a1249 1249 0 0 1 13.546 8.918 588 588 0 0 0 8.386 5.484l1.942 1.249a820 820 0 0 0 3.751 2.397l1.714 1.102 1.521.97c1.303.953 2.29 1.964 3.336 3.256a4057 4057 0 0 1-23.461 15.486q-4.089 2.68-8.177 5.364l-3.264 2.142-1.632 1.071-45.7 29.99-3.261 2.14q-4.099 2.69-8.199 5.377l-3.291 2.158-1.621 1.061a950 950 0 0 0-8.186 5.423l-1.638 1.097q-1.53 1.024-3.055 2.056c-5.182 3.47-8.978 5.464-15.067 5.464z"/><path fill="#4CCAE0" d="M379.406 1.903v159.944c-2.491-.944-4.451-2.008-6.654-3.535l-2.282-1.55-1.26-.857c-2.54-1.712-5.103-3.38-7.663-5.054a3607 3607 0 0 1-20.287-13.412 3349 3349 0 0 0-18.747-12.376 2366 2366 0 0 1-12.39-8.189 2029 2029 0 0 0-11.068-7.294q-7.034-4.61-14.042-9.272a2151 2151 0 0 0-11.067-7.294 3052 3052 0 0 1-14.828-9.773l-1.429-.949-1.254-.832a62 62 0 0 1-2.577-1.87v-1.142l1.099-.712c6.346-4.112 12.687-8.229 18.989-12.427 4.336-2.888 8.691-5.738 13.057-8.568q7.322-4.746 14.597-9.587a2716 2716 0 0 1 15.895-10.468q4.089-2.681 8.176-5.364l3.265-2.143 1.632-1.07 4.896-3.214 1.633-1.072 3.253-2.133q4.17-2.734 8.33-5.484 4.806-3.176 9.634-6.305l1.285-.836c6.223-4.015 12.486-7.162 19.807-7.162"/></svg>