<svg xmlns="http://www.w3.org/2000/svg"
aria-label="Notion" role="img"
viewBox="0 0 512 512"><path
d="M0 0h512v512H0"
fill="#fff"/><path d="M307.3 66.8 96.8 82.3C80.1 83.8 74 94.8 74 108.1v230.7c0 10.3 3.8 19.4 12.5 31.2l49.4 64.2c8 10.3 15.6 12.5 31.2 11.8l244.3-14.8c20.5-1.5 26.6-11 26.6-27.4V144.3c0-8.4-3.4-10.6-12.9-17.9L356 77.8c-16.4-11.8-23.2-13.3-48.7-11m-134.9 73.3c-19.8 1.5-24.3 1.5-35.7-7.6l-28.9-22.8c-3-3-1.5-6.8 6.1-7.2l202.2-14.8c17.1-1.5 25.8 4.6 32.3 9.5l34.6 25.1c1.5.8 5.3 5.3.8 5.3l-208.6 12.5h-2.7zm-23.2 261.4v-220c0-9.5 3-14.1 11.8-14.8l239.8-14.1c8-.8 11.8 4.6 11.8 14.1v218.5c0 9.5-1.5 17.9-14.8 18.6l-229.5 13.3c-13.3.8-19-3.8-19-15.6zm226.5-208.2c1.5 6.8 0 13.3-6.8 14.1l-11 2.3v162.6c-9.5 5.3-18.6 8-25.8 8-11.8 0-14.8-3.8-23.6-14.8l-72.2-113.6v109.8l22.8 5.3s0 13.3-18.6 13.3l-50.9 3c-1.5-3 0-10.3 5.3-11.8l13.3-3.8V222.2l-18.6-1.5c-1.5-6.8 2.3-16.3 12.5-17.1l54.7-3.8L332 314.9V213.1l-19-2.3c-1.5-8 4.6-14.1 11.8-14.8l50.9-3z"/></svg>