<svg xmlns="http://www.w3.org/2000/svg"
aria-label="Numero Group" role="img"
viewBox="0 0 512 512"><rect
width="512" height="512"
fill="#fff"/><path d="M284.3 246.8v205.6a34.5 34.5 0 0 1-33.6 35.3c-12.5 0-23.2-7.3-34.8-18.5A88739.2 88739.2 0 0 1 49 304.5v178c0 21-9.9 29.3-26.2 29.3C6.4 511.8 0 495.4 0 482.9V239.5c0-24 21.5-34.4 34.4-34.4 13 0 20.2 3.9 28.4 11.2 8.2 7.3 172.4 173.3 172.4 173.3V244.3S54.6 229.6 54.6 123.4C54.6 47.7 170.3 0 259.3 0c65.4 0 219.8 22.8 219.8 115.6 0 111-194.8 131.2-194.8 131.2m.8-175v78.7s55-7.7 55-40c0-32.2-55-38.7-55-38.7m-48.2 90s13.8 4.6 27.1 4.6c38.8 0 92.5-19.8 92.5-54.6S285.1 62 285.1 62V41.7c0-10.7-12.9-21.5-24.5-21.5s-25 9.9-25 22.4c0 12.4 1.3 119.1 1.3 119.1"/></svg>