<svg xmlns="http://www.w3.org/2000/svg"
aria-label="obs-logo" role="img"
viewBox="0 0 512 512"><path
d="M0 0H512V512H0"
fill="#fff"/><circle cx="256" cy="256" r="210" fill="#302e31"/><path d="M139.5 137.7c7-34 30.1-64.6 61.1-80 -5.4 5.5-11.9 9.7-16.9 15.6 -20.4 22-29.6 53.9-24 83.2 7.1 44.7 49.2 81.3 94.7 80.6 35.3 1.6 69.8-18.8 87-49.4 37 1.3 73 20.4 94.1 51 10.8 16 19.3 34.8 19.8 54.3 -6.8-25.9-24.1-49-47.6-62 -22.7-12.8-50.6-16.1-75.5-8.5 -31.2 9-57 34.5-65.9 65.9 -7.6 25-4.3 52.6 7.6 75.5 -16.5 28.6-46.3 49-78.7 55.2 -24.9 5.2-51.1 1.2-74.2-9.3 20.7 6 43.3 7.1 63.9-0.2 27.6-9.2 50.5-31.4 60.5-58.8 11.1-29.8 6.9-65.3-11.8-90.9 -14-20.2-36.1-34.4-60.1-39.4 -7.6-1.4-15.3-2-23-2.7 -12.2-24.6-16.7-53.2-10.6-80z" fill="#c4c2c4"/></svg>