<svg xmlns="http://www.w3.org/2000/svg" 
viewBox="0 0 512 512" 
role="img" aria-label="logo"><path 
d="M0 0H512V512H0" 
fill="#fff"/><circle cx="256" cy="256" r="210" fill="#302e31"/><path d="M139.52 137.68c7.04-34.048 30.08-64.64 61.056-80-5.389 5.472-11.904 9.664-16.896 15.616-20.416 22.016-29.632 53.888-24 83.2 7.104 44.736 49.152 81.28 94.72 80.64 35.328 1.5808 69.76-18.752 87.04-49.408 36.992 1.2544 72.96 20.352 94.08 51.008 10.816 16 19.264 34.752 19.84 54.272-6.848-25.92-24.064-48.96-47.552-61.952-22.72-12.8-50.624-16.064-75.52-8.512-31.232 8.96-57.024 34.496-65.92 65.92-7.552 25.024-4.32 52.608 7.552 75.52-16.512 28.608-46.336 49.024-78.72 55.168-24.896 5.2224-51.072 1.1904-74.24-9.28 20.736 6.048 43.264 7.104 63.872-0.224 27.648-9.152 50.496-31.36 60.544-58.752 11.136-29.824 6.912-65.28-11.84-90.88-14.016-20.16-36.096-34.368-60.096-39.424-7.616-1.3568-15.296-1.9712-22.976-2.6752-12.224-24.64-16.704-53.248-10.56-80z" fill="#c4c2c4"/></svg>