<svg xmlns="http://www.w3.org/2000/svg" aria-label="Obsidian" viewBox="0 0 512 512"><path fill="#fff" d="M0 0h512v512H0"/><path fill="#6c3ec8" d="M165.9 478.3c41.4-84 40.2-144.2 22.6-187-16.2-39.6-46.3-64.5-70-80-.6 2.3-1.3 4.4-2.2 6.5L60.6 342a34 34 0 0 0 6.6 37.7l89.1 91.7a34 34 0 0 0 9.6 7z"/><path fill="#976eeb" d="M278.4 307.8c-19.7-49.4-25.7-86.4-24.5-115.8a171 171 0 0 1 19.4-71l7.2-14.2a198.3 198.3 0 0 0 17.6-41.3 96 96 0 0 0-2-54 34 34 0 0 1 1.5 1.7l88.5 112.4c5 6.4 7.6 14.3 7.6 22.4.1 21.2 1.8 65 13.6 93.2 11.5 27.3 32.5 56.9 43.5 71.5a17 17 0 0 1 1.3 19.2 1536 1536 0 0 1-44.8 70.6c-2 3-3.8 6.1-5.6 9.2-25.5-55.1-56.5-83.6-90.5-96.3-10.6-4-21.6-6.4-32.8-7.6"/><path fill="#b99ef2" d="M278.4 307.8c-19.7-49.4-25.8-86.4-24.5-115.9a171 171 0 0 1 19.4-71c2.3-4.8 4.8-9.5 7.2-14.1 7.1-13.9 14-27 17.6-41.4a96 96 0 0 0-2-54A34.1 34.1 0 0 0 248 9l-105.4 94.8a34.1 34.1 0 0 0-10.9 20.3l-12.8 85-.5 2.3c23.8 15.5 54 40.4 70.1 80a147 147 0 0 1 7.8 24.8c28-6.8 55.7-11 82.1-8.3z"/><path fill="#4c229f" d="M333.6 511c22.7 6.2 45.6-12 48.7-35.4a187 187 0 0 1 19.4-63.9c-25.6-55-56.5-83.6-90.4-96.3-36-13.4-75.2-9-115 .7 8.9 40.4 3.6 93.3-30.4 162.2 4 1.8 8.1 3 12.5 3.3 0 0 24.4 2 53.6 4.1 29 2 72.4 17.1 101.6 25.2z"/></svg>