<svg xmlns="http://www.w3.org/2000/svg" 
aria-label="OpenStreetMap" role="img"
viewBox="0 0 512 512"><rect
width="512" height="512"
rx="15%"
enable-background="new 0 0 24 24" viewBox="0 0 24 24"><polygon fill="#95CA6E" points="10.343 2.889 10.349 2.882 10.355 2.873"/><path fill="#404A5D" d="M23.947,6.614C23.609,4.4,22.43,2.519,20.615,1.301c-3.303-2.222-7.772-1.533-10.266,1.581C9.302,4.191,8.677,5.85,8.677,7.654c0,0.593,0.068,1.171,0.186,1.674c0.181,0.801,0.581,1.768,1.007,2.43l0.218,0.343l-1.746,1.744l-0.277-0.141c-0.242-0.124-0.318-0.14-0.62-0.14c-0.651-0.002-0.465-0.159-4.069,3.449c-3.568,3.572-3.372,3.341-3.372,3.985c-0.004,0.58,0.067,0.689,1.185,1.803c0.938,0.933,1.12,1.079,1.473,1.168l0.001,0.001c0.255,0.064,0.675,0.018,0.947-0.106c0.212-0.097,0.637-0.505,3.402-3.261c3.586-3.582,3.432-3.398,3.43-4.049c0-0.301-0.015-0.376-0.14-0.617l-0.141-0.281l1.746-1.744l0.344,0.219c1.338,0.857,3.087,1.294,4.662,1.163c1.107-0.094,1.924-0.32,2.884-0.804l0.04-0.017c0.714-0.346,1.358-0.817,1.905-1.384l0.001-0.001c1.17-1.144,1.969-2.662,2.207-4.401C24.017,8.193,24.017,7.081,23.947,6.614L23.947,6.614z M22.1,10.44l-0.017,0.038c-0.877,1.772-2.549,3.082-4.592,3.472l0.001,0.002c-0.524,0.095-1.558,0.115-2.067,0.037l-0.035-0.004c-1.531-0.233-2.886-1.008-3.866-2.129c-0.981-1.121-1.576-2.59-1.576-4.197c0-1.392,0.446-2.682,1.192-3.713c0.309-0.436,1.036-1.164,1.481-1.481c0.714-0.505,1.533-0.872,2.463-1.069c0.605-0.129,1.835-0.141,2.416-0.025c0.84,0.168,1.731,0.532,2.37,0.962C22.555,4.135,23.492,7.541,22.1,10.44L22.1,10.44z"/><path fill="#DEDEDE" d="M16.406,1.29c-0.489,0-0.997,0.036-1.323,0.105c-0.93,0.197-1.749,0.565-2.463,1.069c-0.445,0.317-1.172,1.045-1.481,1.481c-0.746,1.031-1.192,2.32-1.192,3.713c0,1.608,0.595,3.076,1.576,4.197c0.092,0.105,0.187,0.207,0.285,0.305l9.035-9.035c-0.293-0.29-0.617-0.556-0.973-0.795c-0.638-0.43-1.53-0.794-2.37-0.962C17.231,1.317,16.825,1.29,16.406,1.29L16.406,1.29z"/><path fill="#384051" d="M16.353,0c-2.261,0-4.494,0.996-6.004,2.882C9.302,4.191,8.677,5.85,8.677,7.654c0,0.593,0.068,1.171,0.186,1.674c0.181,0.801,0.581,1.768,1.007,2.43l0.218,0.343l-1.746,1.744l-0.277-0.141c-0.242-0.124-0.318-0.14-0.62-0.14c-0.055,0-0.104-0.001-0.15-0.001c-0.497,0-0.62,0.147-3.92,3.451c-3.568,3.572-3.372,3.341-3.372,3.985c-0.004,0.579,0.067,0.689,1.175,1.793l10.63-10.63c-0.098-0.099-0.193-0.2-0.285-0.305c-0.981-1.121-1.576-2.59-1.576-4.197c0-1.392,0.446-2.682,1.192-3.713c0.309-0.436,1.036-1.164,1.481-1.481c0.714-0.505,1.533-0.872,2.463-1.069c0.326-0.069,0.833-0.105,1.323-0.105c0.419,0,0.825,0.026,1.093,0.08c0.84,0.168,1.731,0.532,2.37,0.962c0.355,0.238,0.68,0.505,0.973,0.795l0.903-0.903c-0.343-0.339-0.72-0.648-1.13-0.923C19.312,0.424,17.827,0,16.353,0L16.353,0z"/><path fill="#95CA6E" d="M2.712 5.459c.014.019.994.315 2.182.654L4.9 6.113l2.185.629L5.837 2.366 1.48 1.12 2.712 5.459 2.712 5.459zM1.482 11.289c.085.425 1.216 4.251 1.265 4.29l.001.001.094.055.025-.024c.46-.438.913-.885 1.367-1.344.755-.755 1.441-1.42 1.525-1.48.137-.094.153-.125.125-.223-.03-.111-.101-.136-2.225-.74C1.628 11.245 1.466 11.205 1.482 11.289L1.482 11.289zM3.57 11.201L3.568 11.2c1.189.341 2.2.623 2.25.626.08.003.147-.199.723-2.22C6.891 8.385 7.17 7.377 7.161 7.367L2.686 6.115 1.4 10.575C1.402 10.578 2.38 10.859 3.57 11.201L3.57 11.201z"/><path fill="#82B060" d="M1.48 1.12l1.232 4.339c.011.015.646.209 1.511.46V1.905L1.48 1.12 1.48 1.12zM1.525 11.256c-.041 0-.047.013-.043.033.085.425 1.216 4.251 1.265 4.29l.001.001.094.055.025-.024c.457-.435.907-.878 1.357-1.334v-2.291c-.17-.049-.358-.102-.566-.161C2.118 11.385 1.653 11.256 1.525 11.256L1.525 11.256zM2.686 6.115L1.4 10.575c.003.003.98.283 2.17.626L3.568 11.2c.227.065.447.128.655.187V6.545L2.686 6.115 2.686 6.115z"/><path fill="#95CA6E" d="M9.905,1.322C9.869,1.336,9.078,1.565,8.142,1.83L6.448,2.314l0.078,0.28l0.52,1.806v0.002c0.391,1.365,0.506,1.683,0.506,1.389l0.004-0.025c0.032-0.193,0.079-0.382,0.128-0.535L7.698,5.17c0.372-1.328,1.05-2.527,1.947-3.512C9.822,1.463,9.939,1.307,9.905,1.322L9.905,1.322z"/><path fill="#82B060" d="M8.011,1.868L6.448,2.314l0.078,0.28l0.52,1.806v0.002c0.304,1.061,0.441,1.49,0.487,1.49c0.013,0,0.019-0.035,0.019-0.101l0.004-0.025c0.032-0.193,0.079-0.382,0.128-0.535L7.698,5.17c0.088-0.313,0.193-0.62,0.313-0.917V1.868L8.011,1.868z"/><path fill="#95CA6E" d="M7.398,8.73l-0.421,1.475c-0.233,0.812-0.432,1.504-0.444,1.534l0.001-0.001l0.058,0.034c0.045-0.013,0.397-0.115,0.787-0.223c0.388-0.111,0.712-0.206,0.72-0.212c0.006-0.007-0.075-0.249-0.181-0.546c-0.199-0.553-0.372-1.185-0.465-1.74L7.398,8.73L7.398,8.73z"/><path fill="#82B060" d="M7.389,8.76l-0.412,1.445c-0.233,0.812-0.432,1.504-0.444,1.534l0.001-0.001l0.058,0.034c0.045-0.013,0.397-0.115,0.787-0.223c0.003-0.001,0.007-0.002,0.01-0.003V8.76L7.389,8.76z"/><path fill="#95CA6E" d="M9.438,21.078c0.788-0.223,1.446-0.42,1.466-0.435l1.248-4.36c-0.01-0.01-0.099,0.006-0.203,0.034l-0.182,0.051l-0.011,0.308c-0.006,0.17-0.032,0.403-0.058,0.521c-0.067,0.283-0.302,0.797-0.473,1.015c-0.075,0.101-0.829,0.876-1.676,1.728l0.001,0.002l-1.539,1.542L9.438,21.078L9.438,21.078z"/><path fill="#82B060" d="M10.732,18.738c-0.31,0.319-0.733,0.75-1.182,1.202l0.001,0.002l-1.539,1.542l1.427-0.405c0.555-0.157,1.045-0.301,1.293-0.378V18.738L10.732,18.738z"/><path fill="#95CA6E" d="M17.228,17.463c-0.173-0.084-4.397-1.263-4.42-1.237l-1.259,4.449l-0.573-0.158c0.729,0.233,1.462,0.455,2.772,0.808l-0.001-0.001c1.192,0.345,2.193,0.628,2.221,0.631l0.097-0.155l0.695-2.814c0.216-0.748,0.434-1.495-0.059,0.578C17.224,17.751,17.289,17.488,17.228,17.463L17.228,17.463z"/><path fill="#82B060" d="M12.81,16.226c-0.001,0-0.002,0-0.002,0l-1.259,4.45l-0.573-0.158c0.729,0.233,1.462,0.455,2.772,0.808l-0.001-0.001c0.119,0.035,0.237,0.068,0.351,0.101v-4.862C13.4,16.372,12.85,16.226,12.81,16.226L12.81,16.226z"/><path fill="#95CA6E" d="M22.08 14.661c-.013-.037-.106.01-.266.135-1.133.856-2.571 1.485-3.912 1.713l-.156.027.044.156.002.009.057.179-.001.002 4.498-1.262C22.353 15.611 22.134 14.826 22.08 14.661L22.08 14.661zM22.258 16.293l-4.346 1.211-1.248 4.346v.001l.099.018c.133-.026 4.244-1.198 4.264-1.218L22.258 16.293 22.258 16.293z"/><path fill="#82B060" d="M19.599 16.028c-.563.221-1.139.386-1.697.481l-.156.027.044.156.002.009.057.179-.001.002 1.752-.491V16.028L19.599 16.028zM19.599 17.034l-1.688.47-1.248 4.346v.001l.099.018c.081-.016 1.629-.455 2.838-.801V17.034L19.599 17.034z"/></svg>