<svg xmlns="http://www.w3.org/2000/svg" fill-rule="evenodd" stroke-linejoin="round" stroke-miterlimit="2" clip-rule="evenodd" viewBox="0 0 512 512"><rect width="512" height="512" rx="15%" fill="#fff"/><circle cx="256" cy="256" r="256" fill="#a6ce39"/><path fill="#fff" d="M301.464 158.201l.462.002.462.003.46.004.46.006.458.007.458.009.456.009.455.011.455.012.453.014.453.014.451.016.45.018.45.018.448.02.448.021.446.022.445.024.445.024.443.026.442.028.442.028.44.03.439.031.438.032.438.033.436.035.435.035.435.037.433.039.432.039.431.041.431.041.429.043.428.045.427.045.427.047.425.048.424.049.423.05.423.051.421.053.42.053.419.055.419.056.417.057.416.059.415.059.415.061.413.062.412.063.412.064.41.065.409.067.409.067.407.069.406.07.406.071.404.072.403.073.403.075.401.075.401.077.399.078.398.078.398.08.396.081.396.083.394.083.394.084.392.086.392.086.39.088.39.089.388.09.388.09.386.092.386.094.385.094.383.095.383.096.382.098.38.098.38.099.379.101.378.102.376.102.376.104.375.105.374.105.373.107.372.108.371.109.369.11.369.111.368.112.367.113.367.114.365.115.364.116.363.117.362.118.361.119.36.12.36.121.358.123.357.123.356.124.356.125.354.126.354.127.352.128.352.129.35.13.35.131.348.132.348.133.347.134.345.134.345.136.344.137.342.138.342.138.341.14.34.14.339.142.338.142.337.144.336.144.335.145.334.146.333.148.333.148.331.148.33.15.33.151.328.152.327.152.327.154.325.154.325.155.324.157.322.157.322.158.321.159.319.159.319.161.318.162.317.162.316.163.315.164.314.165.313.166.313.167.311.168.31.168.309.169.309.171.307.171.307.172.305.172.305.174.303.174.303.175.302.177.301.176.3.178.298.179.298.179.297.18.297.181.295.182.294.183.293.183.292.185.292.185.29.185.29.187.288.188.288.188.287.189.285.19.285.19.284.192.283.192.282.193.281.193.28.195.279.195.279.196.277.197.276.197.276.199.274.199.274.2.273.2.271.201.271.202.27.203.269.204.268.204.267.205.266.206.265.206.265.207.263.208.262.208.262.21.261.21.259.21.259.212.258.212.257.213.256.213.255.214.254.215.253.216.252.216.251.217.251.218.249.218.249.219.248.22.246.22.246.221.245.222.244.222.243.223.242.223.241.225.241.225.239.225.239.226.237.227.237.228.236.228.234.229.234.229.233.23.232.231.231.231.231.232.229.232.228.233.228.234.227.234.225.235.225.236.224.236.223.237.222.237.221.238.22.238.22.239.218.24.218.24.216.241.216.241.215.242.214.243.213.243.212.244.211.244.21.245.209.245.209.246.207.246.207.247.206.248.205.248.204.248.203.249.202.25.201.25.201.251.199.251.199.252.197.252.197.253.196.253.195.254.194.254.193.255.193.255.191.256.191.257.189.256.189.258.188.257.187.259.186.258.185.26.184.259.184.26.182.261.182.261.181.262.179.262.179.262.178.263.178.264.176.263.175.265.175.264.173.266.173.265.172.266.171.267.17.267.169.267.169.268.167.268.167.269.165.269.165.269.164.27.163.27.162.271.161.271.161.271.159.272.159.273.158.272.157.273.156.274.155.273.154.275.154.274.152.275.152.275.15.276.15.276.149.277.148.276.148.278.146.277.146.278.144.278.144.279.143.278.142.28.141.279.141.28.139.28.139.281.137.281.137.281.136.282.135.281.134.283.134.282.132.283.132.283.131.283.13.284.129.284.128.284.127.285.127.285.125.285.125.286.124.285.123.286.122.287.121.286.121.287.119.287.119.287.118.288.117.288.116.288.115.289.115.288.113.289.113.289.112.29.111.289.11.29.109.29.109.291.107.29.107.291.106.291.105.291.104.292.104.292.102.291.102.293.101.292.099.292.1.293.098.293.097.293.097.293.095.294.095.294.094.293.093.294.093.295.091.294.091.295.09.294.089.295.088.295.087.296.086.295.086.296.085.295.084.296.083.296.082.296.081.297.081.296.08.297.078.296.078.297.078.297.076.297.075.297.075.298.074.297.073.298.072.297.072.298.07.298.07.298.069.298.068.298.067.299.066.298.066.299.064.298.064.299.063.299.062.298.062.299.06.299.06.299.059.299.058.299.057.3.056.299.056.299.055.3.054.299.053.299.052.3.051.3.051.299.05.3.049.299.048.3.047.3.047.3.046.299.044.3.044.3.044.3.042.3.042.3.04.299.04.3.04.3.038.3.037.3.037.3.036.299.035.3.034.3.034.3.032.3.032.299.031.3.03.3.03.299.028.3.028.299.027.3.026.299.025.3.025.299.023.3.023.299.022.299.022.299.02.299.02.299.018.299.018.299.018.299.016.299.016.298.015.299.014.298.013.299.012.298.012.298.011.298.01.298.009.298.008.298.008.297.006.298.006.297.006.298.004.297.004.297.002.297.002.297.002.296v.619l-.002.322-.002.322-.004.323-.004.321-.006.322-.006.322-.007.322-.009.322-.009.321-.01.322-.012.321-.012.321-.013.321-.014.322-.016.321-.016.32-.017.321-.018.321-.019.321-.02.32-.021.32-.022.321-.023.32-.024.32-.025.32-.025.32-.027.319-.028.32-.029.319-.029.319-.031.32-.032.319-.032.319-.034.318-.034.319-.036.318-.036.319-.038.318-.038.318-.039.318-.041.317-.041.318-.042.317-.043.318-.044.317-.045.316-.046.317-.047.317-.048.316-.049.316-.049.316-.051.316-.052.316-.052.315-.054.316-.055.315-.055.315-.056.315-.058.314-.058.314-.059.315-.06.313-.062.314-.062.314-.063.313-.064.313-.064.313-.066.313-.067.312-.068.313-.068.312-.07.311-.07.312-.072.311-.072.312-.073.31-.074.311-.076.31-.076.311-.077.31-.078.309-.078.31-.08.309-.081.309-.082.309-.082.308-.084.308-.084.308-.085.308-.087.307-.087.308-.088.306-.089.307-.09.306-.091.307-.091.305-.093.306-.094.305-.094.305-.096.305-.096.304-.097.304-.098.304-.1.303-.1.304-.1.303-.102.302-.103.303-.104.302-.104.301-.106.302-.106.301-.107.301-.108.3-.11.3-.11.3-.11.299-.112.3-.113.298-.113.299-.115.298-.115.298-.117.297-.117.298-.118.296-.119.297-.12.296-.121.296-.121.295-.123.295-.123.295-.125.295-.125.294-.126.293-.127.294-.128.293-.129.292-.13.292-.13.292-.132.292-.132.291-.133.29-.134.291-.136.29-.135.289-.137.289-.138.289-.138.289-.14.288-.14.287-.141.287-.143.287-.142.287-.144.286-.145.285-.146.285-.146.285-.147.285-.149.284-.149.283-.15.283-.151.283-.151.282-.153.282-.153.281-.155.281-.155.281-.156.28-.157.28-.158.279-.158.279-.16.278-.16.278-.161.278-.163.277-.163.276-.163.276-.165.276-.166.275-.166.275-.167.274-.169.274-.169.273-.169.273-.171.272-.172.272-.172.272-.173.271-.175.27-.175.27-.175.27-.177.269-.178.268-.178.268-.179.268-.18.267-.181.266-.182.266-.183.266-.183.265-.185.264-.185.264-.186.264-.187.263-.188.262-.188.262-.189.262-.191.261-.191.26-.192.26-.192.259-.194.259-.195.258-.195.258-.196.257-.197.257-.198.256-.198.255-.2.255-.2.255-.201.254-.202.253-.203.253-.203.252-.205.252-.205.251-.206.25-.207.25-.208.25-.208.249-.21.248-.21.248-.211.247-.212.246-.213.246-.213.245-.214.245-.216.244-.216.244-.216.243-.218.242-.218.242-.22.241-.22.241-.221.24-.221.239-.223.239-.223.238-.224.238-.225.237-.226.236-.226.236-.228.235-.228.234-.229.234-.23.233-.23.233-.232.232-.232.231-.233.23-.234.23-.234.23-.236.229-.236.228-.237.227-.238.227-.239.226-.239.225-.24.225-.241.224-.242.224-.243.223-.243.222-.244.221-.246.221-.245.22-.247.22-.247.218-.249.218-.249.218-.249.217-.251.216-.251.215-.252.215-.253.214-.254.213-.254.212-.256.212-.256.212-.257.21-.257.21-.259.209-.259.208-.26.208-.261.207-.261.206-.263.205-.263.205-.264.204-.264.203-.266.203-.266.202-.267.201-.268.2-.268.2-.27.199-.27.198-.271.197-.271.197-.273.196-.273.195-.274.195-.274.193-.276.193-.276.192-.277.192-.278.19-.278.19-.28.189-.28.188-.281.188-.281.187-.283.186-.283.185-.284.184-.284.184-.286.183-.286.182-.287.181-.287.181-.289.179-.289.179-.29.178-.291.178-.291.176-.292.176-.293.175-.294.174-.295.173-.295.172-.296.172-.296.171-.298.17-.298.169-.299.168-.3.168-.3.166-.301.166-.302.165-.303.164-.303.164-.305.162-.304.162-.306.16-.306.16-.308.159-.307.159-.309.157-.309.157-.31.155-.311.155-.312.154-.312.153-.313.152-.314.152-.314.15-.315.15-.316.148-.317.148-.317.147-.319.146-.318.145-.32.145-.32.143-.321.143-.322.141-.323.141-.323.14-.324.139-.324.138-.326.137-.326.136-.327.135-.327.135-.328.133-.329.133-.33.131-.33.131-.332.13-.331.129-.333.128-.333.127-.334.126-.335.125-.335.124-.336.123-.337.123-.338.121-.338.12-.339.12-.34.119-.34.117-.341.117-.342.115-.342.115-.344.114-.343.113-.345.112-.345.11-.346.11-.347.109-.347.108-.349.107-.348.106-.35.105-.35.104-.351.103-.352.102-.352.101-.353.1-.354.099-.354.099-.355.097-.356.096-.356.095-.357.094-.358.093-.359.092-.359.091-.36.09-.36.089-.362.088-.362.087-.362.086-.364.085-.364.084-.364.083-.366.082-.366.081-.367.079-.367.079-.368.078-.369.076-.369.076-.37.075-.371.073-.372.073-.372.071-.373.07-.373.07-.375.068-.374.067-.376.066-.376.065-.377.064-.378.063-.378.062-.379.061-.379.059-.38.059-.381.058-.382.056-.382.055-.383.055-.384.053-.384.052-.385.051-.385.05-.386.048-.387.048-.388.047-.388.045-.389.045-.389.043-.39.042-.391.041-.392.04-.392.039-.393.037-.393.037-.394.035-.395.035-.395.033-.396.032-.397.031-.397.029-.398.029-.399.027-.399.027-.4.025-.401.024-.401.023-.402.022-.402.02-.404.02-.403.018-.405.017-.405.016-.406.015-.406.013-.407.013-.408.011-.408.01-.409.009-.409.008-.411.006-.41.005-.412.005-.412.003-.413.001-.413.001h-83.6V158.2H301l.464.001zM247.8 188.2v154.4h53.579l.348-.001.325-.001.327-.002.324-.004.323-.004.322-.005.323-.006.322-.007.319-.008.322-.009.319-.01.319-.01.317-.012.317-.012.317-.014.315-.014.315-.015.315-.016.314-.017.312-.018.312-.019.311-.019.31-.021.311-.021.31-.022.308-.023.306-.024.309-.025.307-.026.304-.026.306-.028.303-.028.303-.029.304-.03.301-.031.302-.031.301-.033.3-.033.299-.034.298-.035.298-.036.296-.037.298-.037.294-.038.296-.039.295-.04.292-.041.293-.041.293-.043.292-.043.29-.044.289-.044.289-.046.291-.047.287-.046.287-.048.287-.049.285-.049.286-.051.284-.051.284-.051.284-.053.283-.053.281-.054.279-.055.283-.056.28-.056.277-.057.279-.058.278-.059.276-.059.277-.06.275-.061.275-.061.275-.063.274-.063.273-.064.272-.064.271-.065.27-.066.271-.067.271-.068.268-.068.267-.068.269-.07.267-.071.265-.07.267-.072.264-.073.264-.073.264-.074.264-.075.263-.075.26-.076.259-.076.263-.078.261-.078.257-.078.257-.079.259-.081.258-.081.255-.081.257-.082.255-.083.253-.083.255-.085.253-.084.252-.086.253-.086.251-.087.251-.087.25-.089.248-.088.249-.089.248-.091.247-.09.249-.092.245-.092.245-.092.246-.094.243-.094.244-.094.245-.096.241-.096.242-.096.24-.097.24-.098.241-.099.24-.099.238-.099.237-.1.239-.102.237-.101.235-.102.235-.103.236-.103.235-.105.234-.104.232-.105.231-.105.232-.107.234-.108.23-.108.228-.107.23-.109.229-.11.228-.11.228-.111.228-.111.225-.112.226-.112.226-.113.224-.114.224-.114.223-.115.222-.115.223-.116.222-.117.22-.117.221-.117.22-.119.219-.119.218-.119.218-.12.217-.12.216-.121.217-.122.216-.123.215-.123.215-.123.213-.124.213-.124.212-.125.211-.125.213-.127.212-.128.209-.126.21-.128.209-.129.208-.128.207-.129.207-.13.209-.132.206-.131.204-.131.205-.132.204-.133.205-.134.202-.133.203-.134.202-.135.2-.135.202-.136.201-.138.199-.136.199-.138.199-.138.197-.138.198-.139.196-.139.197-.141.196-.141.194-.14.194-.142.194-.143.194-.143.193-.143.191-.143.193-.145.19-.144.19-.145.191-.147.188-.146.189-.146.189-.148.186-.147.187-.149.187-.149.185-.149.185-.15.185-.15.184-.151.183-.15.182-.152.184-.153.181-.153.181-.153.181-.154.179-.154.18-.154.179-.156.178-.155.177-.156.178-.157.176-.157.176-.157.176-.159.175-.158.173-.158.174-.16.173-.16.172-.16.172-.161.172-.162.17-.161.171-.163.169-.162.168-.162.17-.165.168-.165.166-.163.167-.165.166-.166.165-.165.166-.167.164-.166.163-.167.164-.169.163-.168.162-.168.16-.168.161-.17.161-.171.159-.169.159-.171.16-.172.158-.172.155-.17.157-.173.158-.174.155-.173.154-.173.155-.174.155-.176.153-.174.153-.176.152-.176.15-.176.152-.177.15-.176.149-.178.15-.179.149-.178.148-.179.147-.178.146-.179.148-.182.145-.18.144-.18.145-.182.145-.182.143-.182.142-.182.142-.182.141-.183.141-.184.14-.184.14-.184.14-.186.138-.185.138-.185.137-.186.137-.186.136-.187.136-.188.135-.187.134-.187.134-.189.133-.189.132-.188.132-.19.132-.19.13-.189.13-.19.13-.192.129-.192.129-.191.127-.191.128-.193.127-.194.125-.192.125-.192.125-.195.124-.194.123-.194.124-.196.121-.193.122-.195.122-.198.12-.196.119-.195.119-.197.12-.198.117-.197.118-.198.117-.198.115-.198.117-.2.114-.199.114-.198.115-.202.113-.199.112-.2.112-.201.112-.202.11-.201.109-.201.11-.203.109-.202.108-.202.108-.204.107-.204.105-.202.106-.204.106-.205.104-.204.104-.205.103-.205.102-.205.102-.206.102-.206.1-.206.1-.207.1-.207.099-.208.097-.206.098-.208.097-.208.096-.209.096-.209.095-.208.093-.208.094-.21.094-.21.092-.21.092-.211.091-.209.09-.21.09-.212.09-.213.089-.211.087-.211.087-.211.087-.212.087-.214.085-.213.085-.213.084-.213.083-.213.083-.214.082-.214.082-.214.081-.215.08-.215.079-.214.079-.215.078-.216.078-.216.077-.216.077-.217.075-.215.075-.216.075-.219.074-.216.072-.216.073-.219.072-.218.071-.217.07-.218.07-.219.07-.218.068-.218.068-.218.067-.219.067-.221.066-.221.065-.218.064-.219.064-.222.063-.219.063-.22.062-.222.061-.22.061-.221.06-.222.059-.221.059-.222.057-.22.057-.223.057-.223.056-.222.055-.222.055-.223.054-.224.053-.222.053-.222.052-.224.051-.225.051-.222.049-.223.049-.224.049-.225.048-.224.047-.224.047-.226.046-.224.045-.225.044-.224.044-.225.043-.225.043-.226.042-.225.041-.226.041-.228.039-.224.039-.225.039-.228.038-.227.036-.225.037-.227.035-.225.035-.228.035-.227.033-.226.033-.228.033-.228.031-.227.031-.226.031-.229.029-.227.029-.229.028-.227.028-.228.026-.229.027-.228.025-.228.025-.228.024-.228.023-.228.023-.229.022-.228.021-.231.021-.229.019-.227.02-.23.018-.229.018-.23.017-.229.016-.228.016-.23.015-.23.015-.228.013-.231.013-.23.013-.231.011-.229.011-.229.01-.231.01-.229.008-.229.008-.231.008-.232.007-.229.005-.23.006-.23.004-.23.004-.232.003-.23.003-.23.002-.231.001-.23v-.447l-.001-.216-.002-.215-.002-.219-.002-.216-.003-.215-.004-.218-.005-.217-.005-.218-.005-.218-.006-.216-.007-.218-.007-.218-.008-.217-.009-.218-.009-.219-.009-.217-.011-.219-.01-.22-.012-.217-.012-.217-.012-.22-.014-.22-.013-.218-.015-.22-.015-.218-.015-.219-.017-.22-.016-.219-.018-.218-.018-.221-.018-.219-.019-.219-.02-.221-.02-.219-.021-.22-.022-.221-.022-.22-.023-.219-.023-.22-.024-.22-.025-.219-.025-.22-.025-.22-.027-.22-.027-.222-.027-.22-.028-.218-.029-.221-.029-.22-.03-.22-.031-.221-.031-.22-.032-.22-.032-.221-.033-.22-.034-.219-.034-.22-.035-.221-.035-.219-.036-.22-.036-.221-.038-.22-.038-.221-.038-.219-.038-.218-.04-.221-.041-.22-.04-.219-.042-.22-.042-.221-.042-.219-.043-.218-.044-.219-.045-.22-.045-.221-.045-.218-.046-.218-.047-.22-.048-.219-.048-.218-.049-.22-.049-.218-.049-.218-.051-.218-.051-.22-.052-.218-.052-.218-.053-.218-.053-.217-.054-.218-.055-.217-.055-.22-.056-.217-.056-.215-.057-.218-.059-.218-.057-.215-.059-.217-.06-.219-.06-.215-.061-.216-.061-.217-.062-.216-.063-.216-.062-.214-.064-.216-.064-.216-.066-.216-.065-.213-.066-.216-.067-.215-.067-.213-.068-.215-.069-.215-.068-.213-.07-.213-.07-.214-.071-.214-.072-.214-.072-.212-.072-.212-.074-.214-.074-.211-.074-.212-.075-.213-.076-.212-.076-.211-.077-.211-.077-.211-.078-.21-.079-.211-.079-.21-.08-.21-.081-.212-.081-.209-.082-.209-.082-.209-.082-.209-.084-.208-.084-.209-.085-.209-.085-.208-.085-.206-.087-.207-.087-.208-.087-.207-.089-.208-.089-.206-.089-.205-.09-.206-.09-.206-.091-.204-.092-.205-.092-.205-.093-.205-.094-.204-.094-.204-.094-.203-.095-.202-.097-.205-.096-.203-.097-.202-.097-.201-.099-.203-.099-.202-.098-.2-.1-.2-.101-.201-.101-.201-.102-.199-.103-.201-.102-.198-.103-.199-.105-.199-.104-.198-.105-.198-.106-.198-.106-.197-.107-.196-.108-.199-.108-.195-.109-.196-.109-.196-.11-.194-.111-.197-.111-.194-.111-.194-.113-.194-.112-.194-.114-.193-.113-.193-.115-.192-.115-.193-.116-.191-.116-.192-.117-.191-.118-.191-.118-.191-.118-.188-.12-.191-.12-.19-.12-.188-.121-.188-.121-.188-.122-.188-.123-.188-.124-.187-.124-.187-.124-.186-.125-.186-.125-.185-.127-.186-.127-.185-.127-.184-.128-.184-.128-.183-.129-.183-.13-.183-.131-.183-.132-.183-.131-.181-.131-.181-.133-.18-.133-.18-.134-.181-.135-.18-.135-.18-.134-.177-.137-.179-.138-.179-.136-.176-.139-.178-.138-.177-.139-.176-.141-.177-.139-.174-.141-.175-.142-.177-.142-.173-.142-.173-.143-.174-.145-.174-.144-.173-.145-.171-.146-.172-.146-.171-.147-.172-.148-.171-.147-.169-.148-.169-.151-.171-.15-.169-.15-.167-.15-.168-.152-.167-.153-.169-.153-.165-.153-.166-.155-.168-.154-.164-.155-.164-.156-.165-.157-.165-.157-.163-.158-.163-.158-.163-.159-.162-.16-.162-.16-.161-.161-.161-.163-.162-.161-.159-.163-.16-.163-.159-.163-.158-.165-.159-.166-.158-.166-.157-.165-.156-.168-.157-.168-.156-.168-.155-.17-.156-.169-.155-.17-.153-.171-.154-.172-.154-.173-.152-.173-.153-.173-.151-.174-.152-.175-.151-.176-.15-.175-.149-.177-.15-.178-.15-.179-.149-.178-.147-.178-.147-.182-.148-.18-.147-.181-.146-.183-.146-.183-.145-.184-.145-.183-.144-.184-.144-.186-.143-.187-.143-.187-.143-.188-.142-.188-.142-.188-.14-.19-.141-.19-.14-.191-.139-.192-.139-.193-.139-.193-.138-.194-.137-.195-.138-.195-.137-.196-.135-.195-.135-.199-.136-.199-.135-.197-.133-.2-.134-.201-.133-.201-.133-.202-.132-.202-.131-.203-.131-.205-.131-.204-.13-.205-.129-.207-.13-.207-.128-.207-.128-.209-.127-.209-.127-.21-.126-.212-.127-.211-.125-.211-.125-.214-.124-.214-.124-.215-.123-.215-.123-.217-.123-.216-.121-.218-.121-.219-.121-.219-.12-.22-.119-.221-.12-.223-.118-.222-.118-.222-.117-.225-.117-.226-.117-.226-.116-.226-.114-.227-.115-.228-.114-.23-.114-.23-.113-.231-.112-.231-.112-.233-.111-.233-.111-.234-.11-.236-.11-.235-.108-.237-.108-.238-.109-.239-.107-.239-.106-.24-.106-.241-.106-.242-.105-.243-.104-.244-.104-.244-.103-.246-.102-.246-.102-.247-.101-.249-.101-.249-.1-.25-.1-.251-.099-.252-.098-.252-.097-.254-.097-.254-.097-.256-.095-.257-.096-.257-.094-.258-.094-.259-.093-.261-.092-.261-.093-.262-.091-.262-.09-.264-.09-.266-.09-.265-.088-.267-.088-.268-.087-.269-.087-.269-.086-.271-.085-.272-.085-.272-.084-.274-.083-.275-.083-.275-.082-.277-.081-.278-.08-.278-.08-.28-.079-.28-.079-.282-.077-.282-.077-.284-.077-.285-.075-.285-.075-.287-.074-.288-.073-.288-.073-.29-.072-.291-.071-.292-.071-.292-.069-.294-.069-.295-.068-.296-.068-.297-.066-.298-.066-.299-.066-.3-.064-.301-.063-.303-.063-.303-.062-.305-.062-.305-.06-.306-.06-.308-.059-.309-.058-.31-.057-.311-.056-.311-.056-.313-.055-.315-.054-.314-.053-.317-.052-.317-.052-.319-.051-.319-.049-.321-.049-.322-.049-.323-.047-.324-.046-.325-.046-.326-.045-.328-.044-.328-.043-.33-.042-.33-.041-.332-.04-.333-.04-.334-.038-.335-.038-.337-.037-.338-.036-.338-.035-.34-.034-.341-.033-.342-.032-.343-.031-.345-.031-.345-.029-.347-.029-.348-.027-.349-.027-.35-.025-.351-.025-.353-.024-.354-.023-.354-.022-.356-.02-.357-.02-.359-.019-.359-.018-.361-.017-.362-.016-.363-.015-.364-.014-.365-.013-.367-.012-.368-.011-.369-.01-.37-.008-.371-.008-.373-.007-.374-.006-.374-.005-.376-.003-.377-.003-.379-.001-.401-.001H247.8z"/><circle cx="157.2" cy="113.6" r="20.2" fill="#fff"/><path fill="none" d="M157.667 158.156v214.666"/><path fill="#fff" d="M142.417 158.156h30.5v214.667h-30.5z"/></svg>