<svg xmlns="http://www.w3.org/2000/svg" aria-label="Orcid" role="img" viewBox="0 0 512 512"><rect width="512" height="512" rx="15%" fill="#fff"/><path fill="#a6ce39" d="M512 256c0 141.4-114.6 256-256 256S0 397.4 0 256 114.6 0 256 0s256 114.6 256 256z"/><path fill="#fff" fill-rule="nonzero" d="M217.8 158.2H301c79.2 0 114 56.6 114 107.2 0 55-43 107.2-113.6 107.2h-83.6V158.2zm-45.2 214.2h-30.8V158.2h30.8v214.2zM296 186h-47.4v158.8h49c69.8 0 85.8-53 85.8-79.4 0-43-27.4-79.4-87.4-79.4zm-118.6-72.4c0 11-9 20.2-20.2 20.2s-20.2-9.2-20.2-20.2c0-11.2 9-20.2 20.2-20.2s20.2 9.2 20.2 20.2z"/></svg>