<svg xmlns="http://www.w3.org/2000/svg"
aria-label="Origin" role="img"
viewBox="0 0 512 512"
fill-rule="evenodd"><rect
width="512" height="512"
rx="15%"
fill="#fff"/><g fill="#f15a23"><path d="M256 100.411c85.855 0 155.563 69.724 155.563 155.605S341.855 411.624 256 411.624 100.437 341.9 100.437 256.016 170.145 100.411 256 100.411zm0 94.919c33.485 0 60.668 27.195 60.668 60.686S289.485 316.705 256 316.705s-60.668-27.195-60.668-60.689S222.515 195.33 256 195.33z"/><path d="M256 53.724c1.513-4.001.025-5.543-4.032-5.948-4.486-1.467-87.421 46.58-124.109 119.297-36.774 72.887 108.058-65.305 108.058-65.305 7.367-27.017 8.724-31.416 20.083-48.044zm.096 404.548c-1.52 3.997-.036 5.543 4.017 5.951 4.486 1.475 87.51-46.416 124.334-119.062 36.909-72.819-108.179 65.099-108.179 65.099-7.417 27.007-8.784 31.405-20.172 48.012z"/></g></svg>