<svg xmlns="http://www.w3.org/2000/svg"
aria-label="Origin" role="img"
viewBox="0 0 512 512" fill-rule="evenodd" ><rect
width="512" height="512"
rx="15%" 
fill="#fff"/><g fill="#f15a23"><path d="m256 100.4c85.9 0 155.6 69.7 155.6 155.6s-69.7 155.6-155.6 155.6-155.6-69.7-155.6-155.6 69.7-155.6 155.6-155.6zm0 94.9c33.5 0 60.7 27.2 60.7 60.7s-27.2 60.7-60.7 60.7-60.7-27.2-60.7-60.7 27.2-60.7 60.7-60.7z"/><path d="m256 53.7c1.5-4 0-5.5-4-5.9-4.5-1.5-87.4 46.6-124.1 119.3-36.8 72.9 108.1-65.3 108.1-65.3 7.4-27 8.7-31.4 20.1-48zm0.1 404.5c-1.5 4-0 5.5 4 6 4.5 1.5 87.5-46.4 124.3-119.1 36.9-72.8-108.2 65.1-108.2 65.1-7.4 27-8.8 31.4-20.2 48z"/></g></svg>
