<svg xmlns="http://www.w3.org/2000/svg"
aria-label="Overcast" role="img"
viewBox="0 0 512 512"
stroke-linecap="round" stroke-width="23"><path
d="m0 0H512V512H0"
fill="#fff"/><g fill="none" stroke="#fc7e0f"><circle cx="255" cy="255" r="175"/><path d="m160 181.1s-24.2 27.3-24.2 75S160 330 160 330"/><path d="M352.8 330S377 303.8 377 256.1s-24.2-75-24.2-75"/><path d="M314.4 298.3s15.2-15 15.7-42.3c.4-22.7-15.9-43-15.9-43"/><path d="M197.6 298.3s-15.2-15-15.7-42.3c-.4-22.7 15.9-43 15.9-43"/></g><g fill="#fc7e0f"><circle cx="255" cy="255" r="32"/><path d="m260.4 284.9-22.7-6.1L199.9 420l22.7 6.1z"/><path d="M289.2 426l22.6-6-37.6-141.3-22.6 6Z"/><path d="m230.6 360.9 8.4-8.6 58.2 56.7-8.4 8.6z"/><path d="m279.9 361.2-7.6-7.7-57.7 57.3 7.6 7.7z"/></g></svg>