<svg xmlns="http://www.w3.org/2000/svg" aria-label="Phone" role="img" viewBox="0 0 512 512"><rect width="512" height="512" fill="#0f0" rx="15%"/><path fill="#fff" d="M425 347c-12-10-26-19-39-27-27-18-50-19-69 8-11 16-27 18-43 11-45-21-79-50-98-95-9-19-9-37 12-50 10-7 22-16 21-32-2-21-52-91-73-98-9-3-16-3-25 0-48 16-67 54-49 99a526 526 0 0 0 292 289l20 6c31 0 67-29 79-58 10-28-12-40-28-53z"/><path fill="none" stroke="#fff" stroke-linecap="round" stroke-width="20" d="M276.7 114.5s48-1.3 83.6 34.4c35.7 35.4 31.7 86 31.7 86m-102-73s19-4.7 39.2 16.2c20.4 21 15.3 40 15.3 40M261 67s75-2.7 130 52.2c54.8 55 50 132.3 50 132.3"/></svg>