<svg xmlns="http://www.w3.org/2000/svg"
aria-label="Photoshop" role="img"
viewBox="0 0 512 512">
 <path fill="#001e36" d="M91 0h331a90 90 0 0 1 90 91v317a90 90 0 0 1-91 90H90a90 90 0 0 1-89-91V91A89 89 0 0 1 91 0"/>
 <path fill="#31a8ff" d="M115 348V130l1-4h68a115 115 0 0 1 44 7 90 90 0 0 1 28 16 64 64 0 0 1 17 20l3 25a77 77 0 0 1-12 46 77 77 0 0 1-34 26 154 154 0 0 1-47 8h-22v69l-1 2h-45m46-180v71h19l25-2a38 38 0 0 0 18-13 26 26 0 0 0 6-22l-5-19-14-13-26-4zm249 63-21-8-24-4-13 1q-4 0-6 5l-2 7 2 5 7 6 14 7a115 115 0 0 1 34 15l16 18a51 51 0 0 1 5 23 64 64 0 0 1-7 28 77 77 0 0 1-25 19 102 102 0 0 1-38 7l-28-3-23-6-3-5v-39h3l27 12 25 2 18-2a13 13 0 0 0 7-10l-6-8-20-10a115 115 0 0 1-31-16 51 51 0 0 1-15-18 51 51 0 0 1-5-21 51 51 0 0 1 8-26 45 45 0 0 1 22-19 90 90 0 0 1 39-9l26 3 20 3 1 3v38h-1Z"/>
</svg>