<svg xmlns="http://www.w3.org/2000/svg" xml:space="preserve"
aria-label="photoshop" role="img"
viewBox="0 0 512 512">
 <path fill="#001e36" d="M91 0h331c50 0 90 40 90 90v318c0 50-40 90-90 90H90c-50 0-89-41-89-91V91C0 42 39 1 88 0z"/>
 <path fill="#31a8ff" d="M115 348V130l1-4h68c33 0 83 14 90 52q5 22-2 44c-12 39-52 52-89 52h-22v69l-1 2h-45m46-180v66c0 6 2 5 8 5 19 0 45 2 56-18q4-7 4-18 0-15-11-25c-13-15-39-13-57-10m249 62q-7-1-15-5-16-6-34-6-8 0-13 4-4 7 0 14c5 7 7 7 12 9l35 15q17 11 25 27 8 19 0 37c-7 18-27 30-47 34s-41-1-60-5q-11 0-13-11-2-14-2-29c0-15 16 0 21 1q23 8 48 5 7-1 10-6 2-4-1-9-4-6-8-6c-18-10-40-15-54-31a50 50 0 0 1-4-58c10-16 29-24 48-27q27-3 54 4c7 2 7 13 7 18s2 22-2 25l-4 1z"/>
</svg>