<svg xmlns="http://www.w3.org/2000/svg"
aria-label="Photoshop" role="img"
viewBox="0 0 512 512"><defs><style>.cls-2{fill:#31a8ff}</style></defs><path id="Vector" fill="#001e36" d="M420.18 0H91.82A91.82 91.82 0 0 0 0 91.82v328.36A91.82 91.82 0 0 0 91.82 512h328.36A91.82 91.82 0 0 0 512 420.18V91.82A91.82 91.82 0 0 0 420.18 0Z"/><path id="Vector_2" d="M178.79 135.91c66.93 0 104.62 31.35 104.62 83.84 0 61.29-51.08 85.95-98.99 85.95h-32.41v66.23H86.49V135.91h92.29Zm-26.77 56.01v57.77h28.89c20.08 0 34.17-8.1 34.17-28.53 0-18.67-11.98-29.24-32.76-29.24h-30.29Z" class="cls-2"/><path id="Vector_3" d="m296.73 360.3.35-54.6c18.67 12.33 44.74 20.08 62.7 20.08 12.33 0 17.97-3.52 17.97-9.86 0-7.04-7.75-9.86-22.55-14.44-28.53-8.45-59.88-20.08-59.88-57.42s31.35-59.18 76.79-59.18c21.49 0 39.1 3.17 54.6 9.86l-.35 52.13c-12.33-7.4-36.63-14.09-52.49-14.09-11.62 0-16.2 3.52-16.2 8.81 0 6.34 5.64 8.1 22.55 13.39 32.76 9.86 60.24 20.43 60.24 58.83s-29.94 61.29-76.79 61.29c-24.66 0-47.91-4.23-66.93-14.79Z" class="cls-2"/></svg>