<svg xmlns="http://www.w3.org/2000/svg" data-name="Photoshop 40" viewBox="0 0 40 39">
  <path fill="#001e36" d="M7.1 0H33a7 7 0 0 1 7 7.1v24.8a7 7 0 0 1-7.1 7.1H7a7 7 0 0 1-7-7.1V7.1A7 7 0 0 1 7.1 0" data-name="Path 99550"/>
  <path fill="#31a8ff" d="M9 27.3V10.2l.1-.3h5.3a9 9 0 0 1 3.4.5 7 7 0 0 1 2.2 1.3 5 5 0 0 1 1.3 1.9l.3 2a6 6 0 0 1-1 3.6 6 6 0 0 1-2.6 2 12 12 0 0 1-3.7.6h-1.7v5.4l-.1.2H9m3.6-14.1v5.6h1.5l1.9-.2a3 3 0 0 0 1.4-1 2 2 0 0 0 .5-1.7l-.4-1.5-1.1-1-2-.3z" data-name="Path 99551"/>
  <path fill="#31a8ff" d="m32 17.7-1.6-.6-1.9-.3-1 .1q-.3 0-.5.4l-.1.5.1.4.6.5 1.1.5a9 9 0 0 1 2.6 1.2l1.3 1.4a4 4 0 0 1 .4 1.8 5 5 0 0 1-.6 2.2 6 6 0 0 1-1.9 1.5 8 8 0 0 1-3 .5l-2.2-.2-1.8-.5-.2-.4v-3h.2l2.1.9 2 .2 1.4-.2a1 1 0 0 0 .5-.8l-.4-.6-1.6-.8a9 9 0 0 1-2.4-1.2 4 4 0 0 1-1.2-1.4l-.4-1.7a4 4 0 0 1 .6-2 3 3 0 0 1 1.8-1.5 7 7 0 0 1 3-.7l2.1.2 1.5.3.1.2v3h-.1Z" data-name="Path 99552"/>
</svg>
