<svg xmlns="http://www.w3.org/2000/svg"
aria-label="PHP" role="img"
viewBox="0 0 512 512"><rect
width="512" height="512"
rx="15%"
fill="#777bb3"/><g style="stroke:#fff;stroke-width:6;"><path d="M131 283c11 0 20-2 25-7 6-4 10-11 12-21 1-10 1-16-3-20-3-3-10-5-21-5h-18l-11 53zm-61 65a3 3 0 0 1-3-3l27-141 3-2h59c18 0 32 5 41 15s11 24 8 41a66 66 0 0 1-20 36c-7 6-14 10-22 13-7 2-17 4-29 4h-24l-7 35c0 1-1 2-3 2z"/><path d="M275 311a3 3 0 0 1-3-4l12-62c1-6 1-10-1-12-1-1-4-3-13-3h-22l-15 78c0 2-1 3-3 3h-30a3 3 0 0 1-3-4l28-140c0-2 1-2 2-2h31a3 3 0 0 1 3 3l-7 34h24c17 0 30 3 37 10 7 6 9 17 6 31l-12 65-3 3z"/><path d="M369 283c12 0 21-2 26-7 6-4 9-11 11-21s2-16-2-20c-3-3-10-5-21-5h-18l-11 53zm-60 65a3 3 0 0 1-3-3l27-141 3-2h59c18 0 32 5 41 15 8 10 11 24 8 41a66 66 0 0 1-20 36c-7 6-14 10-22 13-8 2-17 4-29 4h-24l-7 35c0 1-1 2-3 2z"/></g></svg>