<svg xmlns="http://www.w3.org/2000/svg"
aria-label="Pinterest" role="img"
viewBox="0 0 512 512"><rect
width="512" height="512"
rx="15%"
fill="#bd081b"/><path d="m265 65c-104 0-157 75-157 138 0 37 14 71 45 83 5 2 10 0 12-5l3-18c2-6 1-7-2-12-9-11-15-24-15-43 0-56 41-106 108-106 60 0 92 37 92 85 0 64-28 116-70 116-23 0-40-18-34-42 6-27 19-57 19-77 0-18-9-34-30-34-24 0-42 25-42 58 0 20 7 34 7 34l-29 120a249 249 0 0 0 2 86l3-1c2-3 31-37 40-72l16-61c7 15 29 28 53 28 71 0 119-64 119-151 0-66-56-126-140-126z" fill="#fff"/></svg>