<svg xmlns="http://www.w3.org/2000/svg" aria-label="Pixelfed" role="img" viewBox="0 0 512 512"><rect width="512" height="512" fill="#fff" rx="15%"/><g fill="#f72"><path id="a" d="M254 256c32-42 23-102-20-134s-108-15-140 27l11-19c52-63 143-89 210-58 50 17 78 72 62 123s-72 78-123 61"/></g><use fill="#1c3" href="#a" transform="rotate(72 256 256)"/><use fill="#08f" href="#a" transform="rotate(144 256 256)"/><use fill="#a3c" href="#a" transform="rotate(216 256 256)"/><use fill="#e15" href="#a" transform="rotate(288 256 256)"/><path id="b" d="M101 142l1-1c32-42 93-51 135-19s50 91 18 133a96 96 0 00-15-17 84 84 0 00-117-115 87 87 0 00-22 19z" opacity=".3"/><g id="c"><use href="#b" transform="rotate(72 256 256)"/><use href="#b" transform="rotate(144 256 256)"/></g><use href="#c" transform="rotate(144 256 256)"/><path fill="#fff" d="M241 297h35c33 0 60-26 60-58s-27-58-60-58h-51a34 34 0 00-34 33v131z"/><circle cx="256" cy="256" r="196" fill="none" stroke="#fff" stroke-width="8"/></svg>