<svg xmlns="http://www.w3.org/2000/svg"
aria-label="Plausible" role="img"
viewBox="0 0 512 512"><defs><linearGradient id="a"
x1="249.3" x2="330.1" y1="215.3" y2="356.8"
gradientUnits="userSpaceOnUse"><stop offset="0" stop-color="#909cf7"/><stop offset="1" stop-color="#4b38d8"/></linearGradient><linearGradient id="b"
x1="205.4" x2="288.7" y1="62.3" y2="208.1" href="#a"/></defs><path
d="m0 0H512V512H0"
fill="#fff"/><path
fill="url(#a)"
d="M311.1 333.4h-26v60.2a61 61 0 0 1-60.4 61.4h-51.2c-9.6 0-19.2-9.6-19.2-19.2v-128l32-44.8a21.5 21.5 0 0 1 25.6-7.3l18.4 7.7c9.2 3.8 19.9.8 25.7-7.4l43-60.2a21.5 21.5 0 0 1 25.6-7.3l35.3 14.8c9.3 3.9 20 .9 25.8-7.3l41.6-57.6c12.8 23 23.6 54.4 12.8 97.6-11.9 48.3-61.8 97.4-129 97.4z"/><path
fill="url(#b)"
d="M175.4 255.8a34.4 34.4 0 0 1 42-12.8l18.3 7.7c3.6 1.5 8 .4 10.4-3l42.2-59a34.2 34.2 0 0 1 41.8-12.9l35.4 15c3.7 1.5 8 .4 10.4-3l44.3-62.1A130.2 130.2 0 0 0 314.3 71H173.5c-9.6 0-19.2 9.6-19.2 19.2v195.2z"/></svg>