<svg xmlns="http://www.w3.org/2000/svg" aria-label="..." viewBox="0 0 512 512">
  <path d="M0 0h512v512H0" fill="#fff"/>
  <path fill="none" d="M0 0h256v256H0z"/>
  <path d="M381.28 281.6c-4.68 5.9-16.13 10.13-16.13 10.13l-85.19 30.62v-14.84l62.64-22.34c7.12-2.54 8.2-6.16 2.42-8.07-5.82-1.91-16.36-1.37-23.56 1.21l-42.15 14.87v-23.67l2.41-.83s12.19-4.33 29.31-6.23c17.12-1.9 38.08.27 54.52 6.58C384.07 274.9 384 276 381 282zm-96.57-39.58v-55.13c0-6.83-1.25-13.12-7.64-14.9-4.89-1.58-7.92 2.98-7.92 9.8v129.85l-39.18-12.45V142.67c16.67 3.09 41 10.4 54.03 14.82 33.21 11.41 44.48 25.58 44.48 57.58 0 31.15-19.16 42.94-43.51 31.17zm-126.94 55.51c-19.05-5.38-22.18-16.56-13.5-23.02 8-5.94 21.61-10.42 21.61-10.42l56.2-20v22.81l-40.41 14.48c-7.14 2.56-8.25 6.22-2.45 8.12 5.81 1.9 16.34 1.36 23.51-1.2l19.43-7.06v20.46l-3.86.65c-19.43 3.17-40.14 1.85-60.58-4.93z"/>
</svg>
