<svg xmlns="http://www.w3.org/2000/svg"
aria-label="Pnpm" role="img"
viewBox="0 0 512 512"><path
d="M455 205h-91v-93h91zm-101 0h-93v-93h93zm-102 0h-93v-93h93zm203 101h-91v-91h91z"
fill="#F9AD00"/><path fill="#4E4E4E" d="M354 306h-93v-91h93zm0 102h-93v-93h93zm101 0h-91v-93h91zm-203 0h-93v-93h93zM60 239l9 2 6 4 6 6v19l-4 5-8 4a25 25 0 0 1-13 0v13h-2a19 19 0 0 1-8 0h-1l-2-1v-46l3-2 6-2zm0 31c5 0 7-4 7-10l-2-8-5-1h-4v17l2 2zm51-16v-3h-8l-1 1v27h-2a25 25 0 0 1-8 0h-2a6 6 0 0 1-2-2v-30l4-2 6-4 9-2 13 4c4 4 4 8 4 11v25h-2a25 25 0 0 1-5 0h-2a6 6 0 0 1-2-2l-2-4zm40-15 8 2 7 4 4 6 2 9v10l-4 5-8 4a25 25 0 0 1-13 0v13h-4a19 19 0 0 1-5 0h-2l-2-1v-46l4-2 5-2zm0 31c6 0 8-4 8-10l-2-8-6-1h-4v17l2 2zm46-31a21 21 0 0 1 11 4l6-2 7-2 6 2 6 2 1 4 2 7v25h-5a19 19 0 0 1-4 0h-2a6 6 0 0 1-2-2v-23l-2-3h-6l-1 1v27a21 21 0 0 1-6 0h-2a6 6 0 0 1-4 0v-2l-2-4v-22h-7v28h-12a6 6 0 0 1-2-2v-30l2-2 8-4a29 29 0 0 1 8-2"/></svg>