<svg xmlns="http://www.w3.org/2000/svg" aria-label="Pnpm" role="img" viewBox="0 0 512 512" width="1200" height="1200">
  <g transform="translate(35, 110) scale(1.9)">
    <path d="M221 50h-48V1h48v49Zm-53 0h-49V1h49v49Zm-54 0H65V1h49v49Zm107 53h-48V55h48v48Z" fill="#F9AD00"/>
    <path d="M168 103h-49V55h49v48Zm0 54h-49v-49h49v49Zm53 0h-48v-49h48v49Zm-107 0H65v-49h49v49ZM13 68l5 1 3 2 3 3v10l-2 3-4 2a13 13 0 0 1-7 0v7h-1a10 10 0 0 1-4 0 3 3 0 0 1-1 0l-1-1V71l2-1 3-1 4-1Zm0 16c3 0 4-2 4-5l-1-4-3-1h-2v9l1 1h1Zm27-8v-2h-4l-1 1v14h-1a13 13 0 0 1-4 0 3 3 0 0 1-1 0 3 3 0 0 1-1-1V72l2-1 3-2 5-1 7 2c2 2 2 4 2 6v13h-1a13 13 0 0 1-3 0 3 3 0 0 1-1 0 3 3 0 0 1-1-1l-1-2V76Zm21-8 4 1 4 2 2 3 1 5v5l-2 3-4 2a13 13 0 0 1-7 0v7h-2a10 10 0 0 1-3 0 3 3 0 0 1-1 0l-1-1V71l2-1 3-1 4-1Zm0 16c3 0 4-2 4-5l-1-4-3-1h-2v9l1 1h1Zm24-16a11 11 0 0 1 6 2l3-1 4-1 3 1 3 1 1 2 1 4v13h-3a10 10 0 0 1-2 0 3 3 0 0 1-1 0 3 3 0 0 1-1-1V76l-1-2h-3l-1 1v14a11 11 0 0 1-3 0h-1a3 3 0 0 1-2 0 3 3 0 0 1 0-1l-1-2V74h-3a7 7 0 0 0-1 0v15h-2a13 13 0 0 1-1 0h-2a3 3 0 0 1-1 0 3 3 0 0 1-1-1V72l1-1 4-2a15 15 0 0 1 4-1Z" fill="#4E4E4E"/>
  </g>
</svg>
