<svg xmlns="http://www.w3.org/2000/svg" aria-label="Pocket" height="512" role="img" viewBox="0 0 512 512" width="512"><rect height="512" rx="15%" width="512" fill="#e84352"/><path d="M388.754 88.862H123.247C97.152 88.862 76 110.185 76 136.472V268.37c0 2.447.184 4.852.545 7.203a101.85 101.85 0 0 0-.545 10.65C76 361.827 156.584 423.139 256 423.139c99.413 0 180-61.312 180-136.915 0-3.588-.192-7.14-.545-10.651.353-2.35.546-4.756.546-7.203V136.474c0-26.296-21.175-47.612-47.246-47.612zm-22.372 132.596l-92.97 92.96c-4.723 4.723-10.928 7.05-17.12 6.996a23.818 23.818 0 0 1-17.721-6.996l-92.949-92.96c-9.34-9.335-9.316-24.478 0-33.796 9.329-9.338 24.444-9.352 33.797 0L256 264.248l76.586-76.586c9.31-9.338 24.48-9.314 33.796 0 9.34 9.333 9.34 24.447 0 33.796z" fill="#fff"/></svg>