<svg xmlns="http://www.w3.org/2000/svg" aria-label="Prometheus" role="img" viewBox="0 0 512 512">
  <path d="M0 0h512v512H0z" fill="#fff"/>
  <circle cx="256" cy="256" r="224" fill="#e6522c"/>
  <path fill="#fff" d="M256 120c-22 31-5 77 2 111 6-28 4-59 19-78-4 20 9 42 16 60 4 11 7 24 5 36-1 12-6 23-14 32 15-3 26-6 26-6s-3 12-15 25H217c-12-14-15-25-15-25s11 3 26 6c-8-9-13-20-14-32-1-12 1-25 5-36 7-18 20-40 16-60 15 19 13 50 19 78 7-34 24-80 2-111zM180 334h152v28H180zM200 382h112c0 25-25 46-56 46s-56-21-56-46z"/>
</svg>