<svg xmlns="http://www.w3.org/2000/svg"
 aria-label="Prometheus" viewBox="0 0 115.333 114"><path fill="#e52" d="M56.667.667C25.372.667 0 26.036 0 57.332c0 31.295 25.372 56.666 56.667 56.666 31.295 0 56.666-25.371 56.666-56.666 0-31.296-25.372-56.665-56.666-56.665zm0 106.055c-8.904 0-16.123-5.948-16.123-13.283H72.79c0 7.334-7.219 13.283-16.123 13.283zm26.63-17.682H30.034v-9.658h53.264v9.658zM83.106 74.411H30.186c-.176-.203-.356-.403-.526-.609-5.452-6.62-6.736-10.076-7.983-13.598-.021-.116 6.611 1.355 11.314 2.413 0 0 2.42.56 5.958 1.205-3.397-3.982-5.414-9.044-5.414-14.218 0-11.359 8.712-21.285 5.569-29.308 3.059.249 6.331 6.456 6.552 16.161 3.252-4.494 4.613-12.701 4.613-17.733 0-5.21 3.433-11.262 6.867-11.469-3.061 5.045.793 9.37 4.219 20.099 1.285 4.03 1.121 10.812 2.113 15.113C63.797 33.534 65.333 20.5 71 16c-2.5 5.667.37 12.758 2.333 16.167 3.167 5.5 5.087 9.667 5.087 17.548 0 5.284-1.951 10.259-5.242 14.148 3.742-.702 6.326-1.335 6.326-1.335l12.152-2.371s-1.765 7.261-8.55 14.254z"/></svg>