<svg xmlns="http://www.w3.org/2000/svg"
aria-label="Proton Drive" role="img"
viewBox="0 0 512 512"><path
d="m0 0H512V512H0"
fill="#fff"/><path fill="url(#a)" d="m343 175h-229v169a29 29 0 0 0 29 29h200"/><path fill="url(#b)" d="M248 165h120c16 0 29 14 29 29V344c0 16-13 29-29 29h-31V222a23 23 0 0 0-23-23l-111 1a23 23 0 0 1-13-4l-25-17a23 23 0 0 0-13-4h-38v-4a29 29 0 0 1 29-29h55c6 0 11 2 15 5l18 13c5 3 10 5 15 5"/><defs><radialGradient id="a" cx="0" cy="0" r="1" gradientTransform="matrix(527 0 0 480 420 -18)" gradientUnits="userSpaceOnUse"><stop offset=".56" stop-color="#6d4aff"/><stop offset="1" stop-color="#ff50c3"/></radialGradient><linearGradient id="b" x1="648" x2="1785" y1="266" y2="1526" gradientTransform="translate(-89 -61)scale(.31)" gradientUnits="userSpaceOnUse"><stop offset="" stop-color="#7341ff"/><stop offset=".36" stop-color="#b487ff"/><stop offset="1" stop-color="#ffc8ff"/></linearGradient></defs></svg>