<svg xmlns="http://www.w3.org/2000/svg"
aria-label="Proton Mail" role="img"
viewBox="0 0 512 512"><path
d="m0 0H512V512H0"
fill="#fff"/><linearGradient id="a" x1=".8" y1="1"><stop offset="0" stop-color="#d8cbff"/><stop offset="1" stop-color="#9d7aff"/></linearGradient><radialGradient id="b" cx="1.4" cy="0" r="1.6"><stop offset=".6" stop-color="#6d4aff"/><stop offset="1" stop-color="#aa8eff"/></radialGradient><path fill="url(#a)" d="M332 395h60a36 36 0 0036-36V124c0-8-8-10-12-7L279 232c-16 13-35 10-48-2L99 119c-7-7-15-2-15 5v60"/><path fill="url(#b)" d="M84 183v176a36 36 0 0036 36h235V168l-50 42-74 66s-17 13-36 0"/></svg>