<svg xmlns="http://www.w3.org/2000/svg" aria-label="proxmox" role="img" viewBox="0 0 512 512"><rect fill="#fff" height="512" rx="15%" width="512"/><path d="m379 364c-14-2-26-10-34-21-27-29-53-58-79-87 28-32 57-63 86-94 17-16 46-18 65-4 4 3 9 6 3 9-27 30-54 59-81 89l84 93c-12 11-28 17-44 15zm-261 0c-11-2-21-7-29-15l84-93-84-93c16-16 43-20 62-8 12 7 20 19 30 29 22 24 44 47 65 72-29 32-58 64-87 95-11 10-27 15-42 12z" fill="#e46f00"/><path d="m173 400c-10-2-20-6-28-14 37-40 73-81 110-121 37 40 74 81 110 121-17 18-49 19-66 0l-45-48c-16 17-31 35-47 51-10 8-23 12-35 11zm28-214c-18-20-37-40-55-61 17-18 49-19 66 0l45 48c16-17 31-35 47-51 18-16 47-14 63 3-37 40-73 81-110 121-19-20-37-40-55-60z"/></svg>