<svg xmlns="http://www.w3.org/2000/svg"
aria-label="Python" role="img"
viewBox="0 0 512 512"><rect
width="512" height="512"
rx="15%"
fill="#FFF"/><path fill="#5a9fd4" d="M254 64c-16 0-31 1-44 4-39 7-46 21-46 47v35h92v12H130c-27 0-50 16-58 46-8 35-8 57 0 93 7 28 23 47 49 47h32v-42c0-30 26-57 57-57h91c26 0 46-21 46-46v-88c0-24-21-43-46-47-15-3-32-4-47-4zm-50 28c10 0 17 8 17 18 0 9-7 17-17 17-9 0-17-8-17-17 0-10 8-18 17-18z"/><path fill="#ffd43b" d="M359 162v41c0 31-27 58-58 58h-91c-25 0-46 21-46 46v87c0 25 22 40 46 47 29 9 57 10 91 0 23-7 46-20 46-47v-34h-91v-12h137c27 0 37-19 46-47s9-56 0-93c-7-26-19-46-46-46zm-52 221c10 0 17 8 17 17 0 10-7 18-17 18-9 0-17-8-17-18 0-9 8-17 17-17z"/></svg>