<svg xmlns="http://www.w3.org/2000/svg"
aria-label="quora" role="img"
viewBox="0 0 512 512" ><rect
width="512" height="512"
rx="15%" 
fill="#b92b27"/><path d="m456 382.1h-25c-1.3 12-9.1 26.5-28.3 26.5-18 0-30.3-12.2-42.6-31 38-29.5 64.3-75 64.3-131.3 0-101-83.2-169-170.4-169-86 0.5-170 68.9-170 169.4 0 99.3 84 168.3 170 168.3 15 0 30-2.1 44-6 17 29 39.3 53.5 81.7 53.5 69.8-0.2 77.6-64.8 76.3-80.4zm-123.4-49.3c-16.6-25.1-37.5-44.7-78.3-44.7-26.2 0-46.6 8.6-59.2 19.4l10.4 20.7c5.3-2.4 11.2-3.4 17-3.4 30.5 0 46.1 26.5 59.4 52.7-8.5 2.5-17.8 3.6-28 3.6-64.4 0-92.2-45.5-92.2-134.5 0-89.5 27.8-135.4 92.2-135.4 65.4 0 93.3 46 93.3 135.4-0.2 35.9-4.8 64.8-14.6 86.2z" fill="#fff" stroke-miterlimit="10"/></svg>
