<svg xmlns="http://www.w3.org/2000/svg"
aria-label="quora" role="img"
viewBox="0 0 512 512">
<rect width="512" height="512" fill="#b92b27" rx="15%"/>
<path d="M 455.84 382.12 h -25.07 c -1.29 11.67 -9.06 26.54 -28.32 26.54 c -17.64 0 -30.31 -12.24 -42.61 -30.7 c 38.08 -29.5 64.29 -75.13 64.29 -131.29 c 0 -100.96 -83.17 -169 -170.38 -168.93 C 168 77.76 84 146.21 84 246.69 C 84 346 168 415 253.75 414.66 c 14.88 0 30 -2.08 44 -5.9 c 16.83 28.85 39.3 53.5 81.71 53.45 C 449.53 462.24 457.31 397.7 455.9 382.12 z M 332.55 332.83 c -16.61 -25.074 -37.54 -44.71 -78.31 -44.71 c -26.21 0 -46.60 8.58 -59.22 19.42 l 10.35 20.72 c 5.34 -2.43 11.16 -3.40 16.98 -3.40 c 30.5 0 46.11 26.48 59.43 52.70 c -8.52 2.5 -17.79 3.61 -28.032 3.61 c -64.4 0 -92.24 -45.47 -92.24 -134.47 c 0 -89.47 27.83 -135.42 92.24 -135.42 c 65.4 0 93.34 46 93.34 135.42 C 347 282.52 342.40 311.43 332.55 332.83z"
style="stroke-width:1;stroke-linecap:butt;stroke-linejoin:miter;stroke-miterlimit:10;fill:#fff;fill-rule:nonzero;opacity:1;"/>
</svg>