<svg xmlns="http://www.w3.org/2000/svg"
aria-label="quora" role="img"
viewBox="0 0 512 512"><rect
width="512" height="512"
rx="15%"
fill="#b92b27"/><path d="M 456 382.1 h -25 c -1.29 12 -9.06 26.5 -28.3 26.5 c -18 0 -30.3 -12.24 -42.6 -31 c 38 -29.5 64.3 -75 64.3 -131.3 c 0 -101 -83.2 -169 -170.4 -169 C 168 77.8 84 146.2 84 246.7 C 84 346 168 415 254 415 c 15 0 30 -2.1 44 -6 c 17 29 39.3 53.5 81.7 53.5 C 449.5 462.3 457.3 397.7 456 382.1 z M 332.6 332.8 c -16.6 -25.1 -37.5 -44.7 -78.3 -44.7 c -26.2 0 -46.6 8.6 -59.2 19.4 l 10.4 20.7 c 5.3 -2.4 11.2 -3.4 17 -3.4 c 30.5 0 46.1 26.5 59.4 52.7 c -8.5 2.5 -17.8 3.6 -28 3.6 c -64.4 0 -92.2 -45.5 -92.2 -134.5 c 0 -89.5 27.8 -135.4 92.2 -135.4 c 65.4 0 93.3 46 93.3 135.4 C 347 282.5 342.4 311.4 332.6 332.8z" style="stroke-width:1;stroke-linecap:butt;stroke-linejoin:miter;stroke-miterlimit:10;fill:#fff;fill-rule:nonzero;opacity:1;"/></svg>
