<svg
xmlns="http://www.w3.org/2000/svg"
aria-label="RedHat" role="img"
viewBox="0 0 512 512">
<circle cx="256" cy="256" r="250" fill="#000"/>
<path fill="#c00" d="M378.3 256a35.4 35.4 0 0 1-19.6 24.3c-2.4 1.5-2.8-.4-1.9-1.9 10.4-18 10.9-28.3 6.7-44-8.6-30.6-26.3-71.7-39.2-85-13-13-35.4-16.8-56-11.6-7.6 2-22.4 9.6-49.7 3.4-47.8-10.5-54.5 13.4-57.4 23.9l-9.6 39.7c-1.9 12-4.7 33 69 46.8 34.3 6.7 36.3 15.4 37.7 22 2.9 11 7.2 17.7 12 21 4.7 3.4 0 6.3-5.3 6.8-31.4-4.3-143.6-29-121.4-75.1-39.8-4.3-69.4 3.8-74.7 22.5-9.6 32 70.8 87 161.7 114.8 95.6 28.6 193.6 8.6 204.6-51.2 4.8-27.8-18.1-47.8-56.9-56.4zM198 207c-11.6 5.5-27.4-20.7-24.8-27.7 9-13.9 16.6 4.5 26.7 4.8 9.1-.7 44.5-4.7 45.5 6.2-8.8 13.6-33.2 2.9-47.4 16.7zm61.7-53c-.8-.7-1-1-1-2 13.9-6.6 56.1-9 57.1 7.3-5.6 12.5-29.2 13.2-39.8 9.6-1.3-.6-1-1 .1-1.9 27-7.6-5.2-17-16.4-13z"/>
</svg>
