<svg xmlns="http://www.w3.org/2000/svg"
aria-label="Redis" role="img"
viewBox="0 0 512 512"><g transform="translate(82,68) scale(0.72)"><path
d="M485 281c-36 45-76 98-154 98-70 0-95-63-95-111 13 33 43 58 90 57 89 0 147-81 147-150 0-83-61-144-173-144-81 0-179 28-244 77 0 48 27 113 36 107 59-42 101-68 142-81-62 73-213 235-233 265 4 27 36 96 52 96l12-6 118-141c6 64 35 141 127 141 81 0 162-56 197-186 3-17-17-29-25-17zm-93-103c0 42-39 61-77 61-19 0-33-6-45-13l67-103c42 6 55 28 55 42z"
fill="#ff4438"/></g></svg>