<svg xmlns="http://www.w3.org/2000/svg" xmlns:xlink="http://www.w3.org/1999/xlink"
aria-label="Redis"
viewBox="0 0 512 512"><rect width="512" height="512"
fill="#fff"
rx="15%"/><use transform="translate(0 124)" xlink:href="#a"/><use transform="translate(0 124)" xlink:href="#b"/><use transform="translate(0 62)" xlink:href="#a"/><use transform="translate(0 62)" xlink:href="#b"/><path id="a" fill="#a32422" d="M430 220l-148 65c-23 11-34 11-52 3l-150-63c-11-5-15.5-9-15.5-13v-39l381-5.5V207c0 4-4.5 8-15.5 13"/><path id="b" fill="#dc382c" d="M430 181l-148 65c-24 11-33 11-52 3l-150-63c-20-9-20-17-1-24l155-60c24-9 31-9 52-1l144 56c20 7 20 15 0 24"/><path fill="#741113" d="M344 189v-41l52 21z"/><path fill="#ac2724" d="M344 189l-6 2-52-19.9 58-23z"/><path fill="#fff" d="M253 145l-38-3 28-10-9-16 27 10 25-8-7 16 26 10-33 3-7 18zm37 46-27 39-62-26zm-112-37a47 18 0 000 36 47 18 0 000-36z"/></svg>
