<svg xmlns="http://www.w3.org/2000/svg"
aria-label="Replit" role="img"
viewBox="0 0 512 512"><path
d="M0 0h512v512H0z"
fill="#fff"/><path fill="#F5640C" d="M256 205.3H146.8c-10.8 0-19.6-8.8-19.6-19.6v-65.2c0-10.8 8.8-19.6 19.6-19.6h90c10.8 0 19.6 8.8 19.6 19.6v104.8z"/><path fill="#F5640C" d="M365.2 307.7H256V205.3h109.2c10.8 0 19.6 8.8 19.6 19.6v65.2c0 10.8-8.8 17.6-19.6 17.6z"/><path fill="#F5640C" d="M236.4 410.1h-89.6c-10.8 0-19.6-8.8-19.6-19.6v-65.2c0-10.8 8.8-19.6 19.6-19.6h109.2v85.2c0 10.8-8.8 19.6-19.6 19.6z"/></svg>