<svg xmlns="http://www.w3.org/2000/svg"
aria-label="Resarch Gate" role="img"
viewBox="0 0 4000 4000"><rect
width="4000" height="4000"
rx="15%"
fill="#00d0af"/><path
fill="#fff"
d="M2118 2995 c-116 -29 -181 -77 -279 -206 -70 -92 -207 -302 -273 -416 l-48 -83 -94 0 -95 0 3 263 c4 337 1 329 148 351 l75 11 3 35 3 35 -311 0 -311 0 3 -35 c3 -34 4 -34 67 -47 81 -16 107 -40 121 -108 7 -35 10 -239 8 -616 -3 -547 -4 -565 -23 -599 -21 -36 -53 -51 -137 -65 -35 -5 -38 -9 -38 -39 l0 -33 338 -6 c430 -8 509 2 630 84 114 75 169 191 160 338 -10 165 -133 331 -287 387 -28 10 -51 22 -51 26 0 18 129 215 218 334 121 161 212 253 284 287 31 15 68 27 82 27 23 0 26 4 26 34 0 23 -6 36 -17 41 -37 14 -150 14 -205 0z m-442 -849 c113 -51 173 -141 182 -272 6 -101 -16 -172 -75 -235 -73 -79 -197 -110 -373 -94 l-80 7 0 308 c0 285 1 309 18 314 9 2 73 4 142 2 112 -2 131 -5 186 -30z"
/><path
fill="#fff"
d="M2505 1780 c-195 -28 -264 -156 -252 -475 5 -164 26 -234 86 -294 54 -54 103 -74 197 -79 100 -5 163 13 223 64 38 33 71 80 71 102 0 5 -21 19 -47 31 l-48 21 -20 -27 c-36 -49 -67 -73 -108 -84 -79 -21 -157 13 -199 86 -22 38 -23 50 -23 230 0 173 2 194 21 230 30 58 92 88 166 82 100 -9 157 -75 158 -184 l0 -52 -77 -3 -78 -3 0 -50 0 -50 140 0 140 0 -1 115 c-1 93 -5 126 -23 172 -47 121 -177 188 -326 168z"
/></svg>
