<svg xmlns="http://www.w3.org/2000/svg" aria-label="Rockstar Logo" role="img" viewBox="0 0 512 512">
  <rect width="512" height="512" fill="#fff"/>
  <circle cx="256" cy="256" r="210" fill="#fcaf17"/>
  <path d="M328 306 321 262 295 306H290C287 301 286 293 286 289 286 281 286 274 287 264 287 251 283 244 273 242V241C294 238 304 224 304 204 304 176 285 170 261 170H195L167 303H202L212 255H235C248 255 253 261 253 273 253 282 252 289 252 296 252 299 253 304 254 307L279 334 257 381 304 353 339 380 332 336 372 308ZM245 229H217L224 197H250C259 197 269 199 269 211 269 225 258 229 245 229" fill="#fff"/>
</svg>