<svg xmlns="http://www.w3.org/2000/svg"
aria-label="Rockstar Games" role="img"
viewBox="0 0 512 512"><path 
d="m0 0H512V512H0"
fill="#fff"/><g transform="translate(55 65) scale(1.15)"><path fill="orange" d="M72 11h209c34 0 61 26 61 58v196c0 32-27 58-61 58H72c-34 0-62-26-62-58V69c0-32 28-58 62-58z"/><path d="M281 327H72c-36 0-65-28-65-62V69C7 35 36 7 72 7h209c36 0 65 28 65 62v196c0 34-29 62-65 62zM72 15c-32 0-58 24-58 54v196c0 30 26 54 58 54h209c31 0 57-24 57-54V69c0-30-26-54-57-54H72zm55 49h63c14 0 23 2 30 6 8 6 12 15 12 28 0 21-10 33-30 36 9 2 13 9 13 22v24c0 6 1 12 4 16h-35l-2-10 1-22c0-12-6-18-17-18h-22l-10 47h-33l26-129zm54 27h-25l-7 31h27c15 0 23-6 23-18 0-9-6-13-18-13z"/><path d="m223 196 25-43 7 44h43l-39 27 6 43-33-26-44 27 20-46-24-26h39zm114 114a8 8 0 0 1 8 9l-1 4a8 8 0 0 1-3 3 8 8 0 0 1-8 0 8 8 0 0 1-3-3 9 9 0 0 1 0-9l3-3 4-1zm0 2-3 1a6 6 0 0 0-3 2l-1 4a7 7 0 0 0 1 3 7 7 0 0 0 3 3 7 7 0 0 0 6 0 6 6 0 0 0 3-3 7 7 0 0 0 0-7 6 6 0 0 0-3-2l-3-1zm-4 11v-9h6a2 2 0 0 1 1 1v2a2 2 0 0 1 0 1l-2 1v1l2 2 1 1h-2l-1-1-1-2-1-1h-1v4h-2zm2-5h3a1 1 0 0 0 1-1 1 1 0 0 0 0-1 1 1 0 0 0-1 0l-2-1h-1v3z"/><path fill="#fff" d="m253 221 25-18h-28l-5-32-18 32h-28l17 18-14 31 31-18 24 19-4-32z"/></g></svg>
