<svg xmlns="http://www.w3.org/2000/svg"
aria-label="Rockstar Games" role="img"
viewBox="0 0 512 512">
d="m0 0H512V512H0"
fill="#fff"<g transform="translate(55 65) scale(1.15)"><path fill="orange" d="M71.6 11.3h209.1c33.9 0 61.3 25.7 61.3 57.5v196.5c0 31.9-27.4 57.6-61.3 57.6H71.6c-33.8 0-61.3-25.7-61.3-57.6V68.8c0-31.8 27.5-57.5 61.3-57.5z"/><path d="M280.7 326.7H71.6c-35.9 0-65-27.5-65-61.4V68.8c0-33.8 29.1-61.3 65-61.3h209.1c35.9 0 65 27.5 65 61.3v196.5c0 33.9-29.1 61.4-65 61.4zM71.6 15c-31.7 0-57.5 24.2-57.5 53.8v196.5c0 29.7 25.8 53.8 57.5 53.8h209.1c31.7 0 57.5-24 57.5-53.8V68.8c0-29.6-25.8-53.8-57.5-53.8H71.6z"/><path d="m127.4 64 63 .2c13.2-.1 23 2 29.5 6.3 8 5.2 11.9 14.3 11.9 27.2 0 21.2-9.9 33.2-29.5 36v.3c8.7 2.1 13 9.3 13.1 21.5 0 6.3-.2 14.3-.7 24 0 6.6 1.4 12.2 4.2 17h-34.5c-1.6-1.8-2.4-5.3-2.4-10.7.6-9 1-16.3 1-22 0-11.7-5.6-17.5-16.8-17.5H144l-9.8 47h-33.6l27-129.3zm53.3 27h-24.8l-6.4 31.1h26.7c15 0 22.5-5.9 22.6-17.7 0-9-6-13.4-18.1-13.4z"/><path d="m223.5 196.3 24.9-43.1 6.7 43.4h42.5l-38.4 27.6 6.2 43.2-33.2-26-44.7 27 21-46-24.4-26.2 39.4.1zm113.5 114a8.3 8.3 0 0 1 8.2 8.3c0 1.5-.3 2.9-1 4.2a7.7 7.7 0 0 1-3 3.1 8.2 8.2 0 0 1-8.3 0 7.8 7.8 0 0 1-3-3 8.6 8.6 0 0 1 0-8.5 8.3 8.3 0 0 1 7.1-4.2zm0 1.3c-1.1 0-2.3.3-3.3 1a6.5 6.5 0 0 0-2.6 2.5 7.2 7.2 0 0 0 0 7 6.5 6.5 0 0 0 2.5 2.6 6.8 6.8 0 0 0 6.8 0 6.5 6.5 0 0 0 2.6-2.6 7.2 7.2 0 0 0 0-7 6.4 6.4 0 0 0-2.6-2.6c-1.1-.6-2.2-.9-3.4-.9zm-3.6 11.7v-9h3c1.1 0 1.8 0 2.3.2.5.2.8.5 1.1.9.3.4.4.8.4 1.3 0 .7-.2 1.2-.7 1.7-.4.5-1 .8-1.8.8l.8.5 1.3 1.8 1 1.8h-1.7l-.8-1.4a7.3 7.3 0 0 0-1.5-2.1c-.2-.3-.6-.4-1.1-.4h-.9v3.9h-1.4zm1.4-5.1h1.8c.8 0 1.4-.1 1.7-.4.3-.2.4-.6.4-1a1.2 1.2 0 0 0-.2-.7 1.3 1.3 0 0 0-.6-.5l-1.4-.1h-1.7v2.7z"/><path fill="#FFF" d="m252.5 221 25.5-18h-28.2l-4.9-31.5-17.9 31.1h-28.4l17.3 18.6-14.3 31.2 31-18.7 24.5 19.2-4.6-31.8z"/></g></svg>



