<svg xmlns="http://www.w3.org/2000/svg"
aria-label="Roundcube" role="img"
viewBox="0 0 512 512"><rect
width="512" height="512"
rx="15%"
fill="#fff"/><g fill-rule="evenodd"><path d="M255.997 107.626L448 218.68v118.523l-192.003-111.05z" fill="#37beff"/><path d="M255.997 107.626L64 218.68v118.523l191.997-111.05z" fill="#404f54"/><path d="M255.997 63.74c73.34 0 132.815 59.556 132.815 132.994S329.336 329.73 255.997 329.73 123.18 270.173 123.18 196.735 182.657 63.74 255.997 63.74" fill="#ccc"/><path d="M255.997 63.74c73.366 0 132.862 59.556 132.862 132.994S329.363 329.73 255.997 329.73c-42.112-28.38-59.536-85.557-59.536-132.92S213.885 92.175 255.997 63.74" fill="#e5e5e5"/><path d="M255.997 448.26L448 337.204V218.68L255.997 329.73z" fill="#37beff"/><path d="M255.997 448.26L64 337.204V218.68l191.997 111.05z" fill="#404f54"/></g></svg>