<svg xmlns="http://www.w3.org/2000/svg" role="img" aria-label="Samsung Internet" viewBox="0 0 512 512"><rect width="512" height="512" fill="#706CF5" rx="15%"/><path fill="#FFF" d="M322.7 357c-19 12.7-42 20-66.7 20-47.5 0-88.6-27.2-108.4-67-10-5.3-19.2-10.8-27.4-16.4C136.6 353 191.2 397 256 397c38.5 0 73.3-15.5 98.8-40.6-10 1-20.7 1-32 .7zm-185.2-76c-8-5-15.5-10-22-15.2-24.3-19.2-36.8-39.4-32-56.5 4.5-17 25.4-28 56-32.4 25.2-37.7 68-62 116.5-62 74.7 0 135.8 58 140.6 131.5 24.2 19.3 36.7 39.4 32 56.5-4.6 17-25.7 28.3-56.5 32.6-8 1-17 1.8-26.4 2-31.2.5-68.5-4.3-107.4-15-39-10.5-74-25.4-100.4-41.7zM361 316.5c10-17.5 16-38 16-59.6v-1c0-67-54-121-121-121-44.5 0-83.3 24-104.4 59.5-10.6 18-16.7 39-16.7 61.3 25 16.7 63 33.3 107 45.3 45.6 12.5 88 17.4 118.6 15zm24-4c12.3-3.5 20-9.2 22.2-16.8 2-7.8-2-16.8-11-26.2v1.8c-1.7 14.5-5.5 28.4-11 41.2zM128 197l1-2c-14.4 3.5-23.5 9.5-25.8 17.8-2.2 8.3 2.5 18 12.7 28 1.3-15.4 5.4-30 12-43.7z"/></svg>
