<svg xmlns="http://www.w3.org/2000/svg"
aria-label="Samsung" role="img"
viewBox="0 0 512 512" fill="#117cad"><rect
width="512" height="512"
rx="15%"
fill="#fff"/><ellipse fill="#034ea2" cx="207" cy="296" rx="217" ry="61" transform="matrix(0.985,-0.17,0.17,0.985,0,0)"/><path fill="#fff" d="m118,232c-12 0-17 4-16 15 2 9 19 14 20 17l0 3c0 1.5-1 3-4 3-3 0-4.5-2-4.5-4l0-4-12 0c-1 12 8 16 16 16 10.5 0 16-3 16-13 1-14-18-15-20-21 0-1 0-1 0 -2 0-1 1-3 4-3 3 0 4 2 4 4l0 3 11 0 0-3c0-10-9-11-15-11zm265 11 0 24.5c1 16 29 13 29 0l0-15-13 0 0 6 4 0 0 8c-1 4-10 4-10 0 0-8 0-16 0-23 0-4 8-4 9 0l0 4 10 0 0-4.5c-1-15-29-13-29 0zm-120-11c-12 0-17 4-16 15 2 9 19 14 20 17l0 3c0 1.5-1 3-4 3-3 0-4.5-2-4.5-4l0-4-12 0c-1 12 8 16 16 16 10.5 0 16-3 16-13 1-14-18-15-20-21 0-1 0-1 0 -2 0-1 1-3 4-3 3 0 4 2 4 4l0 3 11 0 0-3c0-10-9-11-15-11zm-75 1l-1 44h11l0-40l8 40h11l7-40v40h11l-1-44h-18l-5 34l-5-34h-18zm101 0v32c-0 1 0 2 0 2 1 8 7 11 16 11 8 0 15-3 15-11 0 0 0-2 0-3v-31h-11v32c0 1 0 1 0 2 0 1-1 3-5 3-3 0-4-2-4-3 0 0 0 -1 0 -2v-32zm-139 0l-8 44h12l6-40 6 40h12 l-8-44zm182 0v44h11l0-36 11 36h16v-44h-11l0 35-10-35z"/></svg>