<svg xmlns="http://www.w3.org/2000/svg"
aria-label="Samsung" role="img"
viewBox="0 0 512 512" fill="#117cad"><rect
width="512" height="512"
rx="15%"
fill="#fff"/><path fill="#034ea2" d="M118 232c-12 0-17 4-16 15 2 9 19 14 20 17v3c0 2-1 3-4 3s-4-2-4-4v-4h-12c-1 12 8 16 16 16 10 0 16-3 16-13 1-14-18-15-20-21v-2c0-1 1-3 4-3s4 2 4 4v3h11v-3c0-10-9-11-15-11zm265 11v25c1 16 29 13 29 0v-15h-13v6h4v8c-1 4-10 4-10 0v-23c0-4 8-4 9 0v4h10v-5c-1-15-29-13-29 0zm-120-11c-12 0-17 4-16 15 2 9 19 14 20 17v3c0 2-1 3-4 3s-4-2-4-4v-4h-12c-1 12 8 16 16 16 10 0 16-3 16-13 1-14-18-15-20-21v-2c0-1 1-3 4-3s4 2 4 4v3h11v-3c0-10-9-11-15-11zm-75 1l-1 44h11v-40l8 40h11l7-40v40h11l-1-44h-18l-5 34-5-34zm101 0v34c1 8 7 11 16 11 8 0 15-3 15-11v-34h-11v34c0 1-1 3-5 3-3 0-4-2-4-3v-34zm-139 0l-8 44h12l6-40 6 40h12l-8-44zm182 0v44h11v-36l11 36h16v-44h-11v35l-10-35zm136-14a61 208 80 01-203 98 61 217 80 01-225-25 63 211 80 01204-97 61 217 80 01224 23"/></svg>