<svg xmlns="http://www.w3.org/2000/svg"
aria-label="Samsung" role="img"
viewBox="0 0 512 512" fill="#117cad"><rect
width="512" height="512"
rx="15%"
fill="#034ea2"/><path fill="#fff" d="m72,224c-16 0-23 5-22 20 3 12 25 19 27 23l0 4c0 2-1 4-5 4-4 0-6-3-6-5l0-5-16 0c-1 16 11 21 22 21 14 0 21-4 21-17 1-19-24-20-26-28 0 -1 0-1 0-3 0-1 1-4 5-4 4 0 5 3 5 5l0 4 15 0 0-4c0-13-12-15-20-15zm353,15 0,33c1,21 39,17 39,0 l 0-20-17 0 0 8 5 0 0 11c-1 5-13 5-13 0 0-11 0-21 0-31 0-5 11-5 12 0l0 5 13 0 0-6c-1-20-39-17-39 0zm-160-15c-16 0-23 5-22 20 3 12 25 19 27 23l0 4c0 2-1 4-5 4-4 0-6-3-6-5l0-5-16 0c-1 16 11 21 22 21 14 0 21-4 21-17 1-19-24-20-26-28 0 -1 0-1 0-3 0-1 1-4 5-4 4 0 5 3 5 5l0 4 15 0 0-4c0-13-12-15-20-15zm-100 1-1 59 15 0 0-53 11 53 15 0 9-53 0 53 15 0-1-59-24 0-7 45-7-45-24 0zm135 0 0 43c0 1 0 3 0 2 1 11 9 15 21 15 11 0 20-4 20-15 0 0 0-3 0,-4l0-41-15 0 0 43c0 1 0 1 0 3 0 1-1 4-7 4-4 0-5-3-5-4 0 0 0-1 0-3l0-43zm-185 0-11 59 16 0 8-53 8 53 16 0-11-59zm243 0 0 59 15 0 0-48 15 48 21 0 0-59-15 0 0 47-13-47z"/></svg>