<svg xmlns="http://www.w3.org/2000/svg" aria-label="Semaphore CI" viewBox="0 0 512 512"><defs/><rect width="512" height="512" fill="#fff" rx="15%"/><path fill="#9C3" d="M289 233a39 39 0 01-54 48l-45 45-1 7-5 25a58 58 0 0038 16l15-21h-1c11 2 22 2 33 0h-1l15 22a59 59 0 0038-16l-4-26-1 1c9-7 17-15 23-24v1l25 5a59 59 0 0017-38l-22-15v1c2-11 2-22 0-33v1l22-15a59 59 0 00-16-39l-26 5-8 1-44 44 2 5"/><path fill="#f75819" d="M268 212a39 39 0 00-48 54l-45 45-7 1-26 5a58 58 0 01-16-38l22-15v1c-2-11-2-22 0-33l-22-14a58 58 0 0116-39l26 5-1 1c7-9 15-17 23-23l-5-26a59 59 0 0138-16l15 22h-1c11-2 22-2 33 0h-1l15-22a59 59 0 0138 16l-4 25-1 9-45 44-4-2"/></svg>