<svg xmlns="http://www.w3.org/2000/svg" xmlns:xlink="http://www.w3.org/1999/xlink"
aria-label="Semaphore CI" role="img"
viewBox="0 0 512 512"><rect
width="512" height="512"
rx="15%"
fill="#fff"/><g fill="#f75819"><path id="s" d="M278.6 205.8a56.7 56.7 0 0 0-69.8 78.5l-65.4 65.4-10.2 1.5-37.8 7.3A84.3 84.3 0 0 1 72 303.2l32-21.8v1.5c-3-16-3-32 0-48l-32-20.4a84.3 84.3 0 0 1 23.3-56.7l37.8 7.3-1.5 1.4c10.2-13 21.8-24.7 33.5-33.4l-7.3-37.8A85.8 85.8 0 0 1 213.2 72l21.8 32h-1.5c16-3 32-3 48 0H280L302 72A85.8 85.8 0 0 1 357 95.3l-5.8 36.3-1.5 13.1-65.4 64-5.8-3"/></g><use xlink:href="#s" fill="#9C3" transform="rotate(180 256 256)"/></svg>