<svg xmlns="http://www.w3.org/2000/svg"
aria-label="Slackware" role="img"
viewBox="0 0 512 512"
fill="#fff"><path
fill="#000"
d="M40 254a215 215 0 110 2"
/><path d="m328.8 111.4 35.6 8q-2 6.3-4.2 13.5-2.2 7.1-4 15.4-2 8.2-2 14.7 0 11.2 4.4 37.3l-37.3 3.3-1.6-17.8q-1.7-38.5-47.5-38.5-21.7 0-37 10.6-15.2 10.6-15.2 28 0 18 15 24.4t37.3 8.4q19.7 1.6 33.8 4.2 14.2 2.6 26.7 9 12.6 6.5 20.4 19.6 7.8 13 7.8 34 0 13.6-9.3 30-9.2 16-29.8 27.6-20.5 11.5-51.6 11.5-32.6 0-61.2-14.6l-1.2 16.2-37-5.2q5.3-25.4 5.3-36.5 0-10.2-2-18.2t-7-26.3l35.7-6.5 5.2 22q4.3 18 20.7 26 16.4 8 39 8 21 0 38.2-8.8 17.3-9 17.3-28 0-11.3-5.6-16.6-5.5-5.4-15-7.3-9.5-2-30-4-17.3-2-30-4.4-12.7-2.6-27-9.5-14-7-23.8-20.8-9.6-13.8-9.6-35 0-14.4 7.3-28 7.3-13.4 18.2-22.7 12.6-10.8 29-16.3 16.3-5.6 34.7-5.6 25.8 0 54.3 14.2
M136 280h24v96H376v24H136
"/></svg>