<svg xmlns="http://www.w3.org/2000/svg" aria-label="Snapchat" role="img" viewBox="0 0 512 512"><rect width="512" height="512" fill="#fffc00" rx="15%"/><path fill="#fff" d="M200 423c-19-14-34-21-70-15-5 1-14 4-15-5-2-8-3-19-8-20-32-5-44-11-49-17-2-2-4-8 1-9 56-10 82-64 87-75 7-15-4-25-24-31-9-3-25-8-25-18 0-5 5-9 10-11 4-1 9-2 13 0 13 6 24 8 31 2-1-28-8-64 4-94 13-32 47-62 101-62s88 30 101 62c12 30 5 66 4 94 7 6 18 4 31-2 4-2 9-1 13 0 5 2 10 6 10 11 0 10-16 15-25 18-20 6-31 16-24 31 5 11 31 65 87 75 5 1 3 7 1 9-5 6-17 12-49 17-5 1-6 12-8 20-1 9-10 6-15 5-36-6-51 1-70 15-16 12-34 22-56 21-22 1-40-9-56-21z"/></svg>