<svg xmlns="http://www.w3.org/2000/svg"
aria-label="Snapchat" role="img"
viewBox="0 0 512 512"><path
d="m0 0H512V512H0"
fill="#FFFC00"/><path d="M433 335q-3-9-13-13l-2-1-5-3q-24-12-39-33l-7-12v-4l2-3 8-5 8-5q9-6 15-16 6-12 1-26-8-18-29-19l-9 1-2 1-1-26q-1-33-24-57-10-12-24-20c-35-19-77-19-112 0a93 93 0 0 0-48 77l-1 26-2-1-9-1q-20 1-29 19-5 14 1 26 6 10 15 16l8 5 10 8v4l-6 12q-16 21-39 32c-8 5-17 8-21 18q-4 14 6 24l9 7 23 9 4 2c3 2 2 5 6 10l6 7q12 6 25 6c13 0 18 1 27 4l14 7c34 24 80 24 114 0l14-7q13-4 27-4 13 0 24-6l8-8q2-6 4-9l5-2q12-3 22-9l10-7q11-11 6-24m-25 13c-15 9-25 8-33 13-7 4-3 13-8 17-6 4-24-1-46 7-19 6-31 24-65 24s-46-18-65-24c-23-8-40-3-46-7-5-4-1-13-8-17-8-5-18-4-33-13-10-5-4-8-1-10 55-26 64-67 64-70q2-6-3-11l-26-17q-13-9-9-18 3-7 11-7l4 1 23 7h1q4 0 4-4l-1-46q2-26 20-46c35-36 94-36 130-1v1q19 20 19 46v46q0 4 3 4h2l22-7 5-1q7 0 11 7 3 10-9 18l-27 17q-4 5-3 11c1 3 10 44 65 70 3 2 9 5-1 10"/></svg>