<svg xmlns="http://www.w3.org/2000/svg"
aria-label="SOGo" role="img"
viewBox="0 0 512 512"><rect
width="512" height="512"
rx="15%"
fill="#fff"/><path fill="#50bd37" d="M82 230c0-9 10-13 18-13 11 0 16 7 19 12 4 7 15 0 11-7-6-10-17-16-29-16-16 0-32 9-32 26 0 32 50 18 50 40 0 10-10 14-20 14s-18-6-23-13c-4-7-15 0-10 7 8 13 20 17 33 17 17 0 34-8 34-27 0-33-51-17-51-40zm112-24c-27 0-46 20-46 46s19 45 46 45 46-19 46-45-19-46-46-46zm0 80c-20 0-32-15-32-34 0-20 12-35 32-35s33 15 33 35c0 19-13 34-33 34zm106 26c-11.4 1.8-16-1-16-6s7-8 12-8c38 1 50-25 50-47 0-25-19-45-46-45-26 0-45 19-45 45 0 18 8 32 22 40 0 0-9 8-5 21-10.9 6.5-17.4 18.4-17 31 0 19 15 36 46 36 26 0 44-14 44-34 0-31-33.6-34.8-45-33zm-32-61c0-19 12-34 32-34s33 15 33 34-13 35-33 35-32-15-32-35zm33 115c-21 0-33-10-33-23 0-14 13-21 13-21 4 3 12.7 3.5 17 3 22.7-2.9 34 9 34 20s-11 21-31 21z"/><circle cx="400" cy="214" r="15" fill="none" stroke="#50bd37" stroke-width="10"/><circle cx="400" cy="214" r="36" fill="none" stroke="#50bd37" stroke-width="11"/></svg>