<?xml version="1.0" encoding="utf-8"?>
<svg aria-label="SQLite" role="img" viewBox="0 0 512 512" xmlns="http://www.w3.org/2000/svg">
  <rect width="512" height="512" rx="15%" fill="#fff"/>
  <defs id="defs2989">
    <linearGradient x1="-15.614694" y1="-9.1082983" x2="-6.7410073" y2="-9.1082983" id="linearGradient2995" gradientUnits="userSpaceOnUse" gradientTransform="matrix(-0.000001, 26.292189, -29.435858, -0.000001, -30.932796, 514.196543)" spreadMethod="pad">
      <stop id="stop3029" style="stop-color:#97d9f6;stop-opacity:1" offset="0"/>
      <stop id="stop3031" style="stop-color:#0f80cc;stop-opacity:1" offset="0.9202"/>
      <stop id="stop3033" style="stop-color:#0f80cc;stop-opacity:1" offset="1"/>
    </linearGradient>
  </defs>
  <path d="M 359.803 90.387 L 104.801 90.387 C 87.711 90.387 73.727 102.88 73.727 118.144 L 73.727 369.331 C 73.727 384.595 87.711 397.084 104.801 397.084 L 272.753 397.084 C 270.846 322.443 299.383 177.585 359.803 90.387 Z" id="solid-background" style="fill: rgb(15, 128, 204); fill-opacity: 1; fill-rule: nonzero; stroke: none;"/>
  <path d="M 350.539 98.485 L 104.801 98.485 C 92.666 98.485 82.79 107.303 82.79 118.144 L 82.79 351.004 C 138.445 331.925 221.975 315.463 279.732 316.211 C 291.338 262.005 325.449 155.774 350.539 98.485 Z" id="gradient-background" style="fill: url(#linearGradient2995); fill-opacity: 1; fill-rule: nonzero; stroke: none;"/>
  <path d="M 419.283 82.167 C 401.819 68.256 380.673 73.843 359.803 90.387 C 356.705 92.845 353.615 95.572 350.539 98.485 C 314.838 132.313 281.699 194.974 271.404 242.828 C 275.414 250.093 278.547 259.364 280.61 266.446 C 281.139 268.262 281.616 269.968 281.998 271.419 C 282.904 274.852 283.39 277.078 283.39 277.078 C 283.39 277.078 283.071 275.996 281.758 272.594 C 281.507 271.941 281.228 271.23 280.898 270.391 C 280.758 270.045 280.562 269.624 280.348 269.175 C 278.019 264.34 271.576 254.133 268.742 249.69 C 266.317 256.079 264.174 262.056 262.38 267.464 C 270.564 280.84 275.552 303.763 275.552 303.763 C 275.552 303.763 275.12 302.277 273.063 297.092 C 271.237 292.506 262.143 278.274 259.988 274.946 C 256.304 287.098 254.839 295.301 256.16 297.299 C 258.723 301.169 261.166 307.847 263.309 315.232 C 268.153 331.871 271.52 352.125 271.52 352.125 C 271.52 352.125 271.628 353.468 271.81 355.532 C 271.138 369.505 271.542 383.991 272.753 397.084 C 274.357 414.417 277.378 429.308 281.228 437.276 L 283.842 436.003 C 278.189 420.303 275.892 399.728 276.897 376 C 278.42 339.73 287.763 295.991 305.029 250.403 C 334.199 181.584 374.671 126.367 411.711 99.998 C 377.95 127.232 332.258 215.384 318.579 248.027 C 303.265 284.582 292.411 318.887 285.87 351.753 C 297.156 320.941 333.646 307.697 333.646 307.697 C 333.646 307.697 351.542 287.982 372.457 259.816 C 359.929 262.369 339.357 266.737 332.466 269.324 C 322.302 273.133 319.563 274.431 319.563 274.431 C 319.563 274.431 352.487 256.523 380.734 248.414 C 419.582 193.764 461.904 116.128 419.283 82.167" id="feather" style="fill: rgb(0, 59, 87); fill-opacity: 1; fill-rule: nonzero; stroke: none;"/>
</svg>