<svg xmlns="http://www.w3.org/2000/svg" fill="#fff" aria-label="Steam" role="img" viewBox="0 0 512 512"><rect width="512" height="512" fill="#2b2e34" rx="15%"/><path d="M266.4 189.5v1.4l-68.8 100c-11.1-.5-22.3 1.4-32.9 5.8-4.7 1.9-9.1 4.2-13.2 7L.4 241.4s-19.6 51.4-5 94.3l122.9 50.2c5.4 24 21.8 45 46.1 55.1 39.7 16.6 85.5-2.3 102-42 4.3-10.4 6.3-21.3 6-32.1l98.5-70.4h2.4c58.8 0 106.7-48 106.7-107s-47.9-107-106.8-107-106.8 48-106.8 107zm-16.5 202.6a60.28 60.28 0 0 1-78.7 32.5 60.39 60.39 0 0 1-31-29.5l34.8 14.4c22.6 9.4 48.5-1.3 57.9-23.9s-1.3-48.6-23.9-58l-35.9-14.9c13.9-5.3 29.6-5.5 44.4.7 14.9 6.2 26.4 17.8 32.5 32.7s6.1 31.3-.1 46.1m123.3-131.3c-39.2 0-71.2-32-71.2-71.3s31.9-71.3 71.2-71.3c39.2 0 71.2 32 71.2 71.3s-31.9 71.3-71.2 71.3m-53.3-71.5c0-29.6 23.9-53.6 53.4-53.6s53.5 24 53.5 53.6-23.9 53.5-53.5 53.5c-29.5 0-53.4-24-53.4-53.5z"/></svg>