<svg xmlns="http://www.w3.org/2000/svg" aria-label="StumbleUpon" height="512" role="img" viewBox="0 0 512 512" width="512"><rect width="512" height="512" rx="15%" fill="#ea4b24"/><path d="M362.185 397c-47.247 0-88.722-37.297-89.03-83.418v-59.193l29.462 22.58 33.48-24.013v61.603c0 10.901 14.731 20.664 25.927 20.664s21.95-9.763 21.95-20.664v-62.138H448v60.357C447.987 359.382 409.592 397 362.185 397zM256 173.783c-11.196 0-16.325 8.812-16.325 19.86V313.89c-.803 46.122-42.774 83.097-89.82 83.097-47.393 0-85.855-37.618-85.855-84.222V253.21h63.25v58.924c0 10.888 11.53 19.86 22.766 19.86 11.236 0 25.15-8.972 25.15-19.86V190.27c1.58-45.158 35.556-81.182 81.798-81.182 46.604 0 77.526 36.346 79.013 81.69v26.785l-29.275 18.427-33.292-19.097v-23.248c0-11.049-6.174-19.86-17.41-19.86z" fill="#fff"/></svg>