<svg xmlns="http://www.w3.org/2000/svg"
aria-label="StumbleUpon" role="img"
viewBox="0 0 512 512"><rect
width="512" height="512"
rx="15%"
fill="#ea4b24"/><path fill="#fff" d="M362.2 397c-47.3 0-88.7-37.3-89-83.4v-59.2l29.4 22.6 33.5-24v61.6c0 10.9 14.7 20.6 26 20.6s21.9-9.7 21.9-20.6v-62.2h64v60.4a85 85 0 0 1-85.8 84.2zM256 173.8c-11.2 0-16.3 8.8-16.3 19.8V314c-.8 46.1-42.8 83-89.8 83A85 85 0 0 1 64 312.9v-59.6h63.3v59c0 10.8 11.5 19.8 22.7 19.8 11.3 0 25.2-9 25.2-19.9V190.3C176.7 145 210.7 109 257 109c46.6 0 77.5 36.3 79 81.7v26.8L306.7 236l-33.3-19.1v-23.3c0-11-6.2-19.8-17.4-19.8z"/></svg>