<svg xmlns="http://www.w3.org/2000/svg"
aria-label="Svelte" role="img"
viewBox="0 0 512 512"><rect
width="512" height="512"
rx="15%"
fill="#fff"/><path fill="#ff3e00" d="M395 115c-35-51-106-66-157-34l-89 57a103 103 0 00-46 69 108 108 0 0010 69 103 103 0 00-15 39 109 109 0 0019 82c35 51 106 66 157 34l89-57a103 103 0 0046-69 108 108 0 00-10-69 103 103 0 0015-39 109 109 0 00-19-82"/><path fill="#fff" d="M230 402a71 71 0 01-77-28 66 66 0 01-11-50 62 62 0 012-8l2-5 5 3a115 115 0 0035 17l3 1v4a20 20 0 003 13 21 21 0 0023 9 20 20 0 006-3l89-57a19 19 0 008-12 20 20 0 00-3-15 21 21 0 00-23-9 20 20 0 00-5 3l-34 21a65 65 0 01-19 8 71 71 0 01-76-28 66 66 0 01-11-50 62 62 0 0128-41l89-57a65 65 0 0118-8 71 71 0 0177 28 66 66 0 0111 50 63 63 0 01-2 8l-2 5-5-3a115 115 0 00-35-17l-3-1v-4a20 20 0 00-3-13 21 21 0 00-23-9 20 20 0 00-6 3l-89 57a19 19 0 00-8 12 20 20 0 003 15 21 21 0 0023 9 20 20 0 005-3l34-21a65 65 0 0119-8 71 71 0 0176 28 66 66 0 0111 50 62 62 0 01-28 41l-89 57a65 65 0 01-18 8"/></svg>