<svg xmlns="http://www.w3.org/2000/svg"
aria-label="Swift" role="img"
viewBox="0 0 512 512"><path
d="M0 0h512v512H0" style="fill:#f05138"/><path fill="#fff" d="M376.158 308.524c-.006-.013-.019-.02-.025-.032.422-1.438.858-2.868 1.228-4.342 15.856-63.172-22.842-137.859-88.327-177.183 28.697 38.902 41.385 86.022 30.112 127.23-1.005 3.675-2.214 7.203-3.55 10.631-1.45-.953-3.277-2.034-5.73-3.387 0 0-65.14-40.22-135.742-111.359-1.852-1.867 37.648 56.458 82.476 103.819-21.12-11.853-79.98-54.678-117.24-88.782 4.577 7.634 10.022 14.986 16.007 22.064 31.117 39.462 71.697 88.152 120.314 125.54-34.159 20.904-82.425 22.53-130.483.02-11.886-5.571-23.06-12.292-33.404-19.929 20.342 32.539 51.672 60.612 89.804 77.001 45.474 19.543 90.695 18.218 124.375.32l-.026.04c.154-.098.35-.204.509-.302a109.003 109.003 0 0 0 4.098-2.3c16.182-8.4 48.145-16.922 65.3 16.459 4.202 8.169 13.13-35.124-19.694-75.512z" /></svg>