<svg xmlns="http://www.w3.org/2000/svg"
aria-label="Symantec" role="img"
viewBox="0 0 512 512"><rect
width="512" height="512"
rx="15%"
fill="#fff"/><path fill="#fdb511" d="M384 124v10h10v-10zm-133 55a96 96 0 1 1-1 0m1-48a144 144 0 1 0 1 0zm164-17v10h10v-10zm0-20v10h10V94z"/><path fill-rule="evenodd" d="M313 235v10c-28 27-34 50-39 71-2 13-2 21-17 23-3 0-10-3-13-8-4-7-15-34-25-50-7-14-18-26-28-38-4-5-6-9-3-13 3-5 6-4 10-3 25 11 39 28 51 52 11-27 17-41 44-74h10v-10h10v-11h10v-10h20v10h-10v-20h10v-10h51v-20h10v10h-50v-10h10v30h10v-40h30v-20h11v10h-31v60h-10v10h-10v11h-10v10h-21v-10h10v20h-10v10h-10v10z"/></svg>