<svg xmlns="http://www.w3.org/2000/svg" viewBox="0 0 512 512" xmlns:v="https://vecta.io/nano"><path d="m0 0H512V512H0" fill="#fff"/><path d="M376.494 247.501c-37.543 5.208-70.276-2.911-97.581-28.919-7.471-7.116-14.543-14.655-22.075-21.705-26.956-25.234-59.615-24.846-86.256.862l-7.087 6.703c4.31-34.431 36.704-65.941 71.014-71.518 43.603-7.088 81.042 3.504 111.344 36.593 5.385 5.881 11.235 11.392 17.27 16.611 25.058 21.672 57.019 20.637 80.884-2.514 2.813-2.729 5.175-5.922 9.067-10.43-5.824 41.03-39.448 70.839-76.581 74.318zM71.037 302.144c20.707-44.291 61.749-56.803 105.279-52.228 26.284 2.763 48.005 14.699 66.38 33.309 5.851 5.926 11.79 11.769 17.826 17.506 26.806 25.478 59.192 25.516 86.264.131 1.889-1.771 3.569-3.764 9.214-11.861-1 8.4-1.6 10-2 12-10 38-44.034 63.384-83.826 65.954-37.392 2.415-69.526-8.4-95.583-35.96-6.627-7.009-13.448-13.937-20.856-20.087-24.728-20.529-56.261-19.173-79.4 3.205C71.312 317.037 68 319 64 323c1.922-7.425 4.308-13.808 7.037-20.856z" fill="#45a8b3"/></svg>