<svg xmlns="http://www.w3.org/2000/svg"
aria-label="Tapas" role="img"
viewBox="0 0 512 512"><path
d="M0 0h512v512H0"
fill="#f6b606"/><path d="M259.09 427C158.53 426.62 95.9 396.8 91.37 290c0-82.7 24.77-108.14 24.77-108.14 0 0-17.22 4.7-21.23-5-4-9.7 11.97-22.11 11.97-22.11-19.73-36.92-6.34-52.8 29.68-72.45 36.02-19.65 63.25-22.06 80.9 16.95 0 0 17.44-6.1 22.38 1 4.94 7.08-1.55 20-1.55 20 152.27-3.04 184.34 64.64 183.7 169.75-5.37 116.45-77.28 137.23-162.9 137m-88.73-136.76c0 0-8.26.85-6.05 7.97 5.57 17.9 36.46 54.46 94.93 56.92 56.52-4.6 85.44-40.37 93.27-61.63 2.42-6.58-4.14-8-4.14-8m-34.21-28.85a1 1 0 00-.12-40.73 1 1 0 00.12 40.73m-114.14 3.88a1 1 0 00-.45-40.87 1 1 0 00.45 40.87"/></svg>