<svg xmlns="http://www.w3.org/2000/svg"
aria-label="TATA" role="img"
viewBox="0 0 512 512"><path
d="m0 0H512V512H0"
fill="#fff"/><path d="M128 303h61.6v21.4H172V376h-25.6v-51.5H128V303Zm92.8 29.5-13 43.4h-24.6l24.2-72.9h26.8l24.8 73h-25l-13.2-43.5Zm32.3-29.5h61.6v21.4H297V376h-25.7v-51.5H253V303h.1Zm92.8 29.5-13 43.4h-24.6l24.2-72.9h26.8l24.7 73h-25l-13-43.5h-.1Zm.6-154.3a66 66 0 0 0-9.1-14.8 89 89 0 0 0-34.6-25.2c-14.3-6-30.5-9.2-47-9.2a122 122 0 0 0-47.1 9.2 89.2 89.2 0 0 0-34.6 25.2 66 66 0 0 0-9.1 14.8c18.4-5 50-11.8 79.2-12.6 2.8 0 4.7 1 6 2.8 1.6 2.3 1.5 10.3 1.5 14l-.9 93h10l-.9-93c0-3.7-.1-11.7 1.4-14 1.3-1.8 3.2-2.8 6-2.8 29.3.7 60.8 7.5 79.2 12.5v.1Z" fill="#486AAE"/><path d="M350.6 191.5c-27-7-45-8.3-62.7-9.4-15.5-1-15.7 5.3-14.2 17.4l.4 2.7c3.5 23.7 7.8 47.2 12.8 70.5 37.7-9.8 65-37.2 65-69.3 0-4-.5-8-1.3-12Zm-112.5 8c1.6-12 1.4-18.4-14.1-17.4-21.2 1-42.2 4-62.7 9.4a61.3 61.3 0 0 0 13 50.8 89 89 0 0 0 34.6 25c5.2 2.3 10.6 4 16 5.5 5.2-24.3 9.6-48.7 13.2-73.3Z" fill="#486AAE"/></svg>