<svg
   xmlns="http://www.w3.org/2000/svg"
   aria-label="Teamspeak" role="img"
   viewBox="0 0 512 512">
   <rect
      width="512" height="512"
      rx="15%"
      fill="#fff"/>
  <path fill="#3077B0" d="M401 338c0-2 4-3 6-2 5 5 9 18 9 26s0 15-2 21c0 3-6 33-43 51l-23 8h-1v1h-4v1a171 171 0 01-9 1c-64 12-148-3-84-10h3l1-1h9a378 378 0 001-1h6l1-1h5l1-1h3l4-1h1l2-1 3-1h1l7-1a212 212 0 004-2 226 226 0 007-2h1a210 210 0 0012-4c16-7 33-16 47-29 10-10 19-22 26-37v-1h1v-2l1-1v-2h1v-2l1-1v-2h1v-3h1v-1zm-54-58c17-3 28 5 29 19 1 13-3 25-13 35-8 9-18 13-32 12l-19-2h-2l-4-1a793 793 0 00-5 0l-3-1h-1l-6-1c-19-5-26-19-14-30 7-7 16-12 25-16h1l1-1h1l1-1h1l3-1 4-2h2l1-1h2v-1h2v-1h2l1-1h1c7-3 15-5 22-6zm-211-15c3-18 18-26 34-18h1l1 1h1v1h2v1h2v1h1l1 1h1l1 1h1v1h1l1 1h1v1h1l1 1h1a265 265 0 016 4 179 179 0 0146 44l5 9 1 10c-2 10-9 15-18 19l-13 1h-19l-16-2c-15-1-26-7-34-19a77 77 0 01-10-58zm256-153h1l1 1v1h1c4 4 8 9 3 16l-1 1v2h1l1 1v1c16 22 27 46 32 73l2 4h1l1 1c14 7 21 18 21 33v19l-1 21c-4 20-23 33-42 29-6-1-7-6-7-11v-22-5-39a150 150 0 00-300-1v69c0 6-4 9-10 9-24 1-40-14-40-38v-16-11l1-10c2-12 8-21 19-27h1l1-1c2-1 3-3 3-5 5-26 15-50 30-71l1-1 1-1v-1-5c-3-4-1-7 1-11h1c22-25 48-43 80-53 75-23 141-7 197 48z"/>
</svg>
