<svg xmlns="http://www.w3.org/2000/svg" viewBox="0 0 1027.737 1024" width="2500" height="2491"><path fill="#d81e06" d="M514.491 1024l143.884-809.11c137.031 0 180.632 14.95 186.861 76.614 0 0 92.185-34.258 138.277-104.02C802.258 103.397 620.38 99.66 620.38 99.66L514.49 229.217 407.981 99.659s-181.879 3.738-363.134 87.825c46.092 69.762 138.277 104.02 138.277 104.02 6.229-61.665 49.207-76.613 185.616-76.613L514.49 1024z"/><path fill="#d81e06" d="M513.869 62.287c146.374-1.246 313.927 22.423 485.216 97.168 23.046-41.11 28.652-59.173 28.652-59.173C840.876 26.161 665.227.622 513.87 0 363.134.623 187.484 26.16 0 100.282c0 0 8.097 22.424 28.652 59.173C200.564 84.71 368.117 61.041 513.87 62.287z"/></svg>