<svg xmlns="http://www.w3.org/2000/svg"
aria-label="Tezos" role="img"
viewBox="0 0 512 512"><path
d="M0 0h512v512H0"
fill="#fff" /><path fill="#0D61FF" d="M431 377c-5-92-121-134-132-139l-1-1 120-120v-13q-1-3-4-4H194V6l-82 17v12h5s20 0 20 20v45H74q-3 0-3 2v29h66v154c0 48 31 81 85 77q18-2 32-11 6-5 6-12v-16c-17 12-32 12-32 12-35 0-34-44-34-44V131h159L238 246v28c105 17 134 85 134 105 0 0 11 96-85 103 0 0-63 2-74-23l1-2q16-7 17-27c0-18-11-34-35-34-19 0-35 16-35 34 0 0-9 81 126 79 154-3 144-132 144-132"/></svg>