<svg xmlns="http://www.w3.org/2000/svg"
aria-label="Tezos" role="img"
viewBox="0 0 512 512"><path
d="m0 0H512V512H0"
fill="#fff"/><path d="M467 455c-6-108-142-157-155-162l140-142v-15c0-2-2-5-4-5H189V21L94 41v14h5c23 0 23 23 23 23v52H48c-1 0-3 1-3 3v33h77v181c0 56 36 96 100 90 14-1 26-6 37-13 5-3 8-8 8-14v-18c-21 14-38 13-38 13-41 0-40-51-40-51V166h186L241 301v32l1 1c123 21 156 100 156 123 13 112-99 120-99 120-74 3-87-26-87-26 12-5 21-16 21-31 0-22-13-40-41-40s-41 18-41 40c-11 94 147 92 147 92 157-4 145-155 145-155z" fill="#0D61FF"/></svg>