<svg xmlns="http://www.w3.org/2000/svg"
aria-label="TikTok" role="img"
viewBox="0 0 512 512"><rect
width="512" height="512"
rx="15%"
fill="#fff"/><path fill="#ff004f" d="M337.8 202.6a150.8 150.8 0 0 0 88 28.2v-63.1c-6.2 0-12.4-.7-18.5-2v49.7c-32.8 0-63.1-10.4-88-28.1V316a116.7 116.7 0 0 1-181.6 97 116.7 116.7 0 0 0 200.1-81.5V202.5zm22.8-63.6a88 88 0 0 1-22.8-51.5v-8.1h-17.5a88.3 88.3 0 0 0 40.3 59.6zM178.5 363.5a53.4 53.4 0 0 1 58.7-83.1v-64.6c-6.2-.8-12.3-1.2-18.5-1V265a53.5 43.5 0 0 0-40.2 98.5z"/><path d="M319.4 187.3a150.8 150.8 0 0 0 88 28v-49.6a88.3 88.3 0 0 1-46.8-26.7 88.3 88.3 0 0 1-40.3-59.6h-46v252a53.4 53.4 0 0 1-95.8 32 53.3 53.3 0 0 1 40.2-98.4v-50.2a116.7 116.7 0 0 0-81 198.1 116.7 116.7 0 0 0 181.6-97V187.4z"/><path fill="#00f2ea" d="M407.3 165.7v-13.4a88 88 0 0 1-46.7-13.3 88.2 88.2 0 0 0 46.7 26.7zm-87-86.3a90 90 0 0 1-1-7.3V64H256v252a53.4 53.4 0 0 1-77.4 47.5 53.3 53.3 0 0 0 95.9-32.1v-252zM218.7 214.8v-14.3a116.7 116.7 0 0 0-81 212.4 116.7 116.7 0 0 1 81-198.1z"/></svg>
