<svg
    xmlns="http://www.w3.org/2000/svg"
    viewBox="0 0 512 512"
    id="vector">
    <path
        id="path"
        d="M 15 0 L 497 0 Q 512 0 512 15 L 512 497 Q 512 512 497 512 L 15 512 Q 0 512 0 497 L 0 15 Q 0 0 15 0 Z"
        fill="#ffffff"/>
    <path
        id="path_1"
        d="M 110.7 427.454 C 63.337 379.446 68.955 300.715 125.86 214.43 C 136.209 198.732 146.934 184.486 159.272 169.944 L 169.54 157.875 L 170.561 168.654 C 172.12 185.535 174.405 194.781 179.593 205.345 C 182.845 211.984 188.195 219.108 190.533 221.177 C 192.307 222.763 191.474 223.677 200.452 219.107 C 259.561 186.851 265.663 134.193 262.33 88.927 C 261.174 75.648 258.244 60.837 254.615 49.951 C 253.217 45.758 252.411 42.451 252.841 42.586 C 253.271 42.72 260.636 49.682 269.211 58.069 C 351.195 138.091 395.547 221.876 401.299 307.623 C 403.1 405.896 347.082 458.285 265.555 469.414 C 195.99 480.139 147.929 463.957 110.7 427.454 L 110.7 427.454 Z"
        fill="#fe5068"/>
</svg>
