<svg xmlns="http://www.w3.org/2000/svg"
aria-label="TuneIn" role="img"
viewBox="0 0 512 512"><rect
width="512" height="512"
rx="15%"
fill="#1c203c"/><path fill="#14d8cc" d="M408 193l-1-1h-8l-2 1v30l-1 1-11-31-2-1h-9l-2 1v53l2 2h8l1-2v-28h1l11 28 2 2h10l1-2zm-44 45l-2-1h-7l-1-1v-33h7l2-2v-8l-2-1h-25l-1 1v8l1 2h7v33l-1 1h-6l-2 1v8l2 2h26l2-2zm-72-34H63l-1 1v109l1 1h228l1-1zm155-46v123c0 4-2 6-6 6H304v34c0 3-2 6-6 6H56c-3 0-6-3-6-6V198c0-3 3-6 6-6h236v-34c0-3 3-6 6-6h143c4 0 6 3 6 6zM257 276h-19v-10-1h18l2-2v-8l-2-1h-18v-10-1h19l1-2v-8l-1-1h-29l-2 1v53l2 1h29l2-1v-8l-2-2zm-41-44h-8l-2 1v30c0 1 0 1 0 0l-11-30-2-1h-10l-1 1v53l1 1h8l2-1v-28h1l10 28 3 1h9l2-1v-53l-2-1zm-45 0h-8l-1 1v38c0 3-3 6-8 6s-8-3-8-6v-38l-1-1h-8l-2 1v38c0 9 8 17 19 17s19-8 19-17v-38l-2-1zm-44 1v8l-1 2h-10l-1 1v42l-1 1h-8l-2-1v-42l-1-1H93l-1-2v-8l1-1h33l1 1z"/></svg>