<svg xmlns="http://www.w3.org/2000/svg"
aria-label="TuneIn" role="img"
viewBox="0 0 512 512"><rect
width="512" height="512"
rx="15%"
fill="#1c203c"/><path fill="#14d8cc" d="M298 152c-6 0-6 6-6 6v34H56c-6 0-6 6-6 6v123c0 6 6 6 6 6h242c6 0 6-6 6-6v-34h137c6 0 6-6 6-6V158c0-6-6-6-6-6H298zm37 40h28v11h-9v34h10v11h-30v-11h9v-34h-8v-11zm37 0h13l12 34v-34h11v56h-12l-13-33v33h-11v-56zM62 204h230v111H62V204zm30 28v11h12v44h11v-44h12v-11H92zm43 0v39s0 17 19 17 19-17 19-17v-39h-11v39s0 6-8 6-8-6-8-6v-39h-11zm47 0v55h11v-31l11 31h14v-55h-12v31l-11-31h-13zm44 0v55h33v-11h-21v-11h20v-11h-20v-11h20v-11h-32z"/></svg>