<svg
xmlns="http://www.w3.org/2000/svg"
aria-label="..." role="img"
viewBox="0 0 512 512"><rect
width="512" height="512"
rx="15%"
fill="#fff"/>
<path d="M113.62 97.065c-17.381 0-31.455 14.09-31.455 31.451v290.461c0 1.102.063 2.212.17 3.284a1700.691 1700.691 0 0037.2-14.35c91.22-36.413 165.795-67.372 165.862-102.328 0-1.12-.077-2.25-.236-3.38-4.717-34.512-87.191-45.212-87.077-61.028.01-.84.248-1.719.754-2.598 9.907-17.352 49.15-16.521 63.602-17.748 14.465-1.255 48.411-.996 50.052-11.336.048-.32.078-.637.078-.956.039-9.608-23.345-13.374-23.345-13.374s28.375 4.24 28.298 15.277c0 .54-.066 1.1-.217 1.67-3.055 11.858-28.023 14.089-44.534 14.899-15.615.782-39.393 2.559-39.474 10.186-.01.445.067.908.226 1.381 3.727 11.152 90.88 16.522 146.64 45.462 32.088 16.637 48.046 44.583 55.366 73.455V128.512c0-17.362-14.085-31.451-31.447-31.451H113.62z" fill="#a01e20"/></svg>
