<svg xmlns="http://www.w3.org/2000/svg"
aria-label="Tutanota" role="img"
viewBox="0 0 512 512"><rect
width="512" height="512"
rx="15%"
fill="#fff"/><path d="M113 97c-17 0-31 14.09-31.455 31.451v290.461c0 1.102.063 2.212.17 3.284a1700 1700 0 0037-14c91-36 165-67 165-102 0-1.12-.077-2.25-.236-3.38-4.717-34.512-87.191-45-87-61.028.01-.84.248-1.719.754-2 9-17 49-16 63-17 14-1 48-.996 50-11.336.048-.32.078-.637.078-.956.039-9-23-13-23-13s28 4 28 15c0 .54-.066 1.1-.217 1.67-3.055 11-28 14-44 14-15.615.782-39 2-39 10.186-.01.445.067.908.226 1 3 11 90 16 146 45 32 16 48 44 55 73V128c0-17-14-31-31-31H113z" fill="#a01e20"/></svg>