<svg xmlns="http://www.w3.org/2000/svg"
aria-label="Ubiquiti" role="img"
viewBox="0 0 512 512"><rect
width="512" height="512"
rx="15%"
fill="#fff"/><rect fill="#399cdb" height="512" rx="15%" width="512"/><g fill="#fff"><path d="m393.021 272.864 6.979-22.79v-156.074c-81.652 0-90.16 31.22-90.16 61.205v171.348a146.73 146.73 0 0 1 -2.84 28.447c43.45-8.824 71.688-35.588 86.048-82.216zm-226.984-160.852h18.03v17.824h-18.03zm17.963 26.988h18v18h-18zm-18 22h18v18h-18zm-18 27h18v18h-18zm-36-94h18v18h-18z"/><path d="m148.06 223.514h18.004v39.773h18.03v-66.513h18.03v129.856c0 61.81 53.876 91.37 53.876 91.37-90.554.189-144-54.768-144-127.919v-147.081h18.003v98.358h18.03z"/><path d="m268.788 364.15c-24.12-1.08-42.477-7.228-56.788-16.18 9.702 42.309 45.935 63.1 47.677 64.097l10.72 5.933c81.765-5.393 129.603-58.597 129.603-128.034v-14.966c-19.43 63.801-64.668 92.17-131.318 89.15zm-120.788-234.15h18v18h-18z"/></g></svg>