<svg xmlns="http://www.w3.org/2000/svg"
aria-label="Unicode" role="img"
viewBox="0 0 512 512"><rect
width="512" height="512"
rx="15%"
fill="#fff"/><path fill="#bc4041" d="M343 164H394V108h6v233h-6V178h-51v56L271 108h72m-123 0v155s-3 24-26 24-26-24-26-24V108m36 233c69-15 67-73 67-73v-54l72 126M112 108h6v160s-5 58 67 73h-73"/><path fill="#adb2b5" d="M125 356v34s-0 8 8 8 7-8 7-8v-34h13l18 27v-11h13v38h-12l-19-28.5v11c0 7-5 18-19 18s-20-10-20-18v-36m58 0h13v13H171v-13m55 34a15.6 15.6 0 1 1 .5-14h13a26.6 26.6 0 0 0-27-21 27.8 27.8 0 0 0 0 55.6 27 27 0 0 0 26.7-20h-13m42-35a28 27.8 0 1 0 0 56 27.8 27.8 0 0 0 0-55.6m0 43a15 15 0 1 1 0-31 15 15 0 0 1 0 31m53-42h-23v53h23c11 0 23-8 23-26s-12-27-23-27m-2 41h-8v-29h8c9 0 13 5 13 14s-4 15-13 15m54 1c-4 0-7-1-10-4l37-18c-3-12-10-22-27-22a28 28 0 0 0 0 56c16 0 23-8 27-20h-13a15 15 0 0 1-14 8m10-27l-25 12c0-18 20-19 25-12"/></svg>
