<svg xmlns="http://www.w3.org/2000/svg" xmlns:xlink="http://www.w3.org/1999/xlink"
aria-label="Unicode" role="img"
viewBox="0 0 512 512"><rect
width="512" height="512"
rx="15%"
fill="#fff"/><path d="M343 164h51V108h6V342h-6V178H343v56L271 108h72m-124 0V264s-3 24-26 24-26-24-26-24V108m36 234c69-15 66-73 66-73V215l72 127M111 108h6V269s-5 58 67 73H111" fill="#bc4041"/><path d="M321 358H299v54h22c11 0 23-9 23-27S332 358 321 358m-2 42h-8V370h8c9 0 13 5 13 14S328 399 319 399M171 358h12v13H171Zm-46 0v35s-1 7 7 7 7-7 7-7V358h12l19 28V374h12v38H171l-19-28v11c0 7-6 18-20 18s-20-10-20-18V358m127 34c-4 14-13 20-27 20s-28-15-28-28 9-28 28-28 24 7 27 21H226c-3-6-8-9-14-9s-15 10-15 16 6 15 15 15 11-3 14-8Zm125 4 37-18c-3-23-32-28-46-14s-10 31-1 40 42 12 47-12H388C378 407 364 396 364 396m20-23-26 12C358 367 375 365 384 373M268 356c-15 0-28 13-28 28a28 28 0 1 0 56 0A28 28 0 0 0 268 356m0 44a15 15 0 0 1-15-15c0-9 8-16 15-16s15 7 15 16A15 15 0 0 1 268 400" fill="#adb2b5"/></svg>