<svg xmlns="http://www.w3.org/2000/svg"
aria-label="Unreal Engine" role="img"
viewBox="0 0 512 512">
  <path d="M0 0H512V512H0" fill="#000"/>
  <g transform="translate(16,16) scale(15.5)">
    <path fill="#fff" d="M16 0c-8.766 0-15.865 7.161-15.865 16s7.099 16 15.865 16c8.76 0 15.865-7.161 15.865-16s-7.104-16-15.87-16zM16 0.703c4.047 0 7.859 1.594 10.724 4.479 2.859 2.875 4.453 6.766 4.443 10.818 0 4.083-1.578 7.927-4.443 10.818-2.828 2.87-6.693 4.484-10.724 4.479-4.031 0.005-7.896-1.609-10.724-4.479-2.859-2.875-4.458-6.766-4.448-10.818 0-4.083 1.583-7.927 4.443-10.818 2.828-2.875 6.698-4.49 10.729-4.479zM15.203 6.333c-2.583 0.693-4.974 2.021-8.161 5.677s-2.583 6.677-2.583 6.677c0 0 0.88-2.078 2.995-4.266 1.005-1.036 1.75-1.385 2.266-1.385 0.458-0.026 0.844 0.344 0.844 0.802v7.422c0 0.734-0.474 0.896-0.911 0.885-0.37-0.005-0.714-0.135-0.714-0.135 2.172 3.156 7.37 3.599 7.37 3.599l2.281-2.438 0.052 0.047 2.089 1.781c3.823-2.271 5.667-6.479 5.667-6.479-1.708 1.802-2.792 2.224-3.438 2.224-0.573-0.005-0.797-0.339-0.797-0.339-0.031-0.156-0.083-2.417-0.104-4.677-0.021-2.339 0-4.682 0.115-4.688 0.661-1.24 2.766-3.74 2.766-3.74-3.932 0.776-6.073 3.354-6.073 3.354-0.635-0.5-1.927-0.417-1.927-0.417 0.604 0.333 1.208 1.302 1.208 2.104v7.896c0 0-1.318 1.161-2.333 1.161-0.604 0-0.974-0.328-1.177-0.599-0.078-0.104-0.146-0.219-0.198-0.344v-9.75c-0.141 0.104-0.313 0.161-0.484 0.167-0.219 0-0.443-0.109-0.594-0.427-0.115-0.24-0.188-0.599-0.188-1.125 0-1.797 2.031-2.99 2.031-2.99z"/>
  </g>
</svg>