<svg xmlns="http://www.w3.org/2000/svg"
aria-label="Unreal Engine" role="img"
viewBox="0 0 512 512"><path
d="m0 0h512v512h0"/><path
fill="#fff" d="m256 35c121.5 0 220 98.5 220 220s-98.5 220-220 220-220-98.5-220-220 98.5-220 220-220m0-35c-140.9 0-255 114.1-255 255s114.1 255 255 255 255-114.1 255-255-114.1-255-255-255zm-31.1 86.6s-64.8 18.4-123.2 80.5-65.6 106.5-65.6 139.6c12.8-22 92.4-143.5 110.9-85.6v138.2s-1.1 18.7-29.7 11.3c8.6 16 52.6 55.3 132.2 63.3 18.2-18.2 42-44.3 42-44.3l39.6 33.6s71.2-46.4 99.1-113.7c-26 17-57.6 56.9-74 28.9v-136s42.3-63.6 48.9-66.6c-16.8 3-75.9 22.6-106.9 62.9-8.8-9.6-33.2-9.9-33.2-9.9s19.3 15.9 19.6 30.6v150.9c-13.1 13.6-27.3 20.9-36.5 20.9-21.3 0-27.4-7.5-33.2-15v-137.6s-10.6 8.8-19-5.5c-8.5-14.3-22.3-44.1 14.5-76.9z"/></svg>