<svg xmlns="http://www.w3.org/2000/svg"
aria-label="Upstash" role="img"
viewBox="0 0 512 512"><path
d="M125 379c60 60 153 60 210 0 60-57 60-153 0-210l-24 24c42 45 42 117 0 159a111 111 0 0 1-159 0l-27 27Z"
fill="#00E9A3"/><path fill="#00E9A3" d="M179 328c27 27 75 27 105 0 30-30 30-78 0-108l-27 27c15 15 15 39 0 54a36 36 0 0 1-54 0l-24 27Z"/><path fill="#00E9A3" d="M389 115a150 150 0 0 0-210 0 150 150 0 0 0 0 213l24-27a114 114 0 0 1 0-159c45-45 117-45 159 0l27-27Z"/><path fill="#00E9A3" d="M335 169a75 75 0 0 0-105 0 75 75 0 0 0 0 105l27-27a38 38 0 0 1 0-54 36 36 0 0 1 54 0l24-24Z"/><path fill="#fff" fill-opacity=".8" d="M389 115a150 150 0 0 0-210 0 150 150 0 0 0 0 213l24-27a114 114 0 0 1 0-159c45-45 117-45 159 0l27-27Z"/><path fill="#fff" fill-opacity=".8" d="M335 169a75 75 0 0 0-105 0 75 75 0 0 0 0 105l27-27a38 38 0 0 1 0-54 36 36 0 0 1 54 0l24-24Z"/></svg>