<svg viewBox="0 0 512 512" xmlns="http://www.w3.org/2000/svg"><rect fill="#6fda44" height="512" rx="15%" width="512"/><path d="m357.2 296.9c-17 0-33-7.2-47.4-18.9l3.5-16.6.1-.6c3.2-17.6 13.1-47.2 43.8-47.2 23 0 41.7 18.7 41.7 41.7s-18.7 41.6-41.7 41.6zm0-125.5c-39.2 0-69.5 25.4-81.9 67.3-18.8-28.3-33.1-62.2-41.4-90.8h-42.2v109.7c0 21.7-17.6 39.3-39.3 39.3s-39.3-17.6-39.3-39.3v-109.8h-42.1v109.7c0 44.9 36.5 81.8 81.4 81.8s81.4-36.9 81.4-81.8v-18.4c8.2 17.1 18.2 34.4 30.4 49.6l-25.8 121.4h43.1l18.7-88c16.4 10.5 35.2 17.1 56.8 17.1 46.2 0 83.8-37.8 83.8-84.1.1-46.1-37.4-83.7-83.6-83.7" fill="#fff"/></svg>