<svg xmlns="http://www.w3.org/2000/svg"
aria-label="Vagrant" role="img"
viewBox="0 0 512 512"><rect
width="512" height="512"
rx="15%"
fill="#fff"/><path d="M418.025 114.293l-73.656 42.843v25.879l-58.942 127.102L256 330.457v93.044l63.14-36.395 98.886-242.13zm-206.21 46.782v-29.168l-.303-.173-43.882 25.403v25.879L226.529 315.7 256 301.159v-37.001z" fill="#1159cc"/><path d="M167.63 183.016v-25.922l44.185-25.446-73.656-43.146-44.185 25.793v31.592l99.448 241.524L256 423.501v-90.707l29.428-17.094-.346-.216 59.288-132.468v-25.879-.043l73.656-42.8-44.185-25.793-73.613 43.103h-.043v.043 29.428L256 264.158v34.448L226.529 315.7z" fill="#127eff"/></svg>