<svg xmlns="http://www.w3.org/2000/svg" aria-label="VK" role="img" viewBox="0 0 512 512"><rect width="512" height="512" fill="#4c75a3" rx="15%"/><path fill="#fff" d="M275 369c6-1 15-3 15-15 0 0-1-32 14-37 15-4 34 31 54 45 15 10 26 8 26 8l54-1s28-2 15-24c-1-2-9-16-41-45-33-31-28-26 12-80 24-33 35-53 31-61-4-7-21-6-21-6h-60c-6 0-10 1-13 7 0 0-9 26-22 47-27 46-37 48-42 45-10-6-8-26-8-40 0-47 7-64-14-68-6-1-11-2-27-2-21 0-40 0-50 5-7 4-12 11-9 12 4 1 13 2 18 8 6 9 6 27 6 27s4 52-8 59c-8 4-19-5-43-46-12-21-22-45-22-45-3-7-6-8-13-10H69c-7 0-16 1-12 14 0 0 45 105 96 158 46 48 99 45 99 45z"/></svg>