<svg xmlns="http://www.w3.org/2000/svg"
aria-label="VLC" role="img"
viewBox="0 0 512 512"><path
d="m0 0H512V512H0"
fill="#fff"/><g fill="#f7901e"><path d="M437 400a29 29 0 01-27 40H102c-16 0-29-13-29-29 0-4 0-8 2-11l36-94c3-10 13-16 23-16H378c10 0 20 6 23 16l36 94Z"/><path d="M256 183c24 0 46-2 63-6l20 65c-20 8-49 13-83 13s-63-5-83-13l19-65c18 4 40 6 64 6Zm43-74a307 307 0 01-86 0l15-51c3-11 13-18 24-18h8c11 0 21 7 24 18l15 51Z"/></g><g fill="#f2f2f2"><path d="m319 177-20-68a307 307 0 01-86 0l-21 68c18 4 40 6 64 6s46-2 63-6z"/><path d="M173 242c20 8 49 13 83 13s63-5 83-13l18 62c-19 14-55 23-101 23s-82-9-101-23l18-62Z"/></g></svg>