<svg xmlns="http://www.w3.org/2000/svg" version="1.0" width="500.000000pt" height="500.000000pt" viewBox="0 0 500.000000 500.000000" preserveAspectRatio="xMidYMid meet">
<g transform="translate(0.000000,500.000000) scale(0.100000,-0.100000)" fill="#000000" stroke="none">
<path d="M2824 3837 c-929 -929 -930 -931 -946 -924 -7 3 -65 47 -128 97 -63 50 -212 166 -330 257 -118 92 -238 186 -267 210 -28 24 -56 43 -62 43 -6 0 -11 4 -11 8 0 4 -25 25 -56 47 -31 22 -61 45 -67 50 -7 6 -49 38 -95 73 -92 71 -90 71 -181 16 -31 -19 -61 -34 -68 -34 -6 0 -13 -3 -15 -7 -3 -9 -35 -27 -124 -72 -34 -18 -73 -42 -88 -56 l-26 -24 1 -1070 c1 -977 3 -1071 18 -1083 25 -20 60 -39 100 -53 20 -7 91 -38 157 -69 83 -38 127 -54 140 -49 16 6 174 123 222 163 7 6 65 51 130 100 64 49 164 126 222 170 58 45 147 113 198 151 51 38 101 77 112 87 28 26 42 35 82 60 20 13 59 41 85 63 26 21 51 39 56 39 9 0 246 -234 1194 -1177 295 -293 542 -533 550 -533 17 0 115 32 123 40 3 3 55 25 115 49 61 24 124 49 140 57 17 7 59 25 95 39 36 14 79 32 95 39 17 7 57 24 90 36 57 22 98 39 175 73 19 8 79 32 133 53 l97 37 0 766 c0 421 0 858 1 971 0 113 0 545 0 961 l-1 756 -22 10 c-13 6 -50 21 -83 33 -33 13 -73 29 -90 36 -16 7 -54 23 -84 34 -30 12 -74 30 -97 41 -24 10 -46 19 -49 19 -4 0 -21 6 -38 14 -18 8 -63 26 -102 41 -38 14 -83 32 -100 40 -16 7 -59 23 -95 36 -36 13 -66 27 -68 31 -2 4 -11 8 -21 8 -9 0 -34 9 -56 20 -22 11 -44 20 -50 20 -5 1 -28 9 -50 20 -22 11 -49 19 -60 19 -13 0 -296 -277 -801 -782z m804 -1376 c-3 -776 -5 -866 -19 -869 -13 -2 -44 18 -110 72 -16 13 -48 37 -224 169 -121 91 -154 116 -510 392 -154 119 -284 223 -288 231 -12 21 1 36 73 91 82 62 109 84 129 106 8 9 19 17 23 17 6 0 254 187 308 232 8 7 41 33 75 57 33 24 62 47 65 50 3 3 24 19 48 34 23 15 104 75 180 134 237 183 224 174 239 162 11 -10 13 -160 11 -878z m-2740 562 c54 -54 201 -199 325 -321 125 -123 227 -228 227 -233 0 -9 -89 -107 -165 -184 -252 -251 -488 -476 -498 -472 -9 3 -12 152 -12 648 0 354 1 647 3 652 7 17 27 2 120 -90z"/>
</g>
</svg>
