<?xml version="1.0" encoding="UTF-8" standalone="no"?>
<svg
   id="Layer_1"
   width="5in"
   height="5in"
   version="1.1"
   viewBox="0 0 360 360"
   xmlns="http://www.w3.org/2000/svg" aria-label="w3c">
  <defs
     id="defs1" />
  <g
     id="g2"
     style="fill:#005a9c">
    <path
       d="M267.09907,217.5246c-4.57978-3.63798-11.26621-2.86437-14.90159,1.71883-4.50272,5.68128-8.59249,9.10095-13.2548,11.09133-8.59848,3.66165-15.887,2.11411-22.9334-4.87242-6.90489-6.84502-13.63254-14.30405-20.15969-21.53308-3.19277-3.53761-6.39122-7.08111-9.63119-10.58337-5.53565-5.98261-11.10063-11.94175-16.66004-17.90678l-.49002-.52574c-12.09214-12.95156-24.59156-26.34627-36.64837-39.8-9.56044-10.67206-24.33198-15.95796-38.54296-13.81997-14.52385,2.17344-26.26789,11.47534-33.07228,26.18698-6.55649,14.16832-4.33756,30.2679,5.78345,42.01469,17.80504,20.66498,32.82459,37.7507,50.41684,53.82092,7.19411,6.56726,15.89898,10.06353,25.1701,10.11076,6.01379.02967,15.07843-.64947,24.3262-6.88037,4.04855-2.72833,7.81955-5.53388,9.47791-9.81565,1.6879-4.38203.11207-9.41974-3.84186-12.26054-3.83608-2.76399-8.87003-2.56925-12.52896.4724-.46048.38371-.96217.82685-1.51076,1.30535-5.74812,5.03771-12.90102,11.30964-27.48375.83243-13.36088-9.60301-23.70613-22.18855-35.69229-36.76425-3.90683-4.74858-7.94939-9.66225-12.26928-14.68238-4.61511-5.3565-5.6125-12.72704-2.60266-19.24138,2.62631-5.6696,7.6956-12.72136,16.97291-14.10909,7.02854-1.05737,14.90717,1.75376,19.6108,6.99852,12.15721,13.57178,24.75104,27.07265,36.9317,40.11879,5.70691,6.11275,11.41351,12.23118,17.09087,18.3676,3.1811,3.43734,6.32067,6.91562,9.50745,10.44744,6.69242,7.4121,13.60888,15.07208,20.91507,22.31869,13.18993,13.08139,29.5843,16.39469,46.18546,9.32536,7.97304-3.40778,14.82474-8.94166,21.55238-17.42839,3.62928-4.57699,2.86223-11.26271-1.71724-14.90669Z"
       id="path1" />
    <path
       d="M283.69341,158.56819c6.85759-3.25427,12.25172-9.37881,12.76509-16.80848,1.30427-12.89833-9.30675-25.24177-24.91641-27.14955-9.58399-1.21645-18.47768,1.62435-24.78038,6.85112-3.36971,2.80524-4.27868,7.99665-1.35747,11.65831,3.19267,3.80926,6.87525,4.47641,12.90092,1.16353,2.15985-1.22844,5.40581-2.25025,8.97622-2.00237,6.73364.46682,8.66334,6.53801,8.47453,9.29601-.02964.40759.01188,9.80965-9.47192,9.15418l-3.5764-.24788c-3.98347-.27186-7.96715,3.45491-8.26205,7.7188-.31886,4.53605,2.99796,8.49872,7.12294,8.78826l4.39664.30111c12.09844.83874,10.83538,11.11489,10.58169,12.75692-.23602,4.7247-7.81376,12.73893-21.32824,3.62599-4.58557-3.08868-37.29188-44.19992-37.29188-44.19992-15.49728-20.05056-41.83004-23.58238-62.60938-8.39225-2.2838,1.67128-3.78887,4.13405-4.22549,6.9396-.43083,2.79924.2478,5.60469,1.91804,7.89018,1.67003,2.2855,4.13108,3.79169,6.92844,4.22863,2.81482.43715,5.6063-.24798,7.8903-1.91947,14.17544-10.36474,26.81059-4.18739,33.3081,4.22285,0,0,35.11437,45.19805,44.15546,49.98767,5.86619,3.10666,11.99205,4.90198,18.218,5.33324,19.10931,1.32282,30.74696-9.21342,33.88685-23.6474,2.05934-9.4613-4.05454-21.28489-13.7036-25.54908Z"
       id="path2" />
  </g>
  <g
     id="g36"
     aria-label="WORLD WIDE WEB CONSORTIUM"
     style="fill:#002a56">
    <path
       d="M334.16403,146.54462l13.9844,1.51738c.18018.01664.38253.03329.60151.05548.22175.02219.45183.03606.69021.04161-.21898.09154-.42965.18586-.62923.28295-.19958.09154-.37975.18586-.53776.28017l-12.48479,6.444.67635,3.56736,21.01125,2.1443-.58488-3.08746c-.05821-.32178-.20235-.58254-.41856-.78227-.22175-.2025-.45183-.31624-.69576-.34398l-12.05791-.76285c-.30491-.02497-.63477-.04161-.98681-.05271-.35481-.0111-.72902-.01664-1.12263-.01387.3659-.15257.71239-.30514,1.04225-.45494.32709-.14702.62646-.29959.89811-.45494l10.83271-5.65063c.25225-.1387.43797-.33288.54884-.57699.11642-.24689.14137-.5437.07484-.89045l-.21898-1.15398c-.05821-.32178-.19958-.57699-.41579-.77672-.21898-.19695-.44905-.31346-.69576-.34952l-12.13275-1.30933c-.31877-.05548-.66526-.08599-1.03393-.09986s-.75674-.02219-1.16144-.02774c.76228-.29959,1.42477-.59364,1.99025-.87658l10.93805-5.10693c.24393-.1276.42411-.32178.54053-.57699.11919-.25521.14414-.55757.07761-.9071l-.62091-3.30106-18.77985,9.67015.67081,3.55349Z"
       id="path3" />
    <path
       d="M354.99233,168.33159c-.94246-.84052-2.05123-1.48131-3.32632-1.91683-1.28063-.44107-2.65551-.64079-4.12741-.60196-1.48576.03884-2.85232.31069-4.10523.81833-1.25291.50764-2.32842,1.20669-3.2293,2.09437s-1.59663,1.94457-2.08172,3.1679c-.48509,1.22611-.70961,2.5715-.67081,4.04726s.33263,2.81283.88425,4.00843c.54884,1.19282,1.30004,2.21088,2.24804,3.04307.948.83497,2.05955,1.47022,3.33464,1.90574,1.27786.42997,2.65828.6297,4.14127.59086,1.47467-.04161,2.83569-.31069,4.08306-.81278,1.24737-.49932,2.32288-1.19282,3.22376-2.07495.90088-.88768,1.59663-1.93902,2.09004-3.16513.48786-1.22056.71516-2.5715.67635-4.04449-.04158-1.47299-.3354-2.81006-.89256-4.00565-.55439-1.19559-1.30558-2.21642-2.24804-3.05417ZM354.31875,177.89634c-.30214.71569-.74565,1.32597-1.33053,1.83639-.58765.51042-1.30558.9071-2.15379,1.19282-.84544.2885-1.80453.44661-2.88281.47435-1.0866.03051-2.06232-.0749-2.92993-.31624-.86207-.24411-1.60218-.60196-2.20923-1.07908s-1.07828-1.06521-1.41091-1.76426c-.3354-.69905-.51281-1.49518-.53776-2.39119-.02218-.896.11365-1.70323.41025-2.4217s.73456-1.33429,1.31667-1.84471c.57933-.50764,1.29726-.90432,2.14825-1.19282.85098-.28572,1.82116-.44384,2.90776-.47158,1.07828-.03051,2.04569.07767,2.90499.31624.86207.24134,1.59941.60196,2.212,1.08186.6126.47435,1.0866,1.06521,1.42477,1.76704.33818.7046.52112,1.50351.54607,2.39951.02218.89323-.11642,1.69769-.41579,2.41338Z"
       id="path4" />
    <path
       d="M337.1882,193.28925l7.74755.80723-.1386,1.34816c-.03604.34675-.11642.60473-.23561.78504-.12197.17476-.31046.32456-.56825.45216l-6.65818,3.01811c-.57379.2885-.88979.75175-.95632,1.38977l-.37421,3.5951,7.80854-3.74212c.30214-.16367.5627-.34398.78169-.54648.22453-.2025.41579-.42165.58488-.66299.16354.6824.40747,1.29823.73733,1.84193.32432.54648.71516,1.01806,1.16976,1.41751s.9674.72124,1.53842.96813c.57379.24134,1.18916.39668,1.84334.46603.86207.08877,1.66316.02774,2.41158-.17754.74842-.21082,1.40814-.59364,1.99025-1.15121.57656-.56035,1.06442-1.30655,1.44972-2.23584.3853-.93206.6514-2.0694.79277-3.41756l.62646-6.06951-20.13809-2.08882-.41302,4.00288ZM347.77144,194.39052l6.4891.67408-.21344,2.06385c-.13028,1.25662-.49063,2.1554-1.08383,2.7102-.59319.55203-1.38042.77395-2.36169.67408-.4934-.04993-.94523-.17199-1.34993-.36339-.4047-.18863-.74565-.45216-1.0173-.78782-.26611-.33288-.46568-.74898-.58765-1.23443-.12751-.48822-.15246-1.05412-.08593-1.70601l.21067-2.03057Z"
       id="path5" />
    <polygon
       points="333.04971 218.52707 336.27347 219.21225 337.72873 212.33274 354.31043 215.84739 355.14479 211.92219 335.33932 207.72235 333.04971 218.52707"
       id="polygon5" />
    <path
       d="M329.92851,228.91569c-.46568,1.40087-.65418,2.75181-.55993,4.05836.09147,1.30655.42688,2.50492,1.00344,3.6062.57933,1.09573,1.38597,2.06385,2.42267,2.89883,1.03116.83775,2.25358,1.48686,3.66172,1.95844,1.39983.46326,2.76085.66853,4.08306.61583,1.32776-.05271,2.54463-.34675,3.6645-.87936,1.11986-.53538,2.10667-1.29823,2.9632-2.28855.85376-.99309,1.5107-2.18868,1.97362-3.58678l2.32565-7.00989-19.21504-6.38297-2.32288,7.00989ZM332.95269,229.91988l1.05333-3.18732,13.18054,4.37737-1.05333,3.18732c-.28274.84884-.68744,1.56453-1.21411,2.13598-.52667.57422-1.1559,1.00141-1.87937,1.28159-.72625.2774-1.53288.41055-2.42544.39113-.89533-.01664-1.85442-.19695-2.87449-.53816-1.03393-.33843-1.91263-.77395-2.6472-1.29268-.73179-.52429-1.30558-1.11237-1.7186-1.76981s-.65695-1.37313-.73456-2.14985c-.07484-.77395.02772-1.58673.31323-2.43557Z"
       id="path6" />
    <path
       d="M318.19769,256.09532l9.54099,10.34424c.12474.13315.26056.2774.41302.44107.15523.16089.31877.32178.49618.48268-.23007-.07212-.44905-.14147-.65972-.19973-.21344-.06103-.41025-.10819-.58765-.14425l-13.64345-3.35654-1.83502,3.13184,14.42237,15.43729,1.58832-2.70742c.16632-.28295.23284-.57144.19958-.86826s-.13305-.53261-.29937-.71014l-8.5819-8.51062c-.21621-.21915-.45183-.44939-.70961-.6935-.26056-.24134-.54053-.48545-.83712-.74343.37421.12206.73456.23856,1.08105.3412s.67358.18308.97849.24689l11.87496,2.87109c.28274.05825.54607.03329.79277-.0749s.46014-.31624.64032-.62415l.59319-1.01251c.16632-.28017.23007-.5659.19404-.85717-.03326-.29404-.13028-.53538-.29382-.72124l-8.27699-8.96833c-.21067-.25243-.44628-.50209-.71516-.75453-.27165-.25521-.55716-.51596-.85653-.78782.76783.27463,1.46081.49377,2.07341.65189l11.59777,3.34544c.26888.0638.52944.03606.78446-.07767.25779-.11651.47677-.32733.65695-.63247l1.69642-2.89605-20.50399-5.07087-1.82393,3.11797Z"
       id="path7" />
    <rect
       x="311.21721"
       y="271.97162"
       width="4.02497"
       height="20.25151"
       transform="translate(-101.14885 359.44203) rotate(-52.57919)"
       id="rect7" />
    <path
       d="M295.83373,287.09196c-1.00344,1.08186-1.73246,2.23307-2.19537,3.45917-.46014,1.22611-.6514,2.46054-.58211,3.69774.07207,1.23998.40193,2.45499.99512,3.64503s1.43309,2.29132,2.51969,3.30383c1.07828,1.00696,2.23141,1.75594,3.45937,2.26081,1.22519.50209,2.4587.74343,3.69776.72401,1.24183-.01942,2.45593-.30237,3.64232-.85162,1.18916-.54648,2.28407-1.35926,3.29028-2.43834l5.02551-5.40652-14.8243-13.79786-5.02829,5.40375ZM308.33515,298.73165c-.60705.65466-1.27232,1.13456-1.99025,1.43693-.7207.30514-1.46635.42997-2.23972.38559-.77614-.04716-1.56614-.26908-2.37-.65466-.80663-.39113-1.60495-.94871-2.39218-1.68659-.79554-.74066-1.41923-1.49796-1.86828-2.27745-.44905-.77949-.72347-1.55621-.82881-2.32184-.10256-.77395-.02495-1.5257.2273-2.26081s.68467-1.43416,1.29449-2.08605l2.28407-2.45776,10.16745,9.46488-2.28407,2.45776Z"
       id="path8" />
    <polygon
       points="276.9735 304.64859 279.02196 307.08971 285.38355 301.68874 288.91499 305.85528 283.97263 310.04956 285.95734 312.38527 290.89692 308.19098 294.35907 312.27708 288.01134 317.66419 290.07366 320.09698 299.48991 312.10232 286.38976 296.65393 276.9735 304.64859"
       id="polygon8" />
    <path
       d="M260.17559,315.99979l2.93271,13.76735c.03604.17754.08316.37172.13305.58809.04712.21637.10811.44107.1774.67131-.158-.18031-.31323-.34952-.46568-.51319-.14968-.15812-.2966-.29959-.43242-.41887l-10.01777-9.85601-3.17664,1.75594,4.52657,20.64131,2.75253-1.52015c.28274-.15812.48786-.36894.60983-.64079.12197-.27463.158-.52706.10811-.7684l-3.04081-11.70072c-.07207-.29959-.158-.61583-.26056-.95703-.09979-.33843-.21067-.6935-.3354-1.06799.25502.29959.50726.58254.75397.84607.24393.26353.48509.50487.71516.71292l8.74822,8.53282c.21344.19695.45183.31069.71793.3412.27165.03329.55993-.03606.87039-.20805l1.02839-.5659c.28274-.15812.48509-.37172.60151-.64079.12197-.26908.16077-.52706.11919-.7684l-2.55018-11.94206c-.04989-.32178-.12474-.66021-.23007-1.01251-.10256-.35785-.21621-.72956-.33263-1.11515.52112.6297,1.00344,1.16785,1.45249,1.62001l8.2659,8.79912c.19958.19141.43797.30237.71516.33565.27719.03051.57656-.03884.88425-.21082l2.93825-1.62279-15.04328-14.82979-3.16555,1.74762Z"
       id="path9" />
    <polygon
       points="229.63166 329.93358 230.74043 332.92117 238.54342 329.98073 240.46714 335.09044 234.4077 337.37621 235.48598 340.24452 241.55097 337.95875 243.43588 342.96859 235.64952 345.90903 236.76938 348.89385 248.32557 344.5359 241.18785 325.57563 229.63166 329.93358"
       id="polygon9" />
    <path
       d="M218.4774,333.04045c-1.11155.28572-2.06509.68518-2.84955,1.19559-.78723.51319-1.40814,1.10405-1.86274,1.76981-.45183.66853-.74011,1.39255-.86207,2.18314-.12751.78782-.08039,1.6006.13305,2.43557.58211,2.27745,2.22032,3.39815,4.90632,3.35931-.52667.35507-.96186.73788-1.30558,1.14843-.34095.405-.59597.82665-.7706,1.25662-.17186.43552-.26888.87936-.29105,1.33429-.01663.45771.03326.90987.14691,1.36481.20512.79891.52112,1.48964.948,2.06663.42411.57699.97849,1.02083,1.66039,1.32874.6819.30791,1.50239.47158,2.46148.48822s2.06786-.1387,3.32909-.46048l6.66096-1.70878-5.02274-19.62603-7.28187,1.86413ZM218.07824,341.47618c-.31046-.16089-.55993-.39113-.75951-.68795-.19404-.29682-.34372-.64634-.44905-1.04857-.09702-.37726-.14137-.75175-.13028-1.12624.01109-.37726.09979-.72679.27165-1.05412.17463-.32733.44905-.62415.82049-.88491.37144-.26353.87039-.47713,1.48853-.63525l3.32355-.85439,1.41369,5.51471-3.30692.84884c-.59319.1498-1.10877.21637-1.54951.19973-.43797-.01942-.81218-.11096-1.12263-.27185ZM223.35877,349.52354c-1.10323.28295-1.9653.28572-2.58067.00832s-1.05611-.91819-1.31112-1.92238c-.24947-.96813-.13028-1.73375.35481-2.30519.48232-.56867,1.26955-.99587,2.36446-1.27604l2.55295-.65466,1.39428,5.43981-2.77471.71014Z"
       id="path10" />
    <path
       d="M200.38499,342.69674c-.51558-1.22611-1.1947-2.26636-2.0346-3.12075-.84267-.85162-1.82948-1.48964-2.96597-1.90851-1.13649-.42165-2.38941-.57699-3.75597-.46326-1.5107.1276-2.79134.50487-3.84467,1.13456-1.05333.62692-1.90709,1.48686-2.55018,2.5715l1.74077,1.58395c.16354.1498.35204.2136.56547.19695.11365-.00832.21898-.04438.32154-.11096.09979-.0638.19958-.1387.29382-.23024.23007-.29404.46568-.5437.70407-.74621.23839-.20528.4934-.37726.77614-.51874.27719-.1387.58211-.24689.91197-.32178.32986-.07212.7013-.1276,1.11709-.16089.69853-.06103,1.36379.04161,1.99856.29959s1.20302.66576,1.69919,1.22056c.50172.5548.91751,1.25107,1.25569,2.09159.3354.83775.54884,1.81419.64032,2.91825.09147,1.09295.05544,2.0805-.11365,2.95708-.16354.87658-.44074,1.62834-.82881,2.25803s-.87039,1.12347-1.45249,1.48409c-.57933.35785-1.24183.56867-1.97916.63247-.6819.05548-1.24183.02219-1.69365-.10541-.44905-.12483-.82326-.27185-1.13095-.44107-.30214-.16644-.5627-.32456-.77337-.47158-.21067-.14425-.42133-.21082-.63477-.19141-.21344.01664-.37421.07767-.48509.17754-.10533.10264-.20235.21082-.28274.33011l-1.18084,1.98341c.76228.73234,1.68811,1.29546,2.77193,1.68936s2.3007.53538,3.65895.42165c1.33607-.11373,2.54186-.46881,3.6146-1.06799,1.06997-.59918,1.96807-1.38977,2.69432-2.36899.72347-.97645,1.25291-2.11656,1.58832-3.41756.3354-1.29823.44074-2.70187.31323-4.21093-.12197-1.50073-.44351-2.86277-.95909-4.09442Z"
       id="path11" />
    <path
       d="M180.27462,340.74662c-.82326-.96258-1.82948-1.72543-3.01586-2.2941-1.18362-.57144-2.51414-.88768-3.98604-.94871-1.47467-.0638-2.8246.1387-4.05534.60751-1.22797.46603-2.29516,1.14566-3.19327,2.03057-.89533.89045-1.60495,1.95844-2.12607,3.20397-.51835,1.24275-.8094,2.61033-.87316,4.09165-.06098,1.47299.11365,2.85167.52944,4.13048.41302,1.27881,1.03116,2.39951,1.84888,3.35931.82049.96258,1.82116,1.73097,3.00755,2.30797,1.18639.57144,2.51414.89045,3.98881.95426,1.4719.06103,2.82183-.14425,4.05257-.61583,1.23074-.47435,2.29793-1.15121,3.20158-2.03334.90088-.88491,1.61327-1.94735,2.13993-3.19287.52667-1.2483.82049-2.60756.88147-4.07778.06098-1.48409-.11642-2.86831-.53498-4.15545-.41856-1.28436-1.03947-2.40506-1.86551-3.36763ZM178.05984,350.97434c-.29937.8433-.70961,1.55344-1.22519,2.13043-.51835.57977-1.14204,1.01528-1.86551,1.30378-.72347.29127-1.53288.41887-2.42544.38004-.89533-.03884-1.68811-.23302-2.37832-.57977-.69576-.34952-1.27509-.83497-1.74077-1.45635-.46846-.62138-.81495-1.36481-1.04502-2.23029-.2273-.86271-.31877-1.83361-.27442-2.90992.04712-1.09018.22175-2.05831.52112-2.90438.29937-.84884.70961-1.55621,1.22797-2.13043.51835-.57422,1.13372-1.00419,1.85442-1.28991.7207-.28295,1.52456-.40778,2.41713-.37172.89533.03884,1.69088.23024,2.38663.57699.69853.3412,1.28341.82388,1.74909,1.4397.46846.61583.81495,1.35648,1.04225,2.22475.2273.87104.31877,1.85026.27442,2.93766-.04712,1.07908-.21898,2.03889-.51835,2.87941Z"
       id="path12" />
    <path
       d="M154.26002,347.97565c-.09979.52983-.17463,1.11237-.2273,1.74484l-7.42324-14.6578c-.15523-.2774-.32432-.48545-.50726-.6297-.18849-.14147-.43519-.24134-.74565-.29682l-2.02351-.37449-3.65618,19.93117,3.46769.63525,2.13993-11.67575c.10533-.59086.19126-1.22056.25225-1.89187l7.43432,14.73547c.0887.1498.16632.27463.23561.36894.0693.09709.14968.17476.23561.23579.08593.0638.19126.11373.30768.1498s.25779.07212.42688.10264l2.07063.38004,3.65341-19.93117-3.476-.63802-2.16488,11.81168Z"
       id="path13" />
    <path
       d="M136.98811,332.45791c-.46291-.39391-.9674-.73511-1.50793-1.03747-.53776-.29959-1.10046-.54093-1.68256-.71847-1.03116-.31901-1.99579-.43829-2.89944-.35785s-1.7186.31901-2.45039.71569c-.72625.39668-1.3527.93761-1.87937,1.61447-.52112.67963-.92028,1.45635-1.19193,2.33016-.24947.80723-.34372,1.5257-.27997,2.16649.06375.63802.23284,1.21224.50449,1.71988.27442.51042.62091.97367,1.03947,1.38422.42133.41333.86484.79614,1.33053,1.14843.46291.3523.92028.68795,1.36933,1.00973.44905.31901.8399.64357,1.16698.97367.32986.33011.56825.67686.71793,1.03747.14691.36339.15523.76008.0194,1.19559-.21344.69073-.60705,1.18172-1.18362,1.47299-.57379.29127-1.29726.29959-2.17042.02774-.49618-.15257-.91197-.35785-1.24737-.61028s-.62368-.50487-.86207-.75453c-.23561-.24689-.43797-.47435-.60983-.67408-.16909-.20528-.34926-.33565-.53221-.39113-.19681-.06103-.37144-.07212-.52667-.02774-.158.04161-.31323.14425-.47123.30791l-1.53565,1.50351c.46846.85994,1.11986,1.61724,1.95421,2.2719.83435.65189,1.80453,1.14843,2.9133,1.49241.98126.30514,1.90155.4161,2.76085.33565.8593-.07767,1.63267-.29959,2.32011-.66021.68467-.36339,1.27232-.83775,1.74909-1.43138.48232-.59086.83158-1.23998,1.05333-1.95012.27719-.89323.38807-1.67827.33818-2.35235-.04989-.67686-.20789-1.27881-.47123-1.80587-.26056-.52983-.60428-.99587-1.02562-1.39809-.42411-.40223-.86762-.77395-1.3333-1.1096-.46291-.33565-.92583-.65466-1.37765-.96258-.4546-.30514-.84267-.62415-1.16698-.95148-.32154-.32733-.55439-.68795-.69576-1.07076-.14414-.38559-.13582-.82665.01663-1.32042.26888-.87381.71793-1.4619,1.34162-1.75594.62646-.29682,1.37211-.31069,2.24527-.04161.60428.19141,1.09769.44107,1.47744.75453.37975.31901.7013.63247.96186.95426.26333.32178.4934.61305.68467.86549.19126.25798.40193.42442.63477.49655.1774.05271.35204.06103.53221.01942.17463-.04161.32986-.12206.46291-.24134l1.69919-1.46744c-.23839-.49932-.54607-.97922-.92583-1.4397-.37975-.45494-.80109-.87936-1.26677-1.26772Z"
       id="path14" />
    <path
       d="M119.04539,326.24138c-.88702-.96813-2.00965-1.75594-3.35404-2.35512-1.34439-.60473-2.67492-.91542-3.99158-.93484-1.3139-.02497-2.55572.2136-3.71439.70737-1.16421.49655-2.21477,1.22333-3.16,2.18868-.94246.96535-1.7186,2.12211-2.32565,3.48137-.60151,1.34539-.94523,2.688-1.03393,4.03062-.08593,1.34539.07207,2.61311.47954,3.8087.4047,1.19559,1.05056,2.28023,1.94313,3.2539.88979.9709,2.00688,1.75871,3.35127,2.36345,1.34716.60196,2.68046.90987,3.99713.92652,1.31667.01387,2.55849-.22192,3.72271-.71014,1.16421-.48268,2.22032-1.20669,3.16832-2.17204.948-.96258,1.72414-2.11656,2.32565-3.46472.60428-1.35371.95077-2.70465,1.0367-4.05558.08593-1.34816-.07761-2.62143-.48786-3.82257-.41025-1.19559-1.06442-2.27745-1.95698-3.24558ZM117.53745,332.86292c-.10533.89045-.38253,1.83361-.82881,2.8267-.44074.98477-.95632,1.81419-1.54397,2.4855-.59042.66853-1.23351,1.18172-1.92649,1.5257-.69576.34675-1.43309.52151-2.21477.52151-.77891.00277-1.57723-.18031-2.39218-.5437-.81772-.36617-1.48298-.83775-1.99856-1.42029-.51281-.58254-.87039-1.2483-1.07551-1.99728-.20512-.74898-.25502-1.56731-.14968-2.45499.11088-.88768.38253-1.82529.82326-2.80729.44351-.99309.96186-1.83084,1.55505-2.50492.59042-.67686,1.23351-1.1845,1.92649-1.52847.69298-.3412,1.42755-.51319,2.20091-.51042.7706,0,1.56891.18308,2.38386.54925.81772.36617,1.48298.83775,2.00411,1.41751.5239.57699.88702,1.23998,1.09214,1.98341.20789.74621.25502,1.56453.14414,2.45776Z"
       id="path15" />
    <path
       d="M100.17129,316.15236l-4.06643,6.65205-1.1559-.70737c-.2966-.18031-.49618-.36339-.60705-.54925-.10533-.18586-.16077-.42165-.16354-.70737l.14691-7.31503c-.01386-.64079-.29382-1.12902-.8399-1.46467l-3.08239-1.88354.01386,8.66319c.01386.3412.06653.65744.15523.94593.08593.28295.19958.55203.34372.80723-.68744-.14702-1.34439-.18863-1.97639-.1276-.63477.06103-1.22797.20805-1.78512.44384-.55439.24134-1.06719.5659-1.53288.97645-.46568.41333-.87039.90155-1.21688,1.46467-.45183.73511-.74011,1.48964-.87593,2.25249-.13582.76562-.07484,1.52847.18018,2.2941.25502.76008.71516,1.51738,1.39151,2.2719.67081.75175,1.58555,1.48131,2.73867,2.18591l5.19737,3.18455,10.56661-17.282-3.43165-2.10546ZM91.21241,330.80738l-1.76849-1.07908c-1.07274-.66021-1.73246-1.3759-1.97639-2.14985-.24116-.77395-.10533-1.58395.40747-2.42447.26333-.42442.56547-.77949.90919-1.05967.34649-.28572.72902-.47435,1.15035-.57977.41579-.09986.87593-.09986,1.36933-.00277.49063.10264,1.01453.31901,1.57169.66021l1.74355,1.06521-3.40671,5.57019Z"
       id="path16" />
    <polygon
       points="84.95338 305.98566 81.79061 303.53899 71.4014 316.98178 67.08273 313.64189 65.08694 316.22448 76.88151 325.35371 78.88008 322.76834 74.5614 319.42567 84.95338 305.98566"
       id="polygon16" />
    <rect
       x="56.38124"
       y="301.77063"
       width="20.25262"
       height="4.02633"
       transform="translate(-202.50803 147.77589) rotate(-47.54068)"
       id="rect16" />
    <path
       d="M64.06132,294.30435c.50172-.97922.79-1.98896.85653-3.03475.0693-1.04302-.09147-2.09437-.48232-3.15958-.39361-1.06244-1.02562-2.0805-1.90155-3.05972-.87316-.97367-1.81562-1.7171-2.8246-2.21642-1.00621-.50209-2.0346-.77949-3.07962-.82388-1.04502-.04716-2.07895.12483-3.10734.51874-1.02562.39391-1.99025.99864-2.89944,1.81142l-8.99492,8.06124,2.66383,2.9765,8.99492-8.05846c.5627-.50209,1.13372-.88213,1.72691-1.13734.58765-.25521,1.16976-.38281,1.74355-.38559.57102,0,1.12818.1276,1.67148.38559.5433.25521,1.05333.64912,1.53011,1.18172.47123.52983.80663,1.07908,1.00344,1.64775s.26056,1.13734.19958,1.70878c-.06653.5659-.25779,1.13179-.57656,1.68936-.31877.55757-.75674,1.08741-1.31944,1.59227l-8.99215,8.06124,2.67214,2.9876,8.99769-8.06124c.90919-.81278,1.61327-1.70601,2.11776-2.68523Z"
       id="path17" />
    <path
       d="M51.75948,272.32597l-10.647,6.86842c-.23839.15812-.49063.33288-.75951.52706-.26888.19695-.53221.405-.80109.6297l6.0539-11.60918c.32154-.58254.316-1.13734-.0194-1.65608l-.30491-.47713c-.32986-.51319-.82881-.74066-1.49684-.68518l-12.96987.76562c.29937-.15534.58765-.31624.86762-.47435.27442-.16367.52944-.31624.76228-.46603l10.64422-6.87397-1.91263-2.96263-17.00858,10.98503,1.63267,2.53821c.09702.14702.18295.27185.26333.37726s.16077.19141.24947.25798c.08316.06658.18572.11096.30491.13593.12197.02774.26611.03329.43797.01942l12.57626-.69627c.36035-.02497.7207-.06935,1.08383-.13593.36312-.0638.73179-.13593,1.10877-.20528-.44351.58531-.8399,1.19837-1.18916,1.83916l-5.81829,11.23746c-.08593.1498-.1386.28295-.16077.39946s-.0194.23302.00554.34398c.02218.11096.06375.22192.12474.33565.05821.11373.13582.24134.23007.38559l1.64376,2.55208,17.01413-10.98226-1.91541-2.97373Z"
       id="path18" />
    <path
       d="M24.89668,209.13709l-13.94005-1.90019-.59874-.0749c-.22175-.02774-.44905-.04716-.68744-.06103.22175-.08599.43242-.17199.63477-.26353.20235-.08877.38253-.17754.54607-.2663l12.65665-6.09447-.57656-3.58678-20.94195-2.72407.49618,3.1041c.05544.32178.18572.58531.39916.79336.21344.21082.44351.33011.6819.36339l12.03573,1.09295c.30491.03606.63477.06103.98404.08045.35481.02219.72625.03606,1.12263.04716-.37144.14147-.7207.28295-1.05333.42165-.33263.14147-.63754.2885-.90919.43274l-10.98794,5.35104c-.25502.13315-.44351.32178-.56547.56035-.12197.24134-.15523.53816-.09979.89045l.18849,1.15953c.05267.32178.18295.58254.39639.78504s.44074.32733.68467.37172l12.09117,1.64221c.31877.06103.66249.10541,1.03116.1276s.75951.04161,1.15867.06103c-.76783.2774-1.44141.55203-2.01242.81833l-11.07387,4.80734c-.2467.12206-.43242.30791-.55716.55757-.12474.25243-.158.5548-.10256.90432l.53221,3.31493,19.04041-9.14587-.57379-3.57013Z"
       id="path19" />
    <path
       d="M4.68097,186.83415c.91751.86549,2.00965,1.53402,3.27642,2.00837,1.264.47713,2.63334.71292,4.10523.71292,1.48576.00277,2.85786-.23302,4.12741-.70182,1.264-.47435,2.35892-1.14011,3.28751-2.0056.92305-.86271,1.64653-1.89741,2.16765-3.10965.51835-1.20946.77891-2.55208.78169-4.02784,0-1.47577-.25779-2.81561-.77614-4.02784-.51558-1.20946-1.23628-2.24694-2.15934-3.10688-.92583-.85994-2.01797-1.52292-3.28474-1.9945-1.264-.46881-2.63611-.7046-4.12186-.7046-1.47467-.00277-2.84123.23024-4.10523.69627-1.25846.46603-2.3506,1.12902-3.27642,1.98618-.92583.85994-1.65207,1.89464-2.17874,3.10688-.52112,1.20669-.78446,2.5493-.78723,4.02507,0,1.47577.25779,2.81561.78169,4.02784.52112,1.20946,1.24183,2.24971,2.16211,3.1152ZM5.62066,177.2916c.31877-.70737.77891-1.30655,1.38319-1.80032.59874-.491,1.32498-.87104,2.18151-1.13456.85098-.26353,1.81562-.39391,2.8939-.39113,1.0866,0,2.05955.13315,2.92162.39946.85653.26353,1.58277.64634,2.17597,1.13734.59319.49377,1.05056,1.09573,1.36379,1.8031.316.70737.47123,1.50628.47123,2.40228s-.158,1.70046-.47677,2.4106c-.316.71292-.7706,1.3121-1.36656,1.80865-.59319.491-1.32221.86826-2.18151,1.13179s-1.83502.39668-2.91885.39391c-1.07551,0-2.04291-.13315-2.89667-.39946-.85376-.2663-1.58-.64357-2.17874-1.14011-.59874-.49377-1.05888-1.0985-1.38042-1.80865-.31877-.71014-.47677-1.51738-.474-2.4106,0-.896.16354-1.69491.48232-2.40228Z"
       id="path20" />
    <path
       d="M23.16699,162.37027l-7.72261-1.02083.1774-1.34539c.04435-.3412.13028-.60196.25502-.77395s.31877-.31901.57933-.43829l6.74134-2.83503c.57656-.27463.90919-.72679.99235-1.36203l.47123-3.584-7.90555,3.52575c-.30768.15534-.57379.33011-.79832.52706-.2273.19418-.42688.41055-.59874.64357-.14968-.68795-.37421-1.30378-.68744-1.86135-.31046-.55203-.68744-1.0347-1.13095-1.44803-.44351-.41055-.948-.74898-1.51348-1.00973-.56547-.25798-1.1753-.42997-1.82948-.51596-.8593-.11096-1.66316-.0749-2.41713.11096-.74842.19141-1.42477.5548-2.01797,1.09573-.59319.5437-1.09769,1.27604-1.5107,2.19423-.41302.92097-.70961,2.04998-.88425,3.38982l-.79832,6.05286,20.07157,2.64639.52667-3.99178ZM12.61701,160.97773l-6.46969-.85162.27165-2.05831c.16354-1.25107.55161-2.14153,1.16144-2.67968.60705-.53538,1.39983-.73788,2.37832-.60751.4934.0638.93969.19695,1.33884.39946.39639.19973.72902.47435.99235.81556.26056.3412.44905.76008.55716,1.25107.11088.491.12197,1.05967.03881,1.70323l-.26888,2.02779Z"
       id="path21" />
    <polygon
       points="28.02065 137.17128 24.81629 136.40011 23.16976 143.23524 6.68785 139.25733 5.74816 143.15757 25.42889 147.9122 28.02065 137.17128"
       id="polygon21" />
    <path
       d="M31.40241,126.9602c.50172-1.38977.72347-2.73516.67081-4.04171-.05544-1.30933-.36035-2.51879-.90919-3.63394-.54607-1.11237-1.32776-2.10269-2.33674-2.9654-1.00898-.86271-2.21477-1.55066-3.60906-2.05831-1.38597-.50209-2.74144-.74343-4.06643-.72679-1.32498.01942-2.55572.27463-3.68667.77949-1.13649.50209-2.1427,1.2372-3.02418,2.20533-.8787.96813-1.56891,2.14707-2.07341,3.5313l-2.51414,6.94332,19.03209,6.90725,2.51692-6.94054ZM28.40595,125.87002l-1.14481,3.15403-13.0558-4.73521,1.14481-3.15403c.30491-.8433.72902-1.54512,1.26955-2.10546.5433-.55757,1.18362-.96813,1.91541-1.22611.73179-.26076,1.54397-.36617,2.43376-.32733.89533.04438,1.84611.24966,2.86063.61583,1.02284.37172,1.89323.82665,2.61116,1.37035.71516.53816,1.27232,1.14566,1.6687,1.81419.39361.66853.62091,1.38977.67081,2.16649.05544.77672-.0693,1.5895-.37421,2.42725Z"
       id="path22" />
    <path
       d="M43.86779,100.11345l-9.25826-10.60222c-.12197-.13315-.25502-.28295-.4047-.44939-.14691-.16644-.30768-.33011-.47954-.49655.2273.08045.44351.15257.65418.21637.21344.06935.4047.12206.58211.16089l13.54644,3.72825,1.92095-3.07914-13.99826-15.82565-1.66039,2.66581c-.17463.27463-.2467.56035-.22175.85717s.11919.54093.27997.72124l8.34629,8.74087c.20789.22747.43797.46326.69021.71014.25502.24689.52667.50487.81495.7684-.36867-.13593-.72625-.26076-1.06997-.36894-.34372-.11651-.66804-.20528-.97018-.2774l-11.79458-3.1901c-.27997-.06935-.54607-.04993-.79277.04993-.25225.10264-.47123.30791-.65695.60473l-.62091.99864c-.17463.2774-.2467.56035-.22175.85439.02772.29127.11919.53538.27719.72679l8.03306,9.19025c.19958.25521.42965.51874.69576.77672.26333.25798.53776.52706.83435.80723-.76505-.29404-1.44695-.53261-2.05677-.70737l-11.50352-3.6589c-.26611-.07212-.52944-.05271-.79.05271-.25779.11096-.48232.31624-.67081.6186l-1.77404,2.8489,20.35708,5.62567,1.91263-3.06804Z"
       id="path23" />
    <polygon
       points="58.71426 79.00333 42.978 66.25959 40.44722 69.39143 56.18349 82.13795 58.71426 79.00333"
       id="polygon23" />
    <path
       d="M67.0855,69.72154c1.03116-1.05412,1.79621-2.18314,2.28684-3.39815.4934-1.21224.72347-2.43834.68744-3.67832-.03604-1.23998-.3354-2.46331-.89533-3.67277-.55993-1.20391-1.37211-2.32738-2.42821-3.37041-1.05056-1.03193-2.18428-1.81697-3.39562-2.35512-1.21133-.53538-2.4393-.81001-3.67558-.82388-1.23905-.01664-2.46148.23302-3.6645.74621-1.20579.51596-2.32288,1.29823-3.35404,2.35235l-5.17243,5.26505,14.43623,14.20009,5.1752-5.26505ZM54.9084,57.74342c.62646-.63802,1.30281-1.0985,2.02906-1.38422.72625-.28017,1.47744-.38559,2.25081-.31901.77337.06935,1.55505.30791,2.3506.71847s1.57723.99309,2.34228,1.75039c.77891.76008,1.37765,1.53679,1.8073,2.32738.42411.79336.6819,1.57563.76228,2.3468.08316.77117-.01386,1.52292-.28828,2.25526-.27442.72679-.72625,1.40919-1.34993,2.04721l-2.3506,2.39673-9.90689-9.74505,2.35337-2.39396Z"
       id="path24" />
    <polygon
       points="86.39756 52.70861 84.41563 50.21202 77.90713 55.43545 74.49488 51.17459 79.54534 47.11624 77.62993 44.72505 72.5767 48.78063 69.2282 44.60577 75.72007 39.39065 73.72705 36.90515 64.09458 44.63906 76.76232 60.44252 86.39756 52.70861"
       id="polygon24" />
    <path
       d="M103.47821,41.84009l-2.55295-13.84225c-.03049-.17754-.07207-.37172-.11642-.59086s-.09702-.44384-.158-.67686c.14968.18586.29937.36062.44905.52429s.28828.30791.42133.43274l9.74612,10.12786,3.22099-1.66995-3.96109-20.7606-2.78856,1.44248c-.28828.15257-.50172.36062-.632.62692-.13028.27185-.17186.52429-.12751.76562l2.72204,11.78117c.06375.30237.14137.6186.23284.96258.0887.34398.19126.69905.30768,1.07908-.24947-.30791-.4934-.59918-.73179-.86826-.23839-.27185-.47123-.51596-.69298-.72956l-8.51261-8.77138c-.20789-.2025-.44628-.32456-.71239-.36062-.26888-.04161-.55993.01942-.87316.18308l-1.04502.54093c-.28828.1498-.4934.35785-.62091.62415-.12474.26353-.17186.51874-.13582.76285l2.22032,12.00863c.04158.32456.10811.66021.20235,1.0236.09425.35507.19681.72956.30491,1.12069-.50449-.64634-.97295-1.19837-1.40537-1.66162l-8.02475-9.02104c-.19681-.19973-.43242-.31624-.70961-.35785-.27719-.03606-.57379.02219-.88979.18586l-2.97983,1.54512,14.63303,15.23479,3.2099-1.66162Z"
       id="path25" />
    <polygon
       points="134.43516 28.73296 133.404 25.71485 125.52339 28.44446 123.74104 23.28483 129.86424 21.16272 128.8608 18.26389 122.7376 20.386 120.98851 15.32345 128.85526 12.60216 127.81301 9.58683 116.14317 13.62854 122.76255 32.77467 134.43516 28.73296"
       id="polygon25" />
    <path
       d="M145.64208,25.92845c1.12263-.25243,2.08172-.62692,2.88004-1.11792.80109-.48822,1.43863-1.06244,1.90986-1.71433.46846-.65744.77891-1.3759.92305-2.16094s.12197-1.59782-.07207-2.44112c-.52112-2.29132-2.1233-3.45363-4.8093-3.48969.53776-.33843.98126-.70737,1.3333-1.10682.35204-.39668.62091-.81278.80386-1.23998.18572-.4272.29382-.87104.32709-1.32597.03049-.45494-.00554-.91265-.11088-1.37035-.18018-.80169-.47954-1.49796-.88702-2.08605-.41025-.59086-.95354-1.04857-1.62712-1.3759-.67358-.32456-1.48853-.51042-2.44762-.5548-.95909-.04161-2.07063.08322-3.33741.37172l-6.70808,1.52847,4.49608,19.75363,7.32622-1.66995ZM146.26577,17.50936c.30768.17199.55161.40778.74288.70737.18849.30237.32709.65466.42133,1.06244.08593.37726.11919.75175.09979,1.12624-.0194.37726-.12197.72401-.29937,1.0458-.18295.32456-.46568.61583-.84267.86826-.38253.25243-.88702.45216-1.50793.59086l-3.34572.76285-1.264-5.55077,3.33186-.7573c.59597-.13315,1.11155-.18586,1.54951-.15812.44074.03051.81218.13038,1.11432.30237ZM141.20699,9.32052c1.11155-.24966,1.97084-.23302,2.58067.0638.60705.29127,1.02562.94593,1.25846,1.95844.22175.9709.08316,1.73652-.41579,2.2941-.50172.55203-1.30004.9598-2.40049,1.20946l-2.57235.58531-1.24183-5.4731,2.79134-.63802Z"
       id="path26" />
    <path
       d="M165.99639,19.94216c.81495.87658,1.7879,1.54234,2.9133,1.99173,1.1254.45494,2.37.64079,3.74211.5659,1.5107-.08322,2.80242-.42442,3.87516-1.02638,1.06997-.59641,1.94313-1.42861,2.6167-2.49937l-1.69365-1.63111c-.16077-.15257-.34926-.22192-.55993-.2136-.11642.00832-.22175.04161-.32432.10264-.10256.0638-.20235.1387-.30214.22192-.23561.2885-.47954.53261-.7207.72956-.24393.19418-.51004.36339-.79277.49377-.28274.13315-.58765.23024-.92028.29682-.33263.06103-.70684.10819-1.12263.13038-.7013.03884-1.36656-.07767-1.99025-.35507s-1.18084-.69905-1.66593-1.26772c-.48232-.57144-.88147-1.27881-1.19193-2.12766-.31323-.84607-.50172-1.82529-.55993-2.93212-.06098-1.09573.00277-2.0805.19404-2.95153.18849-.87381.48786-1.62001.89256-2.23584.40193-.6186.90088-1.0985,1.4913-1.44248.59319-.34675,1.25846-.53538,1.99579-.57699.6819-.03884,1.2446.0111,1.69088.1498.44351.1387.81495.29682,1.11986.47435.29937.17476.55439.3412.75951.491s.41579.22192.62646.20805c.21344-.00832.37698-.0638.48786-.16089.11642-.09986.21067-.20528.2966-.32178l1.23628-1.94735c-.74288-.75453-1.65484-1.34539-2.72481-1.76981-1.07274-.42165-2.28962-.59641-3.64786-.52151-1.33884.0749-2.55572.39391-3.64232.96535-1.0866.56867-2.00688,1.33429-2.7553,2.29132-.75119.9598-1.3139,2.08327-1.68534,3.37318s-.51558,2.688-.43242,4.20261c.08316,1.50073.3659,2.87386.84821,4.11661.47954,1.24275,1.12818,2.29964,1.9459,3.17623Z"
       id="path27" />
    <path
       d="M199.34829,5.51183c-.79277-.982-1.77404-1.77536-2.94379-2.38564-1.16976-.60751-2.4892-.9598-3.96109-1.06521-1.46635-.10264-2.8246.0638-4.06643.50487-1.24737.43829-2.3312,1.08463-3.25702,1.9418-.92583.85994-1.66593,1.90296-2.22863,3.13184-.55716,1.23165-.88979,2.58259-.99512,4.05281-.10533,1.47854.03604,2.87109.41856,4.16654.3853,1.29546.97295,2.43834,1.77127,3.42034.79832.98477,1.78235,1.77536,2.95211,2.37732s2.4892.95426,3.96109,1.05967c1.46912.10264,2.8246-.0638,4.0692-.49655,1.24183-.42997,2.32288-1.07908,3.24316-1.9418.92305-.86271,1.66039-1.91128,2.21755-3.14016.55439-1.23165.88147-2.58814.98681-4.06945.10256-1.47299-.03604-2.85167-.41302-4.14435-.37698-1.28991-.96186-2.42725-1.75463-3.41202ZM197.43843,12.78247c-.07484,1.08463-.27442,2.04721-.59874,2.88773-.32432.83775-.75119,1.53679-1.28341,2.09437-.53776.56035-1.16698.97367-1.89323,1.2372-.72347.2663-1.53288.36617-2.42544.30514-.89256-.0638-1.68534-.2774-2.37-.64079-.69021-.36339-1.25846-.86271-1.70751-1.48964-.45183-.6297-.77614-1.37868-.98126-2.25526-.20235-.87658-.26611-1.85858-.19126-2.94044.07484-1.07631.27442-2.03057.59874-2.86554.32432-.8322.75397-1.53125,1.28618-2.09714.53221-.56312,1.16698-.982,1.896-1.25107.73456-.26908,1.54674-.37172,2.4393-.31069.89256.0638,1.67702.2774,2.36169.64912.6819.36894,1.24737.86826,1.69642,1.50351.44905.63247.77891,1.38422.98126,2.25249.20512.87104.26888,1.84471.19126,2.92102Z"
       id="path28" />
    <path
       d="M218.02003,26.52485c.18018.14702.42688.25521.73179.32178l2.0152.42442,4.19948-19.82021-3.44551-.73234-2.46148,11.61195c-.12474.58809-.22453,1.21778-.30491,1.88632l-7.02685-14.93243c-.08316-.15534-.16077-.28017-.2273-.37726s-.14414-.17754-.23007-.24411c-.08316-.0638-.18572-.11651-.29937-.15812-.11919-.03884-.25779-.0749-.42965-.11096l-2.05677-.43829-4.19671,19.82021,3.45937.73511,2.4892-11.74788c.11088-.52706.20235-1.10405.27165-1.73375l7.01853,14.85198c.14691.28295.31046.49377.4934.64357Z"
       id="path29" />
    <path
       d="M227.1092,28.75792c.4546.40223.94523.76285,1.47744,1.07631.53221.31624,1.0866.57144,1.66316.7684,1.02284.34675,1.9847.49377,2.88835.43552.90642-.05825,1.72969-.27463,2.46702-.65189.74288-.37449,1.38319-.896,1.92649-1.55899s.95909-1.42861,1.25569-2.2941c.27165-.80169.38253-1.52015.3354-2.15817-.04435-.63802-.19681-1.22056-.4546-1.73652-.25779-.51874-.59319-.99032-1.00067-1.41474-.40747-.41887-.84267-.81556-1.29726-1.17895-.45737-.36617-.90365-.71569-1.34439-1.04857-.44074-.33011-.82049-.66853-1.13926-1.00696-.316-.3412-.54884-.69073-.68744-1.05412-.1386-.36617-.13582-.76285.01386-1.19837.23284-.6824.64032-1.16508,1.22242-1.4397.58211-.27185,1.30281-.26076,2.17042.03329.4934.16644.90088.38004,1.23074.64357s.60983.52151.8399.77672c.2273.25521.42688.48822.59319.6935.16354.20805.33818.3412.52112.40223.19404.06658.36867.08322.52667.04438s.316-.13593.47954-.29404l1.57446-1.4619c-.44074-.87381-1.07274-1.64775-1.89323-2.32184-.81495-.67686-1.77404-1.20114-2.86895-1.57286-.97018-.33288-1.89046-.46881-2.74976-.41333-.86207.05271-1.64098.25521-2.33674.59641-.69853.34398-1.29726.80446-1.79067,1.37868-.49618.57977-.86484,1.22056-1.106,1.92515-.29937.88213-.43519,1.6644-.39916,2.34403.03049.67686.16909,1.28159.41856,1.81697.2467.53538.57656,1.01251.98958,1.42583.41302.41333.84544.79614,1.30004,1.14566.4546.34675.90365.67963,1.34993.99864s.82604.64634,1.13926.982c.316.33843.53776.7046.66804,1.09295s.11365.82665-.05544,1.31765c-.29105.86826-.75674,1.4397-1.38597,1.71988-.632.2774-1.38042.27185-2.24804-.02497-.59597-.2025-1.08105-.46603-1.45249-.79059-.37144-.32733-.68744-.65744-.93691-.982-.25502-.33011-.47677-.62138-.65972-.88491s-.39361-.43274-.62368-.51042c-.17186-.05825-.34926-.06935-.52944-.03329-.1774.03606-.33263.11096-.46846.22469l-1.74077,1.42306c.22453.50209.51835.99587.88702,1.4619.3659.46603.77614.90432,1.23074,1.30378Z"
       id="path30" />
    <path
       d="M244.80799,35.43216c.86762.99309,1.96253,1.80865,3.29306,2.44389,1.32776.63802,2.64997.98754,3.96386,1.0458,1.31667.05271,2.56127-.14702,3.73379-.61305,1.1753-.46048,2.24804-1.1623,3.21544-2.10269.9674-.93761,1.77681-2.07495,2.41713-3.41479.64032-1.32874,1.02007-2.66304,1.14481-4.00288.12197-1.33984,0-2.61311-.37698-3.81702-.37421-1.20946-.99235-2.30797-1.8572-3.3066-.86207-.99587-1.95698-1.81142-3.28751-2.45221-1.32776-.63802-2.65274-.982-3.96664-1.0347-1.31667-.05271-2.56404.15257-3.73934.60751-1.18084.45494-2.25358,1.14843-3.22653,2.08882-.97572.93484-1.78235,2.0694-2.41713,3.39815-.64586,1.33984-1.02562,2.68246-1.14758,4.02784-.12197,1.34539.00832,2.6242.3853,3.83089.37975,1.20946,1.00067,2.30797,1.86551,3.30106ZM246.49333,28.85501c.13305-.89045.43797-1.82529.90642-2.80729.46846-.9709,1.00344-1.78368,1.61049-2.44112.60705-.65466,1.264-1.14566,1.96807-1.47299.70407-.33011,1.44695-.48268,2.22586-.46048.77891.01664,1.57169.22192,2.38109.60751.80386.38836,1.45804.87936,1.95421,1.47577.50172.59364.84267,1.26772,1.02839,2.02224.18018.75453.20789,1.57563.07484,2.45776-.12751.88768-.42688,1.81419-.89533,2.78787-.47123.97922-1.00898,1.80032-1.61881,2.46054s-1.26677,1.15398-1.96807,1.47577c-.70407.31901-1.44141.47158-2.212.44939-.77337-.02219-1.56337-.22469-2.37-.61305-.80386-.38836-1.46081-.87658-1.9653-1.47022-.50726-.59364-.85376-1.26217-1.03947-2.01392-.18572-.74898-.21344-1.56731-.08039-2.45776Z"
       id="path31" />
    <path
       d="M263.50745,46.08431l4.2466-6.53554,1.13649.73788c.28828.19141.48786.37726.59042.56867.10256.18586.14968.42442.14691.71014l-.34926,7.30948c-.00554.63802.26333,1.13456.79832,1.48686l3.02972,1.96954.22453-8.66319c-.00554-.3412-.04989-.65744-.12751-.94593-.08039-.2885-.18849-.56035-.32432-.8211.68467.16644,1.33884.22747,1.97639.18308.632-.04161,1.23074-.17476,1.79344-.39668s1.08383-.53261,1.5606-.93484c.47677-.39668.89533-.87104,1.25569-1.42861.47123-.72401.78446-1.46744.93969-2.22752.15246-.76008.11365-1.5257-.11919-2.29687-.23284-.7684-.67358-1.53957-1.32498-2.31074-.6514-.7684-1.54674-1.52292-2.67769-2.25803l-5.11422-3.3288-11.03507,16.98519,3.37344,2.19701ZM272.8655,31.68172l1.74077,1.13179c1.05333.68795,1.69365,1.42029,1.91263,2.19978.22175.78227.06098,1.58395-.474,2.4106-.27165.42165-.58488.7684-.93969,1.04025-.35204.27463-.73733.45494-1.16144.5437-.42411.09154-.8787.07767-1.36656-.03329-.4934-.11373-1.00898-.34952-1.55505-.7046l-1.71305-1.11237,3.55639-5.47587Z"
       id="path32" />
    <polygon
       points="278.39828 56.63659 281.48898 59.16925 292.24685 46.01496 296.46851 49.47136 298.53637 46.94425 286.99681 37.49879 284.92895 40.0259 289.15338 43.4823 278.39828 56.63659"
       id="polygon32" />
    <rect
       x="286.70195"
       y="57.38513"
       width="20.25382"
       height="4.02596"
       transform="translate(47.73295 231.40606) rotate(-45.94214)"
       id="rect32" />
    <path
       d="M298.94662,68.8727c-.52944.96258-.84267,1.96399-.93969,3.00979-.09702,1.04025.03326,2.09714.39916,3.17068.36035,1.07076.9674,2.10824,1.81284,3.10965.84821,1.00419,1.76849,1.76704,2.76639,2.29687.99235.52983,2.00965.83497,3.0519.9071,1.04502.07767,2.08172-.06658,3.1212-.43274,1.03393-.36339,2.01797-.94316,2.94934-1.73375l9.21391-7.8088-2.58344-3.0514-9.21391,7.81435c-.57379.48545-1.15867.84884-1.75463,1.08741-.59874.23856-1.18084.34952-1.75186.33565-.57379-.01664-1.1254-.15812-1.66593-.42997-.53498-.27185-1.03116-.67963-1.4913-1.22056-.46014-.54648-.78169-1.10405-.96186-1.67827-.18018-.57144-.2273-1.14289-.14968-1.71156s.28551-1.12624.61814-1.67549c.3354-.54925.79-1.06799,1.36102-1.55344l9.21391-7.81158-2.58899-3.06249-9.21391,7.81158c-.93137.79059-1.66039,1.6644-2.1926,2.62698Z"
       id="path33" />
    <path
       d="M310.68021,91.23111l10.83549-6.5716c.24393-.14702.49895-.31346.7706-.50487.27165-.18863.54607-.38836.82049-.60473l-6.37545,11.43442c-.34095.57699-.34926,1.12902-.02772,1.65885l.29382.48268c.316.52151.80663.76562,1.4719.72679l12.98928-.39946c-.30491.14425-.59874.29682-.88147.44939-.27997.15534-.53776.30237-.77337.44661l-10.83271,6.5716,1.8267,3.01256,17.31072-10.50235-1.5606-2.58537c-.09147-.14702-.1774-.2774-.25502-.38281-.07484-.10819-.15523-.19695-.23839-.2663-.08316-.06658-.18295-.11373-.30214-.14425s-.26611-.03884-.43519-.03051l-12.59566.34398c-.36035.01387-.7207.04993-1.08383.10541-.3659.05271-.73733.11373-1.11432.17754.45737-.57699.87316-1.17895,1.23905-1.80865l6.13152-11.06825c.0887-.14702.14414-.28017.16909-.39946.02495-.11651.02772-.22747.00832-.3412-.02218-.11096-.06098-.22469-.11919-.33843-.05821-.11651-.12751-.24689-.21898-.39391l-1.57169-2.59646-17.31627,10.50235,1.83502,3.02643Z"
       id="path34" />
    <path
       d="M26.7336,240.804c0-2.47441-2.08034-4.52439-4.55151-4.52439-2.44207,0-4.49192,2.04998-4.49192,4.52439,0,2.44389,2.04984,4.52716,4.49192,4.52716,2.47118,0,4.55151-2.08327,4.55151-4.52716Z"
       id="path35" />
    <path
       d="M333.19575,120.82394c0,2.44389,2.04984,4.52716,4.49192,4.52716,2.47118,0,4.55151-2.08327,4.55151-4.52716,0-2.47441-2.08034-4.52439-4.55151-4.52439-2.44207,0-4.49192,2.04998-4.49192,4.52439Z"
       id="path36" />
  </g>
</svg>