<svg xmlns="http://www.w3.org/2000/svg"
aria-label="w 3 c" role="img"
viewBox="0 0 512 512"><rect
width="512" height="512"
rx="15%"
fill="#fff"/>
<path d="M158.24,167l31.31,106.45L220.86,167h84.89v10.58l-32,55.06c13.17,3.64,34.11,17.69,34.11,53.12,0,66.13-70.48,75.11-88.31,20.51l17.7-7.34c15.68,35,46.86,24.5,46.86-13.18,0-10.51-2.18-34.55-31.1-34.55h-8.63V240.88l30.23-52.26H237.1l-45.4,153.3h-2.16L157.15,233.54,124.76,341.93H122.6L70.79,167H93.46l31.31,106.45,21.16-71.68L135.57,167Z" fill="#005a9c"/>
<path d="M424,173.88H417v18.73h3.53v-8H424l3.81,8h3.95l-4.18-8.54C432.5,183.33,435.25,173.88,424,173.88Zm.45,8.49h-4v-6.2h3.9C429.08,176.18,429.67,182.38,424.46,182.38Zm-114,106.73c26.5,50.69,64.55,43.39,86.86,3.29l3.31,17.24C376.94,355.42,330,353.73,310.51,289.1ZM326.33,268c-26.85-54.46,18.73-140.7,56.62-76.41l12.81-25.53,3.68,22.33-13,24.87C361.33,166.79,317.19,200.76,326.33,268Z"/>
<circle cx="423.5" cy="183.5" r="15.5" fill="none" stroke="#000" stroke-width="2"/></svg>