<svg xmlns="http://www.w3.org/2000/svg"
aria-label="w 3 c" role="img"
viewBox="0 0 512 512"><rect
width="512" height="512"
rx="15%"
fill="#fff"/>
<path d="M158 167l32 106 31-106h85v11l-32 55c13 3 34 17 34 53 0 66-71 75-88 20l17-7c16 35 47 24 47-13 0-11-2-35-31-35h-9v-10l31-52h-38l-45 153h-2l-33-108-32 108h-2L71 167h22l32 106 21-71-10-35z" fill="#005a9c"/><path d="M424 174h-7v19h4v-8h3l4 8h4l-4-9c5-1 7-10-4-10zm0 8h-4v-6h4c5 0 6 6 0 6zM310 289c27 51 65 43 87 3l4 18c-24 45-71 44-90-21zm16-21c-27-54 19-141 57-76l13-26 3 22-13 25c-25-46-69-12-60 55z"/><circle cx="424" cy="184" r="16" fill="none" stroke="#000" stroke-width="2"/></svg>