<!-- <svg xmlns="http://www.w3.org/2000/svg"
aria-label="..." role="img"
viewBox="0 0 512 512"><rect
width="512" height="512"
rx="15%"
fill="#fff"/>
...
</svg> -->

<svg xmlns="http://www.w3.org/2000/svg"
aria-label="WebAssembly" role="img"
width="612" height="612">
	<path fill="#654ff0"
    d="m142.16 329.81h40.56l27.94 147.47 33.53-147.47h37.94l30.36 149.28 31.85-149.28h39.78L332.43 546.5h-40.25l-30.2-147.47-32.3 147.47h-41zm287.69 0h63.94l63.5 216.69h-41.84l-13.81-48.22H428.8l-10.66 48.22h-40.75zm24.34 53.41-17.69 79.5h55.06l-20.31-79.5zM376 0c0 1.08 0 2.16 0 3.3c0 38.76-31.42 70.17-70.17 70.17c-38.76 0-70.17-31.42-70.17-70.17c0-1.14 0-2.22 0-3.3H0v612h612V0z"/>
</svg>