<svg xmlns="http://www.w3.org/2000/svg"
aria-label="WebToons" role="img"
viewBox="0 0 512 512"><path
d="M0 0h512v512H0"
fill="#00d464"/><g fill="#fff"><path d="M333 221.6h-16.2v11.4h16.2a5.7 5.7 0 0 0 0-11.4z"/><ellipse cx="230.4" cy="292.6" rx="14.7" ry="17"/><ellipse cx="301.4" cy="291.6" rx="12.8" ry="14.8"/><path d="M336 199.5a5.7 5.7 0 0 0-5.7-5.7h-14v11.4h14a5.7 5.7 0 0 0 5.7-5.7z"/><path d="M383.2 235.4 397 91l-282 48 20.6 89.4H80.7l55 165 130.6-20.6V421l144.4-62 20.6-123.8Zm-83.8-55.6s33-2.6 41-2.1a16 16 0 0 1 17 16.8 21.75 21.75 0 0 1-8.4 18 19 19 0 0 1 9.8 18.2c-.2 14-15.5 16.8-15.5 16.8h-44Zm-53.3 4.5 46.3-3.5v15.8l-30.5 1v7.3h26.9v18h-27.2v9h30.8v15.8l-46.3-1.5zm-71 4 6.5 32.63 8.7-33.6 16.2-.4 8.5 34 9-36.5h17.2l-16 59.7h-18.64l-7.7-30-8.4 30H170.7l-14.3-55.8zm19.2 88.6-19.2-.4v51.6l-20.2 1v-53.2l-22.7-.5V256l62 2.5zm36.3 51.7a36 36 0 1 1 36-36 36 36 0 0 1-36 36zm71-5.4A31.4 31.4 0 1 1 332.7 291.6a31.4 31.4 0 0 1-31.3 31.4zm87-5.7H373l-18-24.7v27h-18v-57.7h18l18.8 29.7V262.8h17.3z"/></g></svg>