<svg xmlns="http://www.w3.org/2000/svg"
aria-label="WeChat" role="img"
viewBox="0 0 512 512"
fill="#fff"><path
d="m0 0H512V512H0"
fill="#00c70a"/><path d="M402 369c23-17 38-42 38-70 0-51-50-92-111-92s-110 41-110 92 49 92 110 92c13 0 25-2 36-5 4-1 8 0 9 1l25 14c3 2 6 0 5-4l-6-22c0-3 2-5 4-6m-110-85a15 15 0 110-29 15 15 0 010 29m74 0a15 15 0 110-29 15 15 0 010 29"/><path d="M250 198a18 18 0 000-35 18 18 0 100 35m-89 0a18 18 0 000-35 18 18 0 100 35m44-93c66 0 121 41 131 93-64-4-147 44-123 128-3 0-25 2-51-6-4-1-8 0-11 2l-30 17c-3 1-7-1-6-6l7-24c1-5-1-8-4-10-28-20-45-50-45-83 0-61 59-111 132-111"/></svg>