<svg xmlns="http://www.w3.org/2000/svg"
aria-label="Wekan" role="img"
viewBox="0 0 512 512"><rect
width="512" height="512"
rx="15%"
fill="#006984"/><path fill="#fff" d="M372 309s5-7 6-11l1-3-6 1c-1 1-5 13-19 26-8 7-17 9-25 8-6 0-10-4-13-11-2-7-3-15-1-25 4-19 9-29 16-29 8 7-3 35-12 42l-3 3h4c10-3 18-6 26-11 7-5 12-10 14-15 1-6-1-11-6-15s-12-6-20-7c-8 0-16 1-23 5 10-19 21-38 27-57 5-17 4-30-5-38-3-3-7-5-13-6-12-3-24-7-15 6 2 2 3 5 3 7 5 31-7 56-18 79-11 22-26 54-47 66l-1-3c-1-5 0-9 1-14l7-38 8-37 3-15c1-4 0-6-1-8l-17-10c-8-5-8-5-11 3l-11 31a680 680 0 01-36 77c-6 10-11 15-15 15-4-3-2-9-1-12 1-12 5-25 7-35l9-32 7-27 6-19c0-3-2-6-5-8l-15-9c-5-3-7-2-12-1a459 459 0 00-76 37c-11 8-18 14-21 20-4 8-3 15 1 22 2 4 5 8 9 11 15 10 10 4 12-8 0-4 2-8 4-12 5-8 13-18 27-29 14-10 29-19 45-26l-9 36-9 38c-3 14-8 27-8 41 2 12 12 21 24 21 8 0 15-5 22-15a481 481 0 0036-78l-6 32-4 28c-1 8 0 16 4 22 5 7 13 10 21 11 8 0 18-7 32-20l9-11c0 10 3 17 10 23 9 6 19 10 31 10 19-1 42-11 52-26z"/></svg>