<svg xmlns="http://www.w3.org/2000/svg" aria-label="WhatsApp" role="img" viewBox="0 0 512 512"><rect fill="#45d354" height="512" rx="15%" width="512"/><path d="M348 291a770 770 0 0 0-32-15c-4-2-7-3-10 2l-15 18c-3 3-5 4-10 1-4-2-19-7-37-23a139 139 0 0 1-26-32c-2-4 0-7 3-9l7-8 4-8c2-3 1-5 0-8-2-2-11-25-15-34-3-9-7-8-10-8h-9c-3 0-8 1-12 6-4 4-16 15-16 38s16 45 19 48c2 3 32 50 78 69l27 10c11 4 21 3 29 2 9-1 27-11 31-22s4-20 3-22l-9-5m-84 115c-28 0-55-8-79-22l-5-3-58 15 15-56-3-6a154 154 0 0 1 238-190 154 154 0 0 1-108 262m130-284a183 183 0 0 0-130-54 185 185 0 0 0-160 276l-26 96 97-26a185 185 0 0 0 219-292" fill="#fff"/></svg>