<svg role="img" aria-label="WhatsApp" viewBox="0 0 512 512" xmlns="http://www.w3.org/2000/svg">
<rect fill="#45D354" height="512" rx="15%" width="512"/>
<path d="M346 290l-31-15c-4-2-8-3-11 2l-14 18c-3 3-6 4-10 1-5-2-20-7-38-23-13-12-23-27-25-32-3-4-1-7 2-9l7-8 4-8c2-3 1-6 0-8l-14-35c-4-9-8-7-11-8h-9c-3 0-8 1-12 6s-16 16-16 39 16 45 19 48c2 3 32 50 79 70l26 9c11 4 21 3 29 2 9-1 28-11 32-22s4-20 2-22c-1-2-4-3-9-5m-84 115c-28 0-55-7-79-21l-5-4-59 16 16-57-4-6A154 154 0 0 1 262 97a153 153 0 0 1 154 154c0 85-69 154-154 154m131-285a186 186 0 0 0-292 224l-26 96 98-26a186 186 0 0 0 220-294" fill="#fff"/>
</svg>