<svg xmlns="http://www.w3.org/2000/svg" aria-label="Wifi" role="img" viewBox="0 0 512 512"><rect width="512" height="512" fill="#fff" rx="15%"/><path fill-rule="evenodd" d="M398 127a191 191 0 0 0-284 0zM114 384a191 191 0 0 0 284 0zM85 143c-47 0-85 38-85 85v55c0 47 38 85 85 85h342c47 0 85-38 85-85v-55c0-47-38-85-85-85zm418 84c0-41-33-75-75-75h-85c-41 0-75 34-75 75v57c0 42-34 76-75 76h235c42 0 75-34 75-76zm-295 5v81h24v-81zm-2-25a14 14 0 1 0 29 0 14 14 0 0 0-29 0zM44 196l31 117h20l24-81 23 81h21l31-117h-23l-18 77-23-77h-21l-23 75-17-75zm262 0v117h26v-46h58v-24h-58v-24h62v-23zm106 36v81h24v-81zm-2-25a14 14 0 1 0 28 0 14 14 0 0 0-28 0z"/></svg>