<svg xmlns="http://www.w3.org/2000/svg"
aria-label="Wikipedia" role="img"
viewBox="0 0 512 512"><path
d="m0 0H512V512H0"
fill="#fff"/><path d="M151 152l1 1v7c0 2 0 3-3 3-16 1-26 0-18 17l76 167 3 1 37-75-40-84c-11-23-11-24-23-26-3 0-5 0-5-2v-8l1-1h69l1 1v7c0 3-5 3-8 4-13 1-11 6-2 22l25 52 27-56c6-11 8-18-10-19-3 0-7 0-7-3v-7l1-1h64l1 1v7c0 2-2 3-4 3-15 0-17 9-25 24l-37 72 43 88 3 1 70-166c8-17-11-19-21-19-2 0-4-1-4-3v-7l1-1h80v8c0 2 0 3-2 3-17 0-28 7-36 24L323 381c-8 16-16 15-24 0l-42-88-45 88c-9 17-18 15-25 1L97 186c-8-18-8-22-28-23-3 0-4-1-4-3v-8Z"/></svg>