<svg xmlns="http://www.w3.org/2000/svg"
aria-label="Wireguard" role="img"
viewBox="0 0 512 512"><rect
width="512" height="512"
rx="15%" fill="#88171a" rx="15%"/><path fill="#fff" d="M186 176c44-27 100-11 120 29 4 8 5 20 2 28-8 27-29 43-57 49 8-7 15-15 17-26 2-10 0-22-6-30a39 39 0 00-45-14c-18 7-27 22-25 42 1 18 15 29 41 34l-10 5c-12 6-22 15-30 26-3 3-4 4-8 1a85 85 0 011-144m-38 194l-25 8c4-28 37-54 64-51-8 11-13 24-13 38M323 98h25l6 1-6 8c-3 3-6 5-11 1l-5-1h-24l-21 2c-2 1-3 5-3 6l7 11 34 25c11 9 21 18 28 31 8 17 8 35 5 53-6 29-21 54-46 72-9 7-21 11-33 16l-30 13c-17 8-27 27-24 47 2 19 18 34 37 37 22 4 45-10 50-33 7-25-7-48-33-55l-5-1 19-8 28-17c3-2 4-2 7 0 17 16 28 35 31 58a91 91 0 11-110-77c18-3 35-11 48-25 9-10 13-18 15-21 2-7 4-14 4-21-1-6-2-12-5-18-4-10-22-27-26-30l-41-32-6-1h-20l19-11c-14-8-29-5-42-8 3-6 19-15 28-16l-3-15c0-2-3-4-5-5l-15-8c5-3 11-5 16-5l17 1c10 3 18 1 25-5l-18-8-17-9c15 2 30 8 46 6l1-2-37-9c22-2 42-2 61 7l17 8 6 7 5 5c8 4 16 4 25 4v-3c9 3 19 13 19 20h-43l-4 2"/></svg>
