<svg
aria-label="workos"
viewBox="0 0 512 512"
xmlns="http://www.w3.org/2000/svg">
<defs><clipPath id="a"><path d="M102.3 142H455v524H102.3Zm0 0"/></clipPath><clipPath id="b"><path d="M355 143h352.55v524H355Zm0 0"/></clipPath></defs><g clip-path="url(#a)"><path fill="#6363f1" d="M102.3 404.824c0 12.016 3.278 22.934 8.74 32.762l105.976 183.469c10.922 18.562 27.312 33.851 48.07 40.406 39.328 13.105 81.937-3.277 102.695-38.223l25.125-44.773-100.508-174.73 107.067-184.56 25.125-43.683q11.471-19.656 29.5-32.762H290.21c-28.401 0-55.718 15.29-69.917 40.407L111.039 372.063c-5.46 9.832-8.738 20.75-8.738 32.761"/></g><g clip-path="url(#b)"><path fill="#6363f1" d="M707.55 404.824c0-12.012-3.277-22.93-8.741-32.762L591.746 186.415c-20.758-36.039-63.367-51.328-102.7-38.223-20.757 6.555-37.144 21.84-48.07 40.407l-25.124 41.5 101.601 174.726-107.066 184.559-25.125 44.777q-11.472 19.654-29.5 32.762H520.73c28.407 0 55.72-15.29 69.922-40.406l109.25-188.93c4.371-9.828 7.649-20.746 7.649-32.762"/></g></svg>