<svg xmlns="http://www.w3.org/2000/svg"
xmlns:xlink="http://www.w3.org/1999/xlink"
aria-label="workato" role="img"
viewBox="0 0 512 512"
fill="#fff"><rect
width="512" height="512"
rx="15%"
fill="#fff"/><path fill="#27989F" d="M205,386 L155.900002,386 C124,309 95,219 70,127 L133.5,127 C145.300003,178 164,257 183.599998,313.532684 C198.300003,264 218.199997,189 231.699997,127 L280.300003,127 C293.800003,189 313.699997,264 329.937192,313.687611 C348,257 366.700012,178 378.5,127.154927 L442,127.154927 C417,219 388,309 356.100006,386 L307,386 C288,332 272,282 256,223.209964 C240,282 224,332 205,386 Z"></path></svg>
