<svg
aria-label="workos"
version="1.1"
id="Layer_1"
xmlns="http://www.w3.org/2000/svg"
x="0"
y="0"
viewBox="0 0 55.4 48"
style="border:100px solid white"
xml:space="preserve">
<style>.st0{fill:#6363f1}</style>
<path id="logo-icon" class="st0" d="M0 24c0 1.1.3 2.1.8 3l9.7 16.8c1 1.7 2.5 3.1 4.4 3.7 3.6 1.2 7.5-.3 9.4-3.5l2.3-4.1-9.2-16L27.2 7l2.3-4q1.05-1.8 2.7-3h-15c-2.6 0-5.1 1.4-6.4 3.7L.8 21c-.5.9-.8 1.9-.8 3"/>
<path id="logo-icon_1_" class="st0" d="M55.4 24c0-1.1-.3-2.1-.8-3L44.8 4C42.9.7 39-.7 35.4.5c-1.9.6-3.4 2-4.4 3.7L28.7 8 38 24l-9.8 16.9-2.3 4.1q-1.05 1.8-2.7 3h15.1c2.6 0 5.1-1.4 6.4-3.7l10-17.3c.4-.9.7-1.9.7-3"/></svg>
