<svg xmlns="http://www.w3.org/2000/svg" aria-label="WorkOS logo" role="img" width="1080" height="1080" viewBox="0 0 512 512">
 <g fill="#6363f1">
 <path d="M61.495 238.136c0 7.81 2.13 14.907 5.681 21.295l68.884 119.255c7.1 12.065 17.753 22.003 31.246 26.264 25.563 8.518 53.259-2.13 66.752-24.845l16.33-29.103-65.33-113.574 69.594-119.964 16.332-28.394q7.456-12.777 19.175-21.295H183.636c-18.46 0-36.216 9.938-45.446 26.264L67.175 216.841c-3.549 6.39-5.68 13.487-5.68 21.295"/>
 <path d="M454.907 238.136c0-7.808-2.13-14.905-5.681-21.296L379.635 96.17c-13.493-23.426-41.189-33.363-66.755-24.845-13.492 4.26-24.144 14.196-31.246 26.264l-16.33 26.975 66.04 113.572L261.752 358.1l-16.332 29.105q-7.456 12.775-19.175 21.295h107.23c18.464 0 36.218-9.939 45.449-26.264l71.012-122.804c2.841-6.389 4.972-13.485 4.972-21.296z"/>
 </g>
</svg>