<svg xmlns="http://www.w3.org/2000/svg"
aria-label="WorkOS" role="img"
viewBox="0 0 512 512">
  <path fill="#fff" d="M0 0h512v512H0z"/>
  <g fill="#6363f1">
    <path d="M61.5 238.1c0 7.8 2.1 14.9 5.7 21.3l68.9 119.3c7.1 12.1 17.8 22 31.2 26.3 25.6 8.5 53.3-2.1 66.8-24.8l16.3-29.1-65.3-113.6 69.6-120 16.3-28.4c7.5-12.8 19.2-21.3 33.1-21.3H183.6c-18.5 0-36.2 9.9-45.4 26.3L67.2 216.8c-3.6 6.4-5.7 13.5-5.7 21.3z"/>
    <path d="M454.9 238.1c0-7.8-2.1-14.9-5.7-21.3L379.6 96.2c-13.5-23.4-41.2-33.4-66.8-24.8-13.5 4.3-24.1 14.2-31.2 26.3l-16.3 27 66 113.6-66.6 119.1-16.3 29.1c-7.5 12.8-19.2 21.3-33.1 21.3h107.2c18.5 0 36.2-9.9 45.4-26.3l71-122.8c2.8-6.4 5-13.5 5-21.3z"/>
  </g>
</svg>
