<svg xmlns="http://www.w3.org/2000/svg"
aria-label="Xbox" role="img"
viewBox="0 0 512 512"><path
d="m0 0H512V512H0"
fill="#fff"/><path fill="#107c10" d="m256 220.4.6.3c53.8 41 146 142.2 118 170.8C342.8 419.2 301.4 436 256 436s-86.8-16.8-118.5-44.5c-28.1-28.6 65-130 118-170.8zm93.8-118.1C322.2 86 292.3 76 256 76s-66.2 10-93.8 26.3q-.5.4-.3.9t.9.3c34.9-7.5 87.8 22.6 92.8 25.6l.4.1.4-.1c5-3 58-33 92.8-25.6q.6 0 .9-.3.3-.5-.3-.9M130 127.6l-.8.6C96.4 161 76 206 76 256s13.7 78.8 36.8 109.1q.4.5 1 .3.4-.4.2-.9c-13.7-42.4 56.4-145.3 92.7-188.4l.2-.5-.3-.6C151.7 120.3 133 126 130 127.6m175.4 47.3q-.3.2-.3.6 0 .5.2.5c36.2 43 106.4 146 92.7 188.4q-.2.5.2.9c.4.4.7 0 1-.3A179 179 90 00436 256 196 196 90 00382 127.6c-3-1.6-21.7-7.4-76.6 47.3"/></svg>