<svg xmlns="http://www.w3.org/2000/svg"
aria-label="Xbox" role="img"
viewBox="0 0 512 512"><path
fill="#107c10" d="m180 144.4.6.3c53.8 40.9 146 142.2 117.9 170.8C266.8 343.2 225.4 360 180 360s-86.8-16.8-118.5-44.5c-28.1-28.6 64.1-129.9 117.9-170.8zm93.8-118.1C246.2 10 216.3 0 180 0s-66.2 10-93.8 26.3q-.5.4-.3.9t.9.3c34.9-7.5 87.8 22.6 92.8 25.6l.4.1.4-.1c5-3 58-33.1 92.8-25.6q.6 0 .9-.3.3-.5-.3-.9M54 51.6l-.8.6C20.4 84.9 0 130 0 180s13.7 78.8 36.8 109.1q.4.5 1 .3.4-.4.2-.9c-13.7-42.4 56.4-145.3 92.7-188.4l.2-.5-.3-.6C75.7 44.3 57 50.1 54 51.6m175.4 47.3q-.3.2-.3.6 0 .5.2.5c36.2 43.1 106.4 146 92.7 188.4q-.2.5.2.9c.4.4.7 0 1-.3A179 179 0 0 0 360 179.9a196 196 0 0 0-54-128.3c-3-1.6-21.7-7.4-76.6 47.3"/></svg>