<?xml version="1.0" encoding="UTF-8" standalone="no"?>
<svg xmlns="http://www.w3.org/2000/svg" version="1.1" viewBox="0 0 512 512">
 <rect rx="76.8" height="512" width="512" y="0" x="0" fill="#077"/>
 <path d="m131.12 156.98 36.254 60.251c0.12696 0.20239 0.15037 0.49798 0.008 0.76251l-54.198 94.231c-4.1107 6.4238-1.0594 11.071 3.0925 11.133l57.593-0.0835c3.012 0.0795 3.9914-0.55225 5.8766-3.5802l57.31-98.822c0.19989-0.41516 0.25133-1.01 0.002-1.433l-39.682-64.059c-0.8462-1.6694-1.5651-3.0417-2.5227-3.9897-0.9576-0.94795-2.1539-1.4716-3.9549-1.4435l-55.44-0.39c-3.44 0.61649-5.0225 3.88-4.3295 7.4221z" fill-rule="evenodd" fill="#fff"/>
 <path d="m348.23 82.719c-5.709 0.08983-7.6568 2.3983-10.305 6.2524l-112.63 198.39c-0.32467 0.59117-0.35527 1.4176-0.0162 2.076l74.703 132.57c1.7884 3.3857 3.7914 4.403 8.0847 4.4128l54.383-0.3987c5.3206 0.0506 7.6454-3.5112 4.948-8.6591l-74.21-128.02 112.57-199.78c2.035-3.4504-1.017-6.7966-4.948-6.8036z" fill-rule="evenodd" fill="#fff"/>
</svg>
