<svg xmlns="http://www.w3.org/2000/svg" width="512" height="512" viewBox="0 0 512 512"><linearGradient id="a" x1=".5" y1="1" x2=".5" y2="0">
<stop offset="0" stop-color="#1b3967"/><stop offset=".5" stop-color="#13b5ea"/><stop offset="1" stop-color="#002b5c"/></linearGradient>
<path d="M137 15c.102 1-2 1-2 2 0 38-44 96-89 108v1c60-5 126-67 128-126l-36 14zm0 0" fill="url(#a)"/>
<path d="M121 18c.102 1.3.102 2.602.102 4 0 39-31 90-76 102v1c59-4 106-63 106-109 0-2-.102-5-.403-7l-30 9zm0 0" fill="#e96d1f"/>
<path d="M151 9l-8 3c0 1 .2 2.2.2 3 0 41-37 98-87 107-3 1.102-7 2-11 3v2c68-8 111-72 106-117zm0 0" fill="#d9541e"/>
<path d="M32 13c-.102 1 2 1 2 2 0 38 47 97 91 109v1.602c-60-5.5-129-67-128-127l36 16zm0 0" fill="url(#a)"/>
<path d="M55 20c-.102 1.3-.102 2.602-.102 4 0 38 31 90 76 101.898v1.602c-59-2.8-105.796-63-105.796-109.2 0-2.402.097-4.698.398-7.1l29.7 9zm0 0" fill="#a0ce67"/>
<path d="M25 11l7 3c0 1-.102 2.3-.102 3 0 41 37 98 87 107 3 1 7 2 11 3v2c-66-5-111-72-106-117zm0 0" fill="#439639"/></svg>
