<svg xmlns="http://www.w3.org/2000/svg" aria-label="XMPP" viewBox="-3277 648 176 134"><linearGradient id="a" x1="50%" y1="100%" x2="50%" y2="0%"><stop offset="0" stop-color="#1b3967"/><stop offset=".5" stop-color="#13b5ea"/><stop offset="1" stop-color="#002b5c"/></linearGradient><path fill="url(#a)" d="M-3140 662c.1 1-2 1-2 2 0 38-44 96-89 108.2v1.2c60-5 126-67 128-126l-36 14.2z"/><path fill="#E96D1F" d="M-3156 666.5c.1 1.3.1 2.6.1 4 0 39-31 90-76 102v1.6c59.1-4 106-63 106-109 0-2.4-.1-5-.4-7l-30 9z"/><path fill="#D9541E" d="M-3126 657.3l-8 2.6c0 1 .2 2.2.2 3 0 41-37 98-87 107.1-3 1.1-7 2-11 2.9v1.6c68.3-8.5 111-72 106-117z"/><path fill="url(#a)" d="M-3240 663c-.1 1 2 1 2 2 0 38 47 97 91 109v1.6c-60-5.5-129-68-130-126.9l36.6 14z"/><path fill="#A0CE67" d="M-3222 667.5c-.1 1.3-.1 2.6-.1 4 0 38 31 90 76 101.9v1.6c-59-2.8-105.8-63-105.8-109.2 0-2.4.1-4.7.4-7.1l29.7 9z"/><path fill="#439639" d="M-3252.3 658.1l7.6 2.7c0 1-.1 2.3-.1 3 0 41 37 98 87 107 3 1 7 2 10.9 2.9v1.6c-65.2-5.4-111-71.7-105.7-117.5z"/></svg>
