<svg xmlns="http://www.w3.org/2000/svg" aria-label="XMPP" role="img" viewBox="0 0 512 512"><linearGradient id="a" x1="50%" y1="100%" x2="50%" y2="0%"><stop offset="0" stop-color="#1b3967"/><stop offset=".5" stop-color="#13b5ea"/><stop offset="1" stop-color="#002b5c"/></linearGradient>
<path fill="url(#a)" d="M137 15c.1 1-2 1-2 2 0 38-44 96-89 108v1c60-5 126-67 128-126l-36 14z"/>
<path fill="#E96D1F" d="M121 18c.1 1.3.1 2.6.1 4 0 39-31 90-76 102v1c59-4 106-63 106-109 0-2-.1-5-.4-7l-30 9z"/>
<path fill="#D9541E" d="M151 9l-8 3c0 1 .2 2.2.2 3 0 41-37 98-87 107-3 1.1-7 2-11 3v2c68-8 111-72 106-117z"/>
<path fill="url(#a)" d="M32 13c-.1 1 2 1 2 2 0 38 47 97 91 109v1.6c-60-5.5-129-67-128-127l36 16z"/>
<path fill="#A0CE67" d="M55 20c-.1 1.3-.1 2.6-.1 4 0 38 31 90 76 101.9v1.6c-59-2.8-105.8-63-105.8-109.2 0-2.4.1-4.7.4-7.1l29.7 9z"/>
<path fill="#439639" d="M25 11l7 3c0 1-.1 2.3-.1 3 0 41 37 98 87 107 3 1 7 2 11 3v2c-66-5-111-72-106-117z"/></svg>
