<svg xmlns="http://www.w3.org/2000/svg" aria-label="Yammer" role="img" viewBox="0 0 512 512"><rect width="512" height="512" fill="#fff" rx="15%"/><path fill="#265495" d="M487.21 238.2c-.88-.04-1.8-.05-2.77-.05-16.14.03-132.25 12.77-126.43 24.6 5.8 11.7 77.3 17.4 128.26 17.41a21.42 21.42 0 0 0 17.68-22.54 21.45 21.45 0 0 0-16.74-19.42M447.84 361c-44.7-24.48-110.1-53.92-120.83-46.42-10.8 7.56 84.86 74.6 99 82.38l2.45 1.3a21.45 21.45 0 0 0 24.03-8.99c5.96-9.3 3.8-21.5-4.65-28.27m0-201.53a21.42 21.42 0 0 0 4.65-28.26 21.45 21.45 0 0 0-24.03-8.99c-.77.4-1.58.83-2.44 1.3-14.15 7.8-109.8 74.82-99 82.38 10.72 7.5 76.13-21.94 120.82-46.43zM179.83 338.91c-13.3 37.55-25.61 55.13-53.9 55.13-2.73 0-12.24-.56-12.86-.61a19.79 19.79 0 0 0-6.44 38.77c7.5 1.31 15.2 1.8 22.1 1.8 52.13 0 69.37-30.01 86.58-73.83L317 106.47a21.87 21.87 0 0 0-14.15-27.45 21.84 21.84 0 0 0-27.13 13.28l-71.47 188.87h-1.12l-75.17-190.3a23.09 23.09 0 0 0-42.82 17.07z"/></svg>