<svg xmlns="http://www.w3.org/2000/svg"
aria-label="Yii3" role="img"
viewBox="0 0 512 512"><path
d="m0 0H512V512H0"
fill="#fff"/><path fill="#40B3D8" d="M312.04 201.67c31.3 44.47 50.61 103.73 42.57 179.39l-.06.34c-15.41 83.18-64.24 114.15-121.57 130.6-17.7-63.5-13.48-112.95 1.06-136.91 11.82-19.51 25.96-38.66 39.08-61 17.23-29.34 32.71-64.15 38.92-112.42"/><path fill="#F18A2A" d="M370.2 349.03c5.08-86.53-33.92-138.53-56.47-195.36C286.87 85.96 343.28 23.5 381.21 0c25.62 19.31 58.51 44.16 73.41 91.44 17.66 56.06 20.66 131.06-84.42 257.59"/><path fill="#83C933" d="M47.99 113.39c74.29-30.89 164.58-5.03 217.38 38.27 55.91 45.84 100.91 120.84 89.2 229.81-23.29-78.97-142.29-74.97-188.9-86.64-45.91-11.48-119.39-65.33-117.68-181.44"/><path fill="#7FB93C" d="M273.12 314.09c36.8 10.56 70.2 29.33 81.43 67.31l.06-.34c8.04-75.66-11.27-134.92-42.57-179.39-6.21 48.27-21.69 83.08-38.92 112.42"/></svg>