<svg xmlns="http://www.w3.org/2000/svg"
aria-label="Yii3" role="img"
viewBox="0 0 512 512"><path
d="m0 0H512V512H0"
fill="#fff"/><path fill="#40B3D8" d="M355.83 325.46c-3.46-45.61-18.17-75.17-25.33-91.92s-18.17-32.43-18.18-32.41c-.02.07-9.91 53.37-27.69 91.93-2.97 6.44-6.91 14.48-10.89 20.96-12.27 21.67-30.08 42.41-40.7 63.42-10.53 20.83-12.48 41.46-11.5 64.92.98 23.58 6.43 46.71 11.66 69.64 19.72-4.26 36.88-11.54 51.73-20.84 39.07-24.5 62.68-63.68 69.39-105.89 0 0 .33-1.71.47-3.8 3.03-32.62 2.03-42.91 1.04-56.01"/><path fill="#83C933" d="M355.83 325.46c-3.46-45.61-18.17-75.17-25.33-91.92s-18.17-32.43-18.18-32.41v.01-.01l-2.62-3.91c-57.62-80.88-168.13-121.27-261.49-83.84-4.5 56.7 21.79 154.25 117.68 181.45 38.77 11.93 69.81 8.84 107.86 19.18l-.01.01s38.68 13.47 61.17 33.68c10.12 9.09 20.26 21.06 19.75 35.28 3.2-33.86 2.17-44.22 1.17-57.52"/><path fill="#F18A2A" d="M313.95 153.67c-13.62-39.86-7.85-66.57 17.08-103.74 11.89-17.74 32.41-38.31 50.4-49.93 72.58 45.48 99.42 130.2 72.73 208.88-19.43 57.25-37.65 81.25-83.74 140.15 5.37-63.08-16.83-106.81-38.63-155.41-5.55-12.36-13.22-26.44-17.84-39.95"/><path fill="#7FB93C" d="M354.65 382.98c.52-14.23-9.62-26.18-19.74-35.28-22.49-20.21-61.17-33.68-61.17-33.68 3.98-6.48 7.92-14.52 10.89-20.96 17.78-38.56 27.67-91.85 27.7-91.93 0-.02 11.01 15.66 18.17 32.41s21.87 46.32 25.33 91.92c1 13.3 2.03 23.66-1.18 57.52"/></svg>