<svg xmlns="http://www.w3.org/2000/svg" xml:space="preserve" id="layer" x="0" y="0" version="1.1" viewBox="0 0 652 652"><style id="style1" type="text/css">.st1{fill:#fff}</style><g id="g1" transform="matrix(.41357 0 0 .37645 193.677 205.177)"><path id="Rectangle-Copy-10" d="M82.3 71h475.3c6.8 0 12.3 5.5 12.3 12.3v475.3c0 6.8-5.5 12.3-12.3 12.3H82.3c-6.8 0-12.3-5.5-12.3-12.3V83.3C70 76.5 75.5 71 82.3 71" style="fill:#e23744"/><g id="Group" transform="translate(31 221)"><path id="zomato-copy-10" d="m136.6 75.4-.4 12.7-33.1 36c13.8 0 22.6-.1 27.6-.4-1.5 6.8-2.7 12.4-3.9 20.8-6.6-.6-17-.7-27.4-.7-11.6 0-21.7.1-29.8.7l.3-12.8L103 95.9c-14.5 0-19.8.1-25.8.3 1.3-6.4 2.3-13.5 3.2-20.6 10.6.2 14.8.4 28.4.4 12.7 0 19.8-.2 27.8-.6m23.5 39.8c0 8.5 2.8 12.8 7.6 12.8 6.4 0 11.4-10.3 11.4-22.9 0-8.6-2.8-12.8-7.4-12.8-6.4 0-11.6 10.2-11.6 22.9m43.5-11.1c0 23.1-16.3 42.4-38 42.4-19.4 0-29.4-13.2-29.4-30.5 0-23 16.5-42.2 38-42.2 19.7 0 29.4 13.2 29.4 30.3m260.3 11.1c0 8.5 2.8 12.8 7.6 12.8 6.4 0 11.4-10.3 11.4-22.9 0-8.6-2.8-12.8-7.4-12.8-6.4 0-11.6 10.2-11.6 22.9m44.3-11.5c0 23.4-16.6 42.9-38.5 42.9-19.7 0-29.7-13.4-29.7-30.9 0-23.3 16.7-42.8 38.5-42.8 19.9 0 29.7 13.4 29.7 30.8m-192.9-7.5c1.7-11.9.8-22.6-12.4-22.6-9.6 0-19.9 8.1-27.2 21.6 1.6-11.2.7-21.6-12.4-21.6-9.8 0-20.5 8.5-27.8 22.6 1.9-9.2 1.5-19.7.9-21.9-7.6 1.3-14.2 2-23.5 2.2.3 6.4-.1 14.8-1.3 22.7l-3.1 20.9c-1.2 8.2-2.5 17.7-3.9 23.7h24.7c.1-3.6 1.1-9.3 1.7-14.4l2.1-14.4c1.7-9.3 9.2-20.4 14.9-20.4 3.3 0 3.2 3.2 2.3 9.2l-2.4 16.2c-1.2 8.2-2.5 17.7-3.9 23.7h25c.1-3.6.9-9.3 1.6-14.4l2.1-14.4c1.7-9.3 9.2-20.4 14.9-20.4 3.3 0 3.2 3.1 2.7 7.2l-6 41.8h22.8zm119.3 28-2.7 16.5c-4.1 2.2-11.8 5.4-20.7 5.4-15.1 0-18.2-8.1-15.8-25.2l3.9-27.6h-7.5l2.1-17.9 8.1-.4 3.1-13 23-8.6-2.9 21.6H441c-.5 2.2-2.4 14.5-2.9 18.3h-15.4l-3.5 25.5c-.9 6.6-.4 8.9 4.1 8.9 3.4 0 8.3-2 11.3-3.5" class="st1"/><path id="a-copy-7" d="M347.5 132c8.4-1 14.1-9.1 15.5-17.1l.2-2.2c-3.6-.8-8.8-1.4-13.8-.8-4.8.6-8.8 2.6-10.9 5.5-1.6 2.1-2.4 4.6-2.1 7.5.5 4.4 5.4 7.8 11.1 7.1m-7.2 12.8c-11.8 1.5-19.6-3.2-21.9-13.9-1.5-6.7.6-14.3 4.1-18.9 4.8-6 12.5-9.8 22-11 7.6-.9 14-.5 20 .7l.3-1c.2-1.6.3-3.3.1-5.3-.6-5-4.6-8.1-14.4-6.9-6.6.8-13 3.2-17.9 5.9L327.8 80c6.6-3.8 15-6.7 24.6-7.9 18.3-2.3 31.2 3.6 32.8 17 .4 3.6.5 7.4 0 10.8q-3.6 24.9-4.5 37.5c-.1 1.3-.1 3.5 0 6.7H358c.5-1.3.9-3.1 1.3-5.3.3-1.5.4-3.3.6-5.6-4.7 6.6-11.3 10.6-19.6 11.6" class="st1"/></g></g></svg>