<svg xmlns="http://www.w3.org/2000/svg"
aria-label="Zoom" role="img"
viewBox="0 0 512 512"><path
d="M0 0h512v512H0"
fill="#0b5cff"/><path fill="#fff" d="M145 301H76q-7 0-11-6-3-8 3-14l47-47H81q-15-2-17-17h63q7 1 11 7 3 7-2 13l-48 47h40q15 2 16 17m270-85q-15 0-25 11a33 33 0 0 0-57 22v52q15-1 17-17v-35q1-15 15-16c9-1 17 7 17 16v35q1 16 17 17v-52q1-15 15-16c9-1 17 7 17 16v35q2 16 17 17v-52c0-18-15-33-33-33m-185 43c0 24-19 43-44 43-24 0-43-19-43-43s19-43 43-43c25 0 44 19 44 43m-17 0a26 26 0 1 0-53 1 26 26 0 0 0 53-1m111 0c0 24-19 43-44 43-24 0-43-19-43-43s19-43 43-43c25 0 44 19 44 43m-17 0a26 26 0 1 0-53 1 26 26 0 0 0 53-1"/></svg>